<?xml version="1.0" encoding="UTF-8" standalone="no"?>
<!DOCTYPE svg PUBLIC "-//W3C//DTD SVG 1.1//EN" "http://www.w3.org/Graphics/SVG/1.1/DTD/svg11.dtd">
<svg xmlns="http://www.w3.org/2000/svg" version="1.1" viewBox="0.00 0.00 200.00 200.00">
<g stroke-width="2.00" fill="none" stroke-linecap="butt">
<path stroke="#682818" vector-effect="non-scaling-stroke" d="
  M 174.99 25.73
  A 0.74 0.74 0.0 0 0 174.25 24.99
  L 25.73 24.99
  A 0.74 0.74 0.0 0 0 24.99 25.73
  L 24.99 49.27
  A 0.74 0.74 0.0 0 0 25.73 50.01
  L 174.25 50.01
  A 0.74 0.74 0.0 0 0 174.99 49.27
  L 174.99 25.73"
/>
<path stroke="#682818" vector-effect="non-scaling-stroke" d="
  M 100.03 174.98
  Q 170.54 174.98 174.15 174.97
  A 0.87 0.86 -0.1 0 0 175.02 174.11
  L 175.02 75.86
  A 0.87 0.87 0.0 0 0 174.15 74.99
  L 150.66 74.99
  A 0.64 0.63 90.0 0 0 150.03 75.63
  L 150.03 124.14
  A 0.83 0.83 0.0 0 1 149.20 124.97
  Q 116.68 125.01 100.02 125.02
  Q 83.36 125.02 50.85 124.98
  A 0.83 0.83 0.0 0 1 50.02 124.15
  L 50.01 75.64
  A 0.64 0.63 90.0 0 0 49.38 75.00
  L 25.89 75.00
  A 0.87 0.87 0.0 0 0 25.02 75.87
  L 25.04 174.12
  A 0.87 0.86 0.1 0 0 25.91 174.98
  Q 29.51 174.99 100.03 174.98"
/>
<path stroke="#7c5028" vector-effect="non-scaling-stroke" d="
  M 125.04 75.94
  A 0.93 0.93 0.0 0 0 124.11 75.01
  L 75.91 75.01
  A 0.93 0.93 0.0 0 0 74.98 75.94
  L 74.98 99.08
  A 0.93 0.93 0.0 0 0 75.91 100.01
  L 124.11 100.01
  A 0.93 0.93 0.0 0 0 125.04 99.08
  L 125.04 75.94"
/>
</g>
<path fill="#000000" d="
  M 200.00 0.00
  L 200.00 200.00
  L 0.00 200.00
  L 0.00 0.00
  L 200.00 0.00
  Z
  M 174.99 25.73
  A 0.74 0.74 0.0 0 0 174.25 24.99
  L 25.73 24.99
  A 0.74 0.74 0.0 0 0 24.99 25.73
  L 24.99 49.27
  A 0.74 0.74 0.0 0 0 25.73 50.01
  L 174.25 50.01
  A 0.74 0.74 0.0 0 0 174.99 49.27
  L 174.99 25.73
  Z
  M 100.03 174.98
  Q 170.54 174.98 174.15 174.97
  A 0.87 0.86 -0.1 0 0 175.02 174.11
  L 175.02 75.86
  A 0.87 0.87 0.0 0 0 174.15 74.99
  L 150.66 74.99
  A 0.64 0.63 90.0 0 0 150.03 75.63
  L 150.03 124.14
  A 0.83 0.83 0.0 0 1 149.20 124.97
  Q 116.68 125.01 100.02 125.02
  Q 83.36 125.02 50.85 124.98
  A 0.83 0.83 0.0 0 1 50.02 124.15
  L 50.01 75.64
  A 0.64 0.63 90.0 0 0 49.38 75.00
  L 25.89 75.00
  A 0.87 0.87 0.0 0 0 25.02 75.87
  L 25.04 174.12
  A 0.87 0.86 0.1 0 0 25.91 174.98
  Q 29.51 174.99 100.03 174.98
  Z
  M 125.04 75.94
  A 0.93 0.93 0.0 0 0 124.11 75.01
  L 75.91 75.01
  A 0.93 0.93 0.0 0 0 74.98 75.94
  L 74.98 99.08
  A 0.93 0.93 0.0 0 0 75.91 100.01
  L 124.11 100.01
  A 0.93 0.93 0.0 0 0 125.04 99.08
  L 125.04 75.94
  Z"
/>
<rect fill="#d05030" x="24.99" y="24.99" width="150.00" height="25.02" rx="0.74"/>
<path fill="#d05030" d="
  M 100.02 125.02
  Q 116.68 125.01 149.20 124.97
  A 0.83 0.83 0.0 0 0 150.03 124.14
  L 150.03 75.63
  A 0.64 0.63 -90.0 0 1 150.66 74.99
  L 174.15 74.99
  A 0.87 0.87 0.0 0 1 175.02 75.86
  L 175.02 174.11
  A 0.87 0.86 -0.1 0 1 174.15 174.97
  Q 170.54 174.98 100.03 174.98
  Q 29.51 174.99 25.91 174.98
  A 0.87 0.86 0.1 0 1 25.04 174.12
  L 25.02 75.87
  A 0.87 0.87 0.0 0 1 25.89 75.00
  L 49.38 75.00
  A 0.64 0.63 90.0 0 1 50.01 75.64
  L 50.02 124.15
  A 0.83 0.83 0.0 0 0 50.85 124.98
  Q 83.36 125.02 100.02 125.02
  Z"
/>
<rect fill="#f8a050" x="74.98" y="75.01" width="50.06" height="25.00" rx="0.93"/>
</svg>
