<?xml version="1.0" encoding="UTF-8" standalone="no"?>
<!-- Created with Inkscape (http://www.inkscape.org/) -->

<svg
   width="32"
   height="32"
   viewBox="0 0 32 32"
   version="1.1"
   id="svg1"
   xml:space="preserve"
   xmlns="http://www.w3.org/2000/svg"
   xmlns:svg="http://www.w3.org/2000/svg"><defs
     id="defs1" /><g
     id="layer1"><path
       id="rect2"
       style="fill:#eb3cae;fill-opacity:1;stroke:none;stroke-width:7.132;stroke-linecap:round;stroke-dasharray:none"
       d="M -1.8533932 -4.1017718 C -1.4072902 -3.6556688 -0.78989704 -3.3822354 -0.10634223 -3.3822354 L 0.10634223 -3.3822354 C 1.4734519 -3.3822354 2.5743106 -4.4830941 2.5743106 -5.8502038 L 2.5743106 -9.1647668 A 13.727424 13.727424 0 0 0 9.7061454 -12.921272 A 13.727424 13.727424 0 0 0 13.46265 -20.053106 L 16.777213 -20.053106 C 18.144323 -20.053106 19.245182 -21.153965 19.245182 -22.521075 L 19.245182 -22.733759 C 19.245182 -24.100869 18.144323 -25.201728 16.777213 -25.201728 L 13.46265 -25.201728 A 13.727424 13.727424 0 0 0 9.7061454 -32.333562 A 13.727424 13.727424 0 0 0 2.5743106 -36.090067 L 2.5743106 -39.40463 C 2.5743099 -40.77174 1.4734519 -41.872598 0.10634223 -41.872599 L -0.10634223 -41.872599 C -0.78989814 -41.872598 -1.4087367 -41.59772 -1.8547742 -41.151681 C -2.3008125 -40.705644 -2.5743106 -40.088185 -2.5743106 -39.40463 L -2.5743106 -36.090067 A 13.727424 13.727424 0 0 0 -9.7061454 -32.333562 A 13.727424 13.727424 0 0 0 -13.46265 -25.201728 L -16.777213 -25.201728 C -18.144323 -25.201728 -19.245182 -24.100869 -19.245182 -22.733759 L -19.245182 -22.521075 C -19.245182 -21.837519 -18.970303 -21.21868 -18.524264 -20.772643 C -18.078227 -20.326604 -17.460769 -20.053106 -16.777213 -20.053106 L -13.46265 -20.053106 A 13.727424 13.727424 0 0 0 -9.7061454 -12.921272 A 13.727424 13.727424 0 0 0 -2.5743106 -9.1647668 L -2.5743106 -5.8502038 C -2.5743106 -5.1666489 -2.2994961 -4.5478747 -1.8533932 -4.1017718 z M -1.3520655 -13.997123 C -2.1221401 -14.767198 -2.0803245 -16.047573 -1.2581529 -16.869745 L 1.5343665 -19.662264 C 2.3565392 -20.484437 3.6382943 -20.527632 4.4083688 -19.757558 C 5.1784445 -18.987482 5.136629 -17.704347 4.3144562 -16.882174 L 1.5219369 -14.089655 C 0.69976525 -13.267483 -0.5819898 -13.227048 -1.3520655 -13.997123 z M -8.6302935 -21.275351 C -9.400368 -22.045426 -9.3599324 -23.327183 -8.537762 -24.149354 L -5.7452426 -26.941873 C -4.9230706 -27.764045 -3.6399337 -27.80586 -2.8698592 -27.035786 C -2.0997846 -26.265711 -2.1429808 -24.983956 -2.9651529 -24.161783 L -5.7576722 -21.369264 C -6.5798426 -20.547094 -7.8602189 -20.505277 -8.6302935 -21.275351 z M 4.8917426 -23.7958 L 1.1683835 -27.51916 C 0.60421465 -28.083328 0.60421535 -28.993448 1.1683835 -29.557616 C 1.7325523 -30.121785 2.6412898 -30.120404 3.2054587 -29.556235 L 6.9288178 -25.832876 C 7.4929866 -25.268707 7.4943677 -24.359969 6.9301989 -23.7958 C 6.3660308 -23.231632 5.4559114 -23.231632 4.8917426 -23.7958 z "
       transform="rotate(135)" /></g></svg>
