<?xml version="1.0" encoding="UTF-8" standalone="no"?>
<!-- Created with Inkscape (http://www.inkscape.org/) -->

<svg
   width="32"
   height="32"
   viewBox="0 0 32 32"
   version="1.1"
   id="svg1"
   xml:space="preserve"
   xmlns="http://www.w3.org/2000/svg"
   xmlns:svg="http://www.w3.org/2000/svg"><defs
     id="defs1" /><g
     id="layer1"><path
       id="path1"
       style="fill:#eb3cae;fill-opacity:1;stroke:none;stroke-width:7.132;stroke-linecap:round;stroke-dasharray:none"
       d="M 16 2.2734375 A 13.727424 13.727424 0 0 0 2.2734375 16 A 13.727424 13.727424 0 0 0 16 29.726562 A 13.727424 13.727424 0 0 0 29.726562 16 A 13.727424 13.727424 0 0 0 16 2.2734375 z M 10.853516 8.9414062 C 11.942567 8.9414062 12.818359 9.8763346 12.818359 11.039062 L 12.818359 14.988281 C 12.818359 16.15101 11.942567 17.087891 10.853516 17.087891 C 9.7644635 17.087891 8.8867188 16.15101 8.8867188 14.988281 L 8.8867188 11.039062 C 8.8867188 9.8763346 9.7644635 8.9414063 10.853516 8.9414062 z M 21.146484 8.9414062 C 22.235535 8.9414063 23.113281 9.8763363 23.113281 11.039062 L 23.113281 14.988281 C 23.113281 16.151009 22.235535 17.087891 21.146484 17.087891 C 20.057433 17.087891 19.181641 16.151009 19.181641 14.988281 L 19.181641 11.039062 C 19.181641 9.8763363 20.057433 8.9414062 21.146484 8.9414062 z M 13.367188 20.285156 L 18.632812 20.285156 C 19.430668 20.285156 20.074219 20.928707 20.074219 21.726562 C 20.074219 22.524418 19.430668 23.166016 18.632812 23.166016 L 13.367188 23.166016 C 12.569332 23.166016 11.925781 22.524418 11.925781 21.726562 C 11.925781 20.928707 12.569332 20.285156 13.367188 20.285156 z " /></g></svg>
