<?xml version="1.0" encoding="UTF-8" standalone="no"?>
<!DOCTYPE svg PUBLIC "-//W3C//DTD SVG 1.1//EN" "http://www.w3.org/Graphics/SVG/1.1/DTD/svg11.dtd">
<svg xmlns="http://www.w3.org/2000/svg" version="1.1" viewBox="0.00 0.00 175.00 175.00">
<g stroke-width="2.00" fill="none" stroke-linecap="butt">
<path stroke="#f8cca4" vector-effect="non-scaling-stroke" d="
  M 25.08 100.00
  L 25.10 124.49
  A 0.51 0.51 0.0 0 0 25.61 125.00
  L 49.30 125.00
  A 0.68 0.68 0.0 0 1 49.98 125.68
  L 49.98 148.93
  A 1.09 1.08 0.0 0 0 51.07 150.01
  L 123.94 150.01
  A 1.08 1.07 0.0 0 0 125.02 148.94
  L 125.02 125.68
  A 0.68 0.67 -90.0 0 1 125.69 125.00
  L 149.09 125.00
  A 0.93 0.93 0.0 0 0 150.02 124.06
  L 149.72 100.24"
/>
<path stroke="#e4a494" vector-effect="non-scaling-stroke" d="
  M 149.72 100.24
  L 150.07 50.76
  A 0.77 0.77 0.0 0 0 149.30 49.98
  L 125.85 49.98
  A 0.81 0.80 -0.0 0 1 125.04 49.18
  L 125.04 25.57
  A 0.60 0.59 0.0 0 0 124.44 24.98
  L 50.66 24.98
  A 0.69 0.69 0.0 0 0 49.97 25.67
  L 49.97 49.17
  A 0.82 0.82 0.0 0 1 49.15 49.99
  L 25.66 49.99
  A 0.67 0.66 90.0 0 0 25.00 50.66
  L 25.08 100.00"
/>
<path stroke="#e47840" vector-effect="non-scaling-stroke" d="
  M 149.72 100.24
  L 25.08 100.00"
/>
<path stroke="#e47840" vector-effect="non-scaling-stroke" d="
  M 99.9894 50.6682
  A 0.71 0.71 0.0 0 0 99.2781 49.9594
  L 75.6782 50.0006
  A 0.71 0.71 0.0 0 0 74.9694 50.7119
  L 75.0106 74.3118
  A 0.71 0.71 0.0 0 0 75.7219 75.0206
  L 99.3218 74.9794
  A 0.71 0.71 0.0 0 0 100.0306 74.2681
  L 99.9894 50.6682"
/>
</g>
<path fill="#f8f8f8" d="
  M 124.68 0.00
  L 125.06 23.93
  A 1.08 1.07 -0.3 0 0 126.14 24.99
  L 149.11 24.99
  A 0.90 0.90 0.0 0 1 150.01 25.89
  L 150.01 48.89
  A 1.05 1.04 90.0 0 0 151.05 49.94
  L 175.00 50.10
  L 175.00 124.78
  L 150.99 125.05
  A 0.99 0.99 0.0 0 0 150.01 126.04
  L 150.01 149.06
  A 0.94 0.94 0.0 0 1 149.07 150.00
  L 126.08 150.00
  A 1.01 1.00 -89.7 0 0 125.08 151.00
  L 124.87 175.00
  L 50.13 175.00
  L 49.95 150.99
  A 0.99 0.99 0.0 0 0 48.96 150.01
  L 25.89 150.01
  A 0.90 0.90 0.0 0 1 24.99 149.11
  L 24.99 126.10
  A 1.05 1.05 0.0 0 0 23.95 125.05
  L 0.00 124.82
  L 0.00 50.18
  L 23.85 49.98
  A 1.16 1.15 -0.3 0 0 25.00 48.83
  L 25.00 25.89
  A 0.90 0.89 90.0 0 1 25.89 24.99
  L 48.95 24.99
  A 1.06 1.06 0.0 0 0 50.01 23.94
  L 50.23 0.00
  L 124.68 0.00
  Z
  M 25.08 100.00
  L 25.10 124.49
  A 0.51 0.51 0.0 0 0 25.61 125.00
  L 49.30 125.00
  A 0.68 0.68 0.0 0 1 49.98 125.68
  L 49.98 148.93
  A 1.09 1.08 0.0 0 0 51.07 150.01
  L 123.94 150.01
  A 1.08 1.07 0.0 0 0 125.02 148.94
  L 125.02 125.68
  A 0.68 0.67 -90.0 0 1 125.69 125.00
  L 149.09 125.00
  A 0.93 0.93 0.0 0 0 150.02 124.06
  L 149.72 100.24
  L 150.07 50.76
  A 0.77 0.77 0.0 0 0 149.30 49.98
  L 125.85 49.98
  A 0.81 0.80 -0.0 0 1 125.04 49.18
  L 125.04 25.57
  A 0.60 0.59 0.0 0 0 124.44 24.98
  L 50.66 24.98
  A 0.69 0.69 0.0 0 0 49.97 25.67
  L 49.97 49.17
  A 0.82 0.82 0.0 0 1 49.15 49.99
  L 25.66 49.99
  A 0.67 0.66 90.0 0 0 25.00 50.66
  L 25.08 100.00
  Z"
/>
<path fill="#d05030" d="
  M 149.72 100.24
  L 25.08 100.00
  L 25.00 50.66
  A 0.67 0.66 -90.0 0 1 25.66 49.99
  L 49.15 49.99
  A 0.82 0.82 0.0 0 0 49.97 49.17
  L 49.97 25.67
  A 0.69 0.69 0.0 0 1 50.66 24.98
  L 124.44 24.98
  A 0.60 0.59 -0.0 0 1 125.04 25.57
  L 125.04 49.18
  A 0.81 0.80 0.0 0 0 125.85 49.98
  L 149.30 49.98
  A 0.77 0.77 0.0 0 1 150.07 50.76
  L 149.72 100.24
  Z
  M 99.9894 50.6682
  A 0.71 0.71 0.0 0 0 99.2781 49.9594
  L 75.6782 50.0006
  A 0.71 0.71 0.0 0 0 74.9694 50.7119
  L 75.0106 74.3118
  A 0.71 0.71 0.0 0 0 75.7219 75.0206
  L 99.3218 74.9794
  A 0.71 0.71 0.0 0 0 100.0306 74.2681
  L 99.9894 50.6682
  Z"
/>
<rect fill="#f8a050" x="-12.51" y="-12.51" transform="translate(87.50,62.49) rotate(-0.1)" width="25.02" height="25.02" rx="0.71"/>
<path fill="#f8a050" d="
  M 149.72 100.24
  L 150.02 124.06
  A 0.93 0.93 0.0 0 1 149.09 125.00
  L 125.69 125.00
  A 0.68 0.67 -90.0 0 0 125.02 125.68
  L 125.02 148.94
  A 1.08 1.07 0.0 0 1 123.94 150.01
  L 51.07 150.01
  A 1.09 1.08 0.0 0 1 49.98 148.93
  L 49.98 125.68
  A 0.68 0.68 0.0 0 0 49.30 125.00
  L 25.61 125.00
  A 0.51 0.51 0.0 0 1 25.10 124.49
  L 25.08 100.00
  L 149.72 100.24
  Z"
/>
</svg>
