<?xml version="1.0" encoding="UTF-8" standalone="no"?>
<!-- Created with Inkscape (http://www.inkscape.org/) -->

<svg
   width="32"
   height="32"
   viewBox="0 0 32 32"
   version="1.1"
   id="svg1"
   xml:space="preserve"
   xmlns="http://www.w3.org/2000/svg"
   xmlns:svg="http://www.w3.org/2000/svg"><defs
     id="defs1" /><g
     id="layer1"><path
       style="fill:#000000;fill-opacity:1;stroke:none;stroke-width:7.132;stroke-linecap:round;stroke-dasharray:none"
       id="path4-6"
       d="m 12.688687,6.7986008 3.248881,8.8250562 8.853684,3.170036 -8.825056,3.248881 -3.170035,8.853684 L 9.5472795,22.071202 0.69359555,18.901166 9.5186518,15.652285 Z"
       transform="matrix(0.62491348,0,0,0.62491348,15.996454,2.6547537)" /><path
       style="fill:#000000;fill-opacity:1;stroke:none;stroke-width:7.132;stroke-linecap:round;stroke-dasharray:none"
       id="path4-6-3"
       d="m 12.688687,6.7986008 3.248881,8.8250562 8.853684,3.170036 -8.825056,3.248881 -3.170035,8.853684 L 9.5472795,22.071202 0.69359555,18.901166 9.5186518,15.652285 Z"
       transform="matrix(0.62491348,0,0,0.62491348,0.88376664,-3.3074879)" /><path
       style="fill:#000000;fill-opacity:1;stroke:none;stroke-width:7.132;stroke-linecap:round;stroke-dasharray:none"
       id="path4-6-9"
       d="m 12.688687,6.7986008 3.248881,8.8250562 8.853684,3.170036 -8.825056,3.248881 -3.170035,8.853684 L 9.5472795,22.071202 0.69359555,18.901166 9.5186518,15.652285 Z"
       transform="matrix(0.62491348,0,0,0.62491348,5.7953754,11.751463)" /></g></svg>
