<?xml version="1.0" encoding="UTF-8" standalone="no"?>
<!DOCTYPE svg PUBLIC "-//W3C//DTD SVG 1.1//EN" "http://www.w3.org/Graphics/SVG/1.1/DTD/svg11.dtd">
<svg xmlns="http://www.w3.org/2000/svg" version="1.1" viewBox="0.00 0.00 977.00 1168.00">
<g stroke-width="2.00" fill="none" stroke-linecap="butt">
<path stroke="#31aac0" vector-effect="non-scaling-stroke" d="
  M 393.11 0.00
  L 393.12 56.00"
/>
<path stroke="#327481" vector-effect="non-scaling-stroke" d="
  M 393.12 56.00
  Q 375.02 56.01 356.75 56.15
  C 345.23 56.23 337.00 65.01 337.00 76.50
  Q 337.01 500.48 337.02 540.00
  C 337.03 553.60 382.62 562.72 393.00 564.61"
/>
<path stroke="#31aac0" vector-effect="non-scaling-stroke" d="
  M 393.00 564.61
  L 393.35 695.07"
/>
<path stroke="#327481" vector-effect="non-scaling-stroke" d="
  M 393.35 695.07
  L 393.01 740.43
  A 0.55 0.54 0.0 0 1 392.46 740.97
  Q 363.95 741.07 358.58 740.95
  Q 349.62 740.75 347.14 742.23
  Q 341.97 745.30 341.98 752.01
  Q 342.00 778.16 341.97 783.31
  C 341.94 788.81 342.88 792.38 347.45 794.93
  C 349.74 796.21 353.58 796.04 356.25 796.03
  Q 376.22 795.97 392.33 796.01
  A 0.70 0.69 90.0 0 1 393.02 796.71
  Q 392.97 820.24 393.06 838.36
  Q 393.06 839.28 393.98 841.39"
/>
<path stroke="#31aac0" vector-effect="non-scaling-stroke" d="
  M 393.98 841.39
  Q 393.00 843.12 393.00 845.27
  Q 392.97 928.76 393.00 1012.24
  Q 393.00 1014.39 393.44 1017.60"
/>
<path stroke="#31a1b7" vector-effect="non-scaling-stroke" d="
  M 393.44 1017.60
  L 291.00 1073.93"
/>
<path stroke="#468c9a" vector-effect="non-scaling-stroke" d="
  M 291.00 365.00
  L 290.99 351.97"
/>
<path stroke="#4e96a5" vector-effect="non-scaling-stroke" d="
  M 290.99 351.97
  L 290.97 257.53"
/>
<path stroke="#569fae" vector-effect="non-scaling-stroke" d="
  M 290.97 257.53
  L 290.88 244.82"
/>
<path stroke="#31aac0" vector-effect="non-scaling-stroke" d="
  M 290.55 227.01
  Q 291.69 220.31 290.61 213.50"
/>
<path stroke="#31aac0" vector-effect="non-scaling-stroke" d="
  M 290.64 191.82
  Q 291.89 185.31 290.55 178.49"
/>
<path stroke="#31aac0" vector-effect="non-scaling-stroke" d="
  M 290.58 157.02
  Q 291.32 150.15 290.59 143.21"
/>
<path stroke="#31aac0" vector-effect="non-scaling-stroke" d="
  M 290.60 121.94
  Q 291.54 115.44 290.49 108.81"
/>
<path stroke="#2e99ad" vector-effect="non-scaling-stroke" d="
  M 872.89 0.00
  L 872.91 56.00"
/>
<path stroke="#2f6b77" vector-effect="non-scaling-stroke" d="
  M 872.91 56.00
  L 393.12 56.00"
/>
<path stroke="#2e99ad" vector-effect="non-scaling-stroke" d="
  M 393.44 1017.60
  C 400.79 1025.33 410.84 1029.54 421.27 1032.50
  Q 446.61 1039.69 472.80 1043.22
  Q 518.81 1049.44 564.66 1051.55
  Q 649.45 1055.46 731.79 1049.78
  Q 764.72 1047.51 797.23 1042.74
  Q 824.78 1038.71 847.29 1032.11
  Q 851.91 1030.75 857.11 1027.99"
/>
<path stroke="#298294" vector-effect="non-scaling-stroke" d="
  M 857.11 1027.99
  Q 860.98 1028.24 863.21 1025.01"
/>
<path stroke="#2e99ad" vector-effect="non-scaling-stroke" d="
  M 863.21 1025.01
  Q 867.33 1023.37 870.96 1020.37"
/>
<path stroke="#235660" vector-effect="non-scaling-stroke" d="
  M 870.96 1020.37
  C 871.72 1025.15 876.52 1027.66 880.52 1024.82
  C 886.62 1020.48 880.73 1011.08 873.57 1015.03"
/>
<path stroke="#2e99ad" vector-effect="non-scaling-stroke" d="
  M 873.57 1015.03
  L 873.27 1006.43"
/>
<path stroke="#298294" vector-effect="non-scaling-stroke" d="
  M 873.27 1006.43
  Q 877.83 1008.18 880.37 1005.13
  C 884.75 999.88 879.77 993.34 873.27 995.56"
/>
<path stroke="#2e99ad" vector-effect="non-scaling-stroke" d="
  M 873.27 995.56
  L 873.24 986.75"
/>
<path stroke="#235660" vector-effect="non-scaling-stroke" d="
  M 873.24 986.75
  C 883.63 989.03 883.21 972.70 873.11 975.27"
/>
<path stroke="#2e99ad" vector-effect="non-scaling-stroke" d="
  M 873.11 975.27
  L 873.47 968.05"
/>
<path stroke="#298294" vector-effect="non-scaling-stroke" d="
  M 873.47 968.05
  C 881.84 967.92 882.54 956.58 873.30 955.92"
/>
<path stroke="#2e99ad" vector-effect="non-scaling-stroke" d="
  M 873.30 955.92
  Q 872.99 953.36 872.99 950.75
  Q 872.98 873.50 872.92 796.25
  Q 872.92 793.06 873.46 789.93"
/>
<path stroke="#2f636e" vector-effect="non-scaling-stroke" d="
  M 873.46 789.93
  Q 894.57 794.27 910.00 780.99
  C 930.61 763.26 927.91 731.16 905.25 716.48
  Q 891.11 707.32 873.05 711.17"
/>
<path stroke="#2e99ad" vector-effect="non-scaling-stroke" d="
  M 873.05 711.17
  L 872.97 564.22"
/>
<path stroke="#2f636e" vector-effect="non-scaling-stroke" d="
  M 872.97 564.22
  Q 891.48 560.82 909.56 554.23
  C 914.29 552.50 918.72 550.13 922.76 547.24
  Q 927.05 544.17 927.03 537.52
  Q 926.94 503.58 926.98 85.54
  Q 926.98 72.96 926.32 70.52
  Q 924.32 63.21 917.25 58.85
  Q 912.65 56.02 908.49 56.01
  Q 890.66 55.97 872.91 56.00"
/>
<path stroke="#298294" vector-effect="non-scaling-stroke" d="
  M 916.97 959.00
  A 5.98 5.98 0.0 0 0 910.99 953.02
  A 5.98 5.98 0.0 0 0 905.01 959.00
  A 5.98 5.98 0.0 0 0 910.99 964.98
  A 5.98 5.98 0.0 0 0 916.97 959.00"
/>
<path stroke="#235660" vector-effect="non-scaling-stroke" d="
  M 898.98 960.00
  A 5.98 5.98 0.0 0 0 893.00 954.02
  A 5.98 5.98 0.0 0 0 887.02 960.00
  A 5.98 5.98 0.0 0 0 893.00 965.98
  A 5.98 5.98 0.0 0 0 898.98 960.00"
/>
<path stroke="#298294" vector-effect="non-scaling-stroke" d="
  M 936.98 976.00
  A 5.98 5.98 0.0 0 0 931.00 970.02
  A 5.98 5.98 0.0 0 0 925.02 976.00
  A 5.98 5.98 0.0 0 0 931.00 981.98
  A 5.98 5.98 0.0 0 0 936.98 976.00"
/>
<path stroke="#235660" vector-effect="non-scaling-stroke" d="
  M 918.98 977.00
  A 5.98 5.98 0.0 0 0 913.00 971.02
  A 5.98 5.98 0.0 0 0 907.02 977.00
  A 5.98 5.98 0.0 0 0 913.00 982.98
  A 5.98 5.98 0.0 0 0 918.98 977.00"
/>
<path stroke="#298294" vector-effect="non-scaling-stroke" d="
  M 899.98 979.00
  A 5.98 5.98 0.0 0 0 894.00 973.02
  A 5.98 5.98 0.0 0 0 888.02 979.00
  A 5.98 5.98 0.0 0 0 894.00 984.98
  A 5.98 5.98 0.0 0 0 899.98 979.00"
/>
<path stroke="#235660" vector-effect="non-scaling-stroke" d="
  M 937.98 994.00
  A 5.98 5.98 0.0 0 0 932.00 988.02
  A 5.98 5.98 0.0 0 0 926.02 994.00
  A 5.98 5.98 0.0 0 0 932.00 999.98
  A 5.98 5.98 0.0 0 0 937.98 994.00"
/>
<path stroke="#298294" vector-effect="non-scaling-stroke" d="
  M 918.97 996.00
  A 5.98 5.98 0.0 0 0 912.99 990.02
  A 5.98 5.98 0.0 0 0 907.01 996.00
  A 5.98 5.98 0.0 0 0 912.99 1001.98
  A 5.98 5.98 0.0 0 0 918.97 996.00"
/>
<path stroke="#235660" vector-effect="non-scaling-stroke" d="
  M 900.98 998.00
  A 5.98 5.98 0.0 0 0 895.00 992.02
  A 5.98 5.98 0.0 0 0 889.02 998.00
  A 5.98 5.98 0.0 0 0 895.00 1003.98
  A 5.98 5.98 0.0 0 0 900.98 998.00"
/>
<path stroke="#298294" vector-effect="non-scaling-stroke" d="
  M 938.97 1013.00
  A 5.98 5.98 0.0 0 0 932.99 1007.02
  A 5.98 5.98 0.0 0 0 927.01 1013.00
  A 5.98 5.98 0.0 0 0 932.99 1018.98
  A 5.98 5.98 0.0 0 0 938.97 1013.00"
/>
<path stroke="#235660" vector-effect="non-scaling-stroke" d="
  M 919.98 1015.00
  A 5.98 5.98 0.0 0 0 914.00 1009.02
  A 5.98 5.98 0.0 0 0 908.02 1015.00
  A 5.98 5.98 0.0 0 0 914.00 1020.98
  A 5.98 5.98 0.0 0 0 919.98 1015.00"
/>
<path stroke="#298294" vector-effect="non-scaling-stroke" d="
  M 901.98 1018.00
  A 5.98 5.98 0.0 0 0 896.00 1012.02
  A 5.98 5.98 0.0 0 0 890.02 1018.00
  A 5.98 5.98 0.0 0 0 896.00 1023.98
  A 5.98 5.98 0.0 0 0 901.98 1018.00"
/>
<path stroke="#235660" vector-effect="non-scaling-stroke" d="
  M 938.98 1031.00
  A 5.98 5.98 0.0 0 0 933.00 1025.02
  A 5.98 5.98 0.0 0 0 927.02 1031.00
  A 5.98 5.98 0.0 0 0 933.00 1036.98
  A 5.98 5.98 0.0 0 0 938.98 1031.00"
/>
<path stroke="#298294" vector-effect="non-scaling-stroke" d="
  M 920.97 1034.00
  A 5.98 5.98 0.0 0 0 914.99 1028.02
  A 5.98 5.98 0.0 0 0 909.01 1034.00
  A 5.98 5.98 0.0 0 0 914.99 1039.98
  A 5.98 5.98 0.0 0 0 920.97 1034.00"
/>
<path stroke="#235660" vector-effect="non-scaling-stroke" d="
  M 901.98 1037.00
  A 5.98 5.98 0.0 0 0 896.00 1031.02
  A 5.98 5.98 0.0 0 0 890.02 1037.00
  A 5.98 5.98 0.0 0 0 896.00 1042.98
  A 5.98 5.98 0.0 0 0 901.98 1037.00"
/>
<path stroke="#298294" vector-effect="non-scaling-stroke" d="
  M 883.98 1039.00
  A 5.98 5.98 0.0 0 0 878.00 1033.02
  A 5.98 5.98 0.0 0 0 872.02 1039.00
  A 5.98 5.98 0.0 0 0 878.00 1044.98
  A 5.98 5.98 0.0 0 0 883.98 1039.00"
/>
<path stroke="#235660" vector-effect="non-scaling-stroke" d="
  M 864.98 1042.00
  A 5.98 5.98 0.0 0 0 859.00 1036.02
  A 5.98 5.98 0.0 0 0 853.02 1042.00
  A 5.98 5.98 0.0 0 0 859.00 1047.98
  A 5.98 5.98 0.0 0 0 864.98 1042.00"
/>
<path stroke="#298294" vector-effect="non-scaling-stroke" d="
  M 845.97 1045.00
  A 5.98 5.98 0.0 0 0 839.99 1039.02
  A 5.98 5.98 0.0 0 0 834.01 1045.00
  A 5.98 5.98 0.0 0 0 839.99 1050.98
  A 5.98 5.98 0.0 0 0 845.97 1045.00"
/>
<path stroke="#235660" vector-effect="non-scaling-stroke" d="
  M 827.97 1047.01
  A 5.97 5.97 0.0 0 0 822.00 1041.04
  A 5.97 5.97 0.0 0 0 816.03 1047.01
  A 5.97 5.97 0.0 0 0 822.00 1052.98
  A 5.97 5.97 0.0 0 0 827.97 1047.01"
/>
<path stroke="#298294" vector-effect="non-scaling-stroke" d="
  M 809.98 1049.01
  A 5.98 5.98 0.0 0 0 804.00 1043.03
  A 5.98 5.98 0.0 0 0 798.02 1049.01
  A 5.98 5.98 0.0 0 0 804.00 1054.99
  A 5.98 5.98 0.0 0 0 809.98 1049.01"
/>
<path stroke="#298294" vector-effect="non-scaling-stroke" d="
  M 940.97 1051.00
  A 5.98 5.98 0.0 0 0 934.99 1045.02
  A 5.98 5.98 0.0 0 0 929.01 1051.00
  A 5.98 5.98 0.0 0 0 934.99 1056.98
  A 5.98 5.98 0.0 0 0 940.97 1051.00"
/>
<path stroke="#235660" vector-effect="non-scaling-stroke" d="
  M 920.98 1053.00
  A 5.98 5.98 0.0 0 0 915.00 1047.02
  A 5.98 5.98 0.0 0 0 909.02 1053.00
  A 5.98 5.98 0.0 0 0 915.00 1058.98
  A 5.98 5.98 0.0 0 0 920.98 1053.00"
/>
<path stroke="#298294" vector-effect="non-scaling-stroke" d="
  M 902.97 1055.00
  A 5.98 5.98 0.0 0 0 896.99 1049.02
  A 5.98 5.98 0.0 0 0 891.01 1055.00
  A 5.98 5.98 0.0 0 0 896.99 1060.98
  A 5.98 5.98 0.0 0 0 902.97 1055.00"
/>
<path stroke="#235660" vector-effect="non-scaling-stroke" d="
  M 883.98 1059.00
  A 5.98 5.98 0.0 0 0 878.00 1053.02
  A 5.98 5.98 0.0 0 0 872.02 1059.00
  A 5.98 5.98 0.0 0 0 878.00 1064.98
  A 5.98 5.98 0.0 0 0 883.98 1059.00"
/>
<path stroke="#298294" vector-effect="non-scaling-stroke" d="
  M 865.98 1062.00
  A 5.98 5.98 0.0 0 0 860.00 1056.02
  A 5.98 5.98 0.0 0 0 854.02 1062.00
  A 5.98 5.98 0.0 0 0 860.00 1067.98
  A 5.98 5.98 0.0 0 0 865.98 1062.00"
/>
<path stroke="#235660" vector-effect="non-scaling-stroke" d="
  M 847.98 1064.00
  A 5.98 5.98 0.0 0 0 842.00 1058.02
  A 5.98 5.98 0.0 0 0 836.02 1064.00
  A 5.98 5.98 0.0 0 0 842.00 1069.98
  A 5.98 5.98 0.0 0 0 847.98 1064.00"
/>
<path stroke="#298294" vector-effect="non-scaling-stroke" d="
  M 829.98 1066.00
  A 5.98 5.98 0.0 0 0 824.00 1060.02
  A 5.98 5.98 0.0 0 0 818.02 1066.00
  A 5.98 5.98 0.0 0 0 824.00 1071.98
  A 5.98 5.98 0.0 0 0 829.98 1066.00"
/>
<path stroke="#235660" vector-effect="non-scaling-stroke" d="
  M 810.98 1068.00
  A 5.98 5.98 0.0 0 0 805.00 1062.02
  A 5.98 5.98 0.0 0 0 799.02 1068.00
  A 5.98 5.98 0.0 0 0 805.00 1073.98
  A 5.98 5.98 0.0 0 0 810.98 1068.00"
/>
<path stroke="#235660" vector-effect="non-scaling-stroke" d="
  M 939.98 1070.00
  A 5.98 5.98 0.0 0 0 934.00 1064.02
  A 5.98 5.98 0.0 0 0 928.02 1070.00
  A 5.98 5.98 0.0 0 0 934.00 1075.98
  A 5.98 5.98 0.0 0 0 939.98 1070.00"
/>
<path stroke="#298294" vector-effect="non-scaling-stroke" d="
  M 922.97 1072.00
  A 5.98 5.98 0.0 0 0 916.99 1066.02
  A 5.98 5.98 0.0 0 0 911.01 1072.00
  A 5.98 5.98 0.0 0 0 916.99 1077.98
  A 5.98 5.98 0.0 0 0 922.97 1072.00"
/>
<path stroke="#235660" vector-effect="non-scaling-stroke" d="
  M 902.98 1075.00
  A 5.98 5.98 0.0 0 0 897.00 1069.02
  A 5.98 5.98 0.0 0 0 891.02 1075.00
  A 5.98 5.98 0.0 0 0 897.00 1080.98
  A 5.98 5.98 0.0 0 0 902.98 1075.00"
/>
<path stroke="#298294" vector-effect="non-scaling-stroke" d="
  M 884.97 1078.00
  A 5.98 5.98 0.0 0 0 878.99 1072.02
  A 5.98 5.98 0.0 0 0 873.01 1078.00
  A 5.98 5.98 0.0 0 0 878.99 1083.98
  A 5.98 5.98 0.0 0 0 884.97 1078.00"
/>
<path stroke="#235660" vector-effect="non-scaling-stroke" d="
  M 866.98 1081.00
  A 5.98 5.98 0.0 0 0 861.00 1075.02
  A 5.98 5.98 0.0 0 0 855.02 1081.00
  A 5.98 5.98 0.0 0 0 861.00 1086.98
  A 5.98 5.98 0.0 0 0 866.98 1081.00"
/>
<path stroke="#298294" vector-effect="non-scaling-stroke" d="
  M 848.97 1083.00
  A 5.98 5.98 0.0 0 0 842.99 1077.02
  A 5.98 5.98 0.0 0 0 837.01 1083.00
  A 5.98 5.98 0.0 0 0 842.99 1088.98
  A 5.98 5.98 0.0 0 0 848.97 1083.00"
/>
<path stroke="#235660" vector-effect="non-scaling-stroke" d="
  M 830.98 1085.00
  A 5.98 5.98 0.0 0 0 825.00 1079.02
  A 5.98 5.98 0.0 0 0 819.02 1085.00
  A 5.98 5.98 0.0 0 0 825.00 1090.98
  A 5.98 5.98 0.0 0 0 830.98 1085.00"
/>
<path stroke="#298294" vector-effect="non-scaling-stroke" d="
  M 811.98 1087.00
  A 5.98 5.98 0.0 0 0 806.00 1081.02
  A 5.98 5.98 0.0 0 0 800.02 1087.00
  A 5.98 5.98 0.0 0 0 806.00 1092.98
  A 5.98 5.98 0.0 0 0 811.98 1087.00"
/>
<path stroke="#235660" vector-effect="non-scaling-stroke" d="
  M 921.98 1092.00
  A 5.98 5.98 0.0 0 0 916.00 1086.02
  A 5.98 5.98 0.0 0 0 910.02 1092.00
  A 5.98 5.98 0.0 0 0 916.00 1097.98
  A 5.98 5.98 0.0 0 0 921.98 1092.00"
/>
<path stroke="#298294" vector-effect="non-scaling-stroke" d="
  M 904.97 1095.00
  A 5.98 5.98 0.0 0 0 898.99 1089.02
  A 5.98 5.98 0.0 0 0 893.01 1095.00
  A 5.98 5.98 0.0 0 0 898.99 1100.98
  A 5.98 5.98 0.0 0 0 904.97 1095.00"
/>
<path stroke="#235660" vector-effect="non-scaling-stroke" d="
  M 885.98 1097.00
  A 5.98 5.98 0.0 0 0 880.00 1091.02
  A 5.98 5.98 0.0 0 0 874.02 1097.00
  A 5.98 5.98 0.0 0 0 880.00 1102.98
  A 5.98 5.98 0.0 0 0 885.98 1097.00"
/>
<path stroke="#298294" vector-effect="non-scaling-stroke" d="
  M 868.98 1100.00
  A 5.98 5.98 0.0 0 0 863.00 1094.02
  A 5.98 5.98 0.0 0 0 857.02 1100.00
  A 5.98 5.98 0.0 0 0 863.00 1105.98
  A 5.98 5.98 0.0 0 0 868.98 1100.00"
/>
<path stroke="#235660" vector-effect="non-scaling-stroke" d="
  M 849.98 1102.00
  A 5.98 5.98 0.0 0 0 844.00 1096.02
  A 5.98 5.98 0.0 0 0 838.02 1102.00
  A 5.98 5.98 0.0 0 0 844.00 1107.98
  A 5.98 5.98 0.0 0 0 849.98 1102.00"
/>
<path stroke="#298294" vector-effect="non-scaling-stroke" d="
  M 831.98 1104.00
  A 5.98 5.98 0.0 0 0 826.00 1098.02
  A 5.98 5.98 0.0 0 0 820.02 1104.00
  A 5.98 5.98 0.0 0 0 826.00 1109.98
  A 5.98 5.98 0.0 0 0 831.98 1104.00"
/>
<path stroke="#2f6b77" vector-effect="non-scaling-stroke" d="
  M 872.97 564.22
  C 822.36 573.94 771.61 577.82 719.24 580.12
  Q 610.18 584.91 501.26 577.69
  C 466.19 575.36 428.66 571.47 393.00 564.61"
/>
<path stroke="#24282a" vector-effect="non-scaling-stroke" d="
  M 823.78 118.78
  A 4.65 4.65 0.0 0 0 819.13 114.13
  L 440.67 114.13
  A 4.65 4.65 0.0 0 0 436.02 118.78
  L 436.02 454.32
  A 4.65 4.65 0.0 0 0 440.67 458.97
  L 819.13 458.97
  A 4.65 4.65 0.0 0 0 823.78 454.32
  L 823.78 118.78"
/>
<path stroke="#832232" vector-effect="non-scaling-stroke" d="
  M 378.97 222.00
  A 10.97 10.97 0.0 0 0 368.00 211.03
  A 10.97 10.97 0.0 0 0 357.03 222.00
  A 10.97 10.97 0.0 0 0 368.00 232.97
  A 10.97 10.97 0.0 0 0 378.97 222.00"
/>
<path stroke="#782b57" vector-effect="non-scaling-stroke" d="
  M 576.85 540.50
  L 563.62 527.27
  A 0.22 0.21 -34.3 0 1 563.69 526.92
  C 571.82 523.54 575.77 515.53 572.92 507.31
  C 570.89 501.44 565.04 497.16 558.72 497.13
  Q 555.52 497.12 534.61 497.12
  A 0.48 0.48 0.0 0 0 534.13 497.60
  L 534.13 540.59
  A 0.28 0.27 -0.0 0 0 534.41 540.86
  L 542.53 540.86
  A 0.29 0.29 0.0 0 0 542.82 540.57
  L 542.82 527.51
  A 0.69 0.69 0.0 0 1 543.51 526.82
  L 549.98 526.82
  A 1.81 1.81 0.0 0 1 551.26 527.35
  L 564.17 540.26
  A 2.13 2.07 -21.9 0 0 565.66 540.87
  L 576.70 540.87
  A 0.22 0.22 0.0 0 0 576.85 540.50"
/>
<path stroke="#6b7b44" vector-effect="non-scaling-stroke" d="
  M 624.62 497.58
  A 0.46 0.46 0.0 0 0 624.16 497.12
  L 585.46 497.12
  A 0.46 0.46 0.0 0 0 585.00 497.58
  L 585.00 505.56
  A 0.46 0.46 0.0 0 0 585.46 506.02
  L 624.16 506.02
  A 0.46 0.46 0.0 0 0 624.62 505.56
  L 624.62 497.58"
/>
<path stroke="#8c8833" vector-effect="non-scaling-stroke" d="
  M 660.15 497.54
  A 0.40 0.40 0.0 0 0 659.75 497.14
  L 651.73 497.14
  A 0.40 0.40 0.0 0 0 651.33 497.54
  L 651.33 516.00
  A 0.40 0.40 0.0 0 0 651.73 516.40
  L 659.75 516.40
  A 0.40 0.40 0.0 0 0 660.15 516.00
  L 660.15 497.54"
/>
<path stroke="#2f636e" vector-effect="non-scaling-stroke" d="
  M 721.59 497.12
  A 0.30 0.30 0.0 0 0 721.29 497.42
  L 721.29 525.90
  A 0.30 0.30 0.0 0 1 720.76 526.09
  L 697.37 497.23
  A 0.30 0.30 0.0 0 0 697.14 497.12
  L 688.58 497.12
  A 0.30 0.30 0.0 0 0 688.28 497.42
  L 688.28 540.58
  A 0.30 0.30 0.0 0 0 688.58 540.88
  L 696.98 540.88
  A 0.30 0.30 0.0 0 0 697.28 540.58
  L 697.28 512.37
  A 0.30 0.30 0.0 0 1 697.81 512.18
  L 720.98 540.77
  A 0.30 0.30 0.0 0 0 721.21 540.88
  L 729.59 540.88
  A 0.30 0.30 0.0 0 0 729.89 540.58
  L 729.89 497.42
  A 0.30 0.30 0.0 0 0 729.59 497.12
  L 721.59 497.12"
/>
<path stroke="#8c8833" vector-effect="non-scaling-stroke" d="
  M 655.61 540.90
  Q 660.20 540.90 661.43 540.52
  Q 674.55 536.47 677.95 524.20
  Q 681.37 511.90 672.31 501.92
  A 0.24 0.24 0.0 0 0 671.96 501.91
  L 666.05 507.83
  A 0.33 0.33 0.0 0 0 666.05 508.31
  C 675.00 517.07 668.17 532.31 655.61 532.31
  C 643.05 532.30 636.23 517.06 645.18 508.31
  A 0.33 0.33 0.0 0 0 645.18 507.83
  L 639.27 501.90
  A 0.24 0.24 0.0 0 0 638.92 501.91
  Q 629.86 511.89 633.27 524.19
  Q 636.67 536.46 649.79 540.52
  Q 651.02 540.90 655.61 540.90"
/>
<path stroke="#6b7b44" vector-effect="non-scaling-stroke" d="
  M 585.38 514.71
  A 0.39 0.39 0.0 0 0 584.99 515.10
  L 584.99 540.50
  A 0.39 0.39 0.0 0 0 585.38 540.89
  L 624.22 540.89
  A 0.39 0.39 0.0 0 0 624.61 540.50
  L 624.61 532.74
  A 0.39 0.39 0.0 0 0 624.22 532.35
  L 593.94 532.35
  A 0.39 0.39 0.0 0 1 593.55 531.96
  L 593.55 523.86
  A 0.39 0.39 0.0 0 1 593.94 523.47
  L 615.33 523.47
  A 0.39 0.39 0.0 0 0 615.72 523.08
  L 615.72 515.10
  A 0.39 0.39 0.0 0 0 615.33 514.71
  L 585.38 514.71"
/>
<path stroke="#374143" vector-effect="non-scaling-stroke" d="
  M 448.81 120.45
  Q 445.40 120.37 445.37 124.00"
/>
<path stroke="#374143" vector-effect="non-scaling-stroke" d="
  M 445.39 448.01
  Q 445.49 451.44 448.76 451.60"
/>
<path stroke="#374143" vector-effect="non-scaling-stroke" d="
  M 813.57 123.63
  Q 813.23 119.84 809.73 120.39"
/>
<path stroke="#708389" vector-effect="non-scaling-stroke" d="
  M 290.97 257.53
  Q 289.13 257.90 287.73 257.90
  Q 181.14 257.97 127.76 257.94
  C 123.10 257.94 116.67 257.75 111.89 258.53
  Q 91.43 261.86 80.02 278.53
  Q 74.96 285.93 72.28 297.22"
/>
<path stroke="#68797e" vector-effect="non-scaling-stroke" d="
  M 72.28 297.22
  Q 71.48 287.39 72.60 278.65
  Q 72.96 275.88 73.57 272.97"
/>
<path stroke="#607075" vector-effect="non-scaling-stroke" d="
  M 290.99 351.97
  Q 207.92 352.03 125.01 351.99
  Q 113.09 351.99 108.62 350.98
  C 94.77 347.84 83.05 338.56 76.81 325.79
  C 75.09 322.25 74.37 318.78 72.80 315.67
  A 2.69 2.65 29.0 0 1 72.52 314.72
  Q 71.51 305.41 72.28 297.22"
/>
<path stroke="#68797e" vector-effect="non-scaling-stroke" d="
  M 68.67 272.38
  Q 67.55 278.04 68.00 283.84"
/>
<path stroke="#708389" vector-effect="non-scaling-stroke" d="
  M 68.00 283.84
  Q 58.19 287.47 49.11 281.98"
/>
<path stroke="#68797e" vector-effect="non-scaling-stroke" d="
  M 49.11 281.98
  Q 49.29 280.40 48.07 278.75"
/>
<path stroke="#607075" vector-effect="non-scaling-stroke" d="
  M 0.00 316.73
  Q 5.03 322.22 12.51 321.90
  Q 16.91 321.71 20.47 320.00
  A 0.82 0.80 77.2 0 0 20.92 319.27
  L 20.99 295.84"
/>
<path stroke="#68797e" vector-effect="non-scaling-stroke" d="
  M 20.99 295.84
  L 21.13 284.61"
/>
<path stroke="#68797e" vector-effect="non-scaling-stroke" d="
  M 23.80 284.66
  Q 25.37 286.10 25.11 287.88"
/>
<path stroke="#607075" vector-effect="non-scaling-stroke" d="
  M 25.11 287.88
  L 25.13 319.29
  A 2.17 2.17 0.0 0 0 25.88 320.93
  Q 34.32 328.17 44.44 322.55
  A 0.91 0.91 0.0 0 0 44.90 321.76
  L 44.98 288.93"
/>
<path stroke="#68797e" vector-effect="non-scaling-stroke" d="
  M 44.98 288.93
  L 45.28 278.47"
/>
<path stroke="#607075" vector-effect="non-scaling-stroke" d="
  M 49.11 281.98
  L 49.27 321.95
  A 1.17 1.16 -65.7 0 0 49.56 322.72
  Q 56.99 331.25 67.36 325.97
  A 1.11 1.10 -13.8 0 0 67.96 324.99
  L 68.00 283.84"
/>
<path stroke="#708389" vector-effect="non-scaling-stroke" d="
  M 44.98 288.93
  Q 38.76 292.06 32.29 290.81
  C 29.84 290.33 27.54 288.98 25.11 287.88"
/>
<path stroke="#708389" vector-effect="non-scaling-stroke" d="
  M 20.99 295.84
  Q 8.12 301.19 0.00 292.60"
/>
<path stroke="#782b57" vector-effect="non-scaling-stroke" d="
  M 542.81 506.61
  L 542.85 518.45
  A 0.61 0.61 0.0 0 0 543.46 519.06
  L 558.28 519.00
  A 6.81 6.42 -0.2 0 0 565.07 512.56
  L 565.07 512.34
  A 6.81 6.42 -0.2 0 0 558.24 505.94
  L 543.42 506.00
  A 0.61 0.61 0.0 0 0 542.81 506.61"
/>
<path stroke="#2f6b77" vector-effect="non-scaling-stroke" d="
  M 873.05 711.17
  Q 858.82 714.99 850.50 725.90
  C 832.22 749.84 844.92 782.69 873.46 789.93"
/>
<path stroke="#298b9d" vector-effect="non-scaling-stroke" d="
  M 873.30 955.92
  C 866.19 957.74 866.26 966.66 873.47 968.05"
/>
<path stroke="#235e69" vector-effect="non-scaling-stroke" d="
  M 873.11 975.27
  C 867.66 977.60 867.61 984.68 873.24 986.75"
/>
<path stroke="#298b9d" vector-effect="non-scaling-stroke" d="
  M 873.27 995.56
  C 868.98 998.27 868.91 1003.79 873.27 1006.43"
/>
<path stroke="#235e69" vector-effect="non-scaling-stroke" d="
  M 873.57 1015.03
  Q 870.98 1017.12 870.96 1020.37"
/>
<path stroke="#298b9d" vector-effect="non-scaling-stroke" d="
  M 863.21 1025.01
  C 867.73 1015.35 851.77 1012.19 852.03 1022.50
  Q 852.13 1026.77 857.11 1027.99"
/>
<path stroke="#2f6b77" vector-effect="non-scaling-stroke" d="
  M 393.98 841.39
  C 396.52 846.00 400.03 847.05 405.40 847.04
  Q 420.16 846.99 434.97 847.02
  C 440.55 847.03 443.71 846.40 446.60 842.23
  Q 448.10 840.07 448.06 832.95
  Q 447.96 816.07 448.02 796.55
  A 0.57 0.56 -0.0 0 1 448.59 795.99
  Q 471.45 795.96 489.01 796.03
  Q 497.05 796.06 499.60 788.73
  A 3.88 3.47 60.2 0 0 499.80 787.79
  Q 500.01 785.52 500.02 783.75
  Q 500.02 778.22 500.02 752.50
  Q 500.01 741.01 488.45 741.00
  Q 465.55 740.97 448.54 741.00
  A 0.52 0.52 0.0 0 1 448.01 740.48
  Q 447.98 724.81 448.01 702.02
  C 448.01 696.47 447.42 693.36 443.29 690.44
  Q 441.29 689.03 434.37 689.01
  Q 412.63 688.93 402.75 689.02
  Q 397.43 689.07 393.35 695.07"
/>
<path stroke="#2f6b77" vector-effect="non-scaling-stroke" d="
  M 721.0101 789.4285
  A 40.99 40.48 -179.9 0 0 761.9293 829.9799
  A 40.99 40.48 -179.9 0 0 802.9899 789.5715
  A 40.99 40.48 -179.9 0 0 762.0707 749.0201
  A 40.99 40.48 -179.9 0 0 721.0101 789.4285"
/>
<path stroke="#2f6b77" vector-effect="non-scaling-stroke" d="
  M 612.98 963.50
  A 31.48 11.49 0.0 0 0 581.50 952.01
  A 31.48 11.49 0.0 0 0 550.02 963.50
  A 31.48 11.49 0.0 0 0 581.50 974.99
  A 31.48 11.49 0.0 0 0 612.98 963.50"
/>
<path stroke="#2f6b77" vector-effect="non-scaling-stroke" d="
  M 714.98 963.50
  A 31.48 11.49 0.0 0 0 683.50 952.01
  A 31.48 11.49 0.0 0 0 652.02 963.50
  A 31.48 11.49 0.0 0 0 683.50 974.99
  A 31.48 11.49 0.0 0 0 714.98 963.50"
/>
<path stroke="#235e69" vector-effect="non-scaling-stroke" d="
  M 861.98 964.00
  A 5.98 5.98 0.0 0 0 856.00 958.02
  A 5.98 5.98 0.0 0 0 850.02 964.00
  A 5.98 5.98 0.0 0 0 856.00 969.98
  A 5.98 5.98 0.0 0 0 861.98 964.00"
/>
<path stroke="#298b9d" vector-effect="non-scaling-stroke" d="
  M 842.98 967.00
  A 5.98 5.98 0.0 0 0 837.00 961.02
  A 5.98 5.98 0.0 0 0 831.02 967.00
  A 5.98 5.98 0.0 0 0 837.00 972.98
  A 5.98 5.98 0.0 0 0 842.98 967.00"
/>
<path stroke="#235e69" vector-effect="non-scaling-stroke" d="
  M 823.98 969.00
  A 5.98 5.98 0.0 0 0 818.00 963.02
  A 5.98 5.98 0.0 0 0 812.02 969.00
  A 5.98 5.98 0.0 0 0 818.00 974.98
  A 5.98 5.98 0.0 0 0 823.98 969.00"
/>
<path stroke="#298b9d" vector-effect="non-scaling-stroke" d="
  M 862.98 984.01
  A 5.98 5.98 0.0 0 0 857.00 978.03
  A 5.98 5.98 0.0 0 0 851.02 984.01
  A 5.98 5.98 0.0 0 0 857.00 989.99
  A 5.98 5.98 0.0 0 0 862.98 984.01"
/>
<path stroke="#235e69" vector-effect="non-scaling-stroke" d="
  M 843.98 986.00
  A 5.98 5.98 0.0 0 0 838.00 980.02
  A 5.98 5.98 0.0 0 0 832.02 986.00
  A 5.98 5.98 0.0 0 0 838.00 991.98
  A 5.98 5.98 0.0 0 0 843.98 986.00"
/>
<path stroke="#298b9d" vector-effect="non-scaling-stroke" d="
  M 824.98 988.00
  A 5.98 5.98 0.0 0 0 819.00 982.02
  A 5.98 5.98 0.0 0 0 813.02 988.00
  A 5.98 5.98 0.0 0 0 819.00 993.98
  A 5.98 5.98 0.0 0 0 824.98 988.00"
/>
<path stroke="#235e69" vector-effect="non-scaling-stroke" d="
  M 805.98 991.00
  A 5.98 5.98 0.0 0 0 800.00 985.02
  A 5.98 5.98 0.0 0 0 794.02 991.00
  A 5.98 5.98 0.0 0 0 800.00 996.98
  A 5.98 5.98 0.0 0 0 805.98 991.00"
/>
<path stroke="#235e69" vector-effect="non-scaling-stroke" d="
  M 862.98 1003.00
  A 5.98 5.98 0.0 0 0 857.00 997.02
  A 5.98 5.98 0.0 0 0 851.02 1003.00
  A 5.98 5.98 0.0 0 0 857.00 1008.98
  A 5.98 5.98 0.0 0 0 862.98 1003.00"
/>
<path stroke="#298b9d" vector-effect="non-scaling-stroke" d="
  M 844.98 1005.00
  A 5.98 5.98 0.0 0 0 839.00 999.02
  A 5.98 5.98 0.0 0 0 833.02 1005.00
  A 5.98 5.98 0.0 0 0 839.00 1010.98
  A 5.98 5.98 0.0 0 0 844.98 1005.00"
/>
<path stroke="#235e69" vector-effect="non-scaling-stroke" d="
  M 825.98 1008.00
  A 5.98 5.98 0.0 0 0 820.00 1002.02
  A 5.98 5.98 0.0 0 0 814.02 1008.00
  A 5.98 5.98 0.0 0 0 820.00 1013.98
  A 5.98 5.98 0.0 0 0 825.98 1008.00"
/>
<path stroke="#298b9d" vector-effect="non-scaling-stroke" d="
  M 806.98 1011.00
  A 5.98 5.98 0.0 0 0 801.00 1005.02
  A 5.98 5.98 0.0 0 0 795.02 1011.00
  A 5.98 5.98 0.0 0 0 801.00 1016.98
  A 5.98 5.98 0.0 0 0 806.98 1011.00"
/>
<path stroke="#235e69" vector-effect="non-scaling-stroke" d="
  M 844.98 1025.00
  A 5.98 5.98 0.0 0 0 839.00 1019.02
  A 5.98 5.98 0.0 0 0 833.02 1025.00
  A 5.98 5.98 0.0 0 0 839.00 1030.98
  A 5.98 5.98 0.0 0 0 844.98 1025.00"
/>
<path stroke="#298b9d" vector-effect="non-scaling-stroke" d="
  M 826.98 1028.00
  A 5.98 5.98 0.0 0 0 821.00 1022.02
  A 5.98 5.98 0.0 0 0 815.02 1028.00
  A 5.98 5.98 0.0 0 0 821.00 1033.98
  A 5.98 5.98 0.0 0 0 826.98 1028.00"
/>
<path stroke="#235e69" vector-effect="non-scaling-stroke" d="
  M 808.98 1030.00
  A 5.98 5.98 0.0 0 0 803.00 1024.02
  A 5.98 5.98 0.0 0 0 797.02 1030.00
  A 5.98 5.98 0.0 0 0 803.00 1035.98
  A 5.98 5.98 0.0 0 0 808.98 1030.00"
/>
<path stroke="#24282a" vector-effect="non-scaling-stroke" d="
  M 407.22 722.09
  A 0.60 0.60 0.0 0 0 407.74 723.00
  L 433.24 723.04
  A 0.60 0.60 0.0 0 0 433.75 722.13
  L 421.04 700.84
  A 0.60 0.60 0.0 0 0 420.01 700.84
  L 407.22 722.09"
/>
<path stroke="#24282a" vector-effect="non-scaling-stroke" d="
  M 439.9381 767.7286
  A 19.44 18.93 -0.8 0 0 420.2357 749.0718
  A 19.44 18.93 -0.8 0 0 401.0619 768.2714
  A 19.44 18.93 -0.8 0 0 420.7643 786.9282
  A 19.44 18.93 -0.8 0 0 439.9381 767.7286"
/>
<path stroke="#24282a" vector-effect="non-scaling-stroke" d="
  M 375.31 780.88
  A 0.46 0.46 0.0 0 0 376.00 780.48
  L 376.00 754.54
  A 0.46 0.46 0.0 0 0 375.31 754.14
  L 353.64 767.12
  A 0.46 0.46 0.0 0 0 353.64 767.90
  L 375.31 780.88"
/>
<path stroke="#24282a" vector-effect="non-scaling-stroke" d="
  M 466.78 754.16
  A 0.53 0.53 0.0 0 0 465.97 754.62
  L 465.97 780.36
  A 0.53 0.53 0.0 0 0 466.78 780.82
  L 488.25 767.94
  A 0.53 0.53 0.0 0 0 488.25 767.04
  L 466.78 754.16"
/>
<path stroke="#24282a" vector-effect="non-scaling-stroke" d="
  M 433.76 813.86
  A 0.58 0.58 0.0 0 0 433.27 812.99
  L 407.71 812.99
  A 0.58 0.58 0.0 0 0 407.22 813.86
  L 419.99 835.18
  A 0.58 0.58 0.0 0 0 420.99 835.18
  L 433.76 813.86"
/>
</g>
<path fill="#34b2ca" d="
  M 393.11 0.00
  L 393.12 56.00
  Q 375.02 56.01 356.75 56.15
  C 345.23 56.23 337.00 65.01 337.00 76.50
  Q 337.01 500.48 337.02 540.00
  C 337.03 553.60 382.62 562.72 393.00 564.61
  L 393.35 695.07
  L 393.01 740.43
  A 0.55 0.54 0.0 0 1 392.46 740.97
  Q 363.95 741.07 358.58 740.95
  Q 349.62 740.75 347.14 742.23
  Q 341.97 745.30 341.98 752.01
  Q 342.00 778.16 341.97 783.31
  C 341.94 788.81 342.88 792.38 347.45 794.93
  C 349.74 796.21 353.58 796.04 356.25 796.03
  Q 376.22 795.97 392.33 796.01
  A 0.70 0.69 90.0 0 1 393.02 796.71
  Q 392.97 820.24 393.06 838.36
  Q 393.06 839.28 393.98 841.39
  Q 393.00 843.12 393.00 845.27
  Q 392.97 928.76 393.00 1012.24
  Q 393.00 1014.39 393.44 1017.60
  L 291.00 1073.93
  L 291.00 365.00
  L 290.99 351.97
  L 290.97 257.53
  L 290.88 244.82
  L 290.55 227.01
  Q 291.69 220.31 290.61 213.50
  L 290.64 191.82
  Q 291.89 185.31 290.55 178.49
  L 290.58 157.02
  Q 291.32 150.15 290.59 143.21
  L 290.60 121.94
  Q 291.54 115.44 290.49 108.81
  C 290.66 100.22 291.01 91.67 291.01 83.07
  Q 291.03 58.19 290.96 33.32
  Q 290.94 26.96 292.31 22.45
  Q 297.80 4.39 317.18 0.00
  L 393.11 0.00
  Z"
/>
<path fill="#2ea1b6" d="
  M 872.89 0.00
  L 872.91 56.00
  L 393.12 56.00
  L 393.11 0.00
  L 872.89 0.00
  Z"
/>
<path fill="#2e90a4" d="
  M 945.99 0.00
  Q 961.06 1.92 968.99 14.72
  Q 973.87 22.62 973.91 30.27
  Q 974.08 61.98 973.98 87.41
  C 973.96 93.60 974.49 100.98 974.12 107.94
  A 1.05 1.00 29.6 0 0 974.32 108.60
  Q 974.82 109.31 975.68 108.89
  A 0.73 0.72 75.3 0 1 976.72 109.50
  Q 976.97 113.38 976.69 121.28
  A 0.93 0.80 -77.8 0 1 975.53 122.16
  Q 975.35 122.07 974.63 122.23
  A 0.34 0.34 0.0 0 0 974.37 122.56
  L 974.14 142.91
  A 1.09 0.92 40.0 0 0 974.20 143.25
  Q 974.53 144.23 975.71 144.04
  A 0.98 0.98 0.0 0 1 976.85 145.01
  L 976.80 156.39
  A 0.81 0.80 7.7 0 1 975.78 157.16
  Q 975.63 157.12 974.70 157.06
  A 0.44 0.44 0.0 0 0 974.23 157.50
  L 974.23 178.13
  A 0.88 0.87 -1.6 0 0 975.16 179.00
  Q 975.46 178.98 975.90 178.89
  A 0.73 0.73 0.0 0 1 976.77 179.58
  Q 977.03 186.98 976.69 191.26
  A 1.03 0.85 -78.6 0 1 975.52 192.21
  Q 975.09 192.05 974.70 192.21
  A 0.79 0.79 0.0 0 0 974.22 192.95
  Q 974.43 203.20 974.13 213.00
  Q 974.10 214.04 976.27 214.25
  A 0.62 0.60 3.2 0 1 976.82 214.85
  L 976.82 226.34
  A 0.79 0.78 0.0 0 1 976.03 227.12
  L 974.96 227.12
  A 0.70 0.69 -89.1 0 0 974.27 227.80
  Q 974.04 235.14 974.03 250.25
  Q 973.97 327.27 974.01 1080.50
  C 974.01 1094.10 960.49 1106.02 949.85 1112.61
  C 930.24 1124.78 906.87 1133.26 885.02 1139.28
  Q 847.68 1149.56 807.77 1155.57
  Q 746.14 1164.84 683.75 1167.03
  Q 666.51 1167.64 649.26 1168.00
  L 616.87 1168.00
  Q 550.79 1167.17 485.23 1159.29
  Q 443.20 1154.24 402.44 1144.84
  Q 370.43 1137.46 342.26 1126.01
  C 330.66 1121.30 317.87 1114.80 307.76 1106.52
  Q 301.46 1101.36 300.22 1100.01
  Q 290.21 1089.13 291.00 1073.93
  L 393.44 1017.60
  C 400.79 1025.33 410.84 1029.54 421.27 1032.50
  Q 446.61 1039.69 472.80 1043.22
  Q 518.81 1049.44 564.66 1051.55
  Q 649.45 1055.46 731.79 1049.78
  Q 764.72 1047.51 797.23 1042.74
  Q 824.78 1038.71 847.29 1032.11
  Q 851.91 1030.75 857.11 1027.99
  Q 860.98 1028.24 863.21 1025.01
  Q 867.33 1023.37 870.96 1020.37
  C 871.72 1025.15 876.52 1027.66 880.52 1024.82
  C 886.62 1020.48 880.73 1011.08 873.57 1015.03
  L 873.27 1006.43
  Q 877.83 1008.18 880.37 1005.13
  C 884.75 999.88 879.77 993.34 873.27 995.56
  L 873.24 986.75
  C 883.63 989.03 883.21 972.70 873.11 975.27
  L 873.47 968.05
  C 881.84 967.92 882.54 956.58 873.30 955.92
  Q 872.99 953.36 872.99 950.75
  Q 872.98 873.50 872.92 796.25
  Q 872.92 793.06 873.46 789.93
  Q 894.57 794.27 910.00 780.99
  C 930.61 763.26 927.91 731.16 905.25 716.48
  Q 891.11 707.32 873.05 711.17
  L 872.97 564.22
  Q 891.48 560.82 909.56 554.23
  C 914.29 552.50 918.72 550.13 922.76 547.24
  Q 927.05 544.17 927.03 537.52
  Q 926.94 503.58 926.98 85.54
  Q 926.98 72.96 926.32 70.52
  Q 924.32 63.21 917.25 58.85
  Q 912.65 56.02 908.49 56.01
  Q 890.66 55.97 872.91 56.00
  L 872.89 0.00
  L 945.99 0.00
  Z
  M 916.97 959.00
  A 5.98 5.98 0.0 0 0 910.99 953.02
  A 5.98 5.98 0.0 0 0 905.01 959.00
  A 5.98 5.98 0.0 0 0 910.99 964.98
  A 5.98 5.98 0.0 0 0 916.97 959.00
  Z
  M 898.98 960.00
  A 5.98 5.98 0.0 0 0 893.00 954.02
  A 5.98 5.98 0.0 0 0 887.02 960.00
  A 5.98 5.98 0.0 0 0 893.00 965.98
  A 5.98 5.98 0.0 0 0 898.98 960.00
  Z
  M 936.98 976.00
  A 5.98 5.98 0.0 0 0 931.00 970.02
  A 5.98 5.98 0.0 0 0 925.02 976.00
  A 5.98 5.98 0.0 0 0 931.00 981.98
  A 5.98 5.98 0.0 0 0 936.98 976.00
  Z
  M 918.98 977.00
  A 5.98 5.98 0.0 0 0 913.00 971.02
  A 5.98 5.98 0.0 0 0 907.02 977.00
  A 5.98 5.98 0.0 0 0 913.00 982.98
  A 5.98 5.98 0.0 0 0 918.98 977.00
  Z
  M 899.98 979.00
  A 5.98 5.98 0.0 0 0 894.00 973.02
  A 5.98 5.98 0.0 0 0 888.02 979.00
  A 5.98 5.98 0.0 0 0 894.00 984.98
  A 5.98 5.98 0.0 0 0 899.98 979.00
  Z
  M 937.98 994.00
  A 5.98 5.98 0.0 0 0 932.00 988.02
  A 5.98 5.98 0.0 0 0 926.02 994.00
  A 5.98 5.98 0.0 0 0 932.00 999.98
  A 5.98 5.98 0.0 0 0 937.98 994.00
  Z
  M 918.97 996.00
  A 5.98 5.98 0.0 0 0 912.99 990.02
  A 5.98 5.98 0.0 0 0 907.01 996.00
  A 5.98 5.98 0.0 0 0 912.99 1001.98
  A 5.98 5.98 0.0 0 0 918.97 996.00
  Z
  M 900.98 998.00
  A 5.98 5.98 0.0 0 0 895.00 992.02
  A 5.98 5.98 0.0 0 0 889.02 998.00
  A 5.98 5.98 0.0 0 0 895.00 1003.98
  A 5.98 5.98 0.0 0 0 900.98 998.00
  Z
  M 938.97 1013.00
  A 5.98 5.98 0.0 0 0 932.99 1007.02
  A 5.98 5.98 0.0 0 0 927.01 1013.00
  A 5.98 5.98 0.0 0 0 932.99 1018.98
  A 5.98 5.98 0.0 0 0 938.97 1013.00
  Z
  M 919.98 1015.00
  A 5.98 5.98 0.0 0 0 914.00 1009.02
  A 5.98 5.98 0.0 0 0 908.02 1015.00
  A 5.98 5.98 0.0 0 0 914.00 1020.98
  A 5.98 5.98 0.0 0 0 919.98 1015.00
  Z
  M 901.98 1018.00
  A 5.98 5.98 0.0 0 0 896.00 1012.02
  A 5.98 5.98 0.0 0 0 890.02 1018.00
  A 5.98 5.98 0.0 0 0 896.00 1023.98
  A 5.98 5.98 0.0 0 0 901.98 1018.00
  Z
  M 938.98 1031.00
  A 5.98 5.98 0.0 0 0 933.00 1025.02
  A 5.98 5.98 0.0 0 0 927.02 1031.00
  A 5.98 5.98 0.0 0 0 933.00 1036.98
  A 5.98 5.98 0.0 0 0 938.98 1031.00
  Z
  M 920.97 1034.00
  A 5.98 5.98 0.0 0 0 914.99 1028.02
  A 5.98 5.98 0.0 0 0 909.01 1034.00
  A 5.98 5.98 0.0 0 0 914.99 1039.98
  A 5.98 5.98 0.0 0 0 920.97 1034.00
  Z
  M 901.98 1037.00
  A 5.98 5.98 0.0 0 0 896.00 1031.02
  A 5.98 5.98 0.0 0 0 890.02 1037.00
  A 5.98 5.98 0.0 0 0 896.00 1042.98
  A 5.98 5.98 0.0 0 0 901.98 1037.00
  Z
  M 883.98 1039.00
  A 5.98 5.98 0.0 0 0 878.00 1033.02
  A 5.98 5.98 0.0 0 0 872.02 1039.00
  A 5.98 5.98 0.0 0 0 878.00 1044.98
  A 5.98 5.98 0.0 0 0 883.98 1039.00
  Z
  M 864.98 1042.00
  A 5.98 5.98 0.0 0 0 859.00 1036.02
  A 5.98 5.98 0.0 0 0 853.02 1042.00
  A 5.98 5.98 0.0 0 0 859.00 1047.98
  A 5.98 5.98 0.0 0 0 864.98 1042.00
  Z
  M 845.97 1045.00
  A 5.98 5.98 0.0 0 0 839.99 1039.02
  A 5.98 5.98 0.0 0 0 834.01 1045.00
  A 5.98 5.98 0.0 0 0 839.99 1050.98
  A 5.98 5.98 0.0 0 0 845.97 1045.00
  Z
  M 827.97 1047.01
  A 5.97 5.97 0.0 0 0 822.00 1041.04
  A 5.97 5.97 0.0 0 0 816.03 1047.01
  A 5.97 5.97 0.0 0 0 822.00 1052.98
  A 5.97 5.97 0.0 0 0 827.97 1047.01
  Z
  M 809.98 1049.01
  A 5.98 5.98 0.0 0 0 804.00 1043.03
  A 5.98 5.98 0.0 0 0 798.02 1049.01
  A 5.98 5.98 0.0 0 0 804.00 1054.99
  A 5.98 5.98 0.0 0 0 809.98 1049.01
  Z
  M 940.97 1051.00
  A 5.98 5.98 0.0 0 0 934.99 1045.02
  A 5.98 5.98 0.0 0 0 929.01 1051.00
  A 5.98 5.98 0.0 0 0 934.99 1056.98
  A 5.98 5.98 0.0 0 0 940.97 1051.00
  Z
  M 920.98 1053.00
  A 5.98 5.98 0.0 0 0 915.00 1047.02
  A 5.98 5.98 0.0 0 0 909.02 1053.00
  A 5.98 5.98 0.0 0 0 915.00 1058.98
  A 5.98 5.98 0.0 0 0 920.98 1053.00
  Z
  M 902.97 1055.00
  A 5.98 5.98 0.0 0 0 896.99 1049.02
  A 5.98 5.98 0.0 0 0 891.01 1055.00
  A 5.98 5.98 0.0 0 0 896.99 1060.98
  A 5.98 5.98 0.0 0 0 902.97 1055.00
  Z
  M 883.98 1059.00
  A 5.98 5.98 0.0 0 0 878.00 1053.02
  A 5.98 5.98 0.0 0 0 872.02 1059.00
  A 5.98 5.98 0.0 0 0 878.00 1064.98
  A 5.98 5.98 0.0 0 0 883.98 1059.00
  Z
  M 865.98 1062.00
  A 5.98 5.98 0.0 0 0 860.00 1056.02
  A 5.98 5.98 0.0 0 0 854.02 1062.00
  A 5.98 5.98 0.0 0 0 860.00 1067.98
  A 5.98 5.98 0.0 0 0 865.98 1062.00
  Z
  M 847.98 1064.00
  A 5.98 5.98 0.0 0 0 842.00 1058.02
  A 5.98 5.98 0.0 0 0 836.02 1064.00
  A 5.98 5.98 0.0 0 0 842.00 1069.98
  A 5.98 5.98 0.0 0 0 847.98 1064.00
  Z
  M 829.98 1066.00
  A 5.98 5.98 0.0 0 0 824.00 1060.02
  A 5.98 5.98 0.0 0 0 818.02 1066.00
  A 5.98 5.98 0.0 0 0 824.00 1071.98
  A 5.98 5.98 0.0 0 0 829.98 1066.00
  Z
  M 810.98 1068.00
  A 5.98 5.98 0.0 0 0 805.00 1062.02
  A 5.98 5.98 0.0 0 0 799.02 1068.00
  A 5.98 5.98 0.0 0 0 805.00 1073.98
  A 5.98 5.98 0.0 0 0 810.98 1068.00
  Z
  M 939.98 1070.00
  A 5.98 5.98 0.0 0 0 934.00 1064.02
  A 5.98 5.98 0.0 0 0 928.02 1070.00
  A 5.98 5.98 0.0 0 0 934.00 1075.98
  A 5.98 5.98 0.0 0 0 939.98 1070.00
  Z
  M 922.97 1072.00
  A 5.98 5.98 0.0 0 0 916.99 1066.02
  A 5.98 5.98 0.0 0 0 911.01 1072.00
  A 5.98 5.98 0.0 0 0 916.99 1077.98
  A 5.98 5.98 0.0 0 0 922.97 1072.00
  Z
  M 902.98 1075.00
  A 5.98 5.98 0.0 0 0 897.00 1069.02
  A 5.98 5.98 0.0 0 0 891.02 1075.00
  A 5.98 5.98 0.0 0 0 897.00 1080.98
  A 5.98 5.98 0.0 0 0 902.98 1075.00
  Z
  M 884.97 1078.00
  A 5.98 5.98 0.0 0 0 878.99 1072.02
  A 5.98 5.98 0.0 0 0 873.01 1078.00
  A 5.98 5.98 0.0 0 0 878.99 1083.98
  A 5.98 5.98 0.0 0 0 884.97 1078.00
  Z
  M 866.98 1081.00
  A 5.98 5.98 0.0 0 0 861.00 1075.02
  A 5.98 5.98 0.0 0 0 855.02 1081.00
  A 5.98 5.98 0.0 0 0 861.00 1086.98
  A 5.98 5.98 0.0 0 0 866.98 1081.00
  Z
  M 848.97 1083.00
  A 5.98 5.98 0.0 0 0 842.99 1077.02
  A 5.98 5.98 0.0 0 0 837.01 1083.00
  A 5.98 5.98 0.0 0 0 842.99 1088.98
  A 5.98 5.98 0.0 0 0 848.97 1083.00
  Z
  M 830.98 1085.00
  A 5.98 5.98 0.0 0 0 825.00 1079.02
  A 5.98 5.98 0.0 0 0 819.02 1085.00
  A 5.98 5.98 0.0 0 0 825.00 1090.98
  A 5.98 5.98 0.0 0 0 830.98 1085.00
  Z
  M 811.98 1087.00
  A 5.98 5.98 0.0 0 0 806.00 1081.02
  A 5.98 5.98 0.0 0 0 800.02 1087.00
  A 5.98 5.98 0.0 0 0 806.00 1092.98
  A 5.98 5.98 0.0 0 0 811.98 1087.00
  Z
  M 921.98 1092.00
  A 5.98 5.98 0.0 0 0 916.00 1086.02
  A 5.98 5.98 0.0 0 0 910.02 1092.00
  A 5.98 5.98 0.0 0 0 916.00 1097.98
  A 5.98 5.98 0.0 0 0 921.98 1092.00
  Z
  M 904.97 1095.00
  A 5.98 5.98 0.0 0 0 898.99 1089.02
  A 5.98 5.98 0.0 0 0 893.01 1095.00
  A 5.98 5.98 0.0 0 0 898.99 1100.98
  A 5.98 5.98 0.0 0 0 904.97 1095.00
  Z
  M 885.98 1097.00
  A 5.98 5.98 0.0 0 0 880.00 1091.02
  A 5.98 5.98 0.0 0 0 874.02 1097.00
  A 5.98 5.98 0.0 0 0 880.00 1102.98
  A 5.98 5.98 0.0 0 0 885.98 1097.00
  Z
  M 868.98 1100.00
  A 5.98 5.98 0.0 0 0 863.00 1094.02
  A 5.98 5.98 0.0 0 0 857.02 1100.00
  A 5.98 5.98 0.0 0 0 863.00 1105.98
  A 5.98 5.98 0.0 0 0 868.98 1100.00
  Z
  M 849.98 1102.00
  A 5.98 5.98 0.0 0 0 844.00 1096.02
  A 5.98 5.98 0.0 0 0 838.02 1102.00
  A 5.98 5.98 0.0 0 0 844.00 1107.98
  A 5.98 5.98 0.0 0 0 849.98 1102.00
  Z
  M 831.98 1104.00
  A 5.98 5.98 0.0 0 0 826.00 1098.02
  A 5.98 5.98 0.0 0 0 820.02 1104.00
  A 5.98 5.98 0.0 0 0 826.00 1109.98
  A 5.98 5.98 0.0 0 0 831.98 1104.00
  Z"
/>
<path fill="#303538" d="
  M 393.12 56.00
  L 872.91 56.00
  Q 890.66 55.97 908.49 56.01
  Q 912.65 56.02 917.25 58.85
  Q 924.32 63.21 926.32 70.52
  Q 926.98 72.96 926.98 85.54
  Q 926.94 503.58 927.03 537.52
  Q 927.05 544.17 922.76 547.24
  C 918.72 550.13 914.29 552.50 909.56 554.23
  Q 891.48 560.82 872.97 564.22
  C 822.36 573.94 771.61 577.82 719.24 580.12
  Q 610.18 584.91 501.26 577.69
  C 466.19 575.36 428.66 571.47 393.00 564.61
  C 382.62 562.72 337.03 553.60 337.02 540.00
  Q 337.01 500.48 337.00 76.50
  C 337.00 65.01 345.23 56.23 356.75 56.15
  Q 375.02 56.01 393.12 56.00
  Z
  M 823.78 118.78
  A 4.65 4.65 0.0 0 0 819.13 114.13
  L 440.67 114.13
  A 4.65 4.65 0.0 0 0 436.02 118.78
  L 436.02 454.32
  A 4.65 4.65 0.0 0 0 440.67 458.97
  L 819.13 458.97
  A 4.65 4.65 0.0 0 0 823.78 454.32
  L 823.78 118.78
  Z
  M 378.97 222.00
  A 10.97 10.97 0.0 0 0 368.00 211.03
  A 10.97 10.97 0.0 0 0 357.03 222.00
  A 10.97 10.97 0.0 0 0 368.00 232.97
  A 10.97 10.97 0.0 0 0 378.97 222.00
  Z
  M 576.85 540.50
  L 563.62 527.27
  A 0.22 0.21 -34.3 0 1 563.69 526.92
  C 571.82 523.54 575.77 515.53 572.92 507.31
  C 570.89 501.44 565.04 497.16 558.72 497.13
  Q 555.52 497.12 534.61 497.12
  A 0.48 0.48 0.0 0 0 534.13 497.60
  L 534.13 540.59
  A 0.28 0.27 -0.0 0 0 534.41 540.86
  L 542.53 540.86
  A 0.29 0.29 0.0 0 0 542.82 540.57
  L 542.82 527.51
  A 0.69 0.69 0.0 0 1 543.51 526.82
  L 549.98 526.82
  A 1.81 1.81 0.0 0 1 551.26 527.35
  L 564.17 540.26
  A 2.13 2.07 -21.9 0 0 565.66 540.87
  L 576.70 540.87
  A 0.22 0.22 0.0 0 0 576.85 540.50
  Z
  M 624.62 497.58
  A 0.46 0.46 0.0 0 0 624.16 497.12
  L 585.46 497.12
  A 0.46 0.46 0.0 0 0 585.00 497.58
  L 585.00 505.56
  A 0.46 0.46 0.0 0 0 585.46 506.02
  L 624.16 506.02
  A 0.46 0.46 0.0 0 0 624.62 505.56
  L 624.62 497.58
  Z
  M 660.15 497.54
  A 0.40 0.40 0.0 0 0 659.75 497.14
  L 651.73 497.14
  A 0.40 0.40 0.0 0 0 651.33 497.54
  L 651.33 516.00
  A 0.40 0.40 0.0 0 0 651.73 516.40
  L 659.75 516.40
  A 0.40 0.40 0.0 0 0 660.15 516.00
  L 660.15 497.54
  Z
  M 721.59 497.12
  A 0.30 0.30 0.0 0 0 721.29 497.42
  L 721.29 525.90
  A 0.30 0.30 0.0 0 1 720.76 526.09
  L 697.37 497.23
  A 0.30 0.30 0.0 0 0 697.14 497.12
  L 688.58 497.12
  A 0.30 0.30 0.0 0 0 688.28 497.42
  L 688.28 540.58
  A 0.30 0.30 0.0 0 0 688.58 540.88
  L 696.98 540.88
  A 0.30 0.30 0.0 0 0 697.28 540.58
  L 697.28 512.37
  A 0.30 0.30 0.0 0 1 697.81 512.18
  L 720.98 540.77
  A 0.30 0.30 0.0 0 0 721.21 540.88
  L 729.59 540.88
  A 0.30 0.30 0.0 0 0 729.89 540.58
  L 729.89 497.42
  A 0.30 0.30 0.0 0 0 729.59 497.12
  L 721.59 497.12
  Z
  M 655.61 540.90
  Q 660.20 540.90 661.43 540.52
  Q 674.55 536.47 677.95 524.20
  Q 681.37 511.90 672.31 501.92
  A 0.24 0.24 0.0 0 0 671.96 501.91
  L 666.05 507.83
  A 0.33 0.33 0.0 0 0 666.05 508.31
  C 675.00 517.07 668.17 532.31 655.61 532.31
  C 643.05 532.30 636.23 517.06 645.18 508.31
  A 0.33 0.33 0.0 0 0 645.18 507.83
  L 639.27 501.90
  A 0.24 0.24 0.0 0 0 638.92 501.91
  Q 629.86 511.89 633.27 524.19
  Q 636.67 536.46 649.79 540.52
  Q 651.02 540.90 655.61 540.90
  Z
  M 585.38 514.71
  A 0.39 0.39 0.0 0 0 584.99 515.10
  L 584.99 540.50
  A 0.39 0.39 0.0 0 0 585.38 540.89
  L 624.22 540.89
  A 0.39 0.39 0.0 0 0 624.61 540.50
  L 624.61 532.74
  A 0.39 0.39 0.0 0 0 624.22 532.35
  L 593.94 532.35
  A 0.39 0.39 0.0 0 1 593.55 531.96
  L 593.55 523.86
  A 0.39 0.39 0.0 0 1 593.94 523.47
  L 615.33 523.47
  A 0.39 0.39 0.0 0 0 615.72 523.08
  L 615.72 515.10
  A 0.39 0.39 0.0 0 0 615.33 514.71
  L 585.38 514.71
  Z"
/>
<path fill="#2ea1b6" d="
  M 290.49 108.81
  Q 291.54 115.44 290.60 121.94
  Q 289.79 121.59 289.22 122.03
  A 0.50 0.50 0.0 0 1 288.41 121.65
  Q 288.26 115.59 288.39 109.47
  A 0.73 0.71 -70.8 0 1 289.54 108.89
  Q 290.02 109.27 290.49 108.81
  Z"
/>
<path fill="#171b1c" d="
  M 823.78 454.32
  A 4.65 4.65 0.0 0 1 819.13 458.97
  L 440.67 458.97
  A 4.65 4.65 0.0 0 1 436.02 454.32
  L 436.02 118.78
  A 4.65 4.65 0.0 0 1 440.67 114.13
  L 819.13 114.13
  A 4.65 4.65 0.0 0 1 823.78 118.78
  L 823.78 454.32
  Z
  M 448.81 120.45
  Q 445.40 120.37 445.37 124.00
  Q 445.00 128.08 445.00 134.25
  Q 445.00 288.75 445.01 443.25
  Q 445.01 444.38 445.39 448.01
  Q 445.49 451.44 448.76 451.60
  Q 452.67 452.00 458.50 452.00
  Q 772.52 452.01 802.25 452.08
  Q 807.23 452.09 810.19 451.46
  C 813.83 450.69 813.86 446.84 813.88 443.25
  Q 813.99 418.03 814.03 132.25
  Q 814.03 127.75 813.57 123.63
  Q 813.23 119.84 809.73 120.39
  L 448.81 120.45
  Z"
/>
<path fill="#57666a" d="
  M 448.81 120.45
  Q 446.33 121.39 445.37 124.00
  Q 445.40 120.37 448.81 120.45
  Z"
/>
<path fill="#57666a" d="
  M 813.57 123.63
  Q 812.24 120.95 809.73 120.39
  Q 813.23 119.84 813.57 123.63
  Z"
/>
<path fill="#2ea1b6" d="
  M 290.59 143.21
  Q 291.32 150.15 290.58 157.02
  Q 289.78 156.82 289.24 157.08
  A 0.54 0.54 0.0 0 1 288.46 156.61
  Q 288.35 151.74 288.39 144.77
  Q 288.40 143.81 289.25 143.70
  Q 289.37 143.69 289.68 143.89
  A 0.57 0.56 27.9 0 0 290.51 143.64
  Q 290.60 143.44 290.59 143.21
  Z"
/>
<path fill="#2ea1b6" d="
  M 290.55 178.49
  Q 291.89 185.31 290.64 191.82
  Q 289.72 191.46 289.20 192.05
  A 0.47 0.47 0.0 0 1 288.38 191.74
  L 288.38 179.35
  A 0.57 0.57 0.0 0 1 289.21 178.84
  Q 290.51 179.50 290.55 178.49
  Z"
/>
<circle fill="#d50e2b" cx="368.00" cy="222.00" r="10.97"/>
<path fill="#2ea1b6" d="
  M 290.61 213.50
  Q 291.69 220.31 290.55 227.01
  Q 289.66 226.96 289.02 227.16
  A 0.54 0.53 -8.9 0 1 288.32 226.66
  L 288.32 214.45
  A 0.70 0.70 0.0 0 1 289.35 213.83
  Q 290.35 214.38 290.61 213.50
  Z"
/>
<path fill="#788c92" d="
  M 290.88 244.82
  L 290.97 257.53
  Q 289.13 257.90 287.73 257.90
  Q 181.14 257.97 127.76 257.94
  C 123.10 257.94 116.67 257.75 111.89 258.53
  Q 91.43 261.86 80.02 278.53
  Q 74.96 285.93 72.28 297.22
  Q 71.48 287.39 72.60 278.65
  Q 72.96 275.88 73.57 272.97
  Q 80.30 253.23 100.23 246.48
  Q 102.65 245.66 105.71 245.26
  Q 107.73 245.00 111.32 245.00
  Q 167.08 245.04 287.50 244.93
  Q 288.99 244.93 290.88 244.82
  Z"
/>
<path fill="#687a7f" d="
  M 290.97 257.53
  L 290.99 351.97
  Q 207.92 352.03 125.01 351.99
  Q 113.09 351.99 108.62 350.98
  C 94.77 347.84 83.05 338.56 76.81 325.79
  C 75.09 322.25 74.37 318.78 72.80 315.67
  A 2.69 2.65 29.0 0 1 72.52 314.72
  Q 71.51 305.41 72.28 297.22
  Q 74.96 285.93 80.02 278.53
  Q 91.43 261.86 111.89 258.53
  C 116.67 257.75 123.10 257.94 127.76 257.94
  Q 181.14 257.97 287.73 257.90
  Q 289.13 257.90 290.97 257.53
  Z"
/>
<path fill="#788c92" d="
  M 68.67 272.38
  Q 67.55 278.04 68.00 283.84
  Q 58.19 287.47 49.11 281.98
  Q 49.29 280.40 48.07 278.75
  Q 47.68 274.97 50.96 272.44
  Q 60.26 265.27 68.67 272.38
  Z"
/>
<path fill="#57666a" d="
  M 68.67 272.38
  Q 70.87 273.45 73.57 272.97
  Q 72.96 275.88 72.60 278.65
  Q 71.48 287.39 72.28 297.22
  Q 71.51 305.41 72.52 314.72
  A 2.69 2.65 29.0 0 0 72.80 315.67
  C 74.37 318.78 75.09 322.25 76.81 325.79
  C 83.05 338.56 94.77 347.84 108.62 350.98
  Q 113.09 351.99 125.01 351.99
  Q 207.92 352.03 290.99 351.97
  L 291.00 365.00
  Q 202.59 365.00 114.75 365.09
  Q 108.37 365.10 106.04 364.71
  Q 84.67 361.16 74.82 340.51
  A 0.92 0.92 0.0 0 0 73.99 339.99
  L 68.94 339.99
  A 1.25 1.23 -66.4 0 0 68.09 340.33
  C 60.68 347.38 51.83 343.60 48.70 334.66
  A 1.05 1.05 0.0 0 0 47.71 333.96
  L 45.95 333.96
  A 2.19 2.18 24.2 0 0 44.50 334.51
  C 37.14 341.08 26.87 337.95 24.20 328.52
  A 0.74 0.74 0.0 0 0 23.49 327.98
  L 21.34 327.98
  A 1.19 1.19 0.0 0 0 20.65 328.20
  C 13.85 332.96 2.95 331.78 0.00 323.10
  L 0.00 316.73
  Q 5.03 322.22 12.51 321.90
  Q 16.91 321.71 20.47 320.00
  A 0.82 0.80 77.2 0 0 20.92 319.27
  L 20.99 295.84
  L 21.13 284.61
  Q 23.39 285.58 23.80 284.66
  Q 25.37 286.10 25.11 287.88
  L 25.13 319.29
  A 2.17 2.17 0.0 0 0 25.88 320.93
  Q 34.32 328.17 44.44 322.55
  A 0.91 0.91 0.0 0 0 44.90 321.76
  L 44.98 288.93
  L 45.28 278.47
  Q 46.89 279.49 48.07 278.75
  Q 49.29 280.40 49.11 281.98
  L 49.27 321.95
  A 1.17 1.16 -65.7 0 0 49.56 322.72
  Q 56.99 331.25 67.36 325.97
  A 1.11 1.10 -13.8 0 0 67.96 324.99
  L 68.00 283.84
  Q 67.55 278.04 68.67 272.38
  Z"
/>
<path fill="#788c92" d="
  M 45.28 278.47
  L 44.98 288.93
  Q 38.76 292.06 32.29 290.81
  C 29.84 290.33 27.54 288.98 25.11 287.88
  Q 25.37 286.10 23.80 284.66
  Q 24.63 276.17 34.49 275.04
  Q 40.97 274.29 45.28 278.47
  Z"
/>
<path fill="#788c92" d="
  M 21.13 284.61
  L 20.99 295.84
  Q 8.12 301.19 0.00 292.60
  L 0.00 288.09
  Q 2.50 283.54 7.62 282.37
  Q 15.18 280.62 21.13 284.61
  Z"
/>
<path fill="#687a7f" d="
  M 49.11 281.98
  Q 58.19 287.47 68.00 283.84
  L 67.96 324.99
  A 1.11 1.10 -13.8 0 1 67.36 325.97
  Q 56.99 331.25 49.56 322.72
  A 1.17 1.16 -65.7 0 1 49.27 321.95
  L 49.11 281.98
  Z"
/>
<path fill="#687a7f" d="
  M 25.11 287.88
  C 27.54 288.98 29.84 290.33 32.29 290.81
  Q 38.76 292.06 44.98 288.93
  L 44.90 321.76
  A 0.91 0.91 0.0 0 1 44.44 322.55
  Q 34.32 328.17 25.88 320.93
  A 2.17 2.17 0.0 0 1 25.13 319.29
  L 25.11 287.88
  Z"
/>
<path fill="#687a7f" d="
  M 20.99 295.84
  L 20.92 319.27
  A 0.82 0.80 77.2 0 1 20.47 320.00
  Q 16.91 321.71 12.51 321.90
  Q 5.03 322.22 0.00 316.73
  L 0.00 292.60
  Q 8.12 301.19 20.99 295.84
  Z"
/>
<path fill="#57666a" d="
  M 445.39 448.01
  Q 446.25 450.56 448.76 451.60
  Q 445.49 451.44 445.39 448.01
  Z"
/>
<path fill="#bf2175" d="
  M 576.85 540.50
  A 0.22 0.22 0.0 0 1 576.70 540.87
  L 565.66 540.87
  A 2.13 2.07 -21.9 0 1 564.17 540.26
  L 551.26 527.35
  A 1.81 1.81 0.0 0 0 549.98 526.82
  L 543.51 526.82
  A 0.69 0.69 0.0 0 0 542.82 527.51
  L 542.82 540.57
  A 0.29 0.29 0.0 0 1 542.53 540.86
  L 534.41 540.86
  A 0.28 0.27 0.0 0 1 534.13 540.59
  L 534.13 497.60
  A 0.48 0.48 0.0 0 1 534.61 497.12
  Q 555.52 497.12 558.72 497.13
  C 565.04 497.16 570.89 501.44 572.92 507.31
  C 575.77 515.53 571.82 523.54 563.69 526.92
  A 0.22 0.21 -34.3 0 0 563.62 527.27
  L 576.85 540.50
  Z
  M 542.81 506.61
  L 542.85 518.45
  A 0.61 0.61 0.0 0 0 543.46 519.06
  L 558.28 519.00
  A 6.81 6.42 -0.2 0 0 565.07 512.56
  L 565.07 512.34
  A 6.81 6.42 -0.2 0 0 558.24 505.94
  L 543.42 506.00
  A 0.61 0.61 0.0 0 0 542.81 506.61
  Z"
/>
<rect fill="#a5c04f" x="585.00" y="497.12" width="39.62" height="8.90" rx="0.46"/>
<rect fill="#e8db2d" x="651.33" y="497.14" width="8.82" height="19.26" rx="0.40"/>
<path fill="#2e90a4" d="
  M 721.59 497.12
  L 729.59 497.12
  A 0.30 0.30 0.0 0 1 729.89 497.42
  L 729.89 540.58
  A 0.30 0.30 0.0 0 1 729.59 540.88
  L 721.21 540.88
  A 0.30 0.30 0.0 0 1 720.98 540.77
  L 697.81 512.18
  A 0.30 0.30 0.0 0 0 697.28 512.37
  L 697.28 540.58
  A 0.30 0.30 0.0 0 1 696.98 540.88
  L 688.58 540.88
  A 0.30 0.30 0.0 0 1 688.28 540.58
  L 688.28 497.42
  A 0.30 0.30 0.0 0 1 688.58 497.12
  L 697.14 497.12
  A 0.30 0.30 0.0 0 1 697.37 497.23
  L 720.76 526.09
  A 0.30 0.30 0.0 0 0 721.29 525.90
  L 721.29 497.42
  A 0.30 0.30 0.0 0 1 721.59 497.12
  Z"
/>
<path fill="#e8db2d" d="
  M 655.61 532.31
  C 668.17 532.31 675.00 517.07 666.05 508.31
  A 0.33 0.33 0.0 0 1 666.05 507.83
  L 671.96 501.91
  A 0.24 0.24 0.0 0 1 672.31 501.92
  Q 681.37 511.90 677.95 524.20
  Q 674.55 536.47 661.43 540.52
  Q 660.20 540.90 655.61 540.90
  Q 651.02 540.90 649.79 540.52
  Q 636.67 536.46 633.27 524.19
  Q 629.86 511.89 638.92 501.91
  A 0.24 0.24 0.0 0 1 639.27 501.90
  L 645.18 507.83
  A 0.33 0.33 0.0 0 1 645.18 508.31
  C 636.23 517.06 643.05 532.30 655.61 532.31
  Z"
/>
<path fill="#303538" d="
  M 542.81 506.61
  A 0.61 0.61 0.0 0 1 543.42 506.00
  L 558.24 505.94
  A 6.81 6.42 -0.2 0 1 565.07 512.34
  L 565.07 512.56
  A 6.81 6.42 -0.2 0 1 558.28 519.00
  L 543.46 519.06
  A 0.61 0.61 0.0 0 1 542.85 518.45
  L 542.81 506.61
  Z"
/>
<path fill="#a5c04f" d="
  M 585.38 514.71
  L 615.33 514.71
  A 0.39 0.39 0.0 0 1 615.72 515.10
  L 615.72 523.08
  A 0.39 0.39 0.0 0 1 615.33 523.47
  L 593.94 523.47
  A 0.39 0.39 0.0 0 0 593.55 523.86
  L 593.55 531.96
  A 0.39 0.39 0.0 0 0 593.94 532.35
  L 624.22 532.35
  A 0.39 0.39 0.0 0 1 624.61 532.74
  L 624.61 540.50
  A 0.39 0.39 0.0 0 1 624.22 540.89
  L 585.38 540.89
  A 0.39 0.39 0.0 0 1 584.99 540.50
  L 584.99 515.10
  A 0.39 0.39 0.0 0 1 585.38 514.71
  Z"
/>
<path fill="#2ea1b6" d="
  M 872.97 564.22
  L 873.05 711.17
  Q 858.82 714.99 850.50 725.90
  C 832.22 749.84 844.92 782.69 873.46 789.93
  Q 872.92 793.06 872.92 796.25
  Q 872.98 873.50 872.99 950.75
  Q 872.99 953.36 873.30 955.92
  C 866.19 957.74 866.26 966.66 873.47 968.05
  L 873.11 975.27
  C 867.66 977.60 867.61 984.68 873.24 986.75
  L 873.27 995.56
  C 868.98 998.27 868.91 1003.79 873.27 1006.43
  L 873.57 1015.03
  Q 870.98 1017.12 870.96 1020.37
  Q 867.33 1023.37 863.21 1025.01
  C 867.73 1015.35 851.77 1012.19 852.03 1022.50
  Q 852.13 1026.77 857.11 1027.99
  Q 851.91 1030.75 847.29 1032.11
  Q 824.78 1038.71 797.23 1042.74
  Q 764.72 1047.51 731.79 1049.78
  Q 649.45 1055.46 564.66 1051.55
  Q 518.81 1049.44 472.80 1043.22
  Q 446.61 1039.69 421.27 1032.50
  C 410.84 1029.54 400.79 1025.33 393.44 1017.60
  Q 393.00 1014.39 393.00 1012.24
  Q 392.97 928.76 393.00 845.27
  Q 393.00 843.12 393.98 841.39
  C 396.52 846.00 400.03 847.05 405.40 847.04
  Q 420.16 846.99 434.97 847.02
  C 440.55 847.03 443.71 846.40 446.60 842.23
  Q 448.10 840.07 448.06 832.95
  Q 447.96 816.07 448.02 796.55
  A 0.57 0.56 -0.0 0 1 448.59 795.99
  Q 471.45 795.96 489.01 796.03
  Q 497.05 796.06 499.60 788.73
  A 3.88 3.47 60.2 0 0 499.80 787.79
  Q 500.01 785.52 500.02 783.75
  Q 500.02 778.22 500.02 752.50
  Q 500.01 741.01 488.45 741.00
  Q 465.55 740.97 448.54 741.00
  A 0.52 0.52 0.0 0 1 448.01 740.48
  Q 447.98 724.81 448.01 702.02
  C 448.01 696.47 447.42 693.36 443.29 690.44
  Q 441.29 689.03 434.37 689.01
  Q 412.63 688.93 402.75 689.02
  Q 397.43 689.07 393.35 695.07
  L 393.00 564.61
  C 428.66 571.47 466.19 575.36 501.26 577.69
  Q 610.18 584.91 719.24 580.12
  C 771.61 577.82 822.36 573.94 872.97 564.22
  Z
  M 721.0101 789.4285
  A 40.99 40.48 -179.9 0 0 761.9293 829.9799
  A 40.99 40.48 -179.9 0 0 802.9899 789.5715
  A 40.99 40.48 -179.9 0 0 762.0707 749.0201
  A 40.99 40.48 -179.9 0 0 721.0101 789.4285
  Z
  M 612.98 963.50
  A 31.48 11.49 0.0 0 0 581.50 952.01
  A 31.48 11.49 0.0 0 0 550.02 963.50
  A 31.48 11.49 0.0 0 0 581.50 974.99
  A 31.48 11.49 0.0 0 0 612.98 963.50
  Z
  M 714.98 963.50
  A 31.48 11.49 0.0 0 0 683.50 952.01
  A 31.48 11.49 0.0 0 0 652.02 963.50
  A 31.48 11.49 0.0 0 0 683.50 974.99
  A 31.48 11.49 0.0 0 0 714.98 963.50
  Z
  M 861.98 964.00
  A 5.98 5.98 0.0 0 0 856.00 958.02
  A 5.98 5.98 0.0 0 0 850.02 964.00
  A 5.98 5.98 0.0 0 0 856.00 969.98
  A 5.98 5.98 0.0 0 0 861.98 964.00
  Z
  M 842.98 967.00
  A 5.98 5.98 0.0 0 0 837.00 961.02
  A 5.98 5.98 0.0 0 0 831.02 967.00
  A 5.98 5.98 0.0 0 0 837.00 972.98
  A 5.98 5.98 0.0 0 0 842.98 967.00
  Z
  M 823.98 969.00
  A 5.98 5.98 0.0 0 0 818.00 963.02
  A 5.98 5.98 0.0 0 0 812.02 969.00
  A 5.98 5.98 0.0 0 0 818.00 974.98
  A 5.98 5.98 0.0 0 0 823.98 969.00
  Z
  M 862.98 984.01
  A 5.98 5.98 0.0 0 0 857.00 978.03
  A 5.98 5.98 0.0 0 0 851.02 984.01
  A 5.98 5.98 0.0 0 0 857.00 989.99
  A 5.98 5.98 0.0 0 0 862.98 984.01
  Z
  M 843.98 986.00
  A 5.98 5.98 0.0 0 0 838.00 980.02
  A 5.98 5.98 0.0 0 0 832.02 986.00
  A 5.98 5.98 0.0 0 0 838.00 991.98
  A 5.98 5.98 0.0 0 0 843.98 986.00
  Z
  M 824.98 988.00
  A 5.98 5.98 0.0 0 0 819.00 982.02
  A 5.98 5.98 0.0 0 0 813.02 988.00
  A 5.98 5.98 0.0 0 0 819.00 993.98
  A 5.98 5.98 0.0 0 0 824.98 988.00
  Z
  M 805.98 991.00
  A 5.98 5.98 0.0 0 0 800.00 985.02
  A 5.98 5.98 0.0 0 0 794.02 991.00
  A 5.98 5.98 0.0 0 0 800.00 996.98
  A 5.98 5.98 0.0 0 0 805.98 991.00
  Z
  M 862.98 1003.00
  A 5.98 5.98 0.0 0 0 857.00 997.02
  A 5.98 5.98 0.0 0 0 851.02 1003.00
  A 5.98 5.98 0.0 0 0 857.00 1008.98
  A 5.98 5.98 0.0 0 0 862.98 1003.00
  Z
  M 844.98 1005.00
  A 5.98 5.98 0.0 0 0 839.00 999.02
  A 5.98 5.98 0.0 0 0 833.02 1005.00
  A 5.98 5.98 0.0 0 0 839.00 1010.98
  A 5.98 5.98 0.0 0 0 844.98 1005.00
  Z
  M 825.98 1008.00
  A 5.98 5.98 0.0 0 0 820.00 1002.02
  A 5.98 5.98 0.0 0 0 814.02 1008.00
  A 5.98 5.98 0.0 0 0 820.00 1013.98
  A 5.98 5.98 0.0 0 0 825.98 1008.00
  Z
  M 806.98 1011.00
  A 5.98 5.98 0.0 0 0 801.00 1005.02
  A 5.98 5.98 0.0 0 0 795.02 1011.00
  A 5.98 5.98 0.0 0 0 801.00 1016.98
  A 5.98 5.98 0.0 0 0 806.98 1011.00
  Z
  M 844.98 1025.00
  A 5.98 5.98 0.0 0 0 839.00 1019.02
  A 5.98 5.98 0.0 0 0 833.02 1025.00
  A 5.98 5.98 0.0 0 0 839.00 1030.98
  A 5.98 5.98 0.0 0 0 844.98 1025.00
  Z
  M 826.98 1028.00
  A 5.98 5.98 0.0 0 0 821.00 1022.02
  A 5.98 5.98 0.0 0 0 815.02 1028.00
  A 5.98 5.98 0.0 0 0 821.00 1033.98
  A 5.98 5.98 0.0 0 0 826.98 1028.00
  Z
  M 808.98 1030.00
  A 5.98 5.98 0.0 0 0 803.00 1024.02
  A 5.98 5.98 0.0 0 0 797.02 1030.00
  A 5.98 5.98 0.0 0 0 803.00 1035.98
  A 5.98 5.98 0.0 0 0 808.98 1030.00
  Z"
/>
<path fill="#303538" d="
  M 393.98 841.39
  Q 393.06 839.28 393.06 838.36
  Q 392.97 820.24 393.02 796.71
  A 0.70 0.69 -90.0 0 0 392.33 796.01
  Q 376.22 795.97 356.25 796.03
  C 353.58 796.04 349.74 796.21 347.45 794.93
  C 342.88 792.38 341.94 788.81 341.97 783.31
  Q 342.00 778.16 341.98 752.01
  Q 341.97 745.30 347.14 742.23
  Q 349.62 740.75 358.58 740.95
  Q 363.95 741.07 392.46 740.97
  A 0.55 0.54 -0.0 0 0 393.01 740.43
  L 393.35 695.07
  Q 397.43 689.07 402.75 689.02
  Q 412.63 688.93 434.37 689.01
  Q 441.29 689.03 443.29 690.44
  C 447.42 693.36 448.01 696.47 448.01 702.02
  Q 447.98 724.81 448.01 740.48
  A 0.52 0.52 0.0 0 0 448.54 741.00
  Q 465.55 740.97 488.45 741.00
  Q 500.01 741.01 500.02 752.50
  Q 500.02 778.22 500.02 783.75
  Q 500.01 785.52 499.80 787.79
  A 3.88 3.47 60.2 0 1 499.60 788.73
  Q 497.05 796.06 489.01 796.03
  Q 471.45 795.96 448.59 795.99
  A 0.57 0.56 -0.0 0 0 448.02 796.55
  Q 447.96 816.07 448.06 832.95
  Q 448.10 840.07 446.60 842.23
  C 443.71 846.40 440.55 847.03 434.97 847.02
  Q 420.16 846.99 405.40 847.04
  C 400.03 847.05 396.52 846.00 393.98 841.39
  Z
  M 407.22 722.09
  A 0.60 0.60 0.0 0 0 407.74 723.00
  L 433.24 723.04
  A 0.60 0.60 0.0 0 0 433.75 722.13
  L 421.04 700.84
  A 0.60 0.60 0.0 0 0 420.01 700.84
  L 407.22 722.09
  Z
  M 439.9381 767.7286
  A 19.44 18.93 -0.8 0 0 420.2357 749.0718
  A 19.44 18.93 -0.8 0 0 401.0619 768.2714
  A 19.44 18.93 -0.8 0 0 420.7643 786.9282
  A 19.44 18.93 -0.8 0 0 439.9381 767.7286
  Z
  M 375.31 780.88
  A 0.46 0.46 0.0 0 0 376.00 780.48
  L 376.00 754.54
  A 0.46 0.46 0.0 0 0 375.31 754.14
  L 353.64 767.12
  A 0.46 0.46 0.0 0 0 353.64 767.90
  L 375.31 780.88
  Z
  M 466.78 754.16
  A 0.53 0.53 0.0 0 0 465.97 754.62
  L 465.97 780.36
  A 0.53 0.53 0.0 0 0 466.78 780.82
  L 488.25 767.94
  A 0.53 0.53 0.0 0 0 488.25 767.04
  L 466.78 754.16
  Z
  M 433.76 813.86
  A 0.58 0.58 0.0 0 0 433.27 812.99
  L 407.71 812.99
  A 0.58 0.58 0.0 0 0 407.22 813.86
  L 419.99 835.18
  A 0.58 0.58 0.0 0 0 420.99 835.18
  L 433.76 813.86
  Z"
/>
<path fill="#171b1c" d="
  M 407.22 722.09
  L 420.01 700.84
  A 0.60 0.60 0.0 0 1 421.04 700.84
  L 433.75 722.13
  A 0.60 0.60 0.0 0 1 433.24 723.04
  L 407.74 723.00
  A 0.60 0.60 0.0 0 1 407.22 722.09
  Z"
/>
<path fill="#303538" d="
  M 873.46 789.93
  C 844.92 782.69 832.22 749.84 850.50 725.90
  Q 858.82 714.99 873.05 711.17
  Q 891.11 707.32 905.25 716.48
  C 927.91 731.16 930.61 763.26 910.00 780.99
  Q 894.57 794.27 873.46 789.93
  Z"
/>
<ellipse fill="#171b1c" cx="0.00" cy="0.00" transform="translate(420.50,768.00) rotate(-0.8)" rx="19.44" ry="18.93"/>
<ellipse fill="#303538" cx="0.00" cy="0.00" transform="translate(762.00,789.50) rotate(-179.9)" rx="40.99" ry="40.48"/>
<path fill="#171b1c" d="
  M 375.31 780.88
  L 353.64 767.90
  A 0.46 0.46 0.0 0 1 353.64 767.12
  L 375.31 754.14
  A 0.46 0.46 0.0 0 1 376.00 754.54
  L 376.00 780.48
  A 0.46 0.46 0.0 0 1 375.31 780.88
  Z"
/>
<path fill="#171b1c" d="
  M 466.78 754.16
  L 488.25 767.04
  A 0.53 0.53 0.0 0 1 488.25 767.94
  L 466.78 780.82
  A 0.53 0.53 0.0 0 1 465.97 780.36
  L 465.97 754.62
  A 0.53 0.53 0.0 0 1 466.78 754.16
  Z"
/>
<path fill="#171b1c" d="
  M 433.76 813.86
  L 420.99 835.18
  A 0.58 0.58 0.0 0 1 419.99 835.18
  L 407.22 813.86
  A 0.58 0.58 0.0 0 1 407.71 812.99
  L 433.27 812.99
  A 0.58 0.58 0.0 0 1 433.76 813.86
  Z"
/>
<ellipse fill="#303538" cx="581.50" cy="963.50" rx="31.48" ry="11.49"/>
<ellipse fill="#303538" cx="683.50" cy="963.50" rx="31.48" ry="11.49"/>
<circle fill="#247484" cx="910.99" cy="959.00" r="5.98"/>
<circle fill="#171b1c" cx="893.00" cy="960.00" r="5.98"/>
<path fill="#247484" d="
  M 873.30 955.92
  C 882.54 956.58 881.84 967.92 873.47 968.05
  C 866.26 966.66 866.19 957.74 873.30 955.92
  Z"
/>
<circle fill="#171b1c" cx="856.00" cy="964.00" r="5.98"/>
<circle fill="#247484" cx="837.00" cy="967.00" r="5.98"/>
<circle fill="#171b1c" cx="818.00" cy="969.00" r="5.98"/>
<circle fill="#247484" cx="931.00" cy="976.00" r="5.98"/>
<circle fill="#171b1c" cx="913.00" cy="977.00" r="5.98"/>
<circle fill="#247484" cx="894.00" cy="979.00" r="5.98"/>
<path fill="#171b1c" d="
  M 873.24 986.75
  C 867.61 984.68 867.66 977.60 873.11 975.27
  C 883.21 972.70 883.63 989.03 873.24 986.75
  Z"
/>
<circle fill="#247484" cx="857.00" cy="984.01" r="5.98"/>
<circle fill="#171b1c" cx="838.00" cy="986.00" r="5.98"/>
<circle fill="#247484" cx="819.00" cy="988.00" r="5.98"/>
<circle fill="#171b1c" cx="800.00" cy="991.00" r="5.98"/>
<circle fill="#171b1c" cx="932.00" cy="994.00" r="5.98"/>
<circle fill="#247484" cx="912.99" cy="996.00" r="5.98"/>
<circle fill="#171b1c" cx="895.00" cy="998.00" r="5.98"/>
<path fill="#247484" d="
  M 873.27 1006.43
  C 868.91 1003.79 868.98 998.27 873.27 995.56
  C 879.77 993.34 884.75 999.88 880.37 1005.13
  Q 877.83 1008.18 873.27 1006.43
  Z"
/>
<circle fill="#171b1c" cx="857.00" cy="1003.00" r="5.98"/>
<circle fill="#247484" cx="839.00" cy="1005.00" r="5.98"/>
<circle fill="#171b1c" cx="820.00" cy="1008.00" r="5.98"/>
<circle fill="#247484" cx="801.00" cy="1011.00" r="5.98"/>
<circle fill="#247484" cx="932.99" cy="1013.00" r="5.98"/>
<circle fill="#171b1c" cx="914.00" cy="1015.00" r="5.98"/>
<circle fill="#247484" cx="896.00" cy="1018.00" r="5.98"/>
<path fill="#171b1c" d="
  M 870.96 1020.37
  Q 870.98 1017.12 873.57 1015.03
  C 880.73 1011.08 886.62 1020.48 880.52 1024.82
  C 876.52 1027.66 871.72 1025.15 870.96 1020.37
  Z"
/>
<path fill="#247484" d="
  M 863.21 1025.01
  Q 860.98 1028.24 857.11 1027.99
  Q 852.13 1026.77 852.03 1022.50
  C 851.77 1012.19 867.73 1015.35 863.21 1025.01
  Z"
/>
<circle fill="#171b1c" cx="839.00" cy="1025.00" r="5.98"/>
<circle fill="#247484" cx="821.00" cy="1028.00" r="5.98"/>
<circle fill="#171b1c" cx="803.00" cy="1030.00" r="5.98"/>
<circle fill="#171b1c" cx="933.00" cy="1031.00" r="5.98"/>
<circle fill="#247484" cx="914.99" cy="1034.00" r="5.98"/>
<circle fill="#171b1c" cx="896.00" cy="1037.00" r="5.98"/>
<circle fill="#247484" cx="878.00" cy="1039.00" r="5.98"/>
<circle fill="#171b1c" cx="859.00" cy="1042.00" r="5.98"/>
<circle fill="#247484" cx="839.99" cy="1045.00" r="5.98"/>
<circle fill="#171b1c" cx="822.00" cy="1047.01" r="5.97"/>
<circle fill="#247484" cx="804.00" cy="1049.01" r="5.98"/>
<circle fill="#247484" cx="934.99" cy="1051.00" r="5.98"/>
<circle fill="#171b1c" cx="915.00" cy="1053.00" r="5.98"/>
<circle fill="#247484" cx="896.99" cy="1055.00" r="5.98"/>
<circle fill="#171b1c" cx="878.00" cy="1059.00" r="5.98"/>
<circle fill="#247484" cx="860.00" cy="1062.00" r="5.98"/>
<circle fill="#171b1c" cx="842.00" cy="1064.00" r="5.98"/>
<circle fill="#247484" cx="824.00" cy="1066.00" r="5.98"/>
<circle fill="#171b1c" cx="805.00" cy="1068.00" r="5.98"/>
<circle fill="#171b1c" cx="934.00" cy="1070.00" r="5.98"/>
<circle fill="#247484" cx="916.99" cy="1072.00" r="5.98"/>
<circle fill="#171b1c" cx="897.00" cy="1075.00" r="5.98"/>
<circle fill="#247484" cx="878.99" cy="1078.00" r="5.98"/>
<circle fill="#171b1c" cx="861.00" cy="1081.00" r="5.98"/>
<circle fill="#247484" cx="842.99" cy="1083.00" r="5.98"/>
<circle fill="#171b1c" cx="825.00" cy="1085.00" r="5.98"/>
<circle fill="#247484" cx="806.00" cy="1087.00" r="5.98"/>
<circle fill="#171b1c" cx="916.00" cy="1092.00" r="5.98"/>
<circle fill="#247484" cx="898.99" cy="1095.00" r="5.98"/>
<circle fill="#171b1c" cx="880.00" cy="1097.00" r="5.98"/>
<circle fill="#247484" cx="863.00" cy="1100.00" r="5.98"/>
<circle fill="#171b1c" cx="844.00" cy="1102.00" r="5.98"/>
<circle fill="#247484" cx="826.00" cy="1104.00" r="5.98"/>
</svg>
