<?xml version="1.0" encoding="UTF-8" standalone="no"?>
<!DOCTYPE svg PUBLIC "-//W3C//DTD SVG 1.1//EN" "http://www.w3.org/Graphics/SVG/1.1/DTD/svg11.dtd">
<svg xmlns="http://www.w3.org/2000/svg" version="1.1" viewBox="0.00 0.00 1335.00 1071.00">
<g stroke-width="2.00" fill="none" stroke-linecap="butt">
<path stroke="#708389" vector-effect="non-scaling-stroke" d="
  M 744.95 0.00
  Q 752.75 8.36 748.14 20.92"
/>
<path stroke="#68797e" vector-effect="non-scaling-stroke" d="
  M 748.14 20.92
  L 736.62 21.09"
/>
<path stroke="#607075" vector-effect="non-scaling-stroke" d="
  M 769.00 0.00
  Q 777.18 8.94 772.02 20.44
  A 0.81 0.80 11.6 0 1 771.30 20.91
  L 748.14 20.92"
/>
<path stroke="#5c607c" vector-effect="non-scaling-stroke" d="
  M 817.00 290.99
  L 804.04 290.90"
/>
<path stroke="#607075" vector-effect="non-scaling-stroke" d="
  M 804.04 290.90
  Q 803.96 208.64 804.00 126.81
  Q 804.01 112.33 802.57 106.89
  C 798.48 91.46 786.71 79.10 771.23 74.21
  Q 770.65 74.02 769.57 73.26
  Q 768.79 72.72 767.75 72.62
  Q 757.44 71.69 749.31 72.32"
/>
<path stroke="#68797e" vector-effect="non-scaling-stroke" d="
  M 749.31 72.32
  Q 740.11 71.61 731.66 72.34
  Q 730.32 72.46 728.36 72.87
  Q 726.74 73.21 725.08 73.47"
/>
<path stroke="#68797e" vector-effect="non-scaling-stroke" d="
  M 724.23 68.49
  L 735.90 68.01"
/>
<path stroke="#607075" vector-effect="non-scaling-stroke" d="
  M 735.90 68.01
  L 777.42 67.90
  A 0.70 0.69 7.7 0 0 778.09 67.39
  C 778.52 65.83 779.40 64.16 779.77 62.14
  Q 781.00 55.39 775.22 49.85
  A 2.88 2.86 -23.1 0 0 773.24 49.06
  L 733.66 49.07"
/>
<path stroke="#68797e" vector-effect="non-scaling-stroke" d="
  M 733.66 49.07
  Q 731.68 49.02 730.91 48.10"
/>
<path stroke="#68797e" vector-effect="non-scaling-stroke" d="
  M 730.22 45.21
  L 740.85 44.94"
/>
<path stroke="#607075" vector-effect="non-scaling-stroke" d="
  M 740.85 44.94
  L 773.65 44.95
  A 0.86 0.85 -74.3 0 0 774.38 44.54
  Q 778.91 37.18 775.54 29.62
  C 774.96 28.33 773.86 27.36 773.31 26.18
  A 1.97 1.96 -12.5 0 0 771.53 25.05
  L 739.59 25.05"
/>
<path stroke="#68797e" vector-effect="non-scaling-stroke" d="
  M 739.59 25.05
  Q 737.86 25.10 736.79 24.10"
/>
<path stroke="#708389" vector-effect="non-scaling-stroke" d="
  M 739.59 25.05
  Q 746.04 34.86 740.85 44.94"
/>
<path stroke="#708389" vector-effect="non-scaling-stroke" d="
  M 733.66 49.07
  Q 739.61 57.48 735.90 68.01"
/>
<path stroke="#708389" vector-effect="non-scaling-stroke" d="
  M 749.31 72.32
  Q 736.41 75.14 727.52 82.28
  Q 715.23 92.14 711.50 106.85
  Q 710.00 112.76 710.00 126.34
  Q 709.99 208.59 709.97 290.97"
/>
<path stroke="#6d7390" vector-effect="non-scaling-stroke" d="
  M 709.97 290.97
  L 697.01 290.65"
/>
<path stroke="#656a87" vector-effect="non-scaling-stroke" d="
  M 804.04 290.90
  L 709.97 290.97"
/>
<path stroke="#5b5385" vector-effect="non-scaling-stroke" d="
  M 1009.93 292.11
  C 1007.65 298.78 1003.66 304.91 998.71 313.19
  Q 998.20 314.05 997.33 316.98"
/>
<path stroke="#655c96" vector-effect="non-scaling-stroke" d="
  M 997.33 316.98
  Q 991.27 316.06 988.25 316.07
  Q 584.75 316.10 345.25 316.08
  Q 341.69 316.08 338.27 316.99
  A 0.99 0.93 -40.1 0 1 337.71 316.96
  Q 337.22 316.77 337.46 316.67"
/>
<path stroke="#6c639f" vector-effect="non-scaling-stroke" d="
  M 337.46 316.67
  L 323.57 292.64"
/>
<path stroke="#83829a" vector-effect="non-scaling-stroke" d="
  M 1058.54 316.19
  Q 1058.66 316.35 1058.97 316.49
  C 1081.25 326.45 1103.81 333.85 1126.33 340.58
  Q 1142.55 345.43 1160.86 349.71
  C 1194.10 357.47 1230.07 365.60 1262.73 375.95
  Q 1262.81 375.97 1271.72 378.39
  Q 1280.17 380.67 1287.42 385.58"
/>
<path stroke="#75718c" vector-effect="non-scaling-stroke" d="
  M 1287.42 385.58
  Q 1303.88 396.62 1306.90 415.16
  Q 1310.06 434.53 1313.20 453.83
  A 0.34 0.32 -83.7 0 0 1313.39 454.08
  Q 1313.59 454.17 1313.65 454.03"
/>
<path stroke="#5b5385" vector-effect="non-scaling-stroke" d="
  M 1070.00 1006.00
  L 1055.85 981.07"
/>
<path stroke="#5f568d" vector-effect="non-scaling-stroke" d="
  M 1055.85 981.07
  Q 1107.52 966.96 1132.75 961.43
  C 1168.07 953.69 1204.13 943.45 1236.81 928.87
  Q 1253.97 921.22 1269.30 911.18
  C 1273.48 908.45 1277.70 904.91 1281.17 902.42
  C 1288.64 897.07 1294.21 891.05 1298.02 882.98
  Q 1300.10 878.57 1301.22 871.46
  C 1312.61 799.63 1314.99 726.10 1311.53 653.75
  C 1308.05 581.02 1299.09 508.41 1286.30 435.88
  Q 1284.43 425.32 1282.35 421.20
  C 1276.35 409.30 1264.49 400.69 1251.73 397.63
  Q 1244.25 395.83 1242.00 395.04
  Q 1236.76 393.19 1226.13 390.35
  C 1199.79 383.30 1167.32 375.93 1143.68 370.66
  C 1122.80 366.01 1103.80 360.38 1083.16 353.88
  Q 1046.57 342.36 1013.49 323.98
  Q 1005.62 319.60 997.33 316.98"
/>
<path stroke="#7066a7" vector-effect="non-scaling-stroke" d="
  M 337.46 316.67
  Q 337.34 316.82 337.25 316.93
  A 0.66 0.64 -73.9 0 1 336.88 317.14
  Q 332.59 317.97 330.00 319.25
  Q 320.37 324.01 302.74 333.19
  Q 290.46 339.59 269.96 347.20
  Q 253.46 353.31 228.34 360.77
  Q 210.13 366.17 190.18 370.69
  C 158.02 377.97 128.91 384.46 102.27 391.86
  Q 94.68 393.97 92.02 394.98
  Q 90.80 395.44 81.93 397.71
  Q 65.02 402.04 54.80 415.99
  C 52.22 419.51 49.85 424.47 49.10 428.52
  Q 32.21 519.74 24.92 613.13
  Q 22.41 645.34 21.45 681.00
  C 19.97 736.67 22.02 792.14 29.10 847.00
  Q 30.83 860.39 33.79 876.78
  A 3.92 3.78 -63.9 0 0 34.08 877.68
  Q 36.10 882.15 36.32 885.72"
/>
<path stroke="#6c639f" vector-effect="non-scaling-stroke" d="
  M 36.32 885.72
  L 17.45 905.35"
/>
<path stroke="#8681a5" vector-effect="non-scaling-stroke" d="
  M 21.84 449.72
  Q 23.81 441.30 24.87 433.95
  Q 25.90 426.88 27.05 419.82
  Q 28.57 410.59 30.44 405.97
  Q 35.73 392.95 47.95 385.09"
/>
<path stroke="#9492b3" vector-effect="non-scaling-stroke" d="
  M 47.95 385.09
  Q 54.85 380.59 59.38 379.37
  Q 72.23 375.88 85.82 371.58
  Q 91.05 369.93 116.37 363.40
  Q 127.98 360.41 175.96 349.08
  Q 195.69 344.42 210.54 339.86
  Q 228.13 334.45 244.60 328.81
  Q 260.26 323.45 275.84 316.24"
/>
<path stroke="#a3a6a9" vector-effect="non-scaling-stroke" d="
  M 47.95 385.09
  Q 45.24 378.42 45.39 372.25
  Q 45.58 363.91 45.04 358.40"
/>
<path stroke="#655c96" vector-effect="non-scaling-stroke" d="
  M 1055.85 981.07
  Q 1046.42 988.33 1035.24 993.23
  Q 1018.22 1000.70 1001.98 1005.55
  C 964.08 1016.87 925.37 1023.79 885.50 1029.06
  Q 856.26 1032.93 828.50 1035.34
  C 754.78 1041.76 679.78 1043.12 605.13 1041.12
  Q 546.65 1039.55 484.82 1033.34
  Q 431.95 1028.03 383.01 1018.26
  C 353.20 1012.31 321.68 1004.12 294.38 991.15
  Q 289.39 988.78 279.07 982.14
  C 277.60 981.20 276.49 980.89 275.41 980.30
  A 4.10 3.75 -21.0 0 0 274.54 979.96
  Q 215.36 964.66 202.24 961.71
  C 159.04 952.02 122.09 941.54 85.55 923.28
  C 71.58 916.30 59.43 908.08 47.26 898.00
  Q 41.92 893.59 37.86 886.63
  Q 37.35 885.74 36.32 885.72"
/>
<path stroke="#4d4a6b" vector-effect="non-scaling-stroke" d="
  M 667.47 977.00
  C 736.31 977.00 807.48 972.52 876.53 960.87
  Q 913.20 954.68 949.45 943.95
  Q 977.57 935.63 1000.99 922.29
  Q 1008.69 917.90 1011.66 915.20
  C 1018.30 909.18 1024.45 900.89 1025.00 891.27
  Q 1025.10 889.50 1024.85 883.50
  C 1016.26 673.99 1011.85 574.02 1005.70 434.00
  C 1004.91 416.00 991.63 401.96 974.49 398.09
  Q 967.72 396.56 964.86 395.81
  C 932.52 387.37 899.05 383.00 863.46 379.64
  Q 821.56 375.69 787.26 373.91
  C 748.00 371.86 708.11 371.02 667.52 371.02
  C 626.93 371.02 587.04 371.85 547.78 373.89
  Q 513.48 375.66 471.58 379.61
  C 435.99 382.96 402.51 387.32 370.17 395.76
  Q 367.31 396.51 360.54 398.04
  C 343.40 401.90 330.12 415.94 329.33 433.94
  C 323.15 573.96 318.73 673.93 310.10 883.44
  Q 309.85 889.44 309.95 891.21
  C 310.50 900.83 316.65 909.12 323.28 915.14
  Q 326.25 917.84 333.95 922.23
  Q 357.37 935.58 385.49 943.90
  Q 421.74 954.64 458.41 960.83
  C 527.46 972.50 598.63 976.99 667.47 977.00"
/>
<path stroke="#61947a" vector-effect="non-scaling-stroke" d="
  M 1124.98 419.01
  A 13.98 13.98 0.0 0 0 1111.00 405.03
  A 13.98 13.98 0.0 0 0 1097.02 419.01
  A 13.98 13.98 0.0 0 0 1111.00 432.99
  A 13.98 13.98 0.0 0 0 1124.98 419.01"
/>
<path stroke="#8d8bab" vector-effect="non-scaling-stroke" d="
  M 188.06 576.28
  Q 187.91 565.58 188.08 539.54
  Q 188.14 529.37 186.80 526.71
  Q 183.91 520.97 175.79 520.98
  Q 167.93 521.00 142.12 520.98
  C 136.51 520.98 133.35 521.99 130.43 526.26
  Q 128.80 528.66 128.98 536.06
  Q 129.00 536.59 129.00 576.42
  A 0.58 0.57 90.0 0 1 128.43 577.00
  Q 109.66 576.99 89.48 576.98
  C 83.07 576.98 79.70 577.41 76.39 582.37
  Q 74.95 584.52 74.97 590.64
  Q 75.02 614.80 74.98 623.39
  C 74.96 628.64 76.27 632.01 80.36 634.66
  Q 82.53 636.06 89.49 636.04
  Q 124.59 635.95 128.39 636.01
  A 0.61 0.60 -89.5 0 1 128.98 636.62
  Q 129.02 648.10 128.99 676.85
  C 128.98 683.02 129.65 686.61 134.45 689.68
  Q 136.60 691.06 143.91 691.04
  Q 171.29 690.97 173.23 691.01
  C 179.53 691.13 183.48 690.55 186.59 685.72
  Q 188.07 683.44 188.05 675.48
  Q 187.96 642.93 188.02 636.51
  A 0.51 0.51 0.0 0 1 188.53 636.00
  Q 215.24 636.02 231.97 635.99
  Q 240.29 635.97 242.88 627.19
  A 3.30 3.22 -39.8 0 0 243.01 625.93
  Q 242.99 625.75 243.03 590.99
  Q 243.04 585.33 242.22 583.61
  C 239.06 576.92 234.16 576.91 226.13 576.95
  Q 197.06 577.09 188.71 576.93
  A 0.66 0.66 0.0 0 1 188.06 576.28"
/>
<path stroke="#8d8bab" vector-effect="non-scaling-stroke" d="
  M 1280.99 584.00
  A 44.49 43.98 0.0 0 0 1236.50 540.02
  A 44.49 43.98 0.0 0 0 1192.01 584.00
  A 44.49 43.98 0.0 0 0 1236.50 627.98
  A 44.49 43.98 0.0 0 0 1280.99 584.00"
/>
<path stroke="#8d8bab" vector-effect="non-scaling-stroke" d="
  M 1156.99 627.00
  A 44.49 43.98 0.0 0 0 1112.50 583.02
  A 44.49 43.98 0.0 0 0 1068.01 627.00
  A 44.49 43.98 0.0 0 0 1112.50 670.98
  A 44.49 43.98 0.0 0 0 1156.99 627.00"
/>
<path stroke="#5f568d" vector-effect="non-scaling-stroke" d="
  M 1215.7793 750.2588
  A 5.52 5.52 0.0 0 0 1209.1447 746.1451
  L 1073.2915 778.0092
  A 5.52 5.52 0.0 0 0 1069.1778 784.6439
  L 1069.2007 784.7412
  A 5.52 5.52 0.0 0 0 1075.8353 788.8549
  L 1211.6885 756.9908
  A 5.52 5.52 0.0 0 0 1215.8022 750.3561
  L 1215.7793 750.2588"
/>
<path stroke="#5f568d" vector-effect="non-scaling-stroke" d="
  M 275.2146 803.2515
  A 24.37 24.37 0.0 0 0 257.5674 773.6480
  L 162.7169 749.6471
  A 24.37 24.37 0.0 0 0 133.1133 767.2943
  L 132.7454 768.7485
  A 24.37 24.37 0.0 0 0 150.3926 798.3520
  L 245.2431 822.3529
  A 24.37 24.37 0.0 0 0 274.8467 804.7057
  L 275.2146 803.2515"
/>
<path stroke="#5f568d" vector-effect="non-scaling-stroke" d="
  M 1215.7793 778.2588
  A 5.52 5.52 0.0 0 0 1209.1447 774.1451
  L 1073.2915 806.0092
  A 5.52 5.52 0.0 0 0 1069.1778 812.6439
  L 1069.2007 812.7412
  A 5.52 5.52 0.0 0 0 1075.8353 816.8549
  L 1211.6885 784.9908
  A 5.52 5.52 0.0 0 0 1215.8022 778.3561
  L 1215.7793 778.2588"
/>
<path stroke="#5f568d" vector-effect="non-scaling-stroke" d="
  M 1215.7793 806.2588
  A 5.52 5.52 0.0 0 0 1209.1447 802.1451
  L 1073.2915 834.0092
  A 5.52 5.52 0.0 0 0 1069.1778 840.6439
  L 1069.2007 840.7412
  A 5.52 5.52 0.0 0 0 1075.8353 844.8549
  L 1211.6885 812.9908
  A 5.52 5.52 0.0 0 0 1215.8022 806.3561
  L 1215.7793 806.2588"
/>
<path stroke="#5f568d" vector-effect="non-scaling-stroke" d="
  M 275.1653 882.3684
  A 24.39 24.39 0.0 0 0 257.5554 852.7098
  L 162.8438 828.5681
  A 24.39 24.39 0.0 0 0 133.1852 846.1781
  L 132.8147 847.6316
  A 24.39 24.39 0.0 0 0 150.4246 877.2902
  L 245.1362 901.4319
  A 24.39 24.39 0.0 0 0 274.7948 883.8219
  L 275.1653 882.3684"
/>
<path stroke="#5f568d" vector-effect="non-scaling-stroke" d="
  M 1215.7793 834.2588
  A 5.52 5.52 0.0 0 0 1209.1447 830.1451
  L 1073.2915 862.0092
  A 5.52 5.52 0.0 0 0 1069.1778 868.6439
  L 1069.2007 868.7412
  A 5.52 5.52 0.0 0 0 1075.8353 872.8549
  L 1211.6885 840.9908
  A 5.52 5.52 0.0 0 0 1215.8022 834.3561
  L 1215.7793 834.2588"
/>
<path stroke="#5f568d" vector-effect="non-scaling-stroke" d="
  M 1215.7793 862.2688
  A 5.52 5.52 0.0 0 0 1209.1447 858.1551
  L 1073.2915 890.0192
  A 5.52 5.52 0.0 0 0 1069.1778 896.6539
  L 1069.2007 896.7512
  A 5.52 5.52 0.0 0 0 1075.8353 900.8649
  L 1211.6885 869.0008
  A 5.52 5.52 0.0 0 0 1215.8022 862.3661
  L 1215.7793 862.2688"
/>
<path stroke="#a3a6a9" vector-effect="non-scaling-stroke" d="
  M 1292.49 358.30
  C 1292.62 362.46 1292.85 366.87 1291.90 370.71
  C 1291.16 373.69 1291.08 376.48 1289.96 379.54
  Q 1288.84 382.56 1287.42 385.58"
/>
<path stroke="#6d716d" vector-effect="non-scaling-stroke" d="
  M 973.00 440.07
  A 10.07 10.07 0.0 0 0 962.93 430.00
  L 372.07 430.00
  A 10.07 10.07 0.0 0 0 362.00 440.07
  L 362.00 826.93
  A 10.07 10.07 0.0 0 0 372.07 837.00
  L 962.93 837.00
  A 10.07 10.07 0.0 0 0 973.00 826.93
  L 973.00 440.07"
/>
<path stroke="#252829" vector-effect="non-scaling-stroke" d="
  M 615.75 890.73
  Q 615.86 889.38 613.58 886.59
  Q 609.27 881.31 603.90 879.28
  Q 600.33 877.92 591.80 878.09
  Q 591.18 878.10 577.52 878.12
  C 570.23 878.13 567.19 879.27 567.16 887.00
  Q 567.02 919.17 567.26 926.22
  C 567.52 933.69 575.01 933.20 580.53 932.78
  C 588.21 932.18 587.19 927.11 587.70 921.27
  A 0.30 0.30 0.0 0 1 588.21 921.09
  Q 592.87 925.69 597.22 930.02
  Q 599.97 932.75 603.85 932.83
  C 607.70 932.91 615.74 933.51 617.95 931.34
  A 0.74 0.73 -50.9 0 1 618.86 931.24
  Q 621.20 932.74 623.64 932.82
  Q 628.37 932.97 659.96 932.83
  Q 662.55 932.82 664.93 930.86
  C 667.45 928.78 667.21 924.51 667.07 921.53
  A 0.31 0.31 0.0 0 1 667.63 921.33
  Q 677.40 934.05 693.38 932.87
  C 702.79 932.17 710.87 927.09 715.58 919.16
  Q 715.99 918.48 716.00 918.42
  Q 716.11 917.57 716.15 917.53
  A 0.29 0.28 61.0 0 1 716.65 917.68
  Q 716.66 917.72 716.56 924.75
  C 716.45 933.68 724.03 933.13 730.25 932.80
  C 735.96 932.50 737.31 928.72 737.28 923.30
  Q 737.25 917.05 737.18 915.50
  A 0.24 0.23 25.1 0 1 737.60 915.35
  Q 742.49 921.70 748.79 929.40
  Q 750.47 931.46 751.85 932.01
  C 754.82 933.18 758.74 933.02 762.03 932.79
  Q 768.77 932.34 768.84 925.37
  Q 768.97 912.62 768.86 885.40
  C 768.85 881.88 767.22 879.03 763.33 878.46
  C 757.62 877.61 749.14 877.12 748.68 885.00
  Q 748.58 886.79 748.72 895.82
  A 0.23 0.23 0.0 0 1 748.31 895.96
  Q 743.66 889.90 736.26 881.02
  C 733.31 877.47 727.85 877.80 723.46 878.23
  Q 716.23 878.93 716.57 886.80
  Q 716.76 891.21 716.69 891.69
  A 0.09 0.09 0.0 0 1 716.53 891.73
  L 711.44 884.48
  A 1.76 1.69 -3.3 0 0 710.83 883.96
  Q 705.18 881.23 701.88 885.25
  A 0.26 0.26 0.0 0 1 701.42 885.11
  Q 700.59 877.89 692.72 878.05
  C 686.98 878.17 681.19 877.78 680.60 885.14
  A 0.25 0.25 0.0 0 1 680.17 885.29
  C 675.88 880.68 670.01 883.06 667.55 888.25
  A 0.20 0.20 0.0 0 1 667.17 888.16
  Q 667.19 885.45 666.82 883.45
  C 666.12 879.62 662.24 878.11 658.95 878.10
  Q 629.07 878.09 627.63 878.08
  C 621.43 878.03 616.43 878.68 616.44 885.81
  Q 616.45 890.97 616.41 891.01
  A 0.38 0.38 0.0 0 1 615.75 890.73"
/>
<path stroke="#a3a6a9" vector-effect="non-scaling-stroke" d="
  M 143.99 557.08
  A 0.55 0.55 0.0 0 0 144.46 557.92
  L 172.37 557.96
  A 0.55 0.55 0.0 0 0 172.84 557.13
  L 158.93 533.71
  A 0.55 0.55 0.0 0 0 157.99 533.71
  L 143.99 557.08"
/>
<path stroke="#a3a6a9" vector-effect="non-scaling-stroke" d="
  M 179.00 606.50
  A 20.49 20.49 0.0 0 0 158.51 586.01
  A 20.49 20.49 0.0 0 0 138.02 606.50
  A 20.49 20.49 0.0 0 0 158.51 626.99
  A 20.49 20.49 0.0 0 0 179.00 606.50"
/>
<path stroke="#a3a6a9" vector-effect="non-scaling-stroke" d="
  M 207.94 591.25
  A 0.61 0.61 0.0 0 0 207.01 591.78
  L 207.01 619.16
  A 0.61 0.61 0.0 0 0 207.94 619.69
  L 230.42 605.99
  A 0.61 0.61 0.0 0 0 230.42 604.95
  L 207.94 591.25"
/>
<path stroke="#a3a6a9" vector-effect="non-scaling-stroke" d="
  M 110.08 619.70
  A 0.61 0.61 0.0 0 0 111.00 619.18
  L 111.00 591.76
  A 0.61 0.61 0.0 0 0 110.08 591.24
  L 87.61 604.95
  A 0.61 0.61 0.0 0 0 87.61 605.99
  L 110.08 619.70"
/>
<path stroke="#a3a6a9" vector-effect="non-scaling-stroke" d="
  M 172.89 654.93
  A 0.57 0.57 0.0 0 0 172.40 654.07
  L 144.54 654.07
  A 0.57 0.57 0.0 0 0 144.05 654.93
  L 157.98 678.28
  A 0.57 0.57 0.0 0 0 158.96 678.28
  L 172.89 654.93"
/>
<path stroke="#83829a" vector-effect="non-scaling-stroke" d="
  M 271.98 798.50
  A 20.48 20.48 0.0 0 0 251.50 778.02
  A 20.48 20.48 0.0 0 0 231.02 798.50
  A 20.48 20.48 0.0 0 0 251.50 818.98
  A 20.48 20.48 0.0 0 0 271.98 798.50"
/>
<path stroke="#83829a" vector-effect="non-scaling-stroke" d="
  M 271.98 876.50
  A 20.48 20.48 0.0 0 0 251.50 856.02
  A 20.48 20.48 0.0 0 0 231.02 876.50
  A 20.48 20.48 0.0 0 0 251.50 896.98
  A 20.48 20.48 0.0 0 0 271.98 876.50"
/>
<path stroke="#8d8d8d" vector-effect="non-scaling-stroke" d="
  M 614.50 926.44
  L 602.00 913.94
  A 0.51 0.51 0.0 0 1 602.15 913.11
  C 614.72 907.52 614.75 890.61 602.25 885.15
  Q 599.35 883.88 592.00 884.08
  Q 589.90 884.14 573.55 884.10
  A 0.45 0.44 90.0 0 0 573.11 884.55
  L 573.11 926.46
  A 0.42 0.42 0.0 0 0 573.53 926.88
  L 581.14 926.88
  A 0.42 0.42 0.0 0 0 581.56 926.46
  L 581.56 913.89
  A 0.60 0.59 90.0 0 1 582.15 913.29
  L 588.76 913.29
  A 1.23 1.23 0.0 0 1 589.63 913.65
  L 602.43 926.45
  A 1.51 1.47 66.9 0 0 603.48 926.89
  L 614.32 926.89
  A 0.27 0.26 67.4 0 0 614.50 926.44"
/>
<path stroke="#8d8d8d" vector-effect="non-scaling-stroke" d="
  M 660.79 884.55
  A 0.43 0.43 0.0 0 0 660.36 884.12
  L 622.82 884.12
  A 0.43 0.43 0.0 0 0 622.39 884.55
  L 622.39 892.27
  A 0.43 0.43 0.0 0 0 622.82 892.70
  L 660.36 892.70
  A 0.43 0.43 0.0 0 0 660.79 892.27
  L 660.79 884.55"
/>
<path stroke="#8d8d8d" vector-effect="non-scaling-stroke" d="
  M 739.65 908.35
  Q 746.09 916.09 754.07 926.29
  A 1.57 1.54 70.6 0 0 755.29 926.89
  L 762.52 926.89
  A 0.44 0.44 0.0 0 0 762.96 926.45
  L 762.96 884.54
  A 0.42 0.42 0.0 0 0 762.54 884.12
  L 755.05 884.12
  A 0.42 0.42 0.0 0 0 754.63 884.54
  L 754.63 912.50
  A 0.34 0.34 0.0 0 1 754.01 912.71
  Q 749.96 907.43 745.98 902.65
  Q 739.54 894.92 731.56 884.71
  A 1.57 1.54 70.6 0 0 730.34 884.11
  L 723.11 884.11
  A 0.44 0.44 0.0 0 0 722.67 884.55
  L 722.67 926.46
  A 0.42 0.42 0.0 0 0 723.09 926.88
  L 730.58 926.88
  A 0.42 0.42 0.0 0 0 731.00 926.46
  L 731.00 898.50
  A 0.34 0.34 0.0 0 1 731.62 898.30
  Q 735.67 903.58 739.65 908.35"
/>
<path stroke="#8d8d8d" vector-effect="non-scaling-stroke" d="
  M 695.37 884.50
  A 0.34 0.34 0.0 0 0 695.03 884.16
  L 686.97 884.16
  A 0.34 0.34 0.0 0 0 686.63 884.50
  L 686.63 902.62
  A 0.34 0.34 0.0 0 0 686.97 902.96
  L 695.03 902.96
  A 0.34 0.34 0.0 0 0 695.37 902.62
  L 695.37 884.50"
/>
<path stroke="#8d8d8d" vector-effect="non-scaling-stroke" d="
  M 690.88 926.89
  Q 694.46 926.89 695.01 926.78
  C 712.83 923.25 719.50 902.07 707.11 888.84
  A 0.26 0.25 46.5 0 0 706.74 888.83
  L 701.03 894.54
  A 0.38 0.38 0.0 0 0 701.03 895.08
  C 705.63 899.67 706.17 907.68 702.25 912.80
  C 699.46 916.45 695.55 918.56 690.89 918.56
  C 686.22 918.55 682.32 916.44 679.53 912.78
  C 675.62 907.66 676.17 899.65 680.78 895.07
  A 0.38 0.38 0.0 0 0 680.78 894.53
  L 675.08 888.81
  A 0.26 0.25 -46.4 0 0 674.71 888.82
  C 662.30 902.03 668.94 923.22 686.75 926.78
  Q 687.30 926.89 690.88 926.89"
/>
<path stroke="#252829" vector-effect="non-scaling-stroke" d="
  M 657.95 912.58
  Q 660.16 912.08 663.11 913.40
  A 0.32 0.32 0.0 0 0 663.55 913.02
  Q 661.55 905.99 662.95 898.53
  A 0.45 0.45 0.0 0 0 662.35 898.02
  Q 659.59 899.05 658.19 898.61
  A 0.44 0.44 0.0 0 0 657.63 899.15
  Q 658.87 903.60 658.07 910.60
  Q 658.03 910.99 657.81 911.37
  Q 657.41 912.10 657.41 912.14
  A 0.44 0.44 0.0 0 0 657.95 912.58"
/>
<path stroke="#8d8d8d" vector-effect="non-scaling-stroke" d="
  M 622.39 926.52
  A 0.37 0.37 0.0 0 0 622.76 926.89
  L 660.40 926.89
  A 0.37 0.37 0.0 0 0 660.77 926.52
  L 660.77 918.94
  A 0.37 0.37 0.0 0 0 660.40 918.57
  L 631.20 918.57
  A 0.37 0.37 0.0 0 1 630.83 918.20
  L 630.83 910.34
  A 0.37 0.37 0.0 0 1 631.20 909.97
  L 651.94 909.97
  A 0.37 0.37 0.0 0 0 652.31 909.60
  L 652.31 901.67
  A 0.37 0.37 0.0 0 0 651.94 901.30
  L 622.76 901.30
  A 0.37 0.37 0.0 0 0 622.39 901.67
  L 622.39 926.52"
/>
<path stroke="#252829" vector-effect="non-scaling-stroke" d="
  M 616.44 919.26
  L 616.44 905.76
  A 0.04 0.04 0.0 0 1 616.48 905.72
  L 616.49 905.72
  A 0.13 0.13 0.0 0 0 616.35 905.83
  C 615.88 909.22 614.28 910.62 611.59 914.07
  A 0.59 0.58 -48.6 0 0 611.63 914.84
  L 616.16 919.37
  A 0.16 0.16 0.0 0 0 616.44 919.26"
/>
<path stroke="#252829" vector-effect="non-scaling-stroke" d="
  M 684.09 908.93
  C 688.01 913.63 693.94 913.66 697.63 908.98
  A 0.29 0.29 0.0 0 0 697.34 908.51
  Q 690.96 909.90 684.33 908.53
  A 0.25 0.25 0.0 0 0 684.09 908.93"
/>
<path stroke="#8d8d8d" vector-effect="non-scaling-stroke" d="
  M 581.59 893.12
  L 581.53 905.06
  A 0.47 0.47 0.0 0 0 582.00 905.54
  L 596.45 905.61
  A 6.62 6.33 0.3 0 0 603.10 899.32
  L 603.10 899.10
  A 6.62 6.33 0.3 0 0 596.51 892.73
  L 582.06 892.66
  A 0.47 0.47 0.0 0 0 581.59 893.12"
/>
</g>
<path fill="#788c92" d="
  M 744.95 0.00
  Q 752.75 8.36 748.14 20.92
  L 736.62 21.09
  Q 733.23 16.28 734.04 9.50
  Q 734.80 3.16 739.97 0.00
  L 744.95 0.00
  Z"
/>
<path fill="#687a7f" d="
  M 769.00 0.00
  Q 777.18 8.94 772.02 20.44
  A 0.81 0.80 11.6 0 1 771.30 20.91
  L 748.14 20.92
  Q 752.75 8.36 744.95 0.00
  L 769.00 0.00
  Z"
/>
<path fill="#57666a" d="
  M 774.97 0.00
  C 783.84 2.65 784.84 13.92 780.26 20.58
  A 1.75 1.68 62.9 0 0 779.97 21.54
  L 779.97 23.37
  A 0.88 0.88 0.0 0 0 780.59 24.21
  C 790.17 27.07 793.02 37.34 786.36 44.71
  A 1.43 1.42 66.5 0 0 785.98 45.68
  L 785.98 47.80
  A 0.92 0.91 10.1 0 0 786.59 48.66
  C 795.47 51.81 799.51 60.70 792.36 68.05
  A 1.35 1.32 -23.7 0 0 791.99 68.97
  L 791.99 74.13
  A 0.92 0.92 0.0 0 0 792.54 74.97
  C 803.72 79.71 812.15 89.22 815.64 100.81
  Q 817.00 105.30 817.00 115.81
  Q 817.00 203.14 817.00 290.99
  L 804.04 290.90
  Q 803.96 208.64 804.00 126.81
  Q 804.01 112.33 802.57 106.89
  C 798.48 91.46 786.71 79.10 771.23 74.21
  Q 770.65 74.02 769.57 73.26
  Q 768.79 72.72 767.75 72.62
  Q 757.44 71.69 749.31 72.32
  Q 740.11 71.61 731.66 72.34
  Q 730.32 72.46 728.36 72.87
  Q 726.74 73.21 725.08 73.47
  Q 725.37 70.03 724.23 68.49
  L 735.90 68.01
  L 777.42 67.90
  A 0.70 0.69 7.7 0 0 778.09 67.39
  C 778.52 65.83 779.40 64.16 779.77 62.14
  Q 781.00 55.39 775.22 49.85
  A 2.88 2.86 -23.1 0 0 773.24 49.06
  L 733.66 49.07
  Q 731.68 49.02 730.91 48.10
  Q 731.51 46.35 730.22 45.21
  L 740.85 44.94
  L 773.65 44.95
  A 0.86 0.85 -74.3 0 0 774.38 44.54
  Q 778.91 37.18 775.54 29.62
  C 774.96 28.33 773.86 27.36 773.31 26.18
  A 1.97 1.96 -12.5 0 0 771.53 25.05
  L 739.59 25.05
  Q 737.86 25.10 736.79 24.10
  Q 737.50 22.83 736.62 21.09
  L 748.14 20.92
  L 771.30 20.91
  A 0.81 0.80 11.6 0 0 772.02 20.44
  Q 777.18 8.94 769.00 0.00
  L 774.97 0.00
  Z"
/>
<path fill="#788c92" d="
  M 736.79 24.10
  Q 737.86 25.10 739.59 25.05
  Q 746.04 34.86 740.85 44.94
  L 730.22 45.21
  Q 722.73 34.77 731.37 25.64
  Q 733.44 23.45 736.79 24.10
  Z"
/>
<path fill="#687a7f" d="
  M 740.85 44.94
  Q 746.04 34.86 739.59 25.05
  L 771.53 25.05
  A 1.97 1.96 -12.5 0 1 773.31 26.18
  C 773.86 27.36 774.96 28.33 775.54 29.62
  Q 778.91 37.18 774.38 44.54
  A 0.86 0.85 -74.3 0 1 773.65 44.95
  L 740.85 44.94
  Z"
/>
<path fill="#788c92" d="
  M 730.91 48.10
  Q 731.68 49.02 733.66 49.07
  Q 739.61 57.48 735.90 68.01
  L 724.23 68.49
  Q 719.74 63.46 721.37 56.84
  C 722.34 52.91 726.15 47.25 730.91 48.10
  Z"
/>
<path fill="#687a7f" d="
  M 735.90 68.01
  Q 739.61 57.48 733.66 49.07
  L 773.24 49.06
  A 2.88 2.86 -23.1 0 1 775.22 49.85
  Q 781.00 55.39 779.77 62.14
  C 779.40 64.16 778.52 65.83 778.09 67.39
  A 0.70 0.69 7.7 0 1 777.42 67.90
  L 735.90 68.01
  Z"
/>
<path fill="#788c92" d="
  M 749.31 72.32
  Q 736.41 75.14 727.52 82.28
  Q 715.23 92.14 711.50 106.85
  Q 710.00 112.76 710.00 126.34
  Q 709.99 208.59 709.97 290.97
  L 697.01 290.65
  Q 696.97 200.84 697.03 111.44
  Q 697.03 105.41 698.24 101.30
  Q 704.23 80.87 725.08 73.47
  Q 726.74 73.21 728.36 72.87
  Q 730.32 72.46 731.66 72.34
  Q 740.11 71.61 749.31 72.32
  Z"
/>
<path fill="#687a7f" d="
  M 804.04 290.90
  L 709.97 290.97
  Q 709.99 208.59 710.00 126.34
  Q 710.00 112.76 711.50 106.85
  Q 715.23 92.14 727.52 82.28
  Q 736.41 75.14 749.31 72.32
  Q 757.44 71.69 767.75 72.62
  Q 768.79 72.72 769.57 73.26
  Q 770.65 74.02 771.23 74.21
  C 786.71 79.10 798.48 91.46 802.57 106.89
  Q 804.01 112.33 804.00 126.81
  Q 803.96 208.64 804.04 290.90
  Z"
/>
<path fill="#61598e" d="
  M 709.97 290.97
  L 804.04 290.90
  L 817.00 290.99
  Q 909.39 291.01 1001.75 290.98
  Q 1005.84 290.98 1009.93 292.11
  C 1007.65 298.78 1003.66 304.91 998.71 313.19
  Q 998.20 314.05 997.33 316.98
  Q 991.27 316.06 988.25 316.07
  Q 584.75 316.10 345.25 316.08
  Q 341.69 316.08 338.27 316.99
  A 0.99 0.93 -40.1 0 1 337.71 316.96
  Q 337.22 316.77 337.46 316.67
  L 323.57 292.64
  Q 328.52 291.00 333.50 291.00
  Q 514.96 291.00 696.41 291.00
  A 0.40 0.38 -58.0 0 0 696.60 290.95
  Q 696.96 290.78 697.01 290.65
  L 709.97 290.97
  Z"
/>
<path fill="#544d7c" d="
  M 1058.54 316.19
  Q 1058.66 316.35 1058.97 316.49
  C 1081.25 326.45 1103.81 333.85 1126.33 340.58
  Q 1142.55 345.43 1160.86 349.71
  C 1194.10 357.47 1230.07 365.60 1262.73 375.95
  Q 1262.81 375.97 1271.72 378.39
  Q 1280.17 380.67 1287.42 385.58
  Q 1303.88 396.62 1306.90 415.16
  Q 1310.06 434.53 1313.20 453.83
  A 0.34 0.32 -83.7 0 0 1313.39 454.08
  Q 1313.59 454.17 1313.65 454.03
  Q 1313.38 455.02 1313.45 455.50
  Q 1316.04 472.68 1318.40 489.62
  Q 1320.95 507.93 1322.97 525.37
  Q 1323.34 528.61 1323.59 529.86
  C 1324.14 532.62 1323.77 534.79 1324.41 537.68
  Q 1325.01 540.42 1325.04 544.20
  A 8.67 8.12 40.1 0 0 1325.25 545.97
  C 1326.10 549.58 1325.77 553.42 1326.47 556.61
  Q 1326.99 558.96 1326.93 560.91
  C 1326.83 564.12 1327.93 567.60 1327.95 570.27
  C 1327.96 572.41 1327.95 574.39 1328.45 577.03
  C 1329.17 580.86 1328.76 584.41 1329.47 588.29
  Q 1330.01 591.27 1330.01 597.19
  A 9.17 8.71 40.5 0 0 1330.20 599.02
  Q 1331.09 603.33 1330.99 609.34
  A 14.35 13.74 41.7 0 0 1331.21 612.13
  C 1332.23 617.91 1331.63 624.08 1332.51 629.60
  C 1333.31 634.67 1332.76 641.48 1333.40 647.12
  Q 1333.97 652.11 1333.95 659.11
  C 1333.93 666.45 1334.60 674.12 1335.00 681.63
  L 1335.00 754.73
  C 1334.65 761.98 1333.91 769.46 1333.94 776.42
  Q 1333.97 782.68 1333.43 786.67
  C 1332.75 791.61 1333.28 797.62 1332.55 802.05
  C 1331.77 806.78 1332.29 811.85 1331.47 816.00
  C 1330.67 820.05 1331.26 824.97 1330.21 829.03
  A 6.60 6.44 -38.6 0 0 1330.01 830.63
  Q 1330.01 835.49 1329.55 837.53
  C 1328.73 841.18 1329.24 845.16 1328.21 848.57
  A 4.76 4.74 -37.1 0 0 1328.01 850.00
  C 1328.09 853.50 1327.27 856.58 1326.90 860.07
  Q 1326.57 863.27 1325.17 873.77
  Q 1323.86 883.67 1322.74 890.04
  Q 1319.67 907.41 1304.64 919.40
  Q 1296.17 926.15 1292.56 928.79
  Q 1278.94 938.72 1260.96 947.48
  C 1229.70 962.71 1195.21 973.61 1161.26 981.76
  C 1133.02 988.53 1101.13 996.93 1078.53 1003.05
  Q 1075.04 1003.99 1070.00 1006.00
  L 1055.85 981.07
  Q 1107.52 966.96 1132.75 961.43
  C 1168.07 953.69 1204.13 943.45 1236.81 928.87
  Q 1253.97 921.22 1269.30 911.18
  C 1273.48 908.45 1277.70 904.91 1281.17 902.42
  C 1288.64 897.07 1294.21 891.05 1298.02 882.98
  Q 1300.10 878.57 1301.22 871.46
  C 1312.61 799.63 1314.99 726.10 1311.53 653.75
  C 1308.05 581.02 1299.09 508.41 1286.30 435.88
  Q 1284.43 425.32 1282.35 421.20
  C 1276.35 409.30 1264.49 400.69 1251.73 397.63
  Q 1244.25 395.83 1242.00 395.04
  Q 1236.76 393.19 1226.13 390.35
  C 1199.79 383.30 1167.32 375.93 1143.68 370.66
  C 1122.80 366.01 1103.80 360.38 1083.16 353.88
  Q 1046.57 342.36 1013.49 323.98
  Q 1005.62 319.60 997.33 316.98
  Q 998.20 314.05 998.71 313.19
  C 1003.66 304.91 1007.65 298.78 1009.93 292.11
  Q 1017.59 294.71 1025.51 299.26
  Q 1040.22 307.70 1057.48 315.90
  Q 1057.66 315.98 1058.03 316.01
  Q 1058.33 316.03 1058.54 316.19
  Z"
/>
<path fill="#776daf" d="
  M 323.57 292.64
  L 337.46 316.67
  Q 337.34 316.82 337.25 316.93
  A 0.66 0.64 -73.9 0 1 336.88 317.14
  Q 332.59 317.97 330.00 319.25
  Q 320.37 324.01 302.74 333.19
  Q 290.46 339.59 269.96 347.20
  Q 253.46 353.31 228.34 360.77
  Q 210.13 366.17 190.18 370.69
  C 158.02 377.97 128.91 384.46 102.27 391.86
  Q 94.68 393.97 92.02 394.98
  Q 90.80 395.44 81.93 397.71
  Q 65.02 402.04 54.80 415.99
  C 52.22 419.51 49.85 424.47 49.10 428.52
  Q 32.21 519.74 24.92 613.13
  Q 22.41 645.34 21.45 681.00
  C 19.97 736.67 22.02 792.14 29.10 847.00
  Q 30.83 860.39 33.79 876.78
  A 3.92 3.78 -63.9 0 0 34.08 877.68
  Q 36.10 882.15 36.32 885.72
  L 17.45 905.35
  C 14.11 900.22 12.49 893.35 11.65 887.92
  Q 6.40 854.16 3.89 820.88
  Q 3.65 817.64 3.29 814.67
  Q 2.85 810.94 3.01 807.73
  A 9.41 9.28 -49.8 0 0 2.82 805.26
  Q 1.76 800.23 2.01 792.22
  A 12.06 11.96 41.7 0 0 1.88 790.09
  Q 0.59 781.54 1.08 771.27
  A 2.55 1.00 88.1 0 0 1.07 770.91
  L 0.00 757.78
  L 0.00 678.51
  Q 0.28 674.01 0.67 669.51
  C 1.30 662.16 0.70 654.31 1.45 647.93
  Q 2.08 642.60 2.05 637.05
  Q 2.02 630.42 2.86 626.20
  A 9.95 9.86 -40.5 0 0 3.05 623.90
  Q 2.77 616.89 3.82 611.78
  A 10.76 10.49 50.4 0 0 4.02 609.35
  Q 3.82 603.09 4.80 598.64
  A 10.61 10.60 50.3 0 0 5.04 596.05
  Q 4.85 590.43 5.80 586.47
  A 6.37 6.18 51.6 0 0 5.97 584.78
  Q 5.84 579.54 6.56 576.63
  C 7.39 573.32 6.64 569.17 7.50 566.02
  C 8.36 562.88 7.62 559.63 8.42 556.81
  C 9.44 553.22 8.62 548.88 9.81 545.34
  A 4.12 3.96 55.2 0 0 10.01 544.08
  C 10.02 542.05 9.98 540.03 10.53 537.68
  C 11.29 534.38 10.75 531.31 11.69 528.04
  A 8.38 8.34 52.1 0 0 12.00 525.51
  Q 11.91 522.91 12.42 520.88
  C 13.26 517.52 12.83 514.46 13.77 511.25
  A 6.15 5.88 54.5 0 0 14.00 509.67
  Q 14.04 506.31 14.21 505.74
  Q 15.05 502.97 15.07 500.34
  C 15.08 497.76 16.28 495.84 15.95 493.75
  Q 15.80 492.81 16.66 489.10
  C 17.22 486.73 16.92 484.51 17.72 482.06
  A 5.41 5.32 -36.7 0 0 17.99 480.32
  Q 17.97 477.28 18.55 475.48
  C 19.27 473.27 18.76 471.32 19.36 469.34
  Q 20.13 466.84 20.07 465.04
  C 20.01 462.88 21.04 461.35 21.01 459.23
  Q 20.99 456.86 21.97 453.74
  Q 22.42 452.30 21.84 449.72
  Q 23.81 441.30 24.87 433.95
  Q 25.90 426.88 27.05 419.82
  Q 28.57 410.59 30.44 405.97
  Q 35.73 392.95 47.95 385.09
  Q 54.85 380.59 59.38 379.37
  Q 72.23 375.88 85.82 371.58
  Q 91.05 369.93 116.37 363.40
  Q 127.98 360.41 175.96 349.08
  Q 195.69 344.42 210.54 339.86
  Q 228.13 334.45 244.60 328.81
  Q 260.26 323.45 275.84 316.24
  Q 276.84 316.12 278.06 315.56
  Q 287.95 310.96 297.48 305.67
  Q 310.60 298.39 319.20 294.18
  Q 321.01 293.29 323.57 292.64
  Z"
/>
<path fill="#b1b6b7" d="
  M 275.84 316.24
  Q 260.26 323.45 244.60 328.81
  Q 228.13 334.45 210.54 339.86
  Q 195.69 344.42 175.96 349.08
  Q 127.98 360.41 116.37 363.40
  Q 91.05 369.93 85.82 371.58
  Q 72.23 375.88 59.38 379.37
  Q 54.85 380.59 47.95 385.09
  Q 45.24 378.42 45.39 372.25
  Q 45.58 363.91 45.04 358.40
  Q 52.20 352.18 61.49 349.21
  Q 116.73 331.54 175.69 323.65
  Q 194.79 321.09 196.23 321.08
  Q 198.01 321.06 202.09 320.37
  C 205.17 319.85 207.95 320.19 211.27 319.56
  Q 214.51 318.94 219.50 318.98
  A 8.89 8.79 -50.5 0 0 221.46 318.78
  Q 224.34 318.14 229.64 318.06
  C 235.43 317.96 240.38 317.02 246.61 317.05
  Q 249.82 317.07 255.38 316.60
  Q 265.30 315.76 275.84 316.24
  Z"
/>
<path fill="#695f9e" d="
  M 997.33 316.98
  Q 1005.62 319.60 1013.49 323.98
  Q 1046.57 342.36 1083.16 353.88
  C 1103.80 360.38 1122.80 366.01 1143.68 370.66
  C 1167.32 375.93 1199.79 383.30 1226.13 390.35
  Q 1236.76 393.19 1242.00 395.04
  Q 1244.25 395.83 1251.73 397.63
  C 1264.49 400.69 1276.35 409.30 1282.35 421.20
  Q 1284.43 425.32 1286.30 435.88
  C 1299.09 508.41 1308.05 581.02 1311.53 653.75
  C 1314.99 726.10 1312.61 799.63 1301.22 871.46
  Q 1300.10 878.57 1298.02 882.98
  C 1294.21 891.05 1288.64 897.07 1281.17 902.42
  C 1277.70 904.91 1273.48 908.45 1269.30 911.18
  Q 1253.97 921.22 1236.81 928.87
  C 1204.13 943.45 1168.07 953.69 1132.75 961.43
  Q 1107.52 966.96 1055.85 981.07
  Q 1046.42 988.33 1035.24 993.23
  Q 1018.22 1000.70 1001.98 1005.55
  C 964.08 1016.87 925.37 1023.79 885.50 1029.06
  Q 856.26 1032.93 828.50 1035.34
  C 754.78 1041.76 679.78 1043.12 605.13 1041.12
  Q 546.65 1039.55 484.82 1033.34
  Q 431.95 1028.03 383.01 1018.26
  C 353.20 1012.31 321.68 1004.12 294.38 991.15
  Q 289.39 988.78 279.07 982.14
  C 277.60 981.20 276.49 980.89 275.41 980.30
  A 4.10 3.75 -21.0 0 0 274.54 979.96
  Q 215.36 964.66 202.24 961.71
  C 159.04 952.02 122.09 941.54 85.55 923.28
  C 71.58 916.30 59.43 908.08 47.26 898.00
  Q 41.92 893.59 37.86 886.63
  Q 37.35 885.74 36.32 885.72
  Q 36.10 882.15 34.08 877.68
  A 3.92 3.78 -63.9 0 1 33.79 876.78
  Q 30.83 860.39 29.10 847.00
  C 22.02 792.14 19.97 736.67 21.45 681.00
  Q 22.41 645.34 24.92 613.13
  Q 32.21 519.74 49.10 428.52
  C 49.85 424.47 52.22 419.51 54.80 415.99
  Q 65.02 402.04 81.93 397.71
  Q 90.80 395.44 92.02 394.98
  Q 94.68 393.97 102.27 391.86
  C 128.91 384.46 158.02 377.97 190.18 370.69
  Q 210.13 366.17 228.34 360.77
  Q 253.46 353.31 269.96 347.20
  Q 290.46 339.59 302.74 333.19
  Q 320.37 324.01 330.00 319.25
  Q 332.59 317.97 336.88 317.14
  A 0.66 0.64 -73.9 0 0 337.25 316.93
  Q 337.34 316.82 337.46 316.67
  Q 337.22 316.77 337.71 316.96
  A 0.99 0.93 -40.1 0 0 338.27 316.99
  Q 341.69 316.08 345.25 316.08
  Q 584.75 316.10 988.25 316.07
  Q 991.27 316.06 997.33 316.98
  Z
  M 667.47 977.00
  C 736.31 977.00 807.48 972.52 876.53 960.87
  Q 913.20 954.68 949.45 943.95
  Q 977.57 935.63 1000.99 922.29
  Q 1008.69 917.90 1011.66 915.20
  C 1018.30 909.18 1024.45 900.89 1025.00 891.27
  Q 1025.10 889.50 1024.85 883.50
  C 1016.26 673.99 1011.85 574.02 1005.70 434.00
  C 1004.91 416.00 991.63 401.96 974.49 398.09
  Q 967.72 396.56 964.86 395.81
  C 932.52 387.37 899.05 383.00 863.46 379.64
  Q 821.56 375.69 787.26 373.91
  C 748.00 371.86 708.11 371.02 667.52 371.02
  C 626.93 371.02 587.04 371.85 547.78 373.89
  Q 513.48 375.66 471.58 379.61
  C 435.99 382.96 402.51 387.32 370.17 395.76
  Q 367.31 396.51 360.54 398.04
  C 343.40 401.90 330.12 415.94 329.33 433.94
  C 323.15 573.96 318.73 673.93 310.10 883.44
  Q 309.85 889.44 309.95 891.21
  C 310.50 900.83 316.65 909.12 323.28 915.14
  Q 326.25 917.84 333.95 922.23
  Q 357.37 935.58 385.49 943.90
  Q 421.74 954.64 458.41 960.83
  C 527.46 972.50 598.63 976.99 667.47 977.00
  Z
  M 1124.98 419.01
  A 13.98 13.98 0.0 0 0 1111.00 405.03
  A 13.98 13.98 0.0 0 0 1097.02 419.01
  A 13.98 13.98 0.0 0 0 1111.00 432.99
  A 13.98 13.98 0.0 0 0 1124.98 419.01
  Z
  M 188.06 576.28
  Q 187.91 565.58 188.08 539.54
  Q 188.14 529.37 186.80 526.71
  Q 183.91 520.97 175.79 520.98
  Q 167.93 521.00 142.12 520.98
  C 136.51 520.98 133.35 521.99 130.43 526.26
  Q 128.80 528.66 128.98 536.06
  Q 129.00 536.59 129.00 576.42
  A 0.58 0.57 90.0 0 1 128.43 577.00
  Q 109.66 576.99 89.48 576.98
  C 83.07 576.98 79.70 577.41 76.39 582.37
  Q 74.95 584.52 74.97 590.64
  Q 75.02 614.80 74.98 623.39
  C 74.96 628.64 76.27 632.01 80.36 634.66
  Q 82.53 636.06 89.49 636.04
  Q 124.59 635.95 128.39 636.01
  A 0.61 0.60 -89.5 0 1 128.98 636.62
  Q 129.02 648.10 128.99 676.85
  C 128.98 683.02 129.65 686.61 134.45 689.68
  Q 136.60 691.06 143.91 691.04
  Q 171.29 690.97 173.23 691.01
  C 179.53 691.13 183.48 690.55 186.59 685.72
  Q 188.07 683.44 188.05 675.48
  Q 187.96 642.93 188.02 636.51
  A 0.51 0.51 0.0 0 1 188.53 636.00
  Q 215.24 636.02 231.97 635.99
  Q 240.29 635.97 242.88 627.19
  A 3.30 3.22 -39.8 0 0 243.01 625.93
  Q 242.99 625.75 243.03 590.99
  Q 243.04 585.33 242.22 583.61
  C 239.06 576.92 234.16 576.91 226.13 576.95
  Q 197.06 577.09 188.71 576.93
  A 0.66 0.66 0.0 0 1 188.06 576.28
  Z
  M 1280.99 584.00
  A 44.49 43.98 0.0 0 0 1236.50 540.02
  A 44.49 43.98 0.0 0 0 1192.01 584.00
  A 44.49 43.98 0.0 0 0 1236.50 627.98
  A 44.49 43.98 0.0 0 0 1280.99 584.00
  Z
  M 1156.99 627.00
  A 44.49 43.98 0.0 0 0 1112.50 583.02
  A 44.49 43.98 0.0 0 0 1068.01 627.00
  A 44.49 43.98 0.0 0 0 1112.50 670.98
  A 44.49 43.98 0.0 0 0 1156.99 627.00
  Z
  M 1215.7793 750.2588
  A 5.52 5.52 0.0 0 0 1209.1447 746.1451
  L 1073.2915 778.0092
  A 5.52 5.52 0.0 0 0 1069.1778 784.6439
  L 1069.2007 784.7412
  A 5.52 5.52 0.0 0 0 1075.8353 788.8549
  L 1211.6885 756.9908
  A 5.52 5.52 0.0 0 0 1215.8022 750.3561
  L 1215.7793 750.2588
  Z
  M 275.2146 803.2515
  A 24.37 24.37 0.0 0 0 257.5674 773.6480
  L 162.7169 749.6471
  A 24.37 24.37 0.0 0 0 133.1133 767.2943
  L 132.7454 768.7485
  A 24.37 24.37 0.0 0 0 150.3926 798.3520
  L 245.2431 822.3529
  A 24.37 24.37 0.0 0 0 274.8467 804.7057
  L 275.2146 803.2515
  Z
  M 1215.7793 778.2588
  A 5.52 5.52 0.0 0 0 1209.1447 774.1451
  L 1073.2915 806.0092
  A 5.52 5.52 0.0 0 0 1069.1778 812.6439
  L 1069.2007 812.7412
  A 5.52 5.52 0.0 0 0 1075.8353 816.8549
  L 1211.6885 784.9908
  A 5.52 5.52 0.0 0 0 1215.8022 778.3561
  L 1215.7793 778.2588
  Z
  M 1215.7793 806.2588
  A 5.52 5.52 0.0 0 0 1209.1447 802.1451
  L 1073.2915 834.0092
  A 5.52 5.52 0.0 0 0 1069.1778 840.6439
  L 1069.2007 840.7412
  A 5.52 5.52 0.0 0 0 1075.8353 844.8549
  L 1211.6885 812.9908
  A 5.52 5.52 0.0 0 0 1215.8022 806.3561
  L 1215.7793 806.2588
  Z
  M 275.1653 882.3684
  A 24.39 24.39 0.0 0 0 257.5554 852.7098
  L 162.8438 828.5681
  A 24.39 24.39 0.0 0 0 133.1852 846.1781
  L 132.8147 847.6316
  A 24.39 24.39 0.0 0 0 150.4246 877.2902
  L 245.1362 901.4319
  A 24.39 24.39 0.0 0 0 274.7948 883.8219
  L 275.1653 882.3684
  Z
  M 1215.7793 834.2588
  A 5.52 5.52 0.0 0 0 1209.1447 830.1451
  L 1073.2915 862.0092
  A 5.52 5.52 0.0 0 0 1069.1778 868.6439
  L 1069.2007 868.7412
  A 5.52 5.52 0.0 0 0 1075.8353 872.8549
  L 1211.6885 840.9908
  A 5.52 5.52 0.0 0 0 1215.8022 834.3561
  L 1215.7793 834.2588
  Z
  M 1215.7793 862.2688
  A 5.52 5.52 0.0 0 0 1209.1447 858.1551
  L 1073.2915 890.0192
  A 5.52 5.52 0.0 0 0 1069.1778 896.6539
  L 1069.2007 896.7512
  A 5.52 5.52 0.0 0 0 1075.8353 900.8649
  L 1211.6885 869.0008
  A 5.52 5.52 0.0 0 0 1215.8022 862.3661
  L 1215.7793 862.2688
  Z"
/>
<path fill="#b1b6b7" d="
  M 1292.49 358.30
  C 1292.62 362.46 1292.85 366.87 1291.90 370.71
  C 1291.16 373.69 1291.08 376.48 1289.96 379.54
  Q 1288.84 382.56 1287.42 385.58
  Q 1280.17 380.67 1271.72 378.39
  Q 1262.81 375.97 1262.73 375.95
  C 1230.07 365.60 1194.10 357.47 1160.86 349.71
  Q 1142.55 345.43 1126.33 340.58
  C 1103.81 333.85 1081.25 326.45 1058.97 316.49
  Q 1058.66 316.35 1058.54 316.19
  Q 1138.68 317.26 1217.01 333.44
  C 1236.91 337.55 1256.25 342.92 1275.53 348.99
  Q 1285.05 351.99 1292.49 358.30
  Z"
/>
<path fill="#95959b" d="
  M 1313.65 454.03
  Q 1313.59 454.17 1313.39 454.08
  A 0.34 0.32 -83.7 0 1 1313.20 453.83
  Q 1310.06 434.53 1306.90 415.16
  Q 1303.88 396.62 1287.42 385.58
  Q 1288.84 382.56 1289.96 379.54
  C 1291.08 376.48 1291.16 373.69 1291.90 370.71
  C 1292.85 366.87 1292.62 362.46 1292.49 358.30
  C 1303.59 367.43 1314.11 382.39 1314.81 397.13
  Q 1315.16 404.38 1315.40 406.83
  C 1316.47 417.83 1316.04 429.00 1315.96 440.50
  Q 1315.91 448.08 1313.65 454.03
  Z"
/>
<path fill="#95959b" d="
  M 45.04 358.40
  Q 45.58 363.91 45.39 372.25
  Q 45.24 378.42 47.95 385.09
  Q 35.73 392.95 30.44 405.97
  Q 28.57 410.59 27.05 419.82
  Q 25.90 426.88 24.87 433.95
  Q 23.81 441.30 21.84 449.72
  Q 20.34 433.44 21.31 417.75
  Q 21.84 409.11 21.98 403.91
  Q 22.23 394.76 23.52 390.20
  C 27.12 377.50 34.66 366.75 45.04 358.40
  Z"
/>
<path fill="#303538" d="
  M 667.52 371.02
  C 708.11 371.02 748.00 371.86 787.26 373.91
  Q 821.56 375.69 863.46 379.64
  C 899.05 383.00 932.52 387.37 964.86 395.81
  Q 967.72 396.56 974.49 398.09
  C 991.63 401.96 1004.91 416.00 1005.70 434.00
  C 1011.85 574.02 1016.26 673.99 1024.85 883.50
  Q 1025.10 889.50 1025.00 891.27
  C 1024.45 900.89 1018.30 909.18 1011.66 915.20
  Q 1008.69 917.90 1000.99 922.29
  Q 977.57 935.63 949.45 943.95
  Q 913.20 954.68 876.53 960.87
  C 807.48 972.52 736.31 977.00 667.47 977.00
  C 598.63 976.99 527.46 972.50 458.41 960.83
  Q 421.74 954.64 385.49 943.90
  Q 357.37 935.58 333.95 922.23
  Q 326.25 917.84 323.28 915.14
  C 316.65 909.12 310.50 900.83 309.95 891.21
  Q 309.85 889.44 310.10 883.44
  C 318.73 673.93 323.15 573.96 329.33 433.94
  C 330.12 415.94 343.40 401.90 360.54 398.04
  Q 367.31 396.51 370.17 395.76
  C 402.51 387.32 435.99 382.96 471.58 379.61
  Q 513.48 375.66 547.78 373.89
  C 587.04 371.85 626.93 371.02 667.52 371.02
  Z
  M 973.00 440.07
  A 10.07 10.07 0.0 0 0 962.93 430.00
  L 372.07 430.00
  A 10.07 10.07 0.0 0 0 362.00 440.07
  L 362.00 826.93
  A 10.07 10.07 0.0 0 0 372.07 837.00
  L 962.93 837.00
  A 10.07 10.07 0.0 0 0 973.00 826.93
  L 973.00 440.07
  Z
  M 615.75 890.73
  Q 615.86 889.38 613.58 886.59
  Q 609.27 881.31 603.90 879.28
  Q 600.33 877.92 591.80 878.09
  Q 591.18 878.10 577.52 878.12
  C 570.23 878.13 567.19 879.27 567.16 887.00
  Q 567.02 919.17 567.26 926.22
  C 567.52 933.69 575.01 933.20 580.53 932.78
  C 588.21 932.18 587.19 927.11 587.70 921.27
  A 0.30 0.30 0.0 0 1 588.21 921.09
  Q 592.87 925.69 597.22 930.02
  Q 599.97 932.75 603.85 932.83
  C 607.70 932.91 615.74 933.51 617.95 931.34
  A 0.74 0.73 -50.9 0 1 618.86 931.24
  Q 621.20 932.74 623.64 932.82
  Q 628.37 932.97 659.96 932.83
  Q 662.55 932.82 664.93 930.86
  C 667.45 928.78 667.21 924.51 667.07 921.53
  A 0.31 0.31 0.0 0 1 667.63 921.33
  Q 677.40 934.05 693.38 932.87
  C 702.79 932.17 710.87 927.09 715.58 919.16
  Q 715.99 918.48 716.00 918.42
  Q 716.11 917.57 716.15 917.53
  A 0.29 0.28 61.0 0 1 716.65 917.68
  Q 716.66 917.72 716.56 924.75
  C 716.45 933.68 724.03 933.13 730.25 932.80
  C 735.96 932.50 737.31 928.72 737.28 923.30
  Q 737.25 917.05 737.18 915.50
  A 0.24 0.23 25.1 0 1 737.60 915.35
  Q 742.49 921.70 748.79 929.40
  Q 750.47 931.46 751.85 932.01
  C 754.82 933.18 758.74 933.02 762.03 932.79
  Q 768.77 932.34 768.84 925.37
  Q 768.97 912.62 768.86 885.40
  C 768.85 881.88 767.22 879.03 763.33 878.46
  C 757.62 877.61 749.14 877.12 748.68 885.00
  Q 748.58 886.79 748.72 895.82
  A 0.23 0.23 0.0 0 1 748.31 895.96
  Q 743.66 889.90 736.26 881.02
  C 733.31 877.47 727.85 877.80 723.46 878.23
  Q 716.23 878.93 716.57 886.80
  Q 716.76 891.21 716.69 891.69
  A 0.09 0.09 0.0 0 1 716.53 891.73
  L 711.44 884.48
  A 1.76 1.69 -3.3 0 0 710.83 883.96
  Q 705.18 881.23 701.88 885.25
  A 0.26 0.26 0.0 0 1 701.42 885.11
  Q 700.59 877.89 692.72 878.05
  C 686.98 878.17 681.19 877.78 680.60 885.14
  A 0.25 0.25 0.0 0 1 680.17 885.29
  C 675.88 880.68 670.01 883.06 667.55 888.25
  A 0.20 0.20 0.0 0 1 667.17 888.16
  Q 667.19 885.45 666.82 883.45
  C 666.12 879.62 662.24 878.11 658.95 878.10
  Q 629.07 878.09 627.63 878.08
  C 621.43 878.03 616.43 878.68 616.44 885.81
  Q 616.45 890.97 616.41 891.01
  A 0.38 0.38 0.0 0 1 615.75 890.73
  Z"
/>
<circle fill="#58c855" cx="1111.00" cy="419.01" r="13.98"/>
<rect fill="#aaaca2" x="362.00" y="430.00" width="611.00" height="407.00" rx="10.07"/>
<path fill="#b1b6b7" d="
  M 188.71 576.93
  Q 197.06 577.09 226.13 576.95
  C 234.16 576.91 239.06 576.92 242.22 583.61
  Q 243.04 585.33 243.03 590.99
  Q 242.99 625.75 243.01 625.93
  A 3.30 3.22 -39.8 0 1 242.88 627.19
  Q 240.29 635.97 231.97 635.99
  Q 215.24 636.02 188.53 636.00
  A 0.51 0.51 0.0 0 0 188.02 636.51
  Q 187.96 642.93 188.05 675.48
  Q 188.07 683.44 186.59 685.72
  C 183.48 690.55 179.53 691.13 173.23 691.01
  Q 171.29 690.97 143.91 691.04
  Q 136.60 691.06 134.45 689.68
  C 129.65 686.61 128.98 683.02 128.99 676.85
  Q 129.02 648.10 128.98 636.62
  A 0.61 0.60 -89.5 0 0 128.39 636.01
  Q 124.59 635.95 89.49 636.04
  Q 82.53 636.06 80.36 634.66
  C 76.27 632.01 74.96 628.64 74.98 623.39
  Q 75.02 614.80 74.97 590.64
  Q 74.95 584.52 76.39 582.37
  C 79.70 577.41 83.07 576.98 89.48 576.98
  Q 109.66 576.99 128.43 577.00
  A 0.58 0.57 -90.0 0 0 129.00 576.42
  Q 129.00 536.59 128.98 536.06
  Q 128.80 528.66 130.43 526.26
  C 133.35 521.99 136.51 520.98 142.12 520.98
  Q 167.93 521.00 175.79 520.98
  Q 183.91 520.97 186.80 526.71
  Q 188.14 529.37 188.08 539.54
  Q 187.91 565.58 188.06 576.28
  A 0.66 0.66 0.0 0 0 188.71 576.93
  Z
  M 143.99 557.08
  A 0.55 0.55 0.0 0 0 144.46 557.92
  L 172.37 557.96
  A 0.55 0.55 0.0 0 0 172.84 557.13
  L 158.93 533.71
  A 0.55 0.55 0.0 0 0 157.99 533.71
  L 143.99 557.08
  Z
  M 179.00 606.50
  A 20.49 20.49 0.0 0 0 158.51 586.01
  A 20.49 20.49 0.0 0 0 138.02 606.50
  A 20.49 20.49 0.0 0 0 158.51 626.99
  A 20.49 20.49 0.0 0 0 179.00 606.50
  Z
  M 207.94 591.25
  A 0.61 0.61 0.0 0 0 207.01 591.78
  L 207.01 619.16
  A 0.61 0.61 0.0 0 0 207.94 619.69
  L 230.42 605.99
  A 0.61 0.61 0.0 0 0 230.42 604.95
  L 207.94 591.25
  Z
  M 110.08 619.70
  A 0.61 0.61 0.0 0 0 111.00 619.18
  L 111.00 591.76
  A 0.61 0.61 0.0 0 0 110.08 591.24
  L 87.61 604.95
  A 0.61 0.61 0.0 0 0 87.61 605.99
  L 110.08 619.70
  Z
  M 172.89 654.93
  A 0.57 0.57 0.0 0 0 172.40 654.07
  L 144.54 654.07
  A 0.57 0.57 0.0 0 0 144.05 654.93
  L 157.98 678.28
  A 0.57 0.57 0.0 0 0 158.96 678.28
  L 172.89 654.93
  Z"
/>
<path fill="#95959b" d="
  M 143.99 557.08
  L 157.99 533.71
  A 0.55 0.55 0.0 0 1 158.93 533.71
  L 172.84 557.13
  A 0.55 0.55 0.0 0 1 172.37 557.96
  L 144.46 557.92
  A 0.55 0.55 0.0 0 1 143.99 557.08
  Z"
/>
<ellipse fill="#b1b6b7" cx="1236.50" cy="584.00" rx="44.49" ry="43.98"/>
<ellipse fill="#b1b6b7" cx="1112.50" cy="627.00" rx="44.49" ry="43.98"/>
<circle fill="#95959b" cx="158.51" cy="606.50" r="20.49"/>
<path fill="#95959b" d="
  M 207.94 591.25
  L 230.42 604.95
  A 0.61 0.61 0.0 0 1 230.42 605.99
  L 207.94 619.69
  A 0.61 0.61 0.0 0 1 207.01 619.16
  L 207.01 591.78
  A 0.61 0.61 0.0 0 1 207.94 591.25
  Z"
/>
<path fill="#95959b" d="
  M 110.08 619.70
  L 87.61 605.99
  A 0.61 0.61 0.0 0 1 87.61 604.95
  L 110.08 591.24
  A 0.61 0.61 0.0 0 1 111.00 591.76
  L 111.00 619.18
  A 0.61 0.61 0.0 0 1 110.08 619.70
  Z"
/>
<path fill="#95959b" d="
  M 172.89 654.93
  L 158.96 678.28
  A 0.57 0.57 0.0 0 1 157.98 678.28
  L 144.05 654.93
  A 0.57 0.57 0.0 0 1 144.54 654.07
  L 172.40 654.07
  A 0.57 0.57 0.0 0 1 172.89 654.93
  Z"
/>
<rect fill="#544d7c" x="-75.29" y="-5.57" transform="translate(1142.49,767.50) rotate(-13.2)" width="150.58" height="11.14" rx="5.52"/>
<path fill="#544d7c" d="
  M 274.8467 804.7057
  A 24.37 24.37 0.0 0 1 245.2431 822.3529
  L 150.3926 798.3520
  A 24.37 24.37 0.0 0 1 132.7454 768.7485
  L 133.1133 767.2943
  A 24.37 24.37 0.0 0 1 162.7169 749.6471
  L 257.5674 773.6480
  A 24.37 24.37 0.0 0 1 275.2146 803.2515
  L 274.8467 804.7057
  Z
  M 271.98 798.50
  A 20.48 20.48 0.0 0 0 251.50 778.02
  A 20.48 20.48 0.0 0 0 231.02 798.50
  A 20.48 20.48 0.0 0 0 251.50 818.98
  A 20.48 20.48 0.0 0 0 271.98 798.50
  Z"
/>
<rect fill="#544d7c" x="-75.29" y="-5.57" transform="translate(1142.49,795.50) rotate(-13.2)" width="150.58" height="11.14" rx="5.52"/>
<circle fill="#b1b6b7" cx="251.50" cy="798.50" r="20.48"/>
<rect fill="#544d7c" x="-75.29" y="-5.57" transform="translate(1142.49,823.50) rotate(-13.2)" width="150.58" height="11.14" rx="5.52"/>
<path fill="#544d7c" d="
  M 274.7948 883.8219
  A 24.39 24.39 0.0 0 1 245.1362 901.4319
  L 150.4246 877.2902
  A 24.39 24.39 0.0 0 1 132.8147 847.6316
  L 133.1852 846.1781
  A 24.39 24.39 0.0 0 1 162.8438 828.5681
  L 257.5554 852.7098
  A 24.39 24.39 0.0 0 1 275.1653 882.3684
  L 274.7948 883.8219
  Z
  M 271.98 876.50
  A 20.48 20.48 0.0 0 0 251.50 856.02
  A 20.48 20.48 0.0 0 0 231.02 876.50
  A 20.48 20.48 0.0 0 0 251.50 896.98
  A 20.48 20.48 0.0 0 0 271.98 876.50
  Z"
/>
<rect fill="#544d7c" x="-75.29" y="-5.57" transform="translate(1142.49,851.50) rotate(-13.2)" width="150.58" height="11.14" rx="5.52"/>
<circle fill="#b1b6b7" cx="251.50" cy="876.50" r="20.48"/>
<rect fill="#544d7c" x="-75.29" y="-5.57" transform="translate(1142.49,879.51) rotate(-13.2)" width="150.58" height="11.14" rx="5.52"/>
<path fill="#1a1a1a" d="
  M 616.41 891.01
  Q 616.45 890.97 616.44 885.81
  C 616.43 878.68 621.43 878.03 627.63 878.08
  Q 629.07 878.09 658.95 878.10
  C 662.24 878.11 666.12 879.62 666.82 883.45
  Q 667.19 885.45 667.17 888.16
  A 0.20 0.20 0.0 0 0 667.55 888.25
  C 670.01 883.06 675.88 880.68 680.17 885.29
  A 0.25 0.25 0.0 0 0 680.60 885.14
  C 681.19 877.78 686.98 878.17 692.72 878.05
  Q 700.59 877.89 701.42 885.11
  A 0.26 0.26 0.0 0 0 701.88 885.25
  Q 705.18 881.23 710.83 883.96
  A 1.76 1.69 -3.3 0 1 711.44 884.48
  L 716.53 891.73
  A 0.09 0.09 0.0 0 0 716.69 891.69
  Q 716.76 891.21 716.57 886.80
  Q 716.23 878.93 723.46 878.23
  C 727.85 877.80 733.31 877.47 736.26 881.02
  Q 743.66 889.90 748.31 895.96
  A 0.23 0.23 0.0 0 0 748.72 895.82
  Q 748.58 886.79 748.68 885.00
  C 749.14 877.12 757.62 877.61 763.33 878.46
  C 767.22 879.03 768.85 881.88 768.86 885.40
  Q 768.97 912.62 768.84 925.37
  Q 768.77 932.34 762.03 932.79
  C 758.74 933.02 754.82 933.18 751.85 932.01
  Q 750.47 931.46 748.79 929.40
  Q 742.49 921.70 737.60 915.35
  A 0.24 0.23 25.1 0 0 737.18 915.50
  Q 737.25 917.05 737.28 923.30
  C 737.31 928.72 735.96 932.50 730.25 932.80
  C 724.03 933.13 716.45 933.68 716.56 924.75
  Q 716.66 917.72 716.65 917.68
  A 0.29 0.28 61.0 0 0 716.15 917.53
  Q 716.11 917.57 716.00 918.42
  Q 715.99 918.48 715.58 919.16
  C 710.87 927.09 702.79 932.17 693.38 932.87
  Q 677.40 934.05 667.63 921.33
  A 0.31 0.31 0.0 0 0 667.07 921.53
  C 667.21 924.51 667.45 928.78 664.93 930.86
  Q 662.55 932.82 659.96 932.83
  Q 628.37 932.97 623.64 932.82
  Q 621.20 932.74 618.86 931.24
  A 0.74 0.73 -50.9 0 0 617.95 931.34
  C 615.74 933.51 607.70 932.91 603.85 932.83
  Q 599.97 932.75 597.22 930.02
  Q 592.87 925.69 588.21 921.09
  A 0.30 0.30 0.0 0 0 587.70 921.27
  C 587.19 927.11 588.21 932.18 580.53 932.78
  C 575.01 933.20 567.52 933.69 567.26 926.22
  Q 567.02 919.17 567.16 887.00
  C 567.19 879.27 570.23 878.13 577.52 878.12
  Q 591.18 878.10 591.80 878.09
  Q 600.33 877.92 603.90 879.28
  Q 609.27 881.31 613.58 886.59
  Q 615.86 889.38 615.75 890.73
  A 0.38 0.38 0.0 0 0 616.41 891.01
  Z
  M 614.50 926.44
  L 602.00 913.94
  A 0.51 0.51 0.0 0 1 602.15 913.11
  C 614.72 907.52 614.75 890.61 602.25 885.15
  Q 599.35 883.88 592.00 884.08
  Q 589.90 884.14 573.55 884.10
  A 0.45 0.44 90.0 0 0 573.11 884.55
  L 573.11 926.46
  A 0.42 0.42 0.0 0 0 573.53 926.88
  L 581.14 926.88
  A 0.42 0.42 0.0 0 0 581.56 926.46
  L 581.56 913.89
  A 0.60 0.59 90.0 0 1 582.15 913.29
  L 588.76 913.29
  A 1.23 1.23 0.0 0 1 589.63 913.65
  L 602.43 926.45
  A 1.51 1.47 66.9 0 0 603.48 926.89
  L 614.32 926.89
  A 0.27 0.26 67.4 0 0 614.50 926.44
  Z
  M 660.79 884.55
  A 0.43 0.43 0.0 0 0 660.36 884.12
  L 622.82 884.12
  A 0.43 0.43 0.0 0 0 622.39 884.55
  L 622.39 892.27
  A 0.43 0.43 0.0 0 0 622.82 892.70
  L 660.36 892.70
  A 0.43 0.43 0.0 0 0 660.79 892.27
  L 660.79 884.55
  Z
  M 739.65 908.35
  Q 746.09 916.09 754.07 926.29
  A 1.57 1.54 70.6 0 0 755.29 926.89
  L 762.52 926.89
  A 0.44 0.44 0.0 0 0 762.96 926.45
  L 762.96 884.54
  A 0.42 0.42 0.0 0 0 762.54 884.12
  L 755.05 884.12
  A 0.42 0.42 0.0 0 0 754.63 884.54
  L 754.63 912.50
  A 0.34 0.34 0.0 0 1 754.01 912.71
  Q 749.96 907.43 745.98 902.65
  Q 739.54 894.92 731.56 884.71
  A 1.57 1.54 70.6 0 0 730.34 884.11
  L 723.11 884.11
  A 0.44 0.44 0.0 0 0 722.67 884.55
  L 722.67 926.46
  A 0.42 0.42 0.0 0 0 723.09 926.88
  L 730.58 926.88
  A 0.42 0.42 0.0 0 0 731.00 926.46
  L 731.00 898.50
  A 0.34 0.34 0.0 0 1 731.62 898.30
  Q 735.67 903.58 739.65 908.35
  Z
  M 695.37 884.50
  A 0.34 0.34 0.0 0 0 695.03 884.16
  L 686.97 884.16
  A 0.34 0.34 0.0 0 0 686.63 884.50
  L 686.63 902.62
  A 0.34 0.34 0.0 0 0 686.97 902.96
  L 695.03 902.96
  A 0.34 0.34 0.0 0 0 695.37 902.62
  L 695.37 884.50
  Z
  M 690.88 926.89
  Q 694.46 926.89 695.01 926.78
  C 712.83 923.25 719.50 902.07 707.11 888.84
  A 0.26 0.25 46.5 0 0 706.74 888.83
  L 701.03 894.54
  A 0.38 0.38 0.0 0 0 701.03 895.08
  C 705.63 899.67 706.17 907.68 702.25 912.80
  C 699.46 916.45 695.55 918.56 690.89 918.56
  C 686.22 918.55 682.32 916.44 679.53 912.78
  C 675.62 907.66 676.17 899.65 680.78 895.07
  A 0.38 0.38 0.0 0 0 680.78 894.53
  L 675.08 888.81
  A 0.26 0.25 -46.4 0 0 674.71 888.82
  C 662.30 902.03 668.94 923.22 686.75 926.78
  Q 687.30 926.89 690.88 926.89
  Z
  M 657.95 912.58
  Q 660.16 912.08 663.11 913.40
  A 0.32 0.32 0.0 0 0 663.55 913.02
  Q 661.55 905.99 662.95 898.53
  A 0.45 0.45 0.0 0 0 662.35 898.02
  Q 659.59 899.05 658.19 898.61
  A 0.44 0.44 0.0 0 0 657.63 899.15
  Q 658.87 903.60 658.07 910.60
  Q 658.03 910.99 657.81 911.37
  Q 657.41 912.10 657.41 912.14
  A 0.44 0.44 0.0 0 0 657.95 912.58
  Z
  M 622.39 926.52
  A 0.37 0.37 0.0 0 0 622.76 926.89
  L 660.40 926.89
  A 0.37 0.37 0.0 0 0 660.77 926.52
  L 660.77 918.94
  A 0.37 0.37 0.0 0 0 660.40 918.57
  L 631.20 918.57
  A 0.37 0.37 0.0 0 1 630.83 918.20
  L 630.83 910.34
  A 0.37 0.37 0.0 0 1 631.20 909.97
  L 651.94 909.97
  A 0.37 0.37 0.0 0 0 652.31 909.60
  L 652.31 901.67
  A 0.37 0.37 0.0 0 0 651.94 901.30
  L 622.76 901.30
  A 0.37 0.37 0.0 0 0 622.39 901.67
  L 622.39 926.52
  Z
  M 616.44 919.26
  L 616.44 905.76
  A 0.04 0.04 0.0 0 1 616.48 905.72
  L 616.49 905.72
  A 0.13 0.13 0.0 0 0 616.35 905.83
  C 615.88 909.22 614.28 910.62 611.59 914.07
  A 0.59 0.58 -48.6 0 0 611.63 914.84
  L 616.16 919.37
  A 0.16 0.16 0.0 0 0 616.44 919.26
  Z
  M 684.09 908.93
  C 688.01 913.63 693.94 913.66 697.63 908.98
  A 0.29 0.29 0.0 0 0 697.34 908.51
  Q 690.96 909.90 684.33 908.53
  A 0.25 0.25 0.0 0 0 684.09 908.93
  Z"
/>
<path fill="#ffffff" d="
  M 614.50 926.44
  A 0.27 0.26 67.4 0 1 614.32 926.89
  L 603.48 926.89
  A 1.51 1.47 66.9 0 1 602.43 926.45
  L 589.63 913.65
  A 1.23 1.23 0.0 0 0 588.76 913.29
  L 582.15 913.29
  A 0.60 0.59 -90.0 0 0 581.56 913.89
  L 581.56 926.46
  A 0.42 0.42 0.0 0 1 581.14 926.88
  L 573.53 926.88
  A 0.42 0.42 0.0 0 1 573.11 926.46
  L 573.11 884.55
  A 0.45 0.44 -90.0 0 1 573.55 884.10
  Q 589.90 884.14 592.00 884.08
  Q 599.35 883.88 602.25 885.15
  C 614.75 890.61 614.72 907.52 602.15 913.11
  A 0.51 0.51 0.0 0 0 602.00 913.94
  L 614.50 926.44
  Z
  M 581.59 893.12
  L 581.53 905.06
  A 0.47 0.47 0.0 0 0 582.00 905.54
  L 596.45 905.61
  A 6.62 6.33 0.3 0 0 603.10 899.32
  L 603.10 899.10
  A 6.62 6.33 0.3 0 0 596.51 892.73
  L 582.06 892.66
  A 0.47 0.47 0.0 0 0 581.59 893.12
  Z"
/>
<rect fill="#ffffff" x="622.39" y="884.12" width="38.40" height="8.58" rx="0.43"/>
<path fill="#ffffff" d="
  M 739.65 908.35
  Q 735.67 903.58 731.62 898.30
  A 0.34 0.34 0.0 0 0 731.00 898.50
  L 731.00 926.46
  A 0.42 0.42 0.0 0 1 730.58 926.88
  L 723.09 926.88
  A 0.42 0.42 0.0 0 1 722.67 926.46
  L 722.67 884.55
  A 0.44 0.44 0.0 0 1 723.11 884.11
  L 730.34 884.11
  A 1.57 1.54 70.6 0 1 731.56 884.71
  Q 739.54 894.92 745.98 902.65
  Q 749.96 907.43 754.01 912.71
  A 0.34 0.34 0.0 0 0 754.63 912.50
  L 754.63 884.54
  A 0.42 0.42 0.0 0 1 755.05 884.12
  L 762.54 884.12
  A 0.42 0.42 0.0 0 1 762.96 884.54
  L 762.96 926.45
  A 0.44 0.44 0.0 0 1 762.52 926.89
  L 755.29 926.89
  A 1.57 1.54 70.6 0 1 754.07 926.29
  Q 746.09 916.09 739.65 908.35
  Z"
/>
<rect fill="#ffffff" x="686.63" y="884.16" width="8.74" height="18.80" rx="0.34"/>
<path fill="#61598e" d="
  M 1055.85 981.07
  L 1070.00 1006.00
  Q 1053.07 1017.80 1034.78 1024.80
  Q 1004.29 1036.46 969.71 1043.93
  Q 921.18 1054.40 888.78 1057.90
  Q 887.80 1058.01 884.72 1058.66
  C 882.44 1059.15 880.34 1058.77 878.09 1059.36
  Q 875.36 1060.08 872.07 1060.02
  A 5.26 5.01 35.1 0 0 870.33 1060.28
  C 867.21 1061.31 863.75 1060.61 860.63 1061.52
  Q 858.75 1062.07 854.18 1062.00
  A 4.97 4.83 35.3 0 0 852.57 1062.25
  C 848.99 1063.42 844.51 1062.62 840.53 1063.65
  C 837.85 1064.33 834.14 1063.75 830.87 1064.47
  Q 827.94 1065.11 822.78 1064.97
  A 8.44 8.18 -50.0 0 0 820.64 1065.19
  Q 816.28 1066.21 810.09 1065.98
  A 8.80 8.49 38.9 0 0 808.06 1066.16
  Q 803.39 1067.17 796.96 1066.98
  A 10.63 10.56 -49.4 0 0 794.58 1067.17
  C 788.30 1068.37 780.74 1067.58 774.49 1068.60
  C 769.11 1069.48 762.38 1068.69 756.18 1069.43
  Q 750.53 1070.12 741.22 1069.96
  C 734.34 1069.85 726.66 1070.73 719.37 1071.00
  L 615.77 1071.00
  C 608.41 1070.74 600.72 1069.85 593.74 1069.96
  Q 585.18 1070.10 580.53 1069.59
  Q 574.25 1068.91 570.90 1068.97
  Q 563.77 1069.09 561.21 1068.68
  C 554.64 1067.62 546.60 1068.40 540.29 1067.16
  A 9.81 9.81 0.0 0 0 538.13 1066.98
  Q 531.57 1067.16 526.98 1066.18
  A 8.58 8.39 -39.3 0 0 524.85 1065.99
  Q 518.50 1066.19 514.36 1065.19
  A 7.98 7.74 -38.3 0 0 512.20 1064.97
  C 509.69 1065.06 506.93 1064.95 503.67 1064.40
  C 499.91 1063.76 496.56 1064.15 492.94 1063.32
  C 489.95 1062.62 486.34 1063.21 483.80 1062.54
  C 480.50 1061.68 477.66 1062.24 474.40 1061.52
  C 471.34 1060.84 469.04 1061.23 466.31 1060.64
  Q 464.91 1060.34 463.10 1060.13
  Q 415.56 1054.65 371.64 1045.35
  C 346.03 1039.93 318.14 1032.40 293.40 1021.83
  Q 283.08 1017.42 276.44 1013.30
  Q 265.36 1006.41 264.86 1006.06
  A 3.42 3.35 70.4 0 0 263.98 1005.63
  Q 258.41 1003.91 254.43 1002.84
  Q 207.68 990.28 172.08 981.65
  C 138.82 973.58 103.54 962.33 74.74 948.24
  Q 46.30 934.32 26.17 916.34
  Q 21.71 912.35 17.45 905.35
  L 36.32 885.72
  Q 37.35 885.74 37.86 886.63
  Q 41.92 893.59 47.26 898.00
  C 59.43 908.08 71.58 916.30 85.55 923.28
  C 122.09 941.54 159.04 952.02 202.24 961.71
  Q 215.36 964.66 274.54 979.96
  A 4.10 3.75 -21.0 0 1 275.41 980.30
  C 276.49 980.89 277.60 981.20 279.07 982.14
  Q 289.39 988.78 294.38 991.15
  C 321.68 1004.12 353.20 1012.31 383.01 1018.26
  Q 431.95 1028.03 484.82 1033.34
  Q 546.65 1039.55 605.13 1041.12
  C 679.78 1043.12 754.78 1041.76 828.50 1035.34
  Q 856.26 1032.93 885.50 1029.06
  C 925.37 1023.79 964.08 1016.87 1001.98 1005.55
  Q 1018.22 1000.70 1035.24 993.23
  Q 1046.42 988.33 1055.85 981.07
  Z"
/>
<path fill="#ffffff" d="
  M 690.89 918.56
  C 695.55 918.56 699.46 916.45 702.25 912.80
  C 706.17 907.68 705.63 899.67 701.03 895.08
  A 0.38 0.38 0.0 0 1 701.03 894.54
  L 706.74 888.83
  A 0.26 0.25 46.5 0 1 707.11 888.84
  C 719.50 902.07 712.83 923.25 695.01 926.78
  Q 694.46 926.89 690.88 926.89
  Q 687.30 926.89 686.75 926.78
  C 668.94 923.22 662.30 902.03 674.71 888.82
  A 0.26 0.25 -46.4 0 1 675.08 888.81
  L 680.78 894.53
  A 0.38 0.38 0.0 0 1 680.78 895.07
  C 676.17 899.65 675.62 907.66 679.53 912.78
  C 682.32 916.44 686.22 918.55 690.89 918.56
  Z"
/>
<path fill="#1a1a1a" d="
  M 581.59 893.12
  A 0.47 0.47 0.0 0 1 582.06 892.66
  L 596.51 892.73
  A 6.62 6.33 0.3 0 1 603.10 899.10
  L 603.10 899.32
  A 6.62 6.33 0.3 0 1 596.45 905.61
  L 582.00 905.54
  A 0.47 0.47 0.0 0 1 581.53 905.06
  L 581.59 893.12
  Z"
/>
<path fill="#303538" d="
  M 657.41 912.14
  Q 657.41 912.10 657.81 911.37
  Q 658.03 910.99 658.07 910.60
  Q 658.87 903.60 657.63 899.15
  A 0.44 0.44 0.0 0 1 658.19 898.61
  Q 659.59 899.05 662.35 898.02
  A 0.45 0.45 0.0 0 1 662.95 898.53
  Q 661.55 905.99 663.55 913.02
  A 0.32 0.32 0.0 0 1 663.11 913.40
  Q 660.16 912.08 657.95 912.58
  A 0.44 0.44 0.0 0 1 657.41 912.14
  Z"
/>
<path fill="#ffffff" d="
  M 622.39 926.52
  L 622.39 901.67
  A 0.37 0.37 0.0 0 1 622.76 901.30
  L 651.94 901.30
  A 0.37 0.37 0.0 0 1 652.31 901.67
  L 652.31 909.60
  A 0.37 0.37 0.0 0 1 651.94 909.97
  L 631.20 909.97
  A 0.37 0.37 0.0 0 0 630.83 910.34
  L 630.83 918.20
  A 0.37 0.37 0.0 0 0 631.20 918.57
  L 660.40 918.57
  A 0.37 0.37 0.0 0 1 660.77 918.94
  L 660.77 926.52
  A 0.37 0.37 0.0 0 1 660.40 926.89
  L 622.76 926.89
  A 0.37 0.37 0.0 0 1 622.39 926.52
  Z"
/>
<path fill="#303538" d="
  M 616.44 919.26
  A 0.16 0.16 0.0 0 1 616.16 919.37
  L 611.63 914.84
  A 0.59 0.58 -48.6 0 1 611.59 914.07
  C 614.28 910.62 615.88 909.22 616.35 905.83
  A 0.13 0.13 0.0 0 1 616.49 905.72
  L 616.48 905.72
  A 0.04 0.04 0.0 0 0 616.44 905.76
  L 616.44 919.26
  Z"
/>
<path fill="#303538" d="
  M 684.33 908.53
  Q 690.96 909.90 697.34 908.51
  A 0.29 0.29 0.0 0 1 697.63 908.98
  C 693.94 913.66 688.01 913.63 684.09 908.93
  A 0.25 0.25 0.0 0 1 684.33 908.53
  Z"
/>
</svg>
