<?xml version="1.0" encoding="UTF-8" standalone="no"?>
<!DOCTYPE svg PUBLIC "-//W3C//DTD SVG 1.1//EN" "http://www.w3.org/Graphics/SVG/1.1/DTD/svg11.dtd">
<svg xmlns="http://www.w3.org/2000/svg" version="1.1" viewBox="0.00 0.00 929.00 210.00">
<path fill="#1272b0" d="
  M 120.64 0.00
  Q 143.61 1.79 161.34 16.40
  C 179.49 31.36 188.90 51.77 188.41 75.44
  C 187.76 106.22 168.57 131.77 139.49 142.76
  A 0.37 0.37 0.0 0 0 139.36 143.37
  L 205.92 210.00
  L 146.31 210.00
  L 78.56 142.29
  A 0.99 0.99 0.0 0 0 77.86 142.00
  L 41.97 142.00
  A 0.60 0.59 0.0 0 0 41.37 142.59
  L 41.37 210.00
  L 0.60 210.00
  Q 0.36 209.71 0.00 209.58
  L 0.00 0.87
  Q 0.36 0.28 1.50 0.00
  L 120.64 0.00
  Z
  M 41.38 42.33
  L 41.38 104.63
  A 0.34 0.34 0.0 0 0 41.72 104.97
  L 114.64 104.97
  A 31.70 31.38 -0.0 0 0 146.34 73.59
  L 146.34 73.37
  A 31.70 31.38 0.0 0 0 114.64 41.99
  L 41.72 41.99
  A 0.34 0.34 0.0 0 0 41.38 42.33
  Z"
/>
<path fill="#1272b0" d="
  M 429.24 0.00
  L 429.28 41.66
  A 0.34 0.33 -90.0 0 1 428.95 42.00
  L 241.40 42.00
  A 0.31 0.31 0.0 0 1 241.09 41.69
  L 241.11 0.00
  L 429.24 0.00
  Z"
/>
<path fill="#1272b0" d="
  M 772.40 0.00
  L 887.41 142.81
  A 0.24 0.24 0.0 0 0 887.84 142.66
  L 887.83 0.00
  L 928.13 0.00
  Q 928.90 -0.05 929.00 0.46
  L 929.00 209.45
  Q 928.69 209.70 928.61 210.00
  L 887.85 210.00
  L 772.74 67.08
  A 0.24 0.24 0.0 0 0 772.32 67.23
  L 772.32 210.00
  L 731.09 210.00
  L 731.10 0.00
  L 772.40 0.00
  Z"
/>
<rect fill="#3eb0f6" x="555.24" y="0.24" width="42.14" height="91.76" rx="0.33"/>
<path fill="#3eb0f6" d="
  M 586.01 210.00
  L 565.99 210.00
  C 522.35 205.84 485.29 176.59 471.22 135.26
  C 463.20 111.71 463.73 83.48 472.86 60.13
  Q 481.03 39.22 497.47 22.34
  A 0.54 0.54 0.0 0 1 498.24 22.34
  L 527.06 51.89
  A 0.38 0.37 -45.6 0 1 527.06 52.42
  Q 511.76 68.15 508.61 88.62
  C 504.79 113.49 513.20 136.45 532.70 152.68
  Q 554.25 170.62 583.01 167.83
  Q 609.80 165.24 627.98 144.09
  C 650.67 117.68 649.67 77.51 624.88 52.51
  A 0.48 0.48 0.0 0 1 624.88 51.83
  L 653.66 22.32
  A 0.52 0.52 0.0 0 1 654.40 22.31
  C 674.67 43.04 685.89 69.13 686.26 98.29
  C 686.69 132.33 672.68 162.68 646.78 184.51
  Q 620.44 206.71 586.01 210.00
  Z"
/>
<path fill="#1272b0" d="
  M 429.31 210.00
  L 241.04 210.00
  L 241.08 84.55
  A 0.55 0.55 0.0 0 1 241.63 84.00
  L 386.58 84.00
  A 0.42 0.42 0.0 0 1 387.00 84.42
  L 387.00 125.32
  A 0.62 0.61 0.0 0 1 386.38 125.93
  L 282.69 125.93
  A 0.32 0.32 0.0 0 0 282.37 126.25
  L 282.37 167.58
  A 0.35 0.35 0.0 0 0 282.72 167.93
  L 428.92 167.93
  A 0.40 0.39 90.0 0 1 429.31 168.33
  L 429.31 210.00
  Z"
/>
</svg>
