<?xml version="1.0" encoding="UTF-8" standalone="no"?>
<!DOCTYPE svg PUBLIC "-//W3C//DTD SVG 1.1//EN" "http://www.w3.org/Graphics/SVG/1.1/DTD/svg11.dtd">
<svg xmlns="http://www.w3.org/2000/svg" version="1.1" viewBox="0.00 0.00 321.00 1433.00">
<g stroke-width="2.00" fill="none" stroke-linecap="butt">
<path stroke="#979da7" vector-effect="non-scaling-stroke" d="
  M 34.17 0.00
  C 27.37 5.96 24.70 15.25 24.18 24.27
  Q 23.73 31.98 23.29 43.09
  C 22.77 56.14 23.21 69.39 23.27 83.00
  Q 23.31 89.78 26.13 99.87"
/>
<path stroke="#c7cedc" vector-effect="non-scaling-stroke" d="
  M 26.13 99.87
  Q 23.33 99.70 21.72 101.15"
/>
<path stroke="#9ea3b0" vector-effect="non-scaling-stroke" d="
  M 17.97 56.31
  Q 17.81 55.76 17.87 55.04"
/>
<path stroke="#868f9a" vector-effect="non-scaling-stroke" d="
  M 18.87 34.21
  L 18.94 31.27"
/>
<path stroke="#8e99a5" vector-effect="non-scaling-stroke" d="
  M 19.06 29.30
  L 19.17 25.47"
/>
<path stroke="#8e99a5" vector-effect="non-scaling-stroke" d="
  M 19.88 13.23
  Q 20.29 12.94 20.19 12.20"
/>
<path stroke="#697477" vector-effect="non-scaling-stroke" d="
  M 39.39 0.12
  Q 43.51 4.16 45.14 8.19
  C 49.70 19.50 48.70 31.75 48.93 43.77
  C 49.16 56.33 48.27 69.76 47.89 82.76
  Q 47.68 89.86 44.55 100.07"
/>
<path stroke="#aab3b9" vector-effect="non-scaling-stroke" d="
  M 44.55 100.07
  L 26.13 99.87"
/>
<path stroke="#868f9a" vector-effect="non-scaling-stroke" d="
  M 50.08 101.24
  L 49.25 100.56"
/>
<path stroke="#98a5ac" vector-effect="non-scaling-stroke" d="
  M 49.25 100.56
  Q 46.92 99.86 44.55 100.07"
/>
<path stroke="#c7cedc" vector-effect="non-scaling-stroke" d="
  M 49.25 100.56
  Q 47.64 101.20 47.86 103.80"
/>
<path stroke="#98a5ac" vector-effect="non-scaling-stroke" d="
  M 47.86 103.80
  L 45.52 104.12"
/>
<path stroke="#aab3b9" vector-effect="non-scaling-stroke" d="
  M 45.52 104.12
  L 23.74 104.25"
/>
<path stroke="#c7cedc" vector-effect="non-scaling-stroke" d="
  M 23.74 104.25
  L 23.11 103.98"
/>
<path stroke="#868f9a" vector-effect="non-scaling-stroke" d="
  M 48.98 103.98
  Q 48.20 104.20 47.86 103.80"
/>
<path stroke="#737c88" vector-effect="non-scaling-stroke" d="
  M 57.92 123.61
  L 52.27 122.98"
/>
<path stroke="#697477" vector-effect="non-scaling-stroke" d="
  M 52.27 122.98
  Q 54.55 114.25 49.41 107.60
  Q 47.93 105.68 45.52 104.12"
/>
<path stroke="#979da7" vector-effect="non-scaling-stroke" d="
  M 23.74 104.25
  L 24.27 104.69
  A 0.52 0.52 0.0 0 1 24.31 105.45
  Q 17.23 112.68 19.59 123.04"
/>
<path stroke="#bdc5d5" vector-effect="non-scaling-stroke" d="
  M 19.59 123.04
  L 14.07 123.80"
/>
<path stroke="#848a94" vector-effect="non-scaling-stroke" d="
  M 52.27 122.98
  L 45.17 123.57"
/>
<path stroke="#9aa2a7" vector-effect="non-scaling-stroke" d="
  M 45.17 123.57
  Q 39.26 122.59 33.92 123.30"
/>
<path stroke="#a0aab1" vector-effect="non-scaling-stroke" d="
  M 33.92 123.30
  L 19.59 123.04"
/>
<path stroke="#c0cad5" vector-effect="non-scaling-stroke" d="
  M 33.92 123.30
  Q 28.35 124.06 24.67 125.43
  C 12.13 130.08 3.68 142.35 6.64 155.94
  A 0.89 0.89 0.0 0 0 8.08 156.43
  Q 15.65 150.07 24.56 146.83
  Q 43.58 139.92 64.06 135.88"
/>
<path stroke="#aab2c2" vector-effect="non-scaling-stroke" d="
  M 64.06 135.88
  L 71.11 134.53"
/>
<path stroke="#bdc5d5" vector-effect="non-scaling-stroke" d="
  M 145.19 128.07
  Q 144.73 138.50 147.78 149.06"
/>
<path stroke="#d0dbe7" vector-effect="non-scaling-stroke" d="
  M 147.78 149.06
  Q 138.85 149.36 130.27 149.86
  C 103.32 151.43 75.41 155.51 49.87 165.08
  C 40.15 168.72 27.40 175.53 24.10 186.15"
/>
<path stroke="#dbe3eb" vector-effect="non-scaling-stroke" d="
  M 24.10 186.15
  Q 14.18 176.06 4.00 166.00
  Q 3.03 165.04 0.31 164.51"
/>
<path stroke="#a4aab8" vector-effect="non-scaling-stroke" d="
  M 45.17 123.57
  Q 48.89 124.94 52.38 126.47
  Q 59.49 129.57 64.06 135.88"
/>
<path stroke="#bdc5d5" vector-effect="non-scaling-stroke" d="
  M 169.79 128.04
  C 170.17 135.31 169.04 142.09 167.28 149.09"
/>
<path stroke="#c7cedc" vector-effect="non-scaling-stroke" d="
  M 167.28 149.09
  Q 166.47 151.26 165.39 153.70
  C 161.34 162.94 154.10 163.34 149.84 154.20
  Q 148.96 152.31 147.78 149.06"
/>
<path stroke="#c0cad5" vector-effect="non-scaling-stroke" d="
  M 313.27 162.84
  L 291.02 186.26"
/>
<path stroke="#d0dbe7" vector-effect="non-scaling-stroke" d="
  M 291.02 186.26
  Q 288.45 178.88 282.48 174.51
  C 270.17 165.51 253.75 160.43 238.44 157.11
  C 215.06 152.04 191.34 149.73 167.28 149.09"
/>
<path stroke="#cad2dd" vector-effect="non-scaling-stroke" d="
  M 291.02 186.26
  L 290.94 307.86"
/>
<path stroke="#c7cedc" vector-effect="non-scaling-stroke" d="
  M 290.94 307.86
  Q 285.97 303.70 280.88 301.64
  Q 266.55 295.84 254.27 293.86
  Q 224.29 289.02 192.49 287.72
  C 152.40 286.08 112.22 286.95 72.50 291.97
  Q 52.66 294.48 35.22 301.14
  Q 29.30 303.40 24.09 307.77"
/>
<path stroke="#e4ebf2" vector-effect="non-scaling-stroke" d="
  M 24.09 307.77
  L 24.10 186.15"
/>
<path stroke="#c7cedc" vector-effect="non-scaling-stroke" d="
  M 70.0000 211.0000
  A 87.50 46.00 -180.0 0 0 157.5000 257.0000
  A 87.50 46.00 -180.0 0 0 245.0000 211.0000
  A 87.50 46.00 -180.0 0 0 157.5000 165.0000
  A 87.50 46.00 -180.0 0 0 70.0000 211.0000"
/>
<path stroke="#c7cedc" vector-effect="non-scaling-stroke" d="
  M 67.6296 262.6901
  A 0.48 0.48 0.0 0 0 67.1454 262.2143
  L 52.0660 262.3459
  A 0.48 0.48 0.0 0 0 51.5902 262.8300
  L 51.6104 265.1499
  A 0.48 0.48 0.0 0 0 52.0946 265.6257
  L 67.1740 265.4941
  A 0.48 0.48 0.0 0 0 67.6498 265.0100
  L 67.6296 262.6901"
/>
<path stroke="#c7cedc" vector-effect="non-scaling-stroke" d="
  M 81.9543 262.7368
  A 0.61 0.61 0.0 0 0 81.3432 262.1278
  L 78.8432 262.1322
  A 0.61 0.61 0.0 0 0 78.2343 262.7433
  L 78.2457 269.3032
  A 0.61 0.61 0.0 0 0 78.8568 269.9122
  L 81.3568 269.9078
  A 0.61 0.61 0.0 0 0 81.9657 269.2967
  L 81.9543 262.7368"
/>
<path stroke="#c7cedc" vector-effect="non-scaling-stroke" d="
  M 100.16 272.20
  Q 103.81 276.80 105.88 279.34
  A 1.49 1.47 70.2 0 0 107.03 279.89
  L 109.26 279.89
  A 0.68 0.67 90.0 0 0 109.93 279.21
  L 109.93 262.67
  A 0.59 0.59 0.0 0 0 109.34 262.08
  L 107.12 262.08
  A 0.66 0.66 0.0 0 0 106.46 262.74
  L 106.46 273.31
  A 0.30 0.30 0.0 0 1 105.93 273.49
  Q 105.59 273.07 102.98 269.76
  Q 99.33 265.16 97.26 262.62
  A 1.49 1.47 70.2 0 0 96.11 262.07
  L 93.88 262.07
  A 0.68 0.67 90.0 0 0 93.21 262.75
  L 93.21 279.29
  A 0.59 0.59 0.0 0 0 93.80 279.88
  L 96.02 279.88
  A 0.66 0.66 0.0 0 0 96.68 279.22
  L 96.68 268.65
  A 0.30 0.30 0.0 0 1 97.21 268.47
  Q 97.55 268.90 100.16 272.20"
/>
<path stroke="#c7cedc" vector-effect="non-scaling-stroke" d="
  M 47.67 279.90
  A 0.36 0.36 0.0 0 0 47.93 279.29
  L 43.37 274.73
  A 0.42 0.42 0.0 0 1 43.45 274.08
  C 46.95 271.92 48.36 267.72 45.48 264.27
  C 43.11 261.44 35.50 262.22 31.89 262.34
  A 0.80 0.80 0.0 0 0 31.11 263.14
  L 31.11 279.24
  A 0.67 0.67 0.0 0 0 31.78 279.91
  L 33.93 279.91
  A 0.64 0.64 0.0 0 0 34.57 279.27
  L 34.57 274.98
  A 0.60 0.59 -3.9 0 1 35.09 274.39
  Q 37.45 274.11 38.02 274.68
  Q 40.57 277.20 42.33 279.04
  A 2.81 2.77 -21.5 0 0 44.35 279.90
  L 47.67 279.90"
/>
<path stroke="#c7cedc" vector-effect="non-scaling-stroke" d="
  M 80.00 276.42
  C 75.46 276.41 72.43 270.94 75.45 267.27
  A 1.13 1.12 42.1 0 0 75.37 265.76
  L 74.03 264.41
  A 0.96 0.95 38.3 0 0 72.55 264.58
  Q 67.36 272.94 75.19 278.87
  Q 76.56 279.91 79.99 279.92
  Q 83.43 279.92 84.80 278.90
  Q 92.66 273.00 87.50 264.61
  A 0.96 0.95 -38.1 0 0 86.03 264.44
  L 84.68 265.78
  A 1.13 1.12 -41.9 0 0 84.60 267.29
  C 87.60 270.98 84.54 276.43 80.00 276.42"
/>
<path stroke="#c7cedc" vector-effect="non-scaling-stroke" d="
  M 67.01 279.91
  A 0.61 0.61 0.0 0 0 67.62 279.30
  L 67.62 276.99
  A 0.61 0.61 0.0 0 0 67.01 276.38
  L 55.67 276.38
  A 0.61 0.61 0.0 0 1 55.06 275.77
  L 55.06 273.40
  A 0.61 0.61 0.0 0 1 55.67 272.79
  L 63.43 272.79
  A 0.61 0.61 0.0 0 0 64.04 272.18
  L 64.04 269.90
  A 0.61 0.61 0.0 0 0 63.43 269.29
  L 52.07 269.29
  A 0.61 0.61 0.0 0 0 51.46 269.90
  L 51.46 279.30
  A 0.61 0.61 0.0 0 0 52.07 279.91
  L 67.01 279.91"
/>
<path stroke="#a4aab8" vector-effect="non-scaling-stroke" d="
  M 315.01 526.05
  L 315.01 566.97"
/>
<path stroke="#c0cad5" vector-effect="non-scaling-stroke" d="
  M 280.46 1175.50
  Q 156.79 1174.70 32.97 1175.55"
/>
<path stroke="#d5dae1" vector-effect="non-scaling-stroke" d="
  M 9.30 1164.55
  L 32.37 1137.70"
/>
<path stroke="#cad2dd" vector-effect="non-scaling-stroke" d="
  M 32.37 1137.70
  Q 33.87 1138.98 35.40 1140.34
  Q 41.57 1145.85 49.20 1147.40
  Q 52.02 1147.98 64.84 1147.99
  Q 106.95 1148.03 149.20 1148.00"
/>
<path stroke="#b7bdcb" vector-effect="non-scaling-stroke" d="
  M 149.20 1148.00
  Q 149.39 1154.13 150.71 1160.25
  C 151.33 1163.13 154.94 1175.20 159.94 1171.30
  C 165.10 1167.27 166.63 1154.25 166.80 1148.02"
/>
<path stroke="#cad2dd" vector-effect="non-scaling-stroke" d="
  M 166.80 1148.02
  Q 209.83 1148.00 252.71 1148.00
  Q 261.91 1148.00 264.27 1147.68
  C 276.35 1146.03 286.07 1136.36 289.44 1125.20
  Q 291.01 1120.02 291.01 1106.11
  Q 291.03 838.75 291.00 571.16"
/>
<path stroke="#b7bdcb" vector-effect="non-scaling-stroke" d="
  M 291.00 571.16
  Q 300.05 562.47 302.32 551.14
  Q 302.99 547.80 302.99 529.81
  Q 303.02 433.42 303.01 337.04
  Q 303.00 319.48 290.94 307.86"
/>
<path stroke="#d2d6e0" vector-effect="non-scaling-stroke" d="
  M 24.09 307.77
  Q 12.01 319.23 12.01 336.50
  Q 12.01 442.50 11.97 548.52
  A 5.01 4.55 -53.6 0 0 12.07 549.50
  Q 14.82 562.50 24.05 571.37"
/>
<path stroke="#e4ebf2" vector-effect="non-scaling-stroke" d="
  M 24.05 571.37
  Q 23.99 840.44 24.01 1108.88
  Q 24.01 1118.03 24.73 1121.57
  C 26.08 1128.10 28.63 1132.29 32.37 1137.70"
/>
<path stroke="#a1a5b8" vector-effect="non-scaling-stroke" d="
  M 207.01 219.00
  A 49.51 31.00 0.0 0 0 157.50 188.00
  A 49.51 31.00 0.0 0 0 107.99 219.00
  A 49.51 31.00 0.0 0 0 157.50 250.00
  A 49.51 31.00 0.0 0 0 207.01 219.00"
/>
<path stroke="#737c88" vector-effect="non-scaling-stroke" d="
  M 122.8417 207.9896
  A 13.56 5.93 -94.9 0 0 118.0917 222.0065
  A 13.56 5.93 -94.9 0 0 125.1583 235.0104
  A 13.56 5.93 -94.9 0 0 129.9083 220.9935
  A 13.56 5.93 -94.9 0 0 122.8417 207.9896"
/>
<path stroke="#737c88" vector-effect="non-scaling-stroke" d="
  M 193.1347 207.9876
  A 13.56 5.90 -85.2 0 0 186.1207 221.0063
  A 13.56 5.90 -85.2 0 0 190.8653 235.0124
  A 13.56 5.90 -85.2 0 0 197.8793 221.9937
  A 13.56 5.90 -85.2 0 0 193.1347 207.9876"
/>
<path stroke="#c7cedc" vector-effect="non-scaling-stroke" d="
  M 34.58 266.11
  L 34.52 270.17
  A 0.75 0.75 0.0 0 0 35.26 270.93
  L 40.61 271.00
  A 3.04 2.59 0.8 0 0 43.69 268.45
  L 43.69 268.07
  A 3.04 2.59 0.8 0 0 40.69 265.44
  L 35.34 265.37
  A 0.75 0.75 0.0 0 0 34.58 266.11"
/>
<path stroke="#c7cedc" vector-effect="non-scaling-stroke" d="
  M 291.00 571.16
  C 263.13 592.23 227.64 600.66 193.26 604.19
  Q 143.38 609.32 94.55 600.16
  C 69.24 595.41 45.47 586.88 24.05 571.37"
/>
<path stroke="#9ba6a8" vector-effect="non-scaling-stroke" d="
  M 282.94 351.03
  A 20.06 20.06 0.0 0 0 262.88 330.97
  L 51.06 330.97
  A 20.06 20.06 0.0 0 0 31.00 351.03
  L 31.00 541.95
  A 20.06 20.06 0.0 0 0 51.06 562.01
  L 262.88 562.01
  A 20.06 20.06 0.0 0 0 282.94 541.95
  L 282.94 351.03"
/>
<path stroke="#c7cedc" vector-effect="non-scaling-stroke" d="
  M 166.80 1148.02
  Q 167.72 1135.20 164.27 1122.50
  C 163.22 1118.63 158.89 1109.24 154.27 1116.75
  C 149.19 1125.03 148.50 1138.45 149.20 1148.00"
/>
<path stroke="#c7cedc" vector-effect="non-scaling-stroke" d="
  M 35.3277 622.1807
  A 27.36 22.37 -140.7 0 0 42.3313 656.8208
  A 27.36 22.37 -140.7 0 0 77.6723 656.8393
  A 27.36 22.37 -140.7 0 0 70.6687 622.1992
  A 27.36 22.37 -140.7 0 0 35.3277 622.1807"
/>
<path stroke="#c7cedc" vector-effect="non-scaling-stroke" d="
  M 279.7559 622.2358
  A 27.39 22.38 -39.1 0 0 244.3855 622.1421
  A 27.39 22.38 -39.1 0 0 237.2441 656.7842
  A 27.39 22.38 -39.1 0 0 272.6145 656.8779
  A 27.39 22.38 -39.1 0 0 279.7559 622.2358"
/>
<path stroke="#c7cedc" vector-effect="non-scaling-stroke" d="
  M 112.52 639.79
  C 101.28 647.70 92.75 659.93 93.04 674.07
  C 93.13 678.96 92.77 683.34 93.68 688.04
  Q 96.24 701.26 103.13 712.87
  C 105.29 716.51 107.96 719.17 110.09 722.24
  C 131.36 752.78 186.46 752.47 207.85 722.38
  C 210.44 718.73 213.17 715.25 215.31 711.32
  C 219.38 703.83 223.24 693.96 223.79 685.44
  C 224.10 680.60 225.20 676.10 224.93 671.53
  C 223.73 651.34 205.83 636.94 188.12 630.88
  C 163.65 622.50 134.15 624.57 112.52 639.79"
/>
<path stroke="#b1b9c2" vector-effect="non-scaling-stroke" d="
  M 44.03 793.00
  C 44.03 805.65 53.97 814.84 66.51 814.99
  Q 67.19 815.00 79.00 815.00
  Q 90.81 815.00 91.49 814.99
  C 104.02 814.85 113.97 805.65 113.97 793.00
  C 113.97 780.36 104.03 771.16 91.49 771.01
  Q 90.81 771.00 79.00 771.00
  Q 67.19 771.00 66.51 771.01
  C 53.97 771.16 44.03 780.36 44.03 793.00"
/>
<path stroke="#b1b9c2" vector-effect="non-scaling-stroke" d="
  M 202.03 793.00
  C 202.03 805.65 211.97 814.84 224.51 814.99
  Q 225.19 815.00 237.00 815.00
  Q 248.81 815.00 249.49 814.99
  C 262.03 814.85 271.97 805.65 271.97 793.00
  C 271.97 780.36 262.03 771.16 249.49 771.01
  Q 248.81 771.00 237.00 771.00
  Q 225.19 771.00 224.51 771.01
  C 211.98 771.16 202.03 780.36 202.03 793.00"
/>
<path stroke="#b1b9c2" vector-effect="non-scaling-stroke" d="
  M 44.03 848.00
  C 44.03 860.65 53.97 869.85 66.51 869.99
  Q 67.19 870.00 79.00 870.00
  Q 90.81 870.00 91.49 869.99
  C 104.03 869.85 113.97 860.65 113.97 848.00
  C 113.97 835.36 104.03 826.16 91.49 826.01
  Q 90.81 826.00 79.00 826.00
  Q 67.19 826.00 66.51 826.01
  C 53.98 826.16 44.03 835.36 44.03 848.00"
/>
<path stroke="#b1b9c2" vector-effect="non-scaling-stroke" d="
  M 123.03 848.00
  C 123.03 860.65 132.97 869.85 145.51 869.99
  Q 146.19 870.00 158.00 870.00
  Q 169.81 870.00 170.49 869.99
  C 183.03 869.85 192.97 860.65 192.97 848.00
  C 192.97 835.36 183.03 826.16 170.49 826.01
  Q 169.81 826.00 158.00 826.00
  Q 146.19 826.00 145.51 826.01
  C 132.97 826.16 123.03 835.36 123.03 848.00"
/>
<path stroke="#b1b9c2" vector-effect="non-scaling-stroke" d="
  M 202.03 848.00
  C 202.03 860.65 211.97 869.85 224.51 869.99
  Q 225.19 870.00 237.00 870.00
  Q 248.81 870.00 249.49 869.99
  C 262.03 869.85 271.97 860.65 271.97 848.00
  C 271.97 835.36 262.03 826.16 249.49 826.01
  Q 248.81 826.00 237.00 826.00
  Q 225.19 826.00 224.51 826.01
  C 211.97 826.16 202.03 835.36 202.03 848.00"
/>
<path stroke="#b1b9c2" vector-effect="non-scaling-stroke" d="
  M 44.03 903.00
  C 44.03 915.65 53.97 924.84 66.51 924.99
  Q 67.19 925.00 79.00 925.00
  Q 90.81 925.00 91.49 924.99
  C 104.03 924.85 113.97 915.65 113.97 903.00
  C 113.97 890.36 104.03 881.16 91.49 881.01
  Q 90.81 881.00 79.00 881.00
  Q 67.19 881.00 66.51 881.01
  C 53.98 881.16 44.03 890.36 44.03 903.00"
/>
<path stroke="#b1b9c2" vector-effect="non-scaling-stroke" d="
  M 123.03 903.00
  C 123.03 915.65 132.97 924.84 145.51 924.99
  Q 146.19 925.00 158.00 925.00
  Q 169.81 925.00 170.49 924.99
  C 183.03 924.85 192.97 915.65 192.97 903.00
  C 192.97 890.36 183.03 881.16 170.49 881.01
  Q 169.81 881.00 158.00 881.00
  Q 146.19 881.00 145.51 881.01
  C 132.97 881.16 123.03 890.36 123.03 903.00"
/>
<path stroke="#b1b9c2" vector-effect="non-scaling-stroke" d="
  M 202.03 903.00
  C 202.03 915.65 211.97 924.84 224.51 924.99
  Q 225.19 925.00 237.00 925.00
  Q 248.81 925.00 249.49 924.99
  C 262.03 924.85 271.97 915.65 271.97 903.00
  C 271.97 890.36 262.03 881.16 249.49 881.01
  Q 248.81 881.00 237.00 881.00
  Q 225.19 881.00 224.51 881.01
  C 211.98 881.16 202.03 890.36 202.03 903.00"
/>
<path stroke="#b1b9c2" vector-effect="non-scaling-stroke" d="
  M 44.03 958.00
  C 44.03 970.65 53.97 979.84 66.51 979.99
  Q 67.19 980.00 79.00 980.00
  Q 90.81 980.00 91.49 979.99
  C 104.03 979.85 113.97 970.65 113.97 958.00
  C 113.97 945.36 104.03 936.16 91.49 936.01
  Q 90.81 936.00 79.00 936.00
  Q 67.19 936.00 66.51 936.01
  C 53.98 936.16 44.03 945.36 44.03 958.00"
/>
<path stroke="#b1b9c2" vector-effect="non-scaling-stroke" d="
  M 123.03 958.00
  C 123.03 970.65 132.97 979.84 145.51 979.99
  Q 146.19 980.00 158.00 980.00
  Q 169.81 980.00 170.49 979.99
  C 183.03 979.85 192.97 970.65 192.97 958.00
  C 192.97 945.36 183.03 936.16 170.49 936.01
  Q 169.81 936.00 158.00 936.00
  Q 146.19 936.00 145.51 936.01
  C 132.97 936.16 123.03 945.36 123.03 958.00"
/>
<path stroke="#b1b9c2" vector-effect="non-scaling-stroke" d="
  M 202.03 958.00
  C 202.03 970.65 211.97 979.85 224.51 979.99
  Q 225.19 980.00 237.00 980.00
  Q 248.81 980.00 249.49 979.99
  C 262.03 979.85 271.97 970.65 271.97 958.00
  C 271.97 945.36 262.03 936.16 249.49 936.01
  Q 248.81 936.00 237.00 936.00
  Q 225.19 936.00 224.51 936.01
  C 211.98 936.16 202.03 945.36 202.03 958.00"
/>
<path stroke="#b1b9c2" vector-effect="non-scaling-stroke" d="
  M 44.03 1013.00
  C 44.03 1025.65 53.97 1034.84 66.51 1034.99
  Q 67.19 1035.00 79.00 1035.00
  Q 90.81 1035.00 91.49 1034.99
  C 104.03 1034.85 113.97 1025.65 113.97 1013.00
  C 113.97 1000.36 104.03 991.16 91.49 991.01
  Q 90.81 991.00 79.00 991.00
  Q 67.19 991.00 66.51 991.01
  C 53.97 991.16 44.03 1000.36 44.03 1013.00"
/>
<path stroke="#b1b9c2" vector-effect="non-scaling-stroke" d="
  M 123.03 1013.00
  C 123.03 1025.65 132.97 1034.85 145.51 1034.99
  Q 146.19 1035.00 158.00 1035.00
  Q 169.81 1035.00 170.49 1034.99
  C 183.03 1034.85 192.97 1025.65 192.97 1013.00
  C 192.97 1000.36 183.03 991.16 170.49 991.01
  Q 169.81 991.00 158.00 991.00
  Q 146.19 991.00 145.51 991.01
  C 132.97 991.16 123.03 1000.36 123.03 1013.00"
/>
<path stroke="#b1b9c2" vector-effect="non-scaling-stroke" d="
  M 202.03 1013.00
  C 202.03 1025.65 211.97 1034.84 224.51 1034.99
  Q 225.19 1035.00 237.00 1035.00
  Q 248.81 1035.00 249.49 1034.99
  C 262.03 1034.85 271.97 1025.65 271.97 1013.00
  C 271.97 1000.36 262.03 991.16 249.49 991.01
  Q 248.81 991.00 237.00 991.00
  Q 225.19 991.00 224.51 991.01
  C 211.98 991.16 202.03 1000.36 202.03 1013.00"
/>
<path stroke="#b1b9c2" vector-effect="non-scaling-stroke" d="
  M 44.03 1067.00
  C 44.03 1079.65 53.97 1088.84 66.51 1088.99
  Q 67.19 1089.00 79.00 1089.00
  Q 90.81 1089.00 91.49 1088.99
  C 104.03 1088.85 113.97 1079.65 113.97 1067.00
  C 113.97 1054.36 104.03 1045.16 91.49 1045.01
  Q 90.81 1045.00 79.00 1045.00
  Q 67.19 1045.00 66.51 1045.01
  C 53.98 1045.16 44.03 1054.36 44.03 1067.00"
/>
<path stroke="#b1b9c2" vector-effect="non-scaling-stroke" d="
  M 202.03 1067.00
  C 202.03 1079.65 211.97 1088.84 224.51 1088.99
  Q 225.19 1089.00 237.00 1089.00
  Q 248.81 1089.00 249.49 1088.99
  C 262.03 1088.85 271.97 1079.65 271.97 1067.00
  C 271.97 1054.36 262.03 1045.16 249.49 1045.01
  Q 248.81 1045.00 237.00 1045.00
  Q 225.19 1045.00 224.51 1045.01
  C 211.98 1045.16 202.03 1054.36 202.03 1067.00"
/>
<path stroke="#a1a5b8" vector-effect="non-scaling-stroke" d="
  M 157.77 735.95
  Q 171.01 736.27 181.03 727.01
  Q 190.60 718.17 197.80 705.48
  Q 204.98 692.81 205.07 682.26
  C 205.28 657.59 183.34 640.60 160.09 640.04
  C 136.83 639.48 114.10 655.39 113.11 680.04
  Q 112.70 690.58 119.26 703.58
  Q 125.83 716.61 134.96 725.90
  Q 144.53 735.63 157.77 735.95"
/>
<path stroke="#8f9ca5" vector-effect="non-scaling-stroke" d="
  M 244.99 1175.86
  L 231.97 1175.89"
/>
<path stroke="#97a6af" vector-effect="non-scaling-stroke" d="
  M 231.97 1175.89
  L 85.96 1175.90"
/>
<path stroke="#9fafb9" vector-effect="non-scaling-stroke" d="
  M 85.96 1175.90
  L 72.98 1175.85"
/>
<path stroke="#708389" vector-effect="non-scaling-stroke" d="
  M 85.96 1175.90
  Q 85.94 1214.50 86.19 1253.00
  Q 86.30 1269.85 97.66 1281.89
  Q 100.86 1285.29 102.08 1286.39
  A 0.51 0.50 -43.9 0 1 102.06 1287.14
  Q 95.28 1292.78 94.08 1302.31
  Q 92.83 1312.20 87.87 1344.70"
/>
<path stroke="#708389" vector-effect="non-scaling-stroke" d="
  M 72.96 1224.79
  L 72.94 1197.30"
/>
<path stroke="#607075" vector-effect="non-scaling-stroke" d="
  M 231.97 1175.89
  Q 231.97 1213.86 232.12 1251.75
  C 232.17 1265.77 225.84 1277.95 215.20 1287.02
  A 0.55 0.55 0.0 0 0 215.15 1287.81
  Q 216.34 1289.14 217.54 1290.51
  Q 220.97 1294.41 221.85 1300.27
  Q 225.07 1321.71 228.49 1343.52"
/>
<path stroke="#607075" vector-effect="non-scaling-stroke" d="
  M 191.98 1361.08
  L 124.73 1361.17"
/>
<path stroke="#607075" vector-effect="non-scaling-stroke" d="
  M 169.11 1433.00
  Q 174.78 1426.91 173.76 1418.96
  Q 173.37 1415.91 172.28 1412.69
  A 0.71 0.70 -9.1 0 0 171.61 1412.21
  L 149.06 1412.14"
/>
<path stroke="#68797e" vector-effect="non-scaling-stroke" d="
  M 149.06 1412.14
  L 136.62 1412.06"
/>
<path stroke="#68797e" vector-effect="non-scaling-stroke" d="
  M 136.91 1408.94
  Q 138.02 1407.86 140.11 1407.98"
/>
<path stroke="#607075" vector-effect="non-scaling-stroke" d="
  M 140.11 1407.98
  L 171.54 1407.91
  A 1.31 1.30 -67.1 0 0 172.45 1407.54
  Q 176.91 1403.29 176.95 1397.09
  C 176.98 1394.11 175.92 1391.63 175.11 1388.99
  A 1.17 1.16 81.6 0 0 174.00 1388.16
  L 141.90 1388.09"
/>
<path stroke="#68797e" vector-effect="non-scaling-stroke" d="
  M 141.90 1388.09
  L 130.61 1387.72"
/>
<path stroke="#68797e" vector-effect="non-scaling-stroke" d="
  M 130.90 1384.96
  Q 132.09 1383.87 134.12 1384.00"
/>
<path stroke="#607075" vector-effect="non-scaling-stroke" d="
  M 134.12 1384.00
  L 174.24 1383.83
  A 1.16 1.11 23.5 0 0 174.94 1383.57
  Q 180.59 1378.75 180.01 1371.81
  C 179.79 1369.29 178.87 1367.74 178.43 1365.66
  A 0.74 0.74 0.0 0 0 177.71 1365.08
  L 136.26 1365.00"
/>
<path stroke="#68797e" vector-effect="non-scaling-stroke" d="
  M 136.26 1365.00
  L 124.18 1364.50"
/>
<path stroke="#708389" vector-effect="non-scaling-stroke" d="
  M 136.26 1365.00
  Q 140.32 1375.27 134.12 1384.00"
/>
<path stroke="#708389" vector-effect="non-scaling-stroke" d="
  M 141.90 1388.09
  Q 146.65 1398.89 140.11 1407.98"
/>
<path stroke="#708389" vector-effect="non-scaling-stroke" d="
  M 149.06 1412.14
  Q 150.45 1416.50 150.70 1418.04
  Q 152.05 1426.27 146.03 1433.00"
/>
</g>
<path fill="#b4b8ca" d="
  M 34.17 0.00
  C 27.37 5.96 24.70 15.25 24.18 24.27
  Q 23.73 31.98 23.29 43.09
  C 22.77 56.14 23.21 69.39 23.27 83.00
  Q 23.31 89.78 26.13 99.87
  Q 23.33 99.70 21.72 101.15
  Q 17.14 95.05 17.05 87.75
  Q 16.86 73.73 17.97 56.31
  Q 17.81 55.76 17.87 55.04
  L 18.87 34.21
  L 18.94 31.27
  L 19.06 29.30
  L 19.17 25.47
  L 19.88 13.23
  Q 20.29 12.94 20.19 12.20
  Q 22.62 3.05 31.79 0.00
  L 34.17 0.00
  Z"
/>
<path fill="#7a8283" d="
  M 39.45 0.00
  Q 39.42 0.06 39.39 0.12
  Q 43.51 4.16 45.14 8.19
  C 49.70 19.50 48.70 31.75 48.93 43.77
  C 49.16 56.33 48.27 69.76 47.89 82.76
  Q 47.68 89.86 44.55 100.07
  L 26.13 99.87
  Q 23.31 89.78 23.27 83.00
  C 23.21 69.39 22.77 56.14 23.29 43.09
  Q 23.73 31.98 24.18 24.27
  C 24.70 15.25 27.37 5.96 34.17 0.00
  L 39.45 0.00
  Z"
/>
<path fill="#57666a" d="
  M 50.08 101.24
  L 49.25 100.56
  Q 46.92 99.86 44.55 100.07
  Q 47.68 89.86 47.89 82.76
  C 48.27 69.76 49.16 56.33 48.93 43.77
  C 48.70 31.75 49.70 19.50 45.14 8.19
  Q 43.51 4.16 39.39 0.12
  Q 47.24 2.03 50.44 8.64
  Q 52.10 12.05 52.46 20.20
  Q 53.87 51.71 54.92 83.25
  Q 55.26 93.58 50.08 101.24
  Z"
/>
<path fill="#687a7f" d="
  M 20.19 12.20
  Q 20.29 12.94 19.88 13.23
  L 20.19 12.20
  Z"
/>
<path fill="#687a7f" d="
  M 19.17 25.47
  L 19.06 29.30
  L 19.17 25.47
  Z"
/>
<path fill="#57666a" d="
  M 18.94 31.27
  L 18.87 34.21
  L 18.94 31.27
  Z"
/>
<path fill="#888e95" d="
  M 17.87 55.04
  Q 17.81 55.76 17.97 56.31
  Q 17.79 55.77 17.87 55.04
  Z"
/>
<path fill="#d9e3ee" d="
  M 26.13 99.87
  L 44.55 100.07
  Q 46.92 99.86 49.25 100.56
  Q 47.64 101.20 47.86 103.80
  L 45.52 104.12
  L 23.74 104.25
  L 23.11 103.98
  Q 21.85 102.74 21.72 101.15
  Q 23.33 99.70 26.13 99.87
  Z"
/>
<path fill="#b4b8ca" d="
  M 50.08 101.24
  Q 50.24 102.93 48.98 103.98
  Q 48.20 104.20 47.86 103.80
  Q 47.64 101.20 49.25 100.56
  L 50.08 101.24
  Z"
/>
<path fill="#57666a" d="
  M 47.86 103.80
  Q 48.20 104.20 48.98 103.98
  Q 56.46 107.52 57.93 116.00
  Q 58.20 117.54 57.92 123.61
  L 52.27 122.98
  Q 54.55 114.25 49.41 107.60
  Q 47.93 105.68 45.52 104.12
  L 47.86 103.80
  Z"
/>
<path fill="#b4b8ca" d="
  M 23.74 104.25
  L 24.27 104.69
  A 0.52 0.52 0.0 0 1 24.31 105.45
  Q 17.23 112.68 19.59 123.04
  L 14.07 123.80
  Q 13.88 118.20 14.05 116.50
  Q 14.96 107.77 23.11 103.98
  L 23.74 104.25
  Z"
/>
<path fill="#7a8283" d="
  M 45.52 104.12
  Q 47.93 105.68 49.41 107.60
  Q 54.55 114.25 52.27 122.98
  L 45.17 123.57
  Q 39.26 122.59 33.92 123.30
  L 19.59 123.04
  Q 17.23 112.68 24.31 105.45
  A 0.52 0.52 0.0 0 0 24.27 104.69
  L 23.74 104.25
  L 45.52 104.12
  Z"
/>
<path fill="#c6d2df" d="
  M 19.59 123.04
  L 33.92 123.30
  Q 28.35 124.06 24.67 125.43
  C 12.13 130.08 3.68 142.35 6.64 155.94
  A 0.89 0.89 0.0 0 0 8.08 156.43
  Q 15.65 150.07 24.56 146.83
  Q 43.58 139.92 64.06 135.88
  L 71.11 134.53
  L 76.51 133.80
  A 0.66 0.50 -52.8 0 0 76.69 133.75
  C 79.24 132.77 81.52 133.29 84.01 132.49
  Q 85.52 132.01 89.39 131.95
  A 4.72 4.66 35.1 0 0 90.81 131.71
  C 93.85 130.69 97.46 131.28 100.71 130.50
  Q 103.18 129.90 108.09 129.99
  A 6.30 6.26 -51.8 0 0 109.88 129.77
  Q 112.63 129.03 117.95 129.05
  Q 120.91 129.06 126.03 128.57
  Q 135.61 127.65 145.19 128.07
  Q 144.73 138.50 147.78 149.06
  Q 138.85 149.36 130.27 149.86
  C 103.32 151.43 75.41 155.51 49.87 165.08
  C 40.15 168.72 27.40 175.53 24.10 186.15
  Q 14.18 176.06 4.00 166.00
  Q 3.03 165.04 0.31 164.51
  Q 0.24 163.75 0.00 163.53
  L 0.00 139.54
  Q 2.88 127.64 14.07 123.80
  L 19.59 123.04
  Z"
/>
<path fill="#bac1cb" d="
  M 45.17 123.57
  Q 48.89 124.94 52.38 126.47
  Q 59.49 129.57 64.06 135.88
  Q 43.58 139.92 24.56 146.83
  Q 15.65 150.07 8.08 156.43
  A 0.89 0.89 0.0 0 1 6.64 155.94
  C 3.68 142.35 12.13 130.08 24.67 125.43
  Q 28.35 124.06 33.92 123.30
  Q 39.26 122.59 45.17 123.57
  Z"
/>
<path fill="#8e92a5" d="
  M 52.27 122.98
  L 57.92 123.61
  Q 66.88 126.25 71.11 134.53
  L 64.06 135.88
  Q 59.49 129.57 52.38 126.47
  Q 48.89 124.94 45.17 123.57
  L 52.27 122.98
  Z"
/>
<path fill="#b4b8ca" d="
  M 169.79 128.04
  C 170.17 135.31 169.04 142.09 167.28 149.09
  Q 166.47 151.26 165.39 153.70
  C 161.34 162.94 154.10 163.34 149.84 154.20
  Q 148.96 152.31 147.78 149.06
  Q 144.73 138.50 145.19 128.07
  L 169.79 128.04
  Z"
/>
<path fill="#c6d2df" d="
  M 313.27 162.84
  L 291.02 186.26
  Q 288.45 178.88 282.48 174.51
  C 270.17 165.51 253.75 160.43 238.44 157.11
  C 215.06 152.04 191.34 149.73 167.28 149.09
  C 169.04 142.09 170.17 135.31 169.79 128.04
  C 176.96 127.90 184.08 127.97 191.22 128.77
  C 195.85 129.29 199.99 128.78 204.92 129.74
  A 13.68 13.30 49.7 0 0 207.70 130.01
  C 212.03 129.99 215.70 130.85 220.67 131.22
  Q 229.75 131.89 250.75 135.76
  Q 269.88 139.29 289.25 146.25
  Q 299.86 150.06 308.56 157.44
  Q 311.26 159.73 313.27 162.84
  Z"
/>
<path fill="#d9e3ee" d="
  M 291.02 186.26
  L 290.94 307.86
  Q 285.97 303.70 280.88 301.64
  Q 266.55 295.84 254.27 293.86
  Q 224.29 289.02 192.49 287.72
  C 152.40 286.08 112.22 286.95 72.50 291.97
  Q 52.66 294.48 35.22 301.14
  Q 29.30 303.40 24.09 307.77
  L 24.10 186.15
  C 27.40 175.53 40.15 168.72 49.87 165.08
  C 75.41 155.51 103.32 151.43 130.27 149.86
  Q 138.85 149.36 147.78 149.06
  Q 148.96 152.31 149.84 154.20
  C 154.10 163.34 161.34 162.94 165.39 153.70
  Q 166.47 151.26 167.28 149.09
  C 191.34 149.73 215.06 152.04 238.44 157.11
  C 253.75 160.43 270.17 165.51 282.48 174.51
  Q 288.45 178.88 291.02 186.26
  Z
  M 70.0000 211.0000
  A 87.50 46.00 -180.0 0 0 157.5000 257.0000
  A 87.50 46.00 -180.0 0 0 245.0000 211.0000
  A 87.50 46.00 -180.0 0 0 157.5000 165.0000
  A 87.50 46.00 -180.0 0 0 70.0000 211.0000
  Z
  M 67.6296 262.6901
  A 0.48 0.48 0.0 0 0 67.1454 262.2143
  L 52.0660 262.3459
  A 0.48 0.48 0.0 0 0 51.5902 262.8300
  L 51.6104 265.1499
  A 0.48 0.48 0.0 0 0 52.0946 265.6257
  L 67.1740 265.4941
  A 0.48 0.48 0.0 0 0 67.6498 265.0100
  L 67.6296 262.6901
  Z
  M 81.9543 262.7368
  A 0.61 0.61 0.0 0 0 81.3432 262.1278
  L 78.8432 262.1322
  A 0.61 0.61 0.0 0 0 78.2343 262.7433
  L 78.2457 269.3032
  A 0.61 0.61 0.0 0 0 78.8568 269.9122
  L 81.3568 269.9078
  A 0.61 0.61 0.0 0 0 81.9657 269.2967
  L 81.9543 262.7368
  Z
  M 100.16 272.20
  Q 103.81 276.80 105.88 279.34
  A 1.49 1.47 70.2 0 0 107.03 279.89
  L 109.26 279.89
  A 0.68 0.67 90.0 0 0 109.93 279.21
  L 109.93 262.67
  A 0.59 0.59 0.0 0 0 109.34 262.08
  L 107.12 262.08
  A 0.66 0.66 0.0 0 0 106.46 262.74
  L 106.46 273.31
  A 0.30 0.30 0.0 0 1 105.93 273.49
  Q 105.59 273.07 102.98 269.76
  Q 99.33 265.16 97.26 262.62
  A 1.49 1.47 70.2 0 0 96.11 262.07
  L 93.88 262.07
  A 0.68 0.67 90.0 0 0 93.21 262.75
  L 93.21 279.29
  A 0.59 0.59 0.0 0 0 93.80 279.88
  L 96.02 279.88
  A 0.66 0.66 0.0 0 0 96.68 279.22
  L 96.68 268.65
  A 0.30 0.30 0.0 0 1 97.21 268.47
  Q 97.55 268.90 100.16 272.20
  Z
  M 47.67 279.90
  A 0.36 0.36 0.0 0 0 47.93 279.29
  L 43.37 274.73
  A 0.42 0.42 0.0 0 1 43.45 274.08
  C 46.95 271.92 48.36 267.72 45.48 264.27
  C 43.11 261.44 35.50 262.22 31.89 262.34
  A 0.80 0.80 0.0 0 0 31.11 263.14
  L 31.11 279.24
  A 0.67 0.67 0.0 0 0 31.78 279.91
  L 33.93 279.91
  A 0.64 0.64 0.0 0 0 34.57 279.27
  L 34.57 274.98
  A 0.60 0.59 -3.9 0 1 35.09 274.39
  Q 37.45 274.11 38.02 274.68
  Q 40.57 277.20 42.33 279.04
  A 2.81 2.77 -21.5 0 0 44.35 279.90
  L 47.67 279.90
  Z
  M 80.00 276.42
  C 75.46 276.41 72.43 270.94 75.45 267.27
  A 1.13 1.12 42.1 0 0 75.37 265.76
  L 74.03 264.41
  A 0.96 0.95 38.3 0 0 72.55 264.58
  Q 67.36 272.94 75.19 278.87
  Q 76.56 279.91 79.99 279.92
  Q 83.43 279.92 84.80 278.90
  Q 92.66 273.00 87.50 264.61
  A 0.96 0.95 -38.1 0 0 86.03 264.44
  L 84.68 265.78
  A 1.13 1.12 -41.9 0 0 84.60 267.29
  C 87.60 270.98 84.54 276.43 80.00 276.42
  Z
  M 67.01 279.91
  A 0.61 0.61 0.0 0 0 67.62 279.30
  L 67.62 276.99
  A 0.61 0.61 0.0 0 0 67.01 276.38
  L 55.67 276.38
  A 0.61 0.61 0.0 0 1 55.06 275.77
  L 55.06 273.40
  A 0.61 0.61 0.0 0 1 55.67 272.79
  L 63.43 272.79
  A 0.61 0.61 0.0 0 0 64.04 272.18
  L 64.04 269.90
  A 0.61 0.61 0.0 0 0 63.43 269.29
  L 52.07 269.29
  A 0.61 0.61 0.0 0 0 51.46 269.90
  L 51.46 279.30
  A 0.61 0.61 0.0 0 0 52.07 279.91
  L 67.01 279.91
  Z"
/>
<path fill="#bac1cb" d="
  M 315.01 526.05
  L 315.01 566.97
  Q 315.00 854.60 315.00 1142.24
  C 315.00 1145.26 314.48 1148.80 313.64 1151.13
  Q 306.37 1171.29 284.72 1175.71
  Q 281.94 1176.28 280.46 1175.50
  Q 156.79 1174.70 32.97 1175.55
  Q 19.94 1175.37 9.30 1164.55
  L 32.37 1137.70
  Q 33.87 1138.98 35.40 1140.34
  Q 41.57 1145.85 49.20 1147.40
  Q 52.02 1147.98 64.84 1147.99
  Q 106.95 1148.03 149.20 1148.00
  Q 149.39 1154.13 150.71 1160.25
  C 151.33 1163.13 154.94 1175.20 159.94 1171.30
  C 165.10 1167.27 166.63 1154.25 166.80 1148.02
  Q 209.83 1148.00 252.71 1148.00
  Q 261.91 1148.00 264.27 1147.68
  C 276.35 1146.03 286.07 1136.36 289.44 1125.20
  Q 291.01 1120.02 291.01 1106.11
  Q 291.03 838.75 291.00 571.16
  Q 300.05 562.47 302.32 551.14
  Q 302.99 547.80 302.99 529.81
  Q 303.02 433.42 303.01 337.04
  Q 303.00 319.48 290.94 307.86
  L 291.02 186.26
  L 313.27 162.84
  Q 315.00 163.83 315.00 166.50
  Q 314.99 346.29 315.01 526.05
  Z"
/>
<path fill="#eff3f6" d="
  M 24.10 186.15
  L 24.09 307.77
  Q 12.01 319.23 12.01 336.50
  Q 12.01 442.50 11.97 548.52
  A 5.01 4.55 -53.6 0 0 12.07 549.50
  Q 14.82 562.50 24.05 571.37
  Q 23.99 840.44 24.01 1108.88
  Q 24.01 1118.03 24.73 1121.57
  C 26.08 1128.10 28.63 1132.29 32.37 1137.70
  L 9.30 1164.55
  Q 1.64 1156.59 0.00 1144.81
  L 0.00 166.01
  Q 0.32 165.40 0.31 164.51
  Q 3.03 165.04 4.00 166.00
  Q 14.18 176.06 24.10 186.15
  Z"
/>
<path fill="#b4b8ca" d="
  M 70.0000 211.0000
  A 87.50 46.00 -180.0 0 1 157.5000 165.0000
  A 87.50 46.00 -180.0 0 1 245.0000 211.0000
  A 87.50 46.00 -180.0 0 1 157.5000 257.0000
  A 87.50 46.00 -180.0 0 1 70.0000 211.0000
  Z
  M 207.01 219.00
  A 49.51 31.00 0.0 0 0 157.50 188.00
  A 49.51 31.00 0.0 0 0 107.99 219.00
  A 49.51 31.00 0.0 0 0 157.50 250.00
  A 49.51 31.00 0.0 0 0 207.01 219.00
  Z"
/>
<path fill="#8e92a5" d="
  M 207.01 219.00
  A 49.51 31.00 0.0 0 1 157.50 250.00
  A 49.51 31.00 0.0 0 1 107.99 219.00
  A 49.51 31.00 0.0 0 1 157.50 188.00
  A 49.51 31.00 0.0 0 1 207.01 219.00
  Z
  M 122.8417 207.9896
  A 13.56 5.93 -94.9 0 0 118.0917 222.0065
  A 13.56 5.93 -94.9 0 0 125.1583 235.0104
  A 13.56 5.93 -94.9 0 0 129.9083 220.9935
  A 13.56 5.93 -94.9 0 0 122.8417 207.9896
  Z
  M 193.1347 207.9876
  A 13.56 5.90 -85.2 0 0 186.1207 221.0063
  A 13.56 5.90 -85.2 0 0 190.8653 235.0124
  A 13.56 5.90 -85.2 0 0 197.8793 221.9937
  A 13.56 5.90 -85.2 0 0 193.1347 207.9876
  Z"
/>
<ellipse fill="#57666a" cx="0.00" cy="0.00" transform="translate(124.00,221.50) rotate(-94.9)" rx="13.56" ry="5.93"/>
<ellipse fill="#57666a" cx="0.00" cy="0.00" transform="translate(192.00,221.50) rotate(-85.2)" rx="13.56" ry="5.90"/>
<rect fill="#b4b8ca" x="-8.02" y="-1.64" transform="translate(59.62,263.92) rotate(-0.5)" width="16.04" height="3.28" rx="0.48"/>
<rect fill="#b4b8ca" x="-1.86" y="-3.89" transform="translate(80.10,266.02) rotate(-0.1)" width="3.72" height="7.78" rx="0.61"/>
<path fill="#b4b8ca" d="
  M 102.98 269.76
  Q 105.59 273.07 105.93 273.49
  A 0.30 0.30 0.0 0 0 106.46 273.31
  L 106.46 262.74
  A 0.66 0.66 0.0 0 1 107.12 262.08
  L 109.34 262.08
  A 0.59 0.59 0.0 0 1 109.93 262.67
  L 109.93 279.21
  A 0.68 0.67 -90.0 0 1 109.26 279.89
  L 107.03 279.89
  A 1.49 1.47 70.2 0 1 105.88 279.34
  Q 103.81 276.80 100.16 272.20
  Q 97.55 268.90 97.21 268.47
  A 0.30 0.30 0.0 0 0 96.68 268.65
  L 96.68 279.22
  A 0.66 0.66 0.0 0 1 96.02 279.88
  L 93.80 279.88
  A 0.59 0.59 0.0 0 1 93.21 279.29
  L 93.21 262.75
  A 0.68 0.67 -90.0 0 1 93.88 262.07
  L 96.11 262.07
  A 1.49 1.47 70.2 0 1 97.26 262.62
  Q 99.33 265.16 102.98 269.76
  Z"
/>
<path fill="#b4b8ca" d="
  M 47.67 279.90
  L 44.35 279.90
  A 2.81 2.77 -21.5 0 1 42.33 279.04
  Q 40.57 277.20 38.02 274.68
  Q 37.45 274.11 35.09 274.39
  A 0.60 0.59 -3.9 0 0 34.57 274.98
  L 34.57 279.27
  A 0.64 0.64 0.0 0 1 33.93 279.91
  L 31.78 279.91
  A 0.67 0.67 0.0 0 1 31.11 279.24
  L 31.11 263.14
  A 0.80 0.80 0.0 0 1 31.89 262.34
  C 35.50 262.22 43.11 261.44 45.48 264.27
  C 48.36 267.72 46.95 271.92 43.45 274.08
  A 0.42 0.42 0.0 0 0 43.37 274.73
  L 47.93 279.29
  A 0.36 0.36 0.0 0 1 47.67 279.90
  Z
  M 34.58 266.11
  L 34.52 270.17
  A 0.75 0.75 0.0 0 0 35.26 270.93
  L 40.61 271.00
  A 3.04 2.59 0.8 0 0 43.69 268.45
  L 43.69 268.07
  A 3.04 2.59 0.8 0 0 40.69 265.44
  L 35.34 265.37
  A 0.75 0.75 0.0 0 0 34.58 266.11
  Z"
/>
<path fill="#b4b8ca" d="
  M 79.99 279.92
  Q 76.56 279.91 75.19 278.87
  Q 67.36 272.94 72.55 264.58
  A 0.96 0.95 38.3 0 1 74.03 264.41
  L 75.37 265.76
  A 1.13 1.12 42.1 0 1 75.45 267.27
  C 72.43 270.94 75.46 276.41 80.00 276.42
  C 84.54 276.43 87.60 270.98 84.60 267.29
  A 1.13 1.12 -41.9 0 1 84.68 265.78
  L 86.03 264.44
  A 0.96 0.95 -38.1 0 1 87.50 264.61
  Q 92.66 273.00 84.80 278.90
  Q 83.43 279.92 79.99 279.92
  Z"
/>
<path fill="#d9e3ee" d="
  M 34.58 266.11
  A 0.75 0.75 0.0 0 1 35.34 265.37
  L 40.69 265.44
  A 3.04 2.59 0.8 0 1 43.69 268.07
  L 43.69 268.45
  A 3.04 2.59 0.8 0 1 40.61 271.00
  L 35.26 270.93
  A 0.75 0.75 0.0 0 1 34.52 270.17
  L 34.58 266.11
  Z"
/>
<path fill="#b4b8ca" d="
  M 67.01 279.91
  L 52.07 279.91
  A 0.61 0.61 0.0 0 1 51.46 279.30
  L 51.46 269.90
  A 0.61 0.61 0.0 0 1 52.07 269.29
  L 63.43 269.29
  A 0.61 0.61 0.0 0 1 64.04 269.90
  L 64.04 272.18
  A 0.61 0.61 0.0 0 1 63.43 272.79
  L 55.67 272.79
  A 0.61 0.61 0.0 0 0 55.06 273.40
  L 55.06 275.77
  A 0.61 0.61 0.0 0 0 55.67 276.38
  L 67.01 276.38
  A 0.61 0.61 0.0 0 1 67.62 276.99
  L 67.62 279.30
  A 0.61 0.61 0.0 0 1 67.01 279.91
  Z"
/>
<path fill="#b4b8ca" d="
  M 290.94 307.86
  Q 303.00 319.48 303.01 337.04
  Q 303.02 433.42 302.99 529.81
  Q 302.99 547.80 302.32 551.14
  Q 300.05 562.47 291.00 571.16
  C 263.13 592.23 227.64 600.66 193.26 604.19
  Q 143.38 609.32 94.55 600.16
  C 69.24 595.41 45.47 586.88 24.05 571.37
  Q 14.82 562.50 12.07 549.50
  A 5.01 4.55 -53.6 0 1 11.97 548.52
  Q 12.01 442.50 12.01 336.50
  Q 12.01 319.23 24.09 307.77
  Q 29.30 303.40 35.22 301.14
  Q 52.66 294.48 72.50 291.97
  C 112.22 286.95 152.40 286.08 192.49 287.72
  Q 224.29 289.02 254.27 293.86
  Q 266.55 295.84 280.88 301.64
  Q 285.97 303.70 290.94 307.86
  Z
  M 282.94 351.03
  A 20.06 20.06 0.0 0 0 262.88 330.97
  L 51.06 330.97
  A 20.06 20.06 0.0 0 0 31.00 351.03
  L 31.00 541.95
  A 20.06 20.06 0.0 0 0 51.06 562.01
  L 262.88 562.01
  A 20.06 20.06 0.0 0 0 282.94 541.95
  L 282.94 351.03
  Z"
/>
<rect fill="#819486" x="31.00" y="330.97" width="251.94" height="231.04" rx="20.06"/>
<path fill="#8e92a5" d="
  M 321.00 531.02
  L 321.00 561.98
  Q 319.64 566.76 315.01 566.97
  L 315.01 526.05
  Q 319.66 526.28 321.00 531.02
  Z"
/>
<path fill="#d9e3ee" d="
  M 291.00 571.16
  Q 291.03 838.75 291.01 1106.11
  Q 291.01 1120.02 289.44 1125.20
  C 286.07 1136.36 276.35 1146.03 264.27 1147.68
  Q 261.91 1148.00 252.71 1148.00
  Q 209.83 1148.00 166.80 1148.02
  Q 167.72 1135.20 164.27 1122.50
  C 163.22 1118.63 158.89 1109.24 154.27 1116.75
  C 149.19 1125.03 148.50 1138.45 149.20 1148.00
  Q 106.95 1148.03 64.84 1147.99
  Q 52.02 1147.98 49.20 1147.40
  Q 41.57 1145.85 35.40 1140.34
  Q 33.87 1138.98 32.37 1137.70
  C 28.63 1132.29 26.08 1128.10 24.73 1121.57
  Q 24.01 1118.03 24.01 1108.88
  Q 23.99 840.44 24.05 571.37
  C 45.47 586.88 69.24 595.41 94.55 600.16
  Q 143.38 609.32 193.26 604.19
  C 227.64 600.66 263.13 592.23 291.00 571.16
  Z
  M 35.3277 622.1807
  A 27.36 22.37 -140.7 0 0 42.3313 656.8208
  A 27.36 22.37 -140.7 0 0 77.6723 656.8393
  A 27.36 22.37 -140.7 0 0 70.6687 622.1992
  A 27.36 22.37 -140.7 0 0 35.3277 622.1807
  Z
  M 279.7559 622.2358
  A 27.39 22.38 -39.1 0 0 244.3855 622.1421
  A 27.39 22.38 -39.1 0 0 237.2441 656.7842
  A 27.39 22.38 -39.1 0 0 272.6145 656.8779
  A 27.39 22.38 -39.1 0 0 279.7559 622.2358
  Z
  M 112.52 639.79
  C 101.28 647.70 92.75 659.93 93.04 674.07
  C 93.13 678.96 92.77 683.34 93.68 688.04
  Q 96.24 701.26 103.13 712.87
  C 105.29 716.51 107.96 719.17 110.09 722.24
  C 131.36 752.78 186.46 752.47 207.85 722.38
  C 210.44 718.73 213.17 715.25 215.31 711.32
  C 219.38 703.83 223.24 693.96 223.79 685.44
  C 224.10 680.60 225.20 676.10 224.93 671.53
  C 223.73 651.34 205.83 636.94 188.12 630.88
  C 163.65 622.50 134.15 624.57 112.52 639.79
  Z
  M 44.03 793.00
  C 44.03 805.65 53.97 814.84 66.51 814.99
  Q 67.19 815.00 79.00 815.00
  Q 90.81 815.00 91.49 814.99
  C 104.02 814.85 113.97 805.65 113.97 793.00
  C 113.97 780.36 104.03 771.16 91.49 771.01
  Q 90.81 771.00 79.00 771.00
  Q 67.19 771.00 66.51 771.01
  C 53.97 771.16 44.03 780.36 44.03 793.00
  Z
  M 202.03 793.00
  C 202.03 805.65 211.97 814.84 224.51 814.99
  Q 225.19 815.00 237.00 815.00
  Q 248.81 815.00 249.49 814.99
  C 262.03 814.85 271.97 805.65 271.97 793.00
  C 271.97 780.36 262.03 771.16 249.49 771.01
  Q 248.81 771.00 237.00 771.00
  Q 225.19 771.00 224.51 771.01
  C 211.98 771.16 202.03 780.36 202.03 793.00
  Z
  M 44.03 848.00
  C 44.03 860.65 53.97 869.85 66.51 869.99
  Q 67.19 870.00 79.00 870.00
  Q 90.81 870.00 91.49 869.99
  C 104.03 869.85 113.97 860.65 113.97 848.00
  C 113.97 835.36 104.03 826.16 91.49 826.01
  Q 90.81 826.00 79.00 826.00
  Q 67.19 826.00 66.51 826.01
  C 53.98 826.16 44.03 835.36 44.03 848.00
  Z
  M 123.03 848.00
  C 123.03 860.65 132.97 869.85 145.51 869.99
  Q 146.19 870.00 158.00 870.00
  Q 169.81 870.00 170.49 869.99
  C 183.03 869.85 192.97 860.65 192.97 848.00
  C 192.97 835.36 183.03 826.16 170.49 826.01
  Q 169.81 826.00 158.00 826.00
  Q 146.19 826.00 145.51 826.01
  C 132.97 826.16 123.03 835.36 123.03 848.00
  Z
  M 202.03 848.00
  C 202.03 860.65 211.97 869.85 224.51 869.99
  Q 225.19 870.00 237.00 870.00
  Q 248.81 870.00 249.49 869.99
  C 262.03 869.85 271.97 860.65 271.97 848.00
  C 271.97 835.36 262.03 826.16 249.49 826.01
  Q 248.81 826.00 237.00 826.00
  Q 225.19 826.00 224.51 826.01
  C 211.97 826.16 202.03 835.36 202.03 848.00
  Z
  M 44.03 903.00
  C 44.03 915.65 53.97 924.84 66.51 924.99
  Q 67.19 925.00 79.00 925.00
  Q 90.81 925.00 91.49 924.99
  C 104.03 924.85 113.97 915.65 113.97 903.00
  C 113.97 890.36 104.03 881.16 91.49 881.01
  Q 90.81 881.00 79.00 881.00
  Q 67.19 881.00 66.51 881.01
  C 53.98 881.16 44.03 890.36 44.03 903.00
  Z
  M 123.03 903.00
  C 123.03 915.65 132.97 924.84 145.51 924.99
  Q 146.19 925.00 158.00 925.00
  Q 169.81 925.00 170.49 924.99
  C 183.03 924.85 192.97 915.65 192.97 903.00
  C 192.97 890.36 183.03 881.16 170.49 881.01
  Q 169.81 881.00 158.00 881.00
  Q 146.19 881.00 145.51 881.01
  C 132.97 881.16 123.03 890.36 123.03 903.00
  Z
  M 202.03 903.00
  C 202.03 915.65 211.97 924.84 224.51 924.99
  Q 225.19 925.00 237.00 925.00
  Q 248.81 925.00 249.49 924.99
  C 262.03 924.85 271.97 915.65 271.97 903.00
  C 271.97 890.36 262.03 881.16 249.49 881.01
  Q 248.81 881.00 237.00 881.00
  Q 225.19 881.00 224.51 881.01
  C 211.98 881.16 202.03 890.36 202.03 903.00
  Z
  M 44.03 958.00
  C 44.03 970.65 53.97 979.84 66.51 979.99
  Q 67.19 980.00 79.00 980.00
  Q 90.81 980.00 91.49 979.99
  C 104.03 979.85 113.97 970.65 113.97 958.00
  C 113.97 945.36 104.03 936.16 91.49 936.01
  Q 90.81 936.00 79.00 936.00
  Q 67.19 936.00 66.51 936.01
  C 53.98 936.16 44.03 945.36 44.03 958.00
  Z
  M 123.03 958.00
  C 123.03 970.65 132.97 979.84 145.51 979.99
  Q 146.19 980.00 158.00 980.00
  Q 169.81 980.00 170.49 979.99
  C 183.03 979.85 192.97 970.65 192.97 958.00
  C 192.97 945.36 183.03 936.16 170.49 936.01
  Q 169.81 936.00 158.00 936.00
  Q 146.19 936.00 145.51 936.01
  C 132.97 936.16 123.03 945.36 123.03 958.00
  Z
  M 202.03 958.00
  C 202.03 970.65 211.97 979.85 224.51 979.99
  Q 225.19 980.00 237.00 980.00
  Q 248.81 980.00 249.49 979.99
  C 262.03 979.85 271.97 970.65 271.97 958.00
  C 271.97 945.36 262.03 936.16 249.49 936.01
  Q 248.81 936.00 237.00 936.00
  Q 225.19 936.00 224.51 936.01
  C 211.98 936.16 202.03 945.36 202.03 958.00
  Z
  M 44.03 1013.00
  C 44.03 1025.65 53.97 1034.84 66.51 1034.99
  Q 67.19 1035.00 79.00 1035.00
  Q 90.81 1035.00 91.49 1034.99
  C 104.03 1034.85 113.97 1025.65 113.97 1013.00
  C 113.97 1000.36 104.03 991.16 91.49 991.01
  Q 90.81 991.00 79.00 991.00
  Q 67.19 991.00 66.51 991.01
  C 53.97 991.16 44.03 1000.36 44.03 1013.00
  Z
  M 123.03 1013.00
  C 123.03 1025.65 132.97 1034.85 145.51 1034.99
  Q 146.19 1035.00 158.00 1035.00
  Q 169.81 1035.00 170.49 1034.99
  C 183.03 1034.85 192.97 1025.65 192.97 1013.00
  C 192.97 1000.36 183.03 991.16 170.49 991.01
  Q 169.81 991.00 158.00 991.00
  Q 146.19 991.00 145.51 991.01
  C 132.97 991.16 123.03 1000.36 123.03 1013.00
  Z
  M 202.03 1013.00
  C 202.03 1025.65 211.97 1034.84 224.51 1034.99
  Q 225.19 1035.00 237.00 1035.00
  Q 248.81 1035.00 249.49 1034.99
  C 262.03 1034.85 271.97 1025.65 271.97 1013.00
  C 271.97 1000.36 262.03 991.16 249.49 991.01
  Q 248.81 991.00 237.00 991.00
  Q 225.19 991.00 224.51 991.01
  C 211.98 991.16 202.03 1000.36 202.03 1013.00
  Z
  M 44.03 1067.00
  C 44.03 1079.65 53.97 1088.84 66.51 1088.99
  Q 67.19 1089.00 79.00 1089.00
  Q 90.81 1089.00 91.49 1088.99
  C 104.03 1088.85 113.97 1079.65 113.97 1067.00
  C 113.97 1054.36 104.03 1045.16 91.49 1045.01
  Q 90.81 1045.00 79.00 1045.00
  Q 67.19 1045.00 66.51 1045.01
  C 53.98 1045.16 44.03 1054.36 44.03 1067.00
  Z
  M 202.03 1067.00
  C 202.03 1079.65 211.97 1088.84 224.51 1088.99
  Q 225.19 1089.00 237.00 1089.00
  Q 248.81 1089.00 249.49 1088.99
  C 262.03 1088.85 271.97 1079.65 271.97 1067.00
  C 271.97 1054.36 262.03 1045.16 249.49 1045.01
  Q 248.81 1045.00 237.00 1045.00
  Q 225.19 1045.00 224.51 1045.01
  C 211.98 1045.16 202.03 1054.36 202.03 1067.00
  Z"
/>
<ellipse fill="#b4b8ca" cx="0.00" cy="0.00" transform="translate(56.50,639.51) rotate(-140.7)" rx="27.36" ry="22.37"/>
<ellipse fill="#b4b8ca" cx="0.00" cy="0.00" transform="translate(258.50,639.51) rotate(-39.1)" rx="27.39" ry="22.38"/>
<path fill="#b4b8ca" d="
  M 93.04 674.07
  C 92.75 659.93 101.28 647.70 112.52 639.79
  C 134.15 624.57 163.65 622.50 188.12 630.88
  C 205.83 636.94 223.73 651.34 224.93 671.53
  C 225.20 676.10 224.10 680.60 223.79 685.44
  C 223.24 693.96 219.38 703.83 215.31 711.32
  C 213.17 715.25 210.44 718.73 207.85 722.38
  C 186.46 752.47 131.36 752.78 110.09 722.24
  C 107.96 719.17 105.29 716.51 103.13 712.87
  Q 96.24 701.26 93.68 688.04
  C 92.77 683.34 93.13 678.96 93.04 674.07
  Z
  M 157.77 735.95
  Q 171.01 736.27 181.03 727.01
  Q 190.60 718.17 197.80 705.48
  Q 204.98 692.81 205.07 682.26
  C 205.28 657.59 183.34 640.60 160.09 640.04
  C 136.83 639.48 114.10 655.39 113.11 680.04
  Q 112.70 690.58 119.26 703.58
  Q 125.83 716.61 134.96 725.90
  Q 144.53 735.63 157.77 735.95
  Z"
/>
<path fill="#8e92a5" d="
  M 160.09 640.04
  C 183.34 640.60 205.28 657.59 205.07 682.26
  Q 204.98 692.81 197.80 705.48
  Q 190.60 718.17 181.03 727.01
  Q 171.01 736.27 157.77 735.95
  Q 144.53 735.63 134.96 725.90
  Q 125.83 716.61 119.26 703.58
  Q 112.70 690.58 113.11 680.04
  C 114.10 655.39 136.83 639.48 160.09 640.04
  Z"
/>
<path fill="#888e95" d="
  M 79.00 771.00
  Q 90.81 771.00 91.49 771.01
  C 104.03 771.16 113.97 780.36 113.97 793.00
  C 113.97 805.65 104.02 814.85 91.49 814.99
  Q 90.81 815.00 79.00 815.00
  Q 67.19 815.00 66.51 814.99
  C 53.97 814.84 44.03 805.65 44.03 793.00
  C 44.03 780.36 53.97 771.16 66.51 771.01
  Q 67.19 771.00 79.00 771.00
  Z"
/>
<path fill="#888e95" d="
  M 202.03 793.00
  C 202.03 780.36 211.98 771.16 224.51 771.01
  Q 225.19 771.00 237.00 771.00
  Q 248.81 771.00 249.49 771.01
  C 262.03 771.16 271.97 780.36 271.97 793.00
  C 271.97 805.65 262.03 814.85 249.49 814.99
  Q 248.81 815.00 237.00 815.00
  Q 225.19 815.00 224.51 814.99
  C 211.97 814.84 202.03 805.65 202.03 793.00
  Z"
/>
<path fill="#888e95" d="
  M 44.03 848.00
  C 44.03 835.36 53.98 826.16 66.51 826.01
  Q 67.19 826.00 79.00 826.00
  Q 90.81 826.00 91.49 826.01
  C 104.03 826.16 113.97 835.36 113.97 848.00
  C 113.97 860.65 104.03 869.85 91.49 869.99
  Q 90.81 870.00 79.00 870.00
  Q 67.19 870.00 66.51 869.99
  C 53.97 869.85 44.03 860.65 44.03 848.00
  Z"
/>
<path fill="#888e95" d="
  M 123.03 848.00
  C 123.03 835.36 132.97 826.16 145.51 826.01
  Q 146.19 826.00 158.00 826.00
  Q 169.81 826.00 170.49 826.01
  C 183.03 826.16 192.97 835.36 192.97 848.00
  C 192.97 860.65 183.03 869.85 170.49 869.99
  Q 169.81 870.00 158.00 870.00
  Q 146.19 870.00 145.51 869.99
  C 132.97 869.85 123.03 860.65 123.03 848.00
  Z"
/>
<path fill="#888e95" d="
  M 202.03 848.00
  C 202.03 835.36 211.97 826.16 224.51 826.01
  Q 225.19 826.00 237.00 826.00
  Q 248.81 826.00 249.49 826.01
  C 262.03 826.16 271.97 835.36 271.97 848.00
  C 271.97 860.65 262.03 869.85 249.49 869.99
  Q 248.81 870.00 237.00 870.00
  Q 225.19 870.00 224.51 869.99
  C 211.97 869.85 202.03 860.65 202.03 848.00
  Z"
/>
<path fill="#888e95" d="
  M 44.03 903.00
  C 44.03 890.36 53.98 881.16 66.51 881.01
  Q 67.19 881.00 79.00 881.00
  Q 90.81 881.00 91.49 881.01
  C 104.03 881.16 113.97 890.36 113.97 903.00
  C 113.97 915.65 104.03 924.85 91.49 924.99
  Q 90.81 925.00 79.00 925.00
  Q 67.19 925.00 66.51 924.99
  C 53.97 924.84 44.03 915.65 44.03 903.00
  Z"
/>
<path fill="#888e95" d="
  M 123.03 903.00
  C 123.03 890.36 132.97 881.16 145.51 881.01
  Q 146.19 881.00 158.00 881.00
  Q 169.81 881.00 170.49 881.01
  C 183.03 881.16 192.97 890.36 192.97 903.00
  C 192.97 915.65 183.03 924.85 170.49 924.99
  Q 169.81 925.00 158.00 925.00
  Q 146.19 925.00 145.51 924.99
  C 132.97 924.84 123.03 915.65 123.03 903.00
  Z"
/>
<path fill="#888e95" d="
  M 202.03 903.00
  C 202.03 890.36 211.98 881.16 224.51 881.01
  Q 225.19 881.00 237.00 881.00
  Q 248.81 881.00 249.49 881.01
  C 262.03 881.16 271.97 890.36 271.97 903.00
  C 271.97 915.65 262.03 924.85 249.49 924.99
  Q 248.81 925.00 237.00 925.00
  Q 225.19 925.00 224.51 924.99
  C 211.97 924.84 202.03 915.65 202.03 903.00
  Z"
/>
<path fill="#888e95" d="
  M 44.03 958.00
  C 44.03 945.36 53.98 936.16 66.51 936.01
  Q 67.19 936.00 79.00 936.00
  Q 90.81 936.00 91.49 936.01
  C 104.03 936.16 113.97 945.36 113.97 958.00
  C 113.97 970.65 104.03 979.85 91.49 979.99
  Q 90.81 980.00 79.00 980.00
  Q 67.19 980.00 66.51 979.99
  C 53.97 979.84 44.03 970.65 44.03 958.00
  Z"
/>
<path fill="#888e95" d="
  M 123.03 958.00
  C 123.03 945.36 132.97 936.16 145.51 936.01
  Q 146.19 936.00 158.00 936.00
  Q 169.81 936.00 170.49 936.01
  C 183.03 936.16 192.97 945.36 192.97 958.00
  C 192.97 970.65 183.03 979.85 170.49 979.99
  Q 169.81 980.00 158.00 980.00
  Q 146.19 980.00 145.51 979.99
  C 132.97 979.84 123.03 970.65 123.03 958.00
  Z"
/>
<path fill="#888e95" d="
  M 202.03 958.00
  C 202.03 945.36 211.98 936.16 224.51 936.01
  Q 225.19 936.00 237.00 936.00
  Q 248.81 936.00 249.49 936.01
  C 262.03 936.16 271.97 945.36 271.97 958.00
  C 271.97 970.65 262.03 979.85 249.49 979.99
  Q 248.81 980.00 237.00 980.00
  Q 225.19 980.00 224.51 979.99
  C 211.97 979.85 202.03 970.65 202.03 958.00
  Z"
/>
<path fill="#888e95" d="
  M 44.03 1013.00
  C 44.03 1000.36 53.97 991.16 66.51 991.01
  Q 67.19 991.00 79.00 991.00
  Q 90.81 991.00 91.49 991.01
  C 104.03 991.16 113.97 1000.36 113.97 1013.00
  C 113.97 1025.65 104.03 1034.85 91.49 1034.99
  Q 90.81 1035.00 79.00 1035.00
  Q 67.19 1035.00 66.51 1034.99
  C 53.97 1034.84 44.03 1025.65 44.03 1013.00
  Z"
/>
<path fill="#888e95" d="
  M 123.03 1013.00
  C 123.03 1000.36 132.97 991.16 145.51 991.01
  Q 146.19 991.00 158.00 991.00
  Q 169.81 991.00 170.49 991.01
  C 183.03 991.16 192.97 1000.36 192.97 1013.00
  C 192.97 1025.65 183.03 1034.85 170.49 1034.99
  Q 169.81 1035.00 158.00 1035.00
  Q 146.19 1035.00 145.51 1034.99
  C 132.97 1034.85 123.03 1025.65 123.03 1013.00
  Z"
/>
<path fill="#888e95" d="
  M 202.03 1013.00
  C 202.03 1000.36 211.98 991.16 224.51 991.01
  Q 225.19 991.00 237.00 991.00
  Q 248.81 991.00 249.49 991.01
  C 262.03 991.16 271.97 1000.36 271.97 1013.00
  C 271.97 1025.65 262.03 1034.85 249.49 1034.99
  Q 248.81 1035.00 237.00 1035.00
  Q 225.19 1035.00 224.51 1034.99
  C 211.97 1034.84 202.03 1025.65 202.03 1013.00
  Z"
/>
<path fill="#888e95" d="
  M 44.03 1067.00
  C 44.03 1054.36 53.98 1045.16 66.51 1045.01
  Q 67.19 1045.00 79.00 1045.00
  Q 90.81 1045.00 91.49 1045.01
  C 104.03 1045.16 113.97 1054.36 113.97 1067.00
  C 113.97 1079.65 104.03 1088.85 91.49 1088.99
  Q 90.81 1089.00 79.00 1089.00
  Q 67.19 1089.00 66.51 1088.99
  C 53.97 1088.84 44.03 1079.65 44.03 1067.00
  Z"
/>
<path fill="#888e95" d="
  M 202.03 1067.00
  C 202.03 1054.36 211.98 1045.16 224.51 1045.01
  Q 225.19 1045.00 237.00 1045.00
  Q 248.81 1045.00 249.49 1045.01
  C 262.03 1045.16 271.97 1054.36 271.97 1067.00
  C 271.97 1079.65 262.03 1088.85 249.49 1088.99
  Q 248.81 1089.00 237.00 1089.00
  Q 225.19 1089.00 224.51 1088.99
  C 211.97 1088.84 202.03 1079.65 202.03 1067.00
  Z"
/>
<path fill="#b4b8ca" d="
  M 166.80 1148.02
  C 166.63 1154.25 165.10 1167.27 159.94 1171.30
  C 154.94 1175.20 151.33 1163.13 150.71 1160.25
  Q 149.39 1154.13 149.20 1148.00
  C 148.50 1138.45 149.19 1125.03 154.27 1116.75
  C 158.89 1109.24 163.22 1118.63 164.27 1122.50
  Q 167.72 1135.20 166.80 1148.02
  Z"
/>
<path fill="#c6d2df" d="
  M 280.46 1175.50
  Q 262.76 1176.42 244.99 1175.86
  L 231.97 1175.89
  L 85.96 1175.90
  L 72.98 1175.85
  Q 53.01 1176.43 32.97 1175.55
  Q 156.79 1174.70 280.46 1175.50
  Z"
/>
<path fill="#788c92" d="
  M 85.96 1175.90
  Q 85.94 1214.50 86.19 1253.00
  Q 86.30 1269.85 97.66 1281.89
  Q 100.86 1285.29 102.08 1286.39
  A 0.51 0.50 -43.9 0 1 102.06 1287.14
  Q 95.28 1292.78 94.08 1302.31
  Q 92.83 1312.20 87.87 1344.70
  Q 80.74 1338.89 78.11 1331.13
  A 2.60 2.54 40.4 0 1 78.00 1329.93
  Q 79.77 1317.78 82.68 1302.23
  Q 83.63 1297.15 85.17 1294.59
  Q 87.38 1290.91 90.45 1288.45
  A 0.31 0.31 0.0 0 0 90.43 1287.95
  C 83.33 1283.02 77.15 1276.45 74.20 1268.34
  Q 72.98 1264.99 72.99 1258.03
  Q 73.02 1241.33 72.96 1224.79
  L 72.94 1197.30
  L 72.98 1175.85
  L 85.96 1175.90
  Z"
/>
<path fill="#687a7f" d="
  M 231.97 1175.89
  Q 231.97 1213.86 232.12 1251.75
  C 232.17 1265.77 225.84 1277.95 215.20 1287.02
  A 0.55 0.55 0.0 0 0 215.15 1287.81
  Q 216.34 1289.14 217.54 1290.51
  Q 220.97 1294.41 221.85 1300.27
  Q 225.07 1321.71 228.49 1343.52
  Q 224.59 1347.33 219.70 1350.21
  Q 206.99 1357.71 191.98 1361.08
  L 124.73 1361.17
  Q 107.84 1358.30 92.89 1348.60
  Q 89.69 1346.53 87.87 1344.70
  Q 92.83 1312.20 94.08 1302.31
  Q 95.28 1292.78 102.06 1287.14
  A 0.51 0.50 -43.9 0 0 102.08 1286.39
  Q 100.86 1285.29 97.66 1281.89
  Q 86.30 1269.85 86.19 1253.00
  Q 85.94 1214.50 85.96 1175.90
  L 231.97 1175.89
  Z"
/>
<path fill="#57666a" d="
  M 244.99 1175.86
  L 245.04 1196.64
  A 0.50 0.50 0.0 0 0 245.60 1197.13
  C 250.34 1196.53 250.97 1200.66 251.01 1204.77
  Q 251.04 1208.49 250.93 1219.55
  Q 250.87 1224.98 245.54 1224.90
  A 0.57 0.56 0.0 0 0 244.97 1225.46
  Q 245.05 1237.09 244.97 1262.23
  C 244.94 1272.54 235.38 1282.95 227.02 1288.35
  A 0.51 0.51 0.0 0 0 226.96 1289.17
  Q 230.73 1292.44 232.85 1297.68
  A 6.14 5.81 30.4 0 1 233.20 1298.89
  L 237.83 1325.67
  A 5.24 5.18 -44.7 0 1 237.81 1327.59
  Q 236.04 1336.77 228.49 1343.52
  Q 225.07 1321.71 221.85 1300.27
  Q 220.97 1294.41 217.54 1290.51
  Q 216.34 1289.14 215.15 1287.81
  A 0.55 0.55 0.0 0 1 215.20 1287.02
  C 225.84 1277.95 232.17 1265.77 232.12 1251.75
  Q 231.97 1213.86 231.97 1175.89
  L 244.99 1175.86
  Z"
/>
<path fill="#687a7f" d="
  M 72.94 1197.30
  L 72.96 1224.79
  C 68.05 1225.68 66.93 1221.79 66.97 1217.68
  Q 67.03 1210.37 66.98 1203.01
  C 66.96 1199.57 69.09 1196.09 72.94 1197.30
  Z"
/>
<path fill="#57666a" d="
  M 191.98 1361.08
  L 192.07 1364.26
  A 1.19 1.17 22.0 0 0 192.43 1365.08
  C 199.60 1372.12 195.33 1381.30 186.58 1384.33
  A 0.90 0.90 0.0 0 0 185.98 1385.18
  L 185.98 1387.17
  A 1.31 1.27 -67.3 0 0 186.33 1388.06
  Q 191.06 1393.01 189.88 1399.28
  Q 188.48 1406.70 180.47 1409.01
  A 0.69 0.69 0.0 0 0 179.98 1409.67
  L 179.98 1411.63
  A 1.26 1.25 -62.4 0 0 180.20 1412.34
  C 184.96 1419.10 183.79 1430.02 175.13 1433.00
  L 169.11 1433.00
  Q 174.78 1426.91 173.76 1418.96
  Q 173.37 1415.91 172.28 1412.69
  A 0.71 0.70 -9.1 0 0 171.61 1412.21
  L 149.06 1412.14
  L 136.62 1412.06
  Q 137.31 1410.64 136.91 1408.94
  Q 138.02 1407.86 140.11 1407.98
  L 171.54 1407.91
  A 1.31 1.30 -67.1 0 0 172.45 1407.54
  Q 176.91 1403.29 176.95 1397.09
  C 176.98 1394.11 175.92 1391.63 175.11 1388.99
  A 1.17 1.16 81.6 0 0 174.00 1388.16
  L 141.90 1388.09
  L 130.61 1387.72
  Q 131.36 1386.24 130.90 1384.96
  Q 132.09 1383.87 134.12 1384.00
  L 174.24 1383.83
  A 1.16 1.11 23.5 0 0 174.94 1383.57
  Q 180.59 1378.75 180.01 1371.81
  C 179.79 1369.29 178.87 1367.74 178.43 1365.66
  A 0.74 0.74 0.0 0 0 177.71 1365.08
  L 136.26 1365.00
  L 124.18 1364.50
  Q 125.58 1363.23 124.73 1361.17
  L 191.98 1361.08
  Z"
/>
<path fill="#788c92" d="
  M 124.18 1364.50
  L 136.26 1365.00
  Q 140.32 1375.27 134.12 1384.00
  Q 132.09 1383.87 130.90 1384.96
  Q 128.05 1385.30 125.49 1383.02
  Q 119.93 1378.06 121.16 1370.51
  Q 121.79 1366.66 124.18 1364.50
  Z"
/>
<path fill="#687a7f" d="
  M 134.12 1384.00
  Q 140.32 1375.27 136.26 1365.00
  L 177.71 1365.08
  A 0.74 0.74 0.0 0 1 178.43 1365.66
  C 178.87 1367.74 179.79 1369.29 180.01 1371.81
  Q 180.59 1378.75 174.94 1383.57
  A 1.16 1.11 23.5 0 1 174.24 1383.83
  L 134.12 1384.00
  Z"
/>
<path fill="#788c92" d="
  M 130.61 1387.72
  L 141.90 1388.09
  Q 146.65 1398.89 140.11 1407.98
  Q 138.02 1407.86 136.91 1408.94
  Q 134.44 1409.29 133.51 1408.71
  Q 125.75 1403.86 127.11 1394.50
  Q 127.74 1390.21 130.61 1387.72
  Z"
/>
<path fill="#687a7f" d="
  M 140.11 1407.98
  Q 146.65 1398.89 141.90 1388.09
  L 174.00 1388.16
  A 1.17 1.16 81.6 0 1 175.11 1388.99
  C 175.92 1391.63 176.98 1394.11 176.95 1397.09
  Q 176.91 1403.29 172.45 1407.54
  A 1.31 1.30 -67.1 0 1 171.54 1407.91
  L 140.11 1407.98
  Z"
/>
<path fill="#788c92" d="
  M 136.62 1412.06
  L 149.06 1412.14
  Q 150.45 1416.50 150.70 1418.04
  Q 152.05 1426.27 146.03 1433.00
  L 140.23 1433.00
  Q 135.05 1430.28 134.14 1423.95
  C 133.61 1420.26 133.89 1415.56 136.62 1412.06
  Z"
/>
<path fill="#687a7f" d="
  M 169.11 1433.00
  L 146.03 1433.00
  Q 152.05 1426.27 150.70 1418.04
  Q 150.45 1416.50 149.06 1412.14
  L 171.61 1412.21
  A 0.71 0.70 -9.1 0 1 172.28 1412.69
  Q 173.37 1415.91 173.76 1418.96
  Q 174.78 1426.91 169.11 1433.00
  Z"
/>
</svg>
