<?xml version="1.0" encoding="UTF-8" standalone="no"?>
<!DOCTYPE svg PUBLIC "-//W3C//DTD SVG 1.1//EN" "http://www.w3.org/Graphics/SVG/1.1/DTD/svg11.dtd">
<svg xmlns="http://www.w3.org/2000/svg" version="1.1" viewBox="0.00 0.00 665.00 1596.00">
<g stroke-width="2.00" fill="none" stroke-linecap="butt">
<path stroke="#2b2f32" vector-effect="non-scaling-stroke" d="
  M 578.84 0.00
  Q 585.16 2.07 591.45 4.15
  Q 599.42 6.77 603.77 8.97
  C 635.03 24.83 652.97 56.11 652.97 91.27
  Q 652.99 357.23 652.98 1267.95
  C 652.98 1276.57 653.16 1285.66 652.30 1293.58
  C 648.27 1330.58 622.51 1360.99 586.32 1370.46
  Q 584.62 1370.91 582.91 1372.96"
/>
<path stroke="#444e51" vector-effect="non-scaling-stroke" d="
  M 397.95 1373.00
  L 385.04 1373.06"
/>
<path stroke="#4c585c" vector-effect="non-scaling-stroke" d="
  M 385.04 1373.06
  L 291.18 1373.02"
/>
<path stroke="#546165" vector-effect="non-scaling-stroke" d="
  M 291.18 1373.02
  L 277.99 1373.28"
/>
<path stroke="#3a4043" vector-effect="non-scaling-stroke" d="
  M 93.30 1372.97
  Q 93.08 1371.75 92.61 1371.67
  C 49.19 1364.43 20.00 1325.44 20.00 1282.50
  Q 20.01 492.29 19.99 110.73
  Q 19.99 83.14 20.88 76.84
  Q 24.01 54.72 36.93 36.69
  Q 57.34 8.23 92.23 1.17
  A 0.84 0.82 0.5 0 0 92.87 0.55
  L 92.95 0.21"
/>
<path stroke="#2b2f32" vector-effect="non-scaling-stroke" d="
  M 517.97 74.00
  A 14.98 14.98 0.0 0 0 502.99 59.02
  A 14.98 14.98 0.0 0 0 488.01 74.00
  A 14.98 14.98 0.0 0 0 502.99 88.98
  A 14.98 14.98 0.0 0 0 517.97 74.00"
/>
<path stroke="#2b2f32" vector-effect="non-scaling-stroke" d="
  M 415.93 73.43
  A 6.43 6.43 0.0 0 0 409.50 67.00
  L 263.50 67.00
  A 6.43 6.43 0.0 0 0 257.07 73.43
  L 257.07 73.57
  A 6.43 6.43 0.0 0 0 263.50 80.00
  L 409.50 80.00
  A 6.43 6.43 0.0 0 0 415.93 73.57
  L 415.93 73.43"
/>
<path stroke="#8d9091" vector-effect="non-scaling-stroke" d="
  M 635.00 146.55
  A 0.60 0.60 0.0 0 0 634.40 145.95
  L 38.64 145.95
  A 0.60 0.60 0.0 0 0 38.04 146.55
  L 38.04 1226.39
  A 0.60 0.60 0.0 0 0 38.64 1226.99
  L 634.40 1226.99
  A 0.60 0.60 0.0 0 0 635.00 1226.39
  L 635.00 146.55"
/>
<path stroke="#414445" vector-effect="non-scaling-stroke" d="
  M 281.01 1329.82
  A 10.19 10.19 0.0 0 0 291.20 1340.01
  L 381.82 1340.01
  A 10.19 10.19 0.0 0 0 392.01 1329.82
  L 392.01 1270.18
  A 10.19 10.19 0.0 0 0 381.82 1259.99
  L 291.20 1259.99
  A 10.19 10.19 0.0 0 0 281.01 1270.18
  L 281.01 1329.82"
/>
<path stroke="#3a4043" vector-effect="non-scaling-stroke" d="
  M 8.00 570.99
  L 8.03 506.05"
/>
<path stroke="#3a4043" vector-effect="non-scaling-stroke" d="
  M 8.02 453.05
  L 8.03 359.94"
/>
<path stroke="#3a4043" vector-effect="non-scaling-stroke" d="
  M 8.02 322.04
  L 8.03 228.97"
/>
<path stroke="#313c41" vector-effect="non-scaling-stroke" d="
  M 514.99 74.00
  A 11.98 11.98 0.0 0 0 503.01 62.02
  A 11.98 11.98 0.0 0 0 491.03 74.00
  A 11.98 11.98 0.0 0 0 503.01 85.98
  A 11.98 11.98 0.0 0 0 514.99 74.00"
/>
<path stroke="#414445" vector-effect="non-scaling-stroke" d="
  M 386.00 1274.76
  A 8.78 8.78 0.0 0 0 377.22 1265.98
  L 295.79 1265.98
  A 8.78 8.78 0.0 0 0 287.01 1274.76
  L 287.01 1325.20
  A 8.78 8.78 0.0 0 0 295.79 1333.98
  L 377.22 1333.98
  A 8.78 8.78 0.0 0 0 386.00 1325.20
  L 386.00 1274.76"
/>
<path stroke="#708389" vector-effect="non-scaling-stroke" d="
  M 291.18 1373.02
  C 290.63 1376.49 290.98 1380.29 290.98 1383.13
  Q 291.01 1429.94 291.02 1476.75
  Q 291.02 1498.13 306.63 1512.12
  Q 317.20 1521.59 332.26 1523.71"
/>
<path stroke="#5e6b70" vector-effect="non-scaling-stroke" d="
  M 332.26 1523.71
  Q 321.75 1524.50 311.84 1523.41
  Q 308.95 1523.09 305.96 1522.46"
/>
<path stroke="#607075" vector-effect="non-scaling-stroke" d="
  M 385.04 1373.06
  Q 384.97 1417.96 384.99 1462.82
  Q 385.00 1482.37 383.88 1487.59
  Q 380.72 1502.35 368.72 1512.72
  Q 359.69 1520.52 346.27 1523.54"
/>
<path stroke="#566267" vector-effect="non-scaling-stroke" d="
  M 346.27 1523.54
  L 332.26 1523.71"
/>
<path stroke="#4e585c" vector-effect="non-scaling-stroke" d="
  M 372.88 1521.41
  Q 367.39 1523.38 363.99 1523.75
  Q 356.88 1524.53 346.27 1523.54"
/>
<path stroke="#4e585c" vector-effect="non-scaling-stroke" d="
  M 373.07 1527.84
  L 359.10 1528.13"
/>
<path stroke="#566267" vector-effect="non-scaling-stroke" d="
  M 359.10 1528.13
  L 316.48 1528.05"
/>
<path stroke="#5e6b70" vector-effect="non-scaling-stroke" d="
  M 316.48 1528.05
  L 305.23 1527.43"
/>
<path stroke="#708389" vector-effect="non-scaling-stroke" d="
  M 316.48 1528.05
  Q 319.42 1533.86 317.87 1540.39
  C 317.35 1542.59 315.97 1544.72 314.99 1546.95"
/>
<path stroke="#5e6b70" vector-effect="non-scaling-stroke" d="
  M 314.99 1546.95
  Q 312.30 1546.68 311.96 1547.99"
/>
<path stroke="#4e585c" vector-effect="non-scaling-stroke" d="
  M 367.35 1547.28
  L 355.25 1546.98"
/>
<path stroke="#607075" vector-effect="non-scaling-stroke" d="
  M 355.25 1546.98
  Q 361.19 1542.00 360.94 1535.42
  C 360.85 1533.12 359.81 1530.58 359.10 1528.13"
/>
<path stroke="#566267" vector-effect="non-scaling-stroke" d="
  M 355.25 1546.98
  L 314.99 1546.95"
/>
<path stroke="#4e585c" vector-effect="non-scaling-stroke" d="
  M 366.91 1550.87
  L 355.66 1551.03"
/>
<path stroke="#566267" vector-effect="non-scaling-stroke" d="
  M 355.66 1551.03
  L 322.67 1550.99"
/>
<path stroke="#5e6b70" vector-effect="non-scaling-stroke" d="
  M 322.67 1550.99
  L 311.56 1550.68"
/>
<path stroke="#708389" vector-effect="non-scaling-stroke" d="
  M 322.67 1550.99
  Q 322.80 1552.18 323.60 1555.40
  Q 325.71 1563.80 320.50 1570.95"
/>
<path stroke="#5e6b70" vector-effect="non-scaling-stroke" d="
  M 320.50 1570.95
  Q 318.22 1570.85 317.86 1571.89"
/>
<path stroke="#607075" vector-effect="non-scaling-stroke" d="
  M 355.66 1551.03
  Q 356.13 1552.66 356.72 1554.16
  C 358.33 1558.27 358.40 1562.10 356.63 1566.17
  C 355.95 1567.73 354.46 1569.30 353.45 1570.98"
/>
<path stroke="#566267" vector-effect="non-scaling-stroke" d="
  M 353.45 1570.98
  L 320.50 1570.95"
/>
<path stroke="#4e585c" vector-effect="non-scaling-stroke" d="
  M 361.19 1571.71
  Q 358.02 1570.55 353.45 1570.98"
/>
<path stroke="#4e585c" vector-effect="non-scaling-stroke" d="
  M 361.09 1574.66
  L 352.97 1575.04"
/>
<path stroke="#566267" vector-effect="non-scaling-stroke" d="
  M 352.97 1575.04
  L 329.14 1575.01"
/>
<path stroke="#5e6b70" vector-effect="non-scaling-stroke" d="
  M 329.14 1575.01
  L 317.80 1574.79"
/>
<path stroke="#708389" vector-effect="non-scaling-stroke" d="
  M 329.14 1575.01
  C 331.18 1581.51 332.21 1587.88 327.86 1593.62
  Q 326.98 1594.78 326.19 1596.00"
/>
<path stroke="#607075" vector-effect="non-scaling-stroke" d="
  M 349.97 1596.00
  Q 358.12 1587.61 352.97 1575.04"
/>
</g>
<path fill="#303538" d="
  M 578.84 0.00
  Q 585.16 2.07 591.45 4.15
  Q 599.42 6.77 603.77 8.97
  C 635.03 24.83 652.97 56.11 652.97 91.27
  Q 652.99 357.23 652.98 1267.95
  C 652.98 1276.57 653.16 1285.66 652.30 1293.58
  C 648.27 1330.58 622.51 1360.99 586.32 1370.46
  Q 584.62 1370.91 582.91 1372.96
  L 397.95 1373.00
  L 385.04 1373.06
  L 291.18 1373.02
  L 277.99 1373.28
  L 93.30 1372.97
  Q 93.08 1371.75 92.61 1371.67
  C 49.19 1364.43 20.00 1325.44 20.00 1282.50
  Q 20.01 492.29 19.99 110.73
  Q 19.99 83.14 20.88 76.84
  Q 24.01 54.72 36.93 36.69
  Q 57.34 8.23 92.23 1.17
  A 0.84 0.82 0.5 0 0 92.87 0.55
  L 92.95 0.21
  Q 93.31 0.31 93.63 0.00
  L 578.84 0.00
  Z
  M 517.97 74.00
  A 14.98 14.98 0.0 0 0 502.99 59.02
  A 14.98 14.98 0.0 0 0 488.01 74.00
  A 14.98 14.98 0.0 0 0 502.99 88.98
  A 14.98 14.98 0.0 0 0 517.97 74.00
  Z
  M 415.93 73.43
  A 6.43 6.43 0.0 0 0 409.50 67.00
  L 263.50 67.00
  A 6.43 6.43 0.0 0 0 257.07 73.43
  L 257.07 73.57
  A 6.43 6.43 0.0 0 0 263.50 80.00
  L 409.50 80.00
  A 6.43 6.43 0.0 0 0 415.93 73.57
  L 415.93 73.43
  Z
  M 635.00 146.55
  A 0.60 0.60 0.0 0 0 634.40 145.95
  L 38.64 145.95
  A 0.60 0.60 0.0 0 0 38.04 146.55
  L 38.04 1226.39
  A 0.60 0.60 0.0 0 0 38.64 1226.99
  L 634.40 1226.99
  A 0.60 0.60 0.0 0 0 635.00 1226.39
  L 635.00 146.55
  Z
  M 281.01 1329.82
  A 10.19 10.19 0.0 0 0 291.20 1340.01
  L 381.82 1340.01
  A 10.19 10.19 0.0 0 0 392.01 1329.82
  L 392.01 1270.18
  A 10.19 10.19 0.0 0 0 381.82 1259.99
  L 291.20 1259.99
  A 10.19 10.19 0.0 0 0 281.01 1270.18
  L 281.01 1329.82
  Z"
/>
<path fill="#25282b" d="
  M 582.62 0.00
  Q 625.59 4.85 649.64 39.35
  Q 658.71 52.37 662.87 69.55
  Q 663.75 73.18 665.00 82.15
  L 665.00 1290.90
  Q 664.23 1295.70 663.30 1300.46
  Q 658.64 1324.27 642.63 1342.40
  Q 624.69 1362.71 598.51 1370.03
  Q 592.49 1371.71 582.91 1372.96
  Q 584.62 1370.91 586.32 1370.46
  C 622.51 1360.99 648.27 1330.58 652.30 1293.58
  C 653.16 1285.66 652.98 1276.57 652.98 1267.95
  Q 652.99 357.23 652.97 91.27
  C 652.97 56.11 635.03 24.83 603.77 8.97
  Q 599.42 6.77 591.45 4.15
  Q 585.16 2.07 578.84 0.00
  L 582.62 0.00
  Z"
/>
<path fill="#444a4e" d="
  M 92.95 0.21
  L 92.87 0.55
  A 0.84 0.82 0.5 0 1 92.23 1.17
  Q 57.34 8.23 36.93 36.69
  Q 24.01 54.72 20.88 76.84
  Q 19.99 83.14 19.99 110.73
  Q 20.01 492.29 20.00 1282.50
  C 20.00 1325.44 49.19 1364.43 92.61 1371.67
  Q 93.08 1371.75 93.30 1372.97
  Q 89.45 1372.51 85.67 1371.96
  Q 54.87 1367.52 33.74 1345.89
  Q 14.62 1326.33 9.50 1299.64
  Q 7.99 1291.78 7.99 1268.75
  Q 8.01 919.89 8.00 570.99
  L 8.03 506.05
  L 8.02 453.05
  L 8.03 359.94
  L 8.02 322.04
  L 8.03 228.97
  Q 7.98 158.65 8.00 88.25
  Q 8.00 62.83 23.37 40.07
  Q 41.19 13.69 71.32 4.08
  Q 81.53 0.82 92.95 0.21
  Z"
/>
<path fill="#25282b" d="
  M 517.97 74.00
  A 14.98 14.98 0.0 0 1 502.99 88.98
  A 14.98 14.98 0.0 0 1 488.01 74.00
  A 14.98 14.98 0.0 0 1 502.99 59.02
  A 14.98 14.98 0.0 0 1 517.97 74.00
  Z
  M 514.99 74.00
  A 11.98 11.98 0.0 0 0 503.01 62.02
  A 11.98 11.98 0.0 0 0 491.03 74.00
  A 11.98 11.98 0.0 0 0 503.01 85.98
  A 11.98 11.98 0.0 0 0 514.99 74.00
  Z"
/>
<circle fill="#3d5056" cx="503.01" cy="74.00" r="11.98"/>
<rect fill="#25282b" x="257.07" y="67.00" width="158.86" height="13.00" rx="6.43"/>
<rect fill="#eaeaea" x="38.04" y="145.95" width="596.96" height="1081.04" rx="0.60"/>
<path fill="#303538" d="
  M 8.03 228.97
  L 8.02 322.04
  Q 1.65 321.46 0.00 314.50
  L 0.00 236.80
  Q 1.47 229.62 8.03 228.97
  Z"
/>
<path fill="#303538" d="
  M 8.03 359.94
  L 8.02 453.05
  Q 1.67 452.45 0.00 445.52
  L 0.00 367.69
  Q 1.51 360.62 8.03 359.94
  Z"
/>
<path fill="#303538" d="
  M 8.03 506.05
  L 8.00 570.99
  Q 2.05 571.31 0.00 566.86
  L 0.00 510.45
  Q 1.68 505.72 8.03 506.05
  Z"
/>
<path fill="#525252" d="
  M 281.01 1329.82
  L 281.01 1270.18
  A 10.19 10.19 0.0 0 1 291.20 1259.99
  L 381.82 1259.99
  A 10.19 10.19 0.0 0 1 392.01 1270.18
  L 392.01 1329.82
  A 10.19 10.19 0.0 0 1 381.82 1340.01
  L 291.20 1340.01
  A 10.19 10.19 0.0 0 1 281.01 1329.82
  Z
  M 386.00 1274.76
  A 8.78 8.78 0.0 0 0 377.22 1265.98
  L 295.79 1265.98
  A 8.78 8.78 0.0 0 0 287.01 1274.76
  L 287.01 1325.20
  A 8.78 8.78 0.0 0 0 295.79 1333.98
  L 377.22 1333.98
  A 8.78 8.78 0.0 0 0 386.00 1325.20
  L 386.00 1274.76
  Z"
/>
<path fill="#303538" d="
  M 386.00 1274.76
  L 386.00 1325.20
  A 8.78 8.78 0.0 0 1 377.22 1333.98
  L 295.79 1333.98
  A 8.78 8.78 0.0 0 1 287.01 1325.20
  L 287.01 1274.76
  A 8.78 8.78 0.0 0 1 295.79 1265.98
  L 377.22 1265.98
  A 8.78 8.78 0.0 0 1 386.00 1274.76
  Z"
/>
<path fill="#788c92" d="
  M 291.18 1373.02
  C 290.63 1376.49 290.98 1380.29 290.98 1383.13
  Q 291.01 1429.94 291.02 1476.75
  Q 291.02 1498.13 306.63 1512.12
  Q 317.20 1521.59 332.26 1523.71
  Q 321.75 1524.50 311.84 1523.41
  Q 308.95 1523.09 305.96 1522.46
  C 292.11 1517.76 281.67 1506.84 278.59 1492.24
  Q 277.99 1489.38 277.99 1485.71
  Q 278.02 1429.80 277.99 1373.28
  L 291.18 1373.02
  Z"
/>
<path fill="#687a7f" d="
  M 385.04 1373.06
  Q 384.97 1417.96 384.99 1462.82
  Q 385.00 1482.37 383.88 1487.59
  Q 380.72 1502.35 368.72 1512.72
  Q 359.69 1520.52 346.27 1523.54
  L 332.26 1523.71
  Q 317.20 1521.59 306.63 1512.12
  Q 291.02 1498.13 291.02 1476.75
  Q 291.01 1429.94 290.98 1383.13
  C 290.98 1380.29 290.63 1376.49 291.18 1373.02
  L 385.04 1373.06
  Z"
/>
<path fill="#57666a" d="
  M 397.95 1373.00
  Q 398.11 1428.15 397.91 1482.82
  Q 397.88 1490.29 396.59 1494.84
  Q 391.38 1513.20 372.88 1521.41
  Q 367.39 1523.38 363.99 1523.75
  Q 356.88 1524.53 346.27 1523.54
  Q 359.69 1520.52 368.72 1512.72
  Q 380.72 1502.35 383.88 1487.59
  Q 385.00 1482.37 384.99 1462.82
  Q 384.97 1417.96 385.04 1373.06
  L 397.95 1373.00
  Z"
/>
<path fill="#444a4e" d="
  M 372.88 1521.41
  L 373.07 1527.84
  L 359.10 1528.13
  L 316.48 1528.05
  L 305.23 1527.43
  Q 306.53 1525.63 305.96 1522.46
  Q 308.95 1523.09 311.84 1523.41
  Q 321.75 1524.50 332.26 1523.71
  L 346.27 1523.54
  Q 356.88 1524.53 363.99 1523.75
  Q 367.39 1523.38 372.88 1521.41
  Z"
/>
<path fill="#788c92" d="
  M 305.23 1527.43
  L 316.48 1528.05
  Q 319.42 1533.86 317.87 1540.39
  C 317.35 1542.59 315.97 1544.72 314.99 1546.95
  Q 312.30 1546.68 311.96 1547.99
  Q 307.80 1548.32 305.10 1544.64
  Q 298.55 1535.70 305.23 1527.43
  Z"
/>
<path fill="#57666a" d="
  M 373.07 1527.84
  C 380.59 1534.54 376.45 1545.09 367.35 1547.28
  L 355.25 1546.98
  Q 361.19 1542.00 360.94 1535.42
  C 360.85 1533.12 359.81 1530.58 359.10 1528.13
  L 373.07 1527.84
  Z"
/>
<path fill="#687a7f" d="
  M 359.10 1528.13
  C 359.81 1530.58 360.85 1533.12 360.94 1535.42
  Q 361.19 1542.00 355.25 1546.98
  L 314.99 1546.95
  C 315.97 1544.72 317.35 1542.59 317.87 1540.39
  Q 319.42 1533.86 316.48 1528.05
  L 359.10 1528.13
  Z"
/>
<path fill="#444a4e" d="
  M 314.99 1546.95
  L 355.25 1546.98
  L 367.35 1547.28
  L 366.91 1550.87
  L 355.66 1551.03
  L 322.67 1550.99
  L 311.56 1550.68
  Q 312.43 1549.59 311.96 1547.99
  Q 312.30 1546.68 314.99 1546.95
  Z"
/>
<path fill="#788c92" d="
  M 311.56 1550.68
  L 322.67 1550.99
  Q 322.80 1552.18 323.60 1555.40
  Q 325.71 1563.80 320.50 1570.95
  Q 318.22 1570.85 317.86 1571.89
  Q 316.39 1572.12 314.82 1571.85
  A 2.33 2.30 -21.9 0 1 313.84 1571.44
  Q 306.11 1565.73 308.42 1556.12
  Q 309.21 1552.81 311.56 1550.68
  Z"
/>
<path fill="#687a7f" d="
  M 355.66 1551.03
  Q 356.13 1552.66 356.72 1554.16
  C 358.33 1558.27 358.40 1562.10 356.63 1566.17
  C 355.95 1567.73 354.46 1569.30 353.45 1570.98
  L 320.50 1570.95
  Q 325.71 1563.80 323.60 1555.40
  Q 322.80 1552.18 322.67 1550.99
  L 355.66 1551.03
  Z"
/>
<path fill="#57666a" d="
  M 366.91 1550.87
  Q 373.49 1557.35 369.68 1565.44
  Q 367.15 1570.82 361.19 1571.71
  Q 358.02 1570.55 353.45 1570.98
  C 354.46 1569.30 355.95 1567.73 356.63 1566.17
  C 358.40 1562.10 358.33 1558.27 356.72 1554.16
  Q 356.13 1552.66 355.66 1551.03
  L 366.91 1550.87
  Z"
/>
<path fill="#444a4e" d="
  M 353.45 1570.98
  Q 358.02 1570.55 361.19 1571.71
  Q 360.67 1573.27 361.09 1574.66
  L 352.97 1575.04
  L 329.14 1575.01
  L 317.80 1574.79
  Q 318.17 1573.20 317.86 1571.89
  Q 318.22 1570.85 320.50 1570.95
  L 353.45 1570.98
  Z"
/>
<path fill="#788c92" d="
  M 329.14 1575.01
  C 331.18 1581.51 332.21 1587.88 327.86 1593.62
  Q 326.98 1594.78 326.19 1596.00
  L 321.09 1596.00
  C 315.43 1592.83 314.81 1587.51 315.04 1581.50
  Q 315.18 1577.96 317.80 1574.79
  L 329.14 1575.01
  Z"
/>
<path fill="#57666a" d="
  M 361.09 1574.66
  Q 368.79 1589.68 356.29 1596.00
  L 349.97 1596.00
  Q 358.12 1587.61 352.97 1575.04
  L 361.09 1574.66
  Z"
/>
<path fill="#687a7f" d="
  M 352.97 1575.04
  Q 358.12 1587.61 349.97 1596.00
  L 326.19 1596.00
  Q 326.98 1594.78 327.86 1593.62
  C 332.21 1587.88 331.18 1581.51 329.14 1575.01
  L 352.97 1575.04
  Z"
/>
</svg>
