<?xml version="1.0" encoding="UTF-8" standalone="no"?>
<!DOCTYPE svg PUBLIC "-//W3C//DTD SVG 1.1//EN" "http://www.w3.org/Graphics/SVG/1.1/DTD/svg11.dtd">
<svg xmlns="http://www.w3.org/2000/svg" version="1.1" viewBox="0.00 0.00 665.00 1596.00">
<g stroke-width="2.00" fill="none" stroke-linecap="butt">
<path stroke="#2b2f32" vector-effect="non-scaling-stroke" d="
  M 578.87 0.00
  C 585.74 2.97 593.14 4.21 598.10 6.36
  C 632.90 21.43 652.98 53.73 652.98 91.52
  Q 652.95 737.96 652.99 1268.14
  Q 652.99 1291.52 651.52 1299.65
  Q 648.41 1316.91 639.04 1331.79
  Q 620.75 1360.84 587.42 1370.20
  Q 584.59 1370.99 582.89 1372.94"
/>
<path stroke="#444e51" vector-effect="non-scaling-stroke" d="
  M 397.95 1373.00
  L 385.04 1373.06"
/>
<path stroke="#4c585c" vector-effect="non-scaling-stroke" d="
  M 385.04 1373.06
  L 291.18 1373.02"
/>
<path stroke="#546165" vector-effect="non-scaling-stroke" d="
  M 291.18 1373.02
  L 277.99 1373.28"
/>
<path stroke="#3a4043" vector-effect="non-scaling-stroke" d="
  M 93.11 1372.94
  L 93.06 1372.55
  A 0.80 0.80 0.0 0 0 92.42 1371.86
  C 55.67 1364.95 28.17 1336.23 21.51 1299.91
  Q 20.05 1291.93 20.05 1272.51
  Q 20.00 1027.17 20.00 90.26
  C 20.00 46.63 49.20 9.79 92.31 1.29
  A 0.87 0.87 0.0 0 0 92.98 0.64
  L 93.06 0.31"
/>
<path stroke="#24282a" vector-effect="non-scaling-stroke" d="
  M 517.97 74.00
  A 14.98 14.98 0.0 0 0 502.99 59.02
  A 14.98 14.98 0.0 0 0 488.01 74.00
  A 14.98 14.98 0.0 0 0 502.99 88.98
  A 14.98 14.98 0.0 0 0 517.97 74.00"
/>
<path stroke="#24282a" vector-effect="non-scaling-stroke" d="
  M 415.93 73.43
  A 6.43 6.43 0.0 0 0 409.50 67.00
  L 263.50 67.00
  A 6.43 6.43 0.0 0 0 257.07 73.43
  L 257.07 73.57
  A 6.43 6.43 0.0 0 0 263.50 80.00
  L 409.50 80.00
  A 6.43 6.43 0.0 0 0 415.93 73.57
  L 415.93 73.43"
/>
<path stroke="#24282a" vector-effect="non-scaling-stroke" d="
  M 635.03 146.70
  A 0.74 0.74 0.0 0 0 634.29 145.96
  L 38.75 145.96
  A 0.74 0.74 0.0 0 0 38.01 146.70
  L 38.01 1226.28
  A 0.74 0.74 0.0 0 0 38.75 1227.02
  L 634.29 1227.02
  A 0.74 0.74 0.0 0 0 635.03 1226.28
  L 635.03 146.70"
/>
<path stroke="#414445" vector-effect="non-scaling-stroke" d="
  M 281.01 1329.82
  A 10.19 10.19 0.0 0 0 291.20 1340.01
  L 381.82 1340.01
  A 10.19 10.19 0.0 0 0 392.01 1329.82
  L 392.01 1270.18
  A 10.19 10.19 0.0 0 0 381.82 1259.99
  L 291.20 1259.99
  A 10.19 10.19 0.0 0 0 281.01 1270.18
  L 281.01 1329.82"
/>
<path stroke="#3a4043" vector-effect="non-scaling-stroke" d="
  M 7.99 570.98
  L 8.01 506.06"
/>
<path stroke="#3a4043" vector-effect="non-scaling-stroke" d="
  M 7.99 452.98
  L 8.00 359.96"
/>
<path stroke="#3a4043" vector-effect="non-scaling-stroke" d="
  M 7.98 322.00
  L 7.99 228.97"
/>
<path stroke="#2a3639" vector-effect="non-scaling-stroke" d="
  M 514.99 74.00
  A 11.98 11.98 0.0 0 0 503.01 62.02
  A 11.98 11.98 0.0 0 0 491.03 74.00
  A 11.98 11.98 0.0 0 0 503.01 85.98
  A 11.98 11.98 0.0 0 0 514.99 74.00"
/>
<path stroke="#414445" vector-effect="non-scaling-stroke" d="
  M 386.00 1274.76
  A 8.78 8.78 0.0 0 0 377.22 1265.98
  L 295.79 1265.98
  A 8.78 8.78 0.0 0 0 287.01 1274.76
  L 287.01 1325.20
  A 8.78 8.78 0.0 0 0 295.79 1333.98
  L 377.22 1333.98
  A 8.78 8.78 0.0 0 0 386.00 1325.20
  L 386.00 1274.76"
/>
<path stroke="#708389" vector-effect="non-scaling-stroke" d="
  M 291.18 1373.02
  C 290.63 1376.49 290.98 1380.29 290.98 1383.13
  Q 291.01 1429.94 291.02 1476.75
  Q 291.02 1498.13 306.63 1512.12
  Q 317.20 1521.59 332.26 1523.71"
/>
<path stroke="#5e6b70" vector-effect="non-scaling-stroke" d="
  M 332.26 1523.71
  Q 321.75 1524.50 311.84 1523.41
  Q 308.95 1523.09 305.96 1522.46"
/>
<path stroke="#607075" vector-effect="non-scaling-stroke" d="
  M 385.04 1373.06
  Q 384.97 1417.96 384.99 1462.82
  Q 385.00 1482.37 383.88 1487.59
  Q 380.72 1502.35 368.72 1512.72
  Q 359.69 1520.52 346.27 1523.54"
/>
<path stroke="#566267" vector-effect="non-scaling-stroke" d="
  M 346.27 1523.54
  L 332.26 1523.71"
/>
<path stroke="#4e585c" vector-effect="non-scaling-stroke" d="
  M 372.88 1521.41
  Q 367.39 1523.38 363.99 1523.75
  Q 356.88 1524.53 346.27 1523.54"
/>
<path stroke="#4e585c" vector-effect="non-scaling-stroke" d="
  M 373.07 1527.84
  L 359.10 1528.13"
/>
<path stroke="#566267" vector-effect="non-scaling-stroke" d="
  M 359.10 1528.13
  L 316.48 1528.05"
/>
<path stroke="#5e6b70" vector-effect="non-scaling-stroke" d="
  M 316.48 1528.05
  L 305.23 1527.43"
/>
<path stroke="#708389" vector-effect="non-scaling-stroke" d="
  M 316.48 1528.05
  Q 319.42 1533.86 317.87 1540.39
  C 317.35 1542.59 315.97 1544.73 314.99 1546.95"
/>
<path stroke="#5e6b70" vector-effect="non-scaling-stroke" d="
  M 314.99 1546.95
  Q 312.35 1546.67 311.95 1547.98"
/>
<path stroke="#4e585c" vector-effect="non-scaling-stroke" d="
  M 367.36 1547.28
  L 355.25 1546.98"
/>
<path stroke="#607075" vector-effect="non-scaling-stroke" d="
  M 355.25 1546.98
  Q 361.18 1542.00 360.94 1535.42
  C 360.85 1533.12 359.81 1530.57 359.10 1528.13"
/>
<path stroke="#566267" vector-effect="non-scaling-stroke" d="
  M 355.25 1546.98
  L 314.99 1546.95"
/>
<path stroke="#4e585c" vector-effect="non-scaling-stroke" d="
  M 366.91 1550.87
  L 355.66 1551.03"
/>
<path stroke="#566267" vector-effect="non-scaling-stroke" d="
  M 355.66 1551.03
  L 322.67 1550.99"
/>
<path stroke="#5e6b70" vector-effect="non-scaling-stroke" d="
  M 322.67 1550.99
  L 311.56 1550.68"
/>
<path stroke="#708389" vector-effect="non-scaling-stroke" d="
  M 322.67 1550.99
  Q 322.80 1552.18 323.60 1555.40
  Q 325.71 1563.80 320.50 1570.95"
/>
<path stroke="#5e6b70" vector-effect="non-scaling-stroke" d="
  M 320.50 1570.95
  Q 318.22 1570.85 317.86 1571.89"
/>
<path stroke="#607075" vector-effect="non-scaling-stroke" d="
  M 355.66 1551.03
  Q 356.13 1552.66 356.72 1554.16
  C 358.33 1558.27 358.40 1562.10 356.63 1566.17
  C 355.95 1567.73 354.46 1569.30 353.45 1570.98"
/>
<path stroke="#566267" vector-effect="non-scaling-stroke" d="
  M 353.45 1570.98
  L 320.50 1570.95"
/>
<path stroke="#4e585c" vector-effect="non-scaling-stroke" d="
  M 361.19 1571.70
  Q 358.01 1570.55 353.45 1570.98"
/>
<path stroke="#4e585c" vector-effect="non-scaling-stroke" d="
  M 361.09 1574.66
  L 352.98 1575.05"
/>
<path stroke="#566267" vector-effect="non-scaling-stroke" d="
  M 352.98 1575.05
  L 329.14 1575.01"
/>
<path stroke="#5e6b70" vector-effect="non-scaling-stroke" d="
  M 329.14 1575.01
  L 317.80 1574.79"
/>
<path stroke="#708389" vector-effect="non-scaling-stroke" d="
  M 329.14 1575.01
  C 331.18 1581.51 332.21 1587.88 327.86 1593.62
  Q 326.98 1594.78 326.19 1596.00"
/>
<path stroke="#607075" vector-effect="non-scaling-stroke" d="
  M 349.98 1596.00
  Q 358.09 1587.60 352.98 1575.05"
/>
</g>
<path fill="#303538" d="
  M 578.87 0.00
  C 585.74 2.97 593.14 4.21 598.10 6.36
  C 632.90 21.43 652.98 53.73 652.98 91.52
  Q 652.95 737.96 652.99 1268.14
  Q 652.99 1291.52 651.52 1299.65
  Q 648.41 1316.91 639.04 1331.79
  Q 620.75 1360.84 587.42 1370.20
  Q 584.59 1370.99 582.89 1372.94
  L 397.95 1373.00
  L 385.04 1373.06
  L 291.18 1373.02
  L 277.99 1373.28
  L 93.11 1372.94
  L 93.06 1372.55
  A 0.80 0.80 0.0 0 0 92.42 1371.86
  C 55.67 1364.95 28.17 1336.23 21.51 1299.91
  Q 20.05 1291.93 20.05 1272.51
  Q 20.00 1027.17 20.00 90.26
  C 20.00 46.63 49.20 9.79 92.31 1.29
  A 0.87 0.87 0.0 0 0 92.98 0.64
  L 93.06 0.31
  L 93.63 0.00
  L 578.87 0.00
  Z
  M 517.97 74.00
  A 14.98 14.98 0.0 0 0 502.99 59.02
  A 14.98 14.98 0.0 0 0 488.01 74.00
  A 14.98 14.98 0.0 0 0 502.99 88.98
  A 14.98 14.98 0.0 0 0 517.97 74.00
  Z
  M 415.93 73.43
  A 6.43 6.43 0.0 0 0 409.50 67.00
  L 263.50 67.00
  A 6.43 6.43 0.0 0 0 257.07 73.43
  L 257.07 73.57
  A 6.43 6.43 0.0 0 0 263.50 80.00
  L 409.50 80.00
  A 6.43 6.43 0.0 0 0 415.93 73.57
  L 415.93 73.43
  Z
  M 635.03 146.70
  A 0.74 0.74 0.0 0 0 634.29 145.96
  L 38.75 145.96
  A 0.74 0.74 0.0 0 0 38.01 146.70
  L 38.01 1226.28
  A 0.74 0.74 0.0 0 0 38.75 1227.02
  L 634.29 1227.02
  A 0.74 0.74 0.0 0 0 635.03 1226.28
  L 635.03 146.70
  Z
  M 281.01 1329.82
  A 10.19 10.19 0.0 0 0 291.20 1340.01
  L 381.82 1340.01
  A 10.19 10.19 0.0 0 0 392.01 1329.82
  L 392.01 1270.18
  A 10.19 10.19 0.0 0 0 381.82 1259.99
  L 291.20 1259.99
  A 10.19 10.19 0.0 0 0 281.01 1270.18
  L 281.01 1329.82
  Z"
/>
<path fill="#25282b" d="
  M 582.62 0.00
  Q 625.59 4.85 649.64 39.35
  Q 658.71 52.37 662.87 69.55
  Q 663.75 73.18 665.00 82.15
  L 665.00 1290.90
  Q 664.23 1295.70 663.29 1300.46
  Q 657.94 1327.45 638.61 1346.84
  Q 616.20 1369.33 582.89 1372.94
  Q 584.59 1370.99 587.42 1370.20
  Q 620.75 1360.84 639.04 1331.79
  Q 648.41 1316.91 651.52 1299.65
  Q 652.99 1291.52 652.99 1268.14
  Q 652.95 737.96 652.98 91.52
  C 652.98 53.73 632.90 21.43 598.10 6.36
  C 593.14 4.21 585.74 2.97 578.87 0.00
  L 582.62 0.00
  Z"
/>
<path fill="#444a4e" d="
  M 93.06 0.31
  L 92.98 0.64
  A 0.87 0.87 0.0 0 1 92.31 1.29
  C 49.20 9.79 20.00 46.63 20.00 90.26
  Q 20.00 1027.17 20.05 1272.51
  Q 20.05 1291.93 21.51 1299.91
  C 28.17 1336.23 55.67 1364.95 92.42 1371.86
  A 0.80 0.80 0.0 0 1 93.06 1372.55
  L 93.11 1372.94
  Q 62.75 1370.99 40.37 1352.15
  Q 15.18 1330.95 9.56 1299.38
  Q 8.02 1290.75 8.02 1270.02
  Q 8.02 920.51 7.99 570.98
  L 8.01 506.06
  L 7.99 452.98
  L 8.00 359.96
  L 7.98 322.00
  L 7.99 228.97
  Q 7.97 165.57 7.96 102.07
  Q 7.95 81.91 9.48 73.55
  C 16.84 33.42 51.82 2.19 93.06 0.31
  Z"
/>
<path fill="#171b1c" d="
  M 517.97 74.00
  A 14.98 14.98 0.0 0 1 502.99 88.98
  A 14.98 14.98 0.0 0 1 488.01 74.00
  A 14.98 14.98 0.0 0 1 502.99 59.02
  A 14.98 14.98 0.0 0 1 517.97 74.00
  Z
  M 514.99 74.00
  A 11.98 11.98 0.0 0 0 503.01 62.02
  A 11.98 11.98 0.0 0 0 491.03 74.00
  A 11.98 11.98 0.0 0 0 503.01 85.98
  A 11.98 11.98 0.0 0 0 514.99 74.00
  Z"
/>
<circle fill="#3d5056" cx="503.01" cy="74.00" r="11.98"/>
<rect fill="#171b1c" x="257.07" y="67.00" width="158.86" height="13.00" rx="6.43"/>
<rect fill="#171b1c" x="38.01" y="145.96" width="597.02" height="1081.06" rx="0.74"/>
<path fill="#303538" d="
  M 7.99 228.97
  L 7.98 322.00
  Q 1.66 321.45 0.00 314.50
  L 0.00 236.81
  Q 1.48 229.54 7.99 228.97
  Z"
/>
<path fill="#303538" d="
  M 8.00 359.96
  L 7.99 452.98
  Q 1.69 452.46 0.00 445.51
  L 0.00 367.71
  Q 1.50 360.61 8.00 359.96
  Z"
/>
<path fill="#303538" d="
  M 8.01 506.06
  L 7.99 570.98
  Q 2.05 571.30 0.00 566.86
  L 0.00 510.46
  Q 1.70 505.69 8.01 506.06
  Z"
/>
<path fill="#525252" d="
  M 281.01 1329.82
  L 281.01 1270.18
  A 10.19 10.19 0.0 0 1 291.20 1259.99
  L 381.82 1259.99
  A 10.19 10.19 0.0 0 1 392.01 1270.18
  L 392.01 1329.82
  A 10.19 10.19 0.0 0 1 381.82 1340.01
  L 291.20 1340.01
  A 10.19 10.19 0.0 0 1 281.01 1329.82
  Z
  M 386.00 1274.76
  A 8.78 8.78 0.0 0 0 377.22 1265.98
  L 295.79 1265.98
  A 8.78 8.78 0.0 0 0 287.01 1274.76
  L 287.01 1325.20
  A 8.78 8.78 0.0 0 0 295.79 1333.98
  L 377.22 1333.98
  A 8.78 8.78 0.0 0 0 386.00 1325.20
  L 386.00 1274.76
  Z"
/>
<path fill="#303538" d="
  M 386.00 1274.76
  L 386.00 1325.20
  A 8.78 8.78 0.0 0 1 377.22 1333.98
  L 295.79 1333.98
  A 8.78 8.78 0.0 0 1 287.01 1325.20
  L 287.01 1274.76
  A 8.78 8.78 0.0 0 1 295.79 1265.98
  L 377.22 1265.98
  A 8.78 8.78 0.0 0 1 386.00 1274.76
  Z"
/>
<path fill="#788c92" d="
  M 291.18 1373.02
  C 290.63 1376.49 290.98 1380.29 290.98 1383.13
  Q 291.01 1429.94 291.02 1476.75
  Q 291.02 1498.13 306.63 1512.12
  Q 317.20 1521.59 332.26 1523.71
  Q 321.75 1524.50 311.84 1523.41
  Q 308.95 1523.09 305.96 1522.46
  C 292.11 1517.76 281.67 1506.84 278.59 1492.24
  Q 277.99 1489.38 277.99 1485.71
  Q 278.02 1429.80 277.99 1373.28
  L 291.18 1373.02
  Z"
/>
<path fill="#687a7f" d="
  M 385.04 1373.06
  Q 384.97 1417.96 384.99 1462.82
  Q 385.00 1482.37 383.88 1487.59
  Q 380.72 1502.35 368.72 1512.72
  Q 359.69 1520.52 346.27 1523.54
  L 332.26 1523.71
  Q 317.20 1521.59 306.63 1512.12
  Q 291.02 1498.13 291.02 1476.75
  Q 291.01 1429.94 290.98 1383.13
  C 290.98 1380.29 290.63 1376.49 291.18 1373.02
  L 385.04 1373.06
  Z"
/>
<path fill="#57666a" d="
  M 397.95 1373.00
  Q 398.11 1428.15 397.91 1482.82
  Q 397.88 1490.29 396.59 1494.84
  Q 391.38 1513.20 372.88 1521.41
  Q 367.39 1523.38 363.99 1523.75
  Q 356.88 1524.53 346.27 1523.54
  Q 359.69 1520.52 368.72 1512.72
  Q 380.72 1502.35 383.88 1487.59
  Q 385.00 1482.37 384.99 1462.82
  Q 384.97 1417.96 385.04 1373.06
  L 397.95 1373.00
  Z"
/>
<path fill="#444a4e" d="
  M 372.88 1521.41
  L 373.07 1527.84
  L 359.10 1528.13
  L 316.48 1528.05
  L 305.23 1527.43
  Q 306.53 1525.63 305.96 1522.46
  Q 308.95 1523.09 311.84 1523.41
  Q 321.75 1524.50 332.26 1523.71
  L 346.27 1523.54
  Q 356.88 1524.53 363.99 1523.75
  Q 367.39 1523.38 372.88 1521.41
  Z"
/>
<path fill="#788c92" d="
  M 305.23 1527.43
  L 316.48 1528.05
  Q 319.42 1533.86 317.87 1540.39
  C 317.35 1542.59 315.97 1544.73 314.99 1546.95
  Q 312.35 1546.67 311.95 1547.98
  Q 307.82 1548.33 305.11 1544.64
  Q 298.55 1535.70 305.23 1527.43
  Z"
/>
<path fill="#57666a" d="
  M 373.07 1527.84
  C 380.59 1534.54 376.45 1545.09 367.36 1547.28
  L 355.25 1546.98
  Q 361.18 1542.00 360.94 1535.42
  C 360.85 1533.12 359.81 1530.57 359.10 1528.13
  L 373.07 1527.84
  Z"
/>
<path fill="#687a7f" d="
  M 359.10 1528.13
  C 359.81 1530.57 360.85 1533.12 360.94 1535.42
  Q 361.18 1542.00 355.25 1546.98
  L 314.99 1546.95
  C 315.97 1544.73 317.35 1542.59 317.87 1540.39
  Q 319.42 1533.86 316.48 1528.05
  L 359.10 1528.13
  Z"
/>
<path fill="#444a4e" d="
  M 314.99 1546.95
  L 355.25 1546.98
  L 367.36 1547.28
  L 366.91 1550.87
  L 355.66 1551.03
  L 322.67 1550.99
  L 311.56 1550.68
  Q 312.44 1549.58 311.95 1547.98
  Q 312.35 1546.67 314.99 1546.95
  Z"
/>
<path fill="#788c92" d="
  M 311.56 1550.68
  L 322.67 1550.99
  Q 322.80 1552.18 323.60 1555.40
  Q 325.71 1563.80 320.50 1570.95
  Q 318.22 1570.85 317.86 1571.89
  Q 316.39 1572.12 314.82 1571.85
  A 2.33 2.30 -21.9 0 1 313.84 1571.44
  Q 306.11 1565.73 308.42 1556.12
  Q 309.21 1552.81 311.56 1550.68
  Z"
/>
<path fill="#687a7f" d="
  M 355.66 1551.03
  Q 356.13 1552.66 356.72 1554.16
  C 358.33 1558.27 358.40 1562.10 356.63 1566.17
  C 355.95 1567.73 354.46 1569.30 353.45 1570.98
  L 320.50 1570.95
  Q 325.71 1563.80 323.60 1555.40
  Q 322.80 1552.18 322.67 1550.99
  L 355.66 1551.03
  Z"
/>
<path fill="#57666a" d="
  M 366.91 1550.87
  Q 373.50 1557.35 369.68 1565.44
  Q 367.15 1570.83 361.19 1571.70
  Q 358.01 1570.55 353.45 1570.98
  C 354.46 1569.30 355.95 1567.73 356.63 1566.17
  C 358.40 1562.10 358.33 1558.27 356.72 1554.16
  Q 356.13 1552.66 355.66 1551.03
  L 366.91 1550.87
  Z"
/>
<path fill="#444a4e" d="
  M 353.45 1570.98
  Q 358.01 1570.55 361.19 1571.70
  Q 360.67 1573.27 361.09 1574.66
  L 352.98 1575.05
  L 329.14 1575.01
  L 317.80 1574.79
  Q 318.17 1573.20 317.86 1571.89
  Q 318.22 1570.85 320.50 1570.95
  L 353.45 1570.98
  Z"
/>
<path fill="#788c92" d="
  M 329.14 1575.01
  C 331.18 1581.51 332.21 1587.88 327.86 1593.62
  Q 326.98 1594.78 326.19 1596.00
  L 321.09 1596.00
  C 315.43 1592.83 314.81 1587.51 315.04 1581.50
  Q 315.18 1577.96 317.80 1574.79
  L 329.14 1575.01
  Z"
/>
<path fill="#57666a" d="
  M 361.09 1574.66
  Q 368.79 1589.68 356.29 1596.00
  L 349.98 1596.00
  Q 358.09 1587.60 352.98 1575.05
  L 361.09 1574.66
  Z"
/>
<path fill="#687a7f" d="
  M 352.98 1575.05
  Q 358.09 1587.60 349.98 1596.00
  L 326.19 1596.00
  Q 326.98 1594.78 327.86 1593.62
  C 332.21 1587.88 331.18 1581.51 329.14 1575.01
  L 352.98 1575.05
  Z"
/>
</svg>
