<?xml version="1.0" encoding="UTF-8" standalone="no"?>
<!DOCTYPE svg PUBLIC "-//W3C//DTD SVG 1.1//EN" "http://www.w3.org/Graphics/SVG/1.1/DTD/svg11.dtd">
<svg xmlns="http://www.w3.org/2000/svg" version="1.1" viewBox="0.00 0.00 665.00 1596.00">
<g stroke-width="2.00" fill="none" stroke-linecap="butt">
<path stroke="#2b2f32" vector-effect="non-scaling-stroke" d="
  M 578.84 0.00
  Q 585.16 2.08 591.46 4.15
  Q 599.38 6.75 603.79 8.98
  C 630.37 22.41 648.18 48.07 652.17 77.66
  Q 653.00 83.78 653.00 111.41
  Q 652.98 659.06 653.00 1267.41
  Q 653.00 1291.42 651.57 1299.39
  Q 648.52 1316.41 639.42 1331.17
  Q 621.13 1360.79 587.24 1370.25
  Q 584.53 1371.00 582.91 1372.96"
/>
<path stroke="#444e51" vector-effect="non-scaling-stroke" d="
  M 397.95 1373.00
  L 385.04 1373.06"
/>
<path stroke="#4c585c" vector-effect="non-scaling-stroke" d="
  M 385.04 1373.06
  L 291.18 1373.02"
/>
<path stroke="#546165" vector-effect="non-scaling-stroke" d="
  M 291.18 1373.02
  L 277.99 1373.28"
/>
<path stroke="#3a4043" vector-effect="non-scaling-stroke" d="
  M 93.30 1372.97
  Q 93.08 1371.75 92.61 1371.67
  C 49.57 1364.50 20.01 1325.68 20.01 1283.00
  Q 20.01 666.37 19.99 101.72
  Q 19.99 81.09 21.52 72.89
  C 28.31 36.48 55.71 8.47 92.21 1.19
  A 0.86 0.85 1.0 0 0 92.87 0.56
  L 92.95 0.21"
/>
<path stroke="#2b2f32" vector-effect="non-scaling-stroke" d="
  M 517.97 74.00
  A 14.98 14.98 0.0 0 0 502.99 59.02
  A 14.98 14.98 0.0 0 0 488.01 74.00
  A 14.98 14.98 0.0 0 0 502.99 88.98
  A 14.98 14.98 0.0 0 0 517.97 74.00"
/>
<path stroke="#2b2f32" vector-effect="non-scaling-stroke" d="
  M 415.93 73.43
  A 6.43 6.43 0.0 0 0 409.50 67.00
  L 263.50 67.00
  A 6.43 6.43 0.0 0 0 257.07 73.43
  L 257.07 73.57
  A 6.43 6.43 0.0 0 0 263.50 80.00
  L 409.50 80.00
  A 6.43 6.43 0.0 0 0 415.93 73.57
  L 415.93 73.43"
/>
<path stroke="#414445" vector-effect="non-scaling-stroke" d="
  M 281.01 1329.83
  A 10.18 10.18 0.0 0 0 291.19 1340.01
  L 381.83 1340.01
  A 10.18 10.18 0.0 0 0 392.01 1329.83
  L 392.01 1270.19
  A 10.18 10.18 0.0 0 0 381.83 1260.01
  L 291.19 1260.01
  A 10.18 10.18 0.0 0 0 281.01 1270.19
  L 281.01 1329.83"
/>
<path stroke="#3a4043" vector-effect="non-scaling-stroke" d="
  M 8.00 570.99
  L 8.03 506.05"
/>
<path stroke="#3a4043" vector-effect="non-scaling-stroke" d="
  M 8.02 453.05
  L 8.03 359.94"
/>
<path stroke="#3a4043" vector-effect="non-scaling-stroke" d="
  M 8.02 322.05
  L 8.03 228.98"
/>
<path stroke="#313c41" vector-effect="non-scaling-stroke" d="
  M 514.99 74.00
  A 11.98 11.98 0.0 0 0 503.01 62.02
  A 11.98 11.98 0.0 0 0 491.03 74.00
  A 11.98 11.98 0.0 0 0 503.01 85.98
  A 11.98 11.98 0.0 0 0 514.99 74.00"
/>
<path stroke="#414445" vector-effect="non-scaling-stroke" d="
  M 386.00 1274.76
  A 8.78 8.78 0.0 0 0 377.22 1265.98
  L 295.79 1265.98
  A 8.78 8.78 0.0 0 0 287.01 1274.76
  L 287.01 1325.20
  A 8.78 8.78 0.0 0 0 295.79 1333.98
  L 377.22 1333.98
  A 8.78 8.78 0.0 0 0 386.00 1325.20
  L 386.00 1274.76"
/>
<path stroke="#708389" vector-effect="non-scaling-stroke" d="
  M 291.18 1373.02
  C 290.63 1376.50 290.98 1380.33 290.98 1383.13
  Q 291.01 1429.94 291.02 1476.74
  Q 291.03 1498.13 306.63 1512.12
  Q 317.20 1521.59 332.26 1523.71"
/>
<path stroke="#5e6b70" vector-effect="non-scaling-stroke" d="
  M 332.26 1523.71
  Q 321.75 1524.50 311.84 1523.41
  Q 308.95 1523.09 305.96 1522.46"
/>
<path stroke="#607075" vector-effect="non-scaling-stroke" d="
  M 385.04 1373.06
  Q 384.97 1417.96 384.99 1462.82
  Q 385.00 1482.37 383.88 1487.59
  Q 380.72 1502.35 368.72 1512.72
  Q 359.69 1520.52 346.27 1523.54"
/>
<path stroke="#566267" vector-effect="non-scaling-stroke" d="
  M 346.27 1523.54
  L 332.26 1523.71"
/>
<path stroke="#4e585c" vector-effect="non-scaling-stroke" d="
  M 372.88 1521.41
  Q 367.39 1523.38 363.99 1523.75
  Q 356.88 1524.53 346.27 1523.54"
/>
<path stroke="#4e585c" vector-effect="non-scaling-stroke" d="
  M 373.07 1527.84
  L 359.10 1528.13"
/>
<path stroke="#566267" vector-effect="non-scaling-stroke" d="
  M 359.10 1528.13
  L 316.48 1528.05"
/>
<path stroke="#5e6b70" vector-effect="non-scaling-stroke" d="
  M 316.48 1528.05
  L 305.23 1527.43"
/>
<path stroke="#708389" vector-effect="non-scaling-stroke" d="
  M 316.48 1528.05
  Q 319.42 1533.86 317.87 1540.39
  C 317.35 1542.59 315.97 1544.72 314.99 1546.95"
/>
<path stroke="#5e6b70" vector-effect="non-scaling-stroke" d="
  M 314.99 1546.95
  Q 312.30 1546.68 311.96 1547.99"
/>
<path stroke="#4e585c" vector-effect="non-scaling-stroke" d="
  M 367.35 1547.28
  L 355.25 1546.98"
/>
<path stroke="#607075" vector-effect="non-scaling-stroke" d="
  M 355.25 1546.98
  Q 361.19 1542.00 360.94 1535.42
  C 360.85 1533.12 359.81 1530.58 359.10 1528.13"
/>
<path stroke="#566267" vector-effect="non-scaling-stroke" d="
  M 355.25 1546.98
  L 314.99 1546.95"
/>
<path stroke="#4e585c" vector-effect="non-scaling-stroke" d="
  M 366.91 1550.87
  L 355.66 1551.03"
/>
<path stroke="#566267" vector-effect="non-scaling-stroke" d="
  M 355.66 1551.03
  L 322.67 1550.99"
/>
<path stroke="#5e6b70" vector-effect="non-scaling-stroke" d="
  M 322.67 1550.99
  L 311.56 1550.68"
/>
<path stroke="#708389" vector-effect="non-scaling-stroke" d="
  M 322.67 1550.99
  Q 322.80 1552.18 323.60 1555.40
  Q 325.71 1563.80 320.50 1570.95"
/>
<path stroke="#5e6b70" vector-effect="non-scaling-stroke" d="
  M 320.50 1570.95
  Q 318.24 1570.84 317.86 1571.89"
/>
<path stroke="#607075" vector-effect="non-scaling-stroke" d="
  M 355.66 1551.03
  Q 356.13 1552.66 356.72 1554.16
  C 358.33 1558.27 358.40 1562.10 356.63 1566.17
  C 355.95 1567.73 354.46 1569.30 353.45 1570.98"
/>
<path stroke="#566267" vector-effect="non-scaling-stroke" d="
  M 353.45 1570.98
  L 320.50 1570.95"
/>
<path stroke="#4e585c" vector-effect="non-scaling-stroke" d="
  M 361.19 1571.71
  Q 358.02 1570.55 353.45 1570.98"
/>
<path stroke="#4e585c" vector-effect="non-scaling-stroke" d="
  M 361.09 1574.66
  L 352.97 1575.04"
/>
<path stroke="#566267" vector-effect="non-scaling-stroke" d="
  M 352.97 1575.04
  L 329.14 1575.01"
/>
<path stroke="#5e6b70" vector-effect="non-scaling-stroke" d="
  M 329.14 1575.01
  L 317.80 1574.79"
/>
<path stroke="#708389" vector-effect="non-scaling-stroke" d="
  M 329.14 1575.01
  C 331.18 1581.51 332.21 1587.88 327.86 1593.62
  Q 326.98 1594.78 326.19 1596.00"
/>
<path stroke="#607075" vector-effect="non-scaling-stroke" d="
  M 349.97 1596.00
  Q 358.12 1587.61 352.97 1575.04"
/>
</g>
<path fill="#303538" d="
  M 578.84 0.00
  Q 585.16 2.08 591.46 4.15
  Q 599.38 6.75 603.79 8.98
  C 630.37 22.41 648.18 48.07 652.17 77.66
  Q 653.00 83.78 653.00 111.41
  Q 652.98 659.06 653.00 1267.41
  Q 653.00 1291.42 651.57 1299.39
  Q 648.52 1316.41 639.42 1331.17
  Q 621.13 1360.79 587.24 1370.25
  Q 584.53 1371.00 582.91 1372.96
  L 397.95 1373.00
  L 385.04 1373.06
  L 291.18 1373.02
  L 277.99 1373.28
  L 93.30 1372.97
  Q 93.08 1371.75 92.61 1371.67
  C 49.57 1364.50 20.01 1325.68 20.01 1283.00
  Q 20.01 666.37 19.99 101.72
  Q 19.99 81.09 21.52 72.89
  C 28.31 36.48 55.71 8.47 92.21 1.19
  A 0.86 0.85 1.0 0 0 92.87 0.56
  L 92.95 0.21
  Q 93.31 0.31 93.63 0.00
  L 578.84 0.00
  Z
  M 517.97 74.00
  A 14.98 14.98 0.0 0 0 502.99 59.02
  A 14.98 14.98 0.0 0 0 488.01 74.00
  A 14.98 14.98 0.0 0 0 502.99 88.98
  A 14.98 14.98 0.0 0 0 517.97 74.00
  Z
  M 415.93 73.43
  A 6.43 6.43 0.0 0 0 409.50 67.00
  L 263.50 67.00
  A 6.43 6.43 0.0 0 0 257.07 73.43
  L 257.07 73.57
  A 6.43 6.43 0.0 0 0 263.50 80.00
  L 409.50 80.00
  A 6.43 6.43 0.0 0 0 415.93 73.57
  L 415.93 73.43
  Z
  M 38.83 146.04
  A 0.83 0.83 0.0 0 0 38.00 146.87
  L 38.00 1226.21
  A 0.83 0.83 0.0 0 0 38.83 1227.04
  L 634.17 1227.04
  A 0.83 0.83 0.0 0 0 635.00 1226.21
  L 635.00 146.87
  A 0.83 0.83 0.0 0 0 634.17 146.04
  L 38.83 146.04
  Z
  M 281.01 1329.83
  A 10.18 10.18 0.0 0 0 291.19 1340.01
  L 381.83 1340.01
  A 10.18 10.18 0.0 0 0 392.01 1329.83
  L 392.01 1270.19
  A 10.18 10.18 0.0 0 0 381.83 1260.01
  L 291.19 1260.01
  A 10.18 10.18 0.0 0 0 281.01 1270.19
  L 281.01 1329.83
  Z"
/>
<path fill="#25282b" d="
  M 582.62 0.00
  Q 625.59 4.85 649.64 39.35
  Q 658.71 52.37 662.87 69.55
  Q 663.75 73.18 665.00 82.15
  L 665.00 1290.89
  Q 664.24 1295.70 663.30 1300.46
  Q 658.64 1324.27 642.63 1342.40
  Q 624.69 1362.71 598.51 1370.03
  Q 592.48 1371.71 582.91 1372.96
  Q 584.53 1371.00 587.24 1370.25
  Q 621.13 1360.79 639.42 1331.17
  Q 648.52 1316.41 651.57 1299.39
  Q 653.00 1291.42 653.00 1267.41
  Q 652.98 659.06 653.00 111.41
  Q 653.00 83.78 652.17 77.66
  C 648.18 48.07 630.37 22.41 603.79 8.98
  Q 599.38 6.75 591.46 4.15
  Q 585.16 2.08 578.84 0.00
  L 582.62 0.00
  Z"
/>
<path fill="#444a4e" d="
  M 92.95 0.21
  L 92.87 0.56
  A 0.86 0.85 1.0 0 1 92.21 1.19
  C 55.71 8.47 28.31 36.48 21.52 72.89
  Q 19.99 81.09 19.99 101.72
  Q 20.01 666.37 20.01 1283.00
  C 20.01 1325.68 49.57 1364.50 92.61 1371.67
  Q 93.08 1371.75 93.30 1372.97
  Q 89.45 1372.51 85.67 1371.96
  Q 54.84 1367.51 33.73 1345.89
  Q 14.62 1326.32 9.48 1299.62
  Q 7.98 1291.84 7.99 1268.77
  Q 8.01 919.89 8.00 570.99
  L 8.03 506.05
  L 8.02 453.05
  L 8.03 359.94
  L 8.02 322.05
  L 8.03 228.98
  Q 7.98 158.65 8.00 88.25
  Q 8.01 62.82 23.37 40.07
  Q 41.19 13.69 71.32 4.08
  Q 81.53 0.82 92.95 0.21
  Z"
/>
<path fill="#25282b" d="
  M 517.97 74.00
  A 14.98 14.98 0.0 0 1 502.99 88.98
  A 14.98 14.98 0.0 0 1 488.01 74.00
  A 14.98 14.98 0.0 0 1 502.99 59.02
  A 14.98 14.98 0.0 0 1 517.97 74.00
  Z
  M 514.99 74.00
  A 11.98 11.98 0.0 0 0 503.01 62.02
  A 11.98 11.98 0.0 0 0 491.03 74.00
  A 11.98 11.98 0.0 0 0 503.01 85.98
  A 11.98 11.98 0.0 0 0 514.99 74.00
  Z"
/>
<circle fill="#3d5056" cx="503.01" cy="74.00" r="11.98"/>
<rect fill="#25282b" x="257.07" y="67.00" width="158.86" height="13.00" rx="6.43"/>
<path fill="#303538" d="
  M 8.03 228.98
  L 8.02 322.05
  Q 1.64 321.45 0.00 314.51
  L 0.00 236.80
  Q 1.48 229.62 8.03 228.98
  Z"
/>
<path fill="#303538" d="
  M 8.03 359.94
  L 8.02 453.05
  Q 1.67 452.45 0.00 445.52
  L 0.00 367.70
  Q 1.52 360.61 8.03 359.94
  Z"
/>
<path fill="#303538" d="
  M 8.03 506.05
  L 8.00 570.99
  Q 2.03 571.30 0.00 566.86
  L 0.00 510.45
  Q 1.69 505.71 8.03 506.05
  Z"
/>
<path fill="#525252" d="
  M 281.01 1329.83
  L 281.01 1270.19
  A 10.18 10.18 0.0 0 1 291.19 1260.01
  L 381.83 1260.01
  A 10.18 10.18 0.0 0 1 392.01 1270.19
  L 392.01 1329.83
  A 10.18 10.18 0.0 0 1 381.83 1340.01
  L 291.19 1340.01
  A 10.18 10.18 0.0 0 1 281.01 1329.83
  Z
  M 386.00 1274.76
  A 8.78 8.78 0.0 0 0 377.22 1265.98
  L 295.79 1265.98
  A 8.78 8.78 0.0 0 0 287.01 1274.76
  L 287.01 1325.20
  A 8.78 8.78 0.0 0 0 295.79 1333.98
  L 377.22 1333.98
  A 8.78 8.78 0.0 0 0 386.00 1325.20
  L 386.00 1274.76
  Z"
/>
<path fill="#303538" d="
  M 386.00 1274.76
  L 386.00 1325.20
  A 8.78 8.78 0.0 0 1 377.22 1333.98
  L 295.79 1333.98
  A 8.78 8.78 0.0 0 1 287.01 1325.20
  L 287.01 1274.76
  A 8.78 8.78 0.0 0 1 295.79 1265.98
  L 377.22 1265.98
  A 8.78 8.78 0.0 0 1 386.00 1274.76
  Z"
/>
<path fill="#788c92" d="
  M 291.18 1373.02
  C 290.63 1376.50 290.98 1380.33 290.98 1383.13
  Q 291.01 1429.94 291.02 1476.74
  Q 291.03 1498.13 306.63 1512.12
  Q 317.20 1521.59 332.26 1523.71
  Q 321.75 1524.50 311.84 1523.41
  Q 308.95 1523.09 305.96 1522.46
  C 292.11 1517.76 281.67 1506.84 278.59 1492.24
  Q 277.99 1489.38 277.99 1485.71
  Q 278.02 1429.80 277.99 1373.28
  L 291.18 1373.02
  Z"
/>
<path fill="#687a7f" d="
  M 385.04 1373.06
  Q 384.97 1417.96 384.99 1462.82
  Q 385.00 1482.37 383.88 1487.59
  Q 380.72 1502.35 368.72 1512.72
  Q 359.69 1520.52 346.27 1523.54
  L 332.26 1523.71
  Q 317.20 1521.59 306.63 1512.12
  Q 291.03 1498.13 291.02 1476.74
  Q 291.01 1429.94 290.98 1383.13
  C 290.98 1380.33 290.63 1376.50 291.18 1373.02
  L 385.04 1373.06
  Z"
/>
<path fill="#57666a" d="
  M 397.95 1373.00
  Q 398.11 1428.15 397.91 1482.82
  Q 397.88 1490.29 396.59 1494.84
  Q 391.38 1513.20 372.88 1521.41
  Q 367.39 1523.38 363.99 1523.75
  Q 356.88 1524.53 346.27 1523.54
  Q 359.69 1520.52 368.72 1512.72
  Q 380.72 1502.35 383.88 1487.59
  Q 385.00 1482.37 384.99 1462.82
  Q 384.97 1417.96 385.04 1373.06
  L 397.95 1373.00
  Z"
/>
<path fill="#444a4e" d="
  M 372.88 1521.41
  L 373.07 1527.84
  L 359.10 1528.13
  L 316.48 1528.05
  L 305.23 1527.43
  Q 306.53 1525.63 305.96 1522.46
  Q 308.95 1523.09 311.84 1523.41
  Q 321.75 1524.50 332.26 1523.71
  L 346.27 1523.54
  Q 356.88 1524.53 363.99 1523.75
  Q 367.39 1523.38 372.88 1521.41
  Z"
/>
<path fill="#788c92" d="
  M 305.23 1527.43
  L 316.48 1528.05
  Q 319.42 1533.86 317.87 1540.39
  C 317.35 1542.59 315.97 1544.72 314.99 1546.95
  Q 312.30 1546.68 311.96 1547.99
  Q 307.80 1548.32 305.10 1544.64
  Q 298.55 1535.70 305.23 1527.43
  Z"
/>
<path fill="#57666a" d="
  M 373.07 1527.84
  C 380.59 1534.54 376.45 1545.09 367.35 1547.28
  L 355.25 1546.98
  Q 361.19 1542.00 360.94 1535.42
  C 360.85 1533.12 359.81 1530.58 359.10 1528.13
  L 373.07 1527.84
  Z"
/>
<path fill="#687a7f" d="
  M 359.10 1528.13
  C 359.81 1530.58 360.85 1533.12 360.94 1535.42
  Q 361.19 1542.00 355.25 1546.98
  L 314.99 1546.95
  C 315.97 1544.72 317.35 1542.59 317.87 1540.39
  Q 319.42 1533.86 316.48 1528.05
  L 359.10 1528.13
  Z"
/>
<path fill="#444a4e" d="
  M 314.99 1546.95
  L 355.25 1546.98
  L 367.35 1547.28
  L 366.91 1550.87
  L 355.66 1551.03
  L 322.67 1550.99
  L 311.56 1550.68
  Q 312.43 1549.59 311.96 1547.99
  Q 312.30 1546.68 314.99 1546.95
  Z"
/>
<path fill="#788c92" d="
  M 311.56 1550.68
  L 322.67 1550.99
  Q 322.80 1552.18 323.60 1555.40
  Q 325.71 1563.80 320.50 1570.95
  Q 318.24 1570.84 317.86 1571.89
  Q 316.39 1572.12 314.82 1571.85
  A 2.33 2.30 -21.9 0 1 313.84 1571.44
  Q 306.11 1565.73 308.42 1556.12
  Q 309.21 1552.81 311.56 1550.68
  Z"
/>
<path fill="#687a7f" d="
  M 355.66 1551.03
  Q 356.13 1552.66 356.72 1554.16
  C 358.33 1558.27 358.40 1562.10 356.63 1566.17
  C 355.95 1567.73 354.46 1569.30 353.45 1570.98
  L 320.50 1570.95
  Q 325.71 1563.80 323.60 1555.40
  Q 322.80 1552.18 322.67 1550.99
  L 355.66 1551.03
  Z"
/>
<path fill="#57666a" d="
  M 366.91 1550.87
  Q 373.49 1557.35 369.68 1565.44
  Q 367.15 1570.82 361.19 1571.71
  Q 358.02 1570.55 353.45 1570.98
  C 354.46 1569.30 355.95 1567.73 356.63 1566.17
  C 358.40 1562.10 358.33 1558.27 356.72 1554.16
  Q 356.13 1552.66 355.66 1551.03
  L 366.91 1550.87
  Z"
/>
<path fill="#444a4e" d="
  M 353.45 1570.98
  Q 358.02 1570.55 361.19 1571.71
  Q 360.67 1573.27 361.09 1574.66
  L 352.97 1575.04
  L 329.14 1575.01
  L 317.80 1574.79
  Q 318.18 1573.20 317.86 1571.89
  Q 318.24 1570.84 320.50 1570.95
  L 353.45 1570.98
  Z"
/>
<path fill="#788c92" d="
  M 329.14 1575.01
  C 331.18 1581.51 332.21 1587.88 327.86 1593.62
  Q 326.98 1594.78 326.19 1596.00
  L 321.09 1596.00
  C 315.43 1592.83 314.81 1587.51 315.04 1581.50
  Q 315.18 1577.96 317.80 1574.79
  L 329.14 1575.01
  Z"
/>
<path fill="#57666a" d="
  M 361.09 1574.66
  Q 368.79 1589.68 356.29 1596.00
  L 349.97 1596.00
  Q 358.12 1587.61 352.97 1575.04
  L 361.09 1574.66
  Z"
/>
<path fill="#687a7f" d="
  M 352.97 1575.04
  Q 358.12 1587.61 349.97 1596.00
  L 326.19 1596.00
  Q 326.98 1594.78 327.86 1593.62
  C 332.21 1587.88 331.18 1581.51 329.14 1575.01
  L 352.97 1575.04
  Z"
/>
</svg>
