<?xml version="1.0" encoding="UTF-8" standalone="no"?>
<!DOCTYPE svg PUBLIC "-//W3C//DTD SVG 1.1//EN" "http://www.w3.org/Graphics/SVG/1.1/DTD/svg11.dtd">
<svg xmlns="http://www.w3.org/2000/svg" version="1.1" viewBox="0.00 0.00 281.00 842.00">
<g stroke-width="2.00" fill="none" stroke-linecap="butt">
<path stroke="#607075" vector-effect="non-scaling-stroke" d="
  M 133.07 0.00
  C 127.18 5.74 126.92 13.62 130.04 20.84"
/>
<path stroke="#4e5b5e" vector-effect="non-scaling-stroke" d="
  M 130.04 20.84
  L 121.91 20.82"
/>
<path stroke="#708389" vector-effect="non-scaling-stroke" d="
  M 156.78 0.00
  C 155.41 2.10 153.70 4.11 152.95 6.40
  C 151.30 11.48 152.31 15.38 153.79 20.90"
/>
<path stroke="#566569" vector-effect="non-scaling-stroke" d="
  M 153.79 20.90
  L 130.04 20.84"
/>
<path stroke="#5e6e72" vector-effect="non-scaling-stroke" d="
  M 165.42 20.95
  L 153.79 20.90"
/>
<path stroke="#5e6e72" vector-effect="non-scaling-stroke" d="
  M 165.14 24.15
  Q 164.25 25.29 161.84 25.10"
/>
<path stroke="#566569" vector-effect="non-scaling-stroke" d="
  M 161.84 25.10
  L 129.50 25.03"
/>
<path stroke="#4e5b5e" vector-effect="non-scaling-stroke" d="
  M 129.50 25.03
  Q 125.11 25.46 121.87 24.30"
/>
<path stroke="#5e6e72" vector-effect="non-scaling-stroke" d="
  M 171.47 45.20
  L 160.91 44.87"
/>
<path stroke="#708389" vector-effect="non-scaling-stroke" d="
  M 160.91 44.87
  Q 157.92 38.52 159.30 32.07
  C 159.78 29.86 161.08 27.52 161.84 25.10"
/>
<path stroke="#607075" vector-effect="non-scaling-stroke" d="
  M 129.50 25.03
  Q 121.66 34.24 127.61 44.86"
/>
<path stroke="#4e5b5e" vector-effect="non-scaling-stroke" d="
  M 127.61 44.86
  L 115.97 45.02"
/>
<path stroke="#566569" vector-effect="non-scaling-stroke" d="
  M 160.91 44.87
  L 127.61 44.86"
/>
<path stroke="#5e6e72" vector-effect="non-scaling-stroke" d="
  M 171.15 48.12
  Q 170.37 49.30 167.96 49.07"
/>
<path stroke="#566569" vector-effect="non-scaling-stroke" d="
  M 167.96 49.07
  L 127.35 49.03"
/>
<path stroke="#4e5b5e" vector-effect="non-scaling-stroke" d="
  M 127.35 49.03
  L 115.99 48.65"
/>
<path stroke="#5e6e72" vector-effect="non-scaling-stroke" d="
  M 177.70 68.45
  L 167.06 68.05"
/>
<path stroke="#708389" vector-effect="non-scaling-stroke" d="
  M 167.06 68.05
  Q 165.25 65.86 164.84 62.91
  Q 163.87 55.90 167.96 49.07"
/>
<path stroke="#607075" vector-effect="non-scaling-stroke" d="
  M 127.35 49.03
  Q 117.89 58.77 125.07 68.04"
/>
<path stroke="#4e5b5e" vector-effect="non-scaling-stroke" d="
  M 125.07 68.04
  L 110.04 68.18"
/>
<path stroke="#566569" vector-effect="non-scaling-stroke" d="
  M 167.06 68.05
  L 125.07 68.04"
/>
<path stroke="#673f43" vector-effect="non-scaling-stroke" d="
  M 177.17 72.02
  L 109.98 71.98"
/>
<path stroke="#982e34" vector-effect="non-scaling-stroke" d="
  M 185.73 88.00
  Q 143.42 78.61 101.12 86.87"
/>
<path stroke="#902a2e" vector-effect="non-scaling-stroke" d="
  M 271.86 190.97
  Q 271.19 191.42 271.10 192.21
  Q 268.75 213.04 263.33 232.53
  Q 251.43 275.28 229.65 313.40
  C 221.06 328.44 211.37 341.93 200.63 355.12
  C 187.66 371.04 170.02 382.57 149.74 385.34
  C 121.83 389.15 96.96 375.20 79.80 353.96
  C 69.48 341.18 60.29 328.46 51.87 313.91
  Q 29.82 275.80 17.74 232.76
  Q 12.48 214.00 10.05 194.74"
/>
<path stroke="#982e34" vector-effect="non-scaling-stroke" d="
  M 10.05 194.74
  Q 9.89 191.88 9.38 192.18"
/>
<path stroke="#902a2e" vector-effect="non-scaling-stroke" d="
  M 149.95 245.50
  A 9.45 9.45 0.0 0 0 140.50 236.05
  A 9.45 9.45 0.0 0 0 131.05 245.50
  A 9.45 9.45 0.0 0 0 140.50 254.95
  A 9.45 9.45 0.0 0 0 149.95 245.50"
/>
<path stroke="#902a2e" vector-effect="non-scaling-stroke" d="
  M 149.95 296.50
  A 9.45 9.45 0.0 0 0 140.50 287.05
  A 9.45 9.45 0.0 0 0 131.05 296.50
  A 9.45 9.45 0.0 0 0 140.50 305.95
  A 9.45 9.45 0.0 0 0 149.95 296.50"
/>
<path stroke="#902a2e" vector-effect="non-scaling-stroke" d="
  M 149.95 347.50
  A 9.45 9.45 0.0 0 0 140.50 338.05
  A 9.45 9.45 0.0 0 0 131.05 347.50
  A 9.45 9.45 0.0 0 0 140.50 356.95
  A 9.45 9.45 0.0 0 0 149.95 347.50"
/>
<path stroke="#a12f32" vector-effect="non-scaling-stroke" d="
  M 272.10 193.57
  C 271.47 227.52 262.31 261.34 249.11 292.41
  Q 248.78 293.20 248.44 295.69"
/>
<path stroke="#902a2e" vector-effect="non-scaling-stroke" d="
  M 248.44 295.69
  Q 247.73 295.72 247.50 296.27
  C 237.72 318.99 226.36 339.61 212.19 358.90
  Q 204.46 369.43 199.61 375.35
  Q 185.76 392.28 165.56 400.38
  A 0.91 0.90 -11.1 0 0 164.99 401.22
  L 164.99 436.33
  A 0.75 0.75 0.0 0 0 165.81 437.08
  C 176.17 436.16 184.86 439.12 184.96 451.25
  Q 184.98 454.66 185.08 475.32
  C 185.14 487.83 183.80 496.09 175.35 504.42
  A 0.22 0.22 0.0 0 0 175.43 504.79
  Q 184.89 508.06 184.94 518.51
  Q 185.09 545.25 184.99 565.75
  C 184.96 572.41 183.20 577.71 176.61 580.42
  A 0.46 0.46 0.0 0 0 176.38 581.06
  Q 177.87 583.83 178.57 588.53
  A 1.11 1.06 -43.8 0 1 178.55 588.99
  L 177.56 593.05
  A 0.75 0.75 0.0 0 0 178.00 593.93
  C 185.99 597.37 185.17 608.13 184.84 615.23
  Q 184.48 622.99 178.09 626.88
  A 0.96 0.95 67.7 0 0 177.66 627.93
  L 178.54 631.46
  A 2.34 2.29 44.4 0 1 178.56 632.50
  C 177.69 636.65 177.63 637.86 174.61 641.24
  A 0.46 0.45 -55.0 0 0 174.73 641.94
  Q 175.05 642.11 175.62 642.15
  C 179.23 642.37 182.74 646.56 183.89 649.59
  Q 185.04 652.63 185.03 656.75
  C 185.00 663.52 185.23 666.77 183.09 671.43
  Q 182.22 673.31 178.54 676.25
  Q 168.48 684.31 167.63 684.97
  A 0.14 0.14 0.0 0 0 167.72 685.22
  L 171.99 685.22
  A 2.07 1.97 55.8 0 1 172.82 685.40
  Q 174.09 685.98 176.38 686.24
  A 4.25 4.18 62.9 0 1 178.03 686.79
  Q 184.40 690.54 184.89 698.27
  Q 185.32 705.03 184.63 709.88
  C 183.14 720.34 174.43 721.32 165.72 720.98
  A 0.61 0.61 0.0 0 0 165.09 721.59
  L 165.15 750.28"
/>
<path stroke="#a12f32" vector-effect="non-scaling-stroke" d="
  M 165.15 750.28
  L 165.00 756.99"
/>
<path stroke="#81292d" vector-effect="non-scaling-stroke" d="
  M 165.00 756.99
  L 119.73 756.95
  A 0.55 0.54 -1.1 0 1 119.18 756.43
  L 118.97 752.10"
/>
<path stroke="#902a2e" vector-effect="non-scaling-stroke" d="
  M 118.97 752.10
  L 119.02 721.71
  A 0.74 0.74 0.0 0 0 118.24 720.97
  C 113.13 721.24 105.35 719.60 103.48 713.86
  Q 101.09 706.50 102.59 695.35
  Q 103.24 690.54 107.73 686.99
  Q 113.19 682.68 118.50 678.46
  A 0.61 0.61 0.0 0 0 118.07 677.37
  Q 114.56 677.68 110.82 676.46
  C 102.15 673.66 101.94 665.47 102.05 657.32
  Q 102.13 650.92 103.94 647.80
  Q 107.38 641.87 115.11 641.64
  A 0.21 0.20 -24.0 0 0 115.25 641.29
  Q 106.35 632.83 103.48 621.76
  Q 99.22 605.32 106.77 589.97
  C 108.03 587.40 110.09 584.75 112.56 581.95
  A 0.59 0.59 0.0 0 0 112.27 580.99
  Q 102.39 578.27 102.21 567.25
  Q 101.76 540.44 102.24 519.82
  Q 102.32 516.31 102.52 514.19
  Q 102.89 510.29 102.35 504.29
  Q 101.75 497.68 102.44 489.13
  Q 102.88 483.72 105.92 480.84
  Q 110.52 476.46 113.85 473.12
  A 0.42 0.42 0.0 0 0 113.71 472.44
  Q 112.74 472.03 111.61 471.92
  C 106.83 471.47 103.42 466.81 102.60 462.38
  Q 101.66 457.31 102.23 450.03
  C 103.06 439.37 109.01 437.40 118.46 436.96
  A 0.65 0.65 0.0 0 0 119.08 436.31
  L 119.08 402.08
  A 0.91 0.89 10.4 0 0 118.49 401.24
  Q 98.81 393.71 85.51 379.21
  C 62.85 354.50 45.73 325.34 32.25 293.51"
/>
<path stroke="#81292d" vector-effect="non-scaling-stroke" d="
  M 32.25 293.51
  C 20.33 265.94 11.91 236.45 9.21 206.29
  Q 8.65 200.03 10.05 194.74"
/>
<path stroke="#9a2c35" vector-effect="non-scaling-stroke" d="
  M 114.80 505.96
  L 132.29 488.47
  A 0.48 0.47 55.8 0 1 133.06 488.62
  Q 138.85 501.39 152.17 501.76
  C 163.44 502.07 172.97 492.89 172.95 481.50
  Q 172.91 459.54 172.99 449.80
  A 0.73 0.72 -89.6 0 0 172.27 449.06
  L 114.74 449.06
  A 0.67 0.67 0.0 0 0 114.07 449.73
  L 114.07 460.09
  A 0.52 0.52 0.0 0 0 114.59 460.61
  L 132.53 460.61
  A 0.57 0.57 0.0 0 1 133.10 461.18
  L 133.10 469.90
  A 2.32 2.29 -22.5 0 1 132.41 471.54
  L 114.82 489.13
  A 2.74 2.73 -22.8 0 0 114.03 491.05
  L 114.03 505.64
  A 0.45 0.45 0.0 0 0 114.80 505.96"
/>
<path stroke="#9a2c35" vector-effect="non-scaling-stroke" d="
  M 148.66 557.44
  A 0.76 0.76 0.0 0 0 149.42 556.68
  L 149.42 517.16
  A 0.76 0.76 0.0 0 0 148.66 516.40
  L 114.80 516.40
  A 0.76 0.76 0.0 0 0 114.04 517.16
  L 114.04 568.50
  A 0.76 0.76 0.0 0 0 114.80 569.26
  L 125.08 569.26
  A 0.76 0.76 0.0 0 0 125.84 568.50
  L 125.84 528.84
  A 0.76 0.76 0.0 0 1 126.60 528.08
  L 136.83 528.08
  A 0.76 0.76 0.0 0 1 137.59 528.84
  L 137.59 556.68
  A 0.76 0.76 0.0 0 0 138.35 557.44
  L 148.66 557.44"
/>
<path stroke="#9a2c35" vector-effect="non-scaling-stroke" d="
  M 172.95 516.98
  A 0.58 0.58 0.0 0 0 172.37 516.40
  L 161.81 516.40
  A 0.58 0.58 0.0 0 0 161.23 516.98
  L 161.23 568.64
  A 0.58 0.58 0.0 0 0 161.81 569.22
  L 172.37 569.22
  A 0.58 0.58 0.0 0 0 172.95 568.64
  L 172.95 516.98"
/>
<path stroke="#b3404f" vector-effect="non-scaling-stroke" d="
  M 114.10 610.20
  Q 114.10 614.67 114.31 615.75
  C 119.09 640.36 148.38 649.39 166.60 632.42
  A 0.40 0.40 0.0 0 0 166.61 631.84
  L 158.77 623.99
  A 0.55 0.55 0.0 0 0 158.01 623.99
  C 145.95 635.61 125.82 626.75 125.82 610.19
  C 125.82 593.64 145.94 584.77 158.00 596.39
  A 0.55 0.55 0.0 0 0 158.77 596.39
  L 166.60 588.54
  A 0.40 0.40 0.0 0 0 166.59 587.96
  C 148.37 570.99 119.08 580.03 114.31 604.64
  Q 114.10 605.72 114.10 610.20"
/>
<path stroke="#b3404f" vector-effect="non-scaling-stroke" d="
  M 172.88 604.79
  A 0.48 0.48 0.0 0 0 172.40 604.31
  L 147.60 604.31
  A 0.48 0.48 0.0 0 0 147.12 604.79
  L 147.12 615.83
  A 0.48 0.48 0.0 0 0 147.60 616.31
  L 172.40 616.31
  A 0.48 0.48 0.0 0 0 172.88 615.83
  L 172.88 604.79"
/>
<path stroke="#9a2c35" vector-effect="non-scaling-stroke" d="
  M 139.75 676.77
  Q 129.33 685.28 114.74 696.82
  A 1.72 1.71 71.2 0 0 114.08 698.17
  L 114.08 708.35
  A 0.65 0.64 0.0 0 0 114.73 708.99
  L 172.30 708.99
  A 0.67 0.67 0.0 0 0 172.97 708.32
  L 172.97 697.92
  A 0.47 0.47 0.0 0 0 172.50 697.45
  L 133.68 697.45
  A 0.34 0.34 0.0 0 1 133.47 696.84
  Q 140.56 691.35 147.30 685.84
  Q 157.73 677.33 172.32 665.79
  A 1.72 1.71 71.2 0 0 172.98 664.44
  L 172.98 654.26
  A 0.65 0.64 0.0 0 0 172.33 653.62
  L 114.76 653.62
  A 0.67 0.67 0.0 0 0 114.09 654.29
  L 114.09 664.69
  A 0.47 0.47 0.0 0 0 114.56 665.16
  L 153.38 665.16
  A 0.34 0.34 0.0 0 1 153.59 665.77
  Q 146.49 671.26 139.75 676.77"
/>
<path stroke="#982e34" vector-effect="non-scaling-stroke" d="
  M 32.25 293.51
  Q 31.98 296.39 31.97 299.21
  Q 31.80 408.64 31.90 501.92
  C 31.92 524.77 32.73 544.91 34.91 566.12
  C 38.98 605.72 47.57 645.52 62.88 682.11
  Q 70.43 700.16 81.26 716.73
  C 90.52 730.90 103.42 744.89 118.97 752.10"
/>
<path stroke="#a93338" vector-effect="non-scaling-stroke" d="
  M 165.00 756.99
  L 185.90 757.02"
/>
<path stroke="#673f43" vector-effect="non-scaling-stroke" d="
  M 177.15 770.07
  L 110.17 770.06"
/>
<path stroke="#b83339" vector-effect="non-scaling-stroke" d="
  M 165.15 750.28
  Q 172.30 746.74 177.99 741.73
  C 193.07 728.42 204.22 711.44 212.89 693.39
  C 229.51 658.79 239.01 620.14 244.16 581.69
  Q 248.95 545.83 248.96 509.75
  Q 248.98 435.32 249.02 298.75
  Q 249.02 297.13 248.44 295.69"
/>
<path stroke="#9a2c35" vector-effect="non-scaling-stroke" d="
  M 160.53 460.61
  L 144.23 460.61
  A 0.70 0.70 0.0 0 0 143.53 461.31
  L 143.53 480.96
  A 8.93 8.77 -90.0 0 0 152.30 489.89
  L 152.46 489.89
  A 8.93 8.77 90.0 0 0 161.23 480.96
  L 161.23 461.31
  A 0.70 0.70 0.0 0 0 160.53 460.61"
/>
<path stroke="#5e6e72" vector-effect="non-scaling-stroke" d="
  M 178.08 773.51
  L 165.41 774.06"
/>
<path stroke="#566569" vector-effect="non-scaling-stroke" d="
  M 165.41 774.06
  L 124.02 774.07"
/>
<path stroke="#4e5b5e" vector-effect="non-scaling-stroke" d="
  M 124.02 774.07
  L 109.89 773.76"
/>
<path stroke="#5e6e72" vector-effect="non-scaling-stroke" d="
  M 171.11 793.85
  Q 170.26 792.77 167.58 792.90"
/>
<path stroke="#708389" vector-effect="non-scaling-stroke" d="
  M 167.58 792.90
  C 166.78 790.94 165.44 789.20 164.88 787.36
  C 163.37 782.49 164.39 778.59 165.41 774.06"
/>
<path stroke="#607075" vector-effect="non-scaling-stroke" d="
  M 124.02 774.07
  Q 118.60 784.82 127.19 792.89"
/>
<path stroke="#4e5b5e" vector-effect="non-scaling-stroke" d="
  M 127.19 792.89
  L 116.00 793.39"
/>
<path stroke="#566569" vector-effect="non-scaling-stroke" d="
  M 167.58 792.90
  L 127.19 792.89"
/>
<path stroke="#5e6e72" vector-effect="non-scaling-stroke" d="
  M 171.49 796.85
  L 159.89 797.11"
/>
<path stroke="#566569" vector-effect="non-scaling-stroke" d="
  M 159.89 797.11
  L 127.55 797.11"
/>
<path stroke="#4e5b5e" vector-effect="non-scaling-stroke" d="
  M 127.55 797.11
  L 115.75 796.93"
/>
<path stroke="#607075" vector-effect="non-scaling-stroke" d="
  M 127.55 797.11
  Q 121.62 808.13 129.66 816.91"
/>
<path stroke="#4e5b5e" vector-effect="non-scaling-stroke" d="
  M 129.66 816.91
  Q 124.70 816.39 121.77 817.88"
/>
<path stroke="#5e6e72" vector-effect="non-scaling-stroke" d="
  M 165.10 817.91
  Q 164.32 816.82 161.74 816.87"
/>
<path stroke="#708389" vector-effect="non-scaling-stroke" d="
  M 161.74 816.87
  Q 155.55 807.90 159.89 797.11"
/>
<path stroke="#566569" vector-effect="non-scaling-stroke" d="
  M 161.74 816.87
  L 129.66 816.91"
/>
<path stroke="#5e6e72" vector-effect="non-scaling-stroke" d="
  M 165.21 820.92
  L 153.01 821.05"
/>
<path stroke="#566569" vector-effect="non-scaling-stroke" d="
  M 153.01 821.05
  L 129.93 821.08"
/>
<path stroke="#4e5b5e" vector-effect="non-scaling-stroke" d="
  M 129.93 821.08
  L 122.00 820.96"
/>
<path stroke="#607075" vector-effect="non-scaling-stroke" d="
  M 129.93 821.08
  Q 124.92 833.74 133.10 842.00"
/>
<path stroke="#708389" vector-effect="non-scaling-stroke" d="
  M 153.01 821.05
  Q 149.30 829.82 152.71 837.26
  C 153.47 838.93 155.09 840.36 156.19 842.00"
/>
</g>
<path fill="#57666a" d="
  M 133.07 0.00
  C 127.18 5.74 126.92 13.62 130.04 20.84
  L 121.91 20.82
  C 117.02 14.09 118.15 3.00 126.87 0.00
  L 133.07 0.00
  Z"
/>
<path fill="#687a7f" d="
  M 156.78 0.00
  C 155.41 2.10 153.70 4.11 152.95 6.40
  C 151.30 11.48 152.31 15.38 153.79 20.90
  L 130.04 20.84
  C 126.92 13.62 127.18 5.74 133.07 0.00
  L 156.78 0.00
  Z"
/>
<path fill="#788c92" d="
  M 161.93 0.00
  Q 167.00 2.87 167.85 9.28
  Q 168.77 16.26 165.42 20.95
  L 153.79 20.90
  C 152.31 15.38 151.30 11.48 152.95 6.40
  C 153.70 4.11 155.41 2.10 156.78 0.00
  L 161.93 0.00
  Z"
/>
<path fill="#445052" d="
  M 130.04 20.84
  L 153.79 20.90
  L 165.42 20.95
  Q 164.69 22.20 165.14 24.15
  Q 164.25 25.29 161.84 25.10
  L 129.50 25.03
  Q 125.11 25.46 121.87 24.30
  Q 122.25 22.59 121.91 20.82
  L 130.04 20.84
  Z"
/>
<path fill="#788c92" d="
  M 171.47 45.20
  L 160.91 44.87
  Q 157.92 38.52 159.30 32.07
  C 159.78 29.86 161.08 27.52 161.84 25.10
  Q 164.25 25.29 165.14 24.15
  Q 167.61 23.58 168.70 24.29
  Q 175.63 28.81 175.02 37.25
  Q 174.65 42.40 171.47 45.20
  Z"
/>
<path fill="#57666a" d="
  M 121.87 24.30
  Q 125.11 25.46 129.50 25.03
  Q 121.66 34.24 127.61 44.86
  L 115.97 45.02
  Q 109.55 38.51 113.32 30.56
  Q 115.87 25.15 121.87 24.30
  Z"
/>
<path fill="#687a7f" d="
  M 161.84 25.10
  C 161.08 27.52 159.78 29.86 159.30 32.07
  Q 157.92 38.52 160.91 44.87
  L 127.61 44.86
  Q 121.66 34.24 129.50 25.03
  L 161.84 25.10
  Z"
/>
<path fill="#445052" d="
  M 127.61 44.86
  L 160.91 44.87
  L 171.47 45.20
  Q 170.66 46.60 171.15 48.12
  Q 170.37 49.30 167.96 49.07
  L 127.35 49.03
  L 115.99 48.65
  L 115.97 45.02
  L 127.61 44.86
  Z"
/>
<path fill="#788c92" d="
  M 177.70 68.45
  L 167.06 68.05
  Q 165.25 65.86 164.84 62.91
  Q 163.87 55.90 167.96 49.07
  Q 170.37 49.30 171.15 48.12
  C 174.93 47.34 178.31 51.21 179.72 54.25
  Q 181.32 57.66 180.96 61.43
  Q 180.55 65.70 177.70 68.45
  Z"
/>
<path fill="#57666a" d="
  M 115.99 48.65
  L 127.35 49.03
  Q 117.89 58.77 125.07 68.04
  L 110.04 68.18
  Q 104.22 63.52 106.59 56.58
  Q 108.77 50.22 115.99 48.65
  Z"
/>
<path fill="#687a7f" d="
  M 167.96 49.07
  Q 163.87 55.90 164.84 62.91
  Q 165.25 65.86 167.06 68.05
  L 125.07 68.04
  Q 117.89 58.77 127.35 49.03
  L 167.96 49.07
  Z"
/>
<path fill="#445052" d="
  M 125.07 68.04
  L 167.06 68.05
  L 177.70 68.45
  Q 176.82 70.05 177.17 72.02
  L 109.98 71.98
  L 110.04 68.18
  L 125.07 68.04
  Z"
/>
<path fill="#892d33" d="
  M 177.17 72.02
  L 180.37 71.98
  A 2.07 2.02 57.1 0 1 181.25 72.18
  C 185.89 74.39 186.32 83.68 185.73 88.00
  Q 143.42 78.61 101.12 86.87
  C 100.75 82.64 101.37 74.85 105.42 72.32
  A 2.12 2.08 -60.9 0 1 106.48 72.01
  L 109.98 71.98
  L 177.17 72.02
  Z"
/>
<path fill="#a62e35" d="
  M 185.73 88.00
  C 204.19 92.79 220.86 99.11 236.75 109.97
  C 247.49 117.32 255.45 125.60 262.62 136.38
  Q 265.95 141.38 267.77 146.69
  Q 272.06 159.18 271.93 173.76
  Q 271.86 182.36 271.86 190.97
  Q 271.19 191.42 271.10 192.21
  Q 268.75 213.04 263.33 232.53
  Q 251.43 275.28 229.65 313.40
  C 221.06 328.44 211.37 341.93 200.63 355.12
  C 187.66 371.04 170.02 382.57 149.74 385.34
  C 121.83 389.15 96.96 375.20 79.80 353.96
  C 69.48 341.18 60.29 328.46 51.87 313.91
  Q 29.82 275.80 17.74 232.76
  Q 12.48 214.00 10.05 194.74
  Q 9.89 191.88 9.38 192.18
  Q 8.84 183.06 8.89 175.50
  C 8.96 162.42 10.46 149.24 17.65 137.64
  C 35.33 109.10 68.95 93.13 101.12 86.87
  Q 143.42 78.61 185.73 88.00
  Z
  M 149.95 245.50
  A 9.45 9.45 0.0 0 0 140.50 236.05
  A 9.45 9.45 0.0 0 0 131.05 245.50
  A 9.45 9.45 0.0 0 0 140.50 254.95
  A 9.45 9.45 0.0 0 0 149.95 245.50
  Z
  M 149.95 296.50
  A 9.45 9.45 0.0 0 0 140.50 287.05
  A 9.45 9.45 0.0 0 0 131.05 296.50
  A 9.45 9.45 0.0 0 0 140.50 305.95
  A 9.45 9.45 0.0 0 0 149.95 296.50
  Z
  M 149.95 347.50
  A 9.45 9.45 0.0 0 0 140.50 338.05
  A 9.45 9.45 0.0 0 0 131.05 347.50
  A 9.45 9.45 0.0 0 0 140.50 356.95
  A 9.45 9.45 0.0 0 0 149.95 347.50
  Z"
/>
<path fill="#792526" d="
  M 271.86 190.97
  L 272.10 193.57
  C 271.47 227.52 262.31 261.34 249.11 292.41
  Q 248.78 293.20 248.44 295.69
  Q 247.73 295.72 247.50 296.27
  C 237.72 318.99 226.36 339.61 212.19 358.90
  Q 204.46 369.43 199.61 375.35
  Q 185.76 392.28 165.56 400.38
  A 0.91 0.90 -11.1 0 0 164.99 401.22
  L 164.99 436.33
  A 0.75 0.75 0.0 0 0 165.81 437.08
  C 176.17 436.16 184.86 439.12 184.96 451.25
  Q 184.98 454.66 185.08 475.32
  C 185.14 487.83 183.80 496.09 175.35 504.42
  A 0.22 0.22 0.0 0 0 175.43 504.79
  Q 184.89 508.06 184.94 518.51
  Q 185.09 545.25 184.99 565.75
  C 184.96 572.41 183.20 577.71 176.61 580.42
  A 0.46 0.46 0.0 0 0 176.38 581.06
  Q 177.87 583.83 178.57 588.53
  A 1.11 1.06 -43.8 0 1 178.55 588.99
  L 177.56 593.05
  A 0.75 0.75 0.0 0 0 178.00 593.93
  C 185.99 597.37 185.17 608.13 184.84 615.23
  Q 184.48 622.99 178.09 626.88
  A 0.96 0.95 67.7 0 0 177.66 627.93
  L 178.54 631.46
  A 2.34 2.29 44.4 0 1 178.56 632.50
  C 177.69 636.65 177.63 637.86 174.61 641.24
  A 0.46 0.45 -55.0 0 0 174.73 641.94
  Q 175.05 642.11 175.62 642.15
  C 179.23 642.37 182.74 646.56 183.89 649.59
  Q 185.04 652.63 185.03 656.75
  C 185.00 663.52 185.23 666.77 183.09 671.43
  Q 182.22 673.31 178.54 676.25
  Q 168.48 684.31 167.63 684.97
  A 0.14 0.14 0.0 0 0 167.72 685.22
  L 171.99 685.22
  A 2.07 1.97 55.8 0 1 172.82 685.40
  Q 174.09 685.98 176.38 686.24
  A 4.25 4.18 62.9 0 1 178.03 686.79
  Q 184.40 690.54 184.89 698.27
  Q 185.32 705.03 184.63 709.88
  C 183.14 720.34 174.43 721.32 165.72 720.98
  A 0.61 0.61 0.0 0 0 165.09 721.59
  L 165.15 750.28
  L 165.00 756.99
  L 119.73 756.95
  A 0.55 0.54 -1.1 0 1 119.18 756.43
  L 118.97 752.10
  L 119.02 721.71
  A 0.74 0.74 0.0 0 0 118.24 720.97
  C 113.13 721.24 105.35 719.60 103.48 713.86
  Q 101.09 706.50 102.59 695.35
  Q 103.24 690.54 107.73 686.99
  Q 113.19 682.68 118.50 678.46
  A 0.61 0.61 0.0 0 0 118.07 677.37
  Q 114.56 677.68 110.82 676.46
  C 102.15 673.66 101.94 665.47 102.05 657.32
  Q 102.13 650.92 103.94 647.80
  Q 107.38 641.87 115.11 641.64
  A 0.21 0.20 -24.0 0 0 115.25 641.29
  Q 106.35 632.83 103.48 621.76
  Q 99.22 605.32 106.77 589.97
  C 108.03 587.40 110.09 584.75 112.56 581.95
  A 0.59 0.59 0.0 0 0 112.27 580.99
  Q 102.39 578.27 102.21 567.25
  Q 101.76 540.44 102.24 519.82
  Q 102.32 516.31 102.52 514.19
  Q 102.89 510.29 102.35 504.29
  Q 101.75 497.68 102.44 489.13
  Q 102.88 483.72 105.92 480.84
  Q 110.52 476.46 113.85 473.12
  A 0.42 0.42 0.0 0 0 113.71 472.44
  Q 112.74 472.03 111.61 471.92
  C 106.83 471.47 103.42 466.81 102.60 462.38
  Q 101.66 457.31 102.23 450.03
  C 103.06 439.37 109.01 437.40 118.46 436.96
  A 0.65 0.65 0.0 0 0 119.08 436.31
  L 119.08 402.08
  A 0.91 0.89 10.4 0 0 118.49 401.24
  Q 98.81 393.71 85.51 379.21
  C 62.85 354.50 45.73 325.34 32.25 293.51
  C 20.33 265.94 11.91 236.45 9.21 206.29
  Q 8.65 200.03 10.05 194.74
  Q 12.48 214.00 17.74 232.76
  Q 29.82 275.80 51.87 313.91
  C 60.29 328.46 69.48 341.18 79.80 353.96
  C 96.96 375.20 121.83 389.15 149.74 385.34
  C 170.02 382.57 187.66 371.04 200.63 355.12
  C 211.37 341.93 221.06 328.44 229.65 313.40
  Q 251.43 275.28 263.33 232.53
  Q 268.75 213.04 271.10 192.21
  Q 271.19 191.42 271.86 190.97
  Z
  M 114.80 505.96
  L 132.29 488.47
  A 0.48 0.47 55.8 0 1 133.06 488.62
  Q 138.85 501.39 152.17 501.76
  C 163.44 502.07 172.97 492.89 172.95 481.50
  Q 172.91 459.54 172.99 449.80
  A 0.73 0.72 -89.6 0 0 172.27 449.06
  L 114.74 449.06
  A 0.67 0.67 0.0 0 0 114.07 449.73
  L 114.07 460.09
  A 0.52 0.52 0.0 0 0 114.59 460.61
  L 132.53 460.61
  A 0.57 0.57 0.0 0 1 133.10 461.18
  L 133.10 469.90
  A 2.32 2.29 -22.5 0 1 132.41 471.54
  L 114.82 489.13
  A 2.74 2.73 -22.8 0 0 114.03 491.05
  L 114.03 505.64
  A 0.45 0.45 0.0 0 0 114.80 505.96
  Z
  M 148.66 557.44
  A 0.76 0.76 0.0 0 0 149.42 556.68
  L 149.42 517.16
  A 0.76 0.76 0.0 0 0 148.66 516.40
  L 114.80 516.40
  A 0.76 0.76 0.0 0 0 114.04 517.16
  L 114.04 568.50
  A 0.76 0.76 0.0 0 0 114.80 569.26
  L 125.08 569.26
  A 0.76 0.76 0.0 0 0 125.84 568.50
  L 125.84 528.84
  A 0.76 0.76 0.0 0 1 126.60 528.08
  L 136.83 528.08
  A 0.76 0.76 0.0 0 1 137.59 528.84
  L 137.59 556.68
  A 0.76 0.76 0.0 0 0 138.35 557.44
  L 148.66 557.44
  Z
  M 172.95 516.98
  A 0.58 0.58 0.0 0 0 172.37 516.40
  L 161.81 516.40
  A 0.58 0.58 0.0 0 0 161.23 516.98
  L 161.23 568.64
  A 0.58 0.58 0.0 0 0 161.81 569.22
  L 172.37 569.22
  A 0.58 0.58 0.0 0 0 172.95 568.64
  L 172.95 516.98
  Z
  M 114.10 610.20
  Q 114.10 614.67 114.31 615.75
  C 119.09 640.36 148.38 649.39 166.60 632.42
  A 0.40 0.40 0.0 0 0 166.61 631.84
  L 158.77 623.99
  A 0.55 0.55 0.0 0 0 158.01 623.99
  C 145.95 635.61 125.82 626.75 125.82 610.19
  C 125.82 593.64 145.94 584.77 158.00 596.39
  A 0.55 0.55 0.0 0 0 158.77 596.39
  L 166.60 588.54
  A 0.40 0.40 0.0 0 0 166.59 587.96
  C 148.37 570.99 119.08 580.03 114.31 604.64
  Q 114.10 605.72 114.10 610.20
  Z
  M 172.88 604.79
  A 0.48 0.48 0.0 0 0 172.40 604.31
  L 147.60 604.31
  A 0.48 0.48 0.0 0 0 147.12 604.79
  L 147.12 615.83
  A 0.48 0.48 0.0 0 0 147.60 616.31
  L 172.40 616.31
  A 0.48 0.48 0.0 0 0 172.88 615.83
  L 172.88 604.79
  Z
  M 139.75 676.77
  Q 129.33 685.28 114.74 696.82
  A 1.72 1.71 71.2 0 0 114.08 698.17
  L 114.08 708.35
  A 0.65 0.64 0.0 0 0 114.73 708.99
  L 172.30 708.99
  A 0.67 0.67 0.0 0 0 172.97 708.32
  L 172.97 697.92
  A 0.47 0.47 0.0 0 0 172.50 697.45
  L 133.68 697.45
  A 0.34 0.34 0.0 0 1 133.47 696.84
  Q 140.56 691.35 147.30 685.84
  Q 157.73 677.33 172.32 665.79
  A 1.72 1.71 71.2 0 0 172.98 664.44
  L 172.98 654.26
  A 0.65 0.64 0.0 0 0 172.33 653.62
  L 114.76 653.62
  A 0.67 0.67 0.0 0 0 114.09 654.29
  L 114.09 664.69
  A 0.47 0.47 0.0 0 0 114.56 665.16
  L 153.38 665.16
  A 0.34 0.34 0.0 0 1 153.59 665.77
  Q 146.49 671.26 139.75 676.77
  Z"
/>
<path fill="#892d33" d="
  M 10.05 194.74
  Q 8.65 200.03 9.21 206.29
  C 11.91 236.45 20.33 265.94 32.25 293.51
  Q 31.98 296.39 31.97 299.21
  Q 31.80 408.64 31.90 501.92
  C 31.92 524.77 32.73 544.91 34.91 566.12
  C 38.98 605.72 47.57 645.52 62.88 682.11
  Q 70.43 700.16 81.26 716.73
  C 90.52 730.90 103.42 744.89 118.97 752.10
  L 119.18 756.43
  A 0.55 0.54 -1.1 0 0 119.73 756.95
  L 165.00 756.99
  L 185.90 757.02
  Q 186.17 763.42 183.29 768.23
  A 3.59 3.58 14.5 0 1 180.35 769.96
  L 177.15 770.07
  L 110.17 770.06
  L 106.26 769.92
  A 2.06 2.01 61.7 0 1 105.24 769.60
  C 101.96 767.44 101.02 761.33 101.07 757.64
  A 0.63 0.63 0.0 0 0 100.44 757.00
  L 82.42 757.00
  A 1.29 1.04 -32.6 0 1 82.15 756.97
  C 62.22 752.17 46.14 728.99 36.79 711.70
  Q 25.62 691.04 18.25 669.21
  Q 3.09 624.34 0.00 577.04
  L 0.00 207.80
  Q 1.54 198.86 9.38 192.18
  Q 9.89 191.88 10.05 194.74
  Z"
/>
<path fill="#c9383d" d="
  M 272.10 193.57
  Q 279.65 199.15 281.00 208.73
  L 281.00 572.23
  Q 278.15 631.31 256.40 685.78
  C 247.42 708.25 234.51 732.75 215.61 748.31
  Q 208.66 754.04 200.10 756.64
  A 4.92 4.72 -52.5 0 1 198.80 756.84
  L 185.90 757.02
  L 165.00 756.99
  L 165.15 750.28
  Q 172.30 746.74 177.99 741.73
  C 193.07 728.42 204.22 711.44 212.89 693.39
  C 229.51 658.79 239.01 620.14 244.16 581.69
  Q 248.95 545.83 248.96 509.75
  Q 248.98 435.32 249.02 298.75
  Q 249.02 297.13 248.44 295.69
  Q 248.78 293.20 249.11 292.41
  C 262.31 261.34 271.47 227.52 272.10 193.57
  Z"
/>
<circle fill="#792526" cx="140.50" cy="245.50" r="9.45"/>
<circle fill="#792526" cx="140.50" cy="296.50" r="9.45"/>
<path fill="#a62e35" d="
  M 32.25 293.51
  C 45.73 325.34 62.85 354.50 85.51 379.21
  Q 98.81 393.71 118.49 401.24
  A 0.91 0.89 10.4 0 1 119.08 402.08
  L 119.08 436.31
  A 0.65 0.65 0.0 0 1 118.46 436.96
  C 109.01 437.40 103.06 439.37 102.23 450.03
  Q 101.66 457.31 102.60 462.38
  C 103.42 466.81 106.83 471.47 111.61 471.92
  Q 112.74 472.03 113.71 472.44
  A 0.42 0.42 0.0 0 1 113.85 473.12
  Q 110.52 476.46 105.92 480.84
  Q 102.88 483.72 102.44 489.13
  Q 101.75 497.68 102.35 504.29
  Q 102.89 510.29 102.52 514.19
  Q 102.32 516.31 102.24 519.82
  Q 101.76 540.44 102.21 567.25
  Q 102.39 578.27 112.27 580.99
  A 0.59 0.59 0.0 0 1 112.56 581.95
  C 110.09 584.75 108.03 587.40 106.77 589.97
  Q 99.22 605.32 103.48 621.76
  Q 106.35 632.83 115.25 641.29
  A 0.21 0.20 -24.0 0 1 115.11 641.64
  Q 107.38 641.87 103.94 647.80
  Q 102.13 650.92 102.05 657.32
  C 101.94 665.47 102.15 673.66 110.82 676.46
  Q 114.56 677.68 118.07 677.37
  A 0.61 0.61 0.0 0 1 118.50 678.46
  Q 113.19 682.68 107.73 686.99
  Q 103.24 690.54 102.59 695.35
  Q 101.09 706.50 103.48 713.86
  C 105.35 719.60 113.13 721.24 118.24 720.97
  A 0.74 0.74 0.0 0 1 119.02 721.71
  L 118.97 752.10
  C 103.42 744.89 90.52 730.90 81.26 716.73
  Q 70.43 700.16 62.88 682.11
  C 47.57 645.52 38.98 605.72 34.91 566.12
  C 32.73 544.91 31.92 524.77 31.90 501.92
  Q 31.80 408.64 31.97 299.21
  Q 31.98 296.39 32.25 293.51
  Z"
/>
<path fill="#a62e35" d="
  M 248.44 295.69
  Q 249.02 297.13 249.02 298.75
  Q 248.98 435.32 248.96 509.75
  Q 248.95 545.83 244.16 581.69
  C 239.01 620.14 229.51 658.79 212.89 693.39
  C 204.22 711.44 193.07 728.42 177.99 741.73
  Q 172.30 746.74 165.15 750.28
  L 165.09 721.59
  A 0.61 0.61 0.0 0 1 165.72 720.98
  C 174.43 721.32 183.14 720.34 184.63 709.88
  Q 185.32 705.03 184.89 698.27
  Q 184.40 690.54 178.03 686.79
  A 4.25 4.18 62.9 0 0 176.38 686.24
  Q 174.09 685.98 172.82 685.40
  A 2.07 1.97 55.8 0 0 171.99 685.22
  L 167.72 685.22
  A 0.14 0.14 0.0 0 1 167.63 684.97
  Q 168.48 684.31 178.54 676.25
  Q 182.22 673.31 183.09 671.43
  C 185.23 666.77 185.00 663.52 185.03 656.75
  Q 185.04 652.63 183.89 649.59
  C 182.74 646.56 179.23 642.37 175.62 642.15
  Q 175.05 642.11 174.73 641.94
  A 0.46 0.45 -55.0 0 1 174.61 641.24
  C 177.63 637.86 177.69 636.65 178.56 632.50
  A 2.34 2.29 44.4 0 0 178.54 631.46
  L 177.66 627.93
  A 0.96 0.95 67.7 0 1 178.09 626.88
  Q 184.48 622.99 184.84 615.23
  C 185.17 608.13 185.99 597.37 178.00 593.93
  A 0.75 0.75 0.0 0 1 177.56 593.05
  L 178.55 588.99
  A 1.11 1.06 -43.8 0 0 178.57 588.53
  Q 177.87 583.83 176.38 581.06
  A 0.46 0.46 0.0 0 1 176.61 580.42
  C 183.20 577.71 184.96 572.41 184.99 565.75
  Q 185.09 545.25 184.94 518.51
  Q 184.89 508.06 175.43 504.79
  A 0.22 0.22 0.0 0 1 175.35 504.42
  C 183.80 496.09 185.14 487.83 185.08 475.32
  Q 184.98 454.66 184.96 451.25
  C 184.86 439.12 176.17 436.16 165.81 437.08
  A 0.75 0.75 0.0 0 1 164.99 436.33
  L 164.99 401.22
  A 0.91 0.90 -11.1 0 1 165.56 400.38
  Q 185.76 392.28 199.61 375.35
  Q 204.46 369.43 212.19 358.90
  C 226.36 339.61 237.72 318.99 247.50 296.27
  Q 247.73 295.72 248.44 295.69
  Z"
/>
<circle fill="#792526" cx="140.50" cy="347.50" r="9.45"/>
<path fill="#ba3344" d="
  M 114.80 505.96
  A 0.45 0.45 0.0 0 1 114.03 505.64
  L 114.03 491.05
  A 2.74 2.73 -22.8 0 1 114.82 489.13
  L 132.41 471.54
  A 2.32 2.29 -22.5 0 0 133.10 469.90
  L 133.10 461.18
  A 0.57 0.57 0.0 0 0 132.53 460.61
  L 114.59 460.61
  A 0.52 0.52 0.0 0 1 114.07 460.09
  L 114.07 449.73
  A 0.67 0.67 0.0 0 1 114.74 449.06
  L 172.27 449.06
  A 0.73 0.72 -89.6 0 1 172.99 449.80
  Q 172.91 459.54 172.95 481.50
  C 172.97 492.89 163.44 502.07 152.17 501.76
  Q 138.85 501.39 133.06 488.62
  A 0.48 0.47 55.8 0 0 132.29 488.47
  L 114.80 505.96
  Z
  M 160.53 460.61
  L 144.23 460.61
  A 0.70 0.70 0.0 0 0 143.53 461.31
  L 143.53 480.96
  A 8.93 8.77 -90.0 0 0 152.30 489.89
  L 152.46 489.89
  A 8.93 8.77 90.0 0 0 161.23 480.96
  L 161.23 461.31
  A 0.70 0.70 0.0 0 0 160.53 460.61
  Z"
/>
<path fill="#792526" d="
  M 160.53 460.61
  A 0.70 0.70 0.0 0 1 161.23 461.31
  L 161.23 480.96
  A 8.93 8.77 -90.0 0 1 152.46 489.89
  L 152.30 489.89
  A 8.93 8.77 -90.0 0 1 143.53 480.96
  L 143.53 461.31
  A 0.70 0.70 0.0 0 1 144.23 460.61
  L 160.53 460.61
  Z"
/>
<path fill="#ba3344" d="
  M 148.66 557.44
  L 138.35 557.44
  A 0.76 0.76 0.0 0 1 137.59 556.68
  L 137.59 528.84
  A 0.76 0.76 0.0 0 0 136.83 528.08
  L 126.60 528.08
  A 0.76 0.76 0.0 0 0 125.84 528.84
  L 125.84 568.50
  A 0.76 0.76 0.0 0 1 125.08 569.26
  L 114.80 569.26
  A 0.76 0.76 0.0 0 1 114.04 568.50
  L 114.04 517.16
  A 0.76 0.76 0.0 0 1 114.80 516.40
  L 148.66 516.40
  A 0.76 0.76 0.0 0 1 149.42 517.16
  L 149.42 556.68
  A 0.76 0.76 0.0 0 1 148.66 557.44
  Z"
/>
<rect fill="#ba3344" x="161.23" y="516.40" width="11.72" height="52.82" rx="0.58"/>
<path fill="#ed5a77" d="
  M 125.82 610.19
  C 125.82 626.75 145.95 635.61 158.01 623.99
  A 0.55 0.55 0.0 0 1 158.77 623.99
  L 166.61 631.84
  A 0.40 0.40 0.0 0 1 166.60 632.42
  C 148.38 649.39 119.09 640.36 114.31 615.75
  Q 114.10 614.67 114.10 610.20
  Q 114.10 605.72 114.31 604.64
  C 119.08 580.03 148.37 570.99 166.59 587.96
  A 0.40 0.40 0.0 0 1 166.60 588.54
  L 158.77 596.39
  A 0.55 0.55 0.0 0 1 158.00 596.39
  C 145.94 584.77 125.82 593.64 125.82 610.19
  Z"
/>
<rect fill="#ed5a77" x="147.12" y="604.31" width="25.76" height="12.00" rx="0.48"/>
<path fill="#ba3344" d="
  M 139.75 676.77
  Q 146.49 671.26 153.59 665.77
  A 0.34 0.34 0.0 0 0 153.38 665.16
  L 114.56 665.16
  A 0.47 0.47 0.0 0 1 114.09 664.69
  L 114.09 654.29
  A 0.67 0.67 0.0 0 1 114.76 653.62
  L 172.33 653.62
  A 0.65 0.64 0.0 0 1 172.98 654.26
  L 172.98 664.44
  A 1.72 1.71 71.2 0 1 172.32 665.79
  Q 157.73 677.33 147.30 685.84
  Q 140.56 691.35 133.47 696.84
  A 0.34 0.34 0.0 0 0 133.68 697.45
  L 172.50 697.45
  A 0.47 0.47 0.0 0 1 172.97 697.92
  L 172.97 708.32
  A 0.67 0.67 0.0 0 1 172.30 708.99
  L 114.73 708.99
  A 0.65 0.64 0.0 0 1 114.08 708.35
  L 114.08 698.17
  A 1.72 1.71 71.2 0 1 114.74 696.82
  Q 129.33 685.28 139.75 676.77
  Z"
/>
<path fill="#445052" d="
  M 177.15 770.07
  Q 176.69 772.97 178.08 773.51
  L 165.41 774.06
  L 124.02 774.07
  L 109.89 773.76
  L 110.17 770.06
  L 177.15 770.07
  Z"
/>
<path fill="#788c92" d="
  M 178.08 773.51
  Q 185.45 784.19 175.70 792.70
  Q 173.67 794.48 171.11 793.85
  Q 170.26 792.77 167.58 792.90
  C 166.78 790.94 165.44 789.20 164.88 787.36
  C 163.37 782.49 164.39 778.59 165.41 774.06
  L 178.08 773.51
  Z"
/>
<path fill="#57666a" d="
  M 109.89 773.76
  L 124.02 774.07
  Q 118.60 784.82 127.19 792.89
  L 116.00 793.39
  Q 107.84 791.47 106.21 784.02
  Q 104.93 778.13 109.89 773.76
  Z"
/>
<path fill="#687a7f" d="
  M 165.41 774.06
  C 164.39 778.59 163.37 782.49 164.88 787.36
  C 165.44 789.20 166.78 790.94 167.58 792.90
  L 127.19 792.89
  Q 118.60 784.82 124.02 774.07
  L 165.41 774.06
  Z"
/>
<path fill="#445052" d="
  M 127.19 792.89
  L 167.58 792.90
  Q 170.26 792.77 171.11 793.85
  Q 170.62 795.75 171.49 796.85
  L 159.89 797.11
  L 127.55 797.11
  L 115.75 796.93
  Q 116.24 795.58 116.00 793.39
  L 127.19 792.89
  Z"
/>
<path fill="#57666a" d="
  M 127.55 797.11
  Q 121.62 808.13 129.66 816.91
  Q 124.70 816.39 121.77 817.88
  Q 114.59 816.66 112.44 809.80
  Q 110.17 802.61 115.75 796.93
  L 127.55 797.11
  Z"
/>
<path fill="#788c92" d="
  M 171.49 796.85
  Q 174.38 799.45 174.90 803.04
  Q 175.05 804.01 174.91 808.79
  A 2.88 2.87 -35.4 0 1 174.77 809.61
  C 173.49 813.70 169.98 818.80 165.10 817.91
  Q 164.32 816.82 161.74 816.87
  Q 155.55 807.90 159.89 797.11
  L 171.49 796.85
  Z"
/>
<path fill="#687a7f" d="
  M 159.89 797.11
  Q 155.55 807.90 161.74 816.87
  L 129.66 816.91
  Q 121.62 808.13 127.55 797.11
  L 159.89 797.11
  Z"
/>
<path fill="#445052" d="
  M 129.66 816.91
  L 161.74 816.87
  Q 164.32 816.82 165.10 817.91
  Q 164.73 819.47 165.21 820.92
  L 153.01 821.05
  L 129.93 821.08
  L 122.00 820.96
  Q 122.20 819.22 121.77 817.88
  Q 124.70 816.39 129.66 816.91
  Z"
/>
<path fill="#57666a" d="
  M 129.93 821.08
  Q 124.92 833.74 133.10 842.00
  L 127.03 842.00
  C 117.81 839.39 117.35 827.67 122.00 820.96
  L 129.93 821.08
  Z"
/>
<path fill="#687a7f" d="
  M 153.01 821.05
  Q 149.30 829.82 152.71 837.26
  C 153.47 838.93 155.09 840.36 156.19 842.00
  L 133.10 842.00
  Q 124.92 833.74 129.93 821.08
  L 153.01 821.05
  Z"
/>
<path fill="#788c92" d="
  M 165.21 820.92
  Q 167.50 823.58 167.89 827.04
  C 168.57 832.98 167.42 838.70 162.01 842.00
  L 156.19 842.00
  C 155.09 840.36 153.47 838.93 152.71 837.26
  Q 149.30 829.82 153.01 821.05
  L 165.21 820.92
  Z"
/>
</svg>
