<?xml version="1.0" encoding="UTF-8" standalone="no"?>
<!DOCTYPE svg PUBLIC "-//W3C//DTD SVG 1.1//EN" "http://www.w3.org/Graphics/SVG/1.1/DTD/svg11.dtd">
<svg xmlns="http://www.w3.org/2000/svg" version="1.1" viewBox="0.00 0.00 281.00 842.00">
<g stroke-width="2.00" fill="none" stroke-linecap="butt">
<path stroke="#607075" vector-effect="non-scaling-stroke" d="
  M 132.65 0.00
  Q 127.82 5.73 128.08 12.48
  Q 128.24 16.71 130.05 20.84"
/>
<path stroke="#4e5b5e" vector-effect="non-scaling-stroke" d="
  M 130.05 20.84
  L 121.91 20.82"
/>
<path stroke="#708389" vector-effect="non-scaling-stroke" d="
  M 156.78 0.00
  C 155.41 2.10 153.70 4.11 152.95 6.40
  C 151.30 11.48 152.31 15.38 153.79 20.90"
/>
<path stroke="#566569" vector-effect="non-scaling-stroke" d="
  M 153.79 20.90
  L 130.05 20.84"
/>
<path stroke="#5e6e72" vector-effect="non-scaling-stroke" d="
  M 165.42 20.95
  L 153.79 20.90"
/>
<path stroke="#5e6e72" vector-effect="non-scaling-stroke" d="
  M 165.14 24.15
  Q 164.15 25.30 161.97 25.12"
/>
<path stroke="#566569" vector-effect="non-scaling-stroke" d="
  M 161.97 25.12
  L 129.50 25.03"
/>
<path stroke="#4e5b5e" vector-effect="non-scaling-stroke" d="
  M 129.50 25.03
  Q 125.11 25.46 121.87 24.31"
/>
<path stroke="#5e6e72" vector-effect="non-scaling-stroke" d="
  M 171.44 45.24
  L 160.83 44.85"
/>
<path stroke="#708389" vector-effect="non-scaling-stroke" d="
  M 160.83 44.85
  Q 156.46 35.07 161.97 25.12"
/>
<path stroke="#607075" vector-effect="non-scaling-stroke" d="
  M 129.50 25.03
  Q 121.65 34.26 127.62 44.89"
/>
<path stroke="#4e5b5e" vector-effect="non-scaling-stroke" d="
  M 127.62 44.89
  L 116.07 45.12"
/>
<path stroke="#566569" vector-effect="non-scaling-stroke" d="
  M 160.83 44.85
  L 127.62 44.89"
/>
<path stroke="#5e6e72" vector-effect="non-scaling-stroke" d="
  M 171.13 48.04
  Q 171.22 48.72 170.32 48.85
  Q 169.07 49.05 168.07 49.07"
/>
<path stroke="#566569" vector-effect="non-scaling-stroke" d="
  M 168.07 49.07
  L 127.34 49.05"
/>
<path stroke="#4e5b5e" vector-effect="non-scaling-stroke" d="
  M 127.34 49.05
  L 115.94 48.66"
/>
<path stroke="#5e6e72" vector-effect="non-scaling-stroke" d="
  M 177.69 68.37
  L 166.50 68.00"
/>
<path stroke="#708389" vector-effect="non-scaling-stroke" d="
  M 166.50 68.00
  Q 163.71 62.36 164.97 56.41
  C 165.51 53.90 166.86 51.51 168.07 49.07"
/>
<path stroke="#607075" vector-effect="non-scaling-stroke" d="
  M 127.34 49.05
  Q 118.63 57.45 124.31 67.93"
/>
<path stroke="#4e5b5e" vector-effect="non-scaling-stroke" d="
  M 124.31 67.93
  L 110.01 68.16"
/>
<path stroke="#566569" vector-effect="non-scaling-stroke" d="
  M 166.50 68.00
  L 124.31 67.93"
/>
<path stroke="#746237" vector-effect="non-scaling-stroke" d="
  M 177.16 71.89
  L 109.90 71.95"
/>
<path stroke="#ae7e1d" vector-effect="non-scaling-stroke" d="
  M 185.72 88.06
  Q 143.45 78.56 101.15 86.84"
/>
<path stroke="#c59622" vector-effect="non-scaling-stroke" d="
  M 272.32 193.72
  Q 271.96 193.99 271.96 194.28"
/>
<path stroke="#a67619" vector-effect="non-scaling-stroke" d="
  M 271.96 194.28
  L 271.79 193.68
  A 0.37 0.37 0.0 0 0 271.07 193.73
  Q 267.00 225.72 255.34 257.61
  C 244.79 286.49 230.71 314.84 212.50 339.51
  Q 208.73 344.63 201.98 353.47
  Q 191.97 366.59 178.51 374.89
  Q 152.87 390.69 124.70 383.88
  C 108.39 379.94 94.75 370.55 83.80 358.46
  Q 70.01 343.24 57.77 323.76
  Q 31.69 282.25 17.86 233.17
  Q 12.11 212.75 9.86 192.50
  Q 9.76 191.66 9.12 191.47"
/>
<path stroke="#a67619" vector-effect="non-scaling-stroke" d="
  M 149.97 245.50
  A 9.47 9.47 0.0 0 0 140.50 236.03
  A 9.47 9.47 0.0 0 0 131.03 245.50
  A 9.47 9.47 0.0 0 0 140.50 254.97
  A 9.47 9.47 0.0 0 0 149.97 245.50"
/>
<path stroke="#a67619" vector-effect="non-scaling-stroke" d="
  M 149.97 296.50
  A 9.47 9.47 0.0 0 0 140.50 287.03
  A 9.47 9.47 0.0 0 0 131.03 296.50
  A 9.47 9.47 0.0 0 0 140.50 305.97
  A 9.47 9.47 0.0 0 0 149.97 296.50"
/>
<path stroke="#a67619" vector-effect="non-scaling-stroke" d="
  M 149.97 347.50
  A 9.47 9.47 0.0 0 0 140.50 338.03
  A 9.47 9.47 0.0 0 0 131.03 347.50
  A 9.47 9.47 0.0 0 0 140.50 356.97
  A 9.47 9.47 0.0 0 0 149.97 347.50"
/>
<path stroke="#b2841d" vector-effect="non-scaling-stroke" d="
  M 271.96 194.28
  C 271.83 214.72 268.11 235.31 262.29 255.26
  Q 256.71 274.40 249.19 292.86
  Q 248.73 294.01 248.44 295.21"
/>
<path stroke="#a67619" vector-effect="non-scaling-stroke" d="
  M 248.44 295.21
  Q 247.57 296.04 247.12 297.12
  Q 232.76 331.03 212.47 358.48
  Q 206.54 366.51 202.99 371.24
  C 193.61 383.76 180.35 395.04 165.59 400.28
  A 0.89 0.88 -9.9 0 0 165.00 401.11
  L 165.00 436.32
  A 0.70 0.70 0.0 0 0 165.73 437.02
  C 170.07 436.82 176.68 437.10 180.16 439.74
  C 184.39 442.95 185.02 448.16 185.01 453.75
  Q 185.00 468.84 184.97 482.90
  A 14.61 14.44 -39.3 0 1 184.65 485.93
  C 184.01 488.90 183.73 491.57 182.63 494.03
  Q 180.05 499.76 175.35 504.45
  A 0.26 0.26 0.0 0 0 175.47 504.89
  C 182.10 506.53 184.99 512.46 184.99 519.00
  Q 185.01 550.48 185.00 566.12
  C 184.99 572.45 182.89 578.23 176.56 580.32
  A 0.44 0.43 -24.4 0 0 176.32 580.95
  Q 177.81 583.56 178.58 588.45
  A 1.30 1.25 -43.9 0 1 178.56 588.95
  L 177.59 592.98
  A 0.78 0.78 0.0 0 0 177.99 593.86
  C 182.66 596.21 183.59 599.38 184.76 604.01
  A 5.60 5.52 -52.7 0 1 184.92 605.25
  Q 184.96 607.83 184.92 614.25
  Q 184.87 622.79 178.00 626.96
  A 0.78 0.77 -24.9 0 0 177.67 627.85
  Q 180.13 635.54 174.68 641.22
  A 0.40 0.40 0.0 0 0 174.87 641.89
  Q 183.82 644.08 184.78 653.65
  Q 185.39 659.71 184.93 664.49
  C 184.37 670.26 182.70 673.10 177.69 676.94
  Q 177.43 677.14 167.74 684.93
  A 0.21 0.20 24.2 0 0 167.88 685.29
  Q 174.28 685.05 177.94 686.87
  C 185.76 690.76 185.16 699.33 184.99 707.10
  C 184.94 709.45 184.31 711.16 183.75 713.47
  A 2.94 2.82 68.2 0 1 183.44 714.24
  Q 181.10 718.43 177.63 719.65
  Q 172.24 721.55 165.72 720.88
  A 0.64 0.63 2.4 0 0 165.02 721.52
  L 165.09 749.84"
/>
<path stroke="#b2841d" vector-effect="non-scaling-stroke" d="
  M 165.09 749.84
  L 164.94 756.86"
/>
<path stroke="#9b6b18" vector-effect="non-scaling-stroke" d="
  M 164.94 756.86
  L 119.81 757.06
  A 0.71 0.71 0.0 0 1 119.10 756.38
  L 118.90 752.20"
/>
<path stroke="#a67619" vector-effect="non-scaling-stroke" d="
  M 118.90 752.20
  L 118.95 721.46
  A 0.48 0.47 -1.7 0 0 118.44 720.99
  C 111.71 721.40 104.38 719.22 102.84 711.63
  Q 101.18 703.49 102.66 694.90
  Q 103.46 690.28 107.83 686.86
  Q 116.39 680.18 118.68 678.13
  A 0.46 0.46 0.0 0 0 118.33 677.33
  Q 114.75 677.69 110.56 676.41
  C 101.30 673.57 101.63 662.21 102.17 654.54
  C 102.71 646.71 107.27 641.78 115.09 641.61
  A 0.21 0.21 0.0 0 0 115.24 641.25
  Q 110.34 636.38 108.49 633.27
  Q 97.20 614.31 105.21 593.41
  Q 107.76 586.77 112.77 581.58
  A 0.30 0.30 0.0 0 0 112.63 581.08
  Q 102.39 578.45 102.19 567.48
  Q 101.75 543.14 102.29 517.38
  C 102.37 513.49 102.89 510.25 102.40 505.90
  Q 101.80 500.52 102.40 489.32
  Q 102.68 484.03 105.66 481.12
  Q 109.97 476.90 114.08 472.87
  A 0.32 0.32 0.0 0 0 113.88 472.32
  C 101.47 471.37 101.40 459.30 102.26 449.42
  C 103.14 439.39 109.32 437.20 118.40 436.96
  A 0.63 0.62 89.5 0 0 119.01 436.33
  L 119.01 401.98
  A 0.80 0.79 -80.1 0 0 118.49 401.23
  Q 98.85 393.85 85.24 378.97
  C 62.81 354.46 45.73 325.42 32.45 293.95"
/>
<path stroke="#9b6b18" vector-effect="non-scaling-stroke" d="
  M 32.45 293.95
  Q 17.73 260.15 11.42 225.04
  Q 10.02 217.27 9.20 207.53
  C 8.85 203.40 9.26 198.14 8.76 193.37"
/>
<path stroke="#ad771c" vector-effect="non-scaling-stroke" d="
  M 114.80 505.97
  L 132.33 488.44
  A 0.44 0.43 -34.1 0 1 133.04 488.57
  Q 138.01 499.76 148.95 501.51
  C 160.42 503.34 170.51 496.02 172.84 484.87
  A 2.46 2.22 -42.0 0 0 172.89 484.39
  L 172.95 449.82
  A 0.76 0.75 0.4 0 0 172.19 449.06
  L 114.88 449.06
  A 0.82 0.82 0.0 0 0 114.06 449.88
  L 114.06 460.19
  A 0.43 0.43 0.0 0 0 114.49 460.62
  L 132.60 460.62
  A 0.49 0.48 90.0 0 1 133.08 461.11
  L 133.08 469.98
  A 2.02 2.00 -22.7 0 1 132.49 471.40
  L 114.79 489.11
  A 2.45 2.44 -22.4 0 0 114.06 490.85
  L 114.06 505.66
  A 0.44 0.43 67.6 0 0 114.80 505.97"
/>
<path stroke="#ad771c" vector-effect="non-scaling-stroke" d="
  M 148.80 557.42
  A 0.71 0.71 0.0 0 0 149.51 556.71
  L 149.51 517.05
  A 0.71 0.71 0.0 0 0 148.80 516.34
  L 114.76 516.34
  A 0.71 0.71 0.0 0 0 114.05 517.05
  L 114.05 568.58
  A 0.71 0.71 0.0 0 0 114.76 569.29
  L 125.13 569.29
  A 0.71 0.71 0.0 0 0 125.84 568.58
  L 125.84 528.79
  A 0.71 0.71 0.0 0 1 126.55 528.08
  L 136.79 528.08
  A 0.71 0.71 0.0 0 1 137.50 528.79
  L 137.50 556.71
  A 0.71 0.71 0.0 0 0 138.21 557.42
  L 148.80 557.42"
/>
<path stroke="#ad771c" vector-effect="non-scaling-stroke" d="
  M 172.92 516.89
  A 0.55 0.55 0.0 0 0 172.37 516.34
  L 161.77 516.34
  A 0.55 0.55 0.0 0 0 161.22 516.89
  L 161.22 568.71
  A 0.55 0.55 0.0 0 0 161.77 569.26
  L 172.37 569.26
  A 0.55 0.55 0.0 0 0 172.92 568.71
  L 172.92 516.89"
/>
<path stroke="#be912f" vector-effect="non-scaling-stroke" d="
  M 114.04 610.21
  Q 114.05 613.54 114.22 615.23
  Q 114.96 622.36 120.23 629.05
  C 131.98 643.95 152.74 645.39 166.63 632.49
  A 0.50 0.50 0.0 0 0 166.64 631.77
  L 158.89 624.02
  A 0.58 0.58 0.0 0 0 158.10 623.99
  Q 149.43 631.41 138.96 628.19
  C 131.34 625.85 125.88 618.45 125.88 610.20
  C 125.87 601.96 131.32 594.55 138.94 592.21
  Q 149.41 588.98 158.09 596.40
  A 0.58 0.58 0.0 0 0 158.88 596.37
  L 166.62 588.61
  A 0.50 0.50 0.0 0 0 166.61 587.89
  C 152.71 575.00 131.96 576.46 120.22 591.36
  Q 114.95 598.06 114.22 605.19
  Q 114.04 606.88 114.04 610.21"
/>
<path stroke="#be912f" vector-effect="non-scaling-stroke" d="
  M 172.94 604.74
  A 0.53 0.53 0.0 0 0 172.41 604.21
  L 147.59 604.21
  A 0.53 0.53 0.0 0 0 147.06 604.74
  L 147.06 615.84
  A 0.53 0.53 0.0 0 0 147.59 616.37
  L 172.41 616.37
  A 0.53 0.53 0.0 0 0 172.94 615.84
  L 172.94 604.74"
/>
<path stroke="#ad771c" vector-effect="non-scaling-stroke" d="
  M 139.73 676.74
  Q 129.18 685.14 114.68 696.83
  A 1.55 1.54 70.9 0 0 114.10 698.04
  L 114.10 708.44
  A 0.58 0.57 -0.0 0 0 114.68 709.01
  L 172.37 709.01
  A 0.60 0.59 -90.0 0 0 172.96 708.41
  L 172.96 697.90
  A 0.57 0.56 90.0 0 0 172.40 697.33
  L 133.77 697.33
  A 0.32 0.32 0.0 0 1 133.57 696.76
  Q 135.72 695.06 147.34 685.81
  Q 157.89 677.40 172.39 665.72
  A 1.55 1.54 70.9 0 0 172.97 664.50
  L 172.97 654.10
  A 0.58 0.57 -0.0 0 0 172.39 653.53
  L 114.70 653.53
  A 0.60 0.59 -90.0 0 0 114.11 654.13
  L 114.11 664.64
  A 0.57 0.56 90.0 0 0 114.67 665.21
  L 153.30 665.21
  A 0.32 0.32 0.0 0 1 153.50 665.78
  Q 151.35 667.48 139.73 676.74"
/>
<path stroke="#ae7e1d" vector-effect="non-scaling-stroke" d="
  M 32.45 293.95
  Q 32.02 294.53 32.02 294.83
  Q 31.91 352.53 32.02 484.66
  Q 32.06 532.84 33.51 550.78
  Q 36.28 584.93 42.76 616.26
  C 49.29 647.84 59.44 679.26 75.43 707.31
  C 85.82 725.54 99.91 742.64 118.90 752.20"
/>
<path stroke="#ba8c21" vector-effect="non-scaling-stroke" d="
  M 164.94 756.86
  L 185.94 756.95"
/>
<path stroke="#746237" vector-effect="non-scaling-stroke" d="
  M 177.16 770.10
  L 110.30 770.08"
/>
<path stroke="#c59622" vector-effect="non-scaling-stroke" d="
  M 165.09 749.84
  Q 166.81 749.80 168.17 748.93
  C 186.48 737.16 199.72 719.14 209.57 700.08
  C 233.92 652.91 244.01 598.71 247.82 546.17
  Q 248.94 530.70 248.97 498.14
  Q 249.08 344.78 248.97 297.03
  Q 248.97 296.45 248.44 295.21"
/>
<path stroke="#ad771c" vector-effect="non-scaling-stroke" d="
  M 160.76 460.63
  L 144.08 460.61
  A 0.47 0.47 0.0 0 0 143.60 461.07
  L 143.57 480.92
  A 8.94 8.76 -89.9 0 0 152.31 489.88
  L 152.41 489.88
  A 8.94 8.76 -89.9 0 0 161.19 480.96
  L 161.22 461.11
  A 0.47 0.47 0.0 0 0 160.76 460.63"
/>
<path stroke="#5e6e72" vector-effect="non-scaling-stroke" d="
  M 178.20 773.65
  L 165.34 774.10"
/>
<path stroke="#566569" vector-effect="non-scaling-stroke" d="
  M 165.34 774.10
  L 123.49 774.07"
/>
<path stroke="#4e5b5e" vector-effect="non-scaling-stroke" d="
  M 123.49 774.07
  L 109.84 773.75"
/>
<path stroke="#5e6e72" vector-effect="non-scaling-stroke" d="
  M 171.11 793.85
  Q 170.29 792.82 167.88 792.91"
/>
<path stroke="#708389" vector-effect="non-scaling-stroke" d="
  M 167.88 792.91
  C 163.18 786.62 163.76 781.21 165.34 774.10"
/>
<path stroke="#607075" vector-effect="non-scaling-stroke" d="
  M 123.49 774.07
  C 122.11 778.20 121.06 784.25 123.22 788.01
  Q 124.08 789.52 127.13 792.90"
/>
<path stroke="#4e5b5e" vector-effect="non-scaling-stroke" d="
  M 127.13 792.90
  L 115.97 793.38"
/>
<path stroke="#566569" vector-effect="non-scaling-stroke" d="
  M 167.88 792.91
  L 127.13 792.90"
/>
<path stroke="#5e6e72" vector-effect="non-scaling-stroke" d="
  M 171.50 796.87
  L 159.96 797.11"
/>
<path stroke="#566569" vector-effect="non-scaling-stroke" d="
  M 159.96 797.11
  L 127.55 797.11"
/>
<path stroke="#4e5b5e" vector-effect="non-scaling-stroke" d="
  M 127.55 797.11
  L 115.75 796.93"
/>
<path stroke="#607075" vector-effect="non-scaling-stroke" d="
  M 127.55 797.11
  Q 121.63 808.15 129.67 816.91"
/>
<path stroke="#4e5b5e" vector-effect="non-scaling-stroke" d="
  M 129.67 816.91
  Q 124.70 816.39 121.77 817.88"
/>
<path stroke="#5e6e72" vector-effect="non-scaling-stroke" d="
  M 165.10 817.91
  Q 164.32 816.82 161.74 816.87"
/>
<path stroke="#708389" vector-effect="non-scaling-stroke" d="
  M 161.74 816.87
  Q 155.49 807.83 159.96 797.11"
/>
<path stroke="#566569" vector-effect="non-scaling-stroke" d="
  M 161.74 816.87
  L 129.67 816.91"
/>
<path stroke="#5e6e72" vector-effect="non-scaling-stroke" d="
  M 165.21 820.92
  L 153.00 821.06"
/>
<path stroke="#566569" vector-effect="non-scaling-stroke" d="
  M 153.00 821.06
  L 129.57 821.10"
/>
<path stroke="#4e5b5e" vector-effect="non-scaling-stroke" d="
  M 129.57 821.10
  L 121.99 820.97"
/>
<path stroke="#607075" vector-effect="non-scaling-stroke" d="
  M 129.57 821.10
  Q 129.39 823.32 128.84 825.42
  Q 126.27 835.26 133.16 842.00"
/>
<path stroke="#708389" vector-effect="non-scaling-stroke" d="
  M 153.00 821.06
  Q 149.37 829.65 152.60 837.06
  C 153.37 838.82 155.03 840.31 156.19 842.00"
/>
</g>
<path fill="#57666a" d="
  M 132.65 0.00
  Q 127.82 5.73 128.08 12.48
  Q 128.24 16.71 130.05 20.84
  L 121.91 20.82
  C 117.09 14.14 118.09 2.95 126.88 0.00
  L 132.65 0.00
  Z"
/>
<path fill="#687a7f" d="
  M 156.78 0.00
  C 155.41 2.10 153.70 4.11 152.95 6.40
  C 151.30 11.48 152.31 15.38 153.79 20.90
  L 130.05 20.84
  Q 128.24 16.71 128.08 12.48
  Q 127.82 5.73 132.65 0.00
  L 156.78 0.00
  Z"
/>
<path fill="#788c92" d="
  M 161.93 0.00
  Q 167.00 2.88 167.85 9.28
  Q 168.77 16.26 165.42 20.95
  L 153.79 20.90
  C 152.31 15.38 151.30 11.48 152.95 6.40
  C 153.70 4.11 155.41 2.10 156.78 0.00
  L 161.93 0.00
  Z"
/>
<path fill="#445052" d="
  M 130.05 20.84
  L 153.79 20.90
  L 165.42 20.95
  Q 164.69 22.21 165.14 24.15
  Q 164.15 25.30 161.97 25.12
  L 129.50 25.03
  Q 125.11 25.46 121.87 24.31
  Q 122.25 22.60 121.91 20.82
  L 130.05 20.84
  Z"
/>
<path fill="#788c92" d="
  M 171.44 45.24
  L 160.83 44.85
  Q 156.46 35.07 161.97 25.12
  Q 164.15 25.30 165.14 24.15
  Q 167.66 23.57 168.71 24.28
  Q 176.07 29.21 174.87 38.24
  Q 174.27 42.79 171.44 45.24
  Z"
/>
<path fill="#57666a" d="
  M 121.87 24.31
  Q 125.11 25.46 129.50 25.03
  Q 121.65 34.26 127.62 44.89
  L 116.07 45.12
  Q 109.52 38.64 113.32 30.56
  Q 115.86 25.15 121.87 24.31
  Z"
/>
<path fill="#687a7f" d="
  M 161.97 25.12
  Q 156.46 35.07 160.83 44.85
  L 127.62 44.89
  Q 121.65 34.26 129.50 25.03
  L 161.97 25.12
  Z"
/>
<path fill="#445052" d="
  M 127.62 44.89
  L 160.83 44.85
  L 171.44 45.24
  Q 170.80 46.61 171.13 48.04
  Q 171.22 48.72 170.32 48.85
  Q 169.07 49.05 168.07 49.07
  L 127.34 49.05
  L 115.94 48.66
  L 116.07 45.12
  L 127.62 44.89
  Z"
/>
<path fill="#788c92" d="
  M 177.69 68.37
  L 166.50 68.00
  Q 163.71 62.36 164.97 56.41
  C 165.51 53.90 166.86 51.51 168.07 49.07
  Q 169.07 49.05 170.32 48.85
  Q 171.22 48.72 171.13 48.04
  Q 173.60 47.75 174.83 48.63
  Q 182.75 54.33 180.69 63.41
  Q 179.94 66.69 177.69 68.37
  Z"
/>
<path fill="#57666a" d="
  M 115.94 48.66
  L 127.34 49.05
  Q 118.63 57.45 124.31 67.93
  L 110.01 68.16
  Q 104.98 64.23 106.17 58.19
  Q 107.67 50.59 115.94 48.66
  Z"
/>
<path fill="#687a7f" d="
  M 168.07 49.07
  C 166.86 51.51 165.51 53.90 164.97 56.41
  Q 163.71 62.36 166.50 68.00
  L 124.31 67.93
  Q 118.63 57.45 127.34 49.05
  L 168.07 49.07
  Z"
/>
<path fill="#445052" d="
  M 124.31 67.93
  L 166.50 68.00
  L 177.69 68.37
  Q 176.75 70.18 177.16 71.89
  L 109.90 71.95
  L 110.01 68.16
  L 124.31 67.93
  Z"
/>
<path fill="#a3731b" d="
  M 109.90 71.95
  L 177.16 71.89
  C 179.91 72.35 182.13 71.17 183.80 74.71
  Q 186.72 80.89 185.72 88.06
  Q 143.45 78.56 101.15 86.84
  Q 100.52 80.46 103.07 74.86
  C 104.02 72.77 105.51 71.92 107.78 72.00
  Q 108.93 72.04 109.90 71.95
  Z"
/>
<path fill="#b9881e" d="
  M 185.72 88.06
  C 209.96 94.34 233.69 104.16 251.17 122.09
  Q 260.82 131.99 265.61 141.67
  C 273.27 157.12 271.96 173.15 271.84 192.25
  Q 271.84 193.18 272.32 193.72
  Q 271.96 193.99 271.96 194.28
  L 271.79 193.68
  A 0.37 0.37 0.0 0 0 271.07 193.73
  Q 267.00 225.72 255.34 257.61
  C 244.79 286.49 230.71 314.84 212.50 339.51
  Q 208.73 344.63 201.98 353.47
  Q 191.97 366.59 178.51 374.89
  Q 152.87 390.69 124.70 383.88
  C 108.39 379.94 94.75 370.55 83.80 358.46
  Q 70.01 343.24 57.77 323.76
  Q 31.69 282.25 17.86 233.17
  Q 12.11 212.75 9.86 192.50
  Q 9.76 191.66 9.12 191.47
  C 8.90 172.99 7.71 154.34 16.89 138.89
  C 34.54 109.17 68.48 93.37 101.15 86.84
  Q 143.45 78.56 185.72 88.06
  Z
  M 149.97 245.50
  A 9.47 9.47 0.0 0 0 140.50 236.03
  A 9.47 9.47 0.0 0 0 131.03 245.50
  A 9.47 9.47 0.0 0 0 140.50 254.97
  A 9.47 9.47 0.0 0 0 149.97 245.50
  Z
  M 149.97 296.50
  A 9.47 9.47 0.0 0 0 140.50 287.03
  A 9.47 9.47 0.0 0 0 131.03 296.50
  A 9.47 9.47 0.0 0 0 140.50 305.97
  A 9.47 9.47 0.0 0 0 149.97 296.50
  Z
  M 149.97 347.50
  A 9.47 9.47 0.0 0 0 140.50 338.03
  A 9.47 9.47 0.0 0 0 131.03 347.50
  A 9.47 9.47 0.0 0 0 140.50 356.97
  A 9.47 9.47 0.0 0 0 149.97 347.50
  Z"
/>
<path fill="#936314" d="
  M 271.96 194.28
  C 271.83 214.72 268.11 235.31 262.29 255.26
  Q 256.71 274.40 249.19 292.86
  Q 248.73 294.01 248.44 295.21
  Q 247.57 296.04 247.12 297.12
  Q 232.76 331.03 212.47 358.48
  Q 206.54 366.51 202.99 371.24
  C 193.61 383.76 180.35 395.04 165.59 400.28
  A 0.89 0.88 -9.9 0 0 165.00 401.11
  L 165.00 436.32
  A 0.70 0.70 0.0 0 0 165.73 437.02
  C 170.07 436.82 176.68 437.10 180.16 439.74
  C 184.39 442.95 185.02 448.16 185.01 453.75
  Q 185.00 468.84 184.97 482.90
  A 14.61 14.44 -39.3 0 1 184.65 485.93
  C 184.01 488.90 183.73 491.57 182.63 494.03
  Q 180.05 499.76 175.35 504.45
  A 0.26 0.26 0.0 0 0 175.47 504.89
  C 182.10 506.53 184.99 512.46 184.99 519.00
  Q 185.01 550.48 185.00 566.12
  C 184.99 572.45 182.89 578.23 176.56 580.32
  A 0.44 0.43 -24.4 0 0 176.32 580.95
  Q 177.81 583.56 178.58 588.45
  A 1.30 1.25 -43.9 0 1 178.56 588.95
  L 177.59 592.98
  A 0.78 0.78 0.0 0 0 177.99 593.86
  C 182.66 596.21 183.59 599.38 184.76 604.01
  A 5.60 5.52 -52.7 0 1 184.92 605.25
  Q 184.96 607.83 184.92 614.25
  Q 184.87 622.79 178.00 626.96
  A 0.78 0.77 -24.9 0 0 177.67 627.85
  Q 180.13 635.54 174.68 641.22
  A 0.40 0.40 0.0 0 0 174.87 641.89
  Q 183.82 644.08 184.78 653.65
  Q 185.39 659.71 184.93 664.49
  C 184.37 670.26 182.70 673.10 177.69 676.94
  Q 177.43 677.14 167.74 684.93
  A 0.21 0.20 24.2 0 0 167.88 685.29
  Q 174.28 685.05 177.94 686.87
  C 185.76 690.76 185.16 699.33 184.99 707.10
  C 184.94 709.45 184.31 711.16 183.75 713.47
  A 2.94 2.82 68.2 0 1 183.44 714.24
  Q 181.10 718.43 177.63 719.65
  Q 172.24 721.55 165.72 720.88
  A 0.64 0.63 2.4 0 0 165.02 721.52
  L 165.09 749.84
  L 164.94 756.86
  L 119.81 757.06
  A 0.71 0.71 0.0 0 1 119.10 756.38
  L 118.90 752.20
  L 118.95 721.46
  A 0.48 0.47 -1.7 0 0 118.44 720.99
  C 111.71 721.40 104.38 719.22 102.84 711.63
  Q 101.18 703.49 102.66 694.90
  Q 103.46 690.28 107.83 686.86
  Q 116.39 680.18 118.68 678.13
  A 0.46 0.46 0.0 0 0 118.33 677.33
  Q 114.75 677.69 110.56 676.41
  C 101.30 673.57 101.63 662.21 102.17 654.54
  C 102.71 646.71 107.27 641.78 115.09 641.61
  A 0.21 0.21 0.0 0 0 115.24 641.25
  Q 110.34 636.38 108.49 633.27
  Q 97.20 614.31 105.21 593.41
  Q 107.76 586.77 112.77 581.58
  A 0.30 0.30 0.0 0 0 112.63 581.08
  Q 102.39 578.45 102.19 567.48
  Q 101.75 543.14 102.29 517.38
  C 102.37 513.49 102.89 510.25 102.40 505.90
  Q 101.80 500.52 102.40 489.32
  Q 102.68 484.03 105.66 481.12
  Q 109.97 476.90 114.08 472.87
  A 0.32 0.32 0.0 0 0 113.88 472.32
  C 101.47 471.37 101.40 459.30 102.26 449.42
  C 103.14 439.39 109.32 437.20 118.40 436.96
  A 0.63 0.62 89.5 0 0 119.01 436.33
  L 119.01 401.98
  A 0.80 0.79 -80.1 0 0 118.49 401.23
  Q 98.85 393.85 85.24 378.97
  C 62.81 354.46 45.73 325.42 32.45 293.95
  Q 17.73 260.15 11.42 225.04
  Q 10.02 217.27 9.20 207.53
  C 8.85 203.40 9.26 198.14 8.76 193.37
  Q 9.12 192.70 9.12 191.47
  Q 9.76 191.66 9.86 192.50
  Q 12.11 212.75 17.86 233.17
  Q 31.69 282.25 57.77 323.76
  Q 70.01 343.24 83.80 358.46
  C 94.75 370.55 108.39 379.94 124.70 383.88
  Q 152.87 390.69 178.51 374.89
  Q 191.97 366.59 201.98 353.47
  Q 208.73 344.63 212.50 339.51
  C 230.71 314.84 244.79 286.49 255.34 257.61
  Q 267.00 225.72 271.07 193.73
  A 0.37 0.37 0.0 0 1 271.79 193.68
  L 271.96 194.28
  Z
  M 114.80 505.97
  L 132.33 488.44
  A 0.44 0.43 -34.1 0 1 133.04 488.57
  Q 138.01 499.76 148.95 501.51
  C 160.42 503.34 170.51 496.02 172.84 484.87
  A 2.46 2.22 -42.0 0 0 172.89 484.39
  L 172.95 449.82
  A 0.76 0.75 0.4 0 0 172.19 449.06
  L 114.88 449.06
  A 0.82 0.82 0.0 0 0 114.06 449.88
  L 114.06 460.19
  A 0.43 0.43 0.0 0 0 114.49 460.62
  L 132.60 460.62
  A 0.49 0.48 90.0 0 1 133.08 461.11
  L 133.08 469.98
  A 2.02 2.00 -22.7 0 1 132.49 471.40
  L 114.79 489.11
  A 2.45 2.44 -22.4 0 0 114.06 490.85
  L 114.06 505.66
  A 0.44 0.43 67.6 0 0 114.80 505.97
  Z
  M 148.80 557.42
  A 0.71 0.71 0.0 0 0 149.51 556.71
  L 149.51 517.05
  A 0.71 0.71 0.0 0 0 148.80 516.34
  L 114.76 516.34
  A 0.71 0.71 0.0 0 0 114.05 517.05
  L 114.05 568.58
  A 0.71 0.71 0.0 0 0 114.76 569.29
  L 125.13 569.29
  A 0.71 0.71 0.0 0 0 125.84 568.58
  L 125.84 528.79
  A 0.71 0.71 0.0 0 1 126.55 528.08
  L 136.79 528.08
  A 0.71 0.71 0.0 0 1 137.50 528.79
  L 137.50 556.71
  A 0.71 0.71 0.0 0 0 138.21 557.42
  L 148.80 557.42
  Z
  M 172.92 516.89
  A 0.55 0.55 0.0 0 0 172.37 516.34
  L 161.77 516.34
  A 0.55 0.55 0.0 0 0 161.22 516.89
  L 161.22 568.71
  A 0.55 0.55 0.0 0 0 161.77 569.26
  L 172.37 569.26
  A 0.55 0.55 0.0 0 0 172.92 568.71
  L 172.92 516.89
  Z
  M 114.04 610.21
  Q 114.05 613.54 114.22 615.23
  Q 114.96 622.36 120.23 629.05
  C 131.98 643.95 152.74 645.39 166.63 632.49
  A 0.50 0.50 0.0 0 0 166.64 631.77
  L 158.89 624.02
  A 0.58 0.58 0.0 0 0 158.10 623.99
  Q 149.43 631.41 138.96 628.19
  C 131.34 625.85 125.88 618.45 125.88 610.20
  C 125.87 601.96 131.32 594.55 138.94 592.21
  Q 149.41 588.98 158.09 596.40
  A 0.58 0.58 0.0 0 0 158.88 596.37
  L 166.62 588.61
  A 0.50 0.50 0.0 0 0 166.61 587.89
  C 152.71 575.00 131.96 576.46 120.22 591.36
  Q 114.95 598.06 114.22 605.19
  Q 114.04 606.88 114.04 610.21
  Z
  M 172.94 604.74
  A 0.53 0.53 0.0 0 0 172.41 604.21
  L 147.59 604.21
  A 0.53 0.53 0.0 0 0 147.06 604.74
  L 147.06 615.84
  A 0.53 0.53 0.0 0 0 147.59 616.37
  L 172.41 616.37
  A 0.53 0.53 0.0 0 0 172.94 615.84
  L 172.94 604.74
  Z
  M 139.73 676.74
  Q 129.18 685.14 114.68 696.83
  A 1.55 1.54 70.9 0 0 114.10 698.04
  L 114.10 708.44
  A 0.58 0.57 -0.0 0 0 114.68 709.01
  L 172.37 709.01
  A 0.60 0.59 -90.0 0 0 172.96 708.41
  L 172.96 697.90
  A 0.57 0.56 90.0 0 0 172.40 697.33
  L 133.77 697.33
  A 0.32 0.32 0.0 0 1 133.57 696.76
  Q 135.72 695.06 147.34 685.81
  Q 157.89 677.40 172.39 665.72
  A 1.55 1.54 70.9 0 0 172.97 664.50
  L 172.97 654.10
  A 0.58 0.57 -0.0 0 0 172.39 653.53
  L 114.70 653.53
  A 0.60 0.59 -90.0 0 0 114.11 654.13
  L 114.11 664.64
  A 0.57 0.56 90.0 0 0 114.67 665.21
  L 153.30 665.21
  A 0.32 0.32 0.0 0 1 153.50 665.78
  Q 151.35 667.48 139.73 676.74
  Z"
/>
<path fill="#a3731b" d="
  M 32.45 293.95
  Q 32.02 294.53 32.02 294.83
  Q 31.91 352.53 32.02 484.66
  Q 32.06 532.84 33.51 550.78
  Q 36.28 584.93 42.76 616.26
  C 49.29 647.84 59.44 679.26 75.43 707.31
  C 85.82 725.54 99.91 742.64 118.90 752.20
  L 119.10 756.38
  A 0.71 0.71 0.0 0 0 119.81 757.06
  L 164.94 756.86
  L 185.94 756.95
  C 186.04 760.60 185.29 767.16 181.86 769.46
  C 180.56 770.35 178.72 769.90 177.16 770.10
  L 110.30 770.08
  L 106.38 769.96
  A 2.01 1.96 59.7 0 1 105.44 769.70
  C 101.99 767.75 101.04 761.35 101.06 757.62
  A 0.61 0.61 0.0 0 0 100.45 757.01
  Q 96.17 756.97 86.33 757.02
  C 63.90 757.14 43.30 724.76 34.34 707.14
  Q 23.33 685.49 16.25 663.21
  Q 2.89 621.17 0.00 577.11
  L 0.00 208.51
  Q 0.95 199.04 8.76 193.37
  C 9.26 198.14 8.85 203.40 9.20 207.53
  Q 10.02 217.27 11.42 225.04
  Q 17.73 260.15 32.45 293.95
  Z"
/>
<path fill="#d0a426" d="
  M 272.32 193.72
  Q 279.59 199.18 281.00 208.73
  L 281.00 572.21
  Q 278.18 630.92 256.67 685.10
  C 250.62 700.34 243.22 714.89 233.85 728.30
  C 225.25 740.59 214.19 752.40 199.87 756.70
  A 4.66 4.44 35.1 0 1 198.53 756.90
  L 185.94 756.95
  L 164.94 756.86
  L 165.09 749.84
  Q 166.81 749.80 168.17 748.93
  C 186.48 737.16 199.72 719.14 209.57 700.08
  C 233.92 652.91 244.01 598.71 247.82 546.17
  Q 248.94 530.70 248.97 498.14
  Q 249.08 344.78 248.97 297.03
  Q 248.97 296.45 248.44 295.21
  Q 248.73 294.01 249.19 292.86
  Q 256.71 274.40 262.29 255.26
  C 268.11 235.31 271.83 214.72 271.96 194.28
  Q 271.96 193.99 272.32 193.72
  Z"
/>
<circle fill="#936314" cx="140.50" cy="245.50" r="9.47"/>
<circle fill="#936314" cx="140.50" cy="296.50" r="9.47"/>
<path fill="#b9881e" d="
  M 32.45 293.95
  C 45.73 325.42 62.81 354.46 85.24 378.97
  Q 98.85 393.85 118.49 401.23
  A 0.80 0.79 -80.1 0 1 119.01 401.98
  L 119.01 436.33
  A 0.63 0.62 89.5 0 1 118.40 436.96
  C 109.32 437.20 103.14 439.39 102.26 449.42
  C 101.40 459.30 101.47 471.37 113.88 472.32
  A 0.32 0.32 0.0 0 1 114.08 472.87
  Q 109.97 476.90 105.66 481.12
  Q 102.68 484.03 102.40 489.32
  Q 101.80 500.52 102.40 505.90
  C 102.89 510.25 102.37 513.49 102.29 517.38
  Q 101.75 543.14 102.19 567.48
  Q 102.39 578.45 112.63 581.08
  A 0.30 0.30 0.0 0 1 112.77 581.58
  Q 107.76 586.77 105.21 593.41
  Q 97.20 614.31 108.49 633.27
  Q 110.34 636.38 115.24 641.25
  A 0.21 0.21 0.0 0 1 115.09 641.61
  C 107.27 641.78 102.71 646.71 102.17 654.54
  C 101.63 662.21 101.30 673.57 110.56 676.41
  Q 114.75 677.69 118.33 677.33
  A 0.46 0.46 0.0 0 1 118.68 678.13
  Q 116.39 680.18 107.83 686.86
  Q 103.46 690.28 102.66 694.90
  Q 101.18 703.49 102.84 711.63
  C 104.38 719.22 111.71 721.40 118.44 720.99
  A 0.48 0.47 -1.7 0 1 118.95 721.46
  L 118.90 752.20
  C 99.91 742.64 85.82 725.54 75.43 707.31
  C 59.44 679.26 49.29 647.84 42.76 616.26
  Q 36.28 584.93 33.51 550.78
  Q 32.06 532.84 32.02 484.66
  Q 31.91 352.53 32.02 294.83
  Q 32.02 294.53 32.45 293.95
  Z"
/>
<path fill="#b9881e" d="
  M 248.44 295.21
  Q 248.97 296.45 248.97 297.03
  Q 249.08 344.78 248.97 498.14
  Q 248.94 530.70 247.82 546.17
  C 244.01 598.71 233.92 652.91 209.57 700.08
  C 199.72 719.14 186.48 737.16 168.17 748.93
  Q 166.81 749.80 165.09 749.84
  L 165.02 721.52
  A 0.64 0.63 2.4 0 1 165.72 720.88
  Q 172.24 721.55 177.63 719.65
  Q 181.10 718.43 183.44 714.24
  A 2.94 2.82 68.2 0 0 183.75 713.47
  C 184.31 711.16 184.94 709.45 184.99 707.10
  C 185.16 699.33 185.76 690.76 177.94 686.87
  Q 174.28 685.05 167.88 685.29
  A 0.21 0.20 24.2 0 1 167.74 684.93
  Q 177.43 677.14 177.69 676.94
  C 182.70 673.10 184.37 670.26 184.93 664.49
  Q 185.39 659.71 184.78 653.65
  Q 183.82 644.08 174.87 641.89
  A 0.40 0.40 0.0 0 1 174.68 641.22
  Q 180.13 635.54 177.67 627.85
  A 0.78 0.77 -24.9 0 1 178.00 626.96
  Q 184.87 622.79 184.92 614.25
  Q 184.96 607.83 184.92 605.25
  A 5.60 5.52 -52.7 0 0 184.76 604.01
  C 183.59 599.38 182.66 596.21 177.99 593.86
  A 0.78 0.78 0.0 0 1 177.59 592.98
  L 178.56 588.95
  A 1.30 1.25 -43.9 0 0 178.58 588.45
  Q 177.81 583.56 176.32 580.95
  A 0.44 0.43 -24.4 0 1 176.56 580.32
  C 182.89 578.23 184.99 572.45 185.00 566.12
  Q 185.01 550.48 184.99 519.00
  C 184.99 512.46 182.10 506.53 175.47 504.89
  A 0.26 0.26 0.0 0 1 175.35 504.45
  Q 180.05 499.76 182.63 494.03
  C 183.73 491.57 184.01 488.90 184.65 485.93
  A 14.61 14.44 -39.3 0 0 184.97 482.90
  Q 185.00 468.84 185.01 453.75
  C 185.02 448.16 184.39 442.95 180.16 439.74
  C 176.68 437.10 170.07 436.82 165.73 437.02
  A 0.70 0.70 0.0 0 1 165.00 436.32
  L 165.00 401.11
  A 0.89 0.88 -9.9 0 1 165.59 400.28
  C 180.35 395.04 193.61 383.76 202.99 371.24
  Q 206.54 366.51 212.47 358.48
  Q 232.76 331.03 247.12 297.12
  Q 247.57 296.04 248.44 295.21
  Z"
/>
<circle fill="#936314" cx="140.50" cy="347.50" r="9.47"/>
<path fill="#c68b24" d="
  M 114.80 505.97
  A 0.44 0.43 67.6 0 1 114.06 505.66
  L 114.06 490.85
  A 2.45 2.44 -22.4 0 1 114.79 489.11
  L 132.49 471.40
  A 2.02 2.00 -22.7 0 0 133.08 469.98
  L 133.08 461.11
  A 0.49 0.48 90.0 0 0 132.60 460.62
  L 114.49 460.62
  A 0.43 0.43 0.0 0 1 114.06 460.19
  L 114.06 449.88
  A 0.82 0.82 0.0 0 1 114.88 449.06
  L 172.19 449.06
  A 0.76 0.75 0.4 0 1 172.95 449.82
  L 172.89 484.39
  A 2.46 2.22 -42.0 0 1 172.84 484.87
  C 170.51 496.02 160.42 503.34 148.95 501.51
  Q 138.01 499.76 133.04 488.57
  A 0.44 0.43 -34.1 0 0 132.33 488.44
  L 114.80 505.97
  Z
  M 160.76 460.63
  L 144.08 460.61
  A 0.47 0.47 0.0 0 0 143.60 461.07
  L 143.57 480.92
  A 8.94 8.76 -89.9 0 0 152.31 489.88
  L 152.41 489.88
  A 8.94 8.76 -89.9 0 0 161.19 480.96
  L 161.22 461.11
  A 0.47 0.47 0.0 0 0 160.76 460.63
  Z"
/>
<path fill="#936314" d="
  M 160.76 460.63
  A 0.47 0.47 0.0 0 1 161.22 461.11
  L 161.19 480.96
  A 8.94 8.76 -89.9 0 1 152.41 489.88
  L 152.31 489.88
  A 8.94 8.76 -89.9 0 1 143.57 480.92
  L 143.60 461.07
  A 0.47 0.47 0.0 0 1 144.08 460.61
  L 160.76 460.63
  Z"
/>
<path fill="#c68b24" d="
  M 148.80 557.42
  L 138.21 557.42
  A 0.71 0.71 0.0 0 1 137.50 556.71
  L 137.50 528.79
  A 0.71 0.71 0.0 0 0 136.79 528.08
  L 126.55 528.08
  A 0.71 0.71 0.0 0 0 125.84 528.79
  L 125.84 568.58
  A 0.71 0.71 0.0 0 1 125.13 569.29
  L 114.76 569.29
  A 0.71 0.71 0.0 0 1 114.05 568.58
  L 114.05 517.05
  A 0.71 0.71 0.0 0 1 114.76 516.34
  L 148.80 516.34
  A 0.71 0.71 0.0 0 1 149.51 517.05
  L 149.51 556.71
  A 0.71 0.71 0.0 0 1 148.80 557.42
  Z"
/>
<rect fill="#c68b24" x="161.22" y="516.34" width="11.70" height="52.92" rx="0.55"/>
<path fill="#e8be4a" d="
  M 125.88 610.20
  C 125.88 618.45 131.34 625.85 138.96 628.19
  Q 149.43 631.41 158.10 623.99
  A 0.58 0.58 0.0 0 1 158.89 624.02
  L 166.64 631.77
  A 0.50 0.50 0.0 0 1 166.63 632.49
  C 152.74 645.39 131.98 643.95 120.23 629.05
  Q 114.96 622.36 114.22 615.23
  Q 114.05 613.54 114.04 610.21
  Q 114.04 606.88 114.22 605.19
  Q 114.95 598.06 120.22 591.36
  C 131.96 576.46 152.71 575.00 166.61 587.89
  A 0.50 0.50 0.0 0 1 166.62 588.61
  L 158.88 596.37
  A 0.58 0.58 0.0 0 1 158.09 596.40
  Q 149.41 588.98 138.94 592.21
  C 131.32 594.55 125.87 601.96 125.88 610.20
  Z"
/>
<rect fill="#e8be4a" x="147.06" y="604.21" width="25.88" height="12.16" rx="0.53"/>
<path fill="#c68b24" d="
  M 139.73 676.74
  Q 151.35 667.48 153.50 665.78
  A 0.32 0.32 0.0 0 0 153.30 665.21
  L 114.67 665.21
  A 0.57 0.56 90.0 0 1 114.11 664.64
  L 114.11 654.13
  A 0.60 0.59 90.0 0 1 114.70 653.53
  L 172.39 653.53
  A 0.58 0.57 0.0 0 1 172.97 654.10
  L 172.97 664.50
  A 1.55 1.54 70.9 0 1 172.39 665.72
  Q 157.89 677.40 147.34 685.81
  Q 135.72 695.06 133.57 696.76
  A 0.32 0.32 0.0 0 0 133.77 697.33
  L 172.40 697.33
  A 0.57 0.56 90.0 0 1 172.96 697.90
  L 172.96 708.41
  A 0.60 0.59 90.0 0 1 172.37 709.01
  L 114.68 709.01
  A 0.58 0.57 0.0 0 1 114.10 708.44
  L 114.10 698.04
  A 1.55 1.54 70.9 0 1 114.68 696.83
  Q 129.18 685.14 139.73 676.74
  Z"
/>
<path fill="#445052" d="
  M 177.16 770.10
  Q 176.84 773.10 178.20 773.65
  L 165.34 774.10
  L 123.49 774.07
  L 109.84 773.75
  Q 110.36 772.01 110.30 770.08
  L 177.16 770.10
  Z"
/>
<path fill="#788c92" d="
  M 178.20 773.65
  Q 185.36 784.28 175.70 792.70
  Q 173.68 794.47 171.11 793.85
  Q 170.29 792.82 167.88 792.91
  C 163.18 786.62 163.76 781.21 165.34 774.10
  L 178.20 773.65
  Z"
/>
<path fill="#57666a" d="
  M 109.84 773.75
  L 123.49 774.07
  C 122.11 778.20 121.06 784.25 123.22 788.01
  Q 124.08 789.52 127.13 792.90
  L 115.97 793.38
  Q 109.55 791.98 107.03 786.46
  Q 103.83 779.47 109.84 773.75
  Z"
/>
<path fill="#687a7f" d="
  M 165.34 774.10
  C 163.76 781.21 163.18 786.62 167.88 792.91
  L 127.13 792.90
  Q 124.08 789.52 123.22 788.01
  C 121.06 784.25 122.11 778.20 123.49 774.07
  L 165.34 774.10
  Z"
/>
<path fill="#445052" d="
  M 127.13 792.90
  L 167.88 792.91
  Q 170.29 792.82 171.11 793.85
  Q 170.63 795.80 171.50 796.87
  L 159.96 797.11
  L 127.55 797.11
  L 115.75 796.93
  Q 116.27 795.53 115.97 793.38
  L 127.13 792.90
  Z"
/>
<path fill="#57666a" d="
  M 127.55 797.11
  Q 121.63 808.15 129.67 816.91
  Q 124.70 816.39 121.77 817.88
  Q 114.59 816.66 112.44 809.80
  Q 110.17 802.60 115.75 796.93
  L 127.55 797.11
  Z"
/>
<path fill="#788c92" d="
  M 171.50 796.87
  Q 173.96 799.07 174.87 802.83
  Q 175.07 803.63 174.91 808.79
  A 2.88 2.87 -35.4 0 1 174.77 809.61
  C 173.47 813.71 169.99 818.80 165.10 817.91
  Q 164.32 816.82 161.74 816.87
  Q 155.49 807.83 159.96 797.11
  L 171.50 796.87
  Z"
/>
<path fill="#687a7f" d="
  M 159.96 797.11
  Q 155.49 807.83 161.74 816.87
  L 129.67 816.91
  Q 121.63 808.15 127.55 797.11
  L 159.96 797.11
  Z"
/>
<path fill="#445052" d="
  M 129.67 816.91
  L 161.74 816.87
  Q 164.32 816.82 165.10 817.91
  Q 164.73 819.47 165.21 820.92
  L 153.00 821.06
  L 129.57 821.10
  L 121.99 820.97
  Q 122.20 819.22 121.77 817.88
  Q 124.70 816.39 129.67 816.91
  Z"
/>
<path fill="#57666a" d="
  M 129.57 821.10
  Q 129.39 823.32 128.84 825.42
  Q 126.27 835.26 133.16 842.00
  L 127.03 842.00
  C 117.81 839.40 117.35 827.68 121.99 820.97
  L 129.57 821.10
  Z"
/>
<path fill="#687a7f" d="
  M 153.00 821.06
  Q 149.37 829.65 152.60 837.06
  C 153.37 838.82 155.03 840.31 156.19 842.00
  L 133.16 842.00
  Q 126.27 835.26 128.84 825.42
  Q 129.39 823.32 129.57 821.10
  L 153.00 821.06
  Z"
/>
<path fill="#788c92" d="
  M 165.21 820.92
  Q 167.50 823.58 167.89 827.04
  C 168.57 832.99 167.42 838.70 162.01 842.00
  L 156.19 842.00
  C 155.03 840.31 153.37 838.82 152.60 837.06
  Q 149.37 829.65 153.00 821.06
  L 165.21 820.92
  Z"
/>
</svg>
