<?xml version="1.0" encoding="UTF-8" standalone="no"?>
<!DOCTYPE svg PUBLIC "-//W3C//DTD SVG 1.1//EN" "http://www.w3.org/Graphics/SVG/1.1/DTD/svg11.dtd">
<svg xmlns="http://www.w3.org/2000/svg" version="1.1" viewBox="0.00 0.00 281.00 842.00">
<g stroke-width="2.00" fill="none" stroke-linecap="butt">
<path stroke="#607075" vector-effect="non-scaling-stroke" d="
  M 132.96 0.00
  Q 124.85 8.77 130.10 20.84"
/>
<path stroke="#4e5b5e" vector-effect="non-scaling-stroke" d="
  M 130.10 20.84
  L 121.86 20.95"
/>
<path stroke="#708389" vector-effect="non-scaling-stroke" d="
  M 156.78 0.00
  C 155.61 1.96 153.97 3.71 153.21 5.71
  Q 151.11 11.24 152.54 16.19
  Q 153.48 19.44 153.66 20.89"
/>
<path stroke="#566569" vector-effect="non-scaling-stroke" d="
  M 153.66 20.89
  L 130.10 20.84"
/>
<path stroke="#5e6e72" vector-effect="non-scaling-stroke" d="
  M 165.40 21.10
  L 153.66 20.89"
/>
<path stroke="#5e6e72" vector-effect="non-scaling-stroke" d="
  M 165.41 23.87
  Q 164.44 25.24 162.04 25.06"
/>
<path stroke="#566569" vector-effect="non-scaling-stroke" d="
  M 162.04 25.06
  L 129.58 25.00"
/>
<path stroke="#4e5b5e" vector-effect="non-scaling-stroke" d="
  M 129.58 25.00
  Q 125.01 25.41 121.82 24.10"
/>
<path stroke="#607075" vector-effect="non-scaling-stroke" d="
  M 129.58 25.00
  C 124.50 30.62 123.39 38.46 127.77 44.76"
/>
<path stroke="#4e5b5e" vector-effect="non-scaling-stroke" d="
  M 127.77 44.76
  L 115.75 45.01"
/>
<path stroke="#5e6e72" vector-effect="non-scaling-stroke" d="
  M 172.02 45.09
  L 161.01 44.87"
/>
<path stroke="#708389" vector-effect="non-scaling-stroke" d="
  M 161.01 44.87
  Q 158.06 38.84 159.20 32.63
  C 159.66 30.11 160.97 27.58 162.04 25.06"
/>
<path stroke="#566569" vector-effect="non-scaling-stroke" d="
  M 161.01 44.87
  L 127.77 44.76"
/>
<path stroke="#5e6e72" vector-effect="non-scaling-stroke" d="
  M 171.26 48.03
  Q 170.27 49.30 168.06 49.10"
/>
<path stroke="#566569" vector-effect="non-scaling-stroke" d="
  M 168.06 49.10
  L 127.31 49.14"
/>
<path stroke="#4e5b5e" vector-effect="non-scaling-stroke" d="
  M 127.31 49.14
  L 115.66 48.51"
/>
<path stroke="#5e6e72" vector-effect="non-scaling-stroke" d="
  M 177.77 68.56
  L 166.50 67.95"
/>
<path stroke="#708389" vector-effect="non-scaling-stroke" d="
  M 166.50 67.95
  Q 163.18 61.24 165.84 54.20
  Q 166.74 51.79 168.06 49.10"
/>
<path stroke="#607075" vector-effect="non-scaling-stroke" d="
  M 127.31 49.14
  Q 118.61 57.39 124.36 67.94"
/>
<path stroke="#4e5b5e" vector-effect="non-scaling-stroke" d="
  M 124.36 67.94
  L 109.77 68.33"
/>
<path stroke="#566569" vector-effect="non-scaling-stroke" d="
  M 166.50 67.95
  L 124.36 67.94"
/>
<path stroke="#294c6f" vector-effect="non-scaling-stroke" d="
  M 177.14 71.91
  L 110.27 71.91"
/>
<path stroke="#0d4d96" vector-effect="non-scaling-stroke" d="
  M 185.79 87.90
  Q 175.38 85.90 170.08 85.17
  Q 135.32 80.40 101.10 86.79"
/>
<path stroke="#08448f" vector-effect="non-scaling-stroke" d="
  M 271.63 190.29
  Q 267.52 223.35 255.96 255.74
  Q 243.38 290.97 224.92 321.16
  C 217.95 332.55 209.66 343.56 201.43 354.17
  C 183.37 377.46 155.44 390.67 126.11 384.22
  C 107.26 380.07 91.92 368.56 79.92 354.08
  Q 61.12 331.41 48.54 308.21
  Q 34.34 282.01 24.89 255.79
  Q 13.87 225.21 9.92 193.01"
/>
<path stroke="#0d4d96" vector-effect="non-scaling-stroke" d="
  M 9.92 193.01
  L 9.07 189.21"
/>
<path stroke="#08448f" vector-effect="non-scaling-stroke" d="
  M 149.98 245.50
  A 9.48 9.48 0.0 0 0 140.50 236.02
  A 9.48 9.48 0.0 0 0 131.02 245.50
  A 9.48 9.48 0.0 0 0 140.50 254.98
  A 9.48 9.48 0.0 0 0 149.98 245.50"
/>
<path stroke="#08448f" vector-effect="non-scaling-stroke" d="
  M 149.98 296.50
  A 9.48 9.48 0.0 0 0 140.50 287.02
  A 9.48 9.48 0.0 0 0 131.02 296.50
  A 9.48 9.48 0.0 0 0 140.50 305.98
  A 9.48 9.48 0.0 0 0 149.98 296.50"
/>
<path stroke="#08448f" vector-effect="non-scaling-stroke" d="
  M 149.98 347.50
  A 9.48 9.48 0.0 0 0 140.50 338.02
  A 9.48 9.48 0.0 0 0 131.02 347.50
  A 9.48 9.48 0.0 0 0 140.50 356.98
  A 9.48 9.48 0.0 0 0 149.98 347.50"
/>
<path stroke="#093f85" vector-effect="non-scaling-stroke" d="
  M 9.92 193.01
  C 8.18 200.49 9.33 209.13 10.42 216.64
  Q 16.23 256.75 32.53 293.95"
/>
<path stroke="#0d4d96" vector-effect="non-scaling-stroke" d="
  M 32.53 293.95
  Q 32.02 296.93 32.01 299.94
  Q 31.79 404.16 31.87 505.24
  C 31.91 551.54 36.92 598.05 49.28 642.71
  Q 56.37 668.33 66.83 690.66
  C 78.25 715.07 94.83 740.55 118.93 751.98"
/>
<path stroke="#093f85" vector-effect="non-scaling-stroke" d="
  M 118.93 751.98
  L 119.01 756.54
  A 0.51 0.51 0.0 0 0 119.52 757.04
  L 165.04 756.97"
/>
<path stroke="#1056a6" vector-effect="non-scaling-stroke" d="
  M 165.04 756.97
  L 185.90 757.03"
/>
<path stroke="#294c6f" vector-effect="non-scaling-stroke" d="
  M 177.18 770.16
  L 110.20 770.18"
/>
<path stroke="#0b4d9f" vector-effect="non-scaling-stroke" d="
  M 272.10 193.37
  Q 271.75 205.30 271.34 209.25
  C 268.41 237.81 260.34 265.83 249.23 292.24
  Q 248.85 293.13 248.38 295.45"
/>
<path stroke="#08448f" vector-effect="non-scaling-stroke" d="
  M 248.38 295.45
  L 247.95 295.71
  A 0.98 0.91 87.8 0 0 247.59 296.13
  Q 236.26 322.54 222.57 343.84
  Q 213.67 357.71 200.75 374.01
  Q 186.39 392.11 165.44 400.45
  A 0.71 0.70 -11.3 0 0 165.00 401.10
  L 165.00 436.28
  A 0.81 0.80 -2.9 0 0 165.89 437.08
  C 176.90 436.03 184.98 439.58 185.00 451.75
  Q 185.02 476.27 184.99 482.32
  Q 184.98 485.00 184.65 486.13
  C 183.76 489.28 183.64 492.28 182.05 495.31
  Q 179.36 500.44 175.31 504.49
  A 0.13 0.13 0.0 0 0 175.37 504.71
  Q 180.85 506.41 183.54 511.40
  Q 185.02 514.14 185.02 521.98
  Q 185.01 563.61 184.95 567.25
  C 184.85 573.20 182.44 578.15 176.62 580.38
  A 0.47 0.47 0.0 0 0 176.38 581.06
  Q 177.67 583.23 178.61 588.36
  A 1.36 1.21 -46.3 0 1 178.59 588.91
  L 177.59 592.93
  A 0.77 0.77 0.0 0 0 177.97 593.79
  C 185.87 598.00 185.25 606.85 184.90 615.05
  Q 184.56 622.96 178.08 626.92
  A 0.92 0.91 67.3 0 0 177.67 627.93
  L 178.55 631.45
  A 2.49 2.45 44.5 0 1 178.57 632.61
  C 177.76 636.14 177.33 639.30 174.38 641.39
  A 0.20 0.20 0.0 0 0 174.46 641.75
  Q 183.64 643.83 184.76 653.47
  Q 185.39 658.86 184.94 664.24
  C 184.45 670.17 182.68 673.24 177.46 677.13
  Q 177.03 677.44 167.77 684.93
  A 0.16 0.15 -65.3 0 0 167.87 685.21
  Q 171.07 685.07 174.72 685.82
  Q 178.70 686.63 180.77 688.74
  Q 184.44 692.49 184.80 697.44
  C 185.23 703.16 185.52 709.51 183.50 714.07
  C 180.54 720.77 171.86 721.59 165.65 720.90
  A 0.56 0.55 3.2 0 0 165.03 721.45
  L 165.12 750.15"
/>
<path stroke="#0b4d9f" vector-effect="non-scaling-stroke" d="
  M 165.12 750.15
  L 165.04 756.97"
/>
<path stroke="#08448f" vector-effect="non-scaling-stroke" d="
  M 118.93 751.98
  L 118.97 721.43
  A 0.44 0.44 0.0 0 0 118.50 720.99
  Q 113.76 721.30 109.54 719.68
  C 100.78 716.30 101.58 705.32 102.21 697.21
  Q 102.71 690.74 107.95 686.72
  Q 114.55 681.65 118.65 678.12
  A 0.41 0.41 0.0 0 0 118.34 677.40
  C 110.08 678.10 102.91 673.94 102.23 665.28
  Q 101.59 657.08 102.18 653.33
  Q 103.90 642.21 114.93 641.58
  A 0.24 0.24 0.0 0 0 115.08 641.17
  Q 101.18 627.71 102.00 608.01
  Q 102.65 592.60 112.86 581.49
  A 0.26 0.25 27.3 0 0 112.72 581.07
  Q 106.21 579.61 103.47 574.22
  Q 101.99 571.33 101.96 562.45
  Q 101.85 536.24 102.09 517.45
  A 10.76 10.49 51.8 0 1 102.28 515.67
  Q 102.98 512.10 102.75 510.00
  Q 101.65 500.41 102.00 491.51
  Q 102.27 484.76 106.25 480.44
  Q 107.00 479.62 114.01 472.85
  A 0.23 0.23 0.0 0 0 113.88 472.46
  Q 103.50 471.30 102.22 460.60
  Q 101.50 454.60 102.33 448.07
  C 103.45 439.36 110.67 436.59 118.49 436.99
  A 0.49 0.48 -88.3 0 0 119.00 436.50
  L 119.00 401.62
  A 0.47 0.45 -81.5 0 0 118.69 401.18
  C 98.17 394.42 84.56 379.42 71.81 362.89
  C 55.59 341.86 42.64 318.36 32.53 293.95"
/>
<path stroke="#0b5497" vector-effect="non-scaling-stroke" d="
  M 114.69 506.00
  L 132.36 488.33
  A 0.40 0.40 0.0 0 1 133.01 488.45
  Q 138.63 501.06 151.59 501.69
  C 160.68 502.13 168.88 496.44 171.97 487.95
  Q 172.94 485.28 172.90 479.46
  Q 172.83 467.60 172.90 449.56
  A 0.44 0.44 0.0 0 0 172.46 449.12
  L 114.66 449.12
  A 0.55 0.54 -0.0 0 0 114.11 449.66
  L 114.11 460.00
  A 0.58 0.57 -0.0 0 0 114.69 460.57
  L 132.74 460.57
  A 0.42 0.42 0.0 0 1 133.16 460.99
  L 133.16 470.22
  A 1.45 1.43 67.8 0 1 132.74 471.24
  L 114.69 489.29
  A 1.96 1.93 -23.1 0 0 114.13 490.65
  L 114.13 505.77
  A 0.33 0.33 0.0 0 0 114.69 506.00"
/>
<path stroke="#0b5497" vector-effect="non-scaling-stroke" d="
  M 125.26 569.20
  A 0.50 0.50 0.0 0 0 125.76 568.70
  L 125.76 528.54
  A 0.50 0.50 0.0 0 1 126.26 528.04
  L 137.10 528.04
  A 0.50 0.50 0.0 0 1 137.60 528.54
  L 137.60 556.84
  A 0.50 0.50 0.0 0 0 138.10 557.34
  L 148.91 557.34
  A 0.50 0.50 0.0 0 0 149.41 556.84
  L 149.41 516.95
  A 0.50 0.50 0.0 0 0 148.91 516.45
  L 114.63 516.45
  A 0.50 0.50 0.0 0 0 114.13 516.95
  L 114.13 568.70
  A 0.50 0.50 0.0 0 0 114.63 569.20
  L 125.26 569.20"
/>
<path stroke="#0b5497" vector-effect="non-scaling-stroke" d="
  M 172.88 516.88
  A 0.43 0.43 0.0 0 0 172.45 516.45
  L 161.69 516.45
  A 0.43 0.43 0.0 0 0 161.26 516.88
  L 161.26 568.76
  A 0.43 0.43 0.0 0 0 161.69 569.19
  L 172.45 569.19
  A 0.43 0.43 0.0 0 0 172.88 568.76
  L 172.88 516.88"
/>
<path stroke="#2173ba" vector-effect="non-scaling-stroke" d="
  M 114.10 610.21
  Q 114.11 615.62 114.74 617.76
  C 121.57 640.83 148.59 648.97 166.54 632.39
  A 0.38 0.37 -44.5 0 0 166.55 631.85
  L 158.92 624.22
  A 0.71 0.70 46.3 0 0 157.94 624.19
  C 145.69 635.24 125.72 627.10 125.72 610.20
  C 125.71 593.30 145.67 585.14 157.93 596.17
  A 0.71 0.70 -46.3 0 0 158.91 596.15
  L 166.53 588.51
  A 0.38 0.37 44.4 0 0 166.52 587.97
  C 148.55 571.41 121.54 579.57 114.73 602.65
  Q 114.10 604.79 114.10 610.21"
/>
<path stroke="#2173ba" vector-effect="non-scaling-stroke" d="
  M 172.85 604.81
  A 0.40 0.40 0.0 0 0 172.45 604.41
  L 147.57 604.41
  A 0.40 0.40 0.0 0 0 147.17 604.81
  L 147.17 615.83
  A 0.40 0.40 0.0 0 0 147.57 616.23
  L 172.45 616.23
  A 0.40 0.40 0.0 0 0 172.85 615.83
  L 172.85 604.81"
/>
<path stroke="#0b5497" vector-effect="non-scaling-stroke" d="
  M 139.79 676.80
  Q 128.12 686.08 114.63 696.99
  A 1.31 1.30 70.9 0 0 114.14 698.01
  L 114.14 708.52
  A 0.42 0.42 0.0 0 0 114.56 708.94
  L 172.52 708.94
  A 0.39 0.38 0.0 0 0 172.91 708.56
  L 172.91 697.94
  A 0.49 0.49 0.0 0 0 172.42 697.45
  L 133.67 697.45
  A 0.36 0.36 0.0 0 1 133.45 696.81
  Q 146.64 686.31 147.27 685.81
  Q 158.93 676.52 172.42 665.61
  A 1.31 1.30 70.9 0 0 172.91 664.59
  L 172.91 654.08
  A 0.42 0.42 0.0 0 0 172.49 653.66
  L 114.53 653.66
  A 0.39 0.38 0.0 0 0 114.14 654.04
  L 114.14 664.66
  A 0.49 0.49 0.0 0 0 114.63 665.15
  L 153.38 665.15
  A 0.36 0.36 0.0 0 1 153.60 665.79
  Q 140.41 676.29 139.79 676.80"
/>
<path stroke="#0f5bb0" vector-effect="non-scaling-stroke" d="
  M 165.12 750.15
  Q 170.45 747.83 174.68 744.44
  Q 186.56 734.93 195.16 723.11
  C 212.97 698.61 224.66 669.21 232.46 640.20
  C 243.72 598.33 248.81 554.78 248.96 511.25
  Q 249.01 496.37 248.99 297.78
  Q 248.99 296.72 248.38 295.45"
/>
<path stroke="#0b5497" vector-effect="non-scaling-stroke" d="
  M 160.86 460.58
  L 143.96 460.56
  A 0.43 0.43 0.0 0 0 143.52 460.98
  L 143.49 481.02
  A 8.87 8.72 -89.9 0 0 152.19 489.91
  L 152.51 489.91
  A 8.87 8.72 -89.9 0 0 161.25 481.06
  L 161.28 461.02
  A 0.43 0.43 0.0 0 0 160.86 460.58"
/>
<path stroke="#5e6e72" vector-effect="non-scaling-stroke" d="
  M 177.95 773.68
  L 165.45 774.07"
/>
<path stroke="#566569" vector-effect="non-scaling-stroke" d="
  M 165.45 774.07
  L 124.03 774.07"
/>
<path stroke="#4e5b5e" vector-effect="non-scaling-stroke" d="
  M 124.03 774.07
  L 109.57 773.75"
/>
<path stroke="#5e6e72" vector-effect="non-scaling-stroke" d="
  M 171.55 794.12
  Q 170.12 792.75 167.79 792.90"
/>
<path stroke="#708389" vector-effect="non-scaling-stroke" d="
  M 167.79 792.90
  Q 163.11 786.33 164.54 778.86
  Q 164.99 776.52 165.45 774.07"
/>
<path stroke="#607075" vector-effect="non-scaling-stroke" d="
  M 124.03 774.07
  Q 118.75 784.94 127.16 792.87"
/>
<path stroke="#4e5b5e" vector-effect="non-scaling-stroke" d="
  M 127.16 792.87
  L 115.82 793.41"
/>
<path stroke="#566569" vector-effect="non-scaling-stroke" d="
  M 167.79 792.90
  L 127.16 792.87"
/>
<path stroke="#5e6e72" vector-effect="non-scaling-stroke" d="
  M 171.70 796.91
  L 159.88 797.12"
/>
<path stroke="#566569" vector-effect="non-scaling-stroke" d="
  M 159.88 797.12
  L 127.57 797.08"
/>
<path stroke="#4e5b5e" vector-effect="non-scaling-stroke" d="
  M 127.57 797.08
  L 115.29 796.81"
/>
<path stroke="#607075" vector-effect="non-scaling-stroke" d="
  M 127.57 797.08
  Q 121.63 808.15 129.59 816.77"
/>
<path stroke="#4e5b5e" vector-effect="non-scaling-stroke" d="
  M 129.59 816.77
  Q 126.78 816.97 124.03 817.00
  Q 122.51 817.01 121.74 818.03"
/>
<path stroke="#5e6e72" vector-effect="non-scaling-stroke" d="
  M 165.25 818.12
  Q 164.64 817.32 164.26 817.25
  Q 162.72 816.96 161.72 816.84"
/>
<path stroke="#708389" vector-effect="non-scaling-stroke" d="
  M 161.72 816.84
  Q 155.60 808.01 159.88 797.12"
/>
<path stroke="#566569" vector-effect="non-scaling-stroke" d="
  M 161.72 816.84
  L 129.59 816.77"
/>
<path stroke="#5e6e72" vector-effect="non-scaling-stroke" d="
  M 165.64 821.17
  L 152.98 821.14"
/>
<path stroke="#566569" vector-effect="non-scaling-stroke" d="
  M 152.98 821.14
  L 129.51 821.20"
/>
<path stroke="#4e5b5e" vector-effect="non-scaling-stroke" d="
  M 129.51 821.20
  L 121.91 820.90"
/>
<path stroke="#607075" vector-effect="non-scaling-stroke" d="
  M 129.51 821.20
  Q 129.32 822.73 128.46 826.19
  Q 126.25 834.99 132.96 842.00"
/>
<path stroke="#708389" vector-effect="non-scaling-stroke" d="
  M 152.98 821.14
  Q 149.30 829.86 152.71 837.27
  C 153.47 838.93 155.08 840.38 156.19 842.00"
/>
</g>
<path fill="#57666a" d="
  M 132.96 0.00
  Q 124.85 8.77 130.10 20.84
  L 121.86 20.95
  Q 118.13 16.14 119.07 9.51
  Q 119.99 2.96 125.97 0.00
  L 132.96 0.00
  Z"
/>
<path fill="#687a7f" d="
  M 156.78 0.00
  C 155.61 1.96 153.97 3.71 153.21 5.71
  Q 151.11 11.24 152.54 16.19
  Q 153.48 19.44 153.66 20.89
  L 130.10 20.84
  Q 124.85 8.77 132.96 0.00
  L 156.78 0.00
  Z"
/>
<path fill="#788c92" d="
  M 162.39 0.00
  Q 165.84 2.29 167.26 6.03
  Q 167.96 7.87 168.03 11.08
  Q 168.11 14.84 167.86 16.23
  Q 167.41 18.72 165.40 21.10
  L 153.66 20.89
  Q 153.48 19.44 152.54 16.19
  Q 151.11 11.24 153.21 5.71
  C 153.97 3.71 155.61 1.96 156.78 0.00
  L 162.39 0.00
  Z"
/>
<path fill="#445052" d="
  M 130.10 20.84
  L 153.66 20.89
  L 165.40 21.10
  Q 164.52 23.43 165.41 23.87
  Q 164.44 25.24 162.04 25.06
  L 129.58 25.00
  Q 125.01 25.41 121.82 24.10
  Q 122.48 22.84 121.86 20.95
  L 130.10 20.84
  Z"
/>
<path fill="#57666a" d="
  M 121.82 24.10
  Q 125.01 25.41 129.58 25.00
  C 124.50 30.62 123.39 38.46 127.77 44.76
  L 115.75 45.01
  Q 110.54 39.87 112.15 33.14
  Q 113.97 25.52 121.82 24.10
  Z"
/>
<path fill="#788c92" d="
  M 172.02 45.09
  L 161.01 44.87
  Q 158.06 38.84 159.20 32.63
  C 159.66 30.11 160.97 27.58 162.04 25.06
  Q 164.44 25.24 165.41 23.87
  Q 172.54 24.00 174.78 32.34
  A 5.26 5.18 37.4 0 1 174.96 33.62
  C 175.06 38.11 175.33 40.97 172.02 45.09
  Z"
/>
<path fill="#687a7f" d="
  M 162.04 25.06
  C 160.97 27.58 159.66 30.11 159.20 32.63
  Q 158.06 38.84 161.01 44.87
  L 127.77 44.76
  C 123.39 38.46 124.50 30.62 129.58 25.00
  L 162.04 25.06
  Z"
/>
<path fill="#445052" d="
  M 127.77 44.76
  L 161.01 44.87
  L 172.02 45.09
  Q 170.34 46.64 171.26 48.03
  Q 170.27 49.30 168.06 49.10
  L 127.31 49.14
  L 115.66 48.51
  Q 116.56 46.56 115.75 45.01
  L 127.77 44.76
  Z"
/>
<path fill="#788c92" d="
  M 177.77 68.56
  L 166.50 67.95
  Q 163.18 61.24 165.84 54.20
  Q 166.74 51.79 168.06 49.10
  Q 170.27 49.30 171.26 48.03
  C 172.89 47.89 174.26 47.92 175.61 48.98
  Q 182.27 54.25 180.89 62.74
  Q 180.29 66.46 177.77 68.56
  Z"
/>
<path fill="#57666a" d="
  M 115.66 48.51
  L 127.31 49.14
  Q 118.61 57.39 124.36 67.94
  L 109.77 68.33
  Q 103.10 62.17 107.42 54.41
  Q 109.89 49.98 115.66 48.51
  Z"
/>
<path fill="#687a7f" d="
  M 168.06 49.10
  Q 166.74 51.79 165.84 54.20
  Q 163.18 61.24 166.50 67.95
  L 124.36 67.94
  Q 118.61 57.39 127.31 49.14
  L 168.06 49.10
  Z"
/>
<path fill="#445052" d="
  M 124.36 67.94
  L 166.50 67.95
  L 177.77 68.56
  Q 176.87 70.24 177.14 71.91
  L 110.27 71.91
  Q 110.35 70.27 109.77 68.33
  L 124.36 67.94
  Z"
/>
<path fill="#0d488b" d="
  M 177.14 71.91
  Q 178.73 72.07 180.53 71.95
  Q 182.33 71.83 183.60 74.17
  Q 186.89 80.24 185.79 87.90
  Q 175.38 85.90 170.08 85.17
  Q 135.32 80.40 101.10 86.79
  C 100.58 82.24 101.17 75.42 105.03 72.33
  A 1.48 1.44 -64.2 0 1 105.91 72.01
  L 110.27 71.91
  L 177.14 71.91
  Z"
/>
<path fill="#0c52a0" d="
  M 185.79 87.90
  Q 200.50 91.46 214.19 97.33
  C 235.14 106.31 253.65 120.19 265.04 140.20
  Q 267.33 144.22 269.01 149.73
  Q 271.09 156.58 271.84 165.99
  Q 272.52 174.47 271.63 190.29
  Q 267.52 223.35 255.96 255.74
  Q 243.38 290.97 224.92 321.16
  C 217.95 332.55 209.66 343.56 201.43 354.17
  C 183.37 377.46 155.44 390.67 126.11 384.22
  C 107.26 380.07 91.92 368.56 79.92 354.08
  Q 61.12 331.41 48.54 308.21
  Q 34.34 282.01 24.89 255.79
  Q 13.87 225.21 9.92 193.01
  L 9.07 189.21
  Q 8.95 178.40 9.08 167.60
  C 9.12 164.28 9.84 161.25 10.16 158.28
  Q 11.19 148.51 16.64 139.12
  Q 26.54 122.03 43.64 110.13
  Q 68.44 92.86 101.10 86.79
  Q 135.32 80.40 170.08 85.17
  Q 175.38 85.90 185.79 87.90
  Z
  M 149.98 245.50
  A 9.48 9.48 0.0 0 0 140.50 236.02
  A 9.48 9.48 0.0 0 0 131.02 245.50
  A 9.48 9.48 0.0 0 0 140.50 254.98
  A 9.48 9.48 0.0 0 0 149.98 245.50
  Z
  M 149.98 296.50
  A 9.48 9.48 0.0 0 0 140.50 287.02
  A 9.48 9.48 0.0 0 0 131.02 296.50
  A 9.48 9.48 0.0 0 0 140.50 305.98
  A 9.48 9.48 0.0 0 0 149.98 296.50
  Z
  M 149.98 347.50
  A 9.48 9.48 0.0 0 0 140.50 338.02
  A 9.48 9.48 0.0 0 0 131.02 347.50
  A 9.48 9.48 0.0 0 0 140.50 356.98
  A 9.48 9.48 0.0 0 0 149.98 347.50
  Z"
/>
<path fill="#0d488b" d="
  M 9.92 193.01
  C 8.18 200.49 9.33 209.13 10.42 216.64
  Q 16.23 256.75 32.53 293.95
  Q 32.02 296.93 32.01 299.94
  Q 31.79 404.16 31.87 505.24
  C 31.91 551.54 36.92 598.05 49.28 642.71
  Q 56.37 668.33 66.83 690.66
  C 78.25 715.07 94.83 740.55 118.93 751.98
  L 119.01 756.54
  A 0.51 0.51 0.0 0 0 119.52 757.04
  L 165.04 756.97
  L 185.90 757.03
  C 186.26 760.91 185.43 767.05 182.05 769.62
  A 1.79 1.76 -64.5 0 1 181.09 769.97
  L 177.18 770.16
  L 110.20 770.18
  L 105.80 769.93
  A 1.60 1.58 -23.4 0 1 104.88 769.57
  C 101.80 767.03 100.74 761.27 101.01 757.74
  A 0.69 0.68 -88.0 0 0 100.33 757.00
  Q 90.43 757.02 89.35 757.04
  Q 82.40 757.17 79.69 756.35
  C 62.74 751.22 48.72 732.47 40.24 718.01
  Q 28.97 698.78 21.34 678.14
  Q 7.42 640.45 2.11 600.31
  C 1.89 598.63 1.96 596.85 1.45 595.07
  Q 1.08 593.81 1.02 591.14
  Q 0.90 586.41 0.00 581.77
  L 0.00 208.61
  C 0.45 201.92 3.70 197.24 8.64 193.11
  A 1.11 1.05 71.5 0 0 9.02 192.30
  L 9.07 189.21
  L 9.92 193.01
  Z"
/>
<path fill="#04367e" d="
  M 271.63 190.29
  L 272.10 193.37
  Q 271.75 205.30 271.34 209.25
  C 268.41 237.81 260.34 265.83 249.23 292.24
  Q 248.85 293.13 248.38 295.45
  L 247.95 295.71
  A 0.98 0.91 87.8 0 0 247.59 296.13
  Q 236.26 322.54 222.57 343.84
  Q 213.67 357.71 200.75 374.01
  Q 186.39 392.11 165.44 400.45
  A 0.71 0.70 -11.3 0 0 165.00 401.10
  L 165.00 436.28
  A 0.81 0.80 -2.9 0 0 165.89 437.08
  C 176.90 436.03 184.98 439.58 185.00 451.75
  Q 185.02 476.27 184.99 482.32
  Q 184.98 485.00 184.65 486.13
  C 183.76 489.28 183.64 492.28 182.05 495.31
  Q 179.36 500.44 175.31 504.49
  A 0.13 0.13 0.0 0 0 175.37 504.71
  Q 180.85 506.41 183.54 511.40
  Q 185.02 514.14 185.02 521.98
  Q 185.01 563.61 184.95 567.25
  C 184.85 573.20 182.44 578.15 176.62 580.38
  A 0.47 0.47 0.0 0 0 176.38 581.06
  Q 177.67 583.23 178.61 588.36
  A 1.36 1.21 -46.3 0 1 178.59 588.91
  L 177.59 592.93
  A 0.77 0.77 0.0 0 0 177.97 593.79
  C 185.87 598.00 185.25 606.85 184.90 615.05
  Q 184.56 622.96 178.08 626.92
  A 0.92 0.91 67.3 0 0 177.67 627.93
  L 178.55 631.45
  A 2.49 2.45 44.5 0 1 178.57 632.61
  C 177.76 636.14 177.33 639.30 174.38 641.39
  A 0.20 0.20 0.0 0 0 174.46 641.75
  Q 183.64 643.83 184.76 653.47
  Q 185.39 658.86 184.94 664.24
  C 184.45 670.17 182.68 673.24 177.46 677.13
  Q 177.03 677.44 167.77 684.93
  A 0.16 0.15 -65.3 0 0 167.87 685.21
  Q 171.07 685.07 174.72 685.82
  Q 178.70 686.63 180.77 688.74
  Q 184.44 692.49 184.80 697.44
  C 185.23 703.16 185.52 709.51 183.50 714.07
  C 180.54 720.77 171.86 721.59 165.65 720.90
  A 0.56 0.55 3.2 0 0 165.03 721.45
  L 165.12 750.15
  L 165.04 756.97
  L 119.52 757.04
  A 0.51 0.51 0.0 0 1 119.01 756.54
  L 118.93 751.98
  L 118.97 721.43
  A 0.44 0.44 0.0 0 0 118.50 720.99
  Q 113.76 721.30 109.54 719.68
  C 100.78 716.30 101.58 705.32 102.21 697.21
  Q 102.71 690.74 107.95 686.72
  Q 114.55 681.65 118.65 678.12
  A 0.41 0.41 0.0 0 0 118.34 677.40
  C 110.08 678.10 102.91 673.94 102.23 665.28
  Q 101.59 657.08 102.18 653.33
  Q 103.90 642.21 114.93 641.58
  A 0.24 0.24 0.0 0 0 115.08 641.17
  Q 101.18 627.71 102.00 608.01
  Q 102.65 592.60 112.86 581.49
  A 0.26 0.25 27.3 0 0 112.72 581.07
  Q 106.21 579.61 103.47 574.22
  Q 101.99 571.33 101.96 562.45
  Q 101.85 536.24 102.09 517.45
  A 10.76 10.49 51.8 0 1 102.28 515.67
  Q 102.98 512.10 102.75 510.00
  Q 101.65 500.41 102.00 491.51
  Q 102.27 484.76 106.25 480.44
  Q 107.00 479.62 114.01 472.85
  A 0.23 0.23 0.0 0 0 113.88 472.46
  Q 103.50 471.30 102.22 460.60
  Q 101.50 454.60 102.33 448.07
  C 103.45 439.36 110.67 436.59 118.49 436.99
  A 0.49 0.48 -88.3 0 0 119.00 436.50
  L 119.00 401.62
  A 0.47 0.45 -81.5 0 0 118.69 401.18
  C 98.17 394.42 84.56 379.42 71.81 362.89
  C 55.59 341.86 42.64 318.36 32.53 293.95
  Q 16.23 256.75 10.42 216.64
  C 9.33 209.13 8.18 200.49 9.92 193.01
  Q 13.87 225.21 24.89 255.79
  Q 34.34 282.01 48.54 308.21
  Q 61.12 331.41 79.92 354.08
  C 91.92 368.56 107.26 380.07 126.11 384.22
  C 155.44 390.67 183.37 377.46 201.43 354.17
  C 209.66 343.56 217.95 332.55 224.92 321.16
  Q 243.38 290.97 255.96 255.74
  Q 267.52 223.35 271.63 190.29
  Z
  M 114.69 506.00
  L 132.36 488.33
  A 0.40 0.40 0.0 0 1 133.01 488.45
  Q 138.63 501.06 151.59 501.69
  C 160.68 502.13 168.88 496.44 171.97 487.95
  Q 172.94 485.28 172.90 479.46
  Q 172.83 467.60 172.90 449.56
  A 0.44 0.44 0.0 0 0 172.46 449.12
  L 114.66 449.12
  A 0.55 0.54 -0.0 0 0 114.11 449.66
  L 114.11 460.00
  A 0.58 0.57 -0.0 0 0 114.69 460.57
  L 132.74 460.57
  A 0.42 0.42 0.0 0 1 133.16 460.99
  L 133.16 470.22
  A 1.45 1.43 67.8 0 1 132.74 471.24
  L 114.69 489.29
  A 1.96 1.93 -23.1 0 0 114.13 490.65
  L 114.13 505.77
  A 0.33 0.33 0.0 0 0 114.69 506.00
  Z
  M 125.26 569.20
  A 0.50 0.50 0.0 0 0 125.76 568.70
  L 125.76 528.54
  A 0.50 0.50 0.0 0 1 126.26 528.04
  L 137.10 528.04
  A 0.50 0.50 0.0 0 1 137.60 528.54
  L 137.60 556.84
  A 0.50 0.50 0.0 0 0 138.10 557.34
  L 148.91 557.34
  A 0.50 0.50 0.0 0 0 149.41 556.84
  L 149.41 516.95
  A 0.50 0.50 0.0 0 0 148.91 516.45
  L 114.63 516.45
  A 0.50 0.50 0.0 0 0 114.13 516.95
  L 114.13 568.70
  A 0.50 0.50 0.0 0 0 114.63 569.20
  L 125.26 569.20
  Z
  M 172.88 516.88
  A 0.43 0.43 0.0 0 0 172.45 516.45
  L 161.69 516.45
  A 0.43 0.43 0.0 0 0 161.26 516.88
  L 161.26 568.76
  A 0.43 0.43 0.0 0 0 161.69 569.19
  L 172.45 569.19
  A 0.43 0.43 0.0 0 0 172.88 568.76
  L 172.88 516.88
  Z
  M 114.10 610.21
  Q 114.11 615.62 114.74 617.76
  C 121.57 640.83 148.59 648.97 166.54 632.39
  A 0.38 0.37 -44.5 0 0 166.55 631.85
  L 158.92 624.22
  A 0.71 0.70 46.3 0 0 157.94 624.19
  C 145.69 635.24 125.72 627.10 125.72 610.20
  C 125.71 593.30 145.67 585.14 157.93 596.17
  A 0.71 0.70 -46.3 0 0 158.91 596.15
  L 166.53 588.51
  A 0.38 0.37 44.4 0 0 166.52 587.97
  C 148.55 571.41 121.54 579.57 114.73 602.65
  Q 114.10 604.79 114.10 610.21
  Z
  M 172.85 604.81
  A 0.40 0.40 0.0 0 0 172.45 604.41
  L 147.57 604.41
  A 0.40 0.40 0.0 0 0 147.17 604.81
  L 147.17 615.83
  A 0.40 0.40 0.0 0 0 147.57 616.23
  L 172.45 616.23
  A 0.40 0.40 0.0 0 0 172.85 615.83
  L 172.85 604.81
  Z
  M 139.79 676.80
  Q 128.12 686.08 114.63 696.99
  A 1.31 1.30 70.9 0 0 114.14 698.01
  L 114.14 708.52
  A 0.42 0.42 0.0 0 0 114.56 708.94
  L 172.52 708.94
  A 0.39 0.38 0.0 0 0 172.91 708.56
  L 172.91 697.94
  A 0.49 0.49 0.0 0 0 172.42 697.45
  L 133.67 697.45
  A 0.36 0.36 0.0 0 1 133.45 696.81
  Q 146.64 686.31 147.27 685.81
  Q 158.93 676.52 172.42 665.61
  A 1.31 1.30 70.9 0 0 172.91 664.59
  L 172.91 654.08
  A 0.42 0.42 0.0 0 0 172.49 653.66
  L 114.53 653.66
  A 0.39 0.38 0.0 0 0 114.14 654.04
  L 114.14 664.66
  A 0.49 0.49 0.0 0 0 114.63 665.15
  L 153.38 665.15
  A 0.36 0.36 0.0 0 1 153.60 665.79
  Q 140.41 676.29 139.79 676.80
  Z"
/>
<path fill="#1264c0" d="
  M 272.10 193.37
  Q 279.10 198.50 281.00 207.22
  L 281.00 576.95
  Q 278.86 609.99 270.86 642.04
  Q 263.89 669.98 251.77 697.02
  Q 243.30 715.91 230.89 732.60
  C 224.70 740.92 215.13 750.85 205.36 754.84
  Q 199.95 757.05 199.02 757.04
  Q 192.43 756.94 185.90 757.03
  L 165.04 756.97
  L 165.12 750.15
  Q 170.45 747.83 174.68 744.44
  Q 186.56 734.93 195.16 723.11
  C 212.97 698.61 224.66 669.21 232.46 640.20
  C 243.72 598.33 248.81 554.78 248.96 511.25
  Q 249.01 496.37 248.99 297.78
  Q 248.99 296.72 248.38 295.45
  Q 248.85 293.13 249.23 292.24
  C 260.34 265.83 268.41 237.81 271.34 209.25
  Q 271.75 205.30 272.10 193.37
  Z"
/>
<circle fill="#04367e" cx="140.50" cy="245.50" r="9.48"/>
<circle fill="#04367e" cx="140.50" cy="296.50" r="9.48"/>
<path fill="#0c52a0" d="
  M 32.53 293.95
  C 42.64 318.36 55.59 341.86 71.81 362.89
  C 84.56 379.42 98.17 394.42 118.69 401.18
  A 0.47 0.45 -81.5 0 1 119.00 401.62
  L 119.00 436.50
  A 0.49 0.48 -88.3 0 1 118.49 436.99
  C 110.67 436.59 103.45 439.36 102.33 448.07
  Q 101.50 454.60 102.22 460.60
  Q 103.50 471.30 113.88 472.46
  A 0.23 0.23 0.0 0 1 114.01 472.85
  Q 107.00 479.62 106.25 480.44
  Q 102.27 484.76 102.00 491.51
  Q 101.65 500.41 102.75 510.00
  Q 102.98 512.10 102.28 515.67
  A 10.76 10.49 51.8 0 0 102.09 517.45
  Q 101.85 536.24 101.96 562.45
  Q 101.99 571.33 103.47 574.22
  Q 106.21 579.61 112.72 581.07
  A 0.26 0.25 27.3 0 1 112.86 581.49
  Q 102.65 592.60 102.00 608.01
  Q 101.18 627.71 115.08 641.17
  A 0.24 0.24 0.0 0 1 114.93 641.58
  Q 103.90 642.21 102.18 653.33
  Q 101.59 657.08 102.23 665.28
  C 102.91 673.94 110.08 678.10 118.34 677.40
  A 0.41 0.41 0.0 0 1 118.65 678.12
  Q 114.55 681.65 107.95 686.72
  Q 102.71 690.74 102.21 697.21
  C 101.58 705.32 100.78 716.30 109.54 719.68
  Q 113.76 721.30 118.50 720.99
  A 0.44 0.44 0.0 0 1 118.97 721.43
  L 118.93 751.98
  C 94.83 740.55 78.25 715.07 66.83 690.66
  Q 56.37 668.33 49.28 642.71
  C 36.92 598.05 31.91 551.54 31.87 505.24
  Q 31.79 404.16 32.01 299.94
  Q 32.02 296.93 32.53 293.95
  Z"
/>
<path fill="#0c52a0" d="
  M 248.38 295.45
  Q 248.99 296.72 248.99 297.78
  Q 249.01 496.37 248.96 511.25
  C 248.81 554.78 243.72 598.33 232.46 640.20
  C 224.66 669.21 212.97 698.61 195.16 723.11
  Q 186.56 734.93 174.68 744.44
  Q 170.45 747.83 165.12 750.15
  L 165.03 721.45
  A 0.56 0.55 3.2 0 1 165.65 720.90
  C 171.86 721.59 180.54 720.77 183.50 714.07
  C 185.52 709.51 185.23 703.16 184.80 697.44
  Q 184.44 692.49 180.77 688.74
  Q 178.70 686.63 174.72 685.82
  Q 171.07 685.07 167.87 685.21
  A 0.16 0.15 -65.3 0 1 167.77 684.93
  Q 177.03 677.44 177.46 677.13
  C 182.68 673.24 184.45 670.17 184.94 664.24
  Q 185.39 658.86 184.76 653.47
  Q 183.64 643.83 174.46 641.75
  A 0.20 0.20 0.0 0 1 174.38 641.39
  C 177.33 639.30 177.76 636.14 178.57 632.61
  A 2.49 2.45 44.5 0 0 178.55 631.45
  L 177.67 627.93
  A 0.92 0.91 67.3 0 1 178.08 626.92
  Q 184.56 622.96 184.90 615.05
  C 185.25 606.85 185.87 598.00 177.97 593.79
  A 0.77 0.77 0.0 0 1 177.59 592.93
  L 178.59 588.91
  A 1.36 1.21 -46.3 0 0 178.61 588.36
  Q 177.67 583.23 176.38 581.06
  A 0.47 0.47 0.0 0 1 176.62 580.38
  C 182.44 578.15 184.85 573.20 184.95 567.25
  Q 185.01 563.61 185.02 521.98
  Q 185.02 514.14 183.54 511.40
  Q 180.85 506.41 175.37 504.71
  A 0.13 0.13 0.0 0 1 175.31 504.49
  Q 179.36 500.44 182.05 495.31
  C 183.64 492.28 183.76 489.28 184.65 486.13
  Q 184.98 485.00 184.99 482.32
  Q 185.02 476.27 185.00 451.75
  C 184.98 439.58 176.90 436.03 165.89 437.08
  A 0.81 0.80 -2.9 0 1 165.00 436.28
  L 165.00 401.10
  A 0.71 0.70 -11.3 0 1 165.44 400.45
  Q 186.39 392.11 200.75 374.01
  Q 213.67 357.71 222.57 343.84
  Q 236.26 322.54 247.59 296.13
  A 0.98 0.91 87.8 0 1 247.95 295.71
  L 248.38 295.45
  Z"
/>
<circle fill="#04367e" cx="140.50" cy="347.50" r="9.48"/>
<path fill="#1272b0" d="
  M 114.69 506.00
  A 0.33 0.33 0.0 0 1 114.13 505.77
  L 114.13 490.65
  A 1.96 1.93 -23.1 0 1 114.69 489.29
  L 132.74 471.24
  A 1.45 1.43 67.8 0 0 133.16 470.22
  L 133.16 460.99
  A 0.42 0.42 0.0 0 0 132.74 460.57
  L 114.69 460.57
  A 0.58 0.57 -0.0 0 1 114.11 460.00
  L 114.11 449.66
  A 0.55 0.54 0.0 0 1 114.66 449.12
  L 172.46 449.12
  A 0.44 0.44 0.0 0 1 172.90 449.56
  Q 172.83 467.60 172.90 479.46
  Q 172.94 485.28 171.97 487.95
  C 168.88 496.44 160.68 502.13 151.59 501.69
  Q 138.63 501.06 133.01 488.45
  A 0.40 0.40 0.0 0 0 132.36 488.33
  L 114.69 506.00
  Z
  M 160.86 460.58
  L 143.96 460.56
  A 0.43 0.43 0.0 0 0 143.52 460.98
  L 143.49 481.02
  A 8.87 8.72 -89.9 0 0 152.19 489.91
  L 152.51 489.91
  A 8.87 8.72 -89.9 0 0 161.25 481.06
  L 161.28 461.02
  A 0.43 0.43 0.0 0 0 160.86 460.58
  Z"
/>
<path fill="#04367e" d="
  M 160.86 460.58
  A 0.43 0.43 0.0 0 1 161.28 461.02
  L 161.25 481.06
  A 8.87 8.72 -89.9 0 1 152.51 489.91
  L 152.19 489.91
  A 8.87 8.72 -89.9 0 1 143.49 481.02
  L 143.52 460.98
  A 0.43 0.43 0.0 0 1 143.96 460.56
  L 160.86 460.58
  Z"
/>
<path fill="#1272b0" d="
  M 125.26 569.20
  L 114.63 569.20
  A 0.50 0.50 0.0 0 1 114.13 568.70
  L 114.13 516.95
  A 0.50 0.50 0.0 0 1 114.63 516.45
  L 148.91 516.45
  A 0.50 0.50 0.0 0 1 149.41 516.95
  L 149.41 556.84
  A 0.50 0.50 0.0 0 1 148.91 557.34
  L 138.10 557.34
  A 0.50 0.50 0.0 0 1 137.60 556.84
  L 137.60 528.54
  A 0.50 0.50 0.0 0 0 137.10 528.04
  L 126.26 528.04
  A 0.50 0.50 0.0 0 0 125.76 528.54
  L 125.76 568.70
  A 0.50 0.50 0.0 0 1 125.26 569.20
  Z"
/>
<rect fill="#1272b0" x="161.26" y="516.45" width="11.62" height="52.74" rx="0.43"/>
<path fill="#3eb0f6" d="
  M 125.72 610.20
  C 125.72 627.10 145.69 635.24 157.94 624.19
  A 0.71 0.70 46.3 0 1 158.92 624.22
  L 166.55 631.85
  A 0.38 0.37 -44.5 0 1 166.54 632.39
  C 148.59 648.97 121.57 640.83 114.74 617.76
  Q 114.11 615.62 114.10 610.21
  Q 114.10 604.79 114.73 602.65
  C 121.54 579.57 148.55 571.41 166.52 587.97
  A 0.38 0.37 44.4 0 1 166.53 588.51
  L 158.91 596.15
  A 0.71 0.70 -46.3 0 1 157.93 596.17
  C 145.67 585.14 125.71 593.30 125.72 610.20
  Z"
/>
<rect fill="#3eb0f6" x="147.17" y="604.41" width="25.68" height="11.82" rx="0.40"/>
<path fill="#1272b0" d="
  M 139.79 676.80
  Q 140.41 676.29 153.60 665.79
  A 0.36 0.36 0.0 0 0 153.38 665.15
  L 114.63 665.15
  A 0.49 0.49 0.0 0 1 114.14 664.66
  L 114.14 654.04
  A 0.39 0.38 0.0 0 1 114.53 653.66
  L 172.49 653.66
  A 0.42 0.42 0.0 0 1 172.91 654.08
  L 172.91 664.59
  A 1.31 1.30 70.9 0 1 172.42 665.61
  Q 158.93 676.52 147.27 685.81
  Q 146.64 686.31 133.45 696.81
  A 0.36 0.36 0.0 0 0 133.67 697.45
  L 172.42 697.45
  A 0.49 0.49 0.0 0 1 172.91 697.94
  L 172.91 708.56
  A 0.39 0.38 0.0 0 1 172.52 708.94
  L 114.56 708.94
  A 0.42 0.42 0.0 0 1 114.14 708.52
  L 114.14 698.01
  A 1.31 1.30 70.9 0 1 114.63 696.99
  Q 128.12 686.08 139.79 676.80
  Z"
/>
<path fill="#445052" d="
  M 177.18 770.16
  Q 176.76 772.28 177.95 773.68
  L 165.45 774.07
  L 124.03 774.07
  L 109.57 773.75
  Q 110.43 772.00 110.20 770.18
  L 177.18 770.16
  Z"
/>
<path fill="#788c92" d="
  M 177.95 773.68
  Q 180.11 775.25 180.73 778.04
  Q 181.21 780.20 180.96 784.79
  A 3.92 3.70 57.4 0 1 180.78 785.74
  Q 178.12 793.44 171.55 794.12
  Q 170.12 792.75 167.79 792.90
  Q 163.11 786.33 164.54 778.86
  Q 164.99 776.52 165.45 774.07
  L 177.95 773.68
  Z"
/>
<path fill="#57666a" d="
  M 109.57 773.75
  L 124.03 774.07
  Q 118.75 784.94 127.16 792.87
  L 115.82 793.41
  Q 113.39 793.13 111.07 791.47
  Q 104.50 786.74 106.34 778.61
  Q 106.82 776.49 109.57 773.75
  Z"
/>
<path fill="#687a7f" d="
  M 165.45 774.07
  Q 164.99 776.52 164.54 778.86
  Q 163.11 786.33 167.79 792.90
  L 127.16 792.87
  Q 118.75 784.94 124.03 774.07
  L 165.45 774.07
  Z"
/>
<path fill="#445052" d="
  M 127.16 792.87
  L 167.79 792.90
  Q 170.12 792.75 171.55 794.12
  Q 170.11 794.54 171.70 796.91
  L 159.88 797.12
  L 127.57 797.08
  L 115.29 796.81
  Q 116.66 795.99 115.82 793.41
  L 127.16 792.87
  Z"
/>
<path fill="#57666a" d="
  M 127.57 797.08
  Q 121.63 808.15 129.59 816.77
  Q 126.78 816.97 124.03 817.00
  Q 122.51 817.01 121.74 818.03
  C 120.91 817.95 119.98 817.81 119.24 817.39
  Q 106.56 810.09 115.29 796.81
  L 127.57 797.08
  Z"
/>
<path fill="#788c92" d="
  M 171.70 796.91
  Q 174.38 799.27 174.90 802.50
  Q 175.35 805.25 174.75 810.01
  A 3.77 3.75 -30.7 0 1 174.51 810.94
  Q 171.65 818.06 165.25 818.12
  Q 164.64 817.32 164.26 817.25
  Q 162.72 816.96 161.72 816.84
  Q 155.60 808.01 159.88 797.12
  L 171.70 796.91
  Z"
/>
<path fill="#687a7f" d="
  M 159.88 797.12
  Q 155.60 808.01 161.72 816.84
  L 129.59 816.77
  Q 121.63 808.15 127.57 797.08
  L 159.88 797.12
  Z"
/>
<path fill="#445052" d="
  M 129.59 816.77
  L 161.72 816.84
  Q 162.72 816.96 164.26 817.25
  Q 164.64 817.32 165.25 818.12
  Q 164.46 819.22 165.64 821.17
  L 152.98 821.14
  L 129.51 821.20
  L 121.91 820.90
  Q 122.42 819.27 121.74 818.03
  Q 122.51 817.01 124.03 817.00
  Q 126.78 816.97 129.59 816.77
  Z"
/>
<path fill="#57666a" d="
  M 129.51 821.20
  Q 129.32 822.73 128.46 826.19
  Q 126.25 834.99 132.96 842.00
  L 126.08 842.00
  C 117.87 838.18 116.94 827.60 121.91 820.90
  L 129.51 821.20
  Z"
/>
<path fill="#687a7f" d="
  M 152.98 821.14
  Q 149.30 829.86 152.71 837.27
  C 153.47 838.93 155.08 840.38 156.19 842.00
  L 132.96 842.00
  Q 126.25 834.99 128.46 826.19
  Q 129.32 822.73 129.51 821.20
  L 152.98 821.14
  Z"
/>
<path fill="#788c92" d="
  M 165.64 821.17
  Q 167.94 824.25 167.96 826.25
  C 167.98 829.42 168.36 833.01 167.30 835.82
  Q 165.88 839.57 162.49 842.00
  L 156.19 842.00
  C 155.08 840.38 153.47 838.93 152.71 837.27
  Q 149.30 829.86 152.98 821.14
  L 165.64 821.17
  Z"
/>
</svg>
