<?xml version="1.0" encoding="UTF-8" standalone="no"?>
<!DOCTYPE svg PUBLIC "-//W3C//DTD SVG 1.1//EN" "http://www.w3.org/Graphics/SVG/1.1/DTD/svg11.dtd">
<svg xmlns="http://www.w3.org/2000/svg" version="1.1" viewBox="0.00 0.00 281.00 842.00">
<g stroke-width="2.00" fill="none" stroke-linecap="butt">
<path stroke="#607075" vector-effect="non-scaling-stroke" d="
  M 133.07 0.00
  C 127.18 5.74 126.92 13.62 130.04 20.84"
/>
<path stroke="#525a5c" vector-effect="non-scaling-stroke" d="
  M 130.04 20.84
  L 121.91 20.82"
/>
<path stroke="#708389" vector-effect="non-scaling-stroke" d="
  M 156.50 0.00
  Q 150.56 7.70 152.74 16.39
  Q 153.28 18.56 153.76 20.90"
/>
<path stroke="#5b6466" vector-effect="non-scaling-stroke" d="
  M 153.76 20.90
  L 130.04 20.84"
/>
<path stroke="#636d70" vector-effect="non-scaling-stroke" d="
  M 165.42 20.95
  L 153.76 20.90"
/>
<path stroke="#636d70" vector-effect="non-scaling-stroke" d="
  M 165.14 24.15
  Q 164.28 25.29 161.86 25.11"
/>
<path stroke="#5b6466" vector-effect="non-scaling-stroke" d="
  M 161.86 25.11
  L 129.50 25.03"
/>
<path stroke="#525a5c" vector-effect="non-scaling-stroke" d="
  M 129.50 25.03
  Q 125.13 25.45 121.87 24.31"
/>
<path stroke="#636d70" vector-effect="non-scaling-stroke" d="
  M 171.47 45.20
  L 160.85 44.86"
/>
<path stroke="#708389" vector-effect="non-scaling-stroke" d="
  M 160.85 44.86
  Q 158.08 38.73 159.20 32.59
  C 159.64 30.16 160.97 27.67 161.86 25.11"
/>
<path stroke="#607075" vector-effect="non-scaling-stroke" d="
  M 129.50 25.03
  Q 121.66 34.26 127.60 44.84"
/>
<path stroke="#525a5c" vector-effect="non-scaling-stroke" d="
  M 127.60 44.84
  L 115.96 45.03"
/>
<path stroke="#5b6466" vector-effect="non-scaling-stroke" d="
  M 160.85 44.86
  L 127.60 44.84"
/>
<path stroke="#636d70" vector-effect="non-scaling-stroke" d="
  M 171.13 48.01
  Q 170.99 48.72 170.17 48.86
  Q 169.01 49.05 168.03 49.08"
/>
<path stroke="#5b6466" vector-effect="non-scaling-stroke" d="
  M 168.03 49.08
  L 127.36 49.07"
/>
<path stroke="#525a5c" vector-effect="non-scaling-stroke" d="
  M 127.36 49.07
  L 116.04 48.63"
/>
<path stroke="#636d70" vector-effect="non-scaling-stroke" d="
  M 177.79 68.42
  L 166.33 68.00"
/>
<path stroke="#708389" vector-effect="non-scaling-stroke" d="
  M 166.33 68.00
  Q 163.54 61.71 165.23 55.39
  C 165.79 53.29 167.08 51.25 168.03 49.08"
/>
<path stroke="#607075" vector-effect="non-scaling-stroke" d="
  M 127.36 49.07
  Q 118.60 57.32 124.35 67.98"
/>
<path stroke="#525a5c" vector-effect="non-scaling-stroke" d="
  M 124.35 67.98
  L 109.97 68.21"
/>
<path stroke="#5b6466" vector-effect="non-scaling-stroke" d="
  M 166.33 68.00
  L 124.35 67.98"
/>
<path stroke="#3e3e3e" vector-effect="non-scaling-stroke" d="
  M 177.20 71.88
  L 110.05 71.91"
/>
<path stroke="#353535" vector-effect="non-scaling-stroke" d="
  M 185.67 88.05
  Q 143.55 78.69 101.08 86.85"
/>
<path stroke="#313131" vector-effect="non-scaling-stroke" d="
  M 271.85 191.91
  Q 270.68 194.17 270.43 196.93
  Q 270.10 200.41 270.10 200.44
  C 263.97 240.68 248.87 280.17 228.55 315.26
  C 220.26 329.58 210.66 342.78 200.60 355.12
  C 189.34 368.94 173.93 380.11 156.18 384.10
  C 126.62 390.75 99.30 377.92 80.69 355.07
  Q 67.29 338.60 59.18 325.89
  Q 32.37 283.87 18.25 234.75
  Q 12.78 215.75 9.50 192.71"
/>
<path stroke="#313131" vector-effect="non-scaling-stroke" d="
  M 149.92 245.50
  A 9.43 9.43 0.0 0 0 140.49 236.07
  A 9.43 9.43 0.0 0 0 131.06 245.50
  A 9.43 9.43 0.0 0 0 140.49 254.93
  A 9.43 9.43 0.0 0 0 149.92 245.50"
/>
<path stroke="#313131" vector-effect="non-scaling-stroke" d="
  M 149.93 296.50
  A 9.43 9.43 0.0 0 0 140.50 287.07
  A 9.43 9.43 0.0 0 0 131.07 296.50
  A 9.43 9.43 0.0 0 0 140.50 305.93
  A 9.43 9.43 0.0 0 0 149.93 296.50"
/>
<path stroke="#313131" vector-effect="non-scaling-stroke" d="
  M 149.92 347.50
  A 9.43 9.43 0.0 0 0 140.49 338.07
  A 9.43 9.43 0.0 0 0 131.06 347.50
  A 9.43 9.43 0.0 0 0 140.49 356.93
  A 9.43 9.43 0.0 0 0 149.92 347.50"
/>
<path stroke="#3a3a3a" vector-effect="non-scaling-stroke" d="
  M 272.08 193.54
  Q 271.76 214.07 267.58 233.84
  Q 261.19 264.02 249.32 292.50
  Q 248.92 293.44 248.64 294.48"
/>
<path stroke="#313131" vector-effect="non-scaling-stroke" d="
  M 248.64 294.48
  C 248.35 295.56 247.48 296.23 247.10 297.13
  Q 234.82 325.70 220.05 347.59
  Q 207.31 366.46 197.84 377.36
  Q 184.37 392.88 165.59 400.36
  A 0.93 0.92 79.3 0 0 165.01 401.22
  L 165.01 436.20
  A 0.85 0.85 0.0 0 0 165.92 437.05
  C 175.43 436.47 184.42 438.52 184.87 450.09
  Q 185.06 454.65 185.05 475.01
  Q 185.05 486.15 183.66 490.90
  Q 181.44 498.47 175.37 504.35
  A 0.34 0.34 0.0 0 0 175.52 504.92
  C 182.11 506.71 184.98 512.53 184.99 519.00
  Q 185.06 560.75 184.97 567.00
  C 184.88 573.07 182.47 578.08 176.52 580.42
  A 0.42 0.42 0.0 0 0 176.31 581.02
  Q 177.77 583.49 178.59 588.45
  A 1.30 1.13 -46.7 0 1 178.57 588.94
  L 177.57 593.04
  A 0.80 0.79 18.7 0 0 178.03 593.96
  C 186.02 597.44 185.27 608.57 184.81 615.62
  Q 184.33 623.05 178.07 626.89
  A 0.94 0.94 0.0 0 0 177.65 627.92
  L 178.41 630.94
  A 2.86 2.62 -53.7 0 1 178.49 631.68
  Q 178.30 637.85 174.58 641.26
  A 0.32 0.32 0.0 0 0 174.72 641.80
  C 182.10 643.58 184.64 649.01 185.01 655.99
  C 185.33 662.10 185.30 670.25 181.03 674.07
  Q 178.07 676.72 167.69 684.93
  A 0.17 0.17 0.0 0 0 167.81 685.23
  Q 170.86 685.03 174.30 685.74
  Q 178.03 686.51 180.20 688.30
  Q 183.81 691.30 184.58 696.38
  Q 185.90 704.99 183.91 713.13
  A 4.07 3.94 66.7 0 1 183.55 714.08
  Q 182.04 716.96 178.80 719.17
  A 3.69 3.67 18.6 0 1 177.99 719.57
  Q 172.40 721.49 165.82 720.91
  A 0.74 0.73 2.5 0 0 165.02 721.64
  L 165.13 750.35"
/>
<path stroke="#3a3a3a" vector-effect="non-scaling-stroke" d="
  M 165.13 750.35
  L 165.17 756.89"
/>
<path stroke="#2b2b2b" vector-effect="non-scaling-stroke" d="
  M 165.17 756.89
  L 119.74 756.92
  A 0.56 0.56 0.0 0 1 119.18 756.39
  L 118.90 752.11"
/>
<path stroke="#313131" vector-effect="non-scaling-stroke" d="
  M 118.90 752.11
  L 118.93 721.44
  A 0.44 0.43 88.8 0 0 118.48 721.00
  C 110.20 721.29 103.32 718.51 102.26 709.29
  Q 101.73 704.68 102.12 698.29
  C 102.47 692.43 104.37 689.54 109.25 685.75
  Q 116.04 680.47 118.55 678.25
  A 0.50 0.50 0.0 0 0 118.18 677.38
  Q 114.78 677.64 110.59 676.42
  C 104.91 674.76 101.85 668.59 102.02 663.01
  C 102.11 660.12 101.58 654.51 102.79 650.62
  Q 105.45 642.11 114.89 641.64
  A 0.27 0.27 0.0 0 0 115.06 641.18
  Q 104.52 630.76 102.53 617.27
  Q 99.50 596.74 112.77 581.48
  A 0.36 0.36 0.0 0 0 112.56 580.89
  C 105.52 579.76 102.11 573.78 102.03 567.00
  Q 101.87 551.98 102.02 519.25
  Q 102.04 516.27 103.04 511.97
  Q 103.29 510.89 102.36 506.86
  A 11.40 11.37 38.1 0 1 102.07 504.49
  Q 101.86 493.23 102.15 489.65
  C 102.51 485.17 104.48 481.81 108.52 478.32
  Q 110.20 476.87 113.78 473.14
  A 0.38 0.38 0.0 0 0 113.65 472.52
  C 112.26 471.93 110.61 472.02 109.27 471.34
  Q 103.60 468.46 102.49 462.02
  Q 101.34 455.32 102.44 447.75
  C 103.69 439.07 110.68 436.91 118.40 437.00
  A 0.61 0.61 0.0 0 0 119.01 436.39
  L 119.01 401.99
  A 0.92 0.91 -80.7 0 0 118.39 401.12
  C 102.56 395.54 90.06 385.19 79.16 372.09
  C 59.26 348.19 44.28 321.83 32.23 293.43"
/>
<path stroke="#2b2b2b" vector-effect="non-scaling-stroke" d="
  M 32.23 293.43
  C 20.63 266.74 12.49 238.25 9.49 209.25
  C 9.03 204.76 9.08 198.83 8.45 193.56"
/>
<path stroke="#3a3a3a" vector-effect="non-scaling-stroke" d="
  M 114.71 505.95
  L 132.26 488.40
  A 0.50 0.50 0.0 0 1 133.08 488.55
  Q 138.03 499.62 148.84 501.40
  C 160.39 503.29 170.53 495.98 172.81 484.63
  A 4.79 4.33 -42.1 0 0 172.90 483.73
  L 172.90 449.69
  A 0.59 0.59 0.0 0 0 172.31 449.10
  L 114.96 449.10
  A 0.87 0.87 0.0 0 0 114.09 449.97
  L 114.09 459.94
  A 0.64 0.64 0.0 0 0 114.73 460.58
  L 132.69 460.58
  A 0.42 0.42 0.0 0 1 133.11 461.00
  L 133.11 470.32
  A 1.48 1.47 -22.9 0 1 132.69 471.35
  L 114.72 489.31
  A 2.12 2.12 0.0 0 0 114.11 490.80
  L 114.11 505.70
  A 0.35 0.35 0.0 0 0 114.71 505.95"
/>
<path stroke="#3a3a3a" vector-effect="non-scaling-stroke" d="
  M 114.69 516.52
  A 0.58 0.58 0.0 0 0 114.11 517.10
  L 114.11 568.59
  A 0.58 0.58 0.0 0 0 114.69 569.17
  L 125.20 569.17
  A 0.58 0.58 0.0 0 0 125.78 568.59
  L 125.78 528.61
  A 0.58 0.58 0.0 0 1 126.36 528.03
  L 137.05 528.03
  A 0.58 0.58 0.0 0 1 137.63 528.61
  L 137.63 556.78
  A 0.58 0.58 0.0 0 0 138.21 557.36
  L 148.77 557.36
  A 0.58 0.58 0.0 0 0 149.35 556.78
  L 149.35 517.10
  A 0.58 0.58 0.0 0 0 148.77 516.52
  L 114.69 516.52"
/>
<path stroke="#3a3a3a" vector-effect="non-scaling-stroke" d="
  M 172.91 517.06
  A 0.55 0.55 0.0 0 0 172.36 516.51
  L 161.78 516.51
  A 0.55 0.55 0.0 0 0 161.23 517.06
  L 161.23 568.62
  A 0.55 0.55 0.0 0 0 161.78 569.17
  L 172.36 569.17
  A 0.55 0.55 0.0 0 0 172.91 568.62
  L 172.91 517.06"
/>
<path stroke="#575757" vector-effect="non-scaling-stroke" d="
  M 114.13 610.19
  Q 114.13 614.82 114.35 615.80
  C 119.85 640.09 147.87 649.49 166.46 632.41
  A 0.39 0.39 0.0 0 0 166.47 631.84
  L 158.89 624.26
  A 0.69 0.68 -43.3 0 0 157.94 624.24
  C 145.53 635.47 125.71 626.90 125.71 610.19
  C 125.71 593.49 145.53 584.91 157.94 596.15
  A 0.69 0.68 43.2 0 0 158.89 596.12
  L 166.47 588.54
  A 0.39 0.39 0.0 0 0 166.46 587.97
  C 147.87 570.89 119.85 580.29 114.35 604.58
  Q 114.13 605.56 114.13 610.19"
/>
<path stroke="#575757" vector-effect="non-scaling-stroke" d="
  M 172.83 604.87
  A 0.44 0.44 0.0 0 0 172.39 604.43
  L 147.65 604.43
  A 0.44 0.44 0.0 0 0 147.21 604.87
  L 147.21 615.75
  A 0.44 0.44 0.0 0 0 147.65 616.19
  L 172.39 616.19
  A 0.44 0.44 0.0 0 0 172.83 615.75
  L 172.83 604.87"
/>
<path stroke="#3a3a3a" vector-effect="non-scaling-stroke" d="
  M 139.79 676.80
  Q 129.57 685.15 114.77 696.84
  A 1.72 1.71 -19.2 0 0 114.11 698.19
  L 114.11 708.45
  A 0.50 0.50 0.0 0 0 114.61 708.95
  L 172.33 708.95
  A 0.59 0.59 0.0 0 0 172.92 708.36
  L 172.92 697.98
  A 0.49 0.49 0.0 0 0 172.43 697.49
  L 133.65 697.49
  A 0.38 0.38 0.0 0 1 133.42 696.81
  Q 139.40 692.24 147.26 685.82
  Q 157.47 677.47 172.27 665.78
  A 1.72 1.71 -19.2 0 0 172.93 664.43
  L 172.93 654.17
  A 0.50 0.50 0.0 0 0 172.43 653.67
  L 114.71 653.67
  A 0.59 0.59 0.0 0 0 114.12 654.26
  L 114.12 664.64
  A 0.49 0.49 0.0 0 0 114.61 665.13
  L 153.39 665.13
  A 0.38 0.38 0.0 0 1 153.63 665.82
  Q 147.64 670.38 139.79 676.80"
/>
<path stroke="#353535" vector-effect="non-scaling-stroke" d="
  M 32.23 293.43
  Q 31.91 296.92 31.90 300.35
  Q 31.72 473.96 31.97 513.32
  Q 32.34 571.93 44.81 625.70
  C 52.13 657.25 62.96 687.90 80.17 715.03
  C 89.77 730.16 102.71 744.17 118.90 752.11"
/>
<path stroke="#3e3e3e" vector-effect="non-scaling-stroke" d="
  M 165.17 756.89
  L 185.90 756.95"
/>
<path stroke="#3e3e3e" vector-effect="non-scaling-stroke" d="
  M 177.07 770.14
  L 110.05 770.18"
/>
<path stroke="#444444" vector-effect="non-scaling-stroke" d="
  M 165.13 750.35
  Q 172.08 746.83 177.58 742.07
  Q 190.54 730.83 199.88 716.38
  C 212.38 697.04 221.59 675.94 228.52 653.53
  C 242.57 608.10 248.89 558.84 248.97 511.25
  Q 249.06 463.42 249.00 298.52
  C 249.00 297.20 248.73 295.82 248.64 294.48"
/>
<path stroke="#3a3a3a" vector-effect="non-scaling-stroke" d="
  M 160.75 460.58
  L 143.95 460.58
  A 0.49 0.49 0.0 0 0 143.46 461.07
  L 143.46 480.92
  A 9.02 8.75 90.0 0 0 152.21 489.94
  L 152.49 489.94
  A 9.02 8.75 90.0 0 0 161.24 480.92
  L 161.24 461.07
  A 0.49 0.49 0.0 0 0 160.75 460.58"
/>
<path stroke="#636d70" vector-effect="non-scaling-stroke" d="
  M 177.18 772.84
  Q 177.20 773.59 177.19 773.60
  A 0.84 0.70 13.9 0 1 176.56 773.91
  L 166.01 774.02"
/>
<path stroke="#5b6466" vector-effect="non-scaling-stroke" d="
  M 166.01 774.02
  L 124.05 774.06"
/>
<path stroke="#525a5c" vector-effect="non-scaling-stroke" d="
  M 124.05 774.06
  L 109.93 773.84"
/>
<path stroke="#636d70" vector-effect="non-scaling-stroke" d="
  M 171.11 793.84
  Q 170.21 792.79 167.62 792.91"
/>
<path stroke="#708389" vector-effect="non-scaling-stroke" d="
  M 167.62 792.91
  C 166.62 790.75 165.22 788.82 164.68 786.65
  Q 163.00 779.91 166.01 774.02"
/>
<path stroke="#607075" vector-effect="non-scaling-stroke" d="
  M 124.05 774.06
  Q 118.61 784.85 127.17 792.87"
/>
<path stroke="#525a5c" vector-effect="non-scaling-stroke" d="
  M 127.17 792.87
  L 115.93 793.35"
/>
<path stroke="#5b6466" vector-effect="non-scaling-stroke" d="
  M 167.62 792.91
  L 127.17 792.87"
/>
<path stroke="#636d70" vector-effect="non-scaling-stroke" d="
  M 171.50 796.87
  L 159.96 797.12"
/>
<path stroke="#5b6466" vector-effect="non-scaling-stroke" d="
  M 159.96 797.12
  L 127.55 797.10"
/>
<path stroke="#525a5c" vector-effect="non-scaling-stroke" d="
  M 127.55 797.10
  L 115.40 796.84"
/>
<path stroke="#607075" vector-effect="non-scaling-stroke" d="
  M 127.55 797.10
  Q 121.64 808.18 129.64 816.88"
/>
<path stroke="#525a5c" vector-effect="non-scaling-stroke" d="
  M 129.64 816.88
  Q 126.23 816.84 123.13 817.11
  Q 122.23 817.19 121.83 818.38"
/>
<path stroke="#636d70" vector-effect="non-scaling-stroke" d="
  M 165.10 817.90
  Q 164.27 816.82 161.74 816.86"
/>
<path stroke="#708389" vector-effect="non-scaling-stroke" d="
  M 161.74 816.86
  Q 155.49 807.85 159.96 797.12"
/>
<path stroke="#5b6466" vector-effect="non-scaling-stroke" d="
  M 161.74 816.86
  L 129.64 816.88"
/>
<path stroke="#636d70" vector-effect="non-scaling-stroke" d="
  M 165.21 820.92
  L 153.00 821.06"
/>
<path stroke="#5b6466" vector-effect="non-scaling-stroke" d="
  M 153.00 821.06
  L 129.57 821.10"
/>
<path stroke="#525a5c" vector-effect="non-scaling-stroke" d="
  M 129.57 821.10
  L 122.00 820.97"
/>
<path stroke="#607075" vector-effect="non-scaling-stroke" d="
  M 129.57 821.10
  Q 129.39 823.32 128.84 825.42
  Q 126.27 835.26 133.16 842.00"
/>
<path stroke="#708389" vector-effect="non-scaling-stroke" d="
  M 153.00 821.06
  Q 149.37 829.65 152.60 837.06
  C 153.37 838.82 155.03 840.31 156.19 842.00"
/>
</g>
<path fill="#57666a" d="
  M 133.07 0.00
  C 127.18 5.74 126.92 13.62 130.04 20.84
  L 121.91 20.82
  C 117.02 14.09 118.15 3.00 126.87 0.00
  L 133.07 0.00
  Z"
/>
<path fill="#687a7f" d="
  M 156.50 0.00
  Q 150.56 7.70 152.74 16.39
  Q 153.28 18.56 153.76 20.90
  L 130.04 20.84
  C 126.92 13.62 127.18 5.74 133.07 0.00
  L 156.50 0.00
  Z"
/>
<path fill="#788c92" d="
  M 161.93 0.00
  Q 167.00 2.87 167.85 9.28
  Q 168.77 16.26 165.42 20.95
  L 153.76 20.90
  Q 153.28 18.56 152.74 16.39
  Q 150.56 7.70 156.50 0.00
  L 161.93 0.00
  Z"
/>
<path fill="#4d4d4d" d="
  M 130.04 20.84
  L 153.76 20.90
  L 165.42 20.95
  Q 164.69 22.20 165.14 24.15
  Q 164.28 25.29 161.86 25.11
  L 129.50 25.03
  Q 125.13 25.45 121.87 24.31
  Q 122.25 22.58 121.91 20.82
  L 130.04 20.84
  Z"
/>
<path fill="#788c92" d="
  M 171.47 45.20
  L 160.85 44.86
  Q 158.08 38.73 159.20 32.59
  C 159.64 30.16 160.97 27.67 161.86 25.11
  Q 164.28 25.29 165.14 24.15
  Q 167.64 23.56 168.82 24.35
  Q 175.74 29.01 175.00 37.50
  Q 174.56 42.48 171.47 45.20
  Z"
/>
<path fill="#57666a" d="
  M 121.87 24.31
  Q 125.13 25.45 129.50 25.03
  Q 121.66 34.26 127.60 44.84
  L 115.96 45.03
  Q 109.01 37.76 113.94 29.45
  Q 116.59 24.97 121.87 24.31
  Z"
/>
<path fill="#687a7f" d="
  M 161.86 25.11
  C 160.97 27.67 159.64 30.16 159.20 32.59
  Q 158.08 38.73 160.85 44.86
  L 127.60 44.84
  Q 121.66 34.26 129.50 25.03
  L 161.86 25.11
  Z"
/>
<path fill="#4d4d4d" d="
  M 127.60 44.84
  L 160.85 44.86
  L 171.47 45.20
  Q 170.70 46.62 171.13 48.01
  Q 170.99 48.72 170.17 48.86
  Q 169.01 49.05 168.03 49.08
  L 127.36 49.07
  L 116.04 48.63
  L 115.96 45.03
  L 127.60 44.84
  Z"
/>
<path fill="#788c92" d="
  M 177.79 68.42
  L 166.33 68.00
  Q 163.54 61.71 165.23 55.39
  C 165.79 53.29 167.08 51.25 168.03 49.08
  Q 169.01 49.05 170.17 48.86
  Q 170.99 48.72 171.13 48.01
  Q 175.16 47.72 177.82 51.40
  Q 184.42 60.53 177.79 68.42
  Z"
/>
<path fill="#57666a" d="
  M 116.04 48.63
  L 127.36 49.07
  Q 118.60 57.32 124.35 67.98
  L 109.97 68.21
  Q 105.37 64.47 106.07 59.01
  Q 107.13 50.74 116.04 48.63
  Z"
/>
<path fill="#687a7f" d="
  M 168.03 49.08
  C 167.08 51.25 165.79 53.29 165.23 55.39
  Q 163.54 61.71 166.33 68.00
  L 124.35 67.98
  Q 118.60 57.32 127.36 49.07
  L 168.03 49.08
  Z"
/>
<path fill="#4d4d4d" d="
  M 124.35 67.98
  L 166.33 68.00
  L 177.79 68.42
  Q 176.79 69.78 177.20 71.88
  L 110.05 71.91
  L 109.97 68.21
  L 124.35 67.98
  Z"
/>
<path fill="#2f2f2f" d="
  M 177.20 71.88
  C 179.90 72.37 181.97 71.21 183.59 74.41
  Q 186.81 80.77 185.67 88.05
  Q 143.55 78.69 101.08 86.85
  C 100.74 82.71 101.52 73.89 105.83 72.14
  A 1.59 1.54 -55.4 0 1 106.43 72.02
  L 110.05 71.91
  L 177.20 71.88
  Z"
/>
<path fill="#3a3a3a" d="
  M 185.67 88.05
  C 213.36 94.41 240.40 107.62 258.43 130.30
  Q 267.69 141.94 270.42 156.50
  C 272.49 167.55 271.80 180.16 271.85 191.91
  Q 270.68 194.17 270.43 196.93
  Q 270.10 200.41 270.10 200.44
  C 263.97 240.68 248.87 280.17 228.55 315.26
  C 220.26 329.58 210.66 342.78 200.60 355.12
  C 189.34 368.94 173.93 380.11 156.18 384.10
  C 126.62 390.75 99.30 377.92 80.69 355.07
  Q 67.29 338.60 59.18 325.89
  Q 32.37 283.87 18.25 234.75
  Q 12.78 215.75 9.50 192.71
  Q 8.78 184.15 8.98 173.50
  C 9.22 160.33 10.88 148.21 18.09 136.88
  C 36.14 108.53 69.17 93.30 101.08 86.85
  Q 143.55 78.69 185.67 88.05
  Z
  M 149.92 245.50
  A 9.43 9.43 0.0 0 0 140.49 236.07
  A 9.43 9.43 0.0 0 0 131.06 245.50
  A 9.43 9.43 0.0 0 0 140.49 254.93
  A 9.43 9.43 0.0 0 0 149.92 245.50
  Z
  M 149.93 296.50
  A 9.43 9.43 0.0 0 0 140.50 287.07
  A 9.43 9.43 0.0 0 0 131.07 296.50
  A 9.43 9.43 0.0 0 0 140.50 305.93
  A 9.43 9.43 0.0 0 0 149.93 296.50
  Z
  M 149.92 347.50
  A 9.43 9.43 0.0 0 0 140.49 338.07
  A 9.43 9.43 0.0 0 0 131.06 347.50
  A 9.43 9.43 0.0 0 0 140.49 356.93
  A 9.43 9.43 0.0 0 0 149.92 347.50
  Z"
/>
<path fill="#272727" d="
  M 271.85 191.91
  L 272.08 193.54
  Q 271.76 214.07 267.58 233.84
  Q 261.19 264.02 249.32 292.50
  Q 248.92 293.44 248.64 294.48
  C 248.35 295.56 247.48 296.23 247.10 297.13
  Q 234.82 325.70 220.05 347.59
  Q 207.31 366.46 197.84 377.36
  Q 184.37 392.88 165.59 400.36
  A 0.93 0.92 79.3 0 0 165.01 401.22
  L 165.01 436.20
  A 0.85 0.85 0.0 0 0 165.92 437.05
  C 175.43 436.47 184.42 438.52 184.87 450.09
  Q 185.06 454.65 185.05 475.01
  Q 185.05 486.15 183.66 490.90
  Q 181.44 498.47 175.37 504.35
  A 0.34 0.34 0.0 0 0 175.52 504.92
  C 182.11 506.71 184.98 512.53 184.99 519.00
  Q 185.06 560.75 184.97 567.00
  C 184.88 573.07 182.47 578.08 176.52 580.42
  A 0.42 0.42 0.0 0 0 176.31 581.02
  Q 177.77 583.49 178.59 588.45
  A 1.30 1.13 -46.7 0 1 178.57 588.94
  L 177.57 593.04
  A 0.80 0.79 18.7 0 0 178.03 593.96
  C 186.02 597.44 185.27 608.57 184.81 615.62
  Q 184.33 623.05 178.07 626.89
  A 0.94 0.94 0.0 0 0 177.65 627.92
  L 178.41 630.94
  A 2.86 2.62 -53.7 0 1 178.49 631.68
  Q 178.30 637.85 174.58 641.26
  A 0.32 0.32 0.0 0 0 174.72 641.80
  C 182.10 643.58 184.64 649.01 185.01 655.99
  C 185.33 662.10 185.30 670.25 181.03 674.07
  Q 178.07 676.72 167.69 684.93
  A 0.17 0.17 0.0 0 0 167.81 685.23
  Q 170.86 685.03 174.30 685.74
  Q 178.03 686.51 180.20 688.30
  Q 183.81 691.30 184.58 696.38
  Q 185.90 704.99 183.91 713.13
  A 4.07 3.94 66.7 0 1 183.55 714.08
  Q 182.04 716.96 178.80 719.17
  A 3.69 3.67 18.6 0 1 177.99 719.57
  Q 172.40 721.49 165.82 720.91
  A 0.74 0.73 2.5 0 0 165.02 721.64
  L 165.13 750.35
  L 165.17 756.89
  L 119.74 756.92
  A 0.56 0.56 0.0 0 1 119.18 756.39
  L 118.90 752.11
  L 118.93 721.44
  A 0.44 0.43 88.8 0 0 118.48 721.00
  C 110.20 721.29 103.32 718.51 102.26 709.29
  Q 101.73 704.68 102.12 698.29
  C 102.47 692.43 104.37 689.54 109.25 685.75
  Q 116.04 680.47 118.55 678.25
  A 0.50 0.50 0.0 0 0 118.18 677.38
  Q 114.78 677.64 110.59 676.42
  C 104.91 674.76 101.85 668.59 102.02 663.01
  C 102.11 660.12 101.58 654.51 102.79 650.62
  Q 105.45 642.11 114.89 641.64
  A 0.27 0.27 0.0 0 0 115.06 641.18
  Q 104.52 630.76 102.53 617.27
  Q 99.50 596.74 112.77 581.48
  A 0.36 0.36 0.0 0 0 112.56 580.89
  C 105.52 579.76 102.11 573.78 102.03 567.00
  Q 101.87 551.98 102.02 519.25
  Q 102.04 516.27 103.04 511.97
  Q 103.29 510.89 102.36 506.86
  A 11.40 11.37 38.1 0 1 102.07 504.49
  Q 101.86 493.23 102.15 489.65
  C 102.51 485.17 104.48 481.81 108.52 478.32
  Q 110.20 476.87 113.78 473.14
  A 0.38 0.38 0.0 0 0 113.65 472.52
  C 112.26 471.93 110.61 472.02 109.27 471.34
  Q 103.60 468.46 102.49 462.02
  Q 101.34 455.32 102.44 447.75
  C 103.69 439.07 110.68 436.91 118.40 437.00
  A 0.61 0.61 0.0 0 0 119.01 436.39
  L 119.01 401.99
  A 0.92 0.91 -80.7 0 0 118.39 401.12
  C 102.56 395.54 90.06 385.19 79.16 372.09
  C 59.26 348.19 44.28 321.83 32.23 293.43
  C 20.63 266.74 12.49 238.25 9.49 209.25
  C 9.03 204.76 9.08 198.83 8.45 193.56
  L 9.50 192.71
  Q 12.78 215.75 18.25 234.75
  Q 32.37 283.87 59.18 325.89
  Q 67.29 338.60 80.69 355.07
  C 99.30 377.92 126.62 390.75 156.18 384.10
  C 173.93 380.11 189.34 368.94 200.60 355.12
  C 210.66 342.78 220.26 329.58 228.55 315.26
  C 248.87 280.17 263.97 240.68 270.10 200.44
  Q 270.10 200.41 270.43 196.93
  Q 270.68 194.17 271.85 191.91
  Z
  M 114.71 505.95
  L 132.26 488.40
  A 0.50 0.50 0.0 0 1 133.08 488.55
  Q 138.03 499.62 148.84 501.40
  C 160.39 503.29 170.53 495.98 172.81 484.63
  A 4.79 4.33 -42.1 0 0 172.90 483.73
  L 172.90 449.69
  A 0.59 0.59 0.0 0 0 172.31 449.10
  L 114.96 449.10
  A 0.87 0.87 0.0 0 0 114.09 449.97
  L 114.09 459.94
  A 0.64 0.64 0.0 0 0 114.73 460.58
  L 132.69 460.58
  A 0.42 0.42 0.0 0 1 133.11 461.00
  L 133.11 470.32
  A 1.48 1.47 -22.9 0 1 132.69 471.35
  L 114.72 489.31
  A 2.12 2.12 0.0 0 0 114.11 490.80
  L 114.11 505.70
  A 0.35 0.35 0.0 0 0 114.71 505.95
  Z
  M 114.69 516.52
  A 0.58 0.58 0.0 0 0 114.11 517.10
  L 114.11 568.59
  A 0.58 0.58 0.0 0 0 114.69 569.17
  L 125.20 569.17
  A 0.58 0.58 0.0 0 0 125.78 568.59
  L 125.78 528.61
  A 0.58 0.58 0.0 0 1 126.36 528.03
  L 137.05 528.03
  A 0.58 0.58 0.0 0 1 137.63 528.61
  L 137.63 556.78
  A 0.58 0.58 0.0 0 0 138.21 557.36
  L 148.77 557.36
  A 0.58 0.58 0.0 0 0 149.35 556.78
  L 149.35 517.10
  A 0.58 0.58 0.0 0 0 148.77 516.52
  L 114.69 516.52
  Z
  M 172.91 517.06
  A 0.55 0.55 0.0 0 0 172.36 516.51
  L 161.78 516.51
  A 0.55 0.55 0.0 0 0 161.23 517.06
  L 161.23 568.62
  A 0.55 0.55 0.0 0 0 161.78 569.17
  L 172.36 569.17
  A 0.55 0.55 0.0 0 0 172.91 568.62
  L 172.91 517.06
  Z
  M 114.13 610.19
  Q 114.13 614.82 114.35 615.80
  C 119.85 640.09 147.87 649.49 166.46 632.41
  A 0.39 0.39 0.0 0 0 166.47 631.84
  L 158.89 624.26
  A 0.69 0.68 -43.3 0 0 157.94 624.24
  C 145.53 635.47 125.71 626.90 125.71 610.19
  C 125.71 593.49 145.53 584.91 157.94 596.15
  A 0.69 0.68 43.2 0 0 158.89 596.12
  L 166.47 588.54
  A 0.39 0.39 0.0 0 0 166.46 587.97
  C 147.87 570.89 119.85 580.29 114.35 604.58
  Q 114.13 605.56 114.13 610.19
  Z
  M 172.83 604.87
  A 0.44 0.44 0.0 0 0 172.39 604.43
  L 147.65 604.43
  A 0.44 0.44 0.0 0 0 147.21 604.87
  L 147.21 615.75
  A 0.44 0.44 0.0 0 0 147.65 616.19
  L 172.39 616.19
  A 0.44 0.44 0.0 0 0 172.83 615.75
  L 172.83 604.87
  Z
  M 139.79 676.80
  Q 129.57 685.15 114.77 696.84
  A 1.72 1.71 -19.2 0 0 114.11 698.19
  L 114.11 708.45
  A 0.50 0.50 0.0 0 0 114.61 708.95
  L 172.33 708.95
  A 0.59 0.59 0.0 0 0 172.92 708.36
  L 172.92 697.98
  A 0.49 0.49 0.0 0 0 172.43 697.49
  L 133.65 697.49
  A 0.38 0.38 0.0 0 1 133.42 696.81
  Q 139.40 692.24 147.26 685.82
  Q 157.47 677.47 172.27 665.78
  A 1.72 1.71 -19.2 0 0 172.93 664.43
  L 172.93 654.17
  A 0.50 0.50 0.0 0 0 172.43 653.67
  L 114.71 653.67
  A 0.59 0.59 0.0 0 0 114.12 654.26
  L 114.12 664.64
  A 0.49 0.49 0.0 0 0 114.61 665.13
  L 153.39 665.13
  A 0.38 0.38 0.0 0 1 153.63 665.82
  Q 147.64 670.38 139.79 676.80
  Z"
/>
<path fill="#2f2f2f" d="
  M 8.45 193.56
  C 9.08 198.83 9.03 204.76 9.49 209.25
  C 12.49 238.25 20.63 266.74 32.23 293.43
  Q 31.91 296.92 31.90 300.35
  Q 31.72 473.96 31.97 513.32
  Q 32.34 571.93 44.81 625.70
  C 52.13 657.25 62.96 687.90 80.17 715.03
  C 89.77 730.16 102.71 744.17 118.90 752.11
  L 119.18 756.39
  A 0.56 0.56 0.0 0 0 119.74 756.92
  L 165.17 756.89
  L 185.90 756.95
  C 186.10 760.60 184.78 770.55 179.75 770.03
  Q 178.28 769.87 177.07 770.14
  L 110.05 770.18
  Q 104.55 770.67 102.96 766.97
  Q 101.12 762.71 100.97 757.52
  A 0.55 0.54 -1.1 0 0 100.42 757.00
  L 82.01 757.00
  A 1.04 0.75 -27.7 0 1 81.73 756.96
  Q 74.09 754.81 67.82 750.15
  C 50.54 737.32 37.86 715.99 29.10 696.39
  Q 17.08 669.54 10.12 641.80
  Q 2.12 609.93 0.00 577.10
  L 0.00 206.76
  Q 1.95 198.53 8.45 193.56
  Z"
/>
<path fill="#4d4d4d" d="
  M 272.08 193.54
  Q 279.65 199.17 281.00 208.73
  L 281.00 572.23
  Q 277.91 636.40 252.31 695.12
  C 243.26 715.87 230.72 737.16 212.74 750.47
  Q 207.09 754.66 199.50 756.76
  A 4.20 3.92 -50.8 0 1 198.41 756.91
  L 185.90 756.95
  L 165.17 756.89
  L 165.13 750.35
  Q 172.08 746.83 177.58 742.07
  Q 190.54 730.83 199.88 716.38
  C 212.38 697.04 221.59 675.94 228.52 653.53
  C 242.57 608.10 248.89 558.84 248.97 511.25
  Q 249.06 463.42 249.00 298.52
  C 249.00 297.20 248.73 295.82 248.64 294.48
  Q 248.92 293.44 249.32 292.50
  Q 261.19 264.02 267.58 233.84
  Q 271.76 214.07 272.08 193.54
  Z"
/>
<circle fill="#272727" cx="140.49" cy="245.50" r="9.43"/>
<circle fill="#272727" cx="140.50" cy="296.50" r="9.43"/>
<path fill="#3a3a3a" d="
  M 32.23 293.43
  C 44.28 321.83 59.26 348.19 79.16 372.09
  C 90.06 385.19 102.56 395.54 118.39 401.12
  A 0.92 0.91 -80.7 0 1 119.01 401.99
  L 119.01 436.39
  A 0.61 0.61 0.0 0 1 118.40 437.00
  C 110.68 436.91 103.69 439.07 102.44 447.75
  Q 101.34 455.32 102.49 462.02
  Q 103.60 468.46 109.27 471.34
  C 110.61 472.02 112.26 471.93 113.65 472.52
  A 0.38 0.38 0.0 0 1 113.78 473.14
  Q 110.20 476.87 108.52 478.32
  C 104.48 481.81 102.51 485.17 102.15 489.65
  Q 101.86 493.23 102.07 504.49
  A 11.40 11.37 38.1 0 0 102.36 506.86
  Q 103.29 510.89 103.04 511.97
  Q 102.04 516.27 102.02 519.25
  Q 101.87 551.98 102.03 567.00
  C 102.11 573.78 105.52 579.76 112.56 580.89
  A 0.36 0.36 0.0 0 1 112.77 581.48
  Q 99.50 596.74 102.53 617.27
  Q 104.52 630.76 115.06 641.18
  A 0.27 0.27 0.0 0 1 114.89 641.64
  Q 105.45 642.11 102.79 650.62
  C 101.58 654.51 102.11 660.12 102.02 663.01
  C 101.85 668.59 104.91 674.76 110.59 676.42
  Q 114.78 677.64 118.18 677.38
  A 0.50 0.50 0.0 0 1 118.55 678.25
  Q 116.04 680.47 109.25 685.75
  C 104.37 689.54 102.47 692.43 102.12 698.29
  Q 101.73 704.68 102.26 709.29
  C 103.32 718.51 110.20 721.29 118.48 721.00
  A 0.44 0.43 88.8 0 1 118.93 721.44
  L 118.90 752.11
  C 102.71 744.17 89.77 730.16 80.17 715.03
  C 62.96 687.90 52.13 657.25 44.81 625.70
  Q 32.34 571.93 31.97 513.32
  Q 31.72 473.96 31.90 300.35
  Q 31.91 296.92 32.23 293.43
  Z"
/>
<path fill="#3a3a3a" d="
  M 248.64 294.48
  C 248.73 295.82 249.00 297.20 249.00 298.52
  Q 249.06 463.42 248.97 511.25
  C 248.89 558.84 242.57 608.10 228.52 653.53
  C 221.59 675.94 212.38 697.04 199.88 716.38
  Q 190.54 730.83 177.58 742.07
  Q 172.08 746.83 165.13 750.35
  L 165.02 721.64
  A 0.74 0.73 2.5 0 1 165.82 720.91
  Q 172.40 721.49 177.99 719.57
  A 3.69 3.67 18.6 0 0 178.80 719.17
  Q 182.04 716.96 183.55 714.08
  A 4.07 3.94 66.7 0 0 183.91 713.13
  Q 185.90 704.99 184.58 696.38
  Q 183.81 691.30 180.20 688.30
  Q 178.03 686.51 174.30 685.74
  Q 170.86 685.03 167.81 685.23
  A 0.17 0.17 0.0 0 1 167.69 684.93
  Q 178.07 676.72 181.03 674.07
  C 185.30 670.25 185.33 662.10 185.01 655.99
  C 184.64 649.01 182.10 643.58 174.72 641.80
  A 0.32 0.32 0.0 0 1 174.58 641.26
  Q 178.30 637.85 178.49 631.68
  A 2.86 2.62 -53.7 0 0 178.41 630.94
  L 177.65 627.92
  A 0.94 0.94 0.0 0 1 178.07 626.89
  Q 184.33 623.05 184.81 615.62
  C 185.27 608.57 186.02 597.44 178.03 593.96
  A 0.80 0.79 18.7 0 1 177.57 593.04
  L 178.57 588.94
  A 1.30 1.13 -46.7 0 0 178.59 588.45
  Q 177.77 583.49 176.31 581.02
  A 0.42 0.42 0.0 0 1 176.52 580.42
  C 182.47 578.08 184.88 573.07 184.97 567.00
  Q 185.06 560.75 184.99 519.00
  C 184.98 512.53 182.11 506.71 175.52 504.92
  A 0.34 0.34 0.0 0 1 175.37 504.35
  Q 181.44 498.47 183.66 490.90
  Q 185.05 486.15 185.05 475.01
  Q 185.06 454.65 184.87 450.09
  C 184.42 438.52 175.43 436.47 165.92 437.05
  A 0.85 0.85 0.0 0 1 165.01 436.20
  L 165.01 401.22
  A 0.93 0.92 79.3 0 1 165.59 400.36
  Q 184.37 392.88 197.84 377.36
  Q 207.31 366.46 220.05 347.59
  Q 234.82 325.70 247.10 297.13
  C 247.48 296.23 248.35 295.56 248.64 294.48
  Z"
/>
<circle fill="#272727" cx="140.49" cy="347.50" r="9.43"/>
<path fill="#4d4d4d" d="
  M 114.71 505.95
  A 0.35 0.35 0.0 0 1 114.11 505.70
  L 114.11 490.80
  A 2.12 2.12 0.0 0 1 114.72 489.31
  L 132.69 471.35
  A 1.48 1.47 -22.9 0 0 133.11 470.32
  L 133.11 461.00
  A 0.42 0.42 0.0 0 0 132.69 460.58
  L 114.73 460.58
  A 0.64 0.64 0.0 0 1 114.09 459.94
  L 114.09 449.97
  A 0.87 0.87 0.0 0 1 114.96 449.10
  L 172.31 449.10
  A 0.59 0.59 0.0 0 1 172.90 449.69
  L 172.90 483.73
  A 4.79 4.33 -42.1 0 1 172.81 484.63
  C 170.53 495.98 160.39 503.29 148.84 501.40
  Q 138.03 499.62 133.08 488.55
  A 0.50 0.50 0.0 0 0 132.26 488.40
  L 114.71 505.95
  Z
  M 160.75 460.58
  L 143.95 460.58
  A 0.49 0.49 0.0 0 0 143.46 461.07
  L 143.46 480.92
  A 9.02 8.75 90.0 0 0 152.21 489.94
  L 152.49 489.94
  A 9.02 8.75 90.0 0 0 161.24 480.92
  L 161.24 461.07
  A 0.49 0.49 0.0 0 0 160.75 460.58
  Z"
/>
<path fill="#272727" d="
  M 160.75 460.58
  A 0.49 0.49 0.0 0 1 161.24 461.07
  L 161.24 480.92
  A 9.02 8.75 -90.0 0 1 152.49 489.94
  L 152.21 489.94
  A 9.02 8.75 -90.0 0 1 143.46 480.92
  L 143.46 461.07
  A 0.49 0.49 0.0 0 1 143.95 460.58
  L 160.75 460.58
  Z"
/>
<path fill="#4d4d4d" d="
  M 114.69 516.52
  L 148.77 516.52
  A 0.58 0.58 0.0 0 1 149.35 517.10
  L 149.35 556.78
  A 0.58 0.58 0.0 0 1 148.77 557.36
  L 138.21 557.36
  A 0.58 0.58 0.0 0 1 137.63 556.78
  L 137.63 528.61
  A 0.58 0.58 0.0 0 0 137.05 528.03
  L 126.36 528.03
  A 0.58 0.58 0.0 0 0 125.78 528.61
  L 125.78 568.59
  A 0.58 0.58 0.0 0 1 125.20 569.17
  L 114.69 569.17
  A 0.58 0.58 0.0 0 1 114.11 568.59
  L 114.11 517.10
  A 0.58 0.58 0.0 0 1 114.69 516.52
  Z"
/>
<rect fill="#4d4d4d" x="161.23" y="516.51" width="11.68" height="52.66" rx="0.55"/>
<path fill="#878787" d="
  M 125.71 610.19
  C 125.71 626.90 145.53 635.47 157.94 624.24
  A 0.69 0.68 -43.3 0 1 158.89 624.26
  L 166.47 631.84
  A 0.39 0.39 0.0 0 1 166.46 632.41
  C 147.87 649.49 119.85 640.09 114.35 615.80
  Q 114.13 614.82 114.13 610.19
  Q 114.13 605.56 114.35 604.58
  C 119.85 580.29 147.87 570.89 166.46 587.97
  A 0.39 0.39 0.0 0 1 166.47 588.54
  L 158.89 596.12
  A 0.69 0.68 43.2 0 1 157.94 596.15
  C 145.53 584.91 125.71 593.49 125.71 610.19
  Z"
/>
<rect fill="#878787" x="147.21" y="604.43" width="25.62" height="11.76" rx="0.44"/>
<path fill="#4d4d4d" d="
  M 139.79 676.80
  Q 147.64 670.38 153.63 665.82
  A 0.38 0.38 0.0 0 0 153.39 665.13
  L 114.61 665.13
  A 0.49 0.49 0.0 0 1 114.12 664.64
  L 114.12 654.26
  A 0.59 0.59 0.0 0 1 114.71 653.67
  L 172.43 653.67
  A 0.50 0.50 0.0 0 1 172.93 654.17
  L 172.93 664.43
  A 1.72 1.71 -19.2 0 1 172.27 665.78
  Q 157.47 677.47 147.26 685.82
  Q 139.40 692.24 133.42 696.81
  A 0.38 0.38 0.0 0 0 133.65 697.49
  L 172.43 697.49
  A 0.49 0.49 0.0 0 1 172.92 697.98
  L 172.92 708.36
  A 0.59 0.59 0.0 0 1 172.33 708.95
  L 114.61 708.95
  A 0.50 0.50 0.0 0 1 114.11 708.45
  L 114.11 698.19
  A 1.72 1.71 -19.2 0 1 114.77 696.84
  Q 129.57 685.15 139.79 676.80
  Z"
/>
<path fill="#4d4d4d" d="
  M 177.07 770.14
  L 177.18 772.84
  Q 177.20 773.59 177.19 773.60
  A 0.84 0.70 13.9 0 1 176.56 773.91
  L 166.01 774.02
  L 124.05 774.06
  L 109.93 773.84
  L 110.05 770.18
  L 177.07 770.14
  Z"
/>
<path fill="#788c92" d="
  M 171.11 793.84
  Q 170.21 792.79 167.62 792.91
  C 166.62 790.75 165.22 788.82 164.68 786.65
  Q 163.00 779.91 166.01 774.02
  L 176.56 773.91
  A 0.84 0.70 13.9 0 0 177.19 773.60
  Q 177.20 773.59 177.18 772.84
  Q 179.97 775.23 180.65 778.27
  Q 182.66 787.26 175.54 792.78
  Q 173.42 794.43 171.11 793.84
  Z"
/>
<path fill="#57666a" d="
  M 109.93 773.84
  L 124.05 774.06
  Q 118.61 784.85 127.17 792.87
  L 115.93 793.35
  Q 114.11 793.11 112.11 791.94
  C 105.50 788.05 103.51 778.87 109.93 773.84
  Z"
/>
<path fill="#687a7f" d="
  M 166.01 774.02
  Q 163.00 779.91 164.68 786.65
  C 165.22 788.82 166.62 790.75 167.62 792.91
  L 127.17 792.87
  Q 118.61 784.85 124.05 774.06
  L 166.01 774.02
  Z"
/>
<path fill="#4d4d4d" d="
  M 127.17 792.87
  L 167.62 792.91
  Q 170.21 792.79 171.11 793.84
  Q 170.63 795.80 171.50 796.87
  L 159.96 797.12
  L 127.55 797.10
  L 115.40 796.84
  Q 116.46 796.39 115.93 793.35
  L 127.17 792.87
  Z"
/>
<path fill="#57666a" d="
  M 127.55 797.10
  Q 121.64 808.18 129.64 816.88
  Q 126.23 816.84 123.13 817.11
  Q 122.23 817.19 121.83 818.38
  Q 105.85 811.59 115.40 796.84
  L 127.55 797.10
  Z"
/>
<path fill="#788c92" d="
  M 171.50 796.87
  Q 173.99 799.06 174.70 802.08
  C 175.26 804.49 175.30 809.07 174.00 811.66
  C 172.28 815.09 169.28 818.69 165.10 817.90
  Q 164.27 816.82 161.74 816.86
  Q 155.49 807.85 159.96 797.12
  L 171.50 796.87
  Z"
/>
<path fill="#687a7f" d="
  M 159.96 797.12
  Q 155.49 807.85 161.74 816.86
  L 129.64 816.88
  Q 121.64 808.18 127.55 797.10
  L 159.96 797.12
  Z"
/>
<path fill="#4d4d4d" d="
  M 129.64 816.88
  L 161.74 816.86
  Q 164.27 816.82 165.10 817.90
  Q 164.73 819.45 165.21 820.92
  L 153.00 821.06
  L 129.57 821.10
  L 122.00 820.97
  Q 122.14 818.90 121.83 818.38
  Q 122.23 817.19 123.13 817.11
  Q 126.23 816.84 129.64 816.88
  Z"
/>
<path fill="#57666a" d="
  M 129.57 821.10
  Q 129.39 823.32 128.84 825.42
  Q 126.27 835.26 133.16 842.00
  L 127.03 842.00
  C 117.81 839.40 117.35 827.67 122.00 820.97
  L 129.57 821.10
  Z"
/>
<path fill="#687a7f" d="
  M 153.00 821.06
  Q 149.37 829.65 152.60 837.06
  C 153.37 838.82 155.03 840.31 156.19 842.00
  L 133.16 842.00
  Q 126.27 835.26 128.84 825.42
  Q 129.39 823.32 129.57 821.10
  L 153.00 821.06
  Z"
/>
<path fill="#788c92" d="
  M 165.21 820.92
  Q 167.50 823.58 167.89 827.04
  C 168.57 832.99 167.42 838.70 162.01 842.00
  L 156.19 842.00
  C 155.03 840.31 153.37 838.82 152.60 837.06
  Q 149.37 829.65 153.00 821.06
  L 165.21 820.92
  Z"
/>
</svg>
