<?xml version="1.0" encoding="UTF-8" standalone="no"?>
<!DOCTYPE svg PUBLIC "-//W3C//DTD SVG 1.1//EN" "http://www.w3.org/Graphics/SVG/1.1/DTD/svg11.dtd">
<svg xmlns="http://www.w3.org/2000/svg" version="1.1" viewBox="0.00 0.00 281.00 842.00">
<g stroke-width="2.00" fill="none" stroke-linecap="butt">
<path stroke="#616f73" vector-effect="non-scaling-stroke" d="
  M 132.80 0.00
  Q 124.91 9.07 130.09 20.83"
/>
<path stroke="#4f5a5d" vector-effect="non-scaling-stroke" d="
  M 130.09 20.83
  L 121.89 20.98"
/>
<path stroke="#718287" vector-effect="non-scaling-stroke" d="
  M 156.82 0.00
  C 155.50 2.04 153.79 3.97 153.08 6.19
  Q 150.82 13.23 154.04 20.89"
/>
<path stroke="#576467" vector-effect="non-scaling-stroke" d="
  M 154.04 20.89
  L 130.09 20.83"
/>
<path stroke="#5f6d71" vector-effect="non-scaling-stroke" d="
  M 165.41 21.10
  L 154.04 20.89"
/>
<path stroke="#5f6d71" vector-effect="non-scaling-stroke" d="
  M 165.47 23.89
  Q 164.20 25.28 161.87 25.07"
/>
<path stroke="#576467" vector-effect="non-scaling-stroke" d="
  M 161.87 25.07
  L 129.45 25.01"
/>
<path stroke="#4f5a5d" vector-effect="non-scaling-stroke" d="
  M 129.45 25.01
  Q 124.86 25.40 121.91 24.06"
/>
<path stroke="#616f73" vector-effect="non-scaling-stroke" d="
  M 129.45 25.01
  C 124.49 30.80 123.43 38.36 127.75 44.77"
/>
<path stroke="#4f5a5d" vector-effect="non-scaling-stroke" d="
  M 127.75 44.77
  L 115.77 45.04"
/>
<path stroke="#5f6d71" vector-effect="non-scaling-stroke" d="
  M 172.02 45.10
  L 160.81 44.87"
/>
<path stroke="#718287" vector-effect="non-scaling-stroke" d="
  M 160.81 44.87
  Q 156.60 35.18 161.87 25.07"
/>
<path stroke="#576467" vector-effect="non-scaling-stroke" d="
  M 160.81 44.87
  L 127.75 44.77"
/>
<path stroke="#5f6d71" vector-effect="non-scaling-stroke" d="
  M 171.29 48.04
  Q 170.15 49.34 167.95 49.10"
/>
<path stroke="#576467" vector-effect="non-scaling-stroke" d="
  M 167.95 49.10
  L 127.38 49.15"
/>
<path stroke="#4f5a5d" vector-effect="non-scaling-stroke" d="
  M 127.38 49.15
  L 115.77 48.46"
/>
<path stroke="#5f6d71" vector-effect="non-scaling-stroke" d="
  M 178.19 68.43
  L 166.12 67.95"
/>
<path stroke="#718287" vector-effect="non-scaling-stroke" d="
  M 166.12 67.95
  Q 163.94 62.24 164.96 56.68
  C 165.44 54.09 166.77 51.64 167.95 49.10"
/>
<path stroke="#616f73" vector-effect="non-scaling-stroke" d="
  M 127.38 49.15
  Q 121.00 54.83 122.55 62.61
  Q 123.06 65.14 123.85 67.64"
/>
<path stroke="#4f5a5d" vector-effect="non-scaling-stroke" d="
  M 123.85 67.64
  L 109.68 68.26"
/>
<path stroke="#576467" vector-effect="non-scaling-stroke" d="
  M 166.12 67.95
  L 123.85 67.64"
/>
<path stroke="#915772" vector-effect="non-scaling-stroke" d="
  M 176.96 71.96
  L 110.02 71.95"
/>
<path stroke="#e468a5" vector-effect="non-scaling-stroke" d="
  M 185.98 87.90
  Q 146.77 79.46 107.24 85.82
  Q 104.07 86.32 101.11 86.74"
/>
<path stroke="#dc5a8c" vector-effect="non-scaling-stroke" d="
  M 271.70 188.85
  Q 267.76 223.04 255.74 256.50
  Q 242.44 293.56 223.92 322.93
  Q 213.89 338.84 200.96 354.70
  C 182.53 377.30 154.61 391.34 125.14 384.13
  C 110.88 380.65 98.80 373.50 88.47 363.57
  Q 81.99 357.33 71.97 344.06
  C 47.45 311.59 29.71 274.35 18.64 235.93
  Q 12.27 213.85 9.39 190.75"
/>
<path stroke="#dc5a8c" vector-effect="non-scaling-stroke" d="
  M 149.93 245.50
  A 9.44 9.44 0.0 0 0 140.49 236.06
  A 9.44 9.44 0.0 0 0 131.05 245.50
  A 9.44 9.44 0.0 0 0 140.49 254.94
  A 9.44 9.44 0.0 0 0 149.93 245.50"
/>
<path stroke="#dc5a8c" vector-effect="non-scaling-stroke" d="
  M 149.93 296.50
  A 9.44 9.44 0.0 0 0 140.49 287.06
  A 9.44 9.44 0.0 0 0 131.05 296.50
  A 9.44 9.44 0.0 0 0 140.49 305.94
  A 9.44 9.44 0.0 0 0 149.93 296.50"
/>
<path stroke="#dc5a8c" vector-effect="non-scaling-stroke" d="
  M 149.93 347.50
  A 9.44 9.44 0.0 0 0 140.49 338.06
  A 9.44 9.44 0.0 0 0 131.05 347.50
  A 9.44 9.44 0.0 0 0 140.49 356.94
  A 9.44 9.44 0.0 0 0 149.93 347.50"
/>
<path stroke="#e366a2" vector-effect="non-scaling-stroke" d="
  M 272.14 193.05
  Q 271.54 217.09 266.20 239.95
  Q 260.79 263.06 253.38 281.64
  Q 249.83 290.52 248.88 294.40"
/>
<path stroke="#dc5a8c" vector-effect="non-scaling-stroke" d="
  M 248.88 294.40
  Q 246.51 298.78 240.71 311.21
  C 230.53 332.99 216.67 353.97 201.30 373.31
  C 192.12 384.87 179.37 395.56 165.66 400.18
  A 1.01 0.99 80.7 0 0 164.99 401.13
  L 164.99 436.31
  A 0.75 0.75 0.0 0 0 165.78 437.06
  C 176.52 436.55 184.82 438.89 184.95 451.51
  Q 185.12 468.92 184.93 482.50
  Q 184.76 494.62 175.50 504.35
  A 0.37 0.37 0.0 0 0 175.66 504.96
  C 182.97 507.12 184.99 513.06 184.99 520.44
  Q 185.03 561.24 184.96 566.99
  Q 184.85 576.96 176.43 580.46
  A 0.40 0.39 -27.1 0 0 176.24 581.03
  Q 178.03 583.99 178.48 588.69
  A 1.13 1.06 51.3 0 1 178.45 589.08
  L 177.55 593.15
  A 0.69 0.69 0.0 0 0 177.94 593.93
  C 185.56 597.31 185.02 606.25 184.94 613.77
  Q 184.86 622.95 177.97 626.93
  A 0.76 0.76 0.0 0 0 177.63 627.82
  Q 180.13 635.51 174.59 641.27
  A 0.41 0.41 0.0 0 0 174.79 641.95
  Q 184.68 644.21 184.98 656.10
  C 185.19 664.23 185.31 670.75 179.74 675.25
  Q 174.32 679.62 167.83 684.79
  A 0.28 0.27 24.9 0 0 168.01 685.28
  C 176.30 685.10 183.22 687.49 184.60 696.44
  Q 185.59 702.90 184.55 710.29
  C 183.16 720.18 173.94 721.52 165.85 720.91
  A 0.78 0.78 0.0 0 0 165.01 721.69
  L 165.07 749.82"
/>
<path stroke="#e366a2" vector-effect="non-scaling-stroke" d="
  M 165.07 749.82
  L 165.00 757.01"
/>
<path stroke="#d45179" vector-effect="non-scaling-stroke" d="
  M 165.00 757.01
  L 119.51 756.99
  A 0.47 0.47 0.0 0 1 119.04 756.53
  L 118.95 752.26"
/>
<path stroke="#dc5a8c" vector-effect="non-scaling-stroke" d="
  M 118.95 752.26
  L 118.94 721.42
  A 0.48 0.48 0.0 0 0 118.44 720.94
  C 111.75 721.31 104.56 719.22 102.92 712.06
  Q 101.09 704.08 102.49 695.78
  C 103.08 692.30 104.35 689.88 106.79 687.78
  Q 107.34 687.31 118.74 678.17
  A 0.48 0.48 0.0 0 0 118.40 677.32
  Q 114.21 677.61 110.20 676.24
  C 101.66 673.32 101.62 663.26 102.02 655.70
  Q 102.37 649.21 105.25 645.91
  Q 108.85 641.81 115.20 641.61
  A 0.20 0.20 0.0 0 0 115.33 641.27
  C 103.13 629.91 99.27 613.28 103.79 597.40
  C 105.52 591.33 108.72 586.20 112.87 581.47
  A 0.31 0.31 0.0 0 0 112.70 580.96
  C 101.02 578.55 101.88 567.47 101.96 557.77
  C 102.07 544.40 101.93 530.81 102.18 518.42
  Q 102.21 517.10 102.65 513.62
  Q 103.08 510.26 102.37 505.54
  Q 101.57 500.21 102.31 489.53
  Q 102.69 484.09 105.82 481.01
  Q 108.99 477.89 114.18 472.79
  A 0.25 0.25 0.0 0 0 114.03 472.36
  C 101.26 471.34 101.21 458.59 102.27 448.76
  C 103.28 439.32 110.08 437.07 118.34 436.95
  A 0.70 0.70 0.0 0 0 119.03 436.25
  L 119.03 402.00
  A 0.88 0.86 -79.9 0 0 118.47 401.18
  Q 98.25 393.67 83.69 377.29
  C 61.62 352.47 44.80 323.35 31.88 292.71"
/>
<path stroke="#d45179" vector-effect="non-scaling-stroke" d="
  M 31.88 292.71
  Q 21.41 268.13 15.15 242.13
  Q 10.85 224.27 9.20 207.00
  Q 8.94 204.18 9.15 193.74
  A 0.79 0.74 -64.9 0 0 9.00 193.28
  Q 8.80 193.02 8.61 193.05"
/>
<path stroke="#e366a2" vector-effect="non-scaling-stroke" d="
  M 114.02 505.80
  A 0.42 0.42 0.0 0 0 114.74 506.10
  L 132.42 488.41
  A 0.31 0.31 0.0 0 1 132.92 488.50
  Q 138.86 501.48 152.07 501.79
  C 160.83 502.00 168.56 496.65 171.76 488.73
  Q 173.20 485.16 173.00 478.53
  Q 172.98 477.94 172.99 449.68
  A 0.66 0.66 0.0 0 0 172.33 449.02
  L 114.69 449.02
  A 0.66 0.66 0.0 0 0 114.03 449.68
  L 114.03 460.03
  A 0.60 0.59 90.0 0 0 114.62 460.63
  L 132.66 460.63
  A 0.39 0.39 0.0 0 1 133.05 461.02
  L 133.05 470.08
  A 1.91 1.91 0.0 0 1 132.49 471.43
  L 114.69 489.23
  A 2.29 2.29 0.0 0 0 114.02 490.85
  L 114.02 505.80"
/>
<path stroke="#e366a2" vector-effect="non-scaling-stroke" d="
  M 148.91 557.43
  A 0.59 0.59 0.0 0 0 149.50 556.84
  L 149.50 516.97
  A 0.59 0.59 0.0 0 0 148.91 516.38
  L 114.62 516.38
  A 0.59 0.59 0.0 0 0 114.03 516.97
  L 114.03 568.71
  A 0.59 0.59 0.0 0 0 114.62 569.30
  L 125.23 569.30
  A 0.59 0.59 0.0 0 0 125.82 568.71
  L 125.82 528.76
  A 0.59 0.59 0.0 0 1 126.41 528.17
  L 136.96 528.17
  A 0.59 0.59 0.0 0 1 137.55 528.76
  L 137.55 556.84
  A 0.59 0.59 0.0 0 0 138.14 557.43
  L 148.91 557.43"
/>
<path stroke="#e366a2" vector-effect="non-scaling-stroke" d="
  M 172.97 516.93
  A 0.54 0.54 0.0 0 0 172.43 516.39
  L 161.69 516.39
  A 0.54 0.54 0.0 0 0 161.15 516.93
  L 161.15 568.75
  A 0.54 0.54 0.0 0 0 161.69 569.29
  L 172.43 569.29
  A 0.54 0.54 0.0 0 0 172.97 568.75
  L 172.97 516.93"
/>
<path stroke="#e587af" vector-effect="non-scaling-stroke" d="
  M 114.07 610.24
  C 114.08 613.89 113.97 616.40 114.91 619.13
  Q 119.19 631.49 129.67 637.37
  C 141.73 644.14 156.57 642.11 166.73 632.47
  A 0.52 0.52 0.0 0 0 166.74 631.73
  L 158.93 623.92
  A 0.65 0.64 -42.6 0 0 158.05 623.89
  Q 149.10 631.57 138.46 627.94
  C 131.02 625.40 125.88 618.04 125.87 610.22
  C 125.86 602.41 130.98 595.03 138.41 592.48
  Q 149.04 588.82 158.01 596.47
  A 0.65 0.64 42.5 0 0 158.89 596.44
  L 166.68 588.61
  A 0.52 0.52 0.0 0 0 166.67 587.87
  C 156.49 578.26 141.64 576.27 129.60 583.07
  Q 119.14 588.97 114.89 601.34
  C 113.95 604.08 114.07 606.58 114.07 610.24"
/>
<path stroke="#e587af" vector-effect="non-scaling-stroke" d="
  M 172.94 604.61
  A 0.42 0.42 0.0 0 0 172.52 604.19
  L 147.46 604.19
  A 0.42 0.42 0.0 0 0 147.04 604.61
  L 147.04 616.05
  A 0.42 0.42 0.0 0 0 147.46 616.47
  L 172.52 616.47
  A 0.42 0.42 0.0 0 0 172.94 616.05
  L 172.94 604.61"
/>
<path stroke="#e366a2" vector-effect="non-scaling-stroke" d="
  M 139.83 676.64
  Q 128.37 685.63 114.69 696.94
  A 1.77 1.77 0.0 0 0 114.05 698.30
  L 114.05 708.50
  A 0.54 0.54 0.0 0 0 114.59 709.04
  L 172.53 709.04
  A 0.47 0.46 -90.0 0 0 172.99 708.57
  L 172.99 697.83
  A 0.46 0.46 0.0 0 0 172.53 697.37
  L 133.57 697.37
  A 0.21 0.21 0.0 0 1 133.44 696.99
  Q 140.38 691.32 147.21 685.95
  Q 158.67 676.96 172.36 665.66
  A 1.77 1.77 0.0 0 0 173.00 664.29
  L 173.00 654.09
  A 0.54 0.54 0.0 0 0 172.46 653.55
  L 114.52 653.55
  A 0.47 0.46 -90.0 0 0 114.06 654.02
  L 114.06 664.76
  A 0.46 0.46 0.0 0 0 114.52 665.22
  L 153.48 665.22
  A 0.21 0.21 0.0 0 1 153.61 665.60
  Q 146.67 671.28 139.83 676.64"
/>
<path stroke="#e468a5" vector-effect="non-scaling-stroke" d="
  M 31.88 292.71
  Q 31.82 392.87 31.82 492.97
  Q 31.82 526.37 32.82 542.00
  Q 34.40 566.63 38.03 590.73
  Q 43.87 629.37 56.16 664.84
  Q 64.25 688.21 75.29 707.14
  Q 83.55 721.31 89.91 728.52
  C 98.74 738.55 107.10 746.67 118.95 752.26"
/>
<path stroke="#eb74bb" vector-effect="non-scaling-stroke" d="
  M 165.00 757.01
  L 185.91 757.07"
/>
<path stroke="#915772" vector-effect="non-scaling-stroke" d="
  M 177.20 770.07
  L 110.12 770.11"
/>
<path stroke="#e468a5" vector-effect="non-scaling-stroke" d="
  M 80.45 756.70
  Q 78.05 754.94 73.59 752.40
  C 61.17 745.30 51.23 732.84 43.42 720.57
  Q 32.39 703.23 24.53 683.25
  Q 13.51 655.23 7.18 624.78
  Q 7.08 624.32 5.45 614.85
  Q 4.33 608.38 2.32 602.21"
/>
<path stroke="#f37dce" vector-effect="non-scaling-stroke" d="
  M 165.07 749.82
  Q 167.18 749.51 169.44 747.94
  Q 181.99 739.25 190.13 729.31
  Q 204.10 712.23 213.67 691.64
  Q 224.95 667.37 231.95 641.72
  Q 242.44 603.24 246.26 562.75
  Q 248.91 534.54 248.98 511.50
  Q 249.16 448.82 248.88 294.40"
/>
<path stroke="#e366a2" vector-effect="non-scaling-stroke" d="
  M 160.63 460.62
  L 144.11 460.62
  A 0.54 0.54 0.0 0 0 143.57 461.16
  L 143.57 481.03
  A 8.79 8.64 90.0 0 0 152.21 489.82
  L 152.53 489.82
  A 8.79 8.64 -90.0 0 0 161.17 481.03
  L 161.17 461.16
  A 0.54 0.54 0.0 0 0 160.63 460.62"
/>
<path stroke="#5f6d71" vector-effect="non-scaling-stroke" d="
  M 177.97 773.67
  L 165.29 774.07"
/>
<path stroke="#576467" vector-effect="non-scaling-stroke" d="
  M 165.29 774.07
  L 123.74 774.10"
/>
<path stroke="#4f5a5d" vector-effect="non-scaling-stroke" d="
  M 123.74 774.10
  L 109.56 773.77"
/>
<path stroke="#5f6d71" vector-effect="non-scaling-stroke" d="
  M 171.31 794.30
  Q 170.44 792.66 167.58 792.90"
/>
<path stroke="#718287" vector-effect="non-scaling-stroke" d="
  M 167.58 792.90
  C 166.80 790.91 165.45 789.17 164.87 787.36
  C 163.33 782.52 164.46 778.61 165.29 774.07"
/>
<path stroke="#616f73" vector-effect="non-scaling-stroke" d="
  M 123.74 774.10
  Q 121.03 780.56 122.58 786.17
  Q 123.46 789.33 127.17 792.84"
/>
<path stroke="#4f5a5d" vector-effect="non-scaling-stroke" d="
  M 127.17 792.84
  L 115.65 793.45"
/>
<path stroke="#576467" vector-effect="non-scaling-stroke" d="
  M 167.58 792.90
  L 127.17 792.84"
/>
<path stroke="#5f6d71" vector-effect="non-scaling-stroke" d="
  M 171.86 796.94
  L 159.62 797.08"
/>
<path stroke="#576467" vector-effect="non-scaling-stroke" d="
  M 159.62 797.08
  L 127.38 797.12"
/>
<path stroke="#4f5a5d" vector-effect="non-scaling-stroke" d="
  M 127.38 797.12
  L 115.90 796.76"
/>
<path stroke="#616f73" vector-effect="non-scaling-stroke" d="
  M 127.38 797.12
  C 124.10 804.19 123.84 811.17 129.92 816.93"
/>
<path stroke="#4f5a5d" vector-effect="non-scaling-stroke" d="
  M 129.92 816.93
  Q 124.73 816.36 121.72 817.99"
/>
<path stroke="#5f6d71" vector-effect="non-scaling-stroke" d="
  M 165.45 818.11
  Q 164.07 816.74 161.63 816.91"
/>
<path stroke="#718287" vector-effect="non-scaling-stroke" d="
  M 161.63 816.91
  C 160.58 814.67 159.17 812.67 158.60 810.38
  C 157.33 805.20 158.88 801.72 159.62 797.08"
/>
<path stroke="#576467" vector-effect="non-scaling-stroke" d="
  M 161.63 816.91
  L 129.92 816.93"
/>
<path stroke="#5f6d71" vector-effect="non-scaling-stroke" d="
  M 165.36 820.89
  L 152.99 821.06"
/>
<path stroke="#576467" vector-effect="non-scaling-stroke" d="
  M 152.99 821.06
  L 129.57 821.11"
/>
<path stroke="#4f5a5d" vector-effect="non-scaling-stroke" d="
  M 129.57 821.11
  L 121.86 820.96"
/>
<path stroke="#616f73" vector-effect="non-scaling-stroke" d="
  M 129.57 821.11
  Q 129.06 824.05 128.53 826.88
  Q 127.57 832.04 129.37 836.77
  C 130.07 838.60 131.61 840.23 132.71 842.00"
/>
<path stroke="#718287" vector-effect="non-scaling-stroke" d="
  M 156.37 842.00
  Q 147.83 833.82 152.99 821.06"
/>
</g>
<path fill="#586569" d="
  M 132.80 0.00
  Q 124.91 9.07 130.09 20.83
  L 121.89 20.98
  Q 118.12 16.17 119.07 9.51
  Q 120.00 2.94 125.98 0.00
  L 132.80 0.00
  Z"
/>
<path fill="#69797d" d="
  M 156.82 0.00
  C 155.50 2.04 153.79 3.97 153.08 6.19
  Q 150.82 13.23 154.04 20.89
  L 130.09 20.83
  Q 124.91 9.07 132.80 0.00
  L 156.82 0.00
  Z"
/>
<path fill="#798b90" d="
  M 162.38 0.00
  Q 165.94 2.36 167.34 6.26
  C 168.31 8.97 168.03 12.44 167.97 15.49
  Q 167.92 18.11 165.41 21.10
  L 154.04 20.89
  Q 150.82 13.23 153.08 6.19
  C 153.79 3.97 155.50 2.04 156.82 0.00
  L 162.38 0.00
  Z"
/>
<path fill="#454f51" d="
  M 130.09 20.83
  L 154.04 20.89
  L 165.41 21.10
  Q 164.60 23.46 165.47 23.89
  Q 164.20 25.28 161.87 25.07
  L 129.45 25.01
  Q 124.86 25.40 121.91 24.06
  Q 122.52 22.78 121.89 20.98
  L 130.09 20.83
  Z"
/>
<path fill="#586569" d="
  M 121.91 24.06
  Q 124.86 25.40 129.45 25.01
  C 124.49 30.80 123.43 38.36 127.75 44.77
  L 115.77 45.04
  Q 110.84 40.19 112.07 33.76
  Q 113.62 25.65 121.91 24.06
  Z"
/>
<path fill="#798b90" d="
  M 172.02 45.10
  L 160.81 44.87
  Q 156.60 35.18 161.87 25.07
  Q 164.20 25.28 165.47 23.89
  Q 172.50 23.97 174.79 32.35
  A 3.83 3.60 37.5 0 1 174.93 33.20
  C 175.18 38.39 175.17 41.23 172.02 45.10
  Z"
/>
<path fill="#69797d" d="
  M 161.87 25.07
  Q 156.60 35.18 160.81 44.87
  L 127.75 44.77
  C 123.43 38.36 124.49 30.80 129.45 25.01
  L 161.87 25.07
  Z"
/>
<path fill="#454f51" d="
  M 127.75 44.77
  L 160.81 44.87
  L 172.02 45.10
  Q 170.31 46.67 171.29 48.04
  Q 170.15 49.34 167.95 49.10
  L 127.38 49.15
  L 115.77 48.46
  Q 116.49 46.34 115.77 45.04
  L 127.75 44.77
  Z"
/>
<path fill="#798b90" d="
  M 178.19 68.43
  L 166.12 67.95
  Q 163.94 62.24 164.96 56.68
  C 165.44 54.09 166.77 51.64 167.95 49.10
  Q 170.15 49.34 171.29 48.04
  Q 175.01 47.53 177.60 50.91
  Q 184.34 59.72 178.19 68.43
  Z"
/>
<path fill="#586569" d="
  M 115.77 48.46
  L 127.38 49.15
  Q 121.00 54.83 122.55 62.61
  Q 123.06 65.14 123.85 67.64
  L 109.68 68.26
  Q 106.45 65.40 106.01 61.24
  Q 105.57 57.07 108.05 53.60
  Q 110.76 49.79 115.77 48.46
  Z"
/>
<path fill="#69797d" d="
  M 167.95 49.10
  C 166.77 51.64 165.44 54.09 164.96 56.68
  Q 163.94 62.24 166.12 67.95
  L 123.85 67.64
  Q 123.06 65.14 122.55 62.61
  Q 121.00 54.83 127.38 49.15
  L 167.95 49.10
  Z"
/>
<path fill="#454f51" d="
  M 123.85 67.64
  L 166.12 67.95
  L 178.19 68.43
  Q 176.57 69.84 176.96 71.96
  L 110.02 71.95
  Q 110.35 70.13 109.68 68.26
  L 123.85 67.64
  Z"
/>
<path fill="#dc5f92" d="
  M 110.02 71.95
  L 176.96 71.96
  L 181.70 72.13
  A 1.42 1.39 69.2 0 1 182.68 72.58
  C 186.48 76.72 186.15 82.13 185.98 87.90
  Q 146.77 79.46 107.24 85.82
  Q 104.07 86.32 101.11 86.74
  C 100.58 82.06 100.88 75.70 104.66 72.37
  A 1.35 1.34 -65.3 0 1 105.54 72.04
  L 110.02 71.95
  Z"
/>
<path fill="#ec71b8" d="
  M 185.98 87.90
  Q 187.96 88.27 193.12 89.66
  C 220.67 97.09 248.01 112.24 263.42 137.00
  C 269.49 146.76 271.70 157.36 271.85 169.25
  Q 272.02 182.55 271.70 188.85
  Q 267.76 223.04 255.74 256.50
  Q 242.44 293.56 223.92 322.93
  Q 213.89 338.84 200.96 354.70
  C 182.53 377.30 154.61 391.34 125.14 384.13
  C 110.88 380.65 98.80 373.50 88.47 363.57
  Q 81.99 357.33 71.97 344.06
  C 47.45 311.59 29.71 274.35 18.64 235.93
  Q 12.27 213.85 9.39 190.75
  Q 8.47 177.58 9.24 163.99
  C 9.85 153.33 12.99 143.55 19.26 134.45
  Q 29.21 120.01 42.35 110.82
  Q 68.44 92.57 101.11 86.74
  Q 104.07 86.32 107.24 85.82
  Q 146.77 79.46 185.98 87.90
  Z
  M 149.93 245.50
  A 9.44 9.44 0.0 0 0 140.49 236.06
  A 9.44 9.44 0.0 0 0 131.05 245.50
  A 9.44 9.44 0.0 0 0 140.49 254.94
  A 9.44 9.44 0.0 0 0 149.93 245.50
  Z
  M 149.93 296.50
  A 9.44 9.44 0.0 0 0 140.49 287.06
  A 9.44 9.44 0.0 0 0 131.05 296.50
  A 9.44 9.44 0.0 0 0 140.49 305.94
  A 9.44 9.44 0.0 0 0 149.93 296.50
  Z
  M 149.93 347.50
  A 9.44 9.44 0.0 0 0 140.49 338.06
  A 9.44 9.44 0.0 0 0 131.05 347.50
  A 9.44 9.44 0.0 0 0 140.49 356.94
  A 9.44 9.44 0.0 0 0 149.93 347.50
  Z"
/>
<path fill="#cb4260" d="
  M 271.70 188.85
  L 272.14 193.05
  Q 271.54 217.09 266.20 239.95
  Q 260.79 263.06 253.38 281.64
  Q 249.83 290.52 248.88 294.40
  Q 246.51 298.78 240.71 311.21
  C 230.53 332.99 216.67 353.97 201.30 373.31
  C 192.12 384.87 179.37 395.56 165.66 400.18
  A 1.01 0.99 80.7 0 0 164.99 401.13
  L 164.99 436.31
  A 0.75 0.75 0.0 0 0 165.78 437.06
  C 176.52 436.55 184.82 438.89 184.95 451.51
  Q 185.12 468.92 184.93 482.50
  Q 184.76 494.62 175.50 504.35
  A 0.37 0.37 0.0 0 0 175.66 504.96
  C 182.97 507.12 184.99 513.06 184.99 520.44
  Q 185.03 561.24 184.96 566.99
  Q 184.85 576.96 176.43 580.46
  A 0.40 0.39 -27.1 0 0 176.24 581.03
  Q 178.03 583.99 178.48 588.69
  A 1.13 1.06 51.3 0 1 178.45 589.08
  L 177.55 593.15
  A 0.69 0.69 0.0 0 0 177.94 593.93
  C 185.56 597.31 185.02 606.25 184.94 613.77
  Q 184.86 622.95 177.97 626.93
  A 0.76 0.76 0.0 0 0 177.63 627.82
  Q 180.13 635.51 174.59 641.27
  A 0.41 0.41 0.0 0 0 174.79 641.95
  Q 184.68 644.21 184.98 656.10
  C 185.19 664.23 185.31 670.75 179.74 675.25
  Q 174.32 679.62 167.83 684.79
  A 0.28 0.27 24.9 0 0 168.01 685.28
  C 176.30 685.10 183.22 687.49 184.60 696.44
  Q 185.59 702.90 184.55 710.29
  C 183.16 720.18 173.94 721.52 165.85 720.91
  A 0.78 0.78 0.0 0 0 165.01 721.69
  L 165.07 749.82
  L 165.00 757.01
  L 119.51 756.99
  A 0.47 0.47 0.0 0 1 119.04 756.53
  L 118.95 752.26
  L 118.94 721.42
  A 0.48 0.48 0.0 0 0 118.44 720.94
  C 111.75 721.31 104.56 719.22 102.92 712.06
  Q 101.09 704.08 102.49 695.78
  C 103.08 692.30 104.35 689.88 106.79 687.78
  Q 107.34 687.31 118.74 678.17
  A 0.48 0.48 0.0 0 0 118.40 677.32
  Q 114.21 677.61 110.20 676.24
  C 101.66 673.32 101.62 663.26 102.02 655.70
  Q 102.37 649.21 105.25 645.91
  Q 108.85 641.81 115.20 641.61
  A 0.20 0.20 0.0 0 0 115.33 641.27
  C 103.13 629.91 99.27 613.28 103.79 597.40
  C 105.52 591.33 108.72 586.20 112.87 581.47
  A 0.31 0.31 0.0 0 0 112.70 580.96
  C 101.02 578.55 101.88 567.47 101.96 557.77
  C 102.07 544.40 101.93 530.81 102.18 518.42
  Q 102.21 517.10 102.65 513.62
  Q 103.08 510.26 102.37 505.54
  Q 101.57 500.21 102.31 489.53
  Q 102.69 484.09 105.82 481.01
  Q 108.99 477.89 114.18 472.79
  A 0.25 0.25 0.0 0 0 114.03 472.36
  C 101.26 471.34 101.21 458.59 102.27 448.76
  C 103.28 439.32 110.08 437.07 118.34 436.95
  A 0.70 0.70 0.0 0 0 119.03 436.25
  L 119.03 402.00
  A 0.88 0.86 -79.9 0 0 118.47 401.18
  Q 98.25 393.67 83.69 377.29
  C 61.62 352.47 44.80 323.35 31.88 292.71
  Q 21.41 268.13 15.15 242.13
  Q 10.85 224.27 9.20 207.00
  Q 8.94 204.18 9.15 193.74
  A 0.79 0.74 -64.9 0 0 9.00 193.28
  Q 8.80 193.02 8.61 193.05
  Q 8.76 191.91 9.39 190.75
  Q 12.27 213.85 18.64 235.93
  C 29.71 274.35 47.45 311.59 71.97 344.06
  Q 81.99 357.33 88.47 363.57
  C 98.80 373.50 110.88 380.65 125.14 384.13
  C 154.61 391.34 182.53 377.30 200.96 354.70
  Q 213.89 338.84 223.92 322.93
  Q 242.44 293.56 255.74 256.50
  Q 267.76 223.04 271.70 188.85
  Z
  M 114.02 505.80
  A 0.42 0.42 0.0 0 0 114.74 506.10
  L 132.42 488.41
  A 0.31 0.31 0.0 0 1 132.92 488.50
  Q 138.86 501.48 152.07 501.79
  C 160.83 502.00 168.56 496.65 171.76 488.73
  Q 173.20 485.16 173.00 478.53
  Q 172.98 477.94 172.99 449.68
  A 0.66 0.66 0.0 0 0 172.33 449.02
  L 114.69 449.02
  A 0.66 0.66 0.0 0 0 114.03 449.68
  L 114.03 460.03
  A 0.60 0.59 90.0 0 0 114.62 460.63
  L 132.66 460.63
  A 0.39 0.39 0.0 0 1 133.05 461.02
  L 133.05 470.08
  A 1.91 1.91 0.0 0 1 132.49 471.43
  L 114.69 489.23
  A 2.29 2.29 0.0 0 0 114.02 490.85
  L 114.02 505.80
  Z
  M 148.91 557.43
  A 0.59 0.59 0.0 0 0 149.50 556.84
  L 149.50 516.97
  A 0.59 0.59 0.0 0 0 148.91 516.38
  L 114.62 516.38
  A 0.59 0.59 0.0 0 0 114.03 516.97
  L 114.03 568.71
  A 0.59 0.59 0.0 0 0 114.62 569.30
  L 125.23 569.30
  A 0.59 0.59 0.0 0 0 125.82 568.71
  L 125.82 528.76
  A 0.59 0.59 0.0 0 1 126.41 528.17
  L 136.96 528.17
  A 0.59 0.59 0.0 0 1 137.55 528.76
  L 137.55 556.84
  A 0.59 0.59 0.0 0 0 138.14 557.43
  L 148.91 557.43
  Z
  M 172.97 516.93
  A 0.54 0.54 0.0 0 0 172.43 516.39
  L 161.69 516.39
  A 0.54 0.54 0.0 0 0 161.15 516.93
  L 161.15 568.75
  A 0.54 0.54 0.0 0 0 161.69 569.29
  L 172.43 569.29
  A 0.54 0.54 0.0 0 0 172.97 568.75
  L 172.97 516.93
  Z
  M 114.07 610.24
  C 114.08 613.89 113.97 616.40 114.91 619.13
  Q 119.19 631.49 129.67 637.37
  C 141.73 644.14 156.57 642.11 166.73 632.47
  A 0.52 0.52 0.0 0 0 166.74 631.73
  L 158.93 623.92
  A 0.65 0.64 -42.6 0 0 158.05 623.89
  Q 149.10 631.57 138.46 627.94
  C 131.02 625.40 125.88 618.04 125.87 610.22
  C 125.86 602.41 130.98 595.03 138.41 592.48
  Q 149.04 588.82 158.01 596.47
  A 0.65 0.64 42.5 0 0 158.89 596.44
  L 166.68 588.61
  A 0.52 0.52 0.0 0 0 166.67 587.87
  C 156.49 578.26 141.64 576.27 129.60 583.07
  Q 119.14 588.97 114.89 601.34
  C 113.95 604.08 114.07 606.58 114.07 610.24
  Z
  M 172.94 604.61
  A 0.42 0.42 0.0 0 0 172.52 604.19
  L 147.46 604.19
  A 0.42 0.42 0.0 0 0 147.04 604.61
  L 147.04 616.05
  A 0.42 0.42 0.0 0 0 147.46 616.47
  L 172.52 616.47
  A 0.42 0.42 0.0 0 0 172.94 616.05
  L 172.94 604.61
  Z
  M 139.83 676.64
  Q 128.37 685.63 114.69 696.94
  A 1.77 1.77 0.0 0 0 114.05 698.30
  L 114.05 708.50
  A 0.54 0.54 0.0 0 0 114.59 709.04
  L 172.53 709.04
  A 0.47 0.46 -90.0 0 0 172.99 708.57
  L 172.99 697.83
  A 0.46 0.46 0.0 0 0 172.53 697.37
  L 133.57 697.37
  A 0.21 0.21 0.0 0 1 133.44 696.99
  Q 140.38 691.32 147.21 685.95
  Q 158.67 676.96 172.36 665.66
  A 1.77 1.77 0.0 0 0 173.00 664.29
  L 173.00 654.09
  A 0.54 0.54 0.0 0 0 172.46 653.55
  L 114.52 653.55
  A 0.47 0.46 -90.0 0 0 114.06 654.02
  L 114.06 664.76
  A 0.46 0.46 0.0 0 0 114.52 665.22
  L 153.48 665.22
  A 0.21 0.21 0.0 0 1 153.61 665.60
  Q 146.67 671.28 139.83 676.64
  Z"
/>
<path fill="#dc5f92" d="
  M 8.61 193.05
  Q 8.80 193.02 9.00 193.28
  A 0.79 0.74 -64.9 0 1 9.15 193.74
  Q 8.94 204.18 9.20 207.00
  Q 10.85 224.27 15.15 242.13
  Q 21.41 268.13 31.88 292.71
  Q 31.82 392.87 31.82 492.97
  Q 31.82 526.37 32.82 542.00
  Q 34.40 566.63 38.03 590.73
  Q 43.87 629.37 56.16 664.84
  Q 64.25 688.21 75.29 707.14
  Q 83.55 721.31 89.91 728.52
  C 98.74 738.55 107.10 746.67 118.95 752.26
  L 119.04 756.53
  A 0.47 0.47 0.0 0 0 119.51 756.99
  L 165.00 757.01
  L 185.91 757.07
  Q 186.65 763.57 183.52 768.59
  A 2.95 2.93 15.2 0 1 181.07 769.98
  L 177.20 770.07
  L 110.12 770.11
  L 105.44 769.90
  A 1.57 1.52 -22.5 0 1 104.53 769.54
  C 101.54 766.99 100.74 761.56 100.94 757.97
  A 0.91 0.91 0.0 0 0 100.05 757.01
  L 80.45 756.70
  Q 78.05 754.94 73.59 752.40
  C 61.17 745.30 51.23 732.84 43.42 720.57
  Q 32.39 703.23 24.53 683.25
  Q 13.51 655.23 7.18 624.78
  Q 7.08 624.32 5.45 614.85
  Q 4.33 608.38 2.32 602.21
  L 0.00 584.11
  L 0.00 208.27
  Q 0.76 199.00 8.61 193.05
  Z"
/>
<path fill="#fa89e3" d="
  M 281.00 207.23
  L 281.00 580.49
  Q 277.28 630.72 259.96 677.95
  Q 251.26 701.69 238.60 721.86
  C 230.92 734.11 221.77 745.28 209.80 752.80
  Q 202.44 757.43 194.14 757.08
  Q 190.15 756.91 185.91 757.07
  L 165.00 757.01
  L 165.07 749.82
  Q 167.18 749.51 169.44 747.94
  Q 181.99 739.25 190.13 729.31
  Q 204.10 712.23 213.67 691.64
  Q 224.95 667.37 231.95 641.72
  Q 242.44 603.24 246.26 562.75
  Q 248.91 534.54 248.98 511.50
  Q 249.16 448.82 248.88 294.40
  Q 249.83 290.52 253.38 281.64
  Q 260.79 263.06 266.20 239.95
  Q 271.54 217.09 272.14 193.05
  Q 279.58 198.62 281.00 207.23
  Z"
/>
<circle fill="#cb4260" cx="140.49" cy="245.50" r="9.44"/>
<circle fill="#cb4260" cx="140.49" cy="296.50" r="9.44"/>
<path fill="#ec71b8" d="
  M 31.88 292.71
  C 44.80 323.35 61.62 352.47 83.69 377.29
  Q 98.25 393.67 118.47 401.18
  A 0.88 0.86 -79.9 0 1 119.03 402.00
  L 119.03 436.25
  A 0.70 0.70 0.0 0 1 118.34 436.95
  C 110.08 437.07 103.28 439.32 102.27 448.76
  C 101.21 458.59 101.26 471.34 114.03 472.36
  A 0.25 0.25 0.0 0 1 114.18 472.79
  Q 108.99 477.89 105.82 481.01
  Q 102.69 484.09 102.31 489.53
  Q 101.57 500.21 102.37 505.54
  Q 103.08 510.26 102.65 513.62
  Q 102.21 517.10 102.18 518.42
  C 101.93 530.81 102.07 544.40 101.96 557.77
  C 101.88 567.47 101.02 578.55 112.70 580.96
  A 0.31 0.31 0.0 0 1 112.87 581.47
  C 108.72 586.20 105.52 591.33 103.79 597.40
  C 99.27 613.28 103.13 629.91 115.33 641.27
  A 0.20 0.20 0.0 0 1 115.20 641.61
  Q 108.85 641.81 105.25 645.91
  Q 102.37 649.21 102.02 655.70
  C 101.62 663.26 101.66 673.32 110.20 676.24
  Q 114.21 677.61 118.40 677.32
  A 0.48 0.48 0.0 0 1 118.74 678.17
  Q 107.34 687.31 106.79 687.78
  C 104.35 689.88 103.08 692.30 102.49 695.78
  Q 101.09 704.08 102.92 712.06
  C 104.56 719.22 111.75 721.31 118.44 720.94
  A 0.48 0.48 0.0 0 1 118.94 721.42
  L 118.95 752.26
  C 107.10 746.67 98.74 738.55 89.91 728.52
  Q 83.55 721.31 75.29 707.14
  Q 64.25 688.21 56.16 664.84
  Q 43.87 629.37 38.03 590.73
  Q 34.40 566.63 32.82 542.00
  Q 31.82 526.37 31.82 492.97
  Q 31.82 392.87 31.88 292.71
  Z"
/>
<path fill="#ec71b8" d="
  M 248.88 294.40
  Q 249.16 448.82 248.98 511.50
  Q 248.91 534.54 246.26 562.75
  Q 242.44 603.24 231.95 641.72
  Q 224.95 667.37 213.67 691.64
  Q 204.10 712.23 190.13 729.31
  Q 181.99 739.25 169.44 747.94
  Q 167.18 749.51 165.07 749.82
  L 165.01 721.69
  A 0.78 0.78 0.0 0 1 165.85 720.91
  C 173.94 721.52 183.16 720.18 184.55 710.29
  Q 185.59 702.90 184.60 696.44
  C 183.22 687.49 176.30 685.10 168.01 685.28
  A 0.28 0.27 24.9 0 1 167.83 684.79
  Q 174.32 679.62 179.74 675.25
  C 185.31 670.75 185.19 664.23 184.98 656.10
  Q 184.68 644.21 174.79 641.95
  A 0.41 0.41 0.0 0 1 174.59 641.27
  Q 180.13 635.51 177.63 627.82
  A 0.76 0.76 0.0 0 1 177.97 626.93
  Q 184.86 622.95 184.94 613.77
  C 185.02 606.25 185.56 597.31 177.94 593.93
  A 0.69 0.69 0.0 0 1 177.55 593.15
  L 178.45 589.08
  A 1.13 1.06 51.3 0 0 178.48 588.69
  Q 178.03 583.99 176.24 581.03
  A 0.40 0.39 -27.1 0 1 176.43 580.46
  Q 184.85 576.96 184.96 566.99
  Q 185.03 561.24 184.99 520.44
  C 184.99 513.06 182.97 507.12 175.66 504.96
  A 0.37 0.37 0.0 0 1 175.50 504.35
  Q 184.76 494.62 184.93 482.50
  Q 185.12 468.92 184.95 451.51
  C 184.82 438.89 176.52 436.55 165.78 437.06
  A 0.75 0.75 0.0 0 1 164.99 436.31
  L 164.99 401.13
  A 1.01 0.99 80.7 0 1 165.66 400.18
  C 179.37 395.56 192.12 384.87 201.30 373.31
  C 216.67 353.97 230.53 332.99 240.71 311.21
  Q 246.51 298.78 248.88 294.40
  Z"
/>
<circle fill="#cb4260" cx="140.49" cy="347.50" r="9.44"/>
<path fill="#fa89e3" d="
  M 114.02 505.80
  L 114.02 490.85
  A 2.29 2.29 0.0 0 1 114.69 489.23
  L 132.49 471.43
  A 1.91 1.91 0.0 0 0 133.05 470.08
  L 133.05 461.02
  A 0.39 0.39 0.0 0 0 132.66 460.63
  L 114.62 460.63
  A 0.60 0.59 -90.0 0 1 114.03 460.03
  L 114.03 449.68
  A 0.66 0.66 0.0 0 1 114.69 449.02
  L 172.33 449.02
  A 0.66 0.66 0.0 0 1 172.99 449.68
  Q 172.98 477.94 173.00 478.53
  Q 173.20 485.16 171.76 488.73
  C 168.56 496.65 160.83 502.00 152.07 501.79
  Q 138.86 501.48 132.92 488.50
  A 0.31 0.31 0.0 0 0 132.42 488.41
  L 114.74 506.10
  A 0.42 0.42 0.0 0 1 114.02 505.80
  Z
  M 160.63 460.62
  L 144.11 460.62
  A 0.54 0.54 0.0 0 0 143.57 461.16
  L 143.57 481.03
  A 8.79 8.64 90.0 0 0 152.21 489.82
  L 152.53 489.82
  A 8.79 8.64 -90.0 0 0 161.17 481.03
  L 161.17 461.16
  A 0.54 0.54 0.0 0 0 160.63 460.62
  Z"
/>
<path fill="#cb4260" d="
  M 160.63 460.62
  A 0.54 0.54 0.0 0 1 161.17 461.16
  L 161.17 481.03
  A 8.79 8.64 90.0 0 1 152.53 489.82
  L 152.21 489.82
  A 8.79 8.64 90.0 0 1 143.57 481.03
  L 143.57 461.16
  A 0.54 0.54 0.0 0 1 144.11 460.62
  L 160.63 460.62
  Z"
/>
<path fill="#fa89e3" d="
  M 148.91 557.43
  L 138.14 557.43
  A 0.59 0.59 0.0 0 1 137.55 556.84
  L 137.55 528.76
  A 0.59 0.59 0.0 0 0 136.96 528.17
  L 126.41 528.17
  A 0.59 0.59 0.0 0 0 125.82 528.76
  L 125.82 568.71
  A 0.59 0.59 0.0 0 1 125.23 569.30
  L 114.62 569.30
  A 0.59 0.59 0.0 0 1 114.03 568.71
  L 114.03 516.97
  A 0.59 0.59 0.0 0 1 114.62 516.38
  L 148.91 516.38
  A 0.59 0.59 0.0 0 1 149.50 516.97
  L 149.50 556.84
  A 0.59 0.59 0.0 0 1 148.91 557.43
  Z"
/>
<rect fill="#fa89e3" x="161.15" y="516.39" width="11.82" height="52.90" rx="0.54"/>
<path fill="#fecbfe" d="
  M 125.87 610.22
  C 125.88 618.04 131.02 625.40 138.46 627.94
  Q 149.10 631.57 158.05 623.89
  A 0.65 0.64 -42.6 0 1 158.93 623.92
  L 166.74 631.73
  A 0.52 0.52 0.0 0 1 166.73 632.47
  C 156.57 642.11 141.73 644.14 129.67 637.37
  Q 119.19 631.49 114.91 619.13
  C 113.97 616.40 114.08 613.89 114.07 610.24
  C 114.07 606.58 113.95 604.08 114.89 601.34
  Q 119.14 588.97 129.60 583.07
  C 141.64 576.27 156.49 578.26 166.67 587.87
  A 0.52 0.52 0.0 0 1 166.68 588.61
  L 158.89 596.44
  A 0.65 0.64 42.5 0 1 158.01 596.47
  Q 149.04 588.82 138.41 592.48
  C 130.98 595.03 125.86 602.41 125.87 610.22
  Z"
/>
<path fill="#ec71b8" d="
  M 80.45 756.70
  Q 74.44 755.12 69.63 751.85
  C 60.29 745.50 53.44 737.72 46.41 727.84
  Q 36.57 714.00 28.40 695.43
  Q 8.76 650.80 2.32 602.21
  Q 4.33 608.38 5.45 614.85
  Q 7.08 624.32 7.18 624.78
  Q 13.51 655.23 24.53 683.25
  Q 32.39 703.23 43.42 720.57
  C 51.23 732.84 61.17 745.30 73.59 752.40
  Q 78.05 754.94 80.45 756.70
  Z"
/>
<rect fill="#fecbfe" x="147.04" y="604.19" width="25.90" height="12.28" rx="0.42"/>
<path fill="#fa89e3" d="
  M 147.21 685.95
  Q 140.38 691.32 133.44 696.99
  A 0.21 0.21 0.0 0 0 133.57 697.37
  L 172.53 697.37
  A 0.46 0.46 0.0 0 1 172.99 697.83
  L 172.99 708.57
  A 0.47 0.46 90.0 0 1 172.53 709.04
  L 114.59 709.04
  A 0.54 0.54 0.0 0 1 114.05 708.50
  L 114.05 698.30
  A 1.77 1.77 0.0 0 1 114.69 696.94
  Q 128.37 685.63 139.83 676.64
  Q 146.67 671.28 153.61 665.60
  A 0.21 0.21 0.0 0 0 153.48 665.22
  L 114.52 665.22
  A 0.46 0.46 0.0 0 1 114.06 664.76
  L 114.06 654.02
  A 0.47 0.46 90.0 0 1 114.52 653.55
  L 172.46 653.55
  A 0.54 0.54 0.0 0 1 173.00 654.09
  L 173.00 664.29
  A 1.77 1.77 0.0 0 1 172.36 665.66
  Q 158.67 676.96 147.21 685.95
  Z"
/>
<path fill="#454f51" d="
  M 177.20 770.07
  Q 176.62 772.13 177.97 773.67
  L 165.29 774.07
  L 123.74 774.10
  L 109.56 773.77
  Q 110.56 771.90 110.12 770.11
  L 177.20 770.07
  Z"
/>
<path fill="#798b90" d="
  M 177.97 773.67
  Q 180.93 776.14 180.98 781.27
  Q 181.07 792.32 171.31 794.30
  Q 170.44 792.66 167.58 792.90
  C 166.80 790.91 165.45 789.17 164.87 787.36
  C 163.33 782.52 164.46 778.61 165.29 774.07
  L 177.97 773.67
  Z"
/>
<path fill="#586569" d="
  M 109.56 773.77
  L 123.74 774.10
  Q 121.03 780.56 122.58 786.17
  Q 123.46 789.33 127.17 792.84
  L 115.65 793.45
  Q 108.59 791.74 106.45 785.54
  Q 104.17 778.94 109.56 773.77
  Z"
/>
<path fill="#69797d" d="
  M 165.29 774.07
  C 164.46 778.61 163.33 782.52 164.87 787.36
  C 165.45 789.17 166.80 790.91 167.58 792.90
  L 127.17 792.84
  Q 123.46 789.33 122.58 786.17
  Q 121.03 780.56 123.74 774.10
  L 165.29 774.07
  Z"
/>
<path fill="#454f51" d="
  M 127.17 792.84
  L 167.58 792.90
  Q 170.44 792.66 171.31 794.30
  Q 170.17 794.54 171.86 796.94
  L 159.62 797.08
  L 127.38 797.12
  L 115.90 796.76
  Q 116.47 794.94 115.65 793.45
  L 127.17 792.84
  Z"
/>
<path fill="#586569" d="
  M 115.90 796.76
  L 127.38 797.12
  C 124.10 804.19 123.84 811.17 129.92 816.93
  Q 124.73 816.36 121.72 817.99
  Q 112.52 816.12 111.91 806.50
  Q 111.53 800.50 115.90 796.76
  Z"
/>
<path fill="#798b90" d="
  M 171.86 796.94
  Q 174.49 799.62 174.95 802.49
  Q 175.19 804.02 174.88 809.50
  A 3.33 3.32 57.0 0 1 174.68 810.45
  Q 171.93 817.93 165.45 818.11
  Q 164.07 816.74 161.63 816.91
  C 160.58 814.67 159.17 812.67 158.60 810.38
  C 157.33 805.20 158.88 801.72 159.62 797.08
  L 171.86 796.94
  Z"
/>
<path fill="#69797d" d="
  M 159.62 797.08
  C 158.88 801.72 157.33 805.20 158.60 810.38
  C 159.17 812.67 160.58 814.67 161.63 816.91
  L 129.92 816.93
  C 123.84 811.17 124.10 804.19 127.38 797.12
  L 159.62 797.08
  Z"
/>
<path fill="#454f51" d="
  M 129.92 816.93
  L 161.63 816.91
  Q 164.07 816.74 165.45 818.11
  Q 164.44 818.68 165.36 820.89
  L 152.99 821.06
  L 129.57 821.11
  L 121.86 820.96
  Q 122.48 818.90 121.72 817.99
  Q 124.73 816.36 129.92 816.93
  Z"
/>
<path fill="#586569" d="
  M 129.57 821.11
  Q 129.06 824.05 128.53 826.88
  Q 127.57 832.04 129.37 836.77
  C 130.07 838.60 131.61 840.23 132.71 842.00
  L 126.09 842.00
  C 117.81 838.26 117.05 827.58 121.86 820.96
  L 129.57 821.11
  Z"
/>
<path fill="#798b90" d="
  M 165.36 820.89
  Q 167.83 823.72 167.90 826.02
  Q 167.99 828.50 167.98 831.01
  Q 167.98 834.05 167.27 835.89
  Q 165.85 839.60 162.49 842.00
  L 156.37 842.00
  Q 147.83 833.82 152.99 821.06
  L 165.36 820.89
  Z"
/>
<path fill="#69797d" d="
  M 152.99 821.06
  Q 147.83 833.82 156.37 842.00
  L 132.71 842.00
  C 131.61 840.23 130.07 838.60 129.37 836.77
  Q 127.57 832.04 128.53 826.88
  Q 129.06 824.05 129.57 821.11
  L 152.99 821.06
  Z"
/>
</svg>
