<?xml version="1.0" encoding="UTF-8" standalone="no"?>
<!DOCTYPE svg PUBLIC "-//W3C//DTD SVG 1.1//EN" "http://www.w3.org/Graphics/SVG/1.1/DTD/svg11.dtd">
<svg xmlns="http://www.w3.org/2000/svg" version="1.1" viewBox="0.00 0.00 281.00 842.00">
<g stroke-width="2.00" fill="none" stroke-linecap="butt">
<path stroke="#616f73" vector-effect="non-scaling-stroke" d="
  M 132.65 0.00
  Q 127.59 6.00 128.11 13.17
  Q 128.38 17.02 130.04 20.84"
/>
<path stroke="#4f5a5d" vector-effect="non-scaling-stroke" d="
  M 130.04 20.84
  L 121.91 20.82"
/>
<path stroke="#718287" vector-effect="non-scaling-stroke" d="
  M 156.65 0.00
  Q 151.07 6.84 152.54 14.90
  Q 153.08 17.86 153.70 20.90"
/>
<path stroke="#576467" vector-effect="non-scaling-stroke" d="
  M 153.70 20.90
  L 130.04 20.84"
/>
<path stroke="#5f6d71" vector-effect="non-scaling-stroke" d="
  M 165.42 20.95
  L 153.70 20.90"
/>
<path stroke="#5f6d71" vector-effect="non-scaling-stroke" d="
  M 165.14 24.14
  Q 164.30 25.29 161.84 25.11"
/>
<path stroke="#576467" vector-effect="non-scaling-stroke" d="
  M 161.84 25.11
  L 129.53 25.03"
/>
<path stroke="#4f5a5d" vector-effect="non-scaling-stroke" d="
  M 129.53 25.03
  Q 125.17 25.46 121.87 24.31"
/>
<path stroke="#5f6d71" vector-effect="non-scaling-stroke" d="
  M 171.43 45.22
  L 160.91 44.86"
/>
<path stroke="#718287" vector-effect="non-scaling-stroke" d="
  M 160.91 44.86
  Q 157.92 38.50 159.30 32.07
  C 159.78 29.86 161.08 27.52 161.84 25.11"
/>
<path stroke="#616f73" vector-effect="non-scaling-stroke" d="
  M 129.53 25.03
  Q 121.63 34.20 127.62 44.88"
/>
<path stroke="#4f5a5d" vector-effect="non-scaling-stroke" d="
  M 127.62 44.88
  L 116.01 45.04"
/>
<path stroke="#576467" vector-effect="non-scaling-stroke" d="
  M 160.91 44.86
  L 127.62 44.88"
/>
<path stroke="#5f6d71" vector-effect="non-scaling-stroke" d="
  M 171.07 48.09
  Q 171.04 49.23 168.09 49.07"
/>
<path stroke="#576467" vector-effect="non-scaling-stroke" d="
  M 168.09 49.07
  L 127.47 49.03"
/>
<path stroke="#4f5a5d" vector-effect="non-scaling-stroke" d="
  M 127.47 49.03
  L 115.83 48.66"
/>
<path stroke="#5f6d71" vector-effect="non-scaling-stroke" d="
  M 177.78 68.42
  L 166.16 67.96"
/>
<path stroke="#718287" vector-effect="non-scaling-stroke" d="
  M 166.16 67.96
  Q 162.31 58.15 168.09 49.07"
/>
<path stroke="#616f73" vector-effect="non-scaling-stroke" d="
  M 127.47 49.03
  Q 120.69 55.11 122.71 63.22
  Q 123.27 65.44 123.83 67.93"
/>
<path stroke="#4f5a5d" vector-effect="non-scaling-stroke" d="
  M 123.83 67.93
  L 109.72 68.19"
/>
<path stroke="#576467" vector-effect="non-scaling-stroke" d="
  M 166.16 67.96
  L 123.83 67.93"
/>
<path stroke="#793579" vector-effect="non-scaling-stroke" d="
  M 177.10 71.97
  L 110.17 71.95"
/>
<path stroke="#bc1cb2" vector-effect="non-scaling-stroke" d="
  M 186.19 87.79
  Q 180.19 86.77 174.02 85.78
  Q 137.35 79.89 100.84 86.75"
/>
<path stroke="#aa199f" vector-effect="non-scaling-stroke" d="
  M 271.64 189.79
  Q 268.55 215.74 261.12 240.37
  Q 247.61 285.15 222.94 324.59
  C 216.69 334.59 209.13 344.54 201.65 353.92
  C 183.77 376.34 157.09 390.36 128.01 384.79
  C 108.46 381.04 92.48 369.62 79.52 353.71
  Q 54.38 322.84 38.41 288.36
  Q 26.97 263.66 19.92 240.54
  Q 12.60 216.50 9.42 191.21"
/>
<path stroke="#aa199f" vector-effect="non-scaling-stroke" d="
  M 149.91 245.50
  A 9.41 9.41 0.0 0 0 140.50 236.09
  A 9.41 9.41 0.0 0 0 131.09 245.50
  A 9.41 9.41 0.0 0 0 140.50 254.91
  A 9.41 9.41 0.0 0 0 149.91 245.50"
/>
<path stroke="#aa199f" vector-effect="non-scaling-stroke" d="
  M 149.91 296.50
  A 9.41 9.41 0.0 0 0 140.50 287.09
  A 9.41 9.41 0.0 0 0 131.09 296.50
  A 9.41 9.41 0.0 0 0 140.50 305.91
  A 9.41 9.41 0.0 0 0 149.91 296.50"
/>
<path stroke="#aa199f" vector-effect="non-scaling-stroke" d="
  M 149.91 347.50
  A 9.41 9.41 0.0 0 0 140.50 338.09
  A 9.41 9.41 0.0 0 0 131.09 347.50
  A 9.41 9.41 0.0 0 0 140.50 356.91
  A 9.41 9.41 0.0 0 0 149.91 347.50"
/>
<path stroke="#b81dad" vector-effect="non-scaling-stroke" d="
  M 272.15 192.93
  Q 271.63 211.54 268.68 227.68
  Q 263.63 255.28 252.89 282.88
  Q 250.48 289.07 248.00 295.08"
/>
<path stroke="#aa199f" vector-effect="non-scaling-stroke" d="
  M 248.00 295.08
  Q 237.26 320.48 222.62 343.66
  C 216.46 353.40 209.46 362.57 202.53 371.77
  Q 187.79 391.32 165.55 400.36
  A 0.91 0.90 -11.1 0 0 164.98 401.20
  L 164.98 436.41
  A 0.68 0.68 0.0 0 0 165.72 437.09
  C 170.04 436.75 176.89 437.03 180.31 439.98
  C 183.94 443.11 184.87 447.11 184.95 452.01
  Q 185.13 463.77 184.95 481.52
  Q 184.82 494.97 175.50 504.22
  A 0.40 0.40 0.0 0 0 175.64 504.87
  Q 184.44 508.29 184.85 517.22
  Q 185.12 523.06 184.99 565.81
  C 184.97 572.17 182.91 578.36 176.35 580.35
  A 0.37 0.37 0.0 0 0 176.14 580.90
  Q 177.96 583.81 178.49 588.63
  A 1.63 1.44 51.1 0 1 178.47 589.06
  L 177.53 593.04
  A 0.71 0.71 0.0 0 0 177.90 593.83
  C 185.44 597.68 185.12 605.84 184.96 613.78
  Q 184.76 622.95 177.98 626.90
  A 0.81 0.81 0.0 0 0 177.62 627.85
  Q 180.10 635.49 174.58 641.30
  A 0.33 0.32 -59.9 0 0 174.72 641.84
  Q 183.76 644.44 184.67 653.05
  C 185.40 659.94 185.83 669.61 180.93 674.18
  Q 179.96 675.07 167.61 684.97
  A 0.22 0.21 23.9 0 0 167.76 685.35
  C 176.10 684.97 183.18 687.52 184.57 696.40
  Q 185.95 705.22 183.74 713.56
  A 3.11 2.97 -20.4 0 1 183.23 714.61
  Q 180.20 718.73 178.31 719.39
  Q 172.13 721.54 165.63 720.87
  A 0.54 0.53 2.4 0 0 165.04 721.41
  L 165.13 750.35"
/>
<path stroke="#b81dad" vector-effect="non-scaling-stroke" d="
  M 165.13 750.35
  L 165.00 756.95"
/>
<path stroke="#9a178e" vector-effect="non-scaling-stroke" d="
  M 165.00 756.95
  L 119.79 756.99
  A 0.58 0.57 87.8 0 1 119.22 756.45
  L 118.97 752.42"
/>
<path stroke="#aa199f" vector-effect="non-scaling-stroke" d="
  M 118.97 752.42
  L 118.96 721.62
  A 0.61 0.61 0.0 0 0 118.35 721.01
  C 111.76 720.95 105.13 719.62 103.07 712.44
  Q 101.19 705.86 102.57 695.78
  Q 103.26 690.70 106.57 688.03
  Q 117.16 679.51 118.71 678.15
  A 0.51 0.51 0.0 0 0 118.31 677.26
  Q 114.76 677.75 110.30 676.23
  C 101.32 673.18 101.39 661.87 102.36 653.56
  Q 103.71 642.06 115.30 641.68
  A 0.22 0.22 0.0 0 0 115.44 641.29
  C 102.13 629.28 98.78 610.45 105.02 593.99
  Q 107.70 586.91 112.81 581.63
  A 0.42 0.41 -62.1 0 0 112.60 580.93
  C 103.40 578.97 102.21 571.94 102.08 563.75
  Q 101.73 540.49 102.31 517.26
  C 102.38 514.37 102.98 511.78 102.69 508.66
  Q 101.65 497.34 102.41 489.11
  Q 102.92 483.59 106.64 480.14
  Q 112.16 475.02 114.10 472.84
  A 0.32 0.31 -66.4 0 0 113.90 472.32
  C 101.45 471.07 101.26 459.03 102.30 449.34
  C 103.37 439.28 109.45 437.27 118.49 436.92
  A 0.61 0.61 0.0 0 0 119.08 436.31
  L 119.08 401.86
  A 0.81 0.80 9.7 0 0 118.54 401.10
  C 100.88 394.97 88.14 383.37 75.74 367.84
  Q 53.95 340.54 39.43 309.30
  Q 35.69 301.27 31.95 292.98"
/>
<path stroke="#9a178e" vector-effect="non-scaling-stroke" d="
  M 31.95 292.98
  Q 19.99 264.85 13.66 236.07
  Q 11.44 225.97 9.65 211.71
  C 8.89 205.62 9.13 199.65 9.15 194.07
  Q 9.15 193.68 8.96 193.51
  Q 8.71 193.30 8.39 193.28"
/>
<path stroke="#b81dad" vector-effect="non-scaling-stroke" d="
  M 114.64 506.23
  L 132.39 488.49
  A 0.34 0.34 0.0 0 1 132.95 488.59
  Q 138.16 500.36 150.15 501.74
  C 162.10 503.11 172.99 493.79 173.00 481.76
  Q 173.03 451.36 172.99 449.62
  A 0.58 0.58 0.0 0 0 172.41 449.05
  L 114.62 449.05
  A 0.58 0.58 0.0 0 0 114.04 449.63
  L 114.04 460.08
  A 0.61 0.61 0.0 0 0 114.65 460.69
  L 132.69 460.69
  A 0.36 0.36 0.0 0 1 133.05 461.05
  L 133.05 470.16
  A 1.47 1.47 0.0 0 1 132.62 471.20
  L 114.64 489.17
  A 2.13 2.10 -23.1 0 0 114.03 490.65
  L 114.03 505.98
  A 0.36 0.36 0.0 0 0 114.64 506.23"
/>
<path stroke="#b81dad" vector-effect="non-scaling-stroke" d="
  M 114.04 568.74
  A 0.55 0.55 0.0 0 0 114.59 569.29
  L 125.31 569.29
  A 0.55 0.55 0.0 0 0 125.86 568.74
  L 125.86 528.72
  A 0.55 0.55 0.0 0 1 126.41 528.17
  L 136.90 528.17
  A 0.55 0.55 0.0 0 1 137.45 528.72
  L 137.45 556.90
  A 0.55 0.55 0.0 0 0 138.00 557.45
  L 149.03 557.45
  A 0.55 0.55 0.0 0 0 149.58 556.90
  L 149.58 516.86
  A 0.55 0.55 0.0 0 0 149.03 516.31
  L 114.59 516.31
  A 0.55 0.55 0.0 0 0 114.04 516.86
  L 114.04 568.74"
/>
<path stroke="#b81dad" vector-effect="non-scaling-stroke" d="
  M 172.99 516.86
  A 0.55 0.55 0.0 0 0 172.44 516.31
  L 161.70 516.31
  A 0.55 0.55 0.0 0 0 161.15 516.86
  L 161.15 568.74
  A 0.55 0.55 0.0 0 0 161.70 569.29
  L 172.44 569.29
  A 0.55 0.55 0.0 0 0 172.99 568.74
  L 172.99 516.86"
/>
<path stroke="#bf34b8" vector-effect="non-scaling-stroke" d="
  M 114.07 610.24
  Q 114.08 614.62 114.32 616.23
  Q 115.54 624.27 121.86 631.07
  Q 133.19 643.27 150.01 640.88
  C 156.44 639.96 161.84 636.92 166.72 632.51
  A 0.55 0.55 0.0 0 0 166.74 631.72
  L 158.89 623.87
  A 0.68 0.68 0.0 0 0 157.92 623.88
  C 153.95 627.92 147.80 629.74 142.20 628.89
  Q 132.78 627.46 128.11 618.96
  Q 125.85 614.82 125.84 610.22
  Q 125.83 605.62 128.09 601.48
  Q 132.73 592.96 142.14 591.50
  C 147.74 590.63 153.90 592.43 157.88 596.46
  A 0.68 0.68 0.0 0 0 158.85 596.47
  L 166.67 588.59
  A 0.55 0.55 0.0 0 0 166.65 587.80
  C 161.76 583.41 156.35 580.39 149.92 579.49
  Q 133.09 577.15 121.80 589.38
  Q 115.50 596.20 114.30 604.24
  Q 114.06 605.85 114.07 610.24"
/>
<path stroke="#bf34b8" vector-effect="non-scaling-stroke" d="
  M 172.92 604.63
  A 0.43 0.43 0.0 0 0 172.49 604.20
  L 147.47 604.20
  A 0.43 0.43 0.0 0 0 147.04 604.63
  L 147.04 616.05
  A 0.43 0.43 0.0 0 0 147.47 616.48
  L 172.49 616.48
  A 0.43 0.43 0.0 0 0 172.92 616.05
  L 172.92 604.63"
/>
<path stroke="#b81dad" vector-effect="non-scaling-stroke" d="
  M 139.84 676.59
  Q 129.94 684.46 114.69 696.73
  A 1.66 1.65 -19.5 0 0 114.07 698.02
  L 114.07 708.43
  A 0.61 0.60 0.0 0 0 114.68 709.03
  L 172.56 709.03
  A 0.46 0.46 0.0 0 0 173.02 708.57
  L 173.02 697.83
  A 0.53 0.53 0.0 0 0 172.49 697.30
  L 133.64 697.30
  A 0.20 0.20 0.0 0 1 133.51 696.94
  Q 140.34 691.43 147.24 685.95
  Q 157.14 678.07 172.40 665.80
  A 1.66 1.65 -19.5 0 0 173.01 664.51
  L 173.01 654.10
  A 0.61 0.60 0.0 0 0 172.40 653.50
  L 114.52 653.50
  A 0.46 0.46 0.0 0 0 114.06 653.96
  L 114.06 664.70
  A 0.53 0.53 0.0 0 0 114.59 665.23
  L 153.44 665.23
  A 0.20 0.20 0.0 0 1 153.57 665.59
  Q 146.74 671.10 139.84 676.59"
/>
<path stroke="#ca20c0" vector-effect="non-scaling-stroke" d="
  M 185.83 757.05
  L 165.00 756.95"
/>
<path stroke="#da22d0" vector-effect="non-scaling-stroke" d="
  M 165.13 750.35
  Q 179.15 742.56 189.27 730.50
  C 203.95 712.99 214.62 692.14 222.64 670.42
  Q 236.11 633.94 242.22 594.00
  Q 248.86 550.58 248.89 517.50
  Q 249.06 343.31 248.96 297.13
  Q 248.95 296.18 248.00 295.08"
/>
<path stroke="#bc1cb2" vector-effect="non-scaling-stroke" d="
  M 31.95 292.98
  Q 31.73 393.37 31.89 493.63
  Q 31.94 526.68 32.90 541.85
  C 35.20 578.32 40.75 614.13 51.08 649.17
  C 59.46 677.62 71.59 705.75 90.36 728.89
  Q 102.27 743.58 118.97 752.42"
/>
<path stroke="#793579" vector-effect="non-scaling-stroke" d="
  M 177.06 770.05
  L 110.04 770.05"
/>
<path stroke="#bc1cb2" vector-effect="non-scaling-stroke" d="
  M 80.40 756.72
  C 76.35 753.88 71.43 751.24 68.17 748.75
  C 55.10 738.79 46.57 725.32 37.78 711.51
  A 0.83 0.80 -1.0 0 0 37.49 711.24
  Q 36.77 710.87 36.17 711.56"
/>
<path stroke="#b81dad" vector-effect="non-scaling-stroke" d="
  M 160.86 460.70
  L 143.92 460.70
  A 0.29 0.29 0.0 0 0 143.63 460.99
  L 143.63 481.02
  A 8.78 8.66 -90.0 0 0 152.29 489.80
  L 152.49 489.80
  A 8.78 8.66 90.0 0 0 161.15 481.02
  L 161.15 460.99
  A 0.29 0.29 0.0 0 0 160.86 460.70"
/>
<path stroke="#5f6d71" vector-effect="non-scaling-stroke" d="
  M 178.25 773.62
  L 165.09 774.07"
/>
<path stroke="#576467" vector-effect="non-scaling-stroke" d="
  M 165.09 774.07
  L 123.54 774.13"
/>
<path stroke="#4f5a5d" vector-effect="non-scaling-stroke" d="
  M 123.54 774.13
  L 109.75 773.90"
/>
<path stroke="#5f6d71" vector-effect="non-scaling-stroke" d="
  M 171.11 793.85
  Q 170.24 792.78 167.63 792.92"
/>
<path stroke="#718287" vector-effect="non-scaling-stroke" d="
  M 167.63 792.92
  L 165.13 788.10
  A 4.21 3.64 -70.6 0 1 164.84 787.36
  Q 163.41 782.20 164.20 779.48
  Q 164.94 776.94 165.09 774.07"
/>
<path stroke="#616f73" vector-effect="non-scaling-stroke" d="
  M 123.54 774.13
  C 121.91 780.20 120.64 785.18 125.06 790.42
  Q 126.06 791.61 127.10 792.91"
/>
<path stroke="#4f5a5d" vector-effect="non-scaling-stroke" d="
  M 127.10 792.91
  L 115.98 793.38"
/>
<path stroke="#576467" vector-effect="non-scaling-stroke" d="
  M 167.63 792.92
  L 127.10 792.91"
/>
<path stroke="#5f6d71" vector-effect="non-scaling-stroke" d="
  M 171.50 796.87
  L 159.95 797.11"
/>
<path stroke="#576467" vector-effect="non-scaling-stroke" d="
  M 159.95 797.11
  L 127.55 797.10"
/>
<path stroke="#4f5a5d" vector-effect="non-scaling-stroke" d="
  M 127.55 797.10
  L 115.41 796.84"
/>
<path stroke="#616f73" vector-effect="non-scaling-stroke" d="
  M 127.55 797.10
  Q 121.64 808.19 129.64 816.88"
/>
<path stroke="#4f5a5d" vector-effect="non-scaling-stroke" d="
  M 129.64 816.88
  Q 127.13 816.83 122.96 817.14
  Q 122.23 817.20 121.83 818.38"
/>
<path stroke="#5f6d71" vector-effect="non-scaling-stroke" d="
  M 165.11 817.90
  Q 164.27 816.81 161.75 816.86"
/>
<path stroke="#718287" vector-effect="non-scaling-stroke" d="
  M 161.75 816.86
  Q 155.49 807.83 159.95 797.11"
/>
<path stroke="#576467" vector-effect="non-scaling-stroke" d="
  M 161.75 816.86
  L 129.64 816.88"
/>
<path stroke="#5f6d71" vector-effect="non-scaling-stroke" d="
  M 165.21 820.93
  L 153.01 821.06"
/>
<path stroke="#576467" vector-effect="non-scaling-stroke" d="
  M 153.01 821.06
  L 129.60 821.10"
/>
<path stroke="#4f5a5d" vector-effect="non-scaling-stroke" d="
  M 129.60 821.10
  L 122.00 820.97"
/>
<path stroke="#616f73" vector-effect="non-scaling-stroke" d="
  M 129.60 821.10
  Q 129.30 823.52 128.73 825.80
  Q 126.47 834.99 132.90 842.00"
/>
<path stroke="#718287" vector-effect="non-scaling-stroke" d="
  M 153.01 821.06
  Q 149.30 829.81 152.71 837.26
  C 153.47 838.93 155.09 840.35 156.19 842.00"
/>
</g>
<path fill="#586569" d="
  M 132.65 0.00
  Q 127.59 6.00 128.11 13.17
  Q 128.38 17.02 130.04 20.84
  L 121.91 20.82
  C 117.11 14.13 118.08 2.94 126.88 0.00
  L 132.65 0.00
  Z"
/>
<path fill="#69797d" d="
  M 156.65 0.00
  Q 151.07 6.84 152.54 14.90
  Q 153.08 17.86 153.70 20.90
  L 130.04 20.84
  Q 128.38 17.02 128.11 13.17
  Q 127.59 6.00 132.65 0.00
  L 156.65 0.00
  Z"
/>
<path fill="#798b90" d="
  M 161.92 0.00
  Q 166.91 2.81 167.82 9.05
  Q 168.85 16.11 165.42 20.95
  L 153.70 20.90
  Q 153.08 17.86 152.54 14.90
  Q 151.07 6.84 156.65 0.00
  L 161.92 0.00
  Z"
/>
<path fill="#454f51" d="
  M 130.04 20.84
  L 153.70 20.90
  L 165.42 20.95
  Q 164.68 22.19 165.14 24.14
  Q 164.30 25.29 161.84 25.11
  L 129.53 25.03
  Q 125.17 25.46 121.87 24.31
  Q 122.25 22.59 121.91 20.82
  L 130.04 20.84
  Z"
/>
<path fill="#798b90" d="
  M 171.43 45.22
  L 160.91 44.86
  Q 157.92 38.50 159.30 32.07
  C 159.78 29.86 161.08 27.52 161.84 25.11
  Q 164.30 25.29 165.14 24.14
  Q 167.69 23.59 168.71 24.27
  Q 176.07 29.21 174.86 38.23
  Q 174.24 42.88 171.43 45.22
  Z"
/>
<path fill="#586569" d="
  M 121.87 24.31
  Q 125.17 25.46 129.53 25.03
  Q 121.63 34.20 127.62 44.88
  L 116.01 45.04
  Q 109.45 38.50 113.40 30.39
  Q 115.97 25.12 121.87 24.31
  Z"
/>
<path fill="#69797d" d="
  M 161.84 25.11
  C 161.08 27.52 159.78 29.86 159.30 32.07
  Q 157.92 38.50 160.91 44.86
  L 127.62 44.88
  Q 121.63 34.20 129.53 25.03
  L 161.84 25.11
  Z"
/>
<path fill="#454f51" d="
  M 127.62 44.88
  L 160.91 44.86
  L 171.43 45.22
  Q 170.65 46.54 171.07 48.09
  Q 171.04 49.23 168.09 49.07
  L 127.47 49.03
  L 115.83 48.66
  L 116.01 45.04
  L 127.62 44.88
  Z"
/>
<path fill="#798b90" d="
  M 177.78 68.42
  L 166.16 67.96
  Q 162.31 58.15 168.09 49.07
  Q 171.04 49.23 171.07 48.09
  Q 173.89 47.61 176.11 49.63
  Q 178.12 51.47 179.29 53.85
  Q 183.39 62.25 177.78 68.42
  Z"
/>
<path fill="#586569" d="
  M 115.83 48.66
  L 127.47 49.03
  Q 120.69 55.11 122.71 63.22
  Q 123.27 65.44 123.83 67.93
  L 109.72 68.19
  Q 106.99 65.60 106.26 62.07
  Q 105.53 58.54 107.25 55.18
  Q 109.82 50.16 115.83 48.66
  Z"
/>
<path fill="#69797d" d="
  M 168.09 49.07
  Q 162.31 58.15 166.16 67.96
  L 123.83 67.93
  Q 123.27 65.44 122.71 63.22
  Q 120.69 55.11 127.47 49.03
  L 168.09 49.07
  Z"
/>
<path fill="#454f51" d="
  M 123.83 67.93
  L 166.16 67.96
  L 177.78 68.42
  Q 176.73 70.05 177.10 71.97
  L 110.17 71.95
  L 109.72 68.19
  L 123.83 67.93
  Z"
/>
<path fill="#ac1aa1" d="
  M 177.10 71.97
  L 181.40 72.03
  A 2.49 2.46 -16.7 0 1 183.40 73.09
  C 186.66 77.79 185.79 82.46 186.19 87.79
  Q 180.19 86.77 174.02 85.78
  Q 137.35 79.89 100.84 86.75
  C 101.00 80.86 100.67 76.52 104.27 72.43
  A 1.15 1.13 20.1 0 1 105.10 72.05
  L 110.17 71.95
  L 177.10 71.97
  Z"
/>
<path fill="#cc1dc2" d="
  M 186.19 87.79
  Q 207.49 92.65 226.49 102.99
  C 243.30 112.14 259.06 126.34 266.88 143.36
  Q 271.04 152.42 271.62 164.01
  Q 272.28 177.14 271.64 189.79
  Q 268.55 215.74 261.12 240.37
  Q 247.61 285.15 222.94 324.59
  C 216.69 334.59 209.13 344.54 201.65 353.92
  C 183.77 376.34 157.09 390.36 128.01 384.79
  C 108.46 381.04 92.48 369.62 79.52 353.71
  Q 54.38 322.84 38.41 288.36
  Q 26.97 263.66 19.92 240.54
  Q 12.60 216.50 9.42 191.21
  Q 8.55 179.23 9.12 165.24
  C 9.58 153.93 12.73 143.83 19.16 134.42
  C 28.89 120.18 42.31 109.27 57.62 101.37
  Q 78.14 90.78 100.84 86.75
  Q 137.35 79.89 174.02 85.78
  Q 180.19 86.77 186.19 87.79
  Z
  M 149.91 245.50
  A 9.41 9.41 0.0 0 0 140.50 236.09
  A 9.41 9.41 0.0 0 0 131.09 245.50
  A 9.41 9.41 0.0 0 0 140.50 254.91
  A 9.41 9.41 0.0 0 0 149.91 245.50
  Z
  M 149.91 296.50
  A 9.41 9.41 0.0 0 0 140.50 287.09
  A 9.41 9.41 0.0 0 0 131.09 296.50
  A 9.41 9.41 0.0 0 0 140.50 305.91
  A 9.41 9.41 0.0 0 0 149.91 296.50
  Z
  M 149.91 347.50
  A 9.41 9.41 0.0 0 0 140.50 338.09
  A 9.41 9.41 0.0 0 0 131.09 347.50
  A 9.41 9.41 0.0 0 0 140.50 356.91
  A 9.41 9.41 0.0 0 0 149.91 347.50
  Z"
/>
<path fill="#88147b" d="
  M 271.64 189.79
  Q 272.31 191.74 272.15 192.93
  Q 271.63 211.54 268.68 227.68
  Q 263.63 255.28 252.89 282.88
  Q 250.48 289.07 248.00 295.08
  Q 237.26 320.48 222.62 343.66
  C 216.46 353.40 209.46 362.57 202.53 371.77
  Q 187.79 391.32 165.55 400.36
  A 0.91 0.90 -11.1 0 0 164.98 401.20
  L 164.98 436.41
  A 0.68 0.68 0.0 0 0 165.72 437.09
  C 170.04 436.75 176.89 437.03 180.31 439.98
  C 183.94 443.11 184.87 447.11 184.95 452.01
  Q 185.13 463.77 184.95 481.52
  Q 184.82 494.97 175.50 504.22
  A 0.40 0.40 0.0 0 0 175.64 504.87
  Q 184.44 508.29 184.85 517.22
  Q 185.12 523.06 184.99 565.81
  C 184.97 572.17 182.91 578.36 176.35 580.35
  A 0.37 0.37 0.0 0 0 176.14 580.90
  Q 177.96 583.81 178.49 588.63
  A 1.63 1.44 51.1 0 1 178.47 589.06
  L 177.53 593.04
  A 0.71 0.71 0.0 0 0 177.90 593.83
  C 185.44 597.68 185.12 605.84 184.96 613.78
  Q 184.76 622.95 177.98 626.90
  A 0.81 0.81 0.0 0 0 177.62 627.85
  Q 180.10 635.49 174.58 641.30
  A 0.33 0.32 -59.9 0 0 174.72 641.84
  Q 183.76 644.44 184.67 653.05
  C 185.40 659.94 185.83 669.61 180.93 674.18
  Q 179.96 675.07 167.61 684.97
  A 0.22 0.21 23.9 0 0 167.76 685.35
  C 176.10 684.97 183.18 687.52 184.57 696.40
  Q 185.95 705.22 183.74 713.56
  A 3.11 2.97 -20.4 0 1 183.23 714.61
  Q 180.20 718.73 178.31 719.39
  Q 172.13 721.54 165.63 720.87
  A 0.54 0.53 2.4 0 0 165.04 721.41
  L 165.13 750.35
  L 165.00 756.95
  L 119.79 756.99
  A 0.58 0.57 87.8 0 1 119.22 756.45
  L 118.97 752.42
  L 118.96 721.62
  A 0.61 0.61 0.0 0 0 118.35 721.01
  C 111.76 720.95 105.13 719.62 103.07 712.44
  Q 101.19 705.86 102.57 695.78
  Q 103.26 690.70 106.57 688.03
  Q 117.16 679.51 118.71 678.15
  A 0.51 0.51 0.0 0 0 118.31 677.26
  Q 114.76 677.75 110.30 676.23
  C 101.32 673.18 101.39 661.87 102.36 653.56
  Q 103.71 642.06 115.30 641.68
  A 0.22 0.22 0.0 0 0 115.44 641.29
  C 102.13 629.28 98.78 610.45 105.02 593.99
  Q 107.70 586.91 112.81 581.63
  A 0.42 0.41 -62.1 0 0 112.60 580.93
  C 103.40 578.97 102.21 571.94 102.08 563.75
  Q 101.73 540.49 102.31 517.26
  C 102.38 514.37 102.98 511.78 102.69 508.66
  Q 101.65 497.34 102.41 489.11
  Q 102.92 483.59 106.64 480.14
  Q 112.16 475.02 114.10 472.84
  A 0.32 0.31 -66.4 0 0 113.90 472.32
  C 101.45 471.07 101.26 459.03 102.30 449.34
  C 103.37 439.28 109.45 437.27 118.49 436.92
  A 0.61 0.61 0.0 0 0 119.08 436.31
  L 119.08 401.86
  A 0.81 0.80 9.7 0 0 118.54 401.10
  C 100.88 394.97 88.14 383.37 75.74 367.84
  Q 53.95 340.54 39.43 309.30
  Q 35.69 301.27 31.95 292.98
  Q 19.99 264.85 13.66 236.07
  Q 11.44 225.97 9.65 211.71
  C 8.89 205.62 9.13 199.65 9.15 194.07
  Q 9.15 193.68 8.96 193.51
  Q 8.71 193.30 8.39 193.28
  Q 8.58 192.26 9.42 191.21
  Q 12.60 216.50 19.92 240.54
  Q 26.97 263.66 38.41 288.36
  Q 54.38 322.84 79.52 353.71
  C 92.48 369.62 108.46 381.04 128.01 384.79
  C 157.09 390.36 183.77 376.34 201.65 353.92
  C 209.13 344.54 216.69 334.59 222.94 324.59
  Q 247.61 285.15 261.12 240.37
  Q 268.55 215.74 271.64 189.79
  Z
  M 114.64 506.23
  L 132.39 488.49
  A 0.34 0.34 0.0 0 1 132.95 488.59
  Q 138.16 500.36 150.15 501.74
  C 162.10 503.11 172.99 493.79 173.00 481.76
  Q 173.03 451.36 172.99 449.62
  A 0.58 0.58 0.0 0 0 172.41 449.05
  L 114.62 449.05
  A 0.58 0.58 0.0 0 0 114.04 449.63
  L 114.04 460.08
  A 0.61 0.61 0.0 0 0 114.65 460.69
  L 132.69 460.69
  A 0.36 0.36 0.0 0 1 133.05 461.05
  L 133.05 470.16
  A 1.47 1.47 0.0 0 1 132.62 471.20
  L 114.64 489.17
  A 2.13 2.10 -23.1 0 0 114.03 490.65
  L 114.03 505.98
  A 0.36 0.36 0.0 0 0 114.64 506.23
  Z
  M 114.04 568.74
  A 0.55 0.55 0.0 0 0 114.59 569.29
  L 125.31 569.29
  A 0.55 0.55 0.0 0 0 125.86 568.74
  L 125.86 528.72
  A 0.55 0.55 0.0 0 1 126.41 528.17
  L 136.90 528.17
  A 0.55 0.55 0.0 0 1 137.45 528.72
  L 137.45 556.90
  A 0.55 0.55 0.0 0 0 138.00 557.45
  L 149.03 557.45
  A 0.55 0.55 0.0 0 0 149.58 556.90
  L 149.58 516.86
  A 0.55 0.55 0.0 0 0 149.03 516.31
  L 114.59 516.31
  A 0.55 0.55 0.0 0 0 114.04 516.86
  L 114.04 568.74
  Z
  M 172.99 516.86
  A 0.55 0.55 0.0 0 0 172.44 516.31
  L 161.70 516.31
  A 0.55 0.55 0.0 0 0 161.15 516.86
  L 161.15 568.74
  A 0.55 0.55 0.0 0 0 161.70 569.29
  L 172.44 569.29
  A 0.55 0.55 0.0 0 0 172.99 568.74
  L 172.99 516.86
  Z
  M 114.07 610.24
  Q 114.08 614.62 114.32 616.23
  Q 115.54 624.27 121.86 631.07
  Q 133.19 643.27 150.01 640.88
  C 156.44 639.96 161.84 636.92 166.72 632.51
  A 0.55 0.55 0.0 0 0 166.74 631.72
  L 158.89 623.87
  A 0.68 0.68 0.0 0 0 157.92 623.88
  C 153.95 627.92 147.80 629.74 142.20 628.89
  Q 132.78 627.46 128.11 618.96
  Q 125.85 614.82 125.84 610.22
  Q 125.83 605.62 128.09 601.48
  Q 132.73 592.96 142.14 591.50
  C 147.74 590.63 153.90 592.43 157.88 596.46
  A 0.68 0.68 0.0 0 0 158.85 596.47
  L 166.67 588.59
  A 0.55 0.55 0.0 0 0 166.65 587.80
  C 161.76 583.41 156.35 580.39 149.92 579.49
  Q 133.09 577.15 121.80 589.38
  Q 115.50 596.20 114.30 604.24
  Q 114.06 605.85 114.07 610.24
  Z
  M 172.92 604.63
  A 0.43 0.43 0.0 0 0 172.49 604.20
  L 147.47 604.20
  A 0.43 0.43 0.0 0 0 147.04 604.63
  L 147.04 616.05
  A 0.43 0.43 0.0 0 0 147.47 616.48
  L 172.49 616.48
  A 0.43 0.43 0.0 0 0 172.92 616.05
  L 172.92 604.63
  Z
  M 139.84 676.59
  Q 129.94 684.46 114.69 696.73
  A 1.66 1.65 -19.5 0 0 114.07 698.02
  L 114.07 708.43
  A 0.61 0.60 0.0 0 0 114.68 709.03
  L 172.56 709.03
  A 0.46 0.46 0.0 0 0 173.02 708.57
  L 173.02 697.83
  A 0.53 0.53 0.0 0 0 172.49 697.30
  L 133.64 697.30
  A 0.20 0.20 0.0 0 1 133.51 696.94
  Q 140.34 691.43 147.24 685.95
  Q 157.14 678.07 172.40 665.80
  A 1.66 1.65 -19.5 0 0 173.01 664.51
  L 173.01 654.10
  A 0.61 0.60 0.0 0 0 172.40 653.50
  L 114.52 653.50
  A 0.46 0.46 0.0 0 0 114.06 653.96
  L 114.06 664.70
  A 0.53 0.53 0.0 0 0 114.59 665.23
  L 153.44 665.23
  A 0.20 0.20 0.0 0 1 153.57 665.59
  Q 146.74 671.10 139.84 676.59
  Z"
/>
<path fill="#e726de" d="
  M 272.15 192.93
  Q 279.57 198.51 281.00 206.99
  L 281.00 579.16
  Q 279.20 608.30 272.46 636.60
  C 267.04 659.36 259.86 680.94 249.83 701.82
  C 240.31 721.64 227.61 741.93 208.97 753.42
  Q 202.29 757.54 194.23 757.17
  Q 190.18 756.98 185.83 757.05
  L 165.00 756.95
  L 165.13 750.35
  Q 179.15 742.56 189.27 730.50
  C 203.95 712.99 214.62 692.14 222.64 670.42
  Q 236.11 633.94 242.22 594.00
  Q 248.86 550.58 248.89 517.50
  Q 249.06 343.31 248.96 297.13
  Q 248.95 296.18 248.00 295.08
  Q 250.48 289.07 252.89 282.88
  Q 263.63 255.28 268.68 227.68
  Q 271.63 211.54 272.15 192.93
  Z"
/>
<path fill="#ac1aa1" d="
  M 8.39 193.28
  Q 8.71 193.30 8.96 193.51
  Q 9.15 193.68 9.15 194.07
  C 9.13 199.65 8.89 205.62 9.65 211.71
  Q 11.44 225.97 13.66 236.07
  Q 19.99 264.85 31.95 292.98
  Q 31.73 393.37 31.89 493.63
  Q 31.94 526.68 32.90 541.85
  C 35.20 578.32 40.75 614.13 51.08 649.17
  C 59.46 677.62 71.59 705.75 90.36 728.89
  Q 102.27 743.58 118.97 752.42
  L 119.22 756.45
  A 0.58 0.57 87.8 0 0 119.79 756.99
  L 165.00 756.95
  L 185.83 757.05
  Q 186.77 763.89 183.54 768.84
  A 2.51 2.50 -73.8 0 1 181.48 769.98
  L 177.06 770.05
  L 110.04 770.05
  L 104.95 769.90
  A 1.22 1.21 71.3 0 1 104.05 769.45
  C 101.46 766.27 100.72 762.03 100.98 757.99
  A 0.94 0.94 0.0 0 0 100.05 756.99
  L 80.40 756.72
  C 76.35 753.88 71.43 751.24 68.17 748.75
  C 55.10 738.79 46.57 725.32 37.78 711.51
  A 0.83 0.80 -1.0 0 0 37.49 711.24
  Q 36.77 710.87 36.17 711.56
  Q 23.53 688.01 15.61 662.38
  Q 4.02 624.90 0.00 585.73
  L 0.00 207.75
  Q 0.84 198.97 8.39 193.28
  Z"
/>
<circle fill="#88147b" cx="140.50" cy="245.50" r="9.41"/>
<circle fill="#88147b" cx="140.50" cy="296.50" r="9.41"/>
<path fill="#cc1dc2" d="
  M 31.95 292.98
  Q 35.69 301.27 39.43 309.30
  Q 53.95 340.54 75.74 367.84
  C 88.14 383.37 100.88 394.97 118.54 401.10
  A 0.81 0.80 9.7 0 1 119.08 401.86
  L 119.08 436.31
  A 0.61 0.61 0.0 0 1 118.49 436.92
  C 109.45 437.27 103.37 439.28 102.30 449.34
  C 101.26 459.03 101.45 471.07 113.90 472.32
  A 0.32 0.31 -66.4 0 1 114.10 472.84
  Q 112.16 475.02 106.64 480.14
  Q 102.92 483.59 102.41 489.11
  Q 101.65 497.34 102.69 508.66
  C 102.98 511.78 102.38 514.37 102.31 517.26
  Q 101.73 540.49 102.08 563.75
  C 102.21 571.94 103.40 578.97 112.60 580.93
  A 0.42 0.41 -62.1 0 1 112.81 581.63
  Q 107.70 586.91 105.02 593.99
  C 98.78 610.45 102.13 629.28 115.44 641.29
  A 0.22 0.22 0.0 0 1 115.30 641.68
  Q 103.71 642.06 102.36 653.56
  C 101.39 661.87 101.32 673.18 110.30 676.23
  Q 114.76 677.75 118.31 677.26
  A 0.51 0.51 0.0 0 1 118.71 678.15
  Q 117.16 679.51 106.57 688.03
  Q 103.26 690.70 102.57 695.78
  Q 101.19 705.86 103.07 712.44
  C 105.13 719.62 111.76 720.95 118.35 721.01
  A 0.61 0.61 0.0 0 1 118.96 721.62
  L 118.97 752.42
  Q 102.27 743.58 90.36 728.89
  C 71.59 705.75 59.46 677.62 51.08 649.17
  C 40.75 614.13 35.20 578.32 32.90 541.85
  Q 31.94 526.68 31.89 493.63
  Q 31.73 393.37 31.95 292.98
  Z"
/>
<path fill="#cc1dc2" d="
  M 248.00 295.08
  Q 248.95 296.18 248.96 297.13
  Q 249.06 343.31 248.89 517.50
  Q 248.86 550.58 242.22 594.00
  Q 236.11 633.94 222.64 670.42
  C 214.62 692.14 203.95 712.99 189.27 730.50
  Q 179.15 742.56 165.13 750.35
  L 165.04 721.41
  A 0.54 0.53 2.4 0 1 165.63 720.87
  Q 172.13 721.54 178.31 719.39
  Q 180.20 718.73 183.23 714.61
  A 3.11 2.97 -20.4 0 0 183.74 713.56
  Q 185.95 705.22 184.57 696.40
  C 183.18 687.52 176.10 684.97 167.76 685.35
  A 0.22 0.21 23.9 0 1 167.61 684.97
  Q 179.96 675.07 180.93 674.18
  C 185.83 669.61 185.40 659.94 184.67 653.05
  Q 183.76 644.44 174.72 641.84
  A 0.33 0.32 -59.9 0 1 174.58 641.30
  Q 180.10 635.49 177.62 627.85
  A 0.81 0.81 0.0 0 1 177.98 626.90
  Q 184.76 622.95 184.96 613.78
  C 185.12 605.84 185.44 597.68 177.90 593.83
  A 0.71 0.71 0.0 0 1 177.53 593.04
  L 178.47 589.06
  A 1.63 1.44 51.1 0 0 178.49 588.63
  Q 177.96 583.81 176.14 580.90
  A 0.37 0.37 0.0 0 1 176.35 580.35
  C 182.91 578.36 184.97 572.17 184.99 565.81
  Q 185.12 523.06 184.85 517.22
  Q 184.44 508.29 175.64 504.87
  A 0.40 0.40 0.0 0 1 175.50 504.22
  Q 184.82 494.97 184.95 481.52
  Q 185.13 463.77 184.95 452.01
  C 184.87 447.11 183.94 443.11 180.31 439.98
  C 176.89 437.03 170.04 436.75 165.72 437.09
  A 0.68 0.68 0.0 0 1 164.98 436.41
  L 164.98 401.20
  A 0.91 0.90 -11.1 0 1 165.55 400.36
  Q 187.79 391.32 202.53 371.77
  C 209.46 362.57 216.46 353.40 222.62 343.66
  Q 237.26 320.48 248.00 295.08
  Z"
/>
<circle fill="#88147b" cx="140.50" cy="347.50" r="9.41"/>
<path fill="#e726de" d="
  M 114.64 506.23
  A 0.36 0.36 0.0 0 1 114.03 505.98
  L 114.03 490.65
  A 2.13 2.10 -23.1 0 1 114.64 489.17
  L 132.62 471.20
  A 1.47 1.47 0.0 0 0 133.05 470.16
  L 133.05 461.05
  A 0.36 0.36 0.0 0 0 132.69 460.69
  L 114.65 460.69
  A 0.61 0.61 0.0 0 1 114.04 460.08
  L 114.04 449.63
  A 0.58 0.58 0.0 0 1 114.62 449.05
  L 172.41 449.05
  A 0.58 0.58 0.0 0 1 172.99 449.62
  Q 173.03 451.36 173.00 481.76
  C 172.99 493.79 162.10 503.11 150.15 501.74
  Q 138.16 500.36 132.95 488.59
  A 0.34 0.34 0.0 0 0 132.39 488.49
  L 114.64 506.23
  Z
  M 160.86 460.70
  L 143.92 460.70
  A 0.29 0.29 0.0 0 0 143.63 460.99
  L 143.63 481.02
  A 8.78 8.66 -90.0 0 0 152.29 489.80
  L 152.49 489.80
  A 8.78 8.66 90.0 0 0 161.15 481.02
  L 161.15 460.99
  A 0.29 0.29 0.0 0 0 160.86 460.70
  Z"
/>
<path fill="#88147b" d="
  M 160.86 460.70
  A 0.29 0.29 0.0 0 1 161.15 460.99
  L 161.15 481.02
  A 8.78 8.66 -90.0 0 1 152.49 489.80
  L 152.29 489.80
  A 8.78 8.66 -90.0 0 1 143.63 481.02
  L 143.63 460.99
  A 0.29 0.29 0.0 0 1 143.92 460.70
  L 160.86 460.70
  Z"
/>
<path fill="#e726de" d="
  M 114.04 568.74
  L 114.04 516.86
  A 0.55 0.55 0.0 0 1 114.59 516.31
  L 149.03 516.31
  A 0.55 0.55 0.0 0 1 149.58 516.86
  L 149.58 556.90
  A 0.55 0.55 0.0 0 1 149.03 557.45
  L 138.00 557.45
  A 0.55 0.55 0.0 0 1 137.45 556.90
  L 137.45 528.72
  A 0.55 0.55 0.0 0 0 136.90 528.17
  L 126.41 528.17
  A 0.55 0.55 0.0 0 0 125.86 528.72
  L 125.86 568.74
  A 0.55 0.55 0.0 0 1 125.31 569.29
  L 114.59 569.29
  A 0.55 0.55 0.0 0 1 114.04 568.74
  Z"
/>
<rect fill="#e726de" x="161.15" y="516.31" width="11.84" height="52.98" rx="0.55"/>
<path fill="#f653f4" d="
  M 125.84 610.22
  Q 125.85 614.82 128.11 618.96
  Q 132.78 627.46 142.20 628.89
  C 147.80 629.74 153.95 627.92 157.92 623.88
  A 0.68 0.68 0.0 0 1 158.89 623.87
  L 166.74 631.72
  A 0.55 0.55 0.0 0 1 166.72 632.51
  C 161.84 636.92 156.44 639.96 150.01 640.88
  Q 133.19 643.27 121.86 631.07
  Q 115.54 624.27 114.32 616.23
  Q 114.08 614.62 114.07 610.24
  Q 114.06 605.85 114.30 604.24
  Q 115.50 596.20 121.80 589.38
  Q 133.09 577.15 149.92 579.49
  C 156.35 580.39 161.76 583.41 166.65 587.80
  A 0.55 0.55 0.0 0 1 166.67 588.59
  L 158.85 596.47
  A 0.68 0.68 0.0 0 1 157.88 596.46
  C 153.90 592.43 147.74 590.63 142.14 591.50
  Q 132.73 592.96 128.09 601.48
  Q 125.83 605.62 125.84 610.22
  Z"
/>
<rect fill="#f653f4" x="147.04" y="604.20" width="25.88" height="12.28" rx="0.43"/>
<path fill="#e726de" d="
  M 139.84 676.59
  Q 146.74 671.10 153.57 665.59
  A 0.20 0.20 0.0 0 0 153.44 665.23
  L 114.59 665.23
  A 0.53 0.53 0.0 0 1 114.06 664.70
  L 114.06 653.96
  A 0.46 0.46 0.0 0 1 114.52 653.50
  L 172.40 653.50
  A 0.61 0.60 0.0 0 1 173.01 654.10
  L 173.01 664.51
  A 1.66 1.65 -19.5 0 1 172.40 665.80
  Q 157.14 678.07 147.24 685.95
  Q 140.34 691.43 133.51 696.94
  A 0.20 0.20 0.0 0 0 133.64 697.30
  L 172.49 697.30
  A 0.53 0.53 0.0 0 1 173.02 697.83
  L 173.02 708.57
  A 0.46 0.46 0.0 0 1 172.56 709.03
  L 114.68 709.03
  A 0.61 0.60 0.0 0 1 114.07 708.43
  L 114.07 698.02
  A 1.66 1.65 -19.5 0 1 114.69 696.73
  Q 129.94 684.46 139.84 676.59
  Z"
/>
<path fill="#cc1dc2" d="
  M 80.40 756.72
  C 71.80 754.61 63.61 748.34 57.84 742.16
  Q 45.30 728.75 36.17 711.56
  Q 36.77 710.87 37.49 711.24
  A 0.83 0.80 -1.0 0 1 37.78 711.51
  C 46.57 725.32 55.10 738.79 68.17 748.75
  C 71.43 751.24 76.35 753.88 80.40 756.72
  Z"
/>
<path fill="#454f51" d="
  M 177.06 770.05
  Q 176.53 772.69 178.25 773.62
  L 165.09 774.07
  L 123.54 774.13
  L 109.75 773.90
  Q 110.24 772.29 110.04 770.05
  L 177.06 770.05
  Z"
/>
<path fill="#798b90" d="
  M 178.25 773.62
  Q 185.31 784.65 175.57 792.81
  Q 173.60 794.46 171.11 793.85
  Q 170.24 792.78 167.63 792.92
  L 165.13 788.10
  A 4.21 3.64 -70.6 0 1 164.84 787.36
  Q 163.41 782.20 164.20 779.48
  Q 164.94 776.94 165.09 774.07
  L 178.25 773.62
  Z"
/>
<path fill="#586569" d="
  M 109.75 773.90
  L 123.54 774.13
  C 121.91 780.20 120.64 785.18 125.06 790.42
  Q 126.06 791.61 127.10 792.91
  L 115.98 793.38
  Q 107.75 791.45 106.17 783.81
  Q 105.02 778.23 109.75 773.90
  Z"
/>
<path fill="#69797d" d="
  M 165.09 774.07
  Q 164.94 776.94 164.20 779.48
  Q 163.41 782.20 164.84 787.36
  A 4.21 3.64 -70.6 0 0 165.13 788.10
  L 167.63 792.92
  L 127.10 792.91
  Q 126.06 791.61 125.06 790.42
  C 120.64 785.18 121.91 780.20 123.54 774.13
  L 165.09 774.07
  Z"
/>
<path fill="#454f51" d="
  M 127.10 792.91
  L 167.63 792.92
  Q 170.24 792.78 171.11 793.85
  Q 170.64 795.79 171.50 796.87
  L 159.95 797.11
  L 127.55 797.10
  L 115.41 796.84
  Q 116.44 796.48 115.98 793.38
  L 127.10 792.91
  Z"
/>
<path fill="#586569" d="
  M 127.55 797.10
  Q 121.64 808.19 129.64 816.88
  Q 127.13 816.83 122.96 817.14
  Q 122.23 817.20 121.83 818.38
  Q 105.84 811.59 115.41 796.84
  L 127.55 797.10
  Z"
/>
<path fill="#798b90" d="
  M 171.50 796.87
  Q 174.00 799.08 174.70 802.08
  C 175.27 804.50 175.29 809.07 174.00 811.66
  C 172.30 815.06 169.27 818.70 165.11 817.90
  Q 164.27 816.81 161.75 816.86
  Q 155.49 807.83 159.95 797.11
  L 171.50 796.87
  Z"
/>
<path fill="#69797d" d="
  M 159.95 797.11
  Q 155.49 807.83 161.75 816.86
  L 129.64 816.88
  Q 121.64 808.19 127.55 797.10
  L 159.95 797.11
  Z"
/>
<path fill="#454f51" d="
  M 129.64 816.88
  L 161.75 816.86
  Q 164.27 816.81 165.11 817.90
  Q 164.75 819.45 165.21 820.93
  L 153.01 821.06
  L 129.60 821.10
  L 122.00 820.97
  Q 122.15 818.85 121.83 818.38
  Q 122.23 817.20 122.96 817.14
  Q 127.13 816.83 129.64 816.88
  Z"
/>
<path fill="#586569" d="
  M 129.60 821.10
  Q 129.30 823.52 128.73 825.80
  Q 126.47 834.99 132.90 842.00
  L 127.03 842.00
  C 117.81 839.40 117.35 827.67 122.00 820.97
  L 129.60 821.10
  Z"
/>
<path fill="#69797d" d="
  M 153.01 821.06
  Q 149.30 829.81 152.71 837.26
  C 153.47 838.93 155.09 840.35 156.19 842.00
  L 132.90 842.00
  Q 126.47 834.99 128.73 825.80
  Q 129.30 823.52 129.60 821.10
  L 153.01 821.06
  Z"
/>
<path fill="#798b90" d="
  M 165.21 820.93
  C 168.02 824.04 168.32 828.55 167.83 832.73
  Q 167.11 838.89 162.01 842.00
  L 156.19 842.00
  C 155.09 840.35 153.47 838.93 152.71 837.26
  Q 149.30 829.81 153.01 821.06
  L 165.21 820.93
  Z"
/>
</svg>
