<?xml version="1.0" encoding="UTF-8" standalone="no"?>
<!DOCTYPE svg PUBLIC "-//W3C//DTD SVG 1.1//EN" "http://www.w3.org/Graphics/SVG/1.1/DTD/svg11.dtd">
<svg xmlns="http://www.w3.org/2000/svg" version="1.1" viewBox="0.00 0.00 281.00 842.00">
<g stroke-width="2.00" fill="none" stroke-linecap="butt">
<path stroke="#616f73" vector-effect="non-scaling-stroke" d="
  M 132.80 0.00
  Q 124.91 9.07 130.09 20.83"
/>
<path stroke="#4f5a5d" vector-effect="non-scaling-stroke" d="
  M 130.09 20.83
  L 121.89 20.98"
/>
<path stroke="#718287" vector-effect="non-scaling-stroke" d="
  M 156.82 0.00
  C 155.50 2.04 153.79 3.97 153.08 6.19
  Q 150.82 13.23 154.04 20.89"
/>
<path stroke="#576467" vector-effect="non-scaling-stroke" d="
  M 154.04 20.89
  L 130.09 20.83"
/>
<path stroke="#5f6d71" vector-effect="non-scaling-stroke" d="
  M 165.41 21.10
  L 154.04 20.89"
/>
<path stroke="#5f6d71" vector-effect="non-scaling-stroke" d="
  M 165.47 23.88
  Q 164.22 25.27 161.88 25.07"
/>
<path stroke="#576467" vector-effect="non-scaling-stroke" d="
  M 161.88 25.07
  L 129.42 25.01"
/>
<path stroke="#4f5a5d" vector-effect="non-scaling-stroke" d="
  M 129.42 25.01
  Q 124.88 25.40 121.91 24.06"
/>
<path stroke="#616f73" vector-effect="non-scaling-stroke" d="
  M 129.42 25.01
  Q 121.64 34.62 127.65 44.77"
/>
<path stroke="#4f5a5d" vector-effect="non-scaling-stroke" d="
  M 127.65 44.77
  L 115.93 45.16"
/>
<path stroke="#5f6d71" vector-effect="non-scaling-stroke" d="
  M 172.01 45.11
  L 160.79 44.86"
/>
<path stroke="#718287" vector-effect="non-scaling-stroke" d="
  M 160.79 44.86
  Q 156.62 35.08 161.88 25.07"
/>
<path stroke="#576467" vector-effect="non-scaling-stroke" d="
  M 160.79 44.86
  L 127.65 44.77"
/>
<path stroke="#5f6d71" vector-effect="non-scaling-stroke" d="
  M 171.29 48.05
  Q 170.00 49.36 167.96 49.11"
/>
<path stroke="#576467" vector-effect="non-scaling-stroke" d="
  M 167.96 49.11
  L 127.34 49.15"
/>
<path stroke="#4f5a5d" vector-effect="non-scaling-stroke" d="
  M 127.34 49.15
  L 115.76 48.45"
/>
<path stroke="#5f6d71" vector-effect="non-scaling-stroke" d="
  M 177.54 68.69
  L 166.29 67.99"
/>
<path stroke="#718287" vector-effect="non-scaling-stroke" d="
  M 166.29 67.99
  Q 162.22 58.71 167.96 49.11"
/>
<path stroke="#616f73" vector-effect="non-scaling-stroke" d="
  M 127.34 49.15
  Q 120.90 54.92 122.65 62.79
  Q 123.20 65.27 123.86 67.95"
/>
<path stroke="#4f5a5d" vector-effect="non-scaling-stroke" d="
  M 123.86 67.95
  L 109.70 68.27"
/>
<path stroke="#576467" vector-effect="non-scaling-stroke" d="
  M 166.29 67.99
  L 123.86 67.95"
/>
<path stroke="#585d5e" vector-effect="non-scaling-stroke" d="
  M 177.09 71.95
  L 110.05 71.94"
/>
<path stroke="#767676" vector-effect="non-scaling-stroke" d="
  M 185.73 88.02
  Q 143.46 78.60 101.11 86.87"
/>
<path stroke="#6f6f6f" vector-effect="non-scaling-stroke" d="
  M 271.85 186.06
  Q 268.92 215.73 259.89 244.21
  C 248.51 280.06 231.41 315.16 208.62 344.93
  Q 200.66 355.34 196.02 360.30
  C 186.40 370.60 174.07 378.93 160.96 382.85
  C 129.31 392.32 100.08 378.96 79.78 353.95
  Q 54.30 322.55 38.88 289.17
  Q 32.91 276.24 27.91 263.56
  Q 17.45 237.07 12.20 207.71
  Q 10.53 198.41 9.20 189.03"
/>
<path stroke="#6f6f6f" vector-effect="non-scaling-stroke" d="
  M 149.99 245.50
  A 9.49 9.49 0.0 0 0 140.50 236.01
  A 9.49 9.49 0.0 0 0 131.01 245.50
  A 9.49 9.49 0.0 0 0 140.50 254.99
  A 9.49 9.49 0.0 0 0 149.99 245.50"
/>
<path stroke="#6f6f6f" vector-effect="non-scaling-stroke" d="
  M 149.99 296.50
  A 9.49 9.49 0.0 0 0 140.50 287.01
  A 9.49 9.49 0.0 0 0 131.01 296.50
  A 9.49 9.49 0.0 0 0 140.50 305.99
  A 9.49 9.49 0.0 0 0 149.99 296.50"
/>
<path stroke="#6f6f6f" vector-effect="non-scaling-stroke" d="
  M 149.99 347.50
  A 9.49 9.49 0.0 0 0 140.50 338.01
  A 9.49 9.49 0.0 0 0 131.01 347.50
  A 9.49 9.49 0.0 0 0 140.50 356.99
  A 9.49 9.49 0.0 0 0 149.99 347.50"
/>
<path stroke="#828282" vector-effect="non-scaling-stroke" d="
  M 272.08 193.55
  Q 271.77 213.87 267.65 233.46
  Q 261.25 263.94 249.30 292.70
  Q 248.95 293.54 248.62 294.47"
/>
<path stroke="#6f6f6f" vector-effect="non-scaling-stroke" d="
  M 248.62 294.47
  Q 248.53 295.34 247.76 296.03
  A 1.75 1.65 81.5 0 0 247.32 296.66
  Q 232.99 330.52 212.21 358.96
  Q 206.42 366.88 200.52 374.26
  Q 186.12 392.24 165.51 400.40
  A 0.81 0.80 79.3 0 0 165.00 401.15
  L 165.00 436.22
  A 0.86 0.85 -2.7 0 0 165.94 437.07
  C 174.85 436.18 184.24 438.58 184.85 449.43
  Q 185.14 454.37 184.95 483.56
  A 10.68 10.48 52.6 0 1 184.65 485.98
  C 183.88 489.20 183.63 492.14 182.14 495.13
  Q 179.84 499.77 175.54 504.27
  A 0.38 0.38 0.0 0 0 175.69 504.89
  C 182.43 507.23 185.01 512.44 185.01 519.00
  Q 185.01 550.62 184.99 567.13
  A 14.07 14.03 -38.6 0 1 184.63 570.29
  C 184.24 571.92 183.90 573.69 183.11 575.00
  Q 180.71 578.99 176.57 580.36
  A 0.43 0.42 65.8 0 0 176.34 580.98
  Q 177.73 583.36 178.62 588.34
  A 1.41 1.35 -43.9 0 1 178.60 588.86
  L 177.59 593.09
  A 0.75 0.75 0.0 0 0 178.04 593.96
  Q 181.69 595.44 183.33 599.37
  Q 184.93 603.21 184.94 605.26
  C 184.97 614.66 186.03 622.09 178.11 626.89
  A 0.94 0.93 -22.7 0 0 177.68 627.92
  L 178.52 631.38
  A 2.66 2.53 45.5 0 1 178.54 632.57
  L 177.44 637.64
  A 1.09 1.01 71.6 0 1 177.23 638.10
  L 174.45 641.60
  A 0.15 0.15 0.0 0 0 174.54 641.84
  C 181.94 642.98 185.14 649.64 185.06 656.73
  C 184.98 663.35 185.40 667.38 182.59 672.25
  Q 181.72 673.77 177.39 677.21
  Q 168.57 684.21 168.06 684.72
  A 0.27 0.26 20.2 0 0 168.27 685.17
  Q 172.07 684.83 174.24 685.85
  A 2.84 2.78 58.1 0 0 175.22 686.09
  Q 176.73 686.17 177.27 686.44
  Q 183.78 689.61 184.69 696.86
  Q 185.52 703.52 184.69 709.73
  Q 183.84 716.14 178.73 719.25
  A 4.89 4.66 -68.2 0 1 177.81 719.67
  Q 172.23 721.50 165.72 720.91
  A 0.59 0.59 0.0 0 0 165.08 721.50
  L 165.12 750.36"
/>
<path stroke="#828282" vector-effect="non-scaling-stroke" d="
  M 165.12 750.36
  L 165.05 756.98"
/>
<path stroke="#636363" vector-effect="non-scaling-stroke" d="
  M 165.05 756.98
  L 119.79 756.91
  A 0.64 0.62 82.9 0 1 119.18 756.42
  Q 118.70 754.40 118.92 752.33"
/>
<path stroke="#6f6f6f" vector-effect="non-scaling-stroke" d="
  M 118.92 752.33
  L 118.99 721.51
  A 0.50 0.49 87.9 0 0 118.46 721.01
  C 111.95 721.45 104.53 719.31 102.90 712.03
  Q 101.05 703.74 102.56 695.23
  C 103.11 692.15 104.61 689.46 106.90 687.64
  Q 115.20 681.08 118.60 678.21
  A 0.47 0.47 0.0 0 0 118.27 677.39
  Q 114.66 677.62 110.53 676.46
  C 101.43 673.90 101.48 661.90 102.10 654.55
  Q 102.62 648.30 105.78 645.22
  Q 109.42 641.68 115.09 641.63
  A 0.21 0.20 -23.6 0 0 115.23 641.28
  Q 105.92 632.46 103.24 620.82
  Q 98.20 598.92 112.46 581.74
  A 0.47 0.47 0.0 0 0 112.23 580.99
  Q 102.49 578.17 102.17 568.02
  Q 101.60 549.45 102.25 516.26
  A 8.43 7.88 53.3 0 1 102.40 514.92
  Q 103.00 512.01 102.79 510.25
  Q 101.46 499.01 102.26 489.26
  C 102.61 484.94 104.51 481.79 108.24 478.52
  Q 110.38 476.64 113.78 473.08
  A 0.45 0.45 0.0 0 0 113.53 472.33
  L 109.94 471.69
  A 1.61 1.54 -25.7 0 1 109.45 471.53
  C 101.01 467.16 101.56 457.74 102.21 449.24
  C 102.95 439.47 109.98 436.87 118.58 436.96
  A 0.43 0.42 0.0 0 0 119.01 436.54
  L 119.01 401.76
  A 0.62 0.61 -80.9 0 0 118.59 401.17
  C 104.55 396.46 91.40 386.62 81.63 375.11
  Q 57.08 346.19 41.00 312.74
  Q 36.46 303.29 32.22 293.71"
/>
<path stroke="#636363" vector-effect="non-scaling-stroke" d="
  M 32.22 293.71
  Q 15.23 254.83 9.87 212.85
  Q 9.25 208.05 9.13 203.05
  Q 9.02 198.27 9.02 193.19"
/>
<path stroke="#828282" vector-effect="non-scaling-stroke" d="
  M 114.74 505.93
  L 132.27 488.40
  A 0.49 0.49 0.0 0 1 133.07 488.55
  Q 137.94 499.49 148.64 501.37
  C 160.11 503.39 170.29 496.21 172.76 485.02
  A 7.16 7.03 51.6 0 0 172.92 483.52
  L 172.92 449.54
  A 0.45 0.45 0.0 0 0 172.47 449.09
  L 114.74 449.09
  A 0.67 0.67 0.0 0 0 114.07 449.76
  L 114.07 460.01
  A 0.60 0.59 -0.0 0 0 114.67 460.60
  L 132.55 460.60
  A 0.54 0.53 90.0 0 1 133.08 461.14
  L 133.08 470.29
  A 1.61 1.56 -23.1 0 1 132.61 471.41
  L 114.64 489.38
  A 1.96 1.94 67.6 0 0 114.07 490.76
  L 114.07 505.65
  A 0.39 0.39 0.0 0 0 114.74 505.93"
/>
<path stroke="#828282" vector-effect="non-scaling-stroke" d="
  M 149.39 517.06
  A 0.55 0.55 0.0 0 0 148.84 516.51
  L 114.63 516.51
  A 0.55 0.55 0.0 0 0 114.08 517.06
  L 114.08 568.59
  A 0.55 0.55 0.0 0 0 114.63 569.14
  L 125.29 569.14
  A 0.55 0.55 0.0 0 0 125.84 568.59
  L 125.84 528.55
  A 0.55 0.55 0.0 0 1 126.39 528.00
  L 137.09 528.00
  A 0.55 0.55 0.0 0 1 137.64 528.55
  L 137.64 556.80
  A 0.55 0.55 0.0 0 0 138.19 557.35
  L 148.84 557.35
  A 0.55 0.55 0.0 0 0 149.39 556.80
  L 149.39 517.06"
/>
<path stroke="#828282" vector-effect="non-scaling-stroke" d="
  M 172.92 517.01
  A 0.50 0.50 0.0 0 0 172.42 516.51
  L 161.68 516.51
  A 0.50 0.50 0.0 0 0 161.18 517.01
  L 161.18 568.63
  A 0.50 0.50 0.0 0 0 161.68 569.13
  L 172.42 569.13
  A 0.50 0.50 0.0 0 0 172.92 568.63
  L 172.92 517.01"
/>
<path stroke="#a2a2a2" vector-effect="non-scaling-stroke" d="
  M 114.06 610.18
  Q 114.06 612.97 114.26 614.95
  Q 115.21 624.44 122.97 632.05
  C 135.41 644.23 153.89 644.16 166.53 632.50
  A 0.52 0.51 46.1 0 0 166.54 631.76
  L 158.85 624.07
  A 0.71 0.71 0.0 0 0 157.85 624.07
  C 152.32 629.64 143.32 630.69 136.29 627.16
  C 130.00 623.99 125.86 617.65 125.86 610.19
  C 125.86 602.72 130.02 596.38 136.30 593.22
  C 143.34 589.69 152.34 590.75 157.86 596.33
  A 0.71 0.71 0.0 0 0 158.86 596.33
  L 166.56 588.64
  A 0.52 0.51 -46.1 0 0 166.55 587.90
  C 153.92 576.23 135.44 576.15 122.99 588.32
  Q 115.22 595.92 114.26 605.41
  Q 114.07 607.39 114.06 610.18"
/>
<path stroke="#a2a2a2" vector-effect="non-scaling-stroke" d="
  M 172.91 604.78
  A 0.51 0.51 0.0 0 0 172.40 604.27
  L 147.58 604.27
  A 0.51 0.51 0.0 0 0 147.07 604.78
  L 147.07 615.78
  A 0.51 0.51 0.0 0 0 147.58 616.29
  L 172.40 616.29
  A 0.51 0.51 0.0 0 0 172.91 615.78
  L 172.91 604.78"
/>
<path stroke="#828282" vector-effect="non-scaling-stroke" d="
  M 139.78 676.79
  Q 132.27 682.89 114.70 696.95
  A 1.60 1.60 0.0 0 0 114.10 698.20
  L 114.10 708.49
  A 0.47 0.47 0.0 0 0 114.57 708.96
  L 172.58 708.96
  A 0.37 0.37 0.0 0 0 172.95 708.59
  L 172.95 697.91
  A 0.42 0.41 0.0 0 0 172.53 697.50
  L 133.66 697.50
  A 0.36 0.35 -64.1 0 1 133.44 696.87
  Q 140.41 691.41 147.27 685.83
  Q 154.78 679.73 172.35 665.67
  A 1.60 1.60 0.0 0 0 172.95 664.42
  L 172.95 654.13
  A 0.47 0.47 0.0 0 0 172.48 653.66
  L 114.47 653.66
  A 0.37 0.37 0.0 0 0 114.10 654.03
  L 114.10 664.71
  A 0.42 0.41 0.0 0 0 114.52 665.12
  L 153.39 665.12
  A 0.36 0.35 -64.1 0 1 153.60 665.75
  Q 146.63 671.21 139.78 676.79"
/>
<path stroke="#767676" vector-effect="non-scaling-stroke" d="
  M 32.22 293.71
  Q 31.88 295.85 31.88 298.02
  Q 31.85 399.47 31.83 508.48
  C 31.82 562.49 39.34 618.27 57.58 668.87
  Q 68.27 698.54 85.23 722.50
  Q 94.41 735.48 108.24 746.01
  Q 111.20 748.26 118.92 752.33"
/>
<path stroke="#898989" vector-effect="non-scaling-stroke" d="
  M 165.05 756.98
  L 185.91 757.00"
/>
<path stroke="#585d5e" vector-effect="non-scaling-stroke" d="
  M 177.00 770.07
  L 109.97 770.16"
/>
<path stroke="#959595" vector-effect="non-scaling-stroke" d="
  M 165.12 750.36
  Q 172.20 746.73 177.83 741.82
  C 193.83 727.83 205.48 709.52 214.33 690.35
  Q 225.17 666.87 232.10 641.37
  Q 241.89 605.37 245.81 567.79
  Q 248.92 538.04 248.96 511.00
  Q 249.04 462.74 248.99 297.86
  C 248.99 296.72 248.72 295.62 248.62 294.47"
/>
<path stroke="#828282" vector-effect="non-scaling-stroke" d="
  M 160.68 460.59
  L 143.94 460.61
  A 0.49 0.49 0.0 0 0 143.46 461.11
  L 143.49 481.08
  A 8.88 8.75 89.9 0 0 152.26 489.94
  L 152.48 489.94
  A 8.88 8.75 89.9 0 0 161.21 481.04
  L 161.18 461.07
  A 0.49 0.49 0.0 0 0 160.68 460.59"
/>
<path stroke="#5f6d71" vector-effect="non-scaling-stroke" d="
  M 178.10 773.64
  L 165.75 774.08"
/>
<path stroke="#576467" vector-effect="non-scaling-stroke" d="
  M 165.75 774.08
  L 123.49 774.17"
/>
<path stroke="#4f5a5d" vector-effect="non-scaling-stroke" d="
  M 123.49 774.17
  L 109.90 773.59"
/>
<path stroke="#616f73" vector-effect="non-scaling-stroke" d="
  M 123.49 774.17
  C 121.23 781.34 121.14 787.52 127.27 792.88"
/>
<path stroke="#4f5a5d" vector-effect="non-scaling-stroke" d="
  M 127.27 792.88
  L 115.80 793.47"
/>
<path stroke="#5f6d71" vector-effect="non-scaling-stroke" d="
  M 171.56 794.11
  Q 170.12 792.75 167.59 792.91"
/>
<path stroke="#718287" vector-effect="non-scaling-stroke" d="
  M 167.59 792.91
  C 166.63 790.82 165.35 788.90 164.78 786.85
  Q 163.06 780.59 165.75 774.08"
/>
<path stroke="#576467" vector-effect="non-scaling-stroke" d="
  M 167.59 792.91
  L 127.27 792.88"
/>
<path stroke="#5f6d71" vector-effect="non-scaling-stroke" d="
  M 171.68 796.89
  L 159.55 797.10"
/>
<path stroke="#576467" vector-effect="non-scaling-stroke" d="
  M 159.55 797.10
  L 127.38 797.09"
/>
<path stroke="#4f5a5d" vector-effect="non-scaling-stroke" d="
  M 127.38 797.09
  L 115.29 796.82"
/>
<path stroke="#616f73" vector-effect="non-scaling-stroke" d="
  M 127.38 797.09
  C 124.12 804.10 123.83 811.19 129.89 816.88"
/>
<path stroke="#4f5a5d" vector-effect="non-scaling-stroke" d="
  M 129.89 816.88
  Q 126.40 816.83 123.23 817.17
  Q 122.35 817.27 121.88 818.00"
/>
<path stroke="#5f6d71" vector-effect="non-scaling-stroke" d="
  M 165.44 818.12
  Q 164.12 816.76 161.62 816.90"
/>
<path stroke="#718287" vector-effect="non-scaling-stroke" d="
  M 161.62 816.90
  C 160.58 814.66 159.17 812.67 158.60 810.38
  C 157.32 805.17 158.93 801.75 159.55 797.10"
/>
<path stroke="#576467" vector-effect="non-scaling-stroke" d="
  M 161.62 816.90
  L 129.89 816.88"
/>
<path stroke="#5f6d71" vector-effect="non-scaling-stroke" d="
  M 165.36 820.89
  L 152.99 821.06"
/>
<path stroke="#576467" vector-effect="non-scaling-stroke" d="
  M 152.99 821.06
  L 129.57 821.10"
/>
<path stroke="#4f5a5d" vector-effect="non-scaling-stroke" d="
  M 129.57 821.10
  L 121.87 820.95"
/>
<path stroke="#616f73" vector-effect="non-scaling-stroke" d="
  M 129.57 821.10
  Q 129.04 824.05 128.53 826.88
  Q 126.94 835.57 132.86 842.00"
/>
<path stroke="#718287" vector-effect="non-scaling-stroke" d="
  M 156.37 842.00
  Q 147.83 833.82 152.99 821.06"
/>
</g>
<path fill="#586569" d="
  M 132.80 0.00
  Q 124.91 9.07 130.09 20.83
  L 121.89 20.98
  Q 118.12 16.17 119.07 9.51
  Q 120.00 2.94 125.98 0.00
  L 132.80 0.00
  Z"
/>
<path fill="#69797d" d="
  M 156.82 0.00
  C 155.50 2.04 153.79 3.97 153.08 6.19
  Q 150.82 13.23 154.04 20.89
  L 130.09 20.83
  Q 124.91 9.07 132.80 0.00
  L 156.82 0.00
  Z"
/>
<path fill="#798b90" d="
  M 162.38 0.00
  Q 165.94 2.36 167.34 6.26
  C 168.31 8.97 168.03 12.44 167.97 15.49
  Q 167.92 18.10 165.41 21.10
  L 154.04 20.89
  Q 150.82 13.23 153.08 6.19
  C 153.79 3.97 155.50 2.04 156.82 0.00
  L 162.38 0.00
  Z"
/>
<path fill="#454f51" d="
  M 130.09 20.83
  L 154.04 20.89
  L 165.41 21.10
  Q 164.59 23.45 165.47 23.88
  Q 164.22 25.27 161.88 25.07
  L 129.42 25.01
  Q 124.88 25.40 121.91 24.06
  Q 122.53 22.78 121.89 20.98
  L 130.09 20.83
  Z"
/>
<path fill="#586569" d="
  M 121.91 24.06
  Q 124.88 25.40 129.42 25.01
  Q 121.64 34.62 127.65 44.77
  L 115.93 45.16
  Q 110.82 40.41 112.07 33.76
  Q 113.59 25.66 121.91 24.06
  Z"
/>
<path fill="#798b90" d="
  M 172.01 45.11
  L 160.79 44.86
  Q 156.62 35.08 161.88 25.07
  Q 164.22 25.27 165.47 23.88
  Q 172.51 23.98 174.79 32.35
  A 3.83 3.60 37.5 0 1 174.93 33.20
  C 175.18 38.40 175.17 41.22 172.01 45.11
  Z"
/>
<path fill="#69797d" d="
  M 161.88 25.07
  Q 156.62 35.08 160.79 44.86
  L 127.65 44.77
  Q 121.64 34.62 129.42 25.01
  L 161.88 25.07
  Z"
/>
<path fill="#454f51" d="
  M 127.65 44.77
  L 160.79 44.86
  L 172.01 45.11
  Q 170.32 46.66 171.29 48.05
  Q 170.00 49.36 167.96 49.11
  L 127.34 49.15
  L 115.76 48.45
  Q 116.39 46.71 115.93 45.16
  L 127.65 44.77
  Z"
/>
<path fill="#798b90" d="
  M 177.54 68.69
  L 166.29 67.99
  Q 162.22 58.71 167.96 49.11
  Q 170.00 49.36 171.29 48.05
  Q 174.57 47.56 177.47 50.78
  Q 182.04 55.83 180.90 62.50
  Q 180.16 66.86 177.54 68.69
  Z"
/>
<path fill="#586569" d="
  M 115.76 48.45
  L 127.34 49.15
  Q 120.90 54.92 122.65 62.79
  Q 123.20 65.27 123.86 67.95
  L 109.70 68.27
  Q 103.20 62.14 107.33 54.57
  Q 109.81 50.02 115.76 48.45
  Z"
/>
<path fill="#69797d" d="
  M 167.96 49.11
  Q 162.22 58.71 166.29 67.99
  L 123.86 67.95
  Q 123.20 65.27 122.65 62.79
  Q 120.90 54.92 127.34 49.15
  L 167.96 49.11
  Z"
/>
<path fill="#454f51" d="
  M 123.86 67.95
  L 166.29 67.99
  L 177.54 68.69
  Q 176.61 70.66 177.09 71.95
  L 110.05 71.94
  Q 110.28 70.27 109.70 68.27
  L 123.86 67.95
  Z"
/>
<path fill="#6a6a6a" d="
  M 177.09 71.95
  L 180.77 72.08
  A 1.92 1.90 -27.6 0 1 181.71 72.37
  C 185.82 74.95 186.34 83.58 185.73 88.02
  Q 143.46 78.60 101.11 86.87
  C 100.74 82.67 101.48 74.55 105.40 72.32
  A 1.94 1.89 28.9 0 1 106.31 72.07
  L 110.05 71.94
  L 177.09 71.95
  Z"
/>
<path fill="#828282" d="
  M 185.73 88.02
  C 215.92 95.56 247.49 110.49 263.73 138.17
  C 272.18 152.57 272.32 170.14 271.85 186.06
  Q 268.92 215.73 259.89 244.21
  C 248.51 280.06 231.41 315.16 208.62 344.93
  Q 200.66 355.34 196.02 360.30
  C 186.40 370.60 174.07 378.93 160.96 382.85
  C 129.31 392.32 100.08 378.96 79.78 353.95
  Q 54.30 322.55 38.88 289.17
  Q 32.91 276.24 27.91 263.56
  Q 17.45 237.07 12.20 207.71
  Q 10.53 198.41 9.20 189.03
  Q 8.62 176.88 9.43 164.74
  C 10.15 154.01 12.99 144.42 19.08 135.36
  C 37.38 108.16 69.72 93.00 101.11 86.87
  Q 143.46 78.60 185.73 88.02
  Z
  M 149.99 245.50
  A 9.49 9.49 0.0 0 0 140.50 236.01
  A 9.49 9.49 0.0 0 0 131.01 245.50
  A 9.49 9.49 0.0 0 0 140.50 254.99
  A 9.49 9.49 0.0 0 0 149.99 245.50
  Z
  M 149.99 296.50
  A 9.49 9.49 0.0 0 0 140.50 287.01
  A 9.49 9.49 0.0 0 0 131.01 296.50
  A 9.49 9.49 0.0 0 0 140.50 305.99
  A 9.49 9.49 0.0 0 0 149.99 296.50
  Z
  M 149.99 347.50
  A 9.49 9.49 0.0 0 0 140.50 338.01
  A 9.49 9.49 0.0 0 0 131.01 347.50
  A 9.49 9.49 0.0 0 0 140.50 356.99
  A 9.49 9.49 0.0 0 0 149.99 347.50
  Z"
/>
<path fill="#5b5b5b" d="
  M 271.85 186.06
  L 272.08 193.55
  Q 271.77 213.87 267.65 233.46
  Q 261.25 263.94 249.30 292.70
  Q 248.95 293.54 248.62 294.47
  Q 248.53 295.34 247.76 296.03
  A 1.75 1.65 81.5 0 0 247.32 296.66
  Q 232.99 330.52 212.21 358.96
  Q 206.42 366.88 200.52 374.26
  Q 186.12 392.24 165.51 400.40
  A 0.81 0.80 79.3 0 0 165.00 401.15
  L 165.00 436.22
  A 0.86 0.85 -2.7 0 0 165.94 437.07
  C 174.85 436.18 184.24 438.58 184.85 449.43
  Q 185.14 454.37 184.95 483.56
  A 10.68 10.48 52.6 0 1 184.65 485.98
  C 183.88 489.20 183.63 492.14 182.14 495.13
  Q 179.84 499.77 175.54 504.27
  A 0.38 0.38 0.0 0 0 175.69 504.89
  C 182.43 507.23 185.01 512.44 185.01 519.00
  Q 185.01 550.62 184.99 567.13
  A 14.07 14.03 -38.6 0 1 184.63 570.29
  C 184.24 571.92 183.90 573.69 183.11 575.00
  Q 180.71 578.99 176.57 580.36
  A 0.43 0.42 65.8 0 0 176.34 580.98
  Q 177.73 583.36 178.62 588.34
  A 1.41 1.35 -43.9 0 1 178.60 588.86
  L 177.59 593.09
  A 0.75 0.75 0.0 0 0 178.04 593.96
  Q 181.69 595.44 183.33 599.37
  Q 184.93 603.21 184.94 605.26
  C 184.97 614.66 186.03 622.09 178.11 626.89
  A 0.94 0.93 -22.7 0 0 177.68 627.92
  L 178.52 631.38
  A 2.66 2.53 45.5 0 1 178.54 632.57
  L 177.44 637.64
  A 1.09 1.01 71.6 0 1 177.23 638.10
  L 174.45 641.60
  A 0.15 0.15 0.0 0 0 174.54 641.84
  C 181.94 642.98 185.14 649.64 185.06 656.73
  C 184.98 663.35 185.40 667.38 182.59 672.25
  Q 181.72 673.77 177.39 677.21
  Q 168.57 684.21 168.06 684.72
  A 0.27 0.26 20.2 0 0 168.27 685.17
  Q 172.07 684.83 174.24 685.85
  A 2.84 2.78 58.1 0 0 175.22 686.09
  Q 176.73 686.17 177.27 686.44
  Q 183.78 689.61 184.69 696.86
  Q 185.52 703.52 184.69 709.73
  Q 183.84 716.14 178.73 719.25
  A 4.89 4.66 -68.2 0 1 177.81 719.67
  Q 172.23 721.50 165.72 720.91
  A 0.59 0.59 0.0 0 0 165.08 721.50
  L 165.12 750.36
  L 165.05 756.98
  L 119.79 756.91
  A 0.64 0.62 82.9 0 1 119.18 756.42
  Q 118.70 754.40 118.92 752.33
  L 118.99 721.51
  A 0.50 0.49 87.9 0 0 118.46 721.01
  C 111.95 721.45 104.53 719.31 102.90 712.03
  Q 101.05 703.74 102.56 695.23
  C 103.11 692.15 104.61 689.46 106.90 687.64
  Q 115.20 681.08 118.60 678.21
  A 0.47 0.47 0.0 0 0 118.27 677.39
  Q 114.66 677.62 110.53 676.46
  C 101.43 673.90 101.48 661.90 102.10 654.55
  Q 102.62 648.30 105.78 645.22
  Q 109.42 641.68 115.09 641.63
  A 0.21 0.20 -23.6 0 0 115.23 641.28
  Q 105.92 632.46 103.24 620.82
  Q 98.20 598.92 112.46 581.74
  A 0.47 0.47 0.0 0 0 112.23 580.99
  Q 102.49 578.17 102.17 568.02
  Q 101.60 549.45 102.25 516.26
  A 8.43 7.88 53.3 0 1 102.40 514.92
  Q 103.00 512.01 102.79 510.25
  Q 101.46 499.01 102.26 489.26
  C 102.61 484.94 104.51 481.79 108.24 478.52
  Q 110.38 476.64 113.78 473.08
  A 0.45 0.45 0.0 0 0 113.53 472.33
  L 109.94 471.69
  A 1.61 1.54 -25.7 0 1 109.45 471.53
  C 101.01 467.16 101.56 457.74 102.21 449.24
  C 102.95 439.47 109.98 436.87 118.58 436.96
  A 0.43 0.42 0.0 0 0 119.01 436.54
  L 119.01 401.76
  A 0.62 0.61 -80.9 0 0 118.59 401.17
  C 104.55 396.46 91.40 386.62 81.63 375.11
  Q 57.08 346.19 41.00 312.74
  Q 36.46 303.29 32.22 293.71
  Q 15.23 254.83 9.87 212.85
  Q 9.25 208.05 9.13 203.05
  Q 9.02 198.27 9.02 193.19
  L 9.20 189.03
  Q 10.53 198.41 12.20 207.71
  Q 17.45 237.07 27.91 263.56
  Q 32.91 276.24 38.88 289.17
  Q 54.30 322.55 79.78 353.95
  C 100.08 378.96 129.31 392.32 160.96 382.85
  C 174.07 378.93 186.40 370.60 196.02 360.30
  Q 200.66 355.34 208.62 344.93
  C 231.41 315.16 248.51 280.06 259.89 244.21
  Q 268.92 215.73 271.85 186.06
  Z
  M 114.74 505.93
  L 132.27 488.40
  A 0.49 0.49 0.0 0 1 133.07 488.55
  Q 137.94 499.49 148.64 501.37
  C 160.11 503.39 170.29 496.21 172.76 485.02
  A 7.16 7.03 51.6 0 0 172.92 483.52
  L 172.92 449.54
  A 0.45 0.45 0.0 0 0 172.47 449.09
  L 114.74 449.09
  A 0.67 0.67 0.0 0 0 114.07 449.76
  L 114.07 460.01
  A 0.60 0.59 -0.0 0 0 114.67 460.60
  L 132.55 460.60
  A 0.54 0.53 90.0 0 1 133.08 461.14
  L 133.08 470.29
  A 1.61 1.56 -23.1 0 1 132.61 471.41
  L 114.64 489.38
  A 1.96 1.94 67.6 0 0 114.07 490.76
  L 114.07 505.65
  A 0.39 0.39 0.0 0 0 114.74 505.93
  Z
  M 149.39 517.06
  A 0.55 0.55 0.0 0 0 148.84 516.51
  L 114.63 516.51
  A 0.55 0.55 0.0 0 0 114.08 517.06
  L 114.08 568.59
  A 0.55 0.55 0.0 0 0 114.63 569.14
  L 125.29 569.14
  A 0.55 0.55 0.0 0 0 125.84 568.59
  L 125.84 528.55
  A 0.55 0.55 0.0 0 1 126.39 528.00
  L 137.09 528.00
  A 0.55 0.55 0.0 0 1 137.64 528.55
  L 137.64 556.80
  A 0.55 0.55 0.0 0 0 138.19 557.35
  L 148.84 557.35
  A 0.55 0.55 0.0 0 0 149.39 556.80
  L 149.39 517.06
  Z
  M 172.92 517.01
  A 0.50 0.50 0.0 0 0 172.42 516.51
  L 161.68 516.51
  A 0.50 0.50 0.0 0 0 161.18 517.01
  L 161.18 568.63
  A 0.50 0.50 0.0 0 0 161.68 569.13
  L 172.42 569.13
  A 0.50 0.50 0.0 0 0 172.92 568.63
  L 172.92 517.01
  Z
  M 114.06 610.18
  Q 114.06 612.97 114.26 614.95
  Q 115.21 624.44 122.97 632.05
  C 135.41 644.23 153.89 644.16 166.53 632.50
  A 0.52 0.51 46.1 0 0 166.54 631.76
  L 158.85 624.07
  A 0.71 0.71 0.0 0 0 157.85 624.07
  C 152.32 629.64 143.32 630.69 136.29 627.16
  C 130.00 623.99 125.86 617.65 125.86 610.19
  C 125.86 602.72 130.02 596.38 136.30 593.22
  C 143.34 589.69 152.34 590.75 157.86 596.33
  A 0.71 0.71 0.0 0 0 158.86 596.33
  L 166.56 588.64
  A 0.52 0.51 -46.1 0 0 166.55 587.90
  C 153.92 576.23 135.44 576.15 122.99 588.32
  Q 115.22 595.92 114.26 605.41
  Q 114.07 607.39 114.06 610.18
  Z
  M 172.91 604.78
  A 0.51 0.51 0.0 0 0 172.40 604.27
  L 147.58 604.27
  A 0.51 0.51 0.0 0 0 147.07 604.78
  L 147.07 615.78
  A 0.51 0.51 0.0 0 0 147.58 616.29
  L 172.40 616.29
  A 0.51 0.51 0.0 0 0 172.91 615.78
  L 172.91 604.78
  Z
  M 139.78 676.79
  Q 132.27 682.89 114.70 696.95
  A 1.60 1.60 0.0 0 0 114.10 698.20
  L 114.10 708.49
  A 0.47 0.47 0.0 0 0 114.57 708.96
  L 172.58 708.96
  A 0.37 0.37 0.0 0 0 172.95 708.59
  L 172.95 697.91
  A 0.42 0.41 0.0 0 0 172.53 697.50
  L 133.66 697.50
  A 0.36 0.35 -64.1 0 1 133.44 696.87
  Q 140.41 691.41 147.27 685.83
  Q 154.78 679.73 172.35 665.67
  A 1.60 1.60 0.0 0 0 172.95 664.42
  L 172.95 654.13
  A 0.47 0.47 0.0 0 0 172.48 653.66
  L 114.47 653.66
  A 0.37 0.37 0.0 0 0 114.10 654.03
  L 114.10 664.71
  A 0.42 0.41 0.0 0 0 114.52 665.12
  L 153.39 665.12
  A 0.36 0.35 -64.1 0 1 153.60 665.75
  Q 146.63 671.21 139.78 676.79
  Z"
/>
<path fill="#6a6a6a" d="
  M 9.02 193.19
  Q 9.02 198.27 9.13 203.05
  Q 9.25 208.05 9.87 212.85
  Q 15.23 254.83 32.22 293.71
  Q 31.88 295.85 31.88 298.02
  Q 31.85 399.47 31.83 508.48
  C 31.82 562.49 39.34 618.27 57.58 668.87
  Q 68.27 698.54 85.23 722.50
  Q 94.41 735.48 108.24 746.01
  Q 111.20 748.26 118.92 752.33
  Q 118.70 754.40 119.18 756.42
  A 0.64 0.62 82.9 0 0 119.79 756.91
  L 165.05 756.98
  L 185.91 757.00
  Q 186.21 763.37 183.27 768.27
  A 3.49 3.48 -75.3 0 1 180.40 769.95
  L 177.00 770.07
  L 109.97 770.16
  L 106.65 769.92
  A 3.86 3.84 -11.9 0 1 103.52 767.89
  Q 100.90 762.98 101.09 757.68
  A 0.66 0.66 0.0 0 0 100.43 757.00
  L 82.43 757.00
  A 3.19 2.78 48.9 0 1 81.63 756.89
  Q 73.85 754.76 67.38 749.84
  Q 56.37 741.47 47.66 729.06
  Q 35.11 711.20 26.31 689.96
  Q 3.82 635.75 0.00 577.03
  L 0.00 207.55
  Q 1.42 198.65 9.02 193.19
  Z"
/>
<path fill="#a8a8a8" d="
  M 272.08 193.55
  Q 279.64 199.14 281.00 208.74
  L 281.00 572.13
  Q 277.90 637.04 251.74 696.31
  Q 243.04 716.01 231.64 731.36
  C 223.51 742.30 213.29 752.53 200.15 756.64
  A 3.60 3.53 35.6 0 1 199.06 756.81
  L 185.91 757.00
  L 165.05 756.98
  L 165.12 750.36
  Q 172.20 746.73 177.83 741.82
  C 193.83 727.83 205.48 709.52 214.33 690.35
  Q 225.17 666.87 232.10 641.37
  Q 241.89 605.37 245.81 567.79
  Q 248.92 538.04 248.96 511.00
  Q 249.04 462.74 248.99 297.86
  C 248.99 296.72 248.72 295.62 248.62 294.47
  Q 248.95 293.54 249.30 292.70
  Q 261.25 263.94 267.65 233.46
  Q 271.77 213.87 272.08 193.55
  Z"
/>
<circle fill="#5b5b5b" cx="140.50" cy="245.50" r="9.49"/>
<circle fill="#5b5b5b" cx="140.50" cy="296.50" r="9.49"/>
<path fill="#828282" d="
  M 32.22 293.71
  Q 36.46 303.29 41.00 312.74
  Q 57.08 346.19 81.63 375.11
  C 91.40 386.62 104.55 396.46 118.59 401.17
  A 0.62 0.61 -80.9 0 1 119.01 401.76
  L 119.01 436.54
  A 0.43 0.42 -0.0 0 1 118.58 436.96
  C 109.98 436.87 102.95 439.47 102.21 449.24
  C 101.56 457.74 101.01 467.16 109.45 471.53
  A 1.61 1.54 -25.7 0 0 109.94 471.69
  L 113.53 472.33
  A 0.45 0.45 0.0 0 1 113.78 473.08
  Q 110.38 476.64 108.24 478.52
  C 104.51 481.79 102.61 484.94 102.26 489.26
  Q 101.46 499.01 102.79 510.25
  Q 103.00 512.01 102.40 514.92
  A 8.43 7.88 53.3 0 0 102.25 516.26
  Q 101.60 549.45 102.17 568.02
  Q 102.49 578.17 112.23 580.99
  A 0.47 0.47 0.0 0 1 112.46 581.74
  Q 98.20 598.92 103.24 620.82
  Q 105.92 632.46 115.23 641.28
  A 0.21 0.20 -23.6 0 1 115.09 641.63
  Q 109.42 641.68 105.78 645.22
  Q 102.62 648.30 102.10 654.55
  C 101.48 661.90 101.43 673.90 110.53 676.46
  Q 114.66 677.62 118.27 677.39
  A 0.47 0.47 0.0 0 1 118.60 678.21
  Q 115.20 681.08 106.90 687.64
  C 104.61 689.46 103.11 692.15 102.56 695.23
  Q 101.05 703.74 102.90 712.03
  C 104.53 719.31 111.95 721.45 118.46 721.01
  A 0.50 0.49 87.9 0 1 118.99 721.51
  L 118.92 752.33
  Q 111.20 748.26 108.24 746.01
  Q 94.41 735.48 85.23 722.50
  Q 68.27 698.54 57.58 668.87
  C 39.34 618.27 31.82 562.49 31.83 508.48
  Q 31.85 399.47 31.88 298.02
  Q 31.88 295.85 32.22 293.71
  Z"
/>
<path fill="#828282" d="
  M 248.62 294.47
  C 248.72 295.62 248.99 296.72 248.99 297.86
  Q 249.04 462.74 248.96 511.00
  Q 248.92 538.04 245.81 567.79
  Q 241.89 605.37 232.10 641.37
  Q 225.17 666.87 214.33 690.35
  C 205.48 709.52 193.83 727.83 177.83 741.82
  Q 172.20 746.73 165.12 750.36
  L 165.08 721.50
  A 0.59 0.59 0.0 0 1 165.72 720.91
  Q 172.23 721.50 177.81 719.67
  A 4.89 4.66 -68.2 0 0 178.73 719.25
  Q 183.84 716.14 184.69 709.73
  Q 185.52 703.52 184.69 696.86
  Q 183.78 689.61 177.27 686.44
  Q 176.73 686.17 175.22 686.09
  A 2.84 2.78 58.1 0 1 174.24 685.85
  Q 172.07 684.83 168.27 685.17
  A 0.27 0.26 20.2 0 1 168.06 684.72
  Q 168.57 684.21 177.39 677.21
  Q 181.72 673.77 182.59 672.25
  C 185.40 667.38 184.98 663.35 185.06 656.73
  C 185.14 649.64 181.94 642.98 174.54 641.84
  A 0.15 0.15 0.0 0 1 174.45 641.60
  L 177.23 638.10
  A 1.09 1.01 71.6 0 0 177.44 637.64
  L 178.54 632.57
  A 2.66 2.53 45.5 0 0 178.52 631.38
  L 177.68 627.92
  A 0.94 0.93 -22.7 0 1 178.11 626.89
  C 186.03 622.09 184.97 614.66 184.94 605.26
  Q 184.93 603.21 183.33 599.37
  Q 181.69 595.44 178.04 593.96
  A 0.75 0.75 0.0 0 1 177.59 593.09
  L 178.60 588.86
  A 1.41 1.35 -43.9 0 0 178.62 588.34
  Q 177.73 583.36 176.34 580.98
  A 0.43 0.42 65.8 0 1 176.57 580.36
  Q 180.71 578.99 183.11 575.00
  C 183.90 573.69 184.24 571.92 184.63 570.29
  A 14.07 14.03 -38.6 0 0 184.99 567.13
  Q 185.01 550.62 185.01 519.00
  C 185.01 512.44 182.43 507.23 175.69 504.89
  A 0.38 0.38 0.0 0 1 175.54 504.27
  Q 179.84 499.77 182.14 495.13
  C 183.63 492.14 183.88 489.20 184.65 485.98
  A 10.68 10.48 52.6 0 0 184.95 483.56
  Q 185.14 454.37 184.85 449.43
  C 184.24 438.58 174.85 436.18 165.94 437.07
  A 0.86 0.85 -2.7 0 1 165.00 436.22
  L 165.00 401.15
  A 0.81 0.80 79.3 0 1 165.51 400.40
  Q 186.12 392.24 200.52 374.26
  Q 206.42 366.88 212.21 358.96
  Q 232.99 330.52 247.32 296.66
  A 1.75 1.65 81.5 0 1 247.76 296.03
  Q 248.53 295.34 248.62 294.47
  Z"
/>
<circle fill="#5b5b5b" cx="140.50" cy="347.50" r="9.49"/>
<path fill="#a8a8a8" d="
  M 114.74 505.93
  A 0.39 0.39 0.0 0 1 114.07 505.65
  L 114.07 490.76
  A 1.96 1.94 67.6 0 1 114.64 489.38
  L 132.61 471.41
  A 1.61 1.56 -23.1 0 0 133.08 470.29
  L 133.08 461.14
  A 0.54 0.53 -90.0 0 0 132.55 460.60
  L 114.67 460.60
  A 0.60 0.59 0.0 0 1 114.07 460.01
  L 114.07 449.76
  A 0.67 0.67 0.0 0 1 114.74 449.09
  L 172.47 449.09
  A 0.45 0.45 0.0 0 1 172.92 449.54
  L 172.92 483.52
  A 7.16 7.03 51.6 0 1 172.76 485.02
  C 170.29 496.21 160.11 503.39 148.64 501.37
  Q 137.94 499.49 133.07 488.55
  A 0.49 0.49 0.0 0 0 132.27 488.40
  L 114.74 505.93
  Z
  M 160.68 460.59
  L 143.94 460.61
  A 0.49 0.49 0.0 0 0 143.46 461.11
  L 143.49 481.08
  A 8.88 8.75 89.9 0 0 152.26 489.94
  L 152.48 489.94
  A 8.88 8.75 89.9 0 0 161.21 481.04
  L 161.18 461.07
  A 0.49 0.49 0.0 0 0 160.68 460.59
  Z"
/>
<path fill="#5b5b5b" d="
  M 160.68 460.59
  A 0.49 0.49 0.0 0 1 161.18 461.07
  L 161.21 481.04
  A 8.88 8.75 89.9 0 1 152.48 489.94
  L 152.26 489.94
  A 8.88 8.75 89.9 0 1 143.49 481.08
  L 143.46 461.11
  A 0.49 0.49 0.0 0 1 143.94 460.61
  L 160.68 460.59
  Z"
/>
<path fill="#a8a8a8" d="
  M 149.39 517.06
  L 149.39 556.80
  A 0.55 0.55 0.0 0 1 148.84 557.35
  L 138.19 557.35
  A 0.55 0.55 0.0 0 1 137.64 556.80
  L 137.64 528.55
  A 0.55 0.55 0.0 0 0 137.09 528.00
  L 126.39 528.00
  A 0.55 0.55 0.0 0 0 125.84 528.55
  L 125.84 568.59
  A 0.55 0.55 0.0 0 1 125.29 569.14
  L 114.63 569.14
  A 0.55 0.55 0.0 0 1 114.08 568.59
  L 114.08 517.06
  A 0.55 0.55 0.0 0 1 114.63 516.51
  L 148.84 516.51
  A 0.55 0.55 0.0 0 1 149.39 517.06
  Z"
/>
<rect fill="#a8a8a8" x="161.18" y="516.51" width="11.74" height="52.62" rx="0.50"/>
<path fill="#e8e8e8" d="
  M 125.86 610.19
  C 125.86 617.65 130.00 623.99 136.29 627.16
  C 143.32 630.69 152.32 629.64 157.85 624.07
  A 0.71 0.71 0.0 0 1 158.85 624.07
  L 166.54 631.76
  A 0.52 0.51 46.1 0 1 166.53 632.50
  C 153.89 644.16 135.41 644.23 122.97 632.05
  Q 115.21 624.44 114.26 614.95
  Q 114.06 612.97 114.06 610.18
  Q 114.07 607.39 114.26 605.41
  Q 115.22 595.92 122.99 588.32
  C 135.44 576.15 153.92 576.23 166.55 587.90
  A 0.52 0.51 -46.1 0 1 166.56 588.64
  L 158.86 596.33
  A 0.71 0.71 0.0 0 1 157.86 596.33
  C 152.34 590.75 143.34 589.69 136.30 593.22
  C 130.02 596.38 125.86 602.72 125.86 610.19
  Z"
/>
<rect fill="#e8e8e8" x="147.07" y="604.27" width="25.84" height="12.02" rx="0.51"/>
<path fill="#a8a8a8" d="
  M 139.78 676.79
  Q 146.63 671.21 153.60 665.75
  A 0.36 0.35 -64.1 0 0 153.39 665.12
  L 114.52 665.12
  A 0.42 0.41 0.0 0 1 114.10 664.71
  L 114.10 654.03
  A 0.37 0.37 0.0 0 1 114.47 653.66
  L 172.48 653.66
  A 0.47 0.47 0.0 0 1 172.95 654.13
  L 172.95 664.42
  A 1.60 1.60 0.0 0 1 172.35 665.67
  Q 154.78 679.73 147.27 685.83
  Q 140.41 691.41 133.44 696.87
  A 0.36 0.35 -64.1 0 0 133.66 697.50
  L 172.53 697.50
  A 0.42 0.41 0.0 0 1 172.95 697.91
  L 172.95 708.59
  A 0.37 0.37 0.0 0 1 172.58 708.96
  L 114.57 708.96
  A 0.47 0.47 0.0 0 1 114.10 708.49
  L 114.10 698.20
  A 1.60 1.60 0.0 0 1 114.70 696.95
  Q 132.27 682.89 139.78 676.79
  Z"
/>
<path fill="#454f51" d="
  M 177.00 770.07
  Q 176.55 772.25 178.10 773.64
  L 165.75 774.08
  L 123.49 774.17
  L 109.90 773.59
  Q 110.25 771.63 109.97 770.16
  L 177.00 770.07
  Z"
/>
<path fill="#586569" d="
  M 109.90 773.59
  L 123.49 774.17
  C 121.23 781.34 121.14 787.52 127.27 792.88
  L 115.80 793.47
  Q 110.70 792.29 107.95 788.28
  C 104.64 783.43 105.38 777.37 109.90 773.59
  Z"
/>
<path fill="#798b90" d="
  M 178.10 773.64
  Q 180.88 776.34 180.95 779.00
  Q 181.02 781.98 180.92 784.97
  A 2.97 2.79 -36.0 0 1 180.74 785.91
  Q 177.98 793.50 171.56 794.11
  Q 170.12 792.75 167.59 792.91
  C 166.63 790.82 165.35 788.90 164.78 786.85
  Q 163.06 780.59 165.75 774.08
  L 178.10 773.64
  Z"
/>
<path fill="#69797d" d="
  M 165.75 774.08
  Q 163.06 780.59 164.78 786.85
  C 165.35 788.90 166.63 790.82 167.59 792.91
  L 127.27 792.88
  C 121.14 787.52 121.23 781.34 123.49 774.17
  L 165.75 774.08
  Z"
/>
<path fill="#454f51" d="
  M 127.27 792.88
  L 167.59 792.91
  Q 170.12 792.75 171.56 794.11
  Q 170.10 794.52 171.68 796.89
  L 159.55 797.10
  L 127.38 797.09
  L 115.29 796.82
  Q 116.70 795.90 115.80 793.47
  L 127.27 792.88
  Z"
/>
<path fill="#586569" d="
  M 127.38 797.09
  C 124.12 804.10 123.83 811.19 129.89 816.88
  Q 126.40 816.83 123.23 817.17
  Q 122.35 817.27 121.88 818.00
  Q 120.38 818.02 119.81 817.70
  Q 106.37 810.37 115.29 796.82
  L 127.38 797.09
  Z"
/>
<path fill="#798b90" d="
  M 171.68 796.89
  Q 174.52 799.37 174.95 802.75
  Q 175.17 804.48 174.88 809.50
  A 3.33 3.32 57.0 0 1 174.68 810.45
  Q 171.94 817.92 165.44 818.12
  Q 164.12 816.76 161.62 816.90
  C 160.58 814.66 159.17 812.67 158.60 810.38
  C 157.32 805.17 158.93 801.75 159.55 797.10
  L 171.68 796.89
  Z"
/>
<path fill="#69797d" d="
  M 159.55 797.10
  C 158.93 801.75 157.32 805.17 158.60 810.38
  C 159.17 812.67 160.58 814.66 161.62 816.90
  L 129.89 816.88
  C 123.83 811.19 124.12 804.10 127.38 797.09
  L 159.55 797.10
  Z"
/>
<path fill="#454f51" d="
  M 129.89 816.88
  L 161.62 816.90
  Q 164.12 816.76 165.44 818.12
  Q 164.44 818.71 165.36 820.89
  L 152.99 821.06
  L 129.57 821.10
  L 121.87 820.95
  Q 122.35 819.21 121.88 818.00
  Q 122.35 817.27 123.23 817.17
  Q 126.40 816.83 129.89 816.88
  Z"
/>
<path fill="#586569" d="
  M 129.57 821.10
  Q 129.04 824.05 128.53 826.88
  Q 126.94 835.57 132.86 842.00
  L 126.09 842.00
  C 117.81 838.26 117.05 827.57 121.87 820.95
  L 129.57 821.10
  Z"
/>
<path fill="#798b90" d="
  M 165.36 820.89
  Q 167.83 823.72 167.90 826.02
  Q 167.99 828.50 167.98 831.01
  Q 167.98 834.05 167.27 835.90
  Q 165.85 839.60 162.49 842.00
  L 156.37 842.00
  Q 147.83 833.82 152.99 821.06
  L 165.36 820.89
  Z"
/>
<path fill="#69797d" d="
  M 152.99 821.06
  Q 147.83 833.82 156.37 842.00
  L 132.86 842.00
  Q 126.94 835.57 128.53 826.88
  Q 129.04 824.05 129.57 821.10
  L 152.99 821.06
  Z"
/>
</svg>
