<?xml version="1.0" encoding="UTF-8" standalone="no"?>
<!DOCTYPE svg PUBLIC "-//W3C//DTD SVG 1.1//EN" "http://www.w3.org/Graphics/SVG/1.1/DTD/svg11.dtd">
<svg xmlns="http://www.w3.org/2000/svg" version="1.1" viewBox="0.00 0.00 281.00 842.00">
<g stroke-width="2.00" fill="none" stroke-linecap="butt">
<path stroke="#607075" vector-effect="non-scaling-stroke" d="
  M 132.82 0.00
  Q 124.89 9.01 130.09 20.85"
/>
<path stroke="#4e5b5e" vector-effect="non-scaling-stroke" d="
  M 130.09 20.85
  L 121.91 20.82"
/>
<path stroke="#708389" vector-effect="non-scaling-stroke" d="
  M 156.78 0.00
  C 155.41 2.10 153.70 4.11 152.95 6.40
  C 151.30 11.48 152.31 15.38 153.79 20.90"
/>
<path stroke="#566569" vector-effect="non-scaling-stroke" d="
  M 153.79 20.90
  L 130.09 20.85"
/>
<path stroke="#5e6e72" vector-effect="non-scaling-stroke" d="
  M 165.42 20.95
  L 153.79 20.90"
/>
<path stroke="#5e6e72" vector-effect="non-scaling-stroke" d="
  M 165.14 24.15
  Q 164.25 25.29 161.84 25.10"
/>
<path stroke="#566569" vector-effect="non-scaling-stroke" d="
  M 161.84 25.10
  L 129.50 25.03"
/>
<path stroke="#4e5b5e" vector-effect="non-scaling-stroke" d="
  M 129.50 25.03
  Q 125.11 25.46 121.87 24.30"
/>
<path stroke="#5e6e72" vector-effect="non-scaling-stroke" d="
  M 171.47 45.20
  L 160.93 44.87"
/>
<path stroke="#708389" vector-effect="non-scaling-stroke" d="
  M 160.93 44.87
  Q 157.91 38.54 159.30 32.07
  C 159.78 29.86 161.08 27.52 161.84 25.10"
/>
<path stroke="#607075" vector-effect="non-scaling-stroke" d="
  M 129.50 25.03
  Q 121.66 34.24 127.60 44.85"
/>
<path stroke="#4e5b5e" vector-effect="non-scaling-stroke" d="
  M 127.60 44.85
  L 115.96 45.01"
/>
<path stroke="#566569" vector-effect="non-scaling-stroke" d="
  M 160.93 44.87
  L 127.60 44.85"
/>
<path stroke="#5e6e72" vector-effect="non-scaling-stroke" d="
  M 171.16 48.06
  Q 170.39 49.30 167.95 49.08"
/>
<path stroke="#566569" vector-effect="non-scaling-stroke" d="
  M 167.95 49.08
  L 127.35 49.05"
/>
<path stroke="#4e5b5e" vector-effect="non-scaling-stroke" d="
  M 127.35 49.05
  L 116.06 48.60"
/>
<path stroke="#5e6e72" vector-effect="non-scaling-stroke" d="
  M 177.65 68.44
  L 166.41 67.96"
/>
<path stroke="#708389" vector-effect="non-scaling-stroke" d="
  M 166.41 67.96
  Q 162.17 58.90 167.95 49.08"
/>
<path stroke="#607075" vector-effect="non-scaling-stroke" d="
  M 127.35 49.05
  Q 118.59 57.41 124.37 67.92"
/>
<path stroke="#4e5b5e" vector-effect="non-scaling-stroke" d="
  M 124.37 67.92
  L 109.97 68.17"
/>
<path stroke="#566569" vector-effect="non-scaling-stroke" d="
  M 166.41 67.96
  L 124.37 67.92"
/>
<path stroke="#336243" vector-effect="non-scaling-stroke" d="
  M 177.16 71.88
  L 110.11 71.85"
/>
<path stroke="#218034" vector-effect="non-scaling-stroke" d="
  M 185.72 88.05
  Q 176.98 86.03 168.08 84.91
  Q 134.29 80.64 101.11 86.79"
/>
<path stroke="#1e7930" vector-effect="non-scaling-stroke" d="
  M 271.90 192.21
  L 271.19 193.67
  A 3.47 3.34 62.4 0 0 270.90 194.66
  Q 267.61 221.31 258.51 248.50
  Q 244.44 290.50 222.21 325.50
  C 216.21 334.94 208.80 344.64 201.55 354.04
  C 183.40 377.59 155.06 390.90 125.48 384.09
  C 107.85 380.03 93.10 369.51 81.65 356.10
  C 58.19 328.61 41.53 298.49 28.22 264.33
  Q 14.55 229.27 9.88 193.71"
/>
<path stroke="#218034" vector-effect="non-scaling-stroke" d="
  M 9.88 193.71
  L 9.13 191.04"
/>
<path stroke="#1e7930" vector-effect="non-scaling-stroke" d="
  M 149.93 245.50
  A 9.44 9.44 0.0 0 0 140.49 236.06
  A 9.44 9.44 0.0 0 0 131.05 245.50
  A 9.44 9.44 0.0 0 0 140.49 254.94
  A 9.44 9.44 0.0 0 0 149.93 245.50"
/>
<path stroke="#1e7930" vector-effect="non-scaling-stroke" d="
  M 149.94 296.50
  A 9.44 9.44 0.0 0 0 140.50 287.06
  A 9.44 9.44 0.0 0 0 131.06 296.50
  A 9.44 9.44 0.0 0 0 140.50 305.94
  A 9.44 9.44 0.0 0 0 149.94 296.50"
/>
<path stroke="#1e7930" vector-effect="non-scaling-stroke" d="
  M 149.93 347.50
  A 9.44 9.44 0.0 0 0 140.49 338.06
  A 9.44 9.44 0.0 0 0 131.05 347.50
  A 9.44 9.44 0.0 0 0 140.49 356.94
  A 9.44 9.44 0.0 0 0 149.93 347.50"
/>
<path stroke="#1e6c30" vector-effect="non-scaling-stroke" d="
  M 9.88 193.71
  Q 8.49 202.26 9.86 212.89
  C 13.56 241.49 21.49 269.33 32.47 293.92"
/>
<path stroke="#218034" vector-effect="non-scaling-stroke" d="
  M 32.47 293.92
  Q 31.97 297.46 31.97 302.77
  Q 31.81 404.82 31.78 507.63
  Q 31.76 568.18 44.77 625.27
  C 51.67 655.58 61.97 684.76 77.57 710.92
  C 87.48 727.53 101.19 743.36 118.89 752.13"
/>
<path stroke="#1e6c30" vector-effect="non-scaling-stroke" d="
  M 118.89 752.13
  L 119.15 756.47
  A 0.55 0.55 0.0 0 0 119.70 756.99
  L 164.96 756.90"
/>
<path stroke="#269239" vector-effect="non-scaling-stroke" d="
  M 164.96 756.90
  L 185.95 756.97"
/>
<path stroke="#336243" vector-effect="non-scaling-stroke" d="
  M 177.15 770.22
  L 109.95 770.14"
/>
<path stroke="#228b35" vector-effect="non-scaling-stroke" d="
  M 272.13 193.57
  Q 271.69 205.33 271.40 208.53
  Q 269.43 230.29 262.80 253.52
  Q 257.12 273.48 249.27 292.69
  Q 248.70 294.07 248.47 295.52"
/>
<path stroke="#1e7930" vector-effect="non-scaling-stroke" d="
  M 248.47 295.52
  Q 247.65 295.90 247.28 296.78
  Q 233.14 330.18 212.87 357.89
  Q 208.53 363.83 201.95 372.45
  Q 187.31 391.64 165.44 400.43
  A 0.72 0.71 79.0 0 0 165.00 401.09
  L 165.00 436.20
  A 0.82 0.82 0.0 0 0 165.86 437.02
  C 176.90 436.46 184.95 439.24 184.98 451.72
  Q 185.04 474.66 184.95 482.00
  Q 184.78 494.91 175.53 504.24
  A 0.37 0.37 0.0 0 0 175.67 504.85
  Q 184.81 508.10 184.94 518.31
  Q 185.05 527.64 185.01 565.15
  C 185.00 571.77 183.41 578.03 176.52 580.35
  A 0.40 0.39 -24.9 0 0 176.31 580.92
  Q 177.74 583.47 178.57 588.39
  A 1.19 1.09 48.8 0 1 178.56 588.84
  L 177.49 593.13
  A 0.66 0.65 18.6 0 0 177.87 593.88
  C 186.10 597.41 185.17 608.28 184.81 615.41
  Q 184.43 623.03 178.06 626.88
  A 0.89 0.89 0.0 0 0 177.65 627.86
  L 178.50 631.28
  A 1.49 1.20 -57.2 0 1 178.53 631.57
  Q 178.49 637.43 174.42 641.53
  A 0.19 0.19 0.0 0 0 174.53 641.85
  Q 181.14 643.03 183.84 649.43
  Q 184.87 651.87 185.02 656.25
  C 185.29 664.38 185.41 670.91 178.84 676.06
  Q 170.53 682.57 167.71 684.88
  A 0.20 0.20 0.0 0 0 167.84 685.23
  Q 174.45 685.20 177.77 686.79
  Q 183.40 689.49 184.58 696.16
  Q 185.65 702.21 184.50 710.48
  C 183.16 720.13 173.83 721.52 165.94 720.94
  A 0.89 0.88 -87.9 0 0 164.99 721.83
  L 165.18 750.53"
/>
<path stroke="#228b35" vector-effect="non-scaling-stroke" d="
  M 165.18 750.53
  L 164.96 756.90"
/>
<path stroke="#1e7930" vector-effect="non-scaling-stroke" d="
  M 118.89 752.13
  L 118.92 721.48
  A 0.47 0.47 0.0 0 0 118.42 721.01
  Q 113.29 721.35 108.73 719.27
  Q 103.77 717.01 102.65 711.04
  Q 101.13 702.90 102.73 694.50
  C 103.30 691.50 105.16 688.89 107.42 687.18
  Q 110.57 684.80 118.58 678.28
  A 0.53 0.53 0.0 0 0 118.21 677.34
  Q 102.77 678.07 102.11 663.04
  Q 101.78 655.25 102.32 652.54
  Q 104.42 642.02 115.10 641.62
  A 0.23 0.22 65.1 0 0 115.24 641.23
  C 103.23 630.16 99.31 613.34 103.71 597.70
  Q 106.28 588.59 112.82 581.58
  A 0.33 0.33 0.0 0 0 112.65 581.03
  Q 102.96 578.83 102.24 568.47
  Q 101.72 561.01 102.16 518.86
  C 102.19 516.18 102.57 514.67 102.80 512.14
  A 12.24 12.05 44.6 0 0 102.76 509.54
  Q 101.77 501.43 102.15 491.08
  C 102.35 485.71 103.88 482.46 108.31 478.43
  Q 111.70 475.35 113.79 473.11
  A 0.43 0.43 0.0 0 0 113.63 472.42
  C 112.26 471.87 110.65 471.97 109.31 471.34
  Q 103.79 468.76 102.58 462.38
  Q 101.31 455.65 102.43 447.88
  C 103.69 439.13 110.59 436.84 118.38 436.93
  A 0.65 0.64 0.4 0 0 119.04 436.29
  L 119.04 402.02
  A 1.07 1.07 0.0 0 0 118.32 401.01
  Q 97.74 394.03 80.90 374.11
  C 60.57 350.05 44.88 323.53 32.47 293.92"
/>
<path stroke="#268332" vector-effect="non-scaling-stroke" d="
  M 114.71 505.94
  L 132.23 488.41
  A 0.55 0.55 0.0 0 1 133.12 488.58
  Q 138.03 499.91 149.59 501.54
  C 161.10 503.17 172.82 494.23 172.86 482.49
  Q 172.88 476.72 172.88 449.54
  A 0.42 0.42 0.0 0 0 172.46 449.12
  L 114.85 449.12
  A 0.75 0.75 0.0 0 0 114.10 449.87
  L 114.10 459.96
  A 0.63 0.62 90.0 0 0 114.72 460.59
  L 132.62 460.59
  A 0.52 0.52 0.0 0 1 133.14 461.11
  L 133.14 470.09
  A 1.81 1.81 0.0 0 1 132.61 471.37
  L 114.83 489.16
  A 2.52 2.51 -22.4 0 0 114.08 490.95
  L 114.08 505.68
  A 0.37 0.37 0.0 0 0 114.71 505.94"
/>
<path stroke="#268332" vector-effect="non-scaling-stroke" d="
  M 137.60 556.81
  A 0.55 0.55 0.0 0 0 138.15 557.36
  L 148.89 557.36
  A 0.55 0.55 0.0 0 0 149.44 556.81
  L 149.44 516.99
  A 0.55 0.55 0.0 0 0 148.89 516.44
  L 114.63 516.44
  A 0.55 0.55 0.0 0 0 114.08 516.99
  L 114.08 568.64
  A 0.55 0.55 0.0 0 0 114.63 569.19
  L 125.29 569.19
  A 0.55 0.55 0.0 0 0 125.84 568.64
  L 125.84 528.58
  A 0.55 0.55 0.0 0 1 126.39 528.03
  L 137.05 528.03
  A 0.55 0.55 0.0 0 1 137.60 528.58
  L 137.60 556.81"
/>
<path stroke="#268332" vector-effect="non-scaling-stroke" d="
  M 172.88 516.93
  A 0.49 0.49 0.0 0 0 172.39 516.44
  L 161.73 516.44
  A 0.49 0.49 0.0 0 0 161.24 516.93
  L 161.24 568.69
  A 0.49 0.49 0.0 0 0 161.73 569.18
  L 172.39 569.18
  A 0.49 0.49 0.0 0 0 172.88 568.69
  L 172.88 516.93"
/>
<path stroke="#40a349" vector-effect="non-scaling-stroke" d="
  M 114.09 610.21
  Q 114.09 614.39 114.38 615.90
  C 119.20 640.41 148.46 649.24 166.55 632.42
  A 0.40 0.40 0.0 0 0 166.56 631.83
  L 158.92 624.19
  A 0.62 0.62 0.0 0 0 158.08 624.15
  Q 148.95 631.80 138.14 628.03
  C 130.81 625.48 125.79 618.08 125.79 610.20
  C 125.78 602.32 130.79 594.93 138.12 592.36
  Q 148.93 588.59 158.07 596.23
  A 0.62 0.62 0.0 0 0 158.91 596.19
  L 166.54 588.54
  A 0.40 0.40 0.0 0 0 166.53 587.95
  C 148.43 571.15 119.17 580.00 114.38 604.52
  Q 114.08 606.02 114.09 610.21"
/>
<path stroke="#40a349" vector-effect="non-scaling-stroke" d="
  M 172.87 604.77
  A 0.42 0.42 0.0 0 0 172.45 604.35
  L 147.55 604.35
  A 0.42 0.42 0.0 0 0 147.13 604.77
  L 147.13 615.83
  A 0.42 0.42 0.0 0 0 147.55 616.25
  L 172.45 616.25
  A 0.42 0.42 0.0 0 0 172.87 615.83
  L 172.87 604.77"
/>
<path stroke="#268332" vector-effect="non-scaling-stroke" d="
  M 139.78 676.79
  Q 129.99 684.88 114.77 696.80
  A 1.63 1.62 71.3 0 0 114.14 698.09
  L 114.14 708.50
  A 0.45 0.45 0.0 0 0 114.59 708.95
  L 172.56 708.95
  A 0.36 0.35 90.0 0 0 172.91 708.59
  L 172.91 697.91
  A 0.44 0.44 0.0 0 0 172.47 697.47
  L 133.68 697.47
  A 0.39 0.39 0.0 0 1 133.44 696.78
  Q 141.10 690.92 147.27 685.82
  Q 157.05 677.72 172.28 665.80
  A 1.63 1.62 71.3 0 0 172.90 664.51
  L 172.90 654.10
  A 0.45 0.45 0.0 0 0 172.45 653.65
  L 114.48 653.65
  A 0.36 0.35 90.0 0 0 114.13 654.01
  L 114.13 664.69
  A 0.44 0.44 0.0 0 0 114.57 665.13
  L 153.36 665.13
  A 0.39 0.39 0.0 0 1 153.60 665.82
  Q 145.95 671.68 139.78 676.79"
/>
<path stroke="#269f39" vector-effect="non-scaling-stroke" d="
  M 165.18 750.53
  Q 180.75 741.51 191.47 727.95
  Q 201.00 715.90 208.05 702.79
  C 226.02 669.33 236.41 631.46 242.38 593.64
  Q 248.79 553.05 248.94 511.50
  Q 249.07 474.87 248.98 297.78
  Q 248.98 296.77 248.47 295.52"
/>
<path stroke="#268332" vector-effect="non-scaling-stroke" d="
  M 160.92 460.59
  L 143.80 460.59
  A 0.30 0.30 0.0 0 0 143.50 460.89
  L 143.50 481.03
  A 8.90 8.77 90.0 0 0 152.27 489.93
  L 152.45 489.93
  A 8.90 8.77 -90.0 0 0 161.22 481.03
  L 161.22 460.89
  A 0.30 0.30 0.0 0 0 160.92 460.59"
/>
<path stroke="#5e6e72" vector-effect="non-scaling-stroke" d="
  M 177.76 773.61
  L 165.40 774.08"
/>
<path stroke="#566569" vector-effect="non-scaling-stroke" d="
  M 165.40 774.08
  L 124.07 774.05"
/>
<path stroke="#4e5b5e" vector-effect="non-scaling-stroke" d="
  M 124.07 774.05
  L 110.03 773.77"
/>
<path stroke="#5e6e72" vector-effect="non-scaling-stroke" d="
  M 171.17 793.85
  Q 170.24 792.77 167.62 792.90"
/>
<path stroke="#708389" vector-effect="non-scaling-stroke" d="
  M 167.62 792.90
  L 165.15 788.21
  A 3.16 2.92 -69.4 0 1 164.91 787.62
  C 163.35 782.17 164.45 778.89 165.40 774.08"
/>
<path stroke="#607075" vector-effect="non-scaling-stroke" d="
  M 124.07 774.05
  Q 118.57 784.87 127.19 792.89"
/>
<path stroke="#4e5b5e" vector-effect="non-scaling-stroke" d="
  M 127.19 792.89
  L 116.04 793.39"
/>
<path stroke="#566569" vector-effect="non-scaling-stroke" d="
  M 167.62 792.90
  L 127.19 792.89"
/>
<path stroke="#5e6e72" vector-effect="non-scaling-stroke" d="
  M 171.47 796.83
  L 159.96 797.11"
/>
<path stroke="#566569" vector-effect="non-scaling-stroke" d="
  M 159.96 797.11
  L 127.55 797.11"
/>
<path stroke="#4e5b5e" vector-effect="non-scaling-stroke" d="
  M 127.55 797.11
  L 115.87 796.88"
/>
<path stroke="#607075" vector-effect="non-scaling-stroke" d="
  M 127.55 797.11
  Q 121.63 808.15 129.67 816.91"
/>
<path stroke="#4e5b5e" vector-effect="non-scaling-stroke" d="
  M 129.67 816.91
  Q 124.68 816.39 121.76 817.88"
/>
<path stroke="#5e6e72" vector-effect="non-scaling-stroke" d="
  M 165.10 817.91
  Q 164.32 816.82 161.74 816.87"
/>
<path stroke="#708389" vector-effect="non-scaling-stroke" d="
  M 161.74 816.87
  Q 155.50 807.85 159.96 797.11"
/>
<path stroke="#566569" vector-effect="non-scaling-stroke" d="
  M 161.74 816.87
  L 129.67 816.91"
/>
<path stroke="#5e6e72" vector-effect="non-scaling-stroke" d="
  M 165.21 820.92
  L 153.00 821.05"
/>
<path stroke="#566569" vector-effect="non-scaling-stroke" d="
  M 153.00 821.05
  L 129.93 821.08"
/>
<path stroke="#4e5b5e" vector-effect="non-scaling-stroke" d="
  M 129.93 821.08
  L 122.00 820.96"
/>
<path stroke="#607075" vector-effect="non-scaling-stroke" d="
  M 129.93 821.08
  Q 124.92 833.74 133.10 842.00"
/>
<path stroke="#708389" vector-effect="non-scaling-stroke" d="
  M 153.00 821.05
  Q 149.37 829.66 152.60 837.06
  C 153.37 838.82 155.03 840.31 156.19 842.00"
/>
</g>
<path fill="#57666a" d="
  M 132.82 0.00
  Q 124.89 9.01 130.09 20.85
  L 121.91 20.82
  C 117.02 14.09 118.15 3.00 126.87 0.00
  L 132.82 0.00
  Z"
/>
<path fill="#687a7f" d="
  M 156.78 0.00
  C 155.41 2.10 153.70 4.11 152.95 6.40
  C 151.30 11.48 152.31 15.38 153.79 20.90
  L 130.09 20.85
  Q 124.89 9.01 132.82 0.00
  L 156.78 0.00
  Z"
/>
<path fill="#788c92" d="
  M 161.93 0.00
  Q 167.00 2.87 167.85 9.28
  Q 168.77 16.26 165.42 20.95
  L 153.79 20.90
  C 152.31 15.38 151.30 11.48 152.95 6.40
  C 153.70 4.11 155.41 2.10 156.78 0.00
  L 161.93 0.00
  Z"
/>
<path fill="#445052" d="
  M 130.09 20.85
  L 153.79 20.90
  L 165.42 20.95
  Q 164.69 22.20 165.14 24.15
  Q 164.25 25.29 161.84 25.10
  L 129.50 25.03
  Q 125.11 25.46 121.87 24.30
  Q 122.25 22.59 121.91 20.82
  L 130.09 20.85
  Z"
/>
<path fill="#788c92" d="
  M 171.47 45.20
  L 160.93 44.87
  Q 157.91 38.54 159.30 32.07
  C 159.78 29.86 161.08 27.52 161.84 25.10
  Q 164.25 25.29 165.14 24.15
  Q 167.61 23.58 168.70 24.29
  Q 175.63 28.81 175.02 37.25
  Q 174.65 42.41 171.47 45.20
  Z"
/>
<path fill="#57666a" d="
  M 121.87 24.30
  Q 125.11 25.46 129.50 25.03
  Q 121.66 34.24 127.60 44.85
  L 115.96 45.01
  Q 109.55 38.51 113.32 30.56
  Q 115.87 25.15 121.87 24.30
  Z"
/>
<path fill="#687a7f" d="
  M 161.84 25.10
  C 161.08 27.52 159.78 29.86 159.30 32.07
  Q 157.91 38.54 160.93 44.87
  L 127.60 44.85
  Q 121.66 34.24 129.50 25.03
  L 161.84 25.10
  Z"
/>
<path fill="#445052" d="
  M 127.60 44.85
  L 160.93 44.87
  L 171.47 45.20
  Q 170.62 46.67 171.16 48.06
  Q 170.39 49.30 167.95 49.08
  L 127.35 49.05
  L 116.06 48.60
  L 115.96 45.01
  L 127.60 44.85
  Z"
/>
<path fill="#788c92" d="
  M 177.65 68.44
  L 166.41 67.96
  Q 162.17 58.90 167.95 49.08
  Q 170.39 49.30 171.16 48.06
  C 175.10 47.64 177.62 50.55 179.45 53.78
  Q 181.47 57.34 180.89 61.75
  Q 180.30 66.19 177.65 68.44
  Z"
/>
<path fill="#57666a" d="
  M 116.06 48.60
  L 127.35 49.05
  Q 118.59 57.41 124.37 67.92
  L 109.97 68.17
  Q 106.82 65.84 106.38 62.82
  Q 104.74 51.81 116.06 48.60
  Z"
/>
<path fill="#687a7f" d="
  M 167.95 49.08
  Q 162.17 58.90 166.41 67.96
  L 124.37 67.92
  Q 118.59 57.41 127.35 49.05
  L 167.95 49.08
  Z"
/>
<path fill="#445052" d="
  M 124.37 67.92
  L 166.41 67.96
  L 177.65 68.44
  Q 176.98 70.00 177.16 71.88
  L 110.11 71.85
  L 109.97 68.17
  L 124.37 67.92
  Z"
/>
<path fill="#217333" d="
  M 177.16 71.88
  L 180.38 72.07
  A 3.78 3.76 -12.5 0 1 183.48 74.03
  Q 186.80 80.14 185.72 88.05
  Q 176.98 86.03 168.08 84.91
  Q 134.29 80.64 101.11 86.79
  C 100.73 82.57 101.50 74.53 105.46 72.28
  A 1.96 1.85 26.5 0 1 106.29 72.03
  L 110.11 71.85
  L 177.16 71.88
  Z"
/>
<path fill="#218d34" d="
  M 185.72 88.05
  Q 203.07 92.20 219.19 99.83
  C 236.84 108.17 252.18 120.15 262.71 136.57
  C 273.68 153.69 271.83 172.97 271.90 192.21
  L 271.19 193.67
  A 3.47 3.34 62.4 0 0 270.90 194.66
  Q 267.61 221.31 258.51 248.50
  Q 244.44 290.50 222.21 325.50
  C 216.21 334.94 208.80 344.64 201.55 354.04
  C 183.40 377.59 155.06 390.90 125.48 384.09
  C 107.85 380.03 93.10 369.51 81.65 356.10
  C 58.19 328.61 41.53 298.49 28.22 264.33
  Q 14.55 229.27 9.88 193.71
  L 9.13 191.04
  C 8.84 172.33 7.79 153.17 18.11 136.86
  C 36.16 108.34 69.19 93.37 101.11 86.79
  Q 134.29 80.64 168.08 84.91
  Q 176.98 86.03 185.72 88.05
  Z
  M 149.93 245.50
  A 9.44 9.44 0.0 0 0 140.49 236.06
  A 9.44 9.44 0.0 0 0 131.05 245.50
  A 9.44 9.44 0.0 0 0 140.49 254.94
  A 9.44 9.44 0.0 0 0 149.93 245.50
  Z
  M 149.94 296.50
  A 9.44 9.44 0.0 0 0 140.50 287.06
  A 9.44 9.44 0.0 0 0 131.06 296.50
  A 9.44 9.44 0.0 0 0 140.50 305.94
  A 9.44 9.44 0.0 0 0 149.94 296.50
  Z
  M 149.93 347.50
  A 9.44 9.44 0.0 0 0 140.49 338.06
  A 9.44 9.44 0.0 0 0 131.05 347.50
  A 9.44 9.44 0.0 0 0 140.49 356.94
  A 9.44 9.44 0.0 0 0 149.93 347.50
  Z"
/>
<path fill="#217333" d="
  M 9.88 193.71
  Q 8.49 202.26 9.86 212.89
  C 13.56 241.49 21.49 269.33 32.47 293.92
  Q 31.97 297.46 31.97 302.77
  Q 31.81 404.82 31.78 507.63
  Q 31.76 568.18 44.77 625.27
  C 51.67 655.58 61.97 684.76 77.57 710.92
  C 87.48 727.53 101.19 743.36 118.89 752.13
  L 119.15 756.47
  A 0.55 0.55 0.0 0 0 119.70 756.99
  L 164.96 756.90
  L 185.95 756.97
  C 186.03 760.87 185.31 766.76 181.93 769.46
  A 2.22 2.19 23.4 0 1 180.72 769.93
  L 177.15 770.22
  L 109.95 770.14
  L 106.29 769.94
  A 2.12 2.09 -26.4 0 1 105.23 769.59
  C 101.97 767.41 101.06 761.52 101.06 757.63
  A 0.65 0.65 0.0 0 0 100.47 756.99
  Q 100.18 756.96 87.33 757.05
  Q 81.76 757.08 78.35 755.88
  C 66.86 751.83 56.40 740.99 49.17 731.06
  C 32.36 707.99 21.06 680.52 13.33 653.63
  Q 2.54 616.08 0.00 577.06
  L 0.00 207.28
  Q 1.66 198.69 8.56 193.43
  A 1.02 0.99 -16.3 0 0 8.96 192.72
  L 9.13 191.04
  L 9.88 193.71
  Z"
/>
<path fill="#1a642c" d="
  M 271.90 192.21
  L 272.13 193.57
  Q 271.69 205.33 271.40 208.53
  Q 269.43 230.29 262.80 253.52
  Q 257.12 273.48 249.27 292.69
  Q 248.70 294.07 248.47 295.52
  Q 247.65 295.90 247.28 296.78
  Q 233.14 330.18 212.87 357.89
  Q 208.53 363.83 201.95 372.45
  Q 187.31 391.64 165.44 400.43
  A 0.72 0.71 79.0 0 0 165.00 401.09
  L 165.00 436.20
  A 0.82 0.82 0.0 0 0 165.86 437.02
  C 176.90 436.46 184.95 439.24 184.98 451.72
  Q 185.04 474.66 184.95 482.00
  Q 184.78 494.91 175.53 504.24
  A 0.37 0.37 0.0 0 0 175.67 504.85
  Q 184.81 508.10 184.94 518.31
  Q 185.05 527.64 185.01 565.15
  C 185.00 571.77 183.41 578.03 176.52 580.35
  A 0.40 0.39 -24.9 0 0 176.31 580.92
  Q 177.74 583.47 178.57 588.39
  A 1.19 1.09 48.8 0 1 178.56 588.84
  L 177.49 593.13
  A 0.66 0.65 18.6 0 0 177.87 593.88
  C 186.10 597.41 185.17 608.28 184.81 615.41
  Q 184.43 623.03 178.06 626.88
  A 0.89 0.89 0.0 0 0 177.65 627.86
  L 178.50 631.28
  A 1.49 1.20 -57.2 0 1 178.53 631.57
  Q 178.49 637.43 174.42 641.53
  A 0.19 0.19 0.0 0 0 174.53 641.85
  Q 181.14 643.03 183.84 649.43
  Q 184.87 651.87 185.02 656.25
  C 185.29 664.38 185.41 670.91 178.84 676.06
  Q 170.53 682.57 167.71 684.88
  A 0.20 0.20 0.0 0 0 167.84 685.23
  Q 174.45 685.20 177.77 686.79
  Q 183.40 689.49 184.58 696.16
  Q 185.65 702.21 184.50 710.48
  C 183.16 720.13 173.83 721.52 165.94 720.94
  A 0.89 0.88 -87.9 0 0 164.99 721.83
  L 165.18 750.53
  L 164.96 756.90
  L 119.70 756.99
  A 0.55 0.55 0.0 0 1 119.15 756.47
  L 118.89 752.13
  L 118.92 721.48
  A 0.47 0.47 0.0 0 0 118.42 721.01
  Q 113.29 721.35 108.73 719.27
  Q 103.77 717.01 102.65 711.04
  Q 101.13 702.90 102.73 694.50
  C 103.30 691.50 105.16 688.89 107.42 687.18
  Q 110.57 684.80 118.58 678.28
  A 0.53 0.53 0.0 0 0 118.21 677.34
  Q 102.77 678.07 102.11 663.04
  Q 101.78 655.25 102.32 652.54
  Q 104.42 642.02 115.10 641.62
  A 0.23 0.22 65.1 0 0 115.24 641.23
  C 103.23 630.16 99.31 613.34 103.71 597.70
  Q 106.28 588.59 112.82 581.58
  A 0.33 0.33 0.0 0 0 112.65 581.03
  Q 102.96 578.83 102.24 568.47
  Q 101.72 561.01 102.16 518.86
  C 102.19 516.18 102.57 514.67 102.80 512.14
  A 12.24 12.05 44.6 0 0 102.76 509.54
  Q 101.77 501.43 102.15 491.08
  C 102.35 485.71 103.88 482.46 108.31 478.43
  Q 111.70 475.35 113.79 473.11
  A 0.43 0.43 0.0 0 0 113.63 472.42
  C 112.26 471.87 110.65 471.97 109.31 471.34
  Q 103.79 468.76 102.58 462.38
  Q 101.31 455.65 102.43 447.88
  C 103.69 439.13 110.59 436.84 118.38 436.93
  A 0.65 0.64 0.4 0 0 119.04 436.29
  L 119.04 402.02
  A 1.07 1.07 0.0 0 0 118.32 401.01
  Q 97.74 394.03 80.90 374.11
  C 60.57 350.05 44.88 323.53 32.47 293.92
  C 21.49 269.33 13.56 241.49 9.86 212.89
  Q 8.49 202.26 9.88 193.71
  Q 14.55 229.27 28.22 264.33
  C 41.53 298.49 58.19 328.61 81.65 356.10
  C 93.10 369.51 107.85 380.03 125.48 384.09
  C 155.06 390.90 183.40 377.59 201.55 354.04
  C 208.80 344.64 216.21 334.94 222.21 325.50
  Q 244.44 290.50 258.51 248.50
  Q 267.61 221.31 270.90 194.66
  A 3.47 3.34 62.4 0 1 271.19 193.67
  L 271.90 192.21
  Z
  M 114.71 505.94
  L 132.23 488.41
  A 0.55 0.55 0.0 0 1 133.12 488.58
  Q 138.03 499.91 149.59 501.54
  C 161.10 503.17 172.82 494.23 172.86 482.49
  Q 172.88 476.72 172.88 449.54
  A 0.42 0.42 0.0 0 0 172.46 449.12
  L 114.85 449.12
  A 0.75 0.75 0.0 0 0 114.10 449.87
  L 114.10 459.96
  A 0.63 0.62 90.0 0 0 114.72 460.59
  L 132.62 460.59
  A 0.52 0.52 0.0 0 1 133.14 461.11
  L 133.14 470.09
  A 1.81 1.81 0.0 0 1 132.61 471.37
  L 114.83 489.16
  A 2.52 2.51 -22.4 0 0 114.08 490.95
  L 114.08 505.68
  A 0.37 0.37 0.0 0 0 114.71 505.94
  Z
  M 137.60 556.81
  A 0.55 0.55 0.0 0 0 138.15 557.36
  L 148.89 557.36
  A 0.55 0.55 0.0 0 0 149.44 556.81
  L 149.44 516.99
  A 0.55 0.55 0.0 0 0 148.89 516.44
  L 114.63 516.44
  A 0.55 0.55 0.0 0 0 114.08 516.99
  L 114.08 568.64
  A 0.55 0.55 0.0 0 0 114.63 569.19
  L 125.29 569.19
  A 0.55 0.55 0.0 0 0 125.84 568.64
  L 125.84 528.58
  A 0.55 0.55 0.0 0 1 126.39 528.03
  L 137.05 528.03
  A 0.55 0.55 0.0 0 1 137.60 528.58
  L 137.60 556.81
  Z
  M 172.88 516.93
  A 0.49 0.49 0.0 0 0 172.39 516.44
  L 161.73 516.44
  A 0.49 0.49 0.0 0 0 161.24 516.93
  L 161.24 568.69
  A 0.49 0.49 0.0 0 0 161.73 569.18
  L 172.39 569.18
  A 0.49 0.49 0.0 0 0 172.88 568.69
  L 172.88 516.93
  Z
  M 114.09 610.21
  Q 114.09 614.39 114.38 615.90
  C 119.20 640.41 148.46 649.24 166.55 632.42
  A 0.40 0.40 0.0 0 0 166.56 631.83
  L 158.92 624.19
  A 0.62 0.62 0.0 0 0 158.08 624.15
  Q 148.95 631.80 138.14 628.03
  C 130.81 625.48 125.79 618.08 125.79 610.20
  C 125.78 602.32 130.79 594.93 138.12 592.36
  Q 148.93 588.59 158.07 596.23
  A 0.62 0.62 0.0 0 0 158.91 596.19
  L 166.54 588.54
  A 0.40 0.40 0.0 0 0 166.53 587.95
  C 148.43 571.15 119.17 580.00 114.38 604.52
  Q 114.08 606.02 114.09 610.21
  Z
  M 172.87 604.77
  A 0.42 0.42 0.0 0 0 172.45 604.35
  L 147.55 604.35
  A 0.42 0.42 0.0 0 0 147.13 604.77
  L 147.13 615.83
  A 0.42 0.42 0.0 0 0 147.55 616.25
  L 172.45 616.25
  A 0.42 0.42 0.0 0 0 172.87 615.83
  L 172.87 604.77
  Z
  M 139.78 676.79
  Q 129.99 684.88 114.77 696.80
  A 1.63 1.62 71.3 0 0 114.14 698.09
  L 114.14 708.50
  A 0.45 0.45 0.0 0 0 114.59 708.95
  L 172.56 708.95
  A 0.36 0.35 90.0 0 0 172.91 708.59
  L 172.91 697.91
  A 0.44 0.44 0.0 0 0 172.47 697.47
  L 133.68 697.47
  A 0.39 0.39 0.0 0 1 133.44 696.78
  Q 141.10 690.92 147.27 685.82
  Q 157.05 677.72 172.28 665.80
  A 1.63 1.62 71.3 0 0 172.90 664.51
  L 172.90 654.10
  A 0.45 0.45 0.0 0 0 172.45 653.65
  L 114.48 653.65
  A 0.36 0.35 90.0 0 0 114.13 654.01
  L 114.13 664.69
  A 0.44 0.44 0.0 0 0 114.57 665.13
  L 153.36 665.13
  A 0.39 0.39 0.0 0 1 153.60 665.82
  Q 145.95 671.68 139.78 676.79
  Z"
/>
<path fill="#2ab13e" d="
  M 272.13 193.57
  Q 279.67 199.23 281.00 208.74
  L 281.00 572.22
  Q 277.90 636.70 252.07 695.64
  Q 243.32 715.61 231.54 731.51
  C 223.42 742.47 212.67 753.14 199.55 756.75
  A 4.32 4.26 -52.5 0 1 198.39 756.91
  L 185.95 756.97
  L 164.96 756.90
  L 165.18 750.53
  Q 180.75 741.51 191.47 727.95
  Q 201.00 715.90 208.05 702.79
  C 226.02 669.33 236.41 631.46 242.38 593.64
  Q 248.79 553.05 248.94 511.50
  Q 249.07 474.87 248.98 297.78
  Q 248.98 296.77 248.47 295.52
  Q 248.70 294.07 249.27 292.69
  Q 257.12 273.48 262.80 253.52
  Q 269.43 230.29 271.40 208.53
  Q 271.69 205.33 272.13 193.57
  Z"
/>
<circle fill="#1a642c" cx="140.49" cy="245.50" r="9.44"/>
<circle fill="#1a642c" cx="140.50" cy="296.50" r="9.44"/>
<path fill="#218d34" d="
  M 32.47 293.92
  C 44.88 323.53 60.57 350.05 80.90 374.11
  Q 97.74 394.03 118.32 401.01
  A 1.07 1.07 0.0 0 1 119.04 402.02
  L 119.04 436.29
  A 0.65 0.64 0.4 0 1 118.38 436.93
  C 110.59 436.84 103.69 439.13 102.43 447.88
  Q 101.31 455.65 102.58 462.38
  Q 103.79 468.76 109.31 471.34
  C 110.65 471.97 112.26 471.87 113.63 472.42
  A 0.43 0.43 0.0 0 1 113.79 473.11
  Q 111.70 475.35 108.31 478.43
  C 103.88 482.46 102.35 485.71 102.15 491.08
  Q 101.77 501.43 102.76 509.54
  A 12.24 12.05 44.6 0 1 102.80 512.14
  C 102.57 514.67 102.19 516.18 102.16 518.86
  Q 101.72 561.01 102.24 568.47
  Q 102.96 578.83 112.65 581.03
  A 0.33 0.33 0.0 0 1 112.82 581.58
  Q 106.28 588.59 103.71 597.70
  C 99.31 613.34 103.23 630.16 115.24 641.23
  A 0.23 0.22 65.1 0 1 115.10 641.62
  Q 104.42 642.02 102.32 652.54
  Q 101.78 655.25 102.11 663.04
  Q 102.77 678.07 118.21 677.34
  A 0.53 0.53 0.0 0 1 118.58 678.28
  Q 110.57 684.80 107.42 687.18
  C 105.16 688.89 103.30 691.50 102.73 694.50
  Q 101.13 702.90 102.65 711.04
  Q 103.77 717.01 108.73 719.27
  Q 113.29 721.35 118.42 721.01
  A 0.47 0.47 0.0 0 1 118.92 721.48
  L 118.89 752.13
  C 101.19 743.36 87.48 727.53 77.57 710.92
  C 61.97 684.76 51.67 655.58 44.77 625.27
  Q 31.76 568.18 31.78 507.63
  Q 31.81 404.82 31.97 302.77
  Q 31.97 297.46 32.47 293.92
  Z"
/>
<path fill="#218d34" d="
  M 165.18 750.53
  L 164.99 721.83
  A 0.89 0.88 -87.9 0 1 165.94 720.94
  C 173.83 721.52 183.16 720.13 184.50 710.48
  Q 185.65 702.21 184.58 696.16
  Q 183.40 689.49 177.77 686.79
  Q 174.45 685.20 167.84 685.23
  A 0.20 0.20 0.0 0 1 167.71 684.88
  Q 170.53 682.57 178.84 676.06
  C 185.41 670.91 185.29 664.38 185.02 656.25
  Q 184.87 651.87 183.84 649.43
  Q 181.14 643.03 174.53 641.85
  A 0.19 0.19 0.0 0 1 174.42 641.53
  Q 178.49 637.43 178.53 631.57
  A 1.49 1.20 -57.2 0 0 178.50 631.28
  L 177.65 627.86
  A 0.89 0.89 0.0 0 1 178.06 626.88
  Q 184.43 623.03 184.81 615.41
  C 185.17 608.28 186.10 597.41 177.87 593.88
  A 0.66 0.65 18.6 0 1 177.49 593.13
  L 178.56 588.84
  A 1.19 1.09 48.8 0 0 178.57 588.39
  Q 177.74 583.47 176.31 580.92
  A 0.40 0.39 -24.9 0 1 176.52 580.35
  C 183.41 578.03 185.00 571.77 185.01 565.15
  Q 185.05 527.64 184.94 518.31
  Q 184.81 508.10 175.67 504.85
  A 0.37 0.37 0.0 0 1 175.53 504.24
  Q 184.78 494.91 184.95 482.00
  Q 185.04 474.66 184.98 451.72
  C 184.95 439.24 176.90 436.46 165.86 437.02
  A 0.82 0.82 0.0 0 1 165.00 436.20
  L 165.00 401.09
  A 0.72 0.71 79.0 0 1 165.44 400.43
  Q 187.31 391.64 201.95 372.45
  Q 208.53 363.83 212.87 357.89
  Q 233.14 330.18 247.28 296.78
  Q 247.65 295.90 248.47 295.52
  Q 248.98 296.77 248.98 297.78
  Q 249.07 474.87 248.94 511.50
  Q 248.79 553.05 242.38 593.64
  C 236.41 631.46 226.02 669.33 208.05 702.79
  Q 201.00 715.90 191.47 727.95
  Q 180.75 741.51 165.18 750.53
  Z"
/>
<circle fill="#1a642c" cx="140.49" cy="347.50" r="9.44"/>
<path fill="#31a138" d="
  M 114.71 505.94
  A 0.37 0.37 0.0 0 1 114.08 505.68
  L 114.08 490.95
  A 2.52 2.51 -22.4 0 1 114.83 489.16
  L 132.61 471.37
  A 1.81 1.81 0.0 0 0 133.14 470.09
  L 133.14 461.11
  A 0.52 0.52 0.0 0 0 132.62 460.59
  L 114.72 460.59
  A 0.63 0.62 -90.0 0 1 114.10 459.96
  L 114.10 449.87
  A 0.75 0.75 0.0 0 1 114.85 449.12
  L 172.46 449.12
  A 0.42 0.42 0.0 0 1 172.88 449.54
  Q 172.88 476.72 172.86 482.49
  C 172.82 494.23 161.10 503.17 149.59 501.54
  Q 138.03 499.91 133.12 488.58
  A 0.55 0.55 0.0 0 0 132.23 488.41
  L 114.71 505.94
  Z
  M 160.92 460.59
  L 143.80 460.59
  A 0.30 0.30 0.0 0 0 143.50 460.89
  L 143.50 481.03
  A 8.90 8.77 90.0 0 0 152.27 489.93
  L 152.45 489.93
  A 8.90 8.77 -90.0 0 0 161.22 481.03
  L 161.22 460.89
  A 0.30 0.30 0.0 0 0 160.92 460.59
  Z"
/>
<path fill="#1a642c" d="
  M 160.92 460.59
  A 0.30 0.30 0.0 0 1 161.22 460.89
  L 161.22 481.03
  A 8.90 8.77 90.0 0 1 152.45 489.93
  L 152.27 489.93
  A 8.90 8.77 90.0 0 1 143.50 481.03
  L 143.50 460.89
  A 0.30 0.30 0.0 0 1 143.80 460.59
  L 160.92 460.59
  Z"
/>
<path fill="#31a138" d="
  M 137.60 556.81
  L 137.60 528.58
  A 0.55 0.55 0.0 0 0 137.05 528.03
  L 126.39 528.03
  A 0.55 0.55 0.0 0 0 125.84 528.58
  L 125.84 568.64
  A 0.55 0.55 0.0 0 1 125.29 569.19
  L 114.63 569.19
  A 0.55 0.55 0.0 0 1 114.08 568.64
  L 114.08 516.99
  A 0.55 0.55 0.0 0 1 114.63 516.44
  L 148.89 516.44
  A 0.55 0.55 0.0 0 1 149.44 516.99
  L 149.44 556.81
  A 0.55 0.55 0.0 0 1 148.89 557.36
  L 138.15 557.36
  A 0.55 0.55 0.0 0 1 137.60 556.81
  Z"
/>
<rect fill="#31a138" x="161.24" y="516.44" width="11.64" height="52.74" rx="0.49"/>
<path fill="#66e265" d="
  M 125.79 610.20
  C 125.79 618.08 130.81 625.48 138.14 628.03
  Q 148.95 631.80 158.08 624.15
  A 0.62 0.62 0.0 0 1 158.92 624.19
  L 166.56 631.83
  A 0.40 0.40 0.0 0 1 166.55 632.42
  C 148.46 649.24 119.20 640.41 114.38 615.90
  Q 114.09 614.39 114.09 610.21
  Q 114.08 606.02 114.38 604.52
  C 119.17 580.00 148.43 571.15 166.53 587.95
  A 0.40 0.40 0.0 0 1 166.54 588.54
  L 158.91 596.19
  A 0.62 0.62 0.0 0 1 158.07 596.23
  Q 148.93 588.59 138.12 592.36
  C 130.79 594.93 125.78 602.32 125.79 610.20
  Z"
/>
<rect fill="#66e265" x="147.13" y="604.35" width="25.74" height="11.90" rx="0.42"/>
<path fill="#31a138" d="
  M 139.78 676.79
  Q 145.95 671.68 153.60 665.82
  A 0.39 0.39 0.0 0 0 153.36 665.13
  L 114.57 665.13
  A 0.44 0.44 0.0 0 1 114.13 664.69
  L 114.13 654.01
  A 0.36 0.35 -90.0 0 1 114.48 653.65
  L 172.45 653.65
  A 0.45 0.45 0.0 0 1 172.90 654.10
  L 172.90 664.51
  A 1.63 1.62 71.3 0 1 172.28 665.80
  Q 157.05 677.72 147.27 685.82
  Q 141.10 690.92 133.44 696.78
  A 0.39 0.39 0.0 0 0 133.68 697.47
  L 172.47 697.47
  A 0.44 0.44 0.0 0 1 172.91 697.91
  L 172.91 708.59
  A 0.36 0.35 -90.0 0 1 172.56 708.95
  L 114.59 708.95
  A 0.45 0.45 0.0 0 1 114.14 708.50
  L 114.14 698.09
  A 1.63 1.62 71.3 0 1 114.77 696.80
  Q 129.99 684.88 139.78 676.79
  Z"
/>
<path fill="#445052" d="
  M 177.15 770.22
  Q 176.77 772.12 177.76 773.61
  L 165.40 774.08
  L 124.07 774.05
  L 110.03 773.77
  L 109.95 770.14
  L 177.15 770.22
  Z"
/>
<path fill="#788c92" d="
  M 177.76 773.61
  Q 180.02 775.11 180.72 778.52
  Q 182.53 787.38 175.55 792.79
  Q 173.45 794.41 171.17 793.85
  Q 170.24 792.77 167.62 792.90
  L 165.15 788.21
  A 3.16 2.92 -69.4 0 1 164.91 787.62
  C 163.35 782.17 164.45 778.89 165.40 774.08
  L 177.76 773.61
  Z"
/>
<path fill="#57666a" d="
  M 110.03 773.77
  L 124.07 774.05
  Q 118.57 784.87 127.19 792.89
  L 116.04 793.39
  Q 109.05 791.88 106.73 785.78
  Q 104.06 778.77 110.03 773.77
  Z"
/>
<path fill="#687a7f" d="
  M 165.40 774.08
  C 164.45 778.89 163.35 782.17 164.91 787.62
  A 3.16 2.92 -69.4 0 0 165.15 788.21
  L 167.62 792.90
  L 127.19 792.89
  Q 118.57 784.87 124.07 774.05
  L 165.40 774.08
  Z"
/>
<path fill="#445052" d="
  M 127.19 792.89
  L 167.62 792.90
  Q 170.24 792.77 171.17 793.85
  Q 170.74 795.54 171.47 796.83
  L 159.96 797.11
  L 127.55 797.11
  L 115.87 796.88
  Q 116.30 795.43 116.04 793.39
  L 127.19 792.89
  Z"
/>
<path fill="#57666a" d="
  M 115.87 796.88
  L 127.55 797.11
  Q 121.63 808.15 129.67 816.91
  Q 124.68 816.39 121.76 817.88
  Q 113.61 816.34 112.07 808.24
  Q 110.81 801.66 115.87 796.88
  Z"
/>
<path fill="#788c92" d="
  M 171.47 796.83
  Q 173.98 799.03 174.70 802.07
  C 175.29 804.54 175.30 809.24 173.90 811.89
  C 172.13 815.24 169.22 818.66 165.10 817.91
  Q 164.32 816.82 161.74 816.87
  Q 155.50 807.85 159.96 797.11
  L 171.47 796.83
  Z"
/>
<path fill="#687a7f" d="
  M 159.96 797.11
  Q 155.50 807.85 161.74 816.87
  L 129.67 816.91
  Q 121.63 808.15 127.55 797.11
  L 159.96 797.11
  Z"
/>
<path fill="#445052" d="
  M 129.67 816.91
  L 161.74 816.87
  Q 164.32 816.82 165.10 817.91
  Q 164.73 819.47 165.21 820.92
  L 153.00 821.05
  L 129.93 821.08
  L 122.00 820.96
  Q 122.20 819.20 121.76 817.88
  Q 124.68 816.39 129.67 816.91
  Z"
/>
<path fill="#57666a" d="
  M 129.93 821.08
  Q 124.92 833.74 133.10 842.00
  L 127.03 842.00
  C 117.81 839.40 117.35 827.68 122.00 820.96
  L 129.93 821.08
  Z"
/>
<path fill="#687a7f" d="
  M 153.00 821.05
  Q 149.37 829.66 152.60 837.06
  C 153.37 838.82 155.03 840.31 156.19 842.00
  L 133.10 842.00
  Q 124.92 833.74 129.93 821.08
  L 153.00 821.05
  Z"
/>
<path fill="#788c92" d="
  M 165.21 820.92
  Q 167.50 823.58 167.89 827.04
  C 168.57 832.99 167.42 838.70 162.01 842.00
  L 156.19 842.00
  C 155.03 840.31 153.37 838.82 152.60 837.06
  Q 149.37 829.66 153.00 821.05
  L 165.21 820.92
  Z"
/>
</svg>
