<?xml version="1.0" encoding="UTF-8" standalone="no"?>
<!DOCTYPE svg PUBLIC "-//W3C//DTD SVG 1.1//EN" "http://www.w3.org/Graphics/SVG/1.1/DTD/svg11.dtd">
<svg xmlns="http://www.w3.org/2000/svg" version="1.1" viewBox="0.00 0.00 842.00 281.00">
<g stroke-width="2.00" fill="none" stroke-linecap="butt">
<path stroke="#1056a6" vector-effect="non-scaling-stroke" d="
  M 757.03 95.09
  L 756.91 116.01"
/>
<path stroke="#0b4d9f" vector-effect="non-scaling-stroke" d="
  M 756.91 116.01
  L 750.31 115.96"
/>
<path stroke="#0f5bb0" vector-effect="non-scaling-stroke" d="
  M 750.31 115.96
  Q 748.22 111.31 745.16 107.33
  C 730.85 88.72 710.19 75.60 688.98 65.99
  C 667.89 56.43 646.06 49.44 623.43 44.39
  Q 567.91 31.99 511.00 31.98
  Q 404.64 31.95 299.00 32.02
  Q 296.20 32.02 294.76 32.81"
/>
<path stroke="#0b4d9f" vector-effect="non-scaling-stroke" d="
  M 294.76 32.81
  Q 271.60 22.88 247.03 16.44
  C 230.11 12.02 211.57 8.75 194.05 9.11"
/>
<path stroke="#0f5bb0" vector-effect="non-scaling-stroke" d="
  M 194.05 9.11
  Q 194.00 8.96 193.74 8.65"
/>
<path stroke="#08448f" vector-effect="non-scaling-stroke" d="
  M 194.05 9.11
  Q 193.26 9.04 193.21 9.26
  A 0.62 0.61 -79.6 0 0 193.73 10.02
  C 240.78 15.85 287.00 34.38 326.86 59.63
  Q 331.75 62.73 343.79 71.69
  C 355.82 80.63 364.63 87.54 371.85 97.89
  Q 393.35 128.70 382.06 162.61
  C 377.46 176.42 368.40 188.29 357.67 197.92
  Q 342.21 211.77 322.37 224.09
  C 283.86 247.99 238.55 265.52 192.90 271.16"
/>
<path stroke="#0d4d96" vector-effect="non-scaling-stroke" d="
  M 192.90 271.16
  L 188.82 271.85"
/>
<path stroke="#0d4d96" vector-effect="non-scaling-stroke" d="
  M 86.85 179.87
  Q 80.22 145.57 85.17 110.95
  Q 86.31 102.99 88.12 95.32"
/>
<path stroke="#08448f" vector-effect="non-scaling-stroke" d="
  M 254.98 140.51
  A 9.48 9.48 0.0 0 0 245.50 131.03
  A 9.48 9.48 0.0 0 0 236.02 140.51
  A 9.48 9.48 0.0 0 0 245.50 149.99
  A 9.48 9.48 0.0 0 0 254.98 140.51"
/>
<path stroke="#08448f" vector-effect="non-scaling-stroke" d="
  M 305.98 140.50
  A 9.48 9.48 0.0 0 0 296.50 131.02
  A 9.48 9.48 0.0 0 0 287.02 140.50
  A 9.48 9.48 0.0 0 0 296.50 149.98
  A 9.48 9.48 0.0 0 0 305.98 140.50"
/>
<path stroke="#08448f" vector-effect="non-scaling-stroke" d="
  M 356.98 140.51
  A 9.48 9.48 0.0 0 0 347.50 131.03
  A 9.48 9.48 0.0 0 0 338.02 140.51
  A 9.48 9.48 0.0 0 0 347.50 149.99
  A 9.48 9.48 0.0 0 0 356.98 140.51"
/>
<path stroke="#08448f" vector-effect="non-scaling-stroke" d="
  M 294.76 32.81
  Q 329.66 47.38 359.89 69.65
  Q 367.61 75.34 372.06 78.69
  Q 391.50 93.33 400.51 115.63
  A 0.62 0.62 0.0 0 0 401.08 116.01
  L 436.45 116.01
  A 0.55 0.55 0.0 0 0 437.00 115.46
  L 437.00 109.26
  A 6.88 6.55 53.0 0 1 437.18 107.71
  Q 438.24 103.30 438.39 102.98
  Q 439.93 99.71 444.02 97.37
  A 1.19 0.79 11.4 0 1 444.29 97.26
  L 448.91 96.15
  A 5.09 4.90 -50.5 0 1 450.04 96.02
  Q 472.19 96.00 481.56 95.99
  Q 484.53 95.98 487.77 96.67
  Q 492.24 97.63 493.81 98.24
  Q 498.20 99.95 504.38 105.50
  A 0.36 0.36 0.0 0 0 504.97 105.32
  C 506.50 98.78 512.77 95.99 519.25 96.00
  Q 524.43 96.01 567.50 96.01
  A 10.57 10.47 51.4 0 1 569.91 96.29
  C 571.77 96.73 573.52 96.98 574.86 97.79
  Q 579.02 100.29 580.28 104.30
  A 0.33 0.32 72.4 0 0 580.68 104.51
  L 587.95 102.32
  A 1.07 1.02 42.6 0 1 588.50 102.31
  L 593.03 103.43
  A 0.74 0.73 -71.1 0 0 593.88 103.01
  C 597.42 94.80 608.71 95.81 615.86 96.17
  Q 622.81 96.51 626.99 102.95
  A 0.88 0.86 66.5 0 0 627.93 103.33
  L 631.66 102.40
  A 1.50 1.38 -43.5 0 1 632.31 102.39
  C 637.10 103.41 637.93 103.51 641.33 106.38
  A 0.38 0.38 0.0 0 0 641.96 106.15
  C 643.09 99.16 649.47 96.03 656.25 95.99
  C 662.87 95.96 667.14 95.62 671.82 98.16
  Q 673.79 99.23 676.76 103.05
  Q 679.38 106.42 684.82 113.12
  A 0.25 0.25 0.0 0 0 685.26 112.95
  C 685.06 104.17 687.86 97.22 697.47 96.22
  Q 703.27 95.63 709.05 96.20
  C 719.81 97.27 721.74 106.19 720.94 115.25
  A 0.68 0.68 0.0 0 0 721.62 115.99
  L 750.31 115.96"
/>
<path stroke="#093f85" vector-effect="non-scaling-stroke" d="
  M 756.91 116.01
  L 756.99 161.49
  A 0.53 0.52 -0.6 0 1 756.47 162.01
  L 752.16 162.10"
/>
<path stroke="#08448f" vector-effect="non-scaling-stroke" d="
  M 752.16 162.10
  L 721.28 162.08
  A 0.28 0.28 0.0 0 0 721.00 162.37
  C 721.45 170.72 718.47 177.76 709.25 178.76
  Q 702.72 179.46 696.55 178.69
  Q 690.72 177.97 687.53 173.97
  Q 679.16 163.48 678.12 162.33
  A 0.48 0.48 0.0 0 0 677.29 162.72
  C 677.69 165.79 676.97 170.48 675.24 173.07
  Q 671.75 178.31 664.89 178.81
  Q 657.51 179.35 653.76 178.86
  Q 642.24 177.36 641.58 166.01
  A 0.26 0.26 0.0 0 0 641.13 165.85
  C 625.85 182.53 598.22 183.64 581.59 168.23
  A 0.37 0.37 0.0 0 0 580.98 168.43
  Q 580.08 173.28 576.35 176.19
  C 573.67 178.28 569.63 179.02 566.25 179.02
  Q 523.43 179.03 517.15 179.02
  A 2.27 1.99 48.7 0 1 516.61 178.95
  L 512.05 177.82
  A 2.11 2.10 51.4 0 0 511.44 177.75
  C 509.16 177.81 506.73 178.96 504.23 179.00
  Q 499.34 179.06 492.75 179.02
  C 486.13 178.98 482.37 177.15 478.11 172.35
  Q 476.19 170.19 472.95 167.09
  A 0.34 0.34 0.0 0 0 472.38 167.30
  Q 471.30 177.59 460.32 178.80
  Q 454.35 179.46 448.51 178.74
  Q 443.40 178.11 440.34 174.87
  C 437.44 171.79 436.94 166.90 436.92 162.28
  A 0.27 0.27 0.0 0 0 436.65 162.01
  L 401.96 162.01
  A 0.80 0.79 9.9 0 0 401.21 162.53
  Q 393.81 182.28 378.97 195.76
  C 354.23 218.22 325.01 235.57 293.94 248.52"
/>
<path stroke="#093f85" vector-effect="non-scaling-stroke" d="
  M 293.94 248.52
  C 265.76 260.64 234.15 270.08 203.66 271.90
  Q 199.03 272.17 192.90 271.16"
/>
<path stroke="#0b5497" vector-effect="non-scaling-stroke" d="
  M 506.08 166.39
  L 488.34 148.65
  A 0.42 0.41 -34.9 0 1 488.46 147.98
  Q 501.37 142.25 501.71 128.75
  C 501.93 119.97 496.34 112.41 488.34 109.19
  Q 485.38 108.00 479.05 108.10
  Q 475.68 108.16 449.62 108.11
  A 0.51 0.51 0.0 0 0 449.11 108.62
  L 449.11 166.39
  A 0.50 0.50 0.0 0 0 449.61 166.89
  L 460.07 166.89
  A 0.49 0.49 0.0 0 0 460.56 166.40
  L 460.56 148.44
  A 0.61 0.61 0.0 0 1 461.17 147.83
  L 470.24 147.83
  A 1.38 1.36 -22.3 0 1 471.21 148.23
  L 489.50 166.52
  A 1.20 1.18 67.2 0 0 490.34 166.87
  L 505.89 166.87
  A 0.28 0.28 0.0 0 0 506.08 166.39"
/>
<path stroke="#0b5497" vector-effect="non-scaling-stroke" d="
  M 569.19 108.52
  A 0.40 0.40 0.0 0 0 568.79 108.12
  L 516.85 108.12
  A 0.40 0.40 0.0 0 0 516.45 108.52
  L 516.45 119.34
  A 0.40 0.40 0.0 0 0 516.85 119.74
  L 568.79 119.74
  A 0.40 0.40 0.0 0 0 569.19 119.34
  L 569.19 108.52"
/>
<path stroke="#2173ba" vector-effect="non-scaling-stroke" d="
  M 616.23 108.55
  A 0.39 0.39 0.0 0 0 615.84 108.16
  L 604.80 108.16
  A 0.39 0.39 0.0 0 0 604.41 108.55
  L 604.41 133.43
  A 0.39 0.39 0.0 0 0 604.80 133.82
  L 615.84 133.82
  A 0.39 0.39 0.0 0 0 616.23 133.43
  L 616.23 108.55"
/>
<path stroke="#0b5497" vector-effect="non-scaling-stroke" d="
  M 676.66 141.06
  Q 685.24 151.87 697.06 166.45
  A 1.11 1.11 0.0 0 0 697.92 166.86
  L 708.48 166.86
  A 0.47 0.47 0.0 0 0 708.95 166.39
  L 708.95 108.55
  A 0.45 0.45 0.0 0 0 708.50 108.10
  L 697.84 108.10
  A 0.39 0.38 -0.0 0 0 697.45 108.48
  L 697.45 147.33
  A 0.38 0.38 0.0 0 1 696.78 147.56
  Q 695.78 146.30 685.93 133.89
  Q 677.35 123.09 665.53 108.51
  A 1.11 1.11 0.0 0 0 664.67 108.10
  L 654.11 108.10
  A 0.47 0.47 0.0 0 0 653.64 108.57
  L 653.64 166.41
  A 0.45 0.45 0.0 0 0 654.09 166.86
  L 664.75 166.86
  A 0.39 0.38 -0.0 0 0 665.14 166.48
  L 665.14 127.63
  A 0.38 0.38 0.0 0 1 665.81 127.39
  Q 666.81 128.66 676.66 141.06"
/>
<path stroke="#2173ba" vector-effect="non-scaling-stroke" d="
  M 610.22 166.89
  Q 614.83 166.89 615.66 166.71
  C 640.10 161.27 649.58 133.18 632.42 114.47
  A 0.40 0.39 46.5 0 0 631.85 114.45
  L 624.08 122.22
  A 0.53 0.52 45.8 0 0 624.07 122.95
  C 635.52 134.91 627.02 155.29 610.21 155.30
  C 593.40 155.31 584.87 134.94 596.30 122.97
  A 0.53 0.52 -45.8 0 0 596.30 122.24
  L 588.52 114.48
  A 0.40 0.39 -46.6 0 0 587.95 114.50
  C 570.81 133.23 580.33 161.31 604.78 166.71
  Q 605.60 166.89 610.22 166.89"
/>
<path stroke="#0b5497" vector-effect="non-scaling-stroke" d="
  M 568.79 166.86
  A 0.41 0.41 0.0 0 0 569.20 166.45
  L 569.20 155.63
  A 0.41 0.41 0.0 0 0 568.79 155.22
  L 528.44 155.22
  A 0.41 0.41 0.0 0 1 528.03 154.81
  L 528.03 143.81
  A 0.41 0.41 0.0 0 1 528.44 143.40
  L 556.93 143.40
  A 0.41 0.41 0.0 0 0 557.34 142.99
  L 557.34 131.99
  A 0.41 0.41 0.0 0 0 556.93 131.58
  L 516.86 131.58
  A 0.41 0.41 0.0 0 0 516.45 131.99
  L 516.45 166.45
  A 0.41 0.41 0.0 0 0 516.86 166.86
  L 568.79 166.86"
/>
<path stroke="#294c6f" vector-effect="non-scaling-stroke" d="
  M 71.93 170.96
  L 71.96 103.84"
/>
<path stroke="#294c6f" vector-effect="non-scaling-stroke" d="
  M 770.10 103.94
  L 770.02 171.00"
/>
<path stroke="#0d4d96" vector-effect="non-scaling-stroke" d="
  M 293.94 248.52
  Q 296.26 248.84 298.57 248.84
  Q 424.26 249.08 473.92 249.04
  Q 516.77 249.01 523.07 248.82
  C 574.33 247.26 626.15 239.72 674.25 221.27
  Q 695.26 213.21 713.94 201.46
  C 729.93 191.40 743.61 178.93 752.16 162.10"
/>
<path stroke="#5e6e72" vector-effect="non-scaling-stroke" d="
  M 68.41 103.21
  L 67.99 114.67"
/>
<path stroke="#708389" vector-effect="non-scaling-stroke" d="
  M 67.99 114.67
  Q 58.05 118.66 49.09 112.90"
/>
<path stroke="#5e6e72" vector-effect="non-scaling-stroke" d="
  M 49.09 112.90
  Q 49.21 110.60 48.03 109.94"
/>
<path stroke="#5e6e72" vector-effect="non-scaling-stroke" d="
  M 793.96 109.89
  Q 792.98 109.68 792.97 112.76"
/>
<path stroke="#708389" vector-effect="non-scaling-stroke" d="
  M 792.97 112.76
  Q 785.18 119.43 774.01 115.39"
/>
<path stroke="#5e6e72" vector-effect="non-scaling-stroke" d="
  M 774.01 115.39
  L 773.44 103.02"
/>
<path stroke="#4e5b5e" vector-effect="non-scaling-stroke" d="
  M 68.20 171.45
  L 67.97 156.92"
/>
<path stroke="#566569" vector-effect="non-scaling-stroke" d="
  M 67.97 156.92
  L 67.99 114.67"
/>
<path stroke="#566569" vector-effect="non-scaling-stroke" d="
  M 774.01 115.39
  L 774.07 156.75"
/>
<path stroke="#4e5b5e" vector-effect="non-scaling-stroke" d="
  M 774.07 156.75
  L 773.93 171.27"
/>
<path stroke="#5e6e72" vector-effect="non-scaling-stroke" d="
  M 45.31 109.50
  L 44.97 120.07"
/>
<path stroke="#708389" vector-effect="non-scaling-stroke" d="
  M 44.97 120.07
  Q 34.40 124.73 25.12 118.61"
/>
<path stroke="#5e6e72" vector-effect="non-scaling-stroke" d="
  M 25.12 118.61
  Q 25.16 116.70 23.90 115.69"
/>
<path stroke="#5e6e72" vector-effect="non-scaling-stroke" d="
  M 817.92 115.90
  Q 816.93 116.49 816.96 118.71"
/>
<path stroke="#708389" vector-effect="non-scaling-stroke" d="
  M 816.96 118.71
  C 812.27 122.90 807.04 123.71 801.08 122.16
  Q 799.12 121.65 797.07 121.21"
/>
<path stroke="#5e6e72" vector-effect="non-scaling-stroke" d="
  M 797.07 121.21
  L 796.67 109.73"
/>
<path stroke="#0b5497" vector-effect="non-scaling-stroke" d="
  M 460.56 120.17
  L 460.56 137.09
  A 0.42 0.42 0.0 0 0 460.98 137.51
  L 481.02 137.51
  A 8.90 8.79 -0.0 0 0 489.92 128.72
  L 489.92 128.54
  A 8.90 8.79 0.0 0 0 481.02 119.75
  L 460.98 119.75
  A 0.42 0.42 0.0 0 0 460.56 120.17"
/>
<path stroke="#566569" vector-effect="non-scaling-stroke" d="
  M 49.09 112.90
  L 49.04 153.46"
/>
<path stroke="#4e5b5e" vector-effect="non-scaling-stroke" d="
  M 49.04 153.46
  L 48.51 165.47"
/>
<path stroke="#4e5b5e" vector-effect="non-scaling-stroke" d="
  M 45.19 164.88
  L 44.97 153.21"
/>
<path stroke="#566569" vector-effect="non-scaling-stroke" d="
  M 44.97 153.21
  L 44.97 120.07"
/>
<path stroke="#566569" vector-effect="non-scaling-stroke" d="
  M 797.07 121.21
  L 797.06 153.36"
/>
<path stroke="#4e5b5e" vector-effect="non-scaling-stroke" d="
  M 797.06 153.36
  L 796.79 165.04"
/>
<path stroke="#4e5b5e" vector-effect="non-scaling-stroke" d="
  M 793.31 165.12
  L 792.95 153.76"
/>
<path stroke="#566569" vector-effect="non-scaling-stroke" d="
  M 792.95 153.76
  L 792.97 112.76"
/>
<path stroke="#607075" vector-effect="non-scaling-stroke" d="
  M 792.95 153.76
  Q 784.60 162.67 774.07 156.75"
/>
<path stroke="#5e6e72" vector-effect="non-scaling-stroke" d="
  M 21.14 115.78
  L 20.98 126.84"
/>
<path stroke="#708389" vector-effect="non-scaling-stroke" d="
  M 20.98 126.84
  C 13.40 130.32 5.91 129.62 0.00 123.89"
/>
<path stroke="#607075" vector-effect="non-scaling-stroke" d="
  M 67.97 156.92
  Q 65.70 157.61 63.62 158.23
  Q 58.35 159.83 53.78 157.35
  C 52.14 156.46 50.66 154.77 49.04 153.46"
/>
<path stroke="#708389" vector-effect="non-scaling-stroke" d="
  M 842.00 124.51
  Q 835.93 131.21 826.87 129.48
  Q 823.97 128.92 821.07 128.16"
/>
<path stroke="#5e6e72" vector-effect="non-scaling-stroke" d="
  M 821.07 128.16
  L 820.98 115.74"
/>
<path stroke="#566569" vector-effect="non-scaling-stroke" d="
  M 25.12 118.61
  L 25.11 151.31"
/>
<path stroke="#4e5b5e" vector-effect="non-scaling-stroke" d="
  M 25.11 151.31
  Q 25.04 154.23 25.07 156.73
  Q 25.10 158.31 24.17 159.12"
/>
<path stroke="#4e5b5e" vector-effect="non-scaling-stroke" d="
  M 21.02 159.02
  L 20.93 150.97"
/>
<path stroke="#566569" vector-effect="non-scaling-stroke" d="
  M 20.93 150.97
  L 20.98 126.84"
/>
<path stroke="#566569" vector-effect="non-scaling-stroke" d="
  M 821.07 128.16
  L 821.10 150.70"
/>
<path stroke="#4e5b5e" vector-effect="non-scaling-stroke" d="
  M 821.10 150.70
  L 821.04 159.04"
/>
<path stroke="#4e5b5e" vector-effect="non-scaling-stroke" d="
  M 817.85 159.17
  Q 816.46 156.19 816.95 151.34"
/>
<path stroke="#566569" vector-effect="non-scaling-stroke" d="
  M 816.95 151.34
  L 816.96 118.71"
/>
<path stroke="#607075" vector-effect="non-scaling-stroke" d="
  M 44.97 153.21
  Q 34.29 159.58 25.11 151.31"
/>
<path stroke="#607075" vector-effect="non-scaling-stroke" d="
  M 816.95 151.34
  Q 808.04 159.43 797.06 153.36"
/>
<path stroke="#607075" vector-effect="non-scaling-stroke" d="
  M 20.93 150.97
  C 13.10 153.80 6.14 154.07 0.00 147.92"
/>
<path stroke="#607075" vector-effect="non-scaling-stroke" d="
  M 842.00 148.22
  Q 836.08 153.45 828.79 152.94
  Q 824.84 152.67 821.10 150.70"
/>
</g>
<path fill="#1264c0" d="
  M 572.14 0.00
  Q 637.54 3.12 697.16 29.66
  Q 716.96 38.47 732.36 50.11
  C 742.89 58.08 753.07 68.45 756.70 81.23
  A 6.05 5.79 38.0 0 1 756.92 82.75
  L 757.03 95.09
  L 756.91 116.01
  L 750.31 115.96
  Q 748.22 111.31 745.16 107.33
  C 730.85 88.72 710.19 75.60 688.98 65.99
  C 667.89 56.43 646.06 49.44 623.43 44.39
  Q 567.91 31.99 511.00 31.98
  Q 404.64 31.95 299.00 32.02
  Q 296.20 32.02 294.76 32.81
  Q 271.60 22.88 247.03 16.44
  C 230.11 12.02 211.57 8.75 194.05 9.11
  Q 194.00 8.96 193.74 8.65
  Q 199.20 1.41 208.74 0.00
  L 572.14 0.00
  Z"
/>
<path fill="#0c52a0" d="
  M 193.74 8.65
  Q 194.00 8.96 194.05 9.11
  Q 193.26 9.04 193.21 9.26
  A 0.62 0.61 -79.6 0 0 193.73 10.02
  C 240.78 15.85 287.00 34.38 326.86 59.63
  Q 331.75 62.73 343.79 71.69
  C 355.82 80.63 364.63 87.54 371.85 97.89
  Q 393.35 128.70 382.06 162.61
  C 377.46 176.42 368.40 188.29 357.67 197.92
  Q 342.21 211.77 322.37 224.09
  C 283.86 247.99 238.55 265.52 192.90 271.16
  L 188.82 271.85
  C 176.49 272.21 161.11 272.61 148.49 268.43
  Q 139.95 265.61 131.57 259.31
  C 106.48 240.46 92.89 209.91 86.85 179.87
  Q 80.22 145.57 85.17 110.95
  Q 86.31 102.99 88.12 95.32
  Q 94.50 66.95 110.27 43.78
  Q 120.21 29.17 135.97 18.66
  C 152.96 7.32 173.53 8.93 192.75 9.13
  Q 193.46 9.13 193.74 8.65
  Z
  M 254.98 140.51
  A 9.48 9.48 0.0 0 0 245.50 131.03
  A 9.48 9.48 0.0 0 0 236.02 140.51
  A 9.48 9.48 0.0 0 0 245.50 149.99
  A 9.48 9.48 0.0 0 0 254.98 140.51
  Z
  M 305.98 140.50
  A 9.48 9.48 0.0 0 0 296.50 131.02
  A 9.48 9.48 0.0 0 0 287.02 140.50
  A 9.48 9.48 0.0 0 0 296.50 149.98
  A 9.48 9.48 0.0 0 0 305.98 140.50
  Z
  M 356.98 140.51
  A 9.48 9.48 0.0 0 0 347.50 131.03
  A 9.48 9.48 0.0 0 0 338.02 140.51
  A 9.48 9.48 0.0 0 0 347.50 149.99
  A 9.48 9.48 0.0 0 0 356.98 140.51
  Z"
/>
<path fill="#04367e" d="
  M 294.76 32.81
  Q 329.66 47.38 359.89 69.65
  Q 367.61 75.34 372.06 78.69
  Q 391.50 93.33 400.51 115.63
  A 0.62 0.62 0.0 0 0 401.08 116.01
  L 436.45 116.01
  A 0.55 0.55 0.0 0 0 437.00 115.46
  L 437.00 109.26
  A 6.88 6.55 53.0 0 1 437.18 107.71
  Q 438.24 103.30 438.39 102.98
  Q 439.93 99.71 444.02 97.37
  A 1.19 0.79 11.4 0 1 444.29 97.26
  L 448.91 96.15
  A 5.09 4.90 -50.5 0 1 450.04 96.02
  Q 472.19 96.00 481.56 95.99
  Q 484.53 95.98 487.77 96.67
  Q 492.24 97.63 493.81 98.24
  Q 498.20 99.95 504.38 105.50
  A 0.36 0.36 0.0 0 0 504.97 105.32
  C 506.50 98.78 512.77 95.99 519.25 96.00
  Q 524.43 96.01 567.50 96.01
  A 10.57 10.47 51.4 0 1 569.91 96.29
  C 571.77 96.73 573.52 96.98 574.86 97.79
  Q 579.02 100.29 580.28 104.30
  A 0.33 0.32 72.4 0 0 580.68 104.51
  L 587.95 102.32
  A 1.07 1.02 42.6 0 1 588.50 102.31
  L 593.03 103.43
  A 0.74 0.73 -71.1 0 0 593.88 103.01
  C 597.42 94.80 608.71 95.81 615.86 96.17
  Q 622.81 96.51 626.99 102.95
  A 0.88 0.86 66.5 0 0 627.93 103.33
  L 631.66 102.40
  A 1.50 1.38 -43.5 0 1 632.31 102.39
  C 637.10 103.41 637.93 103.51 641.33 106.38
  A 0.38 0.38 0.0 0 0 641.96 106.15
  C 643.09 99.16 649.47 96.03 656.25 95.99
  C 662.87 95.96 667.14 95.62 671.82 98.16
  Q 673.79 99.23 676.76 103.05
  Q 679.38 106.42 684.82 113.12
  A 0.25 0.25 0.0 0 0 685.26 112.95
  C 685.06 104.17 687.86 97.22 697.47 96.22
  Q 703.27 95.63 709.05 96.20
  C 719.81 97.27 721.74 106.19 720.94 115.25
  A 0.68 0.68 0.0 0 0 721.62 115.99
  L 750.31 115.96
  L 756.91 116.01
  L 756.99 161.49
  A 0.53 0.52 -0.6 0 1 756.47 162.01
  L 752.16 162.10
  L 721.28 162.08
  A 0.28 0.28 0.0 0 0 721.00 162.37
  C 721.45 170.72 718.47 177.76 709.25 178.76
  Q 702.72 179.46 696.55 178.69
  Q 690.72 177.97 687.53 173.97
  Q 679.16 163.48 678.12 162.33
  A 0.48 0.48 0.0 0 0 677.29 162.72
  C 677.69 165.79 676.97 170.48 675.24 173.07
  Q 671.75 178.31 664.89 178.81
  Q 657.51 179.35 653.76 178.86
  Q 642.24 177.36 641.58 166.01
  A 0.26 0.26 0.0 0 0 641.13 165.85
  C 625.85 182.53 598.22 183.64 581.59 168.23
  A 0.37 0.37 0.0 0 0 580.98 168.43
  Q 580.08 173.28 576.35 176.19
  C 573.67 178.28 569.63 179.02 566.25 179.02
  Q 523.43 179.03 517.15 179.02
  A 2.27 1.99 48.7 0 1 516.61 178.95
  L 512.05 177.82
  A 2.11 2.10 51.4 0 0 511.44 177.75
  C 509.16 177.81 506.73 178.96 504.23 179.00
  Q 499.34 179.06 492.75 179.02
  C 486.13 178.98 482.37 177.15 478.11 172.35
  Q 476.19 170.19 472.95 167.09
  A 0.34 0.34 0.0 0 0 472.38 167.30
  Q 471.30 177.59 460.32 178.80
  Q 454.35 179.46 448.51 178.74
  Q 443.40 178.11 440.34 174.87
  C 437.44 171.79 436.94 166.90 436.92 162.28
  A 0.27 0.27 0.0 0 0 436.65 162.01
  L 401.96 162.01
  A 0.80 0.79 9.9 0 0 401.21 162.53
  Q 393.81 182.28 378.97 195.76
  C 354.23 218.22 325.01 235.57 293.94 248.52
  C 265.76 260.64 234.15 270.08 203.66 271.90
  Q 199.03 272.17 192.90 271.16
  C 238.55 265.52 283.86 247.99 322.37 224.09
  Q 342.21 211.77 357.67 197.92
  C 368.40 188.29 377.46 176.42 382.06 162.61
  Q 393.35 128.70 371.85 97.89
  C 364.63 87.54 355.82 80.63 343.79 71.69
  Q 331.75 62.73 326.86 59.63
  C 287.00 34.38 240.78 15.85 193.73 10.02
  A 0.62 0.61 -79.6 0 1 193.21 9.26
  Q 193.26 9.04 194.05 9.11
  C 211.57 8.75 230.11 12.02 247.03 16.44
  Q 271.60 22.88 294.76 32.81
  Z
  M 506.08 166.39
  L 488.34 148.65
  A 0.42 0.41 -34.9 0 1 488.46 147.98
  Q 501.37 142.25 501.71 128.75
  C 501.93 119.97 496.34 112.41 488.34 109.19
  Q 485.38 108.00 479.05 108.10
  Q 475.68 108.16 449.62 108.11
  A 0.51 0.51 0.0 0 0 449.11 108.62
  L 449.11 166.39
  A 0.50 0.50 0.0 0 0 449.61 166.89
  L 460.07 166.89
  A 0.49 0.49 0.0 0 0 460.56 166.40
  L 460.56 148.44
  A 0.61 0.61 0.0 0 1 461.17 147.83
  L 470.24 147.83
  A 1.38 1.36 -22.3 0 1 471.21 148.23
  L 489.50 166.52
  A 1.20 1.18 67.2 0 0 490.34 166.87
  L 505.89 166.87
  A 0.28 0.28 0.0 0 0 506.08 166.39
  Z
  M 569.19 108.52
  A 0.40 0.40 0.0 0 0 568.79 108.12
  L 516.85 108.12
  A 0.40 0.40 0.0 0 0 516.45 108.52
  L 516.45 119.34
  A 0.40 0.40 0.0 0 0 516.85 119.74
  L 568.79 119.74
  A 0.40 0.40 0.0 0 0 569.19 119.34
  L 569.19 108.52
  Z
  M 616.23 108.55
  A 0.39 0.39 0.0 0 0 615.84 108.16
  L 604.80 108.16
  A 0.39 0.39 0.0 0 0 604.41 108.55
  L 604.41 133.43
  A 0.39 0.39 0.0 0 0 604.80 133.82
  L 615.84 133.82
  A 0.39 0.39 0.0 0 0 616.23 133.43
  L 616.23 108.55
  Z
  M 676.66 141.06
  Q 685.24 151.87 697.06 166.45
  A 1.11 1.11 0.0 0 0 697.92 166.86
  L 708.48 166.86
  A 0.47 0.47 0.0 0 0 708.95 166.39
  L 708.95 108.55
  A 0.45 0.45 0.0 0 0 708.50 108.10
  L 697.84 108.10
  A 0.39 0.38 -0.0 0 0 697.45 108.48
  L 697.45 147.33
  A 0.38 0.38 0.0 0 1 696.78 147.56
  Q 695.78 146.30 685.93 133.89
  Q 677.35 123.09 665.53 108.51
  A 1.11 1.11 0.0 0 0 664.67 108.10
  L 654.11 108.10
  A 0.47 0.47 0.0 0 0 653.64 108.57
  L 653.64 166.41
  A 0.45 0.45 0.0 0 0 654.09 166.86
  L 664.75 166.86
  A 0.39 0.38 -0.0 0 0 665.14 166.48
  L 665.14 127.63
  A 0.38 0.38 0.0 0 1 665.81 127.39
  Q 666.81 128.66 676.66 141.06
  Z
  M 610.22 166.89
  Q 614.83 166.89 615.66 166.71
  C 640.10 161.27 649.58 133.18 632.42 114.47
  A 0.40 0.39 46.5 0 0 631.85 114.45
  L 624.08 122.22
  A 0.53 0.52 45.8 0 0 624.07 122.95
  C 635.52 134.91 627.02 155.29 610.21 155.30
  C 593.40 155.31 584.87 134.94 596.30 122.97
  A 0.53 0.52 -45.8 0 0 596.30 122.24
  L 588.52 114.48
  A 0.40 0.39 -46.6 0 0 587.95 114.50
  C 570.81 133.23 580.33 161.31 604.78 166.71
  Q 605.60 166.89 610.22 166.89
  Z
  M 568.79 166.86
  A 0.41 0.41 0.0 0 0 569.20 166.45
  L 569.20 155.63
  A 0.41 0.41 0.0 0 0 568.79 155.22
  L 528.44 155.22
  A 0.41 0.41 0.0 0 1 528.03 154.81
  L 528.03 143.81
  A 0.41 0.41 0.0 0 1 528.44 143.40
  L 556.93 143.40
  A 0.41 0.41 0.0 0 0 557.34 142.99
  L 557.34 131.99
  A 0.41 0.41 0.0 0 0 556.93 131.58
  L 516.86 131.58
  A 0.41 0.41 0.0 0 0 516.45 131.99
  L 516.45 166.45
  A 0.41 0.41 0.0 0 0 516.86 166.86
  L 568.79 166.86
  Z"
/>
<path fill="#0c52a0" d="
  M 750.31 115.96
  L 721.62 115.99
  A 0.68 0.68 0.0 0 1 720.94 115.25
  C 721.74 106.19 719.81 97.27 709.05 96.20
  Q 703.27 95.63 697.47 96.22
  C 687.86 97.22 685.06 104.17 685.26 112.95
  A 0.25 0.25 0.0 0 1 684.82 113.12
  Q 679.38 106.42 676.76 103.05
  Q 673.79 99.23 671.82 98.16
  C 667.14 95.62 662.87 95.96 656.25 95.99
  C 649.47 96.03 643.09 99.16 641.96 106.15
  A 0.38 0.38 0.0 0 1 641.33 106.38
  C 637.93 103.51 637.10 103.41 632.31 102.39
  A 1.50 1.38 -43.5 0 0 631.66 102.40
  L 627.93 103.33
  A 0.88 0.86 66.5 0 1 626.99 102.95
  Q 622.81 96.51 615.86 96.17
  C 608.71 95.81 597.42 94.80 593.88 103.01
  A 0.74 0.73 -71.1 0 1 593.03 103.43
  L 588.50 102.31
  A 1.07 1.02 42.6 0 0 587.95 102.32
  L 580.68 104.51
  A 0.33 0.32 72.4 0 1 580.28 104.30
  Q 579.02 100.29 574.86 97.79
  C 573.52 96.98 571.77 96.73 569.91 96.29
  A 10.57 10.47 51.4 0 0 567.50 96.01
  Q 524.43 96.01 519.25 96.00
  C 512.77 95.99 506.50 98.78 504.97 105.32
  A 0.36 0.36 0.0 0 1 504.38 105.50
  Q 498.20 99.95 493.81 98.24
  Q 492.24 97.63 487.77 96.67
  Q 484.53 95.98 481.56 95.99
  Q 472.19 96.00 450.04 96.02
  A 5.09 4.90 -50.5 0 0 448.91 96.15
  L 444.29 97.26
  A 1.19 0.79 11.4 0 0 444.02 97.37
  Q 439.93 99.71 438.39 102.98
  Q 438.24 103.30 437.18 107.71
  A 6.88 6.55 53.0 0 0 437.00 109.26
  L 437.00 115.46
  A 0.55 0.55 0.0 0 1 436.45 116.01
  L 401.08 116.01
  A 0.62 0.62 0.0 0 1 400.51 115.63
  Q 391.50 93.33 372.06 78.69
  Q 367.61 75.34 359.89 69.65
  Q 329.66 47.38 294.76 32.81
  Q 296.20 32.02 299.00 32.02
  Q 404.64 31.95 511.00 31.98
  Q 567.91 31.99 623.43 44.39
  C 646.06 49.44 667.89 56.43 688.98 65.99
  C 710.19 75.60 730.85 88.72 745.16 107.33
  Q 748.22 111.31 750.31 115.96
  Z"
/>
<path fill="#0d488b" d="
  M 88.12 95.32
  Q 86.31 102.99 85.17 110.95
  Q 80.22 145.57 86.85 179.87
  C 83.60 180.18 71.47 179.36 71.95 174.02
  Q 72.10 172.28 71.93 170.96
  L 71.96 103.84
  Q 72.07 102.57 72.06 100.97
  C 72.02 95.13 84.15 94.75 88.12 95.32
  Z"
/>
<path fill="#0d488b" d="
  M 770.10 103.94
  L 770.02 171.00
  L 769.99 174.10
  A 3.80 3.80 0.0 0 1 768.04 177.40
  Q 763.26 180.06 757.67 179.91
  A 0.65 0.65 0.0 0 0 757.00 180.56
  L 757.00 197.83
  A 7.98 7.77 52.4 0 1 756.79 199.64
  C 755.02 207.23 749.30 215.24 743.90 220.66
  Q 732.36 232.26 716.94 241.21
  Q 696.90 252.85 675.12 260.65
  Q 627.64 277.64 577.25 281.00
  L 206.39 281.00
  Q 198.35 278.75 193.29 272.37
  A 1.06 1.04 71.0 0 0 192.49 271.97
  L 188.82 271.85
  L 192.90 271.16
  Q 199.03 272.17 203.66 271.90
  C 234.15 270.08 265.76 260.64 293.94 248.52
  Q 296.26 248.84 298.57 248.84
  Q 424.26 249.08 473.92 249.04
  Q 516.77 249.01 523.07 248.82
  C 574.33 247.26 626.15 239.72 674.25 221.27
  Q 695.26 213.21 713.94 201.46
  C 729.93 191.40 743.61 178.93 752.16 162.10
  L 756.47 162.01
  A 0.53 0.52 -0.6 0 0 756.99 161.49
  L 756.91 116.01
  L 757.03 95.09
  C 760.85 94.96 769.88 95.87 770.00 101.29
  Q 770.03 102.66 770.10 103.94
  Z"
/>
<path fill="#788c92" d="
  M 68.41 103.21
  L 67.99 114.67
  Q 58.05 118.66 49.09 112.90
  Q 49.21 110.60 48.03 109.94
  Q 47.66 105.70 51.50 103.00
  Q 60.63 96.58 68.41 103.21
  Z"
/>
<path fill="#788c92" d="
  M 793.96 109.89
  Q 792.98 109.68 792.97 112.76
  Q 785.18 119.43 774.01 115.39
  L 773.44 103.02
  Q 784.05 95.48 792.80 105.45
  Q 794.36 107.21 793.96 109.89
  Z"
/>
<path fill="#445052" d="
  M 71.96 103.84
  L 71.93 170.96
  Q 69.36 170.57 68.20 171.45
  L 67.97 156.92
  L 67.99 114.67
  L 68.41 103.21
  Q 69.67 104.22 71.96 103.84
  Z"
/>
<path fill="#445052" d="
  M 773.44 103.02
  L 774.01 115.39
  L 774.07 156.75
  L 773.93 171.27
  Q 772.24 170.81 770.02 171.00
  L 770.10 103.94
  Q 772.39 104.44 773.44 103.02
  Z"
/>
<path fill="#788c92" d="
  M 45.31 109.50
  L 44.97 120.07
  Q 34.40 124.73 25.12 118.61
  Q 25.16 116.70 23.90 115.69
  Q 24.12 108.34 32.52 106.34
  Q 40.08 104.55 45.31 109.50
  Z"
/>
<path fill="#788c92" d="
  M 817.92 115.90
  Q 816.93 116.49 816.96 118.71
  C 812.27 122.90 807.04 123.71 801.08 122.16
  Q 799.12 121.65 797.07 121.21
  L 796.67 109.73
  Q 799.03 106.79 803.49 106.09
  Q 811.40 104.84 816.50 110.76
  Q 818.45 113.03 817.92 115.90
  Z"
/>
<path fill="#1272b0" d="
  M 506.08 166.39
  A 0.28 0.28 0.0 0 1 505.89 166.87
  L 490.34 166.87
  A 1.20 1.18 67.2 0 1 489.50 166.52
  L 471.21 148.23
  A 1.38 1.36 -22.3 0 0 470.24 147.83
  L 461.17 147.83
  A 0.61 0.61 0.0 0 0 460.56 148.44
  L 460.56 166.40
  A 0.49 0.49 0.0 0 1 460.07 166.89
  L 449.61 166.89
  A 0.50 0.50 0.0 0 1 449.11 166.39
  L 449.11 108.62
  A 0.51 0.51 0.0 0 1 449.62 108.11
  Q 475.68 108.16 479.05 108.10
  Q 485.38 108.00 488.34 109.19
  C 496.34 112.41 501.93 119.97 501.71 128.75
  Q 501.37 142.25 488.46 147.98
  A 0.42 0.41 -34.9 0 0 488.34 148.65
  L 506.08 166.39
  Z
  M 460.56 120.17
  L 460.56 137.09
  A 0.42 0.42 0.0 0 0 460.98 137.51
  L 481.02 137.51
  A 8.90 8.79 -0.0 0 0 489.92 128.72
  L 489.92 128.54
  A 8.90 8.79 0.0 0 0 481.02 119.75
  L 460.98 119.75
  A 0.42 0.42 0.0 0 0 460.56 120.17
  Z"
/>
<rect fill="#1272b0" x="516.45" y="108.12" width="52.74" height="11.62" rx="0.40"/>
<rect fill="#3eb0f6" x="604.41" y="108.16" width="11.82" height="25.66" rx="0.39"/>
<path fill="#1272b0" d="
  M 676.66 141.06
  Q 666.81 128.66 665.81 127.39
  A 0.38 0.38 0.0 0 0 665.14 127.63
  L 665.14 166.48
  A 0.39 0.38 -0.0 0 1 664.75 166.86
  L 654.09 166.86
  A 0.45 0.45 0.0 0 1 653.64 166.41
  L 653.64 108.57
  A 0.47 0.47 0.0 0 1 654.11 108.10
  L 664.67 108.10
  A 1.11 1.11 0.0 0 1 665.53 108.51
  Q 677.35 123.09 685.93 133.89
  Q 695.78 146.30 696.78 147.56
  A 0.38 0.38 0.0 0 0 697.45 147.33
  L 697.45 108.48
  A 0.39 0.38 -0.0 0 1 697.84 108.10
  L 708.50 108.10
  A 0.45 0.45 0.0 0 1 708.95 108.55
  L 708.95 166.39
  A 0.47 0.47 0.0 0 1 708.48 166.86
  L 697.92 166.86
  A 1.11 1.11 0.0 0 1 697.06 166.45
  Q 685.24 151.87 676.66 141.06
  Z"
/>
<path fill="#445052" d="
  M 45.31 109.50
  Q 46.34 110.46 48.03 109.94
  Q 49.21 110.60 49.09 112.90
  L 49.04 153.46
  L 48.51 165.47
  Q 47.62 164.91 45.19 164.88
  L 44.97 153.21
  L 44.97 120.07
  L 45.31 109.50
  Z"
/>
<path fill="#445052" d="
  M 796.67 109.73
  L 797.07 121.21
  L 797.06 153.36
  L 796.79 165.04
  L 793.31 165.12
  L 792.95 153.76
  L 792.97 112.76
  Q 792.98 109.68 793.96 109.89
  Q 795.08 110.29 796.67 109.73
  Z"
/>
<path fill="#687a7f" d="
  M 792.97 112.76
  L 792.95 153.76
  Q 784.60 162.67 774.07 156.75
  L 774.01 115.39
  Q 785.18 119.43 792.97 112.76
  Z"
/>
<path fill="#788c92" d="
  M 21.14 115.78
  L 20.98 126.84
  C 13.40 130.32 5.91 129.62 0.00 123.89
  L 0.00 119.08
  C 3.09 113.43 9.97 112.14 15.77 113.24
  Q 18.85 113.83 21.14 115.78
  Z"
/>
<path fill="#687a7f" d="
  M 49.09 112.90
  Q 58.05 118.66 67.99 114.67
  L 67.97 156.92
  Q 65.70 157.61 63.62 158.23
  Q 58.35 159.83 53.78 157.35
  C 52.14 156.46 50.66 154.77 49.04 153.46
  L 49.09 112.90
  Z"
/>
<path fill="#788c92" d="
  M 842.00 119.11
  L 842.00 124.51
  Q 835.93 131.21 826.87 129.48
  Q 823.97 128.92 821.07 128.16
  L 820.98 115.74
  Q 823.09 113.94 825.63 113.38
  C 831.67 112.05 838.68 113.25 842.00 119.11
  Z"
/>
<path fill="#3eb0f6" d="
  M 610.21 155.30
  C 627.02 155.29 635.52 134.91 624.07 122.95
  A 0.53 0.52 45.8 0 1 624.08 122.22
  L 631.85 114.45
  A 0.40 0.39 46.5 0 1 632.42 114.47
  C 649.58 133.18 640.10 161.27 615.66 166.71
  Q 614.83 166.89 610.22 166.89
  Q 605.60 166.89 604.78 166.71
  C 580.33 161.31 570.81 133.23 587.95 114.50
  A 0.40 0.39 -46.6 0 1 588.52 114.48
  L 596.30 122.24
  A 0.53 0.52 -45.8 0 1 596.30 122.97
  C 584.87 134.94 593.40 155.31 610.21 155.30
  Z"
/>
<path fill="#445052" d="
  M 23.90 115.69
  Q 25.16 116.70 25.12 118.61
  L 25.11 151.31
  Q 25.04 154.23 25.07 156.73
  Q 25.10 158.31 24.17 159.12
  L 21.02 159.02
  L 20.93 150.97
  L 20.98 126.84
  L 21.14 115.78
  Q 23.19 116.51 23.90 115.69
  Z"
/>
<path fill="#445052" d="
  M 820.98 115.74
  L 821.07 128.16
  L 821.10 150.70
  L 821.04 159.04
  Q 819.36 158.75 817.85 159.17
  Q 816.46 156.19 816.95 151.34
  L 816.96 118.71
  Q 816.93 116.49 817.92 115.90
  Q 819.61 116.18 820.98 115.74
  Z"
/>
<path fill="#687a7f" d="
  M 44.97 120.07
  L 44.97 153.21
  Q 34.29 159.58 25.11 151.31
  L 25.12 118.61
  Q 34.40 124.73 44.97 120.07
  Z"
/>
<path fill="#687a7f" d="
  M 816.96 118.71
  L 816.95 151.34
  Q 808.04 159.43 797.06 153.36
  L 797.07 121.21
  Q 799.12 121.65 801.08 122.16
  C 807.04 123.71 812.27 122.90 816.96 118.71
  Z"
/>
<path fill="#04367e" d="
  M 460.56 120.17
  A 0.42 0.42 0.0 0 1 460.98 119.75
  L 481.02 119.75
  A 8.90 8.79 -0.0 0 1 489.92 128.54
  L 489.92 128.72
  A 8.90 8.79 -0.0 0 1 481.02 137.51
  L 460.98 137.51
  A 0.42 0.42 0.0 0 1 460.56 137.09
  L 460.56 120.17
  Z"
/>
<path fill="#687a7f" d="
  M 20.98 126.84
  L 20.93 150.97
  C 13.10 153.80 6.14 154.07 0.00 147.92
  L 0.00 123.89
  C 5.91 129.62 13.40 130.32 20.98 126.84
  Z"
/>
<path fill="#687a7f" d="
  M 842.00 124.51
  L 842.00 148.22
  Q 836.08 153.45 828.79 152.94
  Q 824.84 152.67 821.10 150.70
  L 821.07 128.16
  Q 823.97 128.92 826.87 129.48
  Q 835.93 131.21 842.00 124.51
  Z"
/>
<circle fill="#04367e" cx="245.50" cy="140.51" r="9.48"/>
<circle fill="#04367e" cx="296.50" cy="140.50" r="9.48"/>
<circle fill="#04367e" cx="347.50" cy="140.51" r="9.48"/>
<path fill="#1272b0" d="
  M 568.79 166.86
  L 516.86 166.86
  A 0.41 0.41 0.0 0 1 516.45 166.45
  L 516.45 131.99
  A 0.41 0.41 0.0 0 1 516.86 131.58
  L 556.93 131.58
  A 0.41 0.41 0.0 0 1 557.34 131.99
  L 557.34 142.99
  A 0.41 0.41 0.0 0 1 556.93 143.40
  L 528.44 143.40
  A 0.41 0.41 0.0 0 0 528.03 143.81
  L 528.03 154.81
  A 0.41 0.41 0.0 0 0 528.44 155.22
  L 568.79 155.22
  A 0.41 0.41 0.0 0 1 569.20 155.63
  L 569.20 166.45
  A 0.41 0.41 0.0 0 1 568.79 166.86
  Z"
/>
<path fill="#57666a" d="
  M 20.93 150.97
  L 21.02 159.02
  C 14.30 163.68 2.81 163.15 0.00 154.10
  L 0.00 147.92
  C 6.14 154.07 13.10 153.80 20.93 150.97
  Z"
/>
<path fill="#57666a" d="
  M 842.00 148.22
  L 842.00 153.97
  C 839.41 163.15 827.74 163.66 821.04 159.04
  L 821.10 150.70
  Q 824.84 152.67 828.79 152.94
  Q 836.08 153.45 842.00 148.22
  Z"
/>
<path fill="#57666a" d="
  M 44.97 153.21
  L 45.19 164.88
  Q 39.18 171.05 31.43 168.08
  Q 25.55 165.83 24.17 159.12
  Q 25.10 158.31 25.07 156.73
  Q 25.04 154.23 25.11 151.31
  Q 34.29 159.58 44.97 153.21
  Z"
/>
<path fill="#57666a" d="
  M 816.95 151.34
  Q 816.46 156.19 817.85 159.17
  Q 817.03 165.36 811.39 167.90
  Q 803.17 171.61 796.79 165.04
  L 797.06 153.36
  Q 808.04 159.43 816.95 151.34
  Z"
/>
<path fill="#57666a" d="
  M 67.97 156.92
  L 68.20 171.45
  Q 55.54 180.93 48.51 165.47
  L 49.04 153.46
  C 50.66 154.77 52.14 156.46 53.78 157.35
  Q 58.35 159.83 63.62 158.23
  Q 65.70 157.61 67.97 156.92
  Z"
/>
<path fill="#57666a" d="
  M 792.95 153.76
  L 793.31 165.12
  C 791.44 174.34 780.98 178.42 773.93 171.27
  L 774.07 156.75
  Q 784.60 162.67 792.95 153.76
  Z"
/>
<path fill="#0c52a0" d="
  M 752.16 162.10
  C 743.61 178.93 729.93 191.40 713.94 201.46
  Q 695.26 213.21 674.25 221.27
  C 626.15 239.72 574.33 247.26 523.07 248.82
  Q 516.77 249.01 473.92 249.04
  Q 424.26 249.08 298.57 248.84
  Q 296.26 248.84 293.94 248.52
  C 325.01 235.57 354.23 218.22 378.97 195.76
  Q 393.81 182.28 401.21 162.53
  A 0.80 0.79 9.9 0 1 401.96 162.01
  L 436.65 162.01
  A 0.27 0.27 0.0 0 1 436.92 162.28
  C 436.94 166.90 437.44 171.79 440.34 174.87
  Q 443.40 178.11 448.51 178.74
  Q 454.35 179.46 460.32 178.80
  Q 471.30 177.59 472.38 167.30
  A 0.34 0.34 0.0 0 1 472.95 167.09
  Q 476.19 170.19 478.11 172.35
  C 482.37 177.15 486.13 178.98 492.75 179.02
  Q 499.34 179.06 504.23 179.00
  C 506.73 178.96 509.16 177.81 511.44 177.75
  A 2.11 2.10 51.4 0 1 512.05 177.82
  L 516.61 178.95
  A 2.27 1.99 48.7 0 0 517.15 179.02
  Q 523.43 179.03 566.25 179.02
  C 569.63 179.02 573.67 178.28 576.35 176.19
  Q 580.08 173.28 580.98 168.43
  A 0.37 0.37 0.0 0 1 581.59 168.23
  C 598.22 183.64 625.85 182.53 641.13 165.85
  A 0.26 0.26 0.0 0 1 641.58 166.01
  Q 642.24 177.36 653.76 178.86
  Q 657.51 179.35 664.89 178.81
  Q 671.75 178.31 675.24 173.07
  C 676.97 170.48 677.69 165.79 677.29 162.72
  A 0.48 0.48 0.0 0 1 678.12 162.33
  Q 679.16 163.48 687.53 173.97
  Q 690.72 177.97 696.55 178.69
  Q 702.72 179.46 709.25 178.76
  C 718.47 177.76 721.45 170.72 721.00 162.37
  A 0.28 0.28 0.0 0 1 721.28 162.08
  L 752.16 162.10
  Z"
/>
</svg>
